<?xml version="1.0" encoding="UTF-8" standalone="no"?>
<!DOCTYPE svg PUBLIC "-//W3C//DTD SVG 1.1//EN"
 "http://www.w3.org/Graphics/SVG/1.1/DTD/svg11.dtd">
<!-- Generated by graphviz version 2.38.0 (20140413.2041)
 -->
<!-- Title: src/TH/BestListSelectionPolicy.h Pages: 1 -->
<svg width="221pt" height="167pt"
 viewBox="0.00 0.00 221.00 167.00" xmlns="http://www.w3.org/2000/svg" xmlns:xlink="http://www.w3.org/1999/xlink">
<g id="graph0" class="graph" transform="scale(1 1) rotate(0) translate(4 163)">
<title>src/TH/BestListSelectionPolicy.h</title>
<!-- Node1 -->
<g id="node1" class="node"><title>Node1</title>
<polygon fill="#bfbfbf" stroke="black" points="79,-126.5 79,-158.5 213,-158.5 213,-126.5 79,-126.5"/>
<text text-anchor="start" x="87" y="-145.7" font-family="Helvetica,sans-Serif" font-size="11.00">src/TH/BestListSelection</text>
<text text-anchor="middle" x="146" y="-133.7" font-family="Helvetica,sans-Serif" font-size="11.00">Policy.h</text>
</g>
<!-- Node2 -->
<g id="node2" class="node"><title>Node2</title>
<g id="a_node2"><a xlink:href="$RandomBestListSelectionPolicy_8h.xhtml" xlink:title="src/TH/RandomBestListSelection\lPolicy.h">
<polygon fill="none" stroke="black" points="0,-57.5 0,-89.5 176,-89.5 176,-57.5 0,-57.5"/>
<text text-anchor="start" x="8" y="-76.7" font-family="Helvetica,sans-Serif" font-size="11.00">src/TH/RandomBestListSelection</text>
<text text-anchor="middle" x="88" y="-64.7" font-family="Helvetica,sans-Serif" font-size="11.00">Policy.h</text>
</a>
</g>
</g>
<!-- Node1&#45;&gt;Node2 -->
<g id="edge1" class="edge"><title>Node1&#45;&gt;Node2</title>
<path fill="none" stroke="midnightblue" d="M126.209,-118.638C117.922,-109.065 108.515,-98.1987 101.109,-89.6432"/>
<polygon fill="midnightblue" stroke="midnightblue" points="123.648,-121.027 132.839,-126.297 128.94,-116.445 123.648,-121.027"/>
</g>
<!-- Node3 -->
<g id="node3" class="node"><title>Node3</title>
<g id="a_node3"><a xlink:href="$THBuilder_8h.xhtml" xlink:title="src/TH/THBuilder.h">
<polygon fill="none" stroke="black" points="91,-0.5 91,-20.5 201,-20.5 201,-0.5 91,-0.5"/>
<text text-anchor="middle" x="146" y="-7.7" font-family="Helvetica,sans-Serif" font-size="11.00">src/TH/THBuilder.h</text>
</a>
</g>
</g>
<!-- Node1&#45;&gt;Node3 -->
<g id="edge3" class="edge"><title>Node1&#45;&gt;Node3</title>
<path fill="none" stroke="midnightblue" d="M168.333,-118.641C175.031,-110.306 181.518,-100.366 185,-90 189.67,-76.0968 190.089,-70.7556 185,-57 179.513,-42.1682 166.793,-28.9086 157.363,-20.5831"/>
<polygon fill="midnightblue" stroke="midnightblue" points="165.531,-116.532 161.669,-126.398 170.841,-121.094 165.531,-116.532"/>
</g>
<!-- Node2&#45;&gt;Node3 -->
<g id="edge2" class="edge"><title>Node2&#45;&gt;Node3</title>
<path fill="none" stroke="midnightblue" d="M109.436,-49.955C119.132,-39.7578 130.04,-28.285 137.399,-20.5459"/>
<polygon fill="midnightblue" stroke="midnightblue" points="106.691,-47.7626 102.337,-57.4213 111.764,-52.586 106.691,-47.7626"/>
</g>
</g>
</svg>
