<?xml version="1.0" encoding="UTF-8" standalone="no"?>
<!DOCTYPE svg PUBLIC "-//W3C//DTD SVG 1.1//EN"
 "http://www.w3.org/Graphics/SVG/1.1/DTD/svg11.dtd">
<!-- Generated by graphviz version 2.38.0 (20140413.2041)
 -->
<!-- Title: src/TH/BestList.h Pages: 1 -->
<svg width="634pt" height="224pt"
 viewBox="0.00 0.00 633.64 224.00" xmlns="http://www.w3.org/2000/svg" xmlns:xlink="http://www.w3.org/1999/xlink">
<g id="graph0" class="graph" transform="scale(1 1) rotate(0) translate(4 220)">
<title>src/TH/BestList.h</title>
<!-- Node1 -->
<g id="node1" class="node"><title>Node1</title>
<polygon fill="#bfbfbf" stroke="black" points="254.5,-195.5 254.5,-215.5 353.5,-215.5 353.5,-195.5 254.5,-195.5"/>
<text text-anchor="middle" x="304" y="-202.7" font-family="Helvetica,sans-Serif" font-size="11.00">src/TH/BestList.h</text>
</g>
<!-- Node2 -->
<g id="node2" class="node"><title>Node2</title>
<g id="a_node2"><a xlink:href="$BestListSelectionPolicy_8h.xhtml" xlink:title="src/TH/BestListSelection\lPolicy.h">
<polygon fill="none" stroke="black" points="80,-126.5 80,-158.5 214,-158.5 214,-126.5 80,-126.5"/>
<text text-anchor="start" x="88" y="-145.7" font-family="Helvetica,sans-Serif" font-size="11.00">src/TH/BestListSelection</text>
<text text-anchor="middle" x="147" y="-133.7" font-family="Helvetica,sans-Serif" font-size="11.00">Policy.h</text>
</a>
</g>
</g>
<!-- Node1&#45;&gt;Node2 -->
<g id="edge1" class="edge"><title>Node1&#45;&gt;Node2</title>
<path fill="none" stroke="midnightblue" d="M271.462,-191.858C246.559,-182.182 212.129,-168.805 185.793,-158.573"/>
<polygon fill="midnightblue" stroke="midnightblue" points="270.245,-195.14 280.834,-195.499 272.781,-188.615 270.245,-195.14"/>
</g>
<!-- Node4 -->
<g id="node4" class="node"><title>Node4</title>
<g id="a_node4"><a xlink:href="$THBuilder_8h.xhtml" xlink:title="src/TH/THBuilder.h">
<polygon fill="none" stroke="black" points="206,-0.5 206,-20.5 316,-20.5 316,-0.5 206,-0.5"/>
<text text-anchor="middle" x="261" y="-7.7" font-family="Helvetica,sans-Serif" font-size="11.00">src/TH/THBuilder.h</text>
</a>
</g>
</g>
<!-- Node1&#45;&gt;Node4 -->
<g id="edge12" class="edge"><title>Node1&#45;&gt;Node4</title>
<path fill="none" stroke="midnightblue" d="M290.235,-187.214C284.531,-179.11 278.451,-169.041 275,-159 257.861,-109.131 259.194,-44.546 260.405,-20.792"/>
<polygon fill="midnightblue" stroke="midnightblue" points="287.572,-189.498 296.356,-195.422 293.184,-185.313 287.572,-189.498"/>
</g>
<!-- Node5 -->
<g id="node5" class="node"><title>Node5</title>
<g id="a_node5"><a xlink:href="$BestListUpdatePolicy_8h.xhtml" xlink:title="src/TH/BestListUpdatePolicy.h">
<polygon fill="none" stroke="black" points="284.5,-132.5 284.5,-152.5 447.5,-152.5 447.5,-132.5 284.5,-132.5"/>
<text text-anchor="middle" x="366" y="-139.7" font-family="Helvetica,sans-Serif" font-size="11.00">src/TH/BestListUpdatePolicy.h</text>
</a>
</g>
</g>
<!-- Node1&#45;&gt;Node5 -->
<g id="edge5" class="edge"><title>Node1&#45;&gt;Node5</title>
<path fill="none" stroke="midnightblue" d="M320.525,-188.242C332.149,-176.805 347.275,-161.923 356.814,-152.538"/>
<polygon fill="midnightblue" stroke="midnightblue" points="317.822,-185.991 313.148,-195.499 322.731,-190.981 317.822,-185.991"/>
</g>
<!-- Node8 -->
<g id="node8" class="node"><title>Node8</title>
<g id="a_node8"><a xlink:href="$TH_8h.xhtml" xlink:title="src/TH/TH.h">
<polygon fill="none" stroke="black" points="540,-132.5 540,-152.5 616,-152.5 616,-132.5 540,-132.5"/>
<text text-anchor="middle" x="578" y="-139.7" font-family="Helvetica,sans-Serif" font-size="11.00">src/TH/TH.h</text>
</a>
</g>
</g>
<!-- Node1&#45;&gt;Node8 -->
<g id="edge10" class="edge"><title>Node1&#45;&gt;Node8</title>
<path fill="none" stroke="midnightblue" d="M354.381,-193.284C407.867,-181.376 491.213,-162.821 539.617,-152.045"/>
<polygon fill="midnightblue" stroke="midnightblue" points="353.43,-189.91 344.43,-195.499 354.951,-196.742 353.43,-189.91"/>
</g>
<!-- Node3 -->
<g id="node3" class="node"><title>Node3</title>
<g id="a_node3"><a xlink:href="$RandomBestListSelectionPolicy_8h.xhtml" xlink:title="src/TH/RandomBestListSelection\lPolicy.h">
<polygon fill="none" stroke="black" points="0,-57.5 0,-89.5 176,-89.5 176,-57.5 0,-57.5"/>
<text text-anchor="start" x="8" y="-76.7" font-family="Helvetica,sans-Serif" font-size="11.00">src/TH/RandomBestListSelection</text>
<text text-anchor="middle" x="88" y="-64.7" font-family="Helvetica,sans-Serif" font-size="11.00">Policy.h</text>
</a>
</g>
</g>
<!-- Node2&#45;&gt;Node3 -->
<g id="edge2" class="edge"><title>Node2&#45;&gt;Node3</title>
<path fill="none" stroke="midnightblue" d="M126.868,-118.638C118.438,-109.065 108.869,-98.1987 101.335,-89.6432"/>
<polygon fill="midnightblue" stroke="midnightblue" points="124.376,-121.105 133.612,-126.297 129.63,-116.479 124.376,-121.105"/>
</g>
<!-- Node2&#45;&gt;Node4 -->
<g id="edge4" class="edge"><title>Node2&#45;&gt;Node4</title>
<path fill="none" stroke="midnightblue" d="M166.978,-118.718C192.407,-89.7201 235.162,-40.9642 252.905,-20.7313"/>
<polygon fill="midnightblue" stroke="midnightblue" points="164.262,-116.507 160.3,-126.333 169.525,-121.122 164.262,-116.507"/>
</g>
<!-- Node3&#45;&gt;Node4 -->
<g id="edge3" class="edge"><title>Node3&#45;&gt;Node4</title>
<path fill="none" stroke="midnightblue" d="M140.272,-54.0689C171.728,-42.9775 210.384,-29.3472 235.345,-20.5459"/>
<polygon fill="midnightblue" stroke="midnightblue" points="139.031,-50.7951 130.764,-57.4213 141.359,-57.3967 139.031,-50.7951"/>
</g>
<!-- Node5&#45;&gt;Node4 -->
<g id="edge9" class="edge"><title>Node5&#45;&gt;Node4</title>
<path fill="none" stroke="midnightblue" d="M341.645,-126.844C327.811,-117.599 310.927,-104.655 299,-90 281.032,-67.9223 268.961,-35.9357 263.816,-20.5005"/>
<polygon fill="midnightblue" stroke="midnightblue" points="339.912,-129.891 350.213,-132.366 343.704,-124.007 339.912,-129.891"/>
</g>
<!-- Node6 -->
<g id="node6" class="node"><title>Node6</title>
<g id="a_node6"><a xlink:href="$ConvergentBestListUpdatePolicy_8h.xhtml" xlink:title="src/TH/ConvergentBestList\lUpdatePolicy.h">
<polygon fill="none" stroke="black" points="308,-57.5 308,-89.5 454,-89.5 454,-57.5 308,-57.5"/>
<text text-anchor="start" x="316" y="-76.7" font-family="Helvetica,sans-Serif" font-size="11.00">src/TH/ConvergentBestList</text>
<text text-anchor="middle" x="381" y="-64.7" font-family="Helvetica,sans-Serif" font-size="11.00">UpdatePolicy.h</text>
</a>
</g>
</g>
<!-- Node5&#45;&gt;Node6 -->
<g id="edge6" class="edge"><title>Node5&#45;&gt;Node6</title>
<path fill="none" stroke="midnightblue" d="M370.222,-122.64C372.567,-112.168 375.443,-99.3214 377.634,-89.5335"/>
<polygon fill="midnightblue" stroke="midnightblue" points="366.792,-121.941 368.023,-132.464 373.623,-123.47 366.792,-121.941"/>
</g>
<!-- Node7 -->
<g id="node7" class="node"><title>Node7</title>
<g id="a_node7"><a xlink:href="$DivergentBestListUpdatePolicy_8h.xhtml" xlink:title="src/TH/DivergentBestList\lUpdatePolicy.h">
<polygon fill="none" stroke="black" points="472.5,-57.5 472.5,-89.5 609.5,-89.5 609.5,-57.5 472.5,-57.5"/>
<text text-anchor="start" x="480.5" y="-76.7" font-family="Helvetica,sans-Serif" font-size="11.00">src/TH/DivergentBestList</text>
<text text-anchor="middle" x="541" y="-64.7" font-family="Helvetica,sans-Serif" font-size="11.00">UpdatePolicy.h</text>
</a>
</g>
</g>
<!-- Node5&#45;&gt;Node7 -->
<g id="edge8" class="edge"><title>Node5&#45;&gt;Node7</title>
<path fill="none" stroke="midnightblue" d="M398.946,-128.886C428.13,-117.713 470.786,-101.382 501.733,-89.5335"/>
<polygon fill="midnightblue" stroke="midnightblue" points="397.689,-125.62 389.601,-132.464 400.192,-132.157 397.689,-125.62"/>
</g>
<!-- Node6&#45;&gt;Node4 -->
<g id="edge7" class="edge"><title>Node6&#45;&gt;Node4</title>
<path fill="none" stroke="midnightblue" d="M342.181,-52.767C320.857,-41.9272 295.438,-29.0058 278.795,-20.5459"/>
<polygon fill="midnightblue" stroke="midnightblue" points="340.837,-56.0099 351.337,-57.4213 344.009,-49.7698 340.837,-56.0099"/>
</g>
<!-- Node8&#45;&gt;Node4 -->
<g id="edge11" class="edge"><title>Node8&#45;&gt;Node4</title>
<path fill="none" stroke="midnightblue" d="M595.907,-125.412C614.034,-107.211 637.014,-77.4481 619,-57 599.328,-34.6692 411.655,-20.4224 316.194,-14.5606"/>
<polygon fill="midnightblue" stroke="midnightblue" points="593.368,-122.997 588.569,-132.443 598.211,-128.052 593.368,-122.997"/>
</g>
</g>
</svg>
