<?xml version="1.0" encoding="UTF-8" standalone="no"?>
<!DOCTYPE svg PUBLIC "-//W3C//DTD SVG 1.1//EN"
 "http://www.w3.org/Graphics/SVG/1.1/DTD/svg11.dtd">
<!-- Generated by graphviz version 2.38.0 (20140413.2041)
 -->
<!-- Title: RegionSelectionPolicy&lt; P, pSize, F, fSize, V, vSize &gt; Pages: 1 -->
<svg width="356pt" height="286pt"
 viewBox="0.00 0.00 355.50 286.00" xmlns="http://www.w3.org/2000/svg" xmlns:xlink="http://www.w3.org/1999/xlink">
<g id="graph0" class="graph" transform="scale(1 1) rotate(0) translate(4 282)">
<title>RegionSelectionPolicy&lt; P, pSize, F, fSize, V, vSize &gt;</title>
<!-- Node1 -->
<g id="node1" class="node"><title>Node1</title>
<polygon fill="#bfbfbf" stroke="black" points="106,-157.5 106,-277.5 254,-277.5 254,-157.5 106,-157.5"/>
<text text-anchor="start" x="114" y="-264.7" font-family="Helvetica,sans-Serif" font-size="11.00">RegionSelectionPolicy</text>
<text text-anchor="start" x="114" y="-252.7" font-family="Helvetica,sans-Serif" font-size="11.00">&lt; P, pSize, F, fSize,</text>
<text text-anchor="middle" x="180" y="-240.7" font-family="Helvetica,sans-Serif" font-size="11.00"> V, vSize &gt;</text>
<polyline fill="none" stroke="black" points="106,-233.5 254,-233.5 "/>
<text text-anchor="middle" x="180" y="-220.7" font-family="Helvetica,sans-Serif" font-size="11.00"> </text>
<polyline fill="none" stroke="black" points="106,-213.5 254,-213.5 "/>
<text text-anchor="start" x="114" y="-200.7" font-family="Helvetica,sans-Serif" font-size="11.00">+ RegionSelectionPolicy()</text>
<text text-anchor="start" x="114" y="-188.7" font-family="Helvetica,sans-Serif" font-size="11.00">+ ~RegionSelectionPolicy()</text>
<text text-anchor="start" x="114" y="-176.7" font-family="Helvetica,sans-Serif" font-size="11.00">+ apply()</text>
<text text-anchor="start" x="114" y="-164.7" font-family="Helvetica,sans-Serif" font-size="11.00">+ recalculate()</text>
</g>
<!-- Node2 -->
<g id="node2" class="node"><title>Node2</title>
<g id="a_node2"><a xlink:href="$classGroupRegionSelectionPolicy.xhtml" xlink:title="This policy implements the sub&#45;region selection criteria by grouping dimensions. ">
<polygon fill="none" stroke="black" points="0,-0.5 0,-108.5 178,-108.5 178,-0.5 0,-0.5"/>
<text text-anchor="start" x="8" y="-95.7" font-family="Helvetica,sans-Serif" font-size="11.00">GroupRegionSelectionPolicy</text>
<text text-anchor="start" x="8" y="-83.7" font-family="Helvetica,sans-Serif" font-size="11.00">&lt; P, pSize, F, fSize, V,</text>
<text text-anchor="middle" x="89" y="-71.7" font-family="Helvetica,sans-Serif" font-size="11.00"> vSize &gt;</text>
<polyline fill="none" stroke="black" points="0,-64.5 178,-64.5 "/>
<text text-anchor="middle" x="89" y="-51.7" font-family="Helvetica,sans-Serif" font-size="11.00"> </text>
<polyline fill="none" stroke="black" points="0,-44.5 178,-44.5 "/>
<text text-anchor="start" x="8" y="-31.7" font-family="Helvetica,sans-Serif" font-size="11.00">+ GroupRegionSelectionPolicy()</text>
<text text-anchor="start" x="8" y="-19.7" font-family="Helvetica,sans-Serif" font-size="11.00">+ ~GroupRegionSelectionPolicy()</text>
<text text-anchor="start" x="8" y="-7.7" font-family="Helvetica,sans-Serif" font-size="11.00">+ apply()</text>
</a>
</g>
</g>
<!-- Node1&#45;&gt;Node2 -->
<g id="edge1" class="edge"><title>Node1&#45;&gt;Node2</title>
<path fill="none" stroke="midnightblue" d="M141.707,-148.751C134.139,-135.362 126.298,-121.489 119.051,-108.667"/>
<polygon fill="none" stroke="midnightblue" points="138.664,-150.48 146.632,-157.464 144.758,-147.036 138.664,-150.48"/>
</g>
<!-- Node3 -->
<g id="node3" class="node"><title>Node3</title>
<g id="a_node3"><a xlink:href="$classRegionSelectionPolicy.xhtml" xlink:title="{RegionSelectionPolicy\&lt; P \&gt;\n||+ RegionSelectionPolicy()\l+ ~RegionSelectionPolicy()\l+ apply()\l+ recalculate()\l}">
<polygon fill="none" stroke="black" points="196.5,-6.5 196.5,-102.5 347.5,-102.5 347.5,-6.5 196.5,-6.5"/>
<text text-anchor="middle" x="272" y="-89.7" font-family="Helvetica,sans-Serif" font-size="11.00">RegionSelectionPolicy&lt; P &gt;</text>
<polyline fill="none" stroke="black" points="196.5,-82.5 347.5,-82.5 "/>
<text text-anchor="middle" x="272" y="-69.7" font-family="Helvetica,sans-Serif" font-size="11.00"> </text>
<polyline fill="none" stroke="black" points="196.5,-62.5 347.5,-62.5 "/>
<text text-anchor="start" x="204.5" y="-49.7" font-family="Helvetica,sans-Serif" font-size="11.00">+ RegionSelectionPolicy()</text>
<text text-anchor="start" x="204.5" y="-37.7" font-family="Helvetica,sans-Serif" font-size="11.00">+ ~RegionSelectionPolicy()</text>
<text text-anchor="start" x="204.5" y="-25.7" font-family="Helvetica,sans-Serif" font-size="11.00">+ apply()</text>
<text text-anchor="start" x="204.5" y="-13.7" font-family="Helvetica,sans-Serif" font-size="11.00">+ recalculate()</text>
</a>
</g>
</g>
<!-- Node1&#45;&gt;Node3 -->
<g id="edge2" class="edge"><title>Node1&#45;&gt;Node3</title>
<path fill="none" stroke="orange" d="M218.87,-148.478C227.678,-133.063 236.844,-117.023 245.033,-102.692"/>
<polygon fill="orange" stroke="orange" points="215.658,-147.045 213.735,-157.464 221.735,-150.518 215.658,-147.045"/>
<text text-anchor="middle" x="244.5" y="-130.2" font-family="Helvetica,sans-Serif" font-size="11.00"> &lt; P &gt;</text>
</g>
</g>
</svg>
