<?xml version="1.0" encoding="UTF-8" standalone="no"?>
<!DOCTYPE svg PUBLIC "-//W3C//DTD SVG 1.1//EN"
 "http://www.w3.org/Graphics/SVG/1.1/DTD/svg11.dtd">
<!-- Generated by graphviz version 2.38.0 (20140413.2041)
 -->
<!-- Title: GroupRegionSelectionPolicy::apply Pages: 1 -->
<svg width="323pt" height="107pt"
 viewBox="0.00 0.00 323.00 107.00" xmlns="http://www.w3.org/2000/svg" xmlns:xlink="http://www.w3.org/1999/xlink">
<g id="graph0" class="graph" transform="scale(1 1) rotate(0) translate(4 103)">
<title>GroupRegionSelectionPolicy::apply</title>
<!-- Node1 -->
<g id="node1" class="node"><title>Node1</title>
<polygon fill="#bfbfbf" stroke="black" points="0,-33.5 0,-65.5 154,-65.5 154,-33.5 0,-33.5"/>
<text text-anchor="start" x="8" y="-52.7" font-family="Helvetica,sans-Serif" font-size="11.00">GroupRegionSelectionPolicy</text>
<text text-anchor="middle" x="77" y="-40.7" font-family="Helvetica,sans-Serif" font-size="11.00">::apply</text>
</g>
<!-- Node2 -->
<g id="node2" class="node"><title>Node2</title>
<g id="a_node2"><a xlink:href="$classTHTree.xhtml#a4f17fef67dc2141d2fec2493e3856bf8" xlink:title="THTree::getNode">
<polygon fill="none" stroke="black" points="202,-78.5 202,-98.5 303,-98.5 303,-78.5 202,-78.5"/>
<text text-anchor="middle" x="252.5" y="-85.7" font-family="Helvetica,sans-Serif" font-size="11.00">THTree::getNode</text>
</a>
</g>
</g>
<!-- Node1&#45;&gt;Node2 -->
<g id="edge1" class="edge"><title>Node1&#45;&gt;Node2</title>
<path fill="none" stroke="midnightblue" d="M149.32,-65.5316C165.116,-69.0822 181.616,-72.7913 196.636,-76.1674"/>
<polygon fill="midnightblue" stroke="midnightblue" points="196.246,-79.667 206.77,-78.4454 197.781,-72.8375 196.246,-79.667"/>
</g>
<!-- Node3 -->
<g id="node3" class="node"><title>Node3</title>
<g id="a_node3"><a xlink:href="$classTHTree.xhtml#a711df30e7dd52b8f5055a1757bbe0e02" xlink:title="THTree::getRootNode">
<polygon fill="none" stroke="black" points="190,-39.5 190,-59.5 315,-59.5 315,-39.5 190,-39.5"/>
<text text-anchor="middle" x="252.5" y="-46.7" font-family="Helvetica,sans-Serif" font-size="11.00">THTree::getRootNode</text>
</a>
</g>
</g>
<!-- Node1&#45;&gt;Node3 -->
<g id="edge2" class="edge"><title>Node1&#45;&gt;Node3</title>
<path fill="none" stroke="midnightblue" d="M154.1,-49.5C162.579,-49.5 171.197,-49.5 179.621,-49.5"/>
<polygon fill="midnightblue" stroke="midnightblue" points="179.78,-53.0001 189.78,-49.5 179.78,-46.0001 179.78,-53.0001"/>
</g>
<!-- Node4 -->
<g id="node4" class="node"><title>Node4</title>
<g id="a_node4"><a xlink:href="$structt__node.xhtml#ac870573b476905ff91ade58bb9e1b385" xlink:title="t_node::getParent">
<polygon fill="none" stroke="black" points="201,-0.5 201,-20.5 304,-20.5 304,-0.5 201,-0.5"/>
<text text-anchor="middle" x="252.5" y="-7.7" font-family="Helvetica,sans-Serif" font-size="11.00">t_node::getParent</text>
</a>
</g>
</g>
<!-- Node1&#45;&gt;Node4 -->
<g id="edge3" class="edge"><title>Node1&#45;&gt;Node4</title>
<path fill="none" stroke="midnightblue" d="M149.32,-33.4684C165.116,-29.9178 181.616,-26.2087 196.636,-22.8326"/>
<polygon fill="midnightblue" stroke="midnightblue" points="197.781,-26.1625 206.77,-20.5546 196.246,-19.333 197.781,-26.1625"/>
</g>
</g>
</svg>
