<?xml version="1.0" encoding="UTF-8" standalone="no"?>
<!DOCTYPE svg PUBLIC "-//W3C//DTD SVG 1.1//EN"
 "http://www.w3.org/Graphics/SVG/1.1/DTD/svg11.dtd">
<!-- Generated by graphviz version 2.38.0 (20140413.2041)
 -->
<!-- Title: Search::next Pages: 1 -->
<svg width="579pt" height="97pt"
 viewBox="0.00 0.00 579.00 97.00" xmlns="http://www.w3.org/2000/svg" xmlns:xlink="http://www.w3.org/1999/xlink">
<g id="graph0" class="graph" transform="scale(1 1) rotate(0) translate(4 93)">
<title>Search::next</title>
<!-- Node1 -->
<g id="node1" class="node"><title>Node1</title>
<polygon fill="#bfbfbf" stroke="black" points="0,-19.5 0,-39.5 77,-39.5 77,-19.5 0,-19.5"/>
<text text-anchor="middle" x="38.5" y="-26.7" font-family="Helvetica,sans-Serif" font-size="11.00">Search::next</text>
</g>
<!-- Node2 -->
<g id="node2" class="node"><title>Node2</title>
<g id="a_node2"><a xlink:href="$classSearch.xhtml#af9f46406f1f1f7f89ab294c155738ca6" xlink:title="Set the full search space. ">
<polygon fill="none" stroke="black" points="113,-39.5 113,-59.5 250,-59.5 250,-39.5 113,-39.5"/>
<text text-anchor="middle" x="181.5" y="-46.7" font-family="Helvetica,sans-Serif" font-size="11.00">Search::setSearchSpace</text>
</a>
</g>
</g>
<!-- Node1&#45;&gt;Node2 -->
<g id="edge1" class="edge"><title>Node1&#45;&gt;Node2</title>
<path fill="none" stroke="midnightblue" d="M87.4163,-36.2966C95.6386,-37.4629 104.319,-38.6942 112.941,-39.9171"/>
<polygon fill="midnightblue" stroke="midnightblue" points="87.6779,-32.7988 77.2854,-34.8596 86.6947,-39.7294 87.6779,-32.7988"/>
</g>
<!-- Node5 -->
<g id="node5" class="node"><title>Node5</title>
<g id="a_node5"><a xlink:href="$classTHBuilder_1_1THImpl.xhtml#a943301db5154fd7b672119b5c9917303" xlink:title="Starts the Treasure Hunt mechanisms. ">
<polygon fill="none" stroke="black" points="117.5,-0.5 117.5,-20.5 245.5,-20.5 245.5,-0.5 117.5,-0.5"/>
<text text-anchor="middle" x="181.5" y="-7.7" font-family="Helvetica,sans-Serif" font-size="11.00">THBuilder::THImpl::run</text>
</a>
</g>
</g>
<!-- Node1&#45;&gt;Node5 -->
<g id="edge5" class="edge"><title>Node1&#45;&gt;Node5</title>
<path fill="none" stroke="midnightblue" d="M87.4244,-23.0421C97.0303,-21.7477 107.261,-20.369 117.293,-19.0172"/>
<polygon fill="midnightblue" stroke="midnightblue" points="86.7284,-19.6042 77.2854,-24.4083 87.6633,-26.5415 86.7284,-19.6042"/>
</g>
<!-- Node3 -->
<g id="node3" class="node"><title>Node3</title>
<g id="a_node3"><a xlink:href="$classTHBuilder_1_1SearchGroup.xhtml#a794cf5448380674b51022b5d65a240e2" xlink:title="Constructor to create the internal Search Group. ">
<polygon fill="none" stroke="black" points="286,-56.5 286,-88.5 422,-88.5 422,-56.5 286,-56.5"/>
<text text-anchor="start" x="294" y="-75.7" font-family="Helvetica,sans-Serif" font-size="11.00">THBuilder::SearchGroup</text>
<text text-anchor="middle" x="354" y="-63.7" font-family="Helvetica,sans-Serif" font-size="11.00">::SearchGroup</text>
</a>
</g>
</g>
<!-- Node2&#45;&gt;Node3 -->
<g id="edge2" class="edge"><title>Node2&#45;&gt;Node3</title>
<path fill="none" stroke="midnightblue" d="M260.336,-59.9999C268.878,-61.1521 277.519,-62.3178 285.914,-63.4503"/>
<polygon fill="midnightblue" stroke="midnightblue" points="260.754,-56.5247 250.376,-58.6563 259.818,-63.4618 260.754,-56.5247"/>
</g>
<!-- Node4 -->
<g id="node4" class="node"><title>Node4</title>
<g id="a_node4"><a xlink:href="$classTHBuilder_1_1THImpl.xhtml#a0d6e2fd43f50755ff2738e924f66690d" xlink:title="THBuilder::THImpl::\lTHImpl">
<polygon fill="none" stroke="black" points="458,-33.5 458,-65.5 571,-65.5 571,-33.5 458,-33.5"/>
<text text-anchor="start" x="466" y="-52.7" font-family="Helvetica,sans-Serif" font-size="11.00">THBuilder::THImpl::</text>
<text text-anchor="middle" x="514.5" y="-40.7" font-family="Helvetica,sans-Serif" font-size="11.00">THImpl</text>
</a>
</g>
</g>
<!-- Node2&#45;&gt;Node4 -->
<g id="edge4" class="edge"><title>Node2&#45;&gt;Node4</title>
<path fill="none" stroke="midnightblue" d="M260.285,-47.8349C268.961,-47.6974 277.669,-47.5805 286,-47.5 346.442,-46.9161 361.559,-46.8395 422,-47.5 433.598,-47.6267 446.022,-47.8438 457.858,-48.0894"/>
<polygon fill="midnightblue" stroke="midnightblue" points="260.081,-44.3378 250.141,-48.0049 260.199,-51.3368 260.081,-44.3378"/>
</g>
<!-- Node3&#45;&gt;Node4 -->
<g id="edge3" class="edge"><title>Node3&#45;&gt;Node4</title>
<path fill="none" stroke="midnightblue" d="M432.247,-61.2906C440.824,-60.0461 449.431,-58.7971 457.668,-57.6019"/>
<polygon fill="midnightblue" stroke="midnightblue" points="431.612,-57.8461 422.218,-62.7459 432.617,-64.7735 431.612,-57.8461"/>
</g>
</g>
</svg>
