<?xml version="1.0" encoding="UTF-8" standalone="no"?>
<!DOCTYPE svg PUBLIC "-//W3C//DTD SVG 1.1//EN"
 "http://www.w3.org/Graphics/SVG/1.1/DTD/svg11.dtd">
<!-- Generated by graphviz version 2.38.0 (20140413.2041)
 -->
<!-- Title: THBuilder::getSearchSpace Pages: 1 -->
<svg width="481pt" height="119pt"
 viewBox="0.00 0.00 481.00 119.00" xmlns="http://www.w3.org/2000/svg" xmlns:xlink="http://www.w3.org/1999/xlink">
<g id="graph0" class="graph" transform="scale(1 1) rotate(0) translate(4 115)">
<title>THBuilder::getSearchSpace</title>
<!-- Node1 -->
<g id="node1" class="node"><title>Node1</title>
<polygon fill="#bfbfbf" stroke="black" points="0,-39.5 0,-59.5 152,-59.5 152,-39.5 0,-39.5"/>
<text text-anchor="middle" x="76" y="-46.7" font-family="Helvetica,sans-Serif" font-size="11.00">THBuilder::getSearchSpace</text>
</g>
<!-- Node2 -->
<g id="node2" class="node"><title>Node2</title>
<g id="a_node2"><a xlink:href="$classTHBuilder_1_1SearchGroup.xhtml#a794cf5448380674b51022b5d65a240e2" xlink:title="Constructor to create the internal Search Group. ">
<polygon fill="none" stroke="black" points="188,-78.5 188,-110.5 324,-110.5 324,-78.5 188,-78.5"/>
<text text-anchor="start" x="196" y="-97.7" font-family="Helvetica,sans-Serif" font-size="11.00">THBuilder::SearchGroup</text>
<text text-anchor="middle" x="256" y="-85.7" font-family="Helvetica,sans-Serif" font-size="11.00">::SearchGroup</text>
</a>
</g>
</g>
<!-- Node1&#45;&gt;Node2 -->
<g id="edge1" class="edge"><title>Node1&#45;&gt;Node2</title>
<path fill="none" stroke="midnightblue" d="M126.794,-62.0883C146.833,-67.1545 170.187,-73.0586 191.431,-78.4292"/>
<polygon fill="midnightblue" stroke="midnightblue" points="127.5,-58.6567 116.947,-59.5989 125.784,-65.4432 127.5,-58.6567"/>
</g>
<!-- Node3 -->
<g id="node3" class="node"><title>Node3</title>
<g id="a_node3"><a xlink:href="$classTHBuilder_1_1THImpl.xhtml#a0d6e2fd43f50755ff2738e924f66690d" xlink:title="THBuilder::THImpl::\lTHImpl">
<polygon fill="none" stroke="black" points="360,-55.5 360,-87.5 473,-87.5 473,-55.5 360,-55.5"/>
<text text-anchor="start" x="368" y="-74.7" font-family="Helvetica,sans-Serif" font-size="11.00">THBuilder::THImpl::</text>
<text text-anchor="middle" x="416.5" y="-62.7" font-family="Helvetica,sans-Serif" font-size="11.00">THImpl</text>
</a>
</g>
</g>
<!-- Node1&#45;&gt;Node3 -->
<g id="edge3" class="edge"><title>Node1&#45;&gt;Node3</title>
<path fill="none" stroke="midnightblue" d="M162.265,-55.0416C224.151,-59.0638 306.105,-64.3901 359.784,-67.8789"/>
<polygon fill="midnightblue" stroke="midnightblue" points="162.33,-51.5385 152.124,-54.3825 161.876,-58.5238 162.33,-51.5385"/>
</g>
<!-- Node4 -->
<g id="node4" class="node"><title>Node4</title>
<g id="a_node4"><a xlink:href="$classTHBuilder_1_1THImpl.xhtml#a943301db5154fd7b672119b5c9917303" xlink:title="Starts the Treasure Hunt mechanisms. ">
<polygon fill="none" stroke="black" points="192,-0.5 192,-20.5 320,-20.5 320,-0.5 192,-0.5"/>
<text text-anchor="middle" x="256" y="-7.7" font-family="Helvetica,sans-Serif" font-size="11.00">THBuilder::THImpl::run</text>
</a>
</g>
</g>
<!-- Node1&#45;&gt;Node4 -->
<g id="edge4" class="edge"><title>Node1&#45;&gt;Node4</title>
<path fill="none" stroke="midnightblue" d="M132.768,-37.2812C157.393,-31.8858 185.981,-25.6221 209.316,-20.5094"/>
<polygon fill="midnightblue" stroke="midnightblue" points="131.859,-33.8973 122.839,-39.4565 133.357,-40.7351 131.859,-33.8973"/>
</g>
<!-- Node2&#45;&gt;Node3 -->
<g id="edge2" class="edge"><title>Node2&#45;&gt;Node3</title>
<path fill="none" stroke="midnightblue" d="M334.247,-83.2906C342.824,-82.0461 351.431,-80.7971 359.668,-79.6019"/>
<polygon fill="midnightblue" stroke="midnightblue" points="333.612,-79.8461 324.218,-84.7459 334.617,-86.7735 333.612,-79.8461"/>
</g>
</g>
</svg>
