<?xml version="1.0" encoding="UTF-8" standalone="no"?>
<!DOCTYPE svg PUBLIC "-//W3C//DTD SVG 1.1//EN"
 "http://www.w3.org/Graphics/SVG/1.1/DTD/svg11.dtd">
<!-- Generated by graphviz version 2.38.0 (20140413.2041)
 -->
<!-- Title: ConvergentBestListUpdatePolicy::apply Pages: 1 -->
<svg width="633pt" height="158pt"
 viewBox="0.00 0.00 633.00 158.00" xmlns="http://www.w3.org/2000/svg" xmlns:xlink="http://www.w3.org/1999/xlink">
<g id="graph0" class="graph" transform="scale(1 1) rotate(0) translate(4 154)">
<title>ConvergentBestListUpdatePolicy::apply</title>
<!-- Node1 -->
<g id="node1" class="node"><title>Node1</title>
<polygon fill="#bfbfbf" stroke="black" points="0,-61.5 0,-93.5 146,-93.5 146,-61.5 0,-61.5"/>
<text text-anchor="start" x="8" y="-80.7" font-family="Helvetica,sans-Serif" font-size="11.00">ConvergentBestListUpdate</text>
<text text-anchor="middle" x="73" y="-68.7" font-family="Helvetica,sans-Serif" font-size="11.00">Policy::apply</text>
</g>
<!-- Node2 -->
<g id="node2" class="node"><title>Node2</title>
<g id="a_node2"><a xlink:href="$classBestList.xhtml#ac627a3267d2b7cf8f579cc7e5b77d2e3" xlink:title="BestList::getListSize">
<polygon fill="none" stroke="black" points="195.5,-129.5 195.5,-149.5 308.5,-149.5 308.5,-129.5 195.5,-129.5"/>
<text text-anchor="middle" x="252" y="-136.7" font-family="Helvetica,sans-Serif" font-size="11.00">BestList::getListSize</text>
</a>
</g>
</g>
<!-- Node1&#45;&gt;Node2 -->
<g id="edge1" class="edge"><title>Node1&#45;&gt;Node2</title>
<path fill="none" stroke="midnightblue" d="M111.608,-93.6566C132.195,-102.2 158.275,-112.538 182,-120.5 188.411,-122.651 195.214,-124.747 201.953,-126.713"/>
<polygon fill="midnightblue" stroke="midnightblue" points="201.152,-130.124 211.728,-129.492 203.066,-123.391 201.152,-130.124"/>
</g>
<!-- Node3 -->
<g id="node3" class="node"><title>Node3</title>
<g id="a_node3"><a xlink:href="$classFitnessPolicy.xhtml#acaf9a99792b12c78eaabc0acadd1de9f" xlink:title="Check if the first Solution is better than the second Solution. ">
<polygon fill="none" stroke="black" points="182,-90.5 182,-110.5 322,-110.5 322,-90.5 182,-90.5"/>
<text text-anchor="middle" x="252" y="-97.7" font-family="Helvetica,sans-Serif" font-size="11.00">FitnessPolicy::firstIsBetter</text>
</a>
</g>
</g>
<!-- Node1&#45;&gt;Node3 -->
<g id="edge2" class="edge"><title>Node1&#45;&gt;Node3</title>
<path fill="none" stroke="midnightblue" d="M146.248,-86.8882C154.699,-87.9863 163.354,-89.111 171.892,-90.2204"/>
<polygon fill="midnightblue" stroke="midnightblue" points="171.473,-93.6954 181.841,-91.5132 172.375,-86.7537 171.473,-93.6954"/>
</g>
<!-- Node4 -->
<g id="node4" class="node"><title>Node4</title>
<g id="a_node4"><a xlink:href="$classBestListUpdatePolicy.xhtml#a6987f90d6d9e5fec813f5aa53fe47ce3" xlink:title="Convenience method that calculates the Euclidean distance between two solutions. ">
<polygon fill="none" stroke="black" points="192.5,-39.5 192.5,-71.5 311.5,-71.5 311.5,-39.5 192.5,-39.5"/>
<text text-anchor="start" x="200.5" y="-58.7" font-family="Helvetica,sans-Serif" font-size="11.00">BestListUpdatePolicy</text>
<text text-anchor="middle" x="252" y="-46.7" font-family="Helvetica,sans-Serif" font-size="11.00">::euclideanDistance</text>
</a>
</g>
</g>
<!-- Node1&#45;&gt;Node4 -->
<g id="edge3" class="edge"><title>Node1&#45;&gt;Node4</title>
<path fill="none" stroke="midnightblue" d="M146.248,-68.52C158.077,-67.0497 170.308,-65.5295 182.055,-64.0695"/>
<polygon fill="midnightblue" stroke="midnightblue" points="182.739,-67.5115 192.231,-62.8047 181.875,-60.5649 182.739,-67.5115"/>
</g>
<!-- Node9 -->
<g id="node9" class="node"><title>Node9</title>
<g id="a_node9"><a xlink:href="$classBestList.xhtml#a4a5650fb72c71d6027540daa96de0d39" xlink:title="Operator to set an element in the list. ">
<polygon fill="none" stroke="black" points="214.5,-0.5 214.5,-20.5 289.5,-20.5 289.5,-0.5 214.5,-0.5"/>
<text text-anchor="middle" x="252" y="-7.7" font-family="Helvetica,sans-Serif" font-size="11.00">BestList::set</text>
</a>
</g>
</g>
<!-- Node1&#45;&gt;Node9 -->
<g id="edge8" class="edge"><title>Node1&#45;&gt;Node9</title>
<path fill="none" stroke="midnightblue" d="M108.079,-61.3292C129.113,-51.6863 156.803,-39.5921 182,-30.5 189.178,-27.9098 196.867,-25.4152 204.412,-23.1185"/>
<polygon fill="midnightblue" stroke="midnightblue" points="205.599,-26.4175 214.193,-20.2219 203.611,-19.7056 205.599,-26.4175"/>
</g>
<!-- Node5 -->
<g id="node5" class="node"><title>Node5</title>
<g id="a_node5"><a xlink:href="$classSolution.xhtml#ad5b8c8ce272efaada80e93b0e097d1cd" xlink:title="Get the number of dimensions of this Solution instance. ">
<polygon fill="none" stroke="black" points="362.5,-84.5 362.5,-104.5 503.5,-104.5 503.5,-84.5 362.5,-84.5"/>
<text text-anchor="middle" x="433" y="-91.7" font-family="Helvetica,sans-Serif" font-size="11.00">Solution::getNDimensions</text>
</a>
</g>
</g>
<!-- Node4&#45;&gt;Node5 -->
<g id="edge4" class="edge"><title>Node4&#45;&gt;Node5</title>
<path fill="none" stroke="midnightblue" d="M311.611,-68.2701C332.378,-72.7946 355.673,-77.8701 376.199,-82.3423"/>
<polygon fill="midnightblue" stroke="midnightblue" points="375.514,-85.7751 386.03,-84.4842 377.005,-78.9356 375.514,-85.7751"/>
</g>
<!-- Node6 -->
<g id="node6" class="node"><title>Node6</title>
<g id="a_node6"><a xlink:href="$structPosition.xhtml#a4099812c9395b6dbe03ca8d25f7ae7fc" xlink:title="Math method that subtracts the value received from each value in the list that represents the Positio...">
<polygon fill="none" stroke="black" points="394,-45.5 394,-65.5 472,-65.5 472,-45.5 394,-45.5"/>
<text text-anchor="middle" x="433" y="-52.7" font-family="Helvetica,sans-Serif" font-size="11.00">Position::sub</text>
</a>
</g>
</g>
<!-- Node4&#45;&gt;Node6 -->
<g id="edge5" class="edge"><title>Node4&#45;&gt;Node6</title>
<path fill="none" stroke="midnightblue" d="M311.611,-55.5C334.937,-55.5 361.453,-55.5 383.651,-55.5"/>
<polygon fill="midnightblue" stroke="midnightblue" points="383.844,-59.0001 393.844,-55.5 383.844,-52.0001 383.844,-59.0001"/>
</g>
<!-- Node7 -->
<g id="node7" class="node"><title>Node7</title>
<g id="a_node7"><a xlink:href="$structPosition.xhtml#a8f9b5812209642cb31de38d3745cfc16" xlink:title="Get the sum of values from the list that represents the Position. ">
<polygon fill="none" stroke="black" points="358,-6.5 358,-26.5 508,-26.5 508,-6.5 358,-6.5"/>
<text text-anchor="middle" x="433" y="-13.7" font-family="Helvetica,sans-Serif" font-size="11.00">Position::sumInternalValues</text>
</a>
</g>
</g>
<!-- Node4&#45;&gt;Node7 -->
<g id="edge6" class="edge"><title>Node4&#45;&gt;Node7</title>
<path fill="none" stroke="midnightblue" d="M311.611,-42.7299C332.378,-38.2054 355.673,-33.1299 376.199,-28.6577"/>
<polygon fill="midnightblue" stroke="midnightblue" points="377.005,-32.0644 386.03,-26.5158 375.514,-25.2249 377.005,-32.0644"/>
</g>
<!-- Node8 -->
<g id="node8" class="node"><title>Node8</title>
<g id="a_node8"><a xlink:href="$structPosition.xhtml#a11256d014f2958d21a1198676208df33" xlink:title="Math method that sums (individually) each value in the list that represents the Position with the val...">
<polygon fill="none" stroke="black" points="544,-6.5 544,-26.5 625,-26.5 625,-6.5 544,-6.5"/>
<text text-anchor="middle" x="584.5" y="-13.7" font-family="Helvetica,sans-Serif" font-size="11.00">Position::sum</text>
</a>
</g>
</g>
<!-- Node7&#45;&gt;Node8 -->
<g id="edge7" class="edge"><title>Node7&#45;&gt;Node8</title>
<path fill="none" stroke="midnightblue" d="M508.312,-16.5C516.968,-16.5 525.633,-16.5 533.84,-16.5"/>
<polygon fill="midnightblue" stroke="midnightblue" points="533.958,-20.0001 543.958,-16.5 533.958,-13.0001 533.958,-20.0001"/>
</g>
</g>
</svg>
