<?xml version="1.0" encoding="UTF-8" standalone="no"?>
<!DOCTYPE svg PUBLIC "-//W3C//DTD SVG 1.1//EN"
 "http://www.w3.org/Graphics/SVG/1.1/DTD/svg11.dtd">
<!-- Generated by graphviz version 2.38.0 (20140413.2041)
 -->
<!-- Title: ConvergenceControlPolicy::run Pages: 1 -->
<svg width="533pt" height="80pt"
 viewBox="0.00 0.00 533.00 80.00" xmlns="http://www.w3.org/2000/svg" xmlns:xlink="http://www.w3.org/1999/xlink">
<g id="graph0" class="graph" transform="scale(1 1) rotate(0) translate(4 76)">
<title>ConvergenceControlPolicy::run</title>
<!-- Node1 -->
<g id="node1" class="node"><title>Node1</title>
<polygon fill="#bfbfbf" stroke="black" points="0,-22.5 0,-42.5 167,-42.5 167,-22.5 0,-22.5"/>
<text text-anchor="middle" x="83.5" y="-29.7" font-family="Helvetica,sans-Serif" font-size="11.00">ConvergenceControlPolicy::run</text>
</g>
<!-- Node2 -->
<g id="node2" class="node"><title>Node2</title>
<g id="a_node2"><a xlink:href="$classConvergenceControlPolicy.xhtml#a1827a6722494ff97719a2383976e9c11" xlink:title="ConvergenceControlPolicy\l::~ConvergenceControlPolicy">
<polygon fill="none" stroke="black" points="203,-39.5 203,-71.5 361,-71.5 361,-39.5 203,-39.5"/>
<text text-anchor="start" x="211" y="-58.7" font-family="Helvetica,sans-Serif" font-size="11.00">ConvergenceControlPolicy</text>
<text text-anchor="middle" x="282" y="-46.7" font-family="Helvetica,sans-Serif" font-size="11.00">::~ConvergenceControlPolicy</text>
</a>
</g>
</g>
<!-- Node1&#45;&gt;Node2 -->
<g id="edge1" class="edge"><title>Node1&#45;&gt;Node2</title>
<path fill="none" stroke="midnightblue" d="M177.232,-43.3542C185.759,-44.3522 194.341,-45.3567 202.72,-46.3375"/>
<polygon fill="midnightblue" stroke="midnightblue" points="177.603,-39.8738 167.264,-42.1874 176.789,-46.8263 177.603,-39.8738"/>
</g>
<!-- Node3 -->
<g id="node3" class="node"><title>Node3</title>
<g id="a_node3"><a xlink:href="$classTHBuilder_1_1SearchGroup.xhtml#ac8c33d89ddd52e38fb23d7102d9086e0" xlink:title="Perform a complete execution of the search group. ">
<polygon fill="none" stroke="black" points="203,-0.5 203,-20.5 361,-20.5 361,-0.5 203,-0.5"/>
<text text-anchor="middle" x="282" y="-7.7" font-family="Helvetica,sans-Serif" font-size="11.00">THBuilder::SearchGroup::run</text>
</a>
</g>
</g>
<!-- Node1&#45;&gt;Node3 -->
<g id="edge2" class="edge"><title>Node1&#45;&gt;Node3</title>
<path fill="none" stroke="midnightblue" d="M177.232,-22.1177C185.759,-21.1631 194.341,-20.2023 202.72,-19.2641"/>
<polygon fill="midnightblue" stroke="midnightblue" points="176.813,-18.6428 167.264,-23.2338 177.592,-25.5993 176.813,-18.6428"/>
</g>
<!-- Node4 -->
<g id="node4" class="node"><title>Node4</title>
<g id="a_node4"><a xlink:href="$classTHBuilder_1_1THImpl.xhtml#a943301db5154fd7b672119b5c9917303" xlink:title="Starts the Treasure Hunt mechanisms. ">
<polygon fill="none" stroke="black" points="397,-0.5 397,-20.5 525,-20.5 525,-0.5 397,-0.5"/>
<text text-anchor="middle" x="461" y="-7.7" font-family="Helvetica,sans-Serif" font-size="11.00">THBuilder::THImpl::run</text>
</a>
</g>
</g>
<!-- Node3&#45;&gt;Node4 -->
<g id="edge3" class="edge"><title>Node3&#45;&gt;Node4</title>
<path fill="none" stroke="midnightblue" d="M371.271,-10.5C379.91,-10.5 388.552,-10.5 396.868,-10.5"/>
<polygon fill="midnightblue" stroke="midnightblue" points="371.15,-7.0001 361.15,-10.5 371.15,-14.0001 371.15,-7.0001"/>
</g>
</g>
</svg>
