<?xml version="1.0" encoding="UTF-8" standalone="no"?>
<!DOCTYPE svg PUBLIC "-//W3C//DTD SVG 1.1//EN"
 "http://www.w3.org/Graphics/SVG/1.1/DTD/svg11.dtd">
<!-- Generated by graphviz version 2.38.0 (20140413.2041)
 -->
<!-- Title: Region::getOriginalDimensions Pages: 1 -->
<svg width="639pt" height="131pt"
 viewBox="0.00 0.00 639.00 131.00" xmlns="http://www.w3.org/2000/svg" xmlns:xlink="http://www.w3.org/1999/xlink">
<g id="graph0" class="graph" transform="scale(1 1) rotate(0) translate(4 127)">
<title>Region::getOriginalDimensions</title>
<!-- Node1 -->
<g id="node1" class="node"><title>Node1</title>
<polygon fill="#bfbfbf" stroke="black" points="0,-70.5 0,-90.5 165,-90.5 165,-70.5 0,-70.5"/>
<text text-anchor="middle" x="82.5" y="-77.7" font-family="Helvetica,sans-Serif" font-size="11.00">Region::getOriginalDimensions</text>
</g>
<!-- Node2 -->
<g id="node2" class="node"><title>Node2</title>
<g id="a_node2"><a xlink:href="$classBetaRelocationStrategyPolicy.xhtml#aeadaa254d012725ab1a67419d9cb37ef" xlink:title="This method implements the policy to relocate TH instance&#39;s population at every TH instance&#39;s iterati...">
<polygon fill="none" stroke="black" points="323,-90.5 323,-122.5 482,-122.5 482,-90.5 323,-90.5"/>
<text text-anchor="start" x="331" y="-109.7" font-family="Helvetica,sans-Serif" font-size="11.00">BetaRelocationStrategyPolicy</text>
<text text-anchor="middle" x="402.5" y="-97.7" font-family="Helvetica,sans-Serif" font-size="11.00">::apply</text>
</a>
</g>
</g>
<!-- Node1&#45;&gt;Node2 -->
<g id="edge1" class="edge"><title>Node1&#45;&gt;Node2</title>
<path fill="none" stroke="midnightblue" d="M175.506,-88.0225C222.178,-91.8384 278.274,-96.4249 322.901,-100.074"/>
<polygon fill="midnightblue" stroke="midnightblue" points="175.645,-84.5223 165.393,-87.1956 175.074,-91.499 175.645,-84.5223"/>
</g>
<!-- Node3 -->
<g id="node3" class="node"><title>Node3</title>
<g id="a_node3"><a xlink:href="$classSolution.xhtml#a84c713b707a570add53e85a28196bb3e" xlink:title="Reset the position of the current Solution in the search space. ">
<polygon fill="none" stroke="black" points="201,-48.5 201,-68.5 287,-68.5 287,-48.5 201,-48.5"/>
<text text-anchor="middle" x="244" y="-55.7" font-family="Helvetica,sans-Serif" font-size="11.00">Solution::reset</text>
</a>
</g>
</g>
<!-- Node1&#45;&gt;Node3 -->
<g id="edge2" class="edge"><title>Node1&#45;&gt;Node3</title>
<path fill="none" stroke="midnightblue" d="M166.303,-69.0788C178.276,-67.4275 190.156,-65.7888 200.863,-64.3119"/>
<polygon fill="midnightblue" stroke="midnightblue" points="165.677,-65.6321 156.249,-70.4657 166.633,-72.5664 165.677,-65.6321"/>
</g>
<!-- Node3&#45;&gt;Node2 -->
<g id="edge3" class="edge"><title>Node3&#45;&gt;Node2</title>
<path fill="none" stroke="midnightblue" d="M287.424,-71.5118C306.508,-77.3652 329.219,-84.3306 349.333,-90.4998"/>
<polygon fill="midnightblue" stroke="midnightblue" points="288.394,-68.1486 277.808,-68.5624 286.342,-74.8409 288.394,-68.1486"/>
</g>
<!-- Node4 -->
<g id="node4" class="node"><title>Node4</title>
<g id="a_node4"><a xlink:href="$classTHBuilder_1_1SearchGroup.xhtml#aafebb836a1ec681213319a024a254ca8" xlink:title="Reset the location of the population individuals and calculate the fitness. ">
<polygon fill="none" stroke="black" points="334.5,-39.5 334.5,-71.5 470.5,-71.5 470.5,-39.5 334.5,-39.5"/>
<text text-anchor="start" x="342.5" y="-58.7" font-family="Helvetica,sans-Serif" font-size="11.00">THBuilder::SearchGroup</text>
<text text-anchor="middle" x="402.5" y="-46.7" font-family="Helvetica,sans-Serif" font-size="11.00">::resetPopulation</text>
</a>
</g>
</g>
<!-- Node3&#45;&gt;Node4 -->
<g id="edge4" class="edge"><title>Node3&#45;&gt;Node4</title>
<path fill="none" stroke="midnightblue" d="M297.487,-57.4939C309.315,-57.2671 322.027,-57.0234 334.364,-56.787"/>
<polygon fill="midnightblue" stroke="midnightblue" points="297.282,-53.997 287.351,-57.6882 297.416,-60.9958 297.282,-53.997"/>
</g>
<!-- Node6 -->
<g id="node6" class="node"><title>Node6</title>
<g id="a_node6"><a xlink:href="$classTHBuilder_1_1THImpl.xhtml#a943301db5154fd7b672119b5c9917303" xlink:title="Starts the Treasure Hunt mechanisms. ">
<polygon fill="none" stroke="black" points="338.5,-0.5 338.5,-20.5 466.5,-20.5 466.5,-0.5 338.5,-0.5"/>
<text text-anchor="middle" x="402.5" y="-7.7" font-family="Helvetica,sans-Serif" font-size="11.00">THBuilder::THImpl::run</text>
</a>
</g>
</g>
<!-- Node3&#45;&gt;Node6 -->
<g id="edge6" class="edge"><title>Node3&#45;&gt;Node6</title>
<path fill="none" stroke="midnightblue" d="M279.097,-44.8241C292.641,-39.6557 308.436,-33.9528 323,-29.5 333.593,-26.2612 345.124,-23.212 356.005,-20.5438"/>
<polygon fill="midnightblue" stroke="midnightblue" points="277.746,-41.594 269.684,-48.4676 280.273,-48.1221 277.746,-41.594"/>
</g>
<!-- Node5 -->
<g id="node5" class="node"><title>Node5</title>
<g id="a_node5"><a xlink:href="$classTHBuilder_1_1THImpl.xhtml#a0d6e2fd43f50755ff2738e924f66690d" xlink:title="THBuilder::THImpl::\lTHImpl">
<polygon fill="none" stroke="black" points="518,-39.5 518,-71.5 631,-71.5 631,-39.5 518,-39.5"/>
<text text-anchor="start" x="526" y="-58.7" font-family="Helvetica,sans-Serif" font-size="11.00">THBuilder::THImpl::</text>
<text text-anchor="middle" x="574.5" y="-46.7" font-family="Helvetica,sans-Serif" font-size="11.00">THImpl</text>
</a>
</g>
</g>
<!-- Node4&#45;&gt;Node5 -->
<g id="edge5" class="edge"><title>Node4&#45;&gt;Node5</title>
<path fill="none" stroke="midnightblue" d="M481.017,-55.5C493.401,-55.5 505.999,-55.5 517.747,-55.5"/>
<polygon fill="midnightblue" stroke="midnightblue" points="480.689,-52.0001 470.689,-55.5 480.688,-59.0001 480.689,-52.0001"/>
</g>
</g>
</svg>
