<?xml version="1.0" encoding="UTF-8" standalone="no"?>
<!DOCTYPE svg PUBLIC "-//W3C//DTD SVG 1.1//EN"
 "http://www.w3.org/Graphics/SVG/1.1/DTD/svg11.dtd">
<!-- Generated by graphviz version 2.38.0 (20140413.2041)
 -->
<!-- Title: THBuilder::THImpl::~THImpl Pages: 1 -->
<svg width="270pt" height="68pt"
 viewBox="0.00 0.00 270.00 68.00" xmlns="http://www.w3.org/2000/svg" xmlns:xlink="http://www.w3.org/1999/xlink">
<g id="graph0" class="graph" transform="scale(1 1) rotate(0) translate(4 64)">
<title>THBuilder::THImpl::~THImpl</title>
<!-- Node1 -->
<g id="node1" class="node"><title>Node1</title>
<polygon fill="#bfbfbf" stroke="black" points="0,-13.5 0,-45.5 113,-45.5 113,-13.5 0,-13.5"/>
<text text-anchor="start" x="8" y="-32.7" font-family="Helvetica,sans-Serif" font-size="11.00">THBuilder::THImpl::</text>
<text text-anchor="middle" x="56.5" y="-20.7" font-family="Helvetica,sans-Serif" font-size="11.00">~THImpl</text>
</g>
<!-- Node2 -->
<g id="node2" class="node"><title>Node2</title>
<g id="a_node2"><a xlink:href="$structt__node.xhtml#a97b3fded9e34ad0bf2873695e5813e3d" xlink:title="t_node::hasChildren">
<polygon fill="none" stroke="black" points="149,-39.5 149,-59.5 262,-59.5 262,-39.5 149,-39.5"/>
<text text-anchor="middle" x="205.5" y="-46.7" font-family="Helvetica,sans-Serif" font-size="11.00">t_node::hasChildren</text>
</a>
</g>
</g>
<!-- Node1&#45;&gt;Node2 -->
<g id="edge1" class="edge"><title>Node1&#45;&gt;Node2</title>
<path fill="none" stroke="midnightblue" d="M113.074,-37.0611C121.489,-38.206 130.238,-39.3964 138.842,-40.567"/>
<polygon fill="midnightblue" stroke="midnightblue" points="138.466,-44.048 148.847,-41.9282 139.41,-37.1119 138.466,-44.048"/>
</g>
<!-- Node3 -->
<g id="node3" class="node"><title>Node3</title>
<g id="a_node3"><a xlink:href="$structt__node.xhtml#a92a900c7452cca30f4974b4b15326c2c" xlink:title="t_node::hasParent">
<polygon fill="none" stroke="black" points="153,-0.5 153,-20.5 258,-20.5 258,-0.5 153,-0.5"/>
<text text-anchor="middle" x="205.5" y="-7.7" font-family="Helvetica,sans-Serif" font-size="11.00">t_node::hasParent</text>
</a>
</g>
</g>
<!-- Node1&#45;&gt;Node3 -->
<g id="edge2" class="edge"><title>Node1&#45;&gt;Node3</title>
<path fill="none" stroke="midnightblue" d="M113.074,-22.3169C122.729,-21.069 132.824,-19.7643 142.634,-18.4962"/>
<polygon fill="midnightblue" stroke="midnightblue" points="143.256,-21.9451 152.725,-17.192 142.359,-15.0028 143.256,-21.9451"/>
</g>
</g>
</svg>
