<?xml version="1.0" encoding="UTF-8" standalone="no"?>
<!DOCTYPE svg PUBLIC "-//W3C//DTD SVG 1.1//EN"
 "http://www.w3.org/Graphics/SVG/1.1/DTD/svg11.dtd">
<!-- Generated by graphviz version 2.38.0 (20140413.2041)
 -->
<!-- Title: Region&lt; P &gt; Pages: 1 -->
<svg width="150pt" height="274pt"
 viewBox="0.00 0.00 150.00 274.00" xmlns="http://www.w3.org/2000/svg" xmlns:xlink="http://www.w3.org/1999/xlink">
<g id="graph0" class="graph" transform="scale(1 1) rotate(0) translate(4 270)">
<title>Region&lt; P &gt;</title>
<!-- Node1 -->
<g id="node1" class="node"><title>Node1</title>
<polygon fill="#bfbfbf" stroke="black" points="0,-109.5 0,-265.5 142,-265.5 142,-109.5 0,-109.5"/>
<text text-anchor="middle" x="71" y="-252.7" font-family="Helvetica,sans-Serif" font-size="11.00">Region&lt; P &gt;</text>
<polyline fill="none" stroke="black" points="0,-245.5 142,-245.5 "/>
<text text-anchor="middle" x="71" y="-232.7" font-family="Helvetica,sans-Serif" font-size="11.00"> </text>
<polyline fill="none" stroke="black" points="0,-225.5 142,-225.5 "/>
<text text-anchor="start" x="8" y="-212.7" font-family="Helvetica,sans-Serif" font-size="11.00">+ Region()</text>
<text text-anchor="start" x="8" y="-200.7" font-family="Helvetica,sans-Serif" font-size="11.00">+ Region()</text>
<text text-anchor="start" x="8" y="-188.7" font-family="Helvetica,sans-Serif" font-size="11.00">+ ~Region()</text>
<text text-anchor="start" x="8" y="-176.7" font-family="Helvetica,sans-Serif" font-size="11.00">+ operator[]()</text>
<text text-anchor="start" x="8" y="-164.7" font-family="Helvetica,sans-Serif" font-size="11.00">+ getOriginalDimensions()</text>
<text text-anchor="start" x="8" y="-152.7" font-family="Helvetica,sans-Serif" font-size="11.00">+ getOriginalDimension()</text>
<text text-anchor="start" x="8" y="-140.7" font-family="Helvetica,sans-Serif" font-size="11.00">+ getPartitions()</text>
<text text-anchor="start" x="8" y="-128.7" font-family="Helvetica,sans-Serif" font-size="11.00">+ getNDimensions()</text>
<text text-anchor="start" x="8" y="-116.7" font-family="Helvetica,sans-Serif" font-size="11.00">+ print()</text>
</g>
<!-- Node2 -->
<g id="node2" class="node"><title>Node2</title>
<g id="a_node2"><a xlink:href="$classSearchSpace.xhtml" xlink:title="This class represents the entire search space. ">
<polygon fill="none" stroke="black" points="16.5,-0.5 16.5,-72.5 125.5,-72.5 125.5,-0.5 16.5,-0.5"/>
<text text-anchor="middle" x="71" y="-59.7" font-family="Helvetica,sans-Serif" font-size="11.00">SearchSpace&lt; P &gt;</text>
<polyline fill="none" stroke="black" points="16.5,-52.5 125.5,-52.5 "/>
<text text-anchor="middle" x="71" y="-39.7" font-family="Helvetica,sans-Serif" font-size="11.00"> </text>
<polyline fill="none" stroke="black" points="16.5,-32.5 125.5,-32.5 "/>
<text text-anchor="start" x="24.5" y="-19.7" font-family="Helvetica,sans-Serif" font-size="11.00">+ SearchSpace()</text>
<text text-anchor="start" x="24.5" y="-7.7" font-family="Helvetica,sans-Serif" font-size="11.00">+ ~SearchSpace()</text>
</a>
</g>
</g>
<!-- Node1&#45;&gt;Node2 -->
<g id="edge1" class="edge"><title>Node1&#45;&gt;Node2</title>
<path fill="none" stroke="midnightblue" d="M71,-99.2459C71,-89.9776 71,-80.9807 71,-72.8522"/>
<polygon fill="none" stroke="midnightblue" points="67.5001,-99.3813 71,-109.381 74.5001,-99.3814 67.5001,-99.3813"/>
</g>
</g>
</svg>
