<?xml version="1.0" encoding="UTF-8" standalone="no"?>
<!DOCTYPE svg PUBLIC "-//W3C//DTD SVG 1.1//EN"
 "http://www.w3.org/Graphics/SVG/1.1/DTD/svg11.dtd">
<!-- Generated by graphviz version 2.38.0 (20140413.2041)
 -->
<!-- Title: Partition::getStartPoint Pages: 1 -->
<svg width="615pt" height="246pt"
 viewBox="0.00 0.00 615.00 246.00" xmlns="http://www.w3.org/2000/svg" xmlns:xlink="http://www.w3.org/1999/xlink">
<g id="graph0" class="graph" transform="scale(1 1) rotate(0) translate(4 242)">
<title>Partition::getStartPoint</title>
<!-- Node1 -->
<g id="node1" class="node"><title>Node1</title>
<polygon fill="#bfbfbf" stroke="black" points="0,-119.5 0,-139.5 125,-139.5 125,-119.5 0,-119.5"/>
<text text-anchor="middle" x="62.5" y="-126.7" font-family="Helvetica,sans-Serif" font-size="11.00">Partition::getStartPoint</text>
</g>
<!-- Node2 -->
<g id="node2" class="node"><title>Node2</title>
<g id="a_node2"><a xlink:href="$classHillClimbing.xhtml#a7c67b745880b93be26eb4fa113f0e37f" xlink:title="Perform the actual optimization only until the next improvement. ">
<polygon fill="none" stroke="black" points="162,-217.5 162,-237.5 262,-237.5 262,-217.5 162,-217.5"/>
<text text-anchor="middle" x="212" y="-224.7" font-family="Helvetica,sans-Serif" font-size="11.00">HillClimbing::next</text>
</a>
</g>
</g>
<!-- Node1&#45;&gt;Node2 -->
<g id="edge1" class="edge"><title>Node1&#45;&gt;Node2</title>
<path fill="none" stroke="midnightblue" d="M81.2017,-146.788C99.8133,-164.222 130.568,-190.993 161,-208.5 166.876,-211.88 173.466,-214.878 179.886,-217.436"/>
<polygon fill="midnightblue" stroke="midnightblue" points="83.434,-144.08 73.7773,-139.721 78.6081,-149.151 83.434,-144.08"/>
</g>
<!-- Node3 -->
<g id="node3" class="node"><title>Node3</title>
<g id="a_node3"><a xlink:href="$classPSO.xhtml#a25e15ab34186e7c52a4789108ae24ece" xlink:title="Perform the actual optimization only until the next improvement. ">
<polygon fill="none" stroke="black" points="179,-178.5 179,-198.5 245,-198.5 245,-178.5 179,-178.5"/>
<text text-anchor="middle" x="212" y="-185.7" font-family="Helvetica,sans-Serif" font-size="11.00">PSO::next</text>
</a>
</g>
</g>
<!-- Node1&#45;&gt;Node3 -->
<g id="edge2" class="edge"><title>Node1&#45;&gt;Node3</title>
<path fill="none" stroke="midnightblue" d="M97.9509,-143.28C124.87,-154.048 161.656,-168.763 185.856,-178.442"/>
<polygon fill="midnightblue" stroke="midnightblue" points="99.106,-139.973 88.5214,-139.509 96.5062,-146.472 99.106,-139.973"/>
</g>
<!-- Node4 -->
<g id="node4" class="node"><title>Node4</title>
<g id="a_node4"><a xlink:href="$classBetaRelocationStrategyPolicy.xhtml#aeadaa254d012725ab1a67419d9cb37ef" xlink:title="This method implements the policy to relocate TH instance&#39;s population at every TH instance&#39;s iterati...">
<polygon fill="none" stroke="black" points="299,-100.5 299,-132.5 458,-132.5 458,-100.5 299,-100.5"/>
<text text-anchor="start" x="307" y="-119.7" font-family="Helvetica,sans-Serif" font-size="11.00">BetaRelocationStrategyPolicy</text>
<text text-anchor="middle" x="378.5" y="-107.7" font-family="Helvetica,sans-Serif" font-size="11.00">::apply</text>
</a>
</g>
</g>
<!-- Node1&#45;&gt;Node4 -->
<g id="edge3" class="edge"><title>Node1&#45;&gt;Node4</title>
<path fill="none" stroke="midnightblue" d="M135.258,-130.32C143.931,-130.394 152.666,-130.457 161,-130.5 206.333,-130.732 217.751,-133.256 263,-130.5 274.594,-129.794 286.812,-128.689 298.775,-127.402"/>
<polygon fill="midnightblue" stroke="midnightblue" points="135.164,-126.819 125.132,-130.228 135.1,-133.818 135.164,-126.819"/>
</g>
<!-- Node5 -->
<g id="node5" class="node"><title>Node5</title>
<g id="a_node5"><a xlink:href="$classPartition.xhtml#a45b2a3119be4fe1b735547044df96f74" xlink:title="This constructor creates a Partition as a copy from another Partition. ">
<polygon fill="none" stroke="black" points="161,-100.5 161,-120.5 263,-120.5 263,-100.5 161,-100.5"/>
<text text-anchor="middle" x="212" y="-107.7" font-family="Helvetica,sans-Serif" font-size="11.00">Partition::Partition</text>
</a>
</g>
</g>
<!-- Node1&#45;&gt;Node5 -->
<g id="edge4" class="edge"><title>Node1&#45;&gt;Node5</title>
<path fill="none" stroke="midnightblue" d="M135.263,-120.256C143.874,-119.147 152.522,-118.033 160.735,-116.975"/>
<polygon fill="midnightblue" stroke="midnightblue" points="134.67,-116.803 125.199,-121.552 135.564,-123.746 134.67,-116.803"/>
</g>
<!-- Node6 -->
<g id="node6" class="node"><title>Node6</title>
<g id="a_node6"><a xlink:href="$classRegion.xhtml#a762d4587205ba6bed49660ae1359a4a6" xlink:title="Debug the current Region instance. ">
<polygon fill="none" stroke="black" points="173,-61.5 173,-81.5 251,-81.5 251,-61.5 173,-61.5"/>
<text text-anchor="middle" x="212" y="-68.7" font-family="Helvetica,sans-Serif" font-size="11.00">Region::print</text>
</a>
</g>
</g>
<!-- Node1&#45;&gt;Node6 -->
<g id="edge5" class="edge"><title>Node1&#45;&gt;Node6</title>
<path fill="none" stroke="midnightblue" d="M97.5874,-115.697C116.28,-108.17 139.883,-98.7351 161,-90.5 168.527,-87.5648 176.713,-84.4302 184.24,-81.5708"/>
<polygon fill="midnightblue" stroke="midnightblue" points="96.2642,-112.457 88.2989,-119.443 98.8822,-118.949 96.2642,-112.457"/>
</g>
<!-- Node7 -->
<g id="node7" class="node"><title>Node7</title>
<g id="a_node7"><a xlink:href="$classSolution.xhtml#a84c713b707a570add53e85a28196bb3e" xlink:title="Reset the position of the current Solution in the search space. ">
<polygon fill="none" stroke="black" points="169,-22.5 169,-42.5 255,-42.5 255,-22.5 169,-22.5"/>
<text text-anchor="middle" x="212" y="-29.7" font-family="Helvetica,sans-Serif" font-size="11.00">Solution::reset</text>
</a>
</g>
</g>
<!-- Node1&#45;&gt;Node7 -->
<g id="edge6" class="edge"><title>Node1&#45;&gt;Node7</title>
<path fill="none" stroke="midnightblue" d="M81.2421,-112.448C99.8859,-95.2475 130.666,-68.8257 161,-51.5 166.886,-48.1379 173.481,-45.1483 179.902,-42.5921"/>
<polygon fill="midnightblue" stroke="midnightblue" points="78.707,-110.027 73.8033,-119.418 83.4934,-115.135 78.707,-110.027"/>
</g>
<!-- Node7&#45;&gt;Node4 -->
<g id="edge7" class="edge"><title>Node7&#45;&gt;Node4</title>
<path fill="none" stroke="midnightblue" d="M253.457,-46.5935C256.746,-48.1231 259.968,-49.7613 263,-51.5 280.823,-61.72 281.528,-69.6902 299,-80.5 310.985,-87.9152 324.753,-94.7386 337.378,-100.405"/>
<polygon fill="midnightblue" stroke="midnightblue" points="254.676,-43.3081 244.106,-42.5769 251.913,-49.7398 254.676,-43.3081"/>
</g>
<!-- Node8 -->
<g id="node8" class="node"><title>Node8</title>
<g id="a_node8"><a xlink:href="$classTHBuilder_1_1SearchGroup.xhtml#aafebb836a1ec681213319a024a254ca8" xlink:title="Reset the location of the population individuals and calculate the fitness. ">
<polygon fill="none" stroke="black" points="310.5,-39.5 310.5,-71.5 446.5,-71.5 446.5,-39.5 310.5,-39.5"/>
<text text-anchor="start" x="318.5" y="-58.7" font-family="Helvetica,sans-Serif" font-size="11.00">THBuilder::SearchGroup</text>
<text text-anchor="middle" x="378.5" y="-46.7" font-family="Helvetica,sans-Serif" font-size="11.00">::resetPopulation</text>
</a>
</g>
</g>
<!-- Node7&#45;&gt;Node8 -->
<g id="edge8" class="edge"><title>Node7&#45;&gt;Node8</title>
<path fill="none" stroke="midnightblue" d="M265.484,-39.8381C279.759,-41.8341 295.418,-44.0235 310.384,-46.116"/>
<polygon fill="midnightblue" stroke="midnightblue" points="265.751,-36.3416 255.363,-38.4231 264.782,-43.2741 265.751,-36.3416"/>
</g>
<!-- Node10 -->
<g id="node10" class="node"><title>Node10</title>
<g id="a_node10"><a xlink:href="$classTHBuilder_1_1THImpl.xhtml#a943301db5154fd7b672119b5c9917303" xlink:title="Starts the Treasure Hunt mechanisms. ">
<polygon fill="none" stroke="black" points="314.5,-0.5 314.5,-20.5 442.5,-20.5 442.5,-0.5 314.5,-0.5"/>
<text text-anchor="middle" x="378.5" y="-7.7" font-family="Helvetica,sans-Serif" font-size="11.00">THBuilder::THImpl::run</text>
</a>
</g>
</g>
<!-- Node7&#45;&gt;Node10 -->
<g id="edge10" class="edge"><title>Node7&#45;&gt;Node10</title>
<path fill="none" stroke="midnightblue" d="M265.358,-25.4977C280.977,-23.4088 298.261,-21.0973 314.486,-18.9274"/>
<polygon fill="midnightblue" stroke="midnightblue" points="264.811,-22.0397 255.363,-26.8345 265.739,-28.9779 264.811,-22.0397"/>
</g>
<!-- Node9 -->
<g id="node9" class="node"><title>Node9</title>
<g id="a_node9"><a xlink:href="$classTHBuilder_1_1THImpl.xhtml#a0d6e2fd43f50755ff2738e924f66690d" xlink:title="THBuilder::THImpl::\lTHImpl">
<polygon fill="none" stroke="black" points="494,-39.5 494,-71.5 607,-71.5 607,-39.5 494,-39.5"/>
<text text-anchor="start" x="502" y="-58.7" font-family="Helvetica,sans-Serif" font-size="11.00">THBuilder::THImpl::</text>
<text text-anchor="middle" x="550.5" y="-46.7" font-family="Helvetica,sans-Serif" font-size="11.00">THImpl</text>
</a>
</g>
</g>
<!-- Node8&#45;&gt;Node9 -->
<g id="edge9" class="edge"><title>Node8&#45;&gt;Node9</title>
<path fill="none" stroke="midnightblue" d="M457.017,-55.5C469.401,-55.5 481.999,-55.5 493.747,-55.5"/>
<polygon fill="midnightblue" stroke="midnightblue" points="456.689,-52.0001 446.689,-55.5 456.688,-59.0001 456.689,-52.0001"/>
</g>
</g>
</svg>
