<?xml version="1.0" encoding="UTF-8" standalone="no"?>
<!DOCTYPE svg PUBLIC "-//W3C//DTD SVG 1.1//EN"
 "http://www.w3.org/Graphics/SVG/1.1/DTD/svg11.dtd">
<!-- Generated by graphviz version 2.38.0 (20140413.2041)
 -->
<!-- Title: Solution::reset Pages: 1 -->
<svg width="438pt" height="131pt"
 viewBox="0.00 0.00 438.00 131.00" xmlns="http://www.w3.org/2000/svg" xmlns:xlink="http://www.w3.org/1999/xlink">
<g id="graph0" class="graph" transform="scale(1 1) rotate(0) translate(4 127)">
<title>Solution::reset</title>
<!-- Node1 -->
<g id="node1" class="node"><title>Node1</title>
<polygon fill="#bfbfbf" stroke="black" points="0,-45.5 0,-65.5 86,-65.5 86,-45.5 0,-45.5"/>
<text text-anchor="middle" x="43" y="-52.7" font-family="Helvetica,sans-Serif" font-size="11.00">Solution::reset</text>
</g>
<!-- Node2 -->
<g id="node2" class="node"><title>Node2</title>
<g id="a_node2"><a xlink:href="$classBetaRelocationStrategyPolicy.xhtml#aeadaa254d012725ab1a67419d9cb37ef" xlink:title="This method implements the policy to relocate TH instance&#39;s population at every TH instance&#39;s iterati...">
<polygon fill="none" stroke="black" points="122,-90.5 122,-122.5 281,-122.5 281,-90.5 122,-90.5"/>
<text text-anchor="start" x="130" y="-109.7" font-family="Helvetica,sans-Serif" font-size="11.00">BetaRelocationStrategyPolicy</text>
<text text-anchor="middle" x="201.5" y="-97.7" font-family="Helvetica,sans-Serif" font-size="11.00">::apply</text>
</a>
</g>
</g>
<!-- Node1&#45;&gt;Node2 -->
<g id="edge1" class="edge"><title>Node1&#45;&gt;Node2</title>
<path fill="none" stroke="midnightblue" d="M83.5184,-68.7872C95.834,-72.8973 109.471,-77.4168 122,-81.5 130.975,-84.4249 140.54,-87.5034 149.795,-90.4618"/>
<polygon fill="midnightblue" stroke="midnightblue" points="84.5648,-65.4467 73.971,-65.5949 82.345,-72.0854 84.5648,-65.4467"/>
</g>
<!-- Node3 -->
<g id="node3" class="node"><title>Node3</title>
<g id="a_node3"><a xlink:href="$classTHBuilder_1_1SearchGroup.xhtml#aafebb836a1ec681213319a024a254ca8" xlink:title="Reset the location of the population individuals and calculate the fitness. ">
<polygon fill="none" stroke="black" points="133.5,-39.5 133.5,-71.5 269.5,-71.5 269.5,-39.5 133.5,-39.5"/>
<text text-anchor="start" x="141.5" y="-58.7" font-family="Helvetica,sans-Serif" font-size="11.00">THBuilder::SearchGroup</text>
<text text-anchor="middle" x="201.5" y="-46.7" font-family="Helvetica,sans-Serif" font-size="11.00">::resetPopulation</text>
</a>
</g>
</g>
<!-- Node1&#45;&gt;Node3 -->
<g id="edge2" class="edge"><title>Node1&#45;&gt;Node3</title>
<path fill="none" stroke="midnightblue" d="M96.4865,-55.5C108.315,-55.5 121.027,-55.5 133.364,-55.5"/>
<polygon fill="midnightblue" stroke="midnightblue" points="96.3512,-52.0001 86.3512,-55.5 96.3511,-59.0001 96.3512,-52.0001"/>
</g>
<!-- Node5 -->
<g id="node5" class="node"><title>Node5</title>
<g id="a_node5"><a xlink:href="$classTHBuilder_1_1THImpl.xhtml#a943301db5154fd7b672119b5c9917303" xlink:title="Starts the Treasure Hunt mechanisms. ">
<polygon fill="none" stroke="black" points="137.5,-0.5 137.5,-20.5 265.5,-20.5 265.5,-0.5 137.5,-0.5"/>
<text text-anchor="middle" x="201.5" y="-7.7" font-family="Helvetica,sans-Serif" font-size="11.00">THBuilder::THImpl::run</text>
</a>
</g>
</g>
<!-- Node1&#45;&gt;Node5 -->
<g id="edge4" class="edge"><title>Node1&#45;&gt;Node5</title>
<path fill="none" stroke="midnightblue" d="M83.4103,-42.3555C95.7214,-38.3877 109.382,-34.1258 122,-30.5 134.03,-27.0431 147.183,-23.5725 159.225,-20.5156"/>
<polygon fill="midnightblue" stroke="midnightblue" points="82.2999,-39.0361 73.8722,-45.4567 84.4644,-45.693 82.2999,-39.0361"/>
</g>
<!-- Node4 -->
<g id="node4" class="node"><title>Node4</title>
<g id="a_node4"><a xlink:href="$classTHBuilder_1_1THImpl.xhtml#a0d6e2fd43f50755ff2738e924f66690d" xlink:title="THBuilder::THImpl::\lTHImpl">
<polygon fill="none" stroke="black" points="317,-39.5 317,-71.5 430,-71.5 430,-39.5 317,-39.5"/>
<text text-anchor="start" x="325" y="-58.7" font-family="Helvetica,sans-Serif" font-size="11.00">THBuilder::THImpl::</text>
<text text-anchor="middle" x="373.5" y="-46.7" font-family="Helvetica,sans-Serif" font-size="11.00">THImpl</text>
</a>
</g>
</g>
<!-- Node3&#45;&gt;Node4 -->
<g id="edge3" class="edge"><title>Node3&#45;&gt;Node4</title>
<path fill="none" stroke="midnightblue" d="M280.017,-55.5C292.401,-55.5 304.999,-55.5 316.747,-55.5"/>
<polygon fill="midnightblue" stroke="midnightblue" points="279.689,-52.0001 269.689,-55.5 279.688,-59.0001 279.689,-52.0001"/>
</g>
</g>
</svg>
