<?xml version="1.0" encoding="UTF-8" standalone="no"?>
<!DOCTYPE svg PUBLIC "-//W3C//DTD SVG 1.1//EN"
 "http://www.w3.org/Graphics/SVG/1.1/DTD/svg11.dtd">
<!-- Generated by graphviz version 2.38.0 (20140413.2041)
 -->
<!-- Title: Region::print Pages: 1 -->
<svg width="247pt" height="107pt"
 viewBox="0.00 0.00 247.00 107.00" xmlns="http://www.w3.org/2000/svg" xmlns:xlink="http://www.w3.org/1999/xlink">
<g id="graph0" class="graph" transform="scale(1 1) rotate(0) translate(4 103)">
<title>Region::print</title>
<!-- Node1 -->
<g id="node1" class="node"><title>Node1</title>
<polygon fill="#bfbfbf" stroke="black" points="0,-39.5 0,-59.5 78,-59.5 78,-39.5 0,-39.5"/>
<text text-anchor="middle" x="39" y="-46.7" font-family="Helvetica,sans-Serif" font-size="11.00">Region::print</text>
</g>
<!-- Node2 -->
<g id="node2" class="node"><title>Node2</title>
<g id="a_node2"><a xlink:href="$classPartition.xhtml#a3d9ce01ee6fbc781a9fa7c02adeda3e6" xlink:title="Get the partition ID. ">
<polygon fill="none" stroke="black" points="132,-78.5 132,-98.5 221,-98.5 221,-78.5 132,-78.5"/>
<text text-anchor="middle" x="176.5" y="-85.7" font-family="Helvetica,sans-Serif" font-size="11.00">Partition::getID</text>
</a>
</g>
</g>
<!-- Node1&#45;&gt;Node2 -->
<g id="edge1" class="edge"><title>Node1&#45;&gt;Node2</title>
<path fill="none" stroke="midnightblue" d="M74.8946,-59.5435C91.9642,-64.4565 112.705,-70.4263 130.91,-75.666"/>
<polygon fill="midnightblue" stroke="midnightblue" points="130.146,-79.088 140.724,-78.4906 132.082,-72.3611 130.146,-79.088"/>
</g>
<!-- Node3 -->
<g id="node3" class="node"><title>Node3</title>
<g id="a_node3"><a xlink:href="$classPartition.xhtml#a418e5b08580b3c1d33390a13eeb8eb0f" xlink:title="Get the lower bound for this partition. ">
<polygon fill="none" stroke="black" points="114,-39.5 114,-59.5 239,-59.5 239,-39.5 114,-39.5"/>
<text text-anchor="middle" x="176.5" y="-46.7" font-family="Helvetica,sans-Serif" font-size="11.00">Partition::getStartPoint</text>
</a>
</g>
</g>
<!-- Node1&#45;&gt;Node3 -->
<g id="edge2" class="edge"><title>Node1&#45;&gt;Node3</title>
<path fill="none" stroke="midnightblue" d="M78.1049,-49.5C86.1808,-49.5 94.9568,-49.5 103.823,-49.5"/>
<polygon fill="midnightblue" stroke="midnightblue" points="103.838,-53.0001 113.838,-49.5 103.838,-46.0001 103.838,-53.0001"/>
</g>
<!-- Node4 -->
<g id="node4" class="node"><title>Node4</title>
<g id="a_node4"><a xlink:href="$classPartition.xhtml#a0f3cdf44760e24735951b73dfc9dd3ab" xlink:title="Get the upper bound for this partition. ">
<polygon fill="none" stroke="black" points="115.5,-0.5 115.5,-20.5 237.5,-20.5 237.5,-0.5 115.5,-0.5"/>
<text text-anchor="middle" x="176.5" y="-7.7" font-family="Helvetica,sans-Serif" font-size="11.00">Partition::getEndPoint</text>
</a>
</g>
</g>
<!-- Node1&#45;&gt;Node4 -->
<g id="edge3" class="edge"><title>Node1&#45;&gt;Node4</title>
<path fill="none" stroke="midnightblue" d="M74.8946,-39.4565C91.9642,-34.5435 112.705,-28.5737 130.91,-23.334"/>
<polygon fill="midnightblue" stroke="midnightblue" points="132.082,-26.6389 140.724,-20.5094 130.146,-19.912 132.082,-26.6389"/>
</g>
</g>
</svg>
