<?xml version="1.0" encoding="UTF-8" standalone="no"?>
<!DOCTYPE svg PUBLIC "-//W3C//DTD SVG 1.1//EN"
 "http://www.w3.org/Graphics/SVG/1.1/DTD/svg11.dtd">
<!-- Generated by graphviz version 2.38.0 (20140413.2041)
 -->
<!-- Title: Search::isStuck Pages: 1 -->
<svg width="594pt" height="74pt"
 viewBox="0.00 0.00 594.00 74.00" xmlns="http://www.w3.org/2000/svg" xmlns:xlink="http://www.w3.org/1999/xlink">
<g id="graph0" class="graph" transform="scale(1 1) rotate(0) translate(4 70)">
<title>Search::isStuck</title>
<!-- Node1 -->
<g id="node1" class="node"><title>Node1</title>
<polygon fill="#bfbfbf" stroke="black" points="0,-25.5 0,-45.5 92,-45.5 92,-25.5 0,-25.5"/>
<text text-anchor="middle" x="46" y="-32.7" font-family="Helvetica,sans-Serif" font-size="11.00">Search::isStuck</text>
</g>
<!-- Node2 -->
<g id="node2" class="node"><title>Node2</title>
<g id="a_node2"><a xlink:href="$classCSMOn.xhtml#a430398bc3e096631f8cd180ee1877616" xlink:title="This method runs, monitors and limits the convergence of the optimization method during the current T...">
<polygon fill="none" stroke="black" points="158,-45.5 158,-65.5 235,-65.5 235,-45.5 158,-45.5"/>
<text text-anchor="middle" x="196.5" y="-52.7" font-family="Helvetica,sans-Serif" font-size="11.00">CSMOn::run</text>
</a>
</g>
</g>
<!-- Node1&#45;&gt;Node2 -->
<g id="edge1" class="edge"><title>Node1&#45;&gt;Node2</title>
<path fill="none" stroke="midnightblue" d="M102.433,-42.9657C120.926,-45.4564 141.087,-48.1717 157.901,-50.4362"/>
<polygon fill="midnightblue" stroke="midnightblue" points="102.74,-39.4755 92.3618,-41.6093 101.805,-46.4129 102.74,-39.4755"/>
</g>
<!-- Node3 -->
<g id="node3" class="node"><title>Node3</title>
<g id="a_node3"><a xlink:href="$classSearch.xhtml#af9f46406f1f1f7f89ab294c155738ca6" xlink:title="Set the full search space. ">
<polygon fill="none" stroke="black" points="128,-6.5 128,-26.5 265,-26.5 265,-6.5 128,-6.5"/>
<text text-anchor="middle" x="196.5" y="-13.7" font-family="Helvetica,sans-Serif" font-size="11.00">Search::setSearchSpace</text>
</a>
</g>
</g>
<!-- Node1&#45;&gt;Node3 -->
<g id="edge2" class="edge"><title>Node1&#45;&gt;Node3</title>
<path fill="none" stroke="midnightblue" d="M102.357,-28.4172C110.717,-27.3477 119.418,-26.2344 127.999,-25.1365"/>
<polygon fill="midnightblue" stroke="midnightblue" points="101.837,-24.9552 92.3618,-29.6961 102.725,-31.8986 101.837,-24.9552"/>
</g>
<!-- Node4 -->
<g id="node4" class="node"><title>Node4</title>
<g id="a_node4"><a xlink:href="$classTHBuilder_1_1SearchGroup.xhtml#a794cf5448380674b51022b5d65a240e2" xlink:title="Constructor to create the internal Search Group. ">
<polygon fill="none" stroke="black" points="301,-23.5 301,-55.5 437,-55.5 437,-23.5 301,-23.5"/>
<text text-anchor="start" x="309" y="-42.7" font-family="Helvetica,sans-Serif" font-size="11.00">THBuilder::SearchGroup</text>
<text text-anchor="middle" x="369" y="-30.7" font-family="Helvetica,sans-Serif" font-size="11.00">::SearchGroup</text>
</a>
</g>
</g>
<!-- Node3&#45;&gt;Node4 -->
<g id="edge3" class="edge"><title>Node3&#45;&gt;Node4</title>
<path fill="none" stroke="midnightblue" d="M275.336,-26.9999C283.878,-28.1521 292.519,-29.3178 300.914,-30.4503"/>
<polygon fill="midnightblue" stroke="midnightblue" points="275.754,-23.5247 265.376,-25.6563 274.818,-30.4618 275.754,-23.5247"/>
</g>
<!-- Node5 -->
<g id="node5" class="node"><title>Node5</title>
<g id="a_node5"><a xlink:href="$classTHBuilder_1_1THImpl.xhtml#a0d6e2fd43f50755ff2738e924f66690d" xlink:title="THBuilder::THImpl::\lTHImpl">
<polygon fill="none" stroke="black" points="473,-0.5 473,-32.5 586,-32.5 586,-0.5 473,-0.5"/>
<text text-anchor="start" x="481" y="-19.7" font-family="Helvetica,sans-Serif" font-size="11.00">THBuilder::THImpl::</text>
<text text-anchor="middle" x="529.5" y="-7.7" font-family="Helvetica,sans-Serif" font-size="11.00">THImpl</text>
</a>
</g>
</g>
<!-- Node3&#45;&gt;Node5 -->
<g id="edge5" class="edge"><title>Node3&#45;&gt;Node5</title>
<path fill="none" stroke="midnightblue" d="M275.285,-14.8349C283.961,-14.6974 292.669,-14.5805 301,-14.5 361.442,-13.9161 376.559,-13.8395 437,-14.5 448.598,-14.6267 461.022,-14.8438 472.858,-15.0894"/>
<polygon fill="midnightblue" stroke="midnightblue" points="275.081,-11.3378 265.141,-15.0049 275.199,-18.3368 275.081,-11.3378"/>
</g>
<!-- Node4&#45;&gt;Node5 -->
<g id="edge4" class="edge"><title>Node4&#45;&gt;Node5</title>
<path fill="none" stroke="midnightblue" d="M447.247,-28.2906C455.824,-27.0461 464.431,-25.7971 472.668,-24.6019"/>
<polygon fill="midnightblue" stroke="midnightblue" points="446.612,-24.8461 437.218,-29.7459 447.617,-31.7735 446.612,-24.8461"/>
</g>
</g>
</svg>
