<?xml version="1.0" encoding="UTF-8" standalone="no"?>
<!DOCTYPE svg PUBLIC "-//W3C//DTD SVG 1.1//EN"
 "http://www.w3.org/Graphics/SVG/1.1/DTD/svg11.dtd">
<!-- Generated by graphviz version 2.38.0 (20140413.2041)
 -->
<!-- Title: THTree::getParentID Pages: 1 -->
<svg width="266pt" height="68pt"
 viewBox="0.00 0.00 266.00 68.00" xmlns="http://www.w3.org/2000/svg" xmlns:xlink="http://www.w3.org/1999/xlink">
<g id="graph0" class="graph" transform="scale(1 1) rotate(0) translate(4 64)">
<title>THTree::getParentID</title>
<!-- Node1 -->
<g id="node1" class="node"><title>Node1</title>
<polygon fill="#bfbfbf" stroke="black" points="0,-19.5 0,-39.5 119,-39.5 119,-19.5 0,-19.5"/>
<text text-anchor="middle" x="59.5" y="-26.7" font-family="Helvetica,sans-Serif" font-size="11.00">THTree::getParentID</text>
</g>
<!-- Node2 -->
<g id="node2" class="node"><title>Node2</title>
<g id="a_node2"><a xlink:href="$structt__node.xhtml#ac870573b476905ff91ade58bb9e1b385" xlink:title="t_node::getParent">
<polygon fill="none" stroke="black" points="155,-39.5 155,-59.5 258,-59.5 258,-39.5 155,-39.5"/>
<text text-anchor="middle" x="206.5" y="-46.7" font-family="Helvetica,sans-Serif" font-size="11.00">t_node::getParent</text>
</a>
</g>
</g>
<!-- Node1&#45;&gt;Node2 -->
<g id="edge1" class="edge"><title>Node1&#45;&gt;Node2</title>
<path fill="none" stroke="midnightblue" d="M119.059,-37.5771C127.441,-38.7332 136.081,-39.925 144.509,-41.0874"/>
<polygon fill="midnightblue" stroke="midnightblue" points="144.266,-44.587 154.651,-42.4863 145.223,-37.6527 144.266,-44.587"/>
</g>
<!-- Node3 -->
<g id="node3" class="node"><title>Node3</title>
<g id="a_node3"><a xlink:href="$structt__node.xhtml#aebf69f2d7510e0e746d56146d0ec1b94" xlink:title="t_node::getID">
<polygon fill="none" stroke="black" points="165.5,-0.5 165.5,-20.5 247.5,-20.5 247.5,-0.5 165.5,-0.5"/>
<text text-anchor="middle" x="206.5" y="-7.7" font-family="Helvetica,sans-Serif" font-size="11.00">t_node::getID</text>
</a>
</g>
</g>
<!-- Node1&#45;&gt;Node3 -->
<g id="edge2" class="edge"><title>Node1&#45;&gt;Node3</title>
<path fill="none" stroke="midnightblue" d="M119.059,-21.8267C131.096,-20.2495 143.665,-18.6025 155.372,-17.0685"/>
<polygon fill="midnightblue" stroke="midnightblue" points="155.942,-20.5238 165.403,-15.7541 155.033,-13.5831 155.942,-20.5238"/>
</g>
</g>
</svg>
