<?xml version="1.0" encoding="UTF-8" standalone="no"?>
<!DOCTYPE svg PUBLIC "-//W3C//DTD SVG 1.1//EN"
 "http://www.w3.org/Graphics/SVG/1.1/DTD/svg11.dtd">
<!-- Generated by graphviz version 2.38.0 (20140413.2041)
 -->
<!-- Title: THBuilder::getSearchAlgorithms Pages: 1 -->
<svg width="501pt" height="41pt"
 viewBox="0.00 0.00 501.00 41.00" xmlns="http://www.w3.org/2000/svg" xmlns:xlink="http://www.w3.org/1999/xlink">
<g id="graph0" class="graph" transform="scale(1 1) rotate(0) translate(4 37)">
<title>THBuilder::getSearchAlgorithms</title>
<!-- Node1 -->
<g id="node1" class="node"><title>Node1</title>
<polygon fill="#bfbfbf" stroke="black" points="0,-6.5 0,-26.5 172,-26.5 172,-6.5 0,-6.5"/>
<text text-anchor="middle" x="86" y="-13.7" font-family="Helvetica,sans-Serif" font-size="11.00">THBuilder::getSearchAlgorithms</text>
</g>
<!-- Node2 -->
<g id="node2" class="node"><title>Node2</title>
<g id="a_node2"><a xlink:href="$classTHBuilder_1_1SearchGroup.xhtml#a794cf5448380674b51022b5d65a240e2" xlink:title="Constructor to create the internal Search Group. ">
<polygon fill="none" stroke="black" points="208,-0.5 208,-32.5 344,-32.5 344,-0.5 208,-0.5"/>
<text text-anchor="start" x="216" y="-19.7" font-family="Helvetica,sans-Serif" font-size="11.00">THBuilder::SearchGroup</text>
<text text-anchor="middle" x="276" y="-7.7" font-family="Helvetica,sans-Serif" font-size="11.00">::SearchGroup</text>
</a>
</g>
</g>
<!-- Node1&#45;&gt;Node2 -->
<g id="edge1" class="edge"><title>Node1&#45;&gt;Node2</title>
<path fill="none" stroke="midnightblue" d="M182.31,-16.5C190.932,-16.5 199.539,-16.5 207.841,-16.5"/>
<polygon fill="midnightblue" stroke="midnightblue" points="182.199,-13.0001 172.199,-16.5 182.199,-20.0001 182.199,-13.0001"/>
</g>
<!-- Node3 -->
<g id="node3" class="node"><title>Node3</title>
<g id="a_node3"><a xlink:href="$classTHBuilder_1_1THImpl.xhtml#a0d6e2fd43f50755ff2738e924f66690d" xlink:title="THBuilder::THImpl::\lTHImpl">
<polygon fill="none" stroke="black" points="380,-0.5 380,-32.5 493,-32.5 493,-0.5 380,-0.5"/>
<text text-anchor="start" x="388" y="-19.7" font-family="Helvetica,sans-Serif" font-size="11.00">THBuilder::THImpl::</text>
<text text-anchor="middle" x="436.5" y="-7.7" font-family="Helvetica,sans-Serif" font-size="11.00">THImpl</text>
</a>
</g>
</g>
<!-- Node2&#45;&gt;Node3 -->
<g id="edge2" class="edge"><title>Node2&#45;&gt;Node3</title>
<path fill="none" stroke="midnightblue" d="M354.247,-16.5C362.824,-16.5 371.431,-16.5 379.668,-16.5"/>
<polygon fill="midnightblue" stroke="midnightblue" points="354.218,-13.0001 344.218,-16.5 354.218,-20.0001 354.218,-13.0001"/>
</g>
</g>
</svg>
