<?xml version="1.0" encoding="UTF-8" standalone="no"?>
<!DOCTYPE svg PUBLIC "-//W3C//DTD SVG 1.1//EN"
 "http://www.w3.org/Graphics/SVG/1.1/DTD/svg11.dtd">
<!-- Generated by graphviz version 2.38.0 (20140413.2041)
 -->
<!-- Title: Search::getPreferredPopulationSize Pages: 1 -->
<svg width="734pt" height="41pt"
 viewBox="0.00 0.00 734.00 41.00" xmlns="http://www.w3.org/2000/svg" xmlns:xlink="http://www.w3.org/1999/xlink">
<g id="graph0" class="graph" transform="scale(1 1) rotate(0) translate(4 37)">
<title>Search::getPreferredPopulationSize</title>
<!-- Node1 -->
<g id="node1" class="node"><title>Node1</title>
<polygon fill="#bfbfbf" stroke="black" points="0,-6.5 0,-26.5 190,-26.5 190,-6.5 0,-6.5"/>
<text text-anchor="middle" x="95" y="-13.7" font-family="Helvetica,sans-Serif" font-size="11.00">Search::getPreferredPopulationSize</text>
</g>
<!-- Node2 -->
<g id="node2" class="node"><title>Node2</title>
<g id="a_node2"><a xlink:href="$classTHBuilder.xhtml#a876380ef9e0647b90bd80bcc04cbcd58" xlink:title="The largest &#39;preferred population size&#39; from all search algorithms configured. ">
<polygon fill="none" stroke="black" points="226,-6.5 226,-26.5 405,-26.5 405,-6.5 226,-6.5"/>
<text text-anchor="middle" x="315.5" y="-13.7" font-family="Helvetica,sans-Serif" font-size="11.00">THBuilder::getMaxPopulationSize</text>
</a>
</g>
</g>
<!-- Node1&#45;&gt;Node2 -->
<g id="edge1" class="edge"><title>Node1&#45;&gt;Node2</title>
<path fill="none" stroke="midnightblue" d="M200.511,-16.5C208.951,-16.5 217.429,-16.5 225.742,-16.5"/>
<polygon fill="midnightblue" stroke="midnightblue" points="200.249,-13.0001 190.249,-16.5 200.249,-20.0001 200.249,-13.0001"/>
</g>
<!-- Node3 -->
<g id="node3" class="node"><title>Node3</title>
<g id="a_node3"><a xlink:href="$classTHBuilder_1_1SearchGroup.xhtml#a794cf5448380674b51022b5d65a240e2" xlink:title="Constructor to create the internal Search Group. ">
<polygon fill="none" stroke="black" points="441,-0.5 441,-32.5 577,-32.5 577,-0.5 441,-0.5"/>
<text text-anchor="start" x="449" y="-19.7" font-family="Helvetica,sans-Serif" font-size="11.00">THBuilder::SearchGroup</text>
<text text-anchor="middle" x="509" y="-7.7" font-family="Helvetica,sans-Serif" font-size="11.00">::SearchGroup</text>
</a>
</g>
</g>
<!-- Node2&#45;&gt;Node3 -->
<g id="edge2" class="edge"><title>Node2&#45;&gt;Node3</title>
<path fill="none" stroke="midnightblue" d="M415.332,-16.5C423.928,-16.5 432.49,-16.5 440.742,-16.5"/>
<polygon fill="midnightblue" stroke="midnightblue" points="415.243,-13.0001 405.243,-16.5 415.243,-20.0001 415.243,-13.0001"/>
</g>
<!-- Node4 -->
<g id="node4" class="node"><title>Node4</title>
<g id="a_node4"><a xlink:href="$classTHBuilder_1_1THImpl.xhtml#a0d6e2fd43f50755ff2738e924f66690d" xlink:title="THBuilder::THImpl::\lTHImpl">
<polygon fill="none" stroke="black" points="613,-0.5 613,-32.5 726,-32.5 726,-0.5 613,-0.5"/>
<text text-anchor="start" x="621" y="-19.7" font-family="Helvetica,sans-Serif" font-size="11.00">THBuilder::THImpl::</text>
<text text-anchor="middle" x="669.5" y="-7.7" font-family="Helvetica,sans-Serif" font-size="11.00">THImpl</text>
</a>
</g>
</g>
<!-- Node3&#45;&gt;Node4 -->
<g id="edge3" class="edge"><title>Node3&#45;&gt;Node4</title>
<path fill="none" stroke="midnightblue" d="M587.247,-16.5C595.824,-16.5 604.431,-16.5 612.668,-16.5"/>
<polygon fill="midnightblue" stroke="midnightblue" points="587.218,-13.0001 577.218,-16.5 587.218,-20.0001 587.218,-13.0001"/>
</g>
</g>
</svg>
