<?xml version="1.0" encoding="UTF-8" standalone="no"?>
<!DOCTYPE svg PUBLIC "-//W3C//DTD SVG 1.1//EN"
 "http://www.w3.org/Graphics/SVG/1.1/DTD/svg11.dtd">
<!-- Generated by graphviz version 2.38.0 (20140413.2041)
 -->
<!-- Title: THTree::addNode Pages: 1 -->
<svg width="262pt" height="185pt"
 viewBox="0.00 0.00 262.00 185.00" xmlns="http://www.w3.org/2000/svg" xmlns:xlink="http://www.w3.org/1999/xlink">
<g id="graph0" class="graph" transform="scale(1 1) rotate(0) translate(4 181)">
<title>THTree::addNode</title>
<!-- Node1 -->
<g id="node1" class="node"><title>Node1</title>
<polygon fill="#bfbfbf" stroke="black" points="0,-78.5 0,-98.5 104,-98.5 104,-78.5 0,-78.5"/>
<text text-anchor="middle" x="52" y="-85.7" font-family="Helvetica,sans-Serif" font-size="11.00">THTree::addNode</text>
</g>
<!-- Node2 -->
<g id="node2" class="node"><title>Node2</title>
<g id="a_node2"><a xlink:href="$structt__node.xhtml#ab9d6536aceb5dbb33eb76f6d8ab2082b" xlink:title="t_node::setParent">
<polygon fill="none" stroke="black" points="146,-156.5 146,-176.5 248,-176.5 248,-156.5 146,-156.5"/>
<text text-anchor="middle" x="197" y="-163.7" font-family="Helvetica,sans-Serif" font-size="11.00">t_node::setParent</text>
</a>
</g>
</g>
<!-- Node1&#45;&gt;Node2 -->
<g id="edge1" class="edge"><title>Node1&#45;&gt;Node2</title>
<path fill="none" stroke="midnightblue" d="M65.5908,-98.6507C81.938,-111.439 111.731,-133.441 140,-147.5 143.826,-149.403 147.889,-151.189 152.01,-152.847"/>
<polygon fill="midnightblue" stroke="midnightblue" points="151.055,-156.227 161.647,-156.475 153.521,-149.676 151.055,-156.227"/>
</g>
<!-- Node3 -->
<g id="node3" class="node"><title>Node3</title>
<g id="a_node3"><a xlink:href="$structt__node.xhtml#ae62cd63088f17a9741dfbbfe0b564690" xlink:title="t_node::setID">
<polygon fill="none" stroke="black" points="156.5,-117.5 156.5,-137.5 237.5,-137.5 237.5,-117.5 156.5,-117.5"/>
<text text-anchor="middle" x="197" y="-124.7" font-family="Helvetica,sans-Serif" font-size="11.00">t_node::setID</text>
</a>
</g>
</g>
<!-- Node1&#45;&gt;Node3 -->
<g id="edge2" class="edge"><title>Node1&#45;&gt;Node3</title>
<path fill="none" stroke="midnightblue" d="M89.8261,-98.5435C108.007,-103.502 130.135,-109.537 149.475,-114.811"/>
<polygon fill="midnightblue" stroke="midnightblue" points="148.73,-118.236 159.299,-117.491 150.572,-111.483 148.73,-118.236"/>
</g>
<!-- Node4 -->
<g id="node4" class="node"><title>Node4</title>
<g id="a_node4"><a xlink:href="$structt__node.xhtml#a4fe63274d162dcffb5ff14c848d19883" xlink:title="t_node::setLevel">
<polygon fill="none" stroke="black" points="149.5,-78.5 149.5,-98.5 244.5,-98.5 244.5,-78.5 149.5,-78.5"/>
<text text-anchor="middle" x="197" y="-85.7" font-family="Helvetica,sans-Serif" font-size="11.00">t_node::setLevel</text>
</a>
</g>
</g>
<!-- Node1&#45;&gt;Node4 -->
<g id="edge3" class="edge"><title>Node1&#45;&gt;Node4</title>
<path fill="none" stroke="midnightblue" d="M104.222,-88.5C115.627,-88.5 127.783,-88.5 139.391,-88.5"/>
<polygon fill="midnightblue" stroke="midnightblue" points="139.418,-92.0001 149.418,-88.5 139.418,-85.0001 139.418,-92.0001"/>
</g>
<!-- Node5 -->
<g id="node5" class="node"><title>Node5</title>
<g id="a_node5"><a xlink:href="$structt__node.xhtml#a37f4377e664f4b4a8b541df91e35d27b" xlink:title="t_node::getLevel">
<polygon fill="none" stroke="black" points="149,-39.5 149,-59.5 245,-59.5 245,-39.5 149,-39.5"/>
<text text-anchor="middle" x="197" y="-46.7" font-family="Helvetica,sans-Serif" font-size="11.00">t_node::getLevel</text>
</a>
</g>
</g>
<!-- Node1&#45;&gt;Node5 -->
<g id="edge4" class="edge"><title>Node1&#45;&gt;Node5</title>
<path fill="none" stroke="midnightblue" d="M89.8261,-78.4565C108.007,-73.498 130.135,-67.4631 149.475,-62.1886"/>
<polygon fill="midnightblue" stroke="midnightblue" points="150.572,-65.5174 159.299,-59.5094 148.73,-58.764 150.572,-65.5174"/>
</g>
<!-- Node6 -->
<g id="node6" class="node"><title>Node6</title>
<g id="a_node6"><a xlink:href="$structt__node.xhtml#af5fb14150f95112e1e525e09f924f507" xlink:title="t_node::addChildren">
<polygon fill="none" stroke="black" points="140,-0.5 140,-20.5 254,-20.5 254,-0.5 140,-0.5"/>
<text text-anchor="middle" x="197" y="-7.7" font-family="Helvetica,sans-Serif" font-size="11.00">t_node::addChildren</text>
</a>
</g>
</g>
<!-- Node1&#45;&gt;Node6 -->
<g id="edge5" class="edge"><title>Node1&#45;&gt;Node6</title>
<path fill="none" stroke="midnightblue" d="M65.9419,-78.3911C82.417,-65.8798 112.099,-44.5155 140,-30.5 144.382,-28.2988 149.066,-26.2259 153.788,-24.3095"/>
<polygon fill="midnightblue" stroke="midnightblue" points="155.368,-27.4522 163.453,-20.6045 152.863,-20.916 155.368,-27.4522"/>
</g>
</g>
</svg>
