<?xml version="1.0" encoding="UTF-8" standalone="no"?>
<!DOCTYPE svg PUBLIC "-//W3C//DTD SVG 1.1//EN"
 "http://www.w3.org/Graphics/SVG/1.1/DTD/svg11.dtd">
<!-- Generated by graphviz version 2.38.0 (20140413.2041)
 -->
<!-- Title: THUtil::randNormalDouble Pages: 1 -->
<svg width="655pt" height="131pt"
 viewBox="0.00 0.00 655.00 131.00" xmlns="http://www.w3.org/2000/svg" xmlns:xlink="http://www.w3.org/1999/xlink">
<g id="graph0" class="graph" transform="scale(1 1) rotate(0) translate(4 127)">
<title>THUtil::randNormalDouble</title>
<!-- Node1 -->
<g id="node1" class="node"><title>Node1</title>
<polygon fill="#bfbfbf" stroke="black" points="0,-25.5 0,-45.5 145,-45.5 145,-25.5 0,-25.5"/>
<text text-anchor="middle" x="72.5" y="-32.7" font-family="Helvetica,sans-Serif" font-size="11.00">THUtil::randNormalDouble</text>
</g>
<!-- Node2 -->
<g id="node2" class="node"><title>Node2</title>
<g id="a_node2"><a xlink:href="$classSolution.xhtml#a84c713b707a570add53e85a28196bb3e" xlink:title="Reset the position of the current Solution in the search space. ">
<polygon fill="none" stroke="black" points="199,-45.5 199,-65.5 285,-65.5 285,-45.5 199,-45.5"/>
<text text-anchor="middle" x="242" y="-52.7" font-family="Helvetica,sans-Serif" font-size="11.00">Solution::reset</text>
</a>
</g>
</g>
<!-- Node1&#45;&gt;Node2 -->
<g id="edge1" class="edge"><title>Node1&#45;&gt;Node2</title>
<path fill="none" stroke="midnightblue" d="M154.951,-45.2255C170.117,-47.0363 185.383,-48.8591 198.758,-50.4562"/>
<polygon fill="midnightblue" stroke="midnightblue" points="155.365,-41.7502 145.021,-44.0398 154.535,-48.7008 155.365,-41.7502"/>
</g>
<!-- Node7 -->
<g id="node7" class="node"><title>Node7</title>
<g id="a_node7"><a xlink:href="$classTHUtil.xhtml#a3b5857a6e815f895ffab6a769ed484c8" xlink:title="THUtil::randNormalInt">
<polygon fill="none" stroke="black" points="181,-6.5 181,-26.5 303,-26.5 303,-6.5 181,-6.5"/>
<text text-anchor="middle" x="242" y="-13.7" font-family="Helvetica,sans-Serif" font-size="11.00">THUtil::randNormalInt</text>
</a>
</g>
</g>
<!-- Node1&#45;&gt;Node7 -->
<g id="edge6" class="edge"><title>Node1&#45;&gt;Node7</title>
<path fill="none" stroke="midnightblue" d="M155.132,-26.2402C163.776,-25.2597 172.45,-24.2758 180.786,-23.3303"/>
<polygon fill="midnightblue" stroke="midnightblue" points="154.563,-22.7823 145.021,-27.3872 155.352,-29.7377 154.563,-22.7823"/>
</g>
<!-- Node3 -->
<g id="node3" class="node"><title>Node3</title>
<g id="a_node3"><a xlink:href="$classBetaRelocationStrategyPolicy.xhtml#aeadaa254d012725ab1a67419d9cb37ef" xlink:title="This method implements the policy to relocate TH instance&#39;s population at every TH instance&#39;s iterati...">
<polygon fill="none" stroke="black" points="339,-90.5 339,-122.5 498,-122.5 498,-90.5 339,-90.5"/>
<text text-anchor="start" x="347" y="-109.7" font-family="Helvetica,sans-Serif" font-size="11.00">BetaRelocationStrategyPolicy</text>
<text text-anchor="middle" x="418.5" y="-97.7" font-family="Helvetica,sans-Serif" font-size="11.00">::apply</text>
</a>
</g>
</g>
<!-- Node2&#45;&gt;Node3 -->
<g id="edge2" class="edge"><title>Node2&#45;&gt;Node3</title>
<path fill="none" stroke="midnightblue" d="M287.252,-68.4333C310.118,-75.1161 338.237,-83.3343 362.489,-90.4223"/>
<polygon fill="midnightblue" stroke="midnightblue" points="288.056,-65.0218 277.476,-65.576 286.092,-71.7408 288.056,-65.0218"/>
</g>
<!-- Node4 -->
<g id="node4" class="node"><title>Node4</title>
<g id="a_node4"><a xlink:href="$classTHBuilder_1_1SearchGroup.xhtml#aafebb836a1ec681213319a024a254ca8" xlink:title="Reset the location of the population individuals and calculate the fitness. ">
<polygon fill="none" stroke="black" points="350.5,-39.5 350.5,-71.5 486.5,-71.5 486.5,-39.5 350.5,-39.5"/>
<text text-anchor="start" x="358.5" y="-58.7" font-family="Helvetica,sans-Serif" font-size="11.00">THBuilder::SearchGroup</text>
<text text-anchor="middle" x="418.5" y="-46.7" font-family="Helvetica,sans-Serif" font-size="11.00">::resetPopulation</text>
</a>
</g>
</g>
<!-- Node2&#45;&gt;Node4 -->
<g id="edge3" class="edge"><title>Node2&#45;&gt;Node4</title>
<path fill="none" stroke="midnightblue" d="M295.67,-55.5C312.913,-55.5 332.306,-55.5 350.463,-55.5"/>
<polygon fill="midnightblue" stroke="midnightblue" points="295.242,-52.0001 285.242,-55.5 295.242,-59.0001 295.242,-52.0001"/>
</g>
<!-- Node6 -->
<g id="node6" class="node"><title>Node6</title>
<g id="a_node6"><a xlink:href="$classTHBuilder_1_1THImpl.xhtml#a943301db5154fd7b672119b5c9917303" xlink:title="Starts the Treasure Hunt mechanisms. ">
<polygon fill="none" stroke="black" points="354.5,-0.5 354.5,-20.5 482.5,-20.5 482.5,-0.5 354.5,-0.5"/>
<text text-anchor="middle" x="418.5" y="-7.7" font-family="Helvetica,sans-Serif" font-size="11.00">THBuilder::THImpl::run</text>
</a>
</g>
</g>
<!-- Node2&#45;&gt;Node6 -->
<g id="edge5" class="edge"><title>Node2&#45;&gt;Node6</title>
<path fill="none" stroke="midnightblue" d="M291.079,-42.9263C306.391,-38.936 323.403,-34.5176 339,-30.5 351.666,-27.2373 365.489,-23.7057 377.957,-20.5312"/>
<polygon fill="midnightblue" stroke="midnightblue" points="290.087,-39.5678 281.294,-45.4781 291.854,-46.3412 290.087,-39.5678"/>
</g>
<!-- Node5 -->
<g id="node5" class="node"><title>Node5</title>
<g id="a_node5"><a xlink:href="$classTHBuilder_1_1THImpl.xhtml#a0d6e2fd43f50755ff2738e924f66690d" xlink:title="THBuilder::THImpl::\lTHImpl">
<polygon fill="none" stroke="black" points="534,-39.5 534,-71.5 647,-71.5 647,-39.5 534,-39.5"/>
<text text-anchor="start" x="542" y="-58.7" font-family="Helvetica,sans-Serif" font-size="11.00">THBuilder::THImpl::</text>
<text text-anchor="middle" x="590.5" y="-46.7" font-family="Helvetica,sans-Serif" font-size="11.00">THImpl</text>
</a>
</g>
</g>
<!-- Node4&#45;&gt;Node5 -->
<g id="edge4" class="edge"><title>Node4&#45;&gt;Node5</title>
<path fill="none" stroke="midnightblue" d="M497.017,-55.5C509.401,-55.5 521.999,-55.5 533.747,-55.5"/>
<polygon fill="midnightblue" stroke="midnightblue" points="496.689,-52.0001 486.689,-55.5 496.688,-59.0001 496.689,-52.0001"/>
</g>
</g>
</svg>
