<?xml version="1.0" encoding="UTF-8" standalone="no"?>
<!DOCTYPE svg PUBLIC "-//W3C//DTD SVG 1.1//EN"
 "http://www.w3.org/Graphics/SVG/1.1/DTD/svg11.dtd">
<!-- Generated by graphviz version 2.38.0 (20140413.2041)
 -->
<!-- Title: Search::setPopulation Pages: 1 -->
<svg width="488pt" height="49pt"
 viewBox="0.00 0.00 488.00 49.00" xmlns="http://www.w3.org/2000/svg" xmlns:xlink="http://www.w3.org/1999/xlink">
<g id="graph0" class="graph" transform="scale(1 1) rotate(0) translate(4 45)">
<title>Search::setPopulation</title>
<!-- Node1 -->
<g id="node1" class="node"><title>Node1</title>
<polygon fill="#bfbfbf" stroke="black" points="0,-0.5 0,-20.5 122,-20.5 122,-0.5 0,-0.5"/>
<text text-anchor="middle" x="61" y="-7.7" font-family="Helvetica,sans-Serif" font-size="11.00">Search::setPopulation</text>
</g>
<!-- Node2 -->
<g id="node2" class="node"><title>Node2</title>
<g id="a_node2"><a xlink:href="$classTHBuilder_1_1SearchGroup.xhtml#ac8c33d89ddd52e38fb23d7102d9086e0" xlink:title="Perform a complete execution of the search group. ">
<polygon fill="none" stroke="black" points="158,-20.5 158,-40.5 316,-40.5 316,-20.5 158,-20.5"/>
<text text-anchor="middle" x="237" y="-27.7" font-family="Helvetica,sans-Serif" font-size="11.00">THBuilder::SearchGroup::run</text>
</a>
</g>
</g>
<!-- Node1&#45;&gt;Node2 -->
<g id="edge1" class="edge"><title>Node1&#45;&gt;Node2</title>
<path fill="none" stroke="midnightblue" d="M132.477,-18.6008C140.869,-19.5654 149.474,-20.5545 157.963,-21.5303"/>
<polygon fill="midnightblue" stroke="midnightblue" points="132.703,-15.1038 122.368,-17.4389 131.903,-22.058 132.703,-15.1038"/>
</g>
<!-- Node3 -->
<g id="node3" class="node"><title>Node3</title>
<g id="a_node3"><a xlink:href="$classTHBuilder_1_1THImpl.xhtml#a943301db5154fd7b672119b5c9917303" xlink:title="Starts the Treasure Hunt mechanisms. ">
<polygon fill="none" stroke="black" points="352,-0.5 352,-20.5 480,-20.5 480,-0.5 352,-0.5"/>
<text text-anchor="middle" x="416" y="-7.7" font-family="Helvetica,sans-Serif" font-size="11.00">THBuilder::THImpl::run</text>
</a>
</g>
</g>
<!-- Node1&#45;&gt;Node3 -->
<g id="edge3" class="edge"><title>Node1&#45;&gt;Node3</title>
<path fill="none" stroke="midnightblue" d="M132.306,-10.5C196.414,-10.5 290.276,-10.5 351.992,-10.5"/>
<polygon fill="midnightblue" stroke="midnightblue" points="132.282,-7.0001 122.282,-10.5 132.282,-14.0001 132.282,-7.0001"/>
</g>
<!-- Node2&#45;&gt;Node3 -->
<g id="edge2" class="edge"><title>Node2&#45;&gt;Node3</title>
<path fill="none" stroke="midnightblue" d="M326.271,-20.5259C334.91,-19.5497 343.552,-18.5732 351.868,-17.6336"/>
<polygon fill="midnightblue" stroke="midnightblue" points="325.694,-17.0687 316.15,-21.6695 326.48,-24.0245 325.694,-17.0687"/>
</g>
</g>
</svg>
