<?xml version="1.0" encoding="UTF-8" standalone="no"?>
<!DOCTYPE svg PUBLIC "-//W3C//DTD SVG 1.1//EN"
 "http://www.w3.org/Graphics/SVG/1.1/DTD/svg11.dtd">
<!-- Generated by graphviz version 2.38.0 (20140413.2041)
 -->
<!-- Title: THBuilder::THImpl::run Pages: 1 -->
<svg width="576pt" height="1485pt"
 viewBox="0.00 0.00 576.00 1485.00" xmlns="http://www.w3.org/2000/svg" xmlns:xlink="http://www.w3.org/1999/xlink">
<g id="graph0" class="graph" transform="scale(1 1) rotate(0) translate(4 1481)">
<title>THBuilder::THImpl::run</title>
<!-- Node1 -->
<g id="node1" class="node"><title>Node1</title>
<polygon fill="#bfbfbf" stroke="black" points="0,-742.5 0,-762.5 128,-762.5 128,-742.5 0,-742.5"/>
<text text-anchor="middle" x="64" y="-749.7" font-family="Helvetica,sans-Serif" font-size="11.00">THBuilder::THImpl::run</text>
</g>
<!-- Node2 -->
<g id="node2" class="node"><title>Node2</title>
<g id="a_node2"><a xlink:href="$classTHBuilder.xhtml#a4ebc7b6974e1d91c6873c4e573db8121" xlink:title="Get the BestListSelectionPolicy configured. ">
<polygon fill="none" stroke="black" points="180,-1444.5 180,-1476.5 349,-1476.5 349,-1444.5 180,-1444.5"/>
<text text-anchor="start" x="188" y="-1463.7" font-family="Helvetica,sans-Serif" font-size="11.00">THBuilder::getBestListSelection</text>
<text text-anchor="middle" x="264.5" y="-1451.7" font-family="Helvetica,sans-Serif" font-size="11.00">Policy</text>
</a>
</g>
</g>
<!-- Node1&#45;&gt;Node2 -->
<g id="edge1" class="edge"><title>Node1&#45;&gt;Node2</title>
<path fill="none" stroke="midnightblue" d="M64.9839,-762.677C65.0712,-839.693 69.3655,-1330.66 164,-1435.5 166.268,-1438.01 168.747,-1440.29 171.393,-1442.35"/>
<polygon fill="midnightblue" stroke="midnightblue" points="169.523,-1445.31 179.792,-1447.92 173.391,-1439.48 169.523,-1445.31"/>
</g>
<!-- Node3 -->
<g id="node3" class="node"><title>Node3</title>
<g id="a_node3"><a xlink:href="$classTHBuilder.xhtml#ae1d2cf8a2379569533ba1dd4bdf4fbed" xlink:title="THBuilder::getMaxIterations">
<polygon fill="none" stroke="black" points="189,-1405.5 189,-1425.5 340,-1425.5 340,-1405.5 189,-1405.5"/>
<text text-anchor="middle" x="264.5" y="-1412.7" font-family="Helvetica,sans-Serif" font-size="11.00">THBuilder::getMaxIterations</text>
</a>
</g>
</g>
<!-- Node1&#45;&gt;Node3 -->
<g id="edge2" class="edge"><title>Node1&#45;&gt;Node3</title>
<path fill="none" stroke="midnightblue" d="M65.0265,-762.858C65.4378,-838.127 71.7292,-1300.83 164,-1396.5 168.487,-1401.15 173.736,-1404.86 179.436,-1407.8"/>
<polygon fill="midnightblue" stroke="midnightblue" points="178.151,-1411.06 188.719,-1411.81 180.927,-1404.63 178.151,-1411.06"/>
</g>
<!-- Node4 -->
<g id="node4" class="node"><title>Node4</title>
<g id="a_node4"><a xlink:href="$classTHBuilder.xhtml#a4b9fc144f6c5090f23514fff87a10f78" xlink:title="THBuilder::getMaxNumberEvaluations">
<polygon fill="none" stroke="black" points="164,-1366.5 164,-1386.5 365,-1386.5 365,-1366.5 164,-1366.5"/>
<text text-anchor="middle" x="264.5" y="-1373.7" font-family="Helvetica,sans-Serif" font-size="11.00">THBuilder::getMaxNumberEvaluations</text>
</a>
</g>
</g>
<!-- Node1&#45;&gt;Node4 -->
<g id="edge3" class="edge"><title>Node1&#45;&gt;Node4</title>
<path fill="none" stroke="midnightblue" d="M65.1353,-762.693C66.3065,-834.837 76.9355,-1268.1 164,-1357.5 164.932,-1358.46 165.896,-1359.37 166.889,-1360.25"/>
<polygon fill="midnightblue" stroke="midnightblue" points="164.912,-1363.14 175.04,-1366.26 169.064,-1357.51 164.912,-1363.14"/>
</g>
<!-- Node5 -->
<g id="node5" class="node"><title>Node5</title>
<g id="a_node5"><a xlink:href="$classTHBuilder.xhtml#a701deae1181c4da26aa949bf8415de38" xlink:title="THBuilder::getMaxTimeSeconds">
<polygon fill="none" stroke="black" points="178,-1327.5 178,-1347.5 351,-1347.5 351,-1327.5 178,-1327.5"/>
<text text-anchor="middle" x="264.5" y="-1334.7" font-family="Helvetica,sans-Serif" font-size="11.00">THBuilder::getMaxTimeSeconds</text>
</a>
</g>
</g>
<!-- Node1&#45;&gt;Node5 -->
<g id="edge4" class="edge"><title>Node1&#45;&gt;Node5</title>
<path fill="none" stroke="midnightblue" d="M65.3394,-762.762C67.8292,-831.784 85.4458,-1228.15 164,-1312.5 167.624,-1316.39 171.757,-1319.72 176.23,-1322.55"/>
<polygon fill="midnightblue" stroke="midnightblue" points="174.748,-1325.73 185.207,-1327.42 178.088,-1319.58 174.748,-1325.73"/>
</g>
<!-- Node6 -->
<g id="node6" class="node"><title>Node6</title>
<g id="a_node6"><a xlink:href="$classTHBuilder_1_1SearchGroup.xhtml#ac8c33d89ddd52e38fb23d7102d9086e0" xlink:title="Perform a complete execution of the search group. ">
<polygon fill="none" stroke="black" points="185.5,-1211.5 185.5,-1231.5 343.5,-1231.5 343.5,-1211.5 185.5,-1211.5"/>
<text text-anchor="middle" x="264.5" y="-1218.7" font-family="Helvetica,sans-Serif" font-size="11.00">THBuilder::SearchGroup::run</text>
</a>
</g>
</g>
<!-- Node1&#45;&gt;Node6 -->
<g id="edge5" class="edge"><title>Node1&#45;&gt;Node6</title>
<path fill="none" stroke="midnightblue" d="M65.8275,-762.506C70.9638,-822.219 100.369,-1131.14 164,-1196.5 167.883,-1200.49 172.3,-1203.88 177.064,-1206.75"/>
<polygon fill="midnightblue" stroke="midnightblue" points="175.486,-1209.87 185.972,-1211.38 178.717,-1203.66 175.486,-1209.87"/>
</g>
<!-- Node8 -->
<g id="node8" class="node"><title>Node8</title>
<g id="a_node8"><a xlink:href="$classSearch.xhtml#a06246066740a703454189564dc5c326e" xlink:title="Set the population. ">
<polygon fill="none" stroke="black" points="423.5,-1398.5 423.5,-1418.5 545.5,-1418.5 545.5,-1398.5 423.5,-1398.5"/>
<text text-anchor="middle" x="484.5" y="-1405.7" font-family="Helvetica,sans-Serif" font-size="11.00">Search::setPopulation</text>
</a>
</g>
</g>
<!-- Node1&#45;&gt;Node8 -->
<g id="edge24" class="edge"><title>Node1&#45;&gt;Node8</title>
<path fill="none" stroke="midnightblue" d="M65.4248,-762.564C68.4184,-828.591 88.4712,-1199.5 164,-1276.5 227.908,-1341.65 292.555,-1263 365,-1318.5 393.085,-1340.02 373.136,-1367.7 401,-1389.5 404.918,-1392.57 409.241,-1395.15 413.795,-1397.33"/>
<polygon fill="midnightblue" stroke="midnightblue" points="412.829,-1400.72 423.41,-1401.27 415.478,-1394.24 412.829,-1400.72"/>
</g>
<!-- Node11 -->
<g id="node11" class="node"><title>Node11</title>
<g id="a_node11"><a xlink:href="$classSearch.xhtml#a134eb5da3918998d5a3d1e049f7b585e" xlink:title="Get the number of FitnessPolicy evaluations performed since the last time the method startup() was ca...">
<polygon fill="none" stroke="black" points="413,-1359.5 413,-1379.5 556,-1379.5 556,-1359.5 413,-1359.5"/>
<text text-anchor="middle" x="484.5" y="-1366.7" font-family="Helvetica,sans-Serif" font-size="11.00">Search::getCurrentNEvals</text>
</a>
</g>
</g>
<!-- Node1&#45;&gt;Node11 -->
<g id="edge28" class="edge"><title>Node1&#45;&gt;Node11</title>
<path fill="none" stroke="midnightblue" d="M65.5842,-762.704C69.4443,-826.495 93.3438,-1170.06 164,-1241.5 228.241,-1306.45 291.785,-1229.86 365,-1284.5 391.779,-1304.48 374.378,-1330.31 401,-1350.5 403.049,-1352.05 405.204,-1353.49 407.44,-1354.8"/>
<polygon fill="midnightblue" stroke="midnightblue" points="405.913,-1357.95 416.417,-1359.33 409.068,-1351.7 405.913,-1357.95"/>
</g>
<!-- Node12 -->
<g id="node12" class="node"><title>Node12</title>
<g id="a_node12"><a xlink:href="$classSearch.xhtml#a6b275ce5596bb50216cc9fc827f44912" xlink:title="Get the best Solution found since the last time the method startup() was called. ">
<polygon fill="none" stroke="black" points="415,-1179.5 415,-1199.5 554,-1199.5 554,-1179.5 415,-1179.5"/>
<text text-anchor="middle" x="484.5" y="-1186.7" font-family="Helvetica,sans-Serif" font-size="11.00">Search::getBestIndividual</text>
</a>
</g>
</g>
<!-- Node1&#45;&gt;Node12 -->
<g id="edge30" class="edge"><title>Node1&#45;&gt;Node12</title>
<path fill="none" stroke="midnightblue" d="M65.9956,-762.671C71.7654,-819.426 102.802,-1096.37 164,-1150.5 198.604,-1181.11 321.802,-1188.45 404.709,-1189.81"/>
<polygon fill="midnightblue" stroke="midnightblue" points="404.816,-1193.31 414.863,-1189.95 404.912,-1186.31 404.816,-1193.31"/>
</g>
<!-- Node13 -->
<g id="node13" class="node"><title>Node13</title>
<g id="a_node13"><a xlink:href="$classTHBuilder.xhtml#aca895af8d67060f0f66176aa18f00f98" xlink:title="Get the BestListUpdatePolicy configured. ">
<polygon fill="none" stroke="black" points="404.5,-1128.5 404.5,-1160.5 564.5,-1160.5 564.5,-1128.5 404.5,-1128.5"/>
<text text-anchor="start" x="412.5" y="-1147.7" font-family="Helvetica,sans-Serif" font-size="11.00">THBuilder::getBestListUpdate</text>
<text text-anchor="middle" x="484.5" y="-1135.7" font-family="Helvetica,sans-Serif" font-size="11.00">Policy</text>
</a>
</g>
</g>
<!-- Node1&#45;&gt;Node13 -->
<g id="edge32" class="edge"><title>Node1&#45;&gt;Node13</title>
<path fill="none" stroke="midnightblue" d="M66.282,-762.705C73.2089,-816.127 107.94,-1062.94 164,-1110.5 226.843,-1163.81 323.557,-1166.91 394.121,-1160"/>
<polygon fill="midnightblue" stroke="midnightblue" points="394.762,-1163.46 404.335,-1158.92 394.021,-1156.5 394.762,-1163.46"/>
</g>
<!-- Node14 -->
<g id="node14" class="node"><title>Node14</title>
<g id="a_node14"><a xlink:href="$classFitnessPolicy.xhtml#acaf9a99792b12c78eaabc0acadd1de9f" xlink:title="Check if the first Solution is better than the second Solution. ">
<polygon fill="none" stroke="black" points="414.5,-1089.5 414.5,-1109.5 554.5,-1109.5 554.5,-1089.5 414.5,-1089.5"/>
<text text-anchor="middle" x="484.5" y="-1096.7" font-family="Helvetica,sans-Serif" font-size="11.00">FitnessPolicy::firstIsBetter</text>
</a>
</g>
</g>
<!-- Node1&#45;&gt;Node14 -->
<g id="edge31" class="edge"><title>Node1&#45;&gt;Node14</title>
<path fill="none" stroke="midnightblue" d="M64.4854,-762.723C62.8294,-807.905 62.7352,-991.023 164,-1072.5 239.906,-1133.57 361.354,-1123.76 430.597,-1111.44"/>
<polygon fill="midnightblue" stroke="midnightblue" points="431.645,-1114.8 440.835,-1109.53 430.363,-1107.92 431.645,-1114.8"/>
</g>
<!-- Node15 -->
<g id="node15" class="node"><title>Node15</title>
<g id="a_node15"><a xlink:href="$classSolution.xhtml#ae7720fedccf4ae8ff24170e159fd266f" xlink:title="Get a pointer to the actual Fitness instance. ">
<polygon fill="none" stroke="black" points="429,-1050.5 429,-1070.5 540,-1070.5 540,-1050.5 429,-1050.5"/>
<text text-anchor="middle" x="484.5" y="-1057.7" font-family="Helvetica,sans-Serif" font-size="11.00">Solution::getFitness</text>
</a>
</g>
</g>
<!-- Node1&#45;&gt;Node15 -->
<g id="edge20" class="edge"><title>Node1&#45;&gt;Node15</title>
<path fill="none" stroke="midnightblue" d="M64.9322,-762.701C65.2638,-804.679 72.6495,-965.159 164,-1035.5 241.153,-1094.91 362.143,-1084.77 430.971,-1072.41"/>
<polygon fill="midnightblue" stroke="midnightblue" points="431.964,-1075.79 441.146,-1070.5 430.672,-1068.91 431.964,-1075.79"/>
</g>
<!-- Node16 -->
<g id="node16" class="node"><title>Node16</title>
<g id="a_node16"><a xlink:href="$classTHBuilder.xhtml#a35de691f57f40cb8719190e8a2ca6ccf" xlink:title="Get the global number of fitness function evaluations performed by this TH instance. ">
<polygon fill="none" stroke="black" points="424,-1011.5 424,-1031.5 545,-1031.5 545,-1011.5 424,-1011.5"/>
<text text-anchor="middle" x="484.5" y="-1018.7" font-family="Helvetica,sans-Serif" font-size="11.00">THBuilder::getNEvals</text>
</a>
</g>
</g>
<!-- Node1&#45;&gt;Node16 -->
<g id="edge29" class="edge"><title>Node1&#45;&gt;Node16</title>
<path fill="none" stroke="midnightblue" d="M65.1942,-762.51C66.5681,-802.283 77.5181,-949.957 164,-1011.5 202.631,-1038.99 332.035,-1034.24 413.825,-1028.04"/>
<polygon fill="midnightblue" stroke="midnightblue" points="414.104,-1031.53 423.8,-1027.26 413.557,-1024.55 414.104,-1031.53"/>
</g>
<!-- Node17 -->
<g id="node17" class="node"><title>Node17</title>
<g id="a_node17"><a xlink:href="$structt__node.xhtml#a92a900c7452cca30f4974b4b15326c2c" xlink:title="t_node::hasParent">
<polygon fill="none" stroke="black" points="212,-981.5 212,-1001.5 317,-1001.5 317,-981.5 212,-981.5"/>
<text text-anchor="middle" x="264.5" y="-988.7" font-family="Helvetica,sans-Serif" font-size="11.00">t_node::hasParent</text>
</a>
</g>
</g>
<!-- Node1&#45;&gt;Node17 -->
<g id="edge16" class="edge"><title>Node1&#45;&gt;Node17</title>
<path fill="none" stroke="midnightblue" d="M66.2951,-762.829C71.3312,-798.36 92.9943,-916.44 164,-972.5 174.829,-981.05 188.367,-986.144 201.935,-989.097"/>
<polygon fill="midnightblue" stroke="midnightblue" points="201.317,-992.542 211.782,-990.888 202.569,-985.655 201.317,-992.542"/>
</g>
<!-- Node18 -->
<g id="node18" class="node"><title>Node18</title>
<g id="a_node18"><a xlink:href="$classTHBuilder_1_1SearchGroup.xhtml#ad3dec76f9fa002b5318a46807eb2ce1f" xlink:title="Inform if the last execution of the run() method has improved the general best Solution. ">
<polygon fill="none" stroke="black" points="192,-930.5 192,-962.5 337,-962.5 337,-930.5 192,-930.5"/>
<text text-anchor="start" x="200" y="-949.7" font-family="Helvetica,sans-Serif" font-size="11.00">THBuilder::SearchGroup</text>
<text text-anchor="middle" x="264.5" y="-937.7" font-family="Helvetica,sans-Serif" font-size="11.00">::hasImprovedGeneralBest</text>
</a>
</g>
</g>
<!-- Node1&#45;&gt;Node18 -->
<g id="edge17" class="edge"><title>Node1&#45;&gt;Node18</title>
<path fill="none" stroke="midnightblue" d="M67.9073,-762.759C76.8522,-792.38 106.874,-878.654 164,-921.5 169.553,-925.665 175.72,-929.141 182.187,-932.041"/>
<polygon fill="midnightblue" stroke="midnightblue" points="181.254,-935.437 191.839,-935.892 183.848,-928.936 181.254,-935.437"/>
</g>
<!-- Node19 -->
<g id="node19" class="node"><title>Node19</title>
<g id="a_node19"><a xlink:href="$classSolution.xhtml#acaffcea4a5bfc0ad8ef8d655f56533b6" xlink:title="This method copies the contents of current Position to the buffer received. ">
<polygon fill="none" stroke="black" points="204.5,-891.5 204.5,-911.5 324.5,-911.5 324.5,-891.5 204.5,-891.5"/>
<text text-anchor="middle" x="264.5" y="-898.7" font-family="Helvetica,sans-Serif" font-size="11.00">Solution::getPositions</text>
</a>
</g>
</g>
<!-- Node1&#45;&gt;Node19 -->
<g id="edge18" class="edge"><title>Node1&#45;&gt;Node19</title>
<path fill="none" stroke="midnightblue" d="M69.504,-762.642C81.1439,-787.574 114.793,-852.038 164,-882.5 173.216,-888.205 183.762,-892.265 194.463,-895.14"/>
<polygon fill="midnightblue" stroke="midnightblue" points="193.763,-898.571 204.3,-897.461 195.371,-891.758 193.763,-898.571"/>
</g>
<!-- Node21 -->
<g id="node21" class="node"><title>Node21</title>
<g id="a_node21"><a xlink:href="$classTHBuilder_1_1SearchGroup.xhtml#ad2916b5c8e07aa0db76c48300440dd5e" xlink:title="Get the best Solution of the TH iteration. ">
<polygon fill="none" stroke="black" points="196.5,-840.5 196.5,-872.5 332.5,-872.5 332.5,-840.5 196.5,-840.5"/>
<text text-anchor="start" x="204.5" y="-859.7" font-family="Helvetica,sans-Serif" font-size="11.00">THBuilder::SearchGroup</text>
<text text-anchor="middle" x="264.5" y="-847.7" font-family="Helvetica,sans-Serif" font-size="11.00">::getIterationBest</text>
</a>
</g>
</g>
<!-- Node1&#45;&gt;Node21 -->
<g id="edge21" class="edge"><title>Node1&#45;&gt;Node21</title>
<path fill="none" stroke="midnightblue" d="M76.0542,-762.616C93.5269,-778.129 129.135,-807.847 164,-825.5 172.506,-829.807 181.726,-833.654 191.006,-837.049"/>
<polygon fill="midnightblue" stroke="midnightblue" points="190.076,-840.431 200.671,-840.422 192.383,-833.822 190.076,-840.431"/>
</g>
<!-- Node22 -->
<g id="node22" class="node"><title>Node22</title>
<g id="a_node22"><a xlink:href="$structt__node.xhtml#a97b3fded9e34ad0bf2873695e5813e3d" xlink:title="t_node::hasChildren">
<polygon fill="none" stroke="black" points="428,-781.5 428,-801.5 541,-801.5 541,-781.5 428,-781.5"/>
<text text-anchor="middle" x="484.5" y="-788.7" font-family="Helvetica,sans-Serif" font-size="11.00">t_node::hasChildren</text>
</a>
</g>
</g>
<!-- Node1&#45;&gt;Node22 -->
<g id="edge22" class="edge"><title>Node1&#45;&gt;Node22</title>
<path fill="none" stroke="midnightblue" d="M83.6781,-762.584C103.099,-772.452 134.703,-786.805 164,-792.5 250.443,-809.303 352.544,-804.881 417.639,-799.097"/>
<polygon fill="midnightblue" stroke="midnightblue" points="418.126,-802.567 427.761,-798.16 417.481,-795.597 418.126,-802.567"/>
</g>
<!-- Node23 -->
<g id="node23" class="node"><title>Node23</title>
<g id="a_node23"><a xlink:href="$classSolution.xhtml#a6c38d7e27c91077d67460a62aed71e06" xlink:title="Assigns the values of the buffer received to the current Fitness instance. ">
<polygon fill="none" stroke="black" points="209.5,-723.5 209.5,-743.5 319.5,-743.5 319.5,-723.5 209.5,-723.5"/>
<text text-anchor="middle" x="264.5" y="-730.7" font-family="Helvetica,sans-Serif" font-size="11.00">Solution::setFitness</text>
</a>
</g>
</g>
<!-- Node1&#45;&gt;Node23 -->
<g id="edge23" class="edge"><title>Node1&#45;&gt;Node23</title>
<path fill="none" stroke="midnightblue" d="M128.079,-746.462C150.722,-744.295 176.274,-741.849 199.033,-739.671"/>
<polygon fill="midnightblue" stroke="midnightblue" points="199.651,-743.128 209.272,-738.691 198.984,-736.159 199.651,-743.128"/>
</g>
<!-- Node24 -->
<g id="node24" class="node"><title>Node24</title>
<g id="a_node24"><a xlink:href="$classSearch.xhtml#afe8c2a6dd96ad12f77de7c8226a76028" xlink:title="Method responsible for setting up all the optimization algorithm for the next optimization. ">
<polygon fill="none" stroke="black" points="219.5,-684.5 219.5,-704.5 309.5,-704.5 309.5,-684.5 219.5,-684.5"/>
<text text-anchor="middle" x="264.5" y="-691.7" font-family="Helvetica,sans-Serif" font-size="11.00">Search::startup</text>
</a>
</g>
</g>
<!-- Node1&#45;&gt;Node24 -->
<g id="edge25" class="edge"><title>Node1&#45;&gt;Node24</title>
<path fill="none" stroke="midnightblue" d="M87.8278,-742.476C107.656,-734.076 137.302,-722.247 164,-714.5 178.436,-710.311 194.301,-706.693 209.039,-703.73"/>
<polygon fill="midnightblue" stroke="midnightblue" points="209.883,-707.131 219.03,-701.785 208.546,-700.26 209.883,-707.131"/>
</g>
<!-- Node25 -->
<g id="node25" class="node"><title>Node25</title>
<g id="a_node25"><a xlink:href="$classSearch.xhtml#ae2ea32c6a6ab958e714f19dc71fae9db" xlink:title="Method responsible for executing the actual optimization to obtain the next best result. ">
<polygon fill="none" stroke="black" points="226,-645.5 226,-665.5 303,-665.5 303,-645.5 226,-645.5"/>
<text text-anchor="middle" x="264.5" y="-652.7" font-family="Helvetica,sans-Serif" font-size="11.00">Search::next</text>
</a>
</g>
</g>
<!-- Node1&#45;&gt;Node25 -->
<g id="edge26" class="edge"><title>Node1&#45;&gt;Node25</title>
<path fill="none" stroke="midnightblue" d="M74.6319,-742.431C91.2212,-725.73 126.984,-692.463 164,-675.5 180.051,-668.145 198.78,-663.483 215.633,-660.534"/>
<polygon fill="midnightblue" stroke="midnightblue" points="216.517,-663.937 225.843,-658.91 215.417,-657.024 216.517,-663.937"/>
</g>
<!-- Node26 -->
<g id="node26" class="node"><title>Node26</title>
<g id="a_node26"><a xlink:href="$classConvergenceControlPolicy.xhtml#a445c537935922b1bcb67d3732abbfe0f" xlink:title="Get the maximum number of fitness function evaluations allowed. ">
<polygon fill="none" stroke="black" points="192,-594.5 192,-626.5 337,-626.5 337,-594.5 192,-594.5"/>
<text text-anchor="start" x="200" y="-613.7" font-family="Helvetica,sans-Serif" font-size="11.00">ConvergenceControlPolicy</text>
<text text-anchor="middle" x="264.5" y="-601.7" font-family="Helvetica,sans-Serif" font-size="11.00">::getBudgetSize</text>
</a>
</g>
</g>
<!-- Node1&#45;&gt;Node26 -->
<g id="edge27" class="edge"><title>Node1&#45;&gt;Node26</title>
<path fill="none" stroke="midnightblue" d="M70.6987,-742.314C83.9465,-719.606 119.134,-664.625 164,-636.5 169.743,-632.9 175.97,-629.796 182.412,-627.12"/>
<polygon fill="midnightblue" stroke="midnightblue" points="183.861,-630.314 191.973,-623.498 181.381,-623.768 183.861,-630.314"/>
</g>
<!-- Node27 -->
<g id="node27" class="node"><title>Node27</title>
<g id="a_node27"><a xlink:href="$classSolution.xhtml#a84c713b707a570add53e85a28196bb3e" xlink:title="Reset the position of the current Solution in the search space. ">
<polygon fill="none" stroke="black" points="221.5,-555.5 221.5,-575.5 307.5,-575.5 307.5,-555.5 221.5,-555.5"/>
<text text-anchor="middle" x="264.5" y="-562.7" font-family="Helvetica,sans-Serif" font-size="11.00">Solution::reset</text>
</a>
</g>
</g>
<!-- Node1&#45;&gt;Node27 -->
<g id="edge33" class="edge"><title>Node1&#45;&gt;Node27</title>
<path fill="none" stroke="midnightblue" d="M67.8489,-742.229C76.6355,-712.594 106.271,-626.454 164,-585.5 177.686,-575.791 194.959,-570.538 211.257,-567.769"/>
<polygon fill="midnightblue" stroke="midnightblue" points="211.83,-571.223 221.237,-566.348 210.844,-564.292 211.83,-571.223"/>
</g>
<!-- Node38 -->
<g id="node38" class="node"><title>Node38</title>
<g id="a_node38"><a xlink:href="$structIterationData.xhtml#ae3ce80ee3e14d5f99c978821930b33ee" xlink:title="Set the current number of TH iterations for current TH instance. ">
<polygon fill="none" stroke="black" points="184.5,-516.5 184.5,-536.5 344.5,-536.5 344.5,-516.5 184.5,-516.5"/>
<text text-anchor="middle" x="264.5" y="-523.7" font-family="Helvetica,sans-Serif" font-size="11.00">IterationData::setCurrIteration</text>
</a>
</g>
</g>
<!-- Node1&#45;&gt;Node38 -->
<g id="edge44" class="edge"><title>Node1&#45;&gt;Node38</title>
<path fill="none" stroke="midnightblue" d="M66.621,-742.369C72.5939,-708.566 96.6354,-598.845 164,-546.5 167.444,-543.824 171.151,-541.479 175.04,-539.425"/>
<polygon fill="midnightblue" stroke="midnightblue" points="176.764,-542.486 184.402,-535.144 173.853,-536.12 176.764,-542.486"/>
</g>
<!-- Node39 -->
<g id="node39" class="node"><title>Node39</title>
<g id="a_node39"><a xlink:href="$structIterationData.xhtml#acfdb8e5cfb19fb7357ac7ac9850057fe" xlink:title="Set the current number of fitness evaluations for current TH instance. ">
<polygon fill="none" stroke="black" points="184.5,-465.5 184.5,-497.5 344.5,-497.5 344.5,-465.5 184.5,-465.5"/>
<text text-anchor="start" x="192.5" y="-484.7" font-family="Helvetica,sans-Serif" font-size="11.00">IterationData::setCurrNumber</text>
<text text-anchor="middle" x="264.5" y="-472.7" font-family="Helvetica,sans-Serif" font-size="11.00">Evaluation</text>
</a>
</g>
</g>
<!-- Node1&#45;&gt;Node39 -->
<g id="edge45" class="edge"><title>Node1&#45;&gt;Node39</title>
<path fill="none" stroke="midnightblue" d="M65.9316,-742.273C69.9111,-704.768 88.8902,-573.534 164,-507.5 167.488,-504.433 171.295,-501.721 175.32,-499.323"/>
<polygon fill="midnightblue" stroke="midnightblue" points="177.196,-502.292 184.44,-494.561 173.956,-496.087 177.196,-502.292"/>
</g>
<!-- Node40 -->
<g id="node40" class="node"><title>Node40</title>
<g id="a_node40"><a xlink:href="$structIterationData.xhtml#ad20713d8a25433c257174f44febda153" xlink:title="Set the current running time of the current TH instance. ">
<polygon fill="none" stroke="black" points="192,-426.5 192,-446.5 337,-446.5 337,-426.5 192,-426.5"/>
<text text-anchor="middle" x="264.5" y="-433.7" font-family="Helvetica,sans-Serif" font-size="11.00">IterationData::setCurrTime</text>
</a>
</g>
</g>
<!-- Node1&#45;&gt;Node40 -->
<g id="edge46" class="edge"><title>Node1&#45;&gt;Node40</title>
<path fill="none" stroke="midnightblue" d="M65.0026,-742.436C65.5953,-700.242 73.8155,-536.109 164,-456.5 169.325,-451.799 175.44,-448.083 181.965,-445.158"/>
<polygon fill="midnightblue" stroke="midnightblue" points="183.677,-448.251 191.773,-441.416 181.182,-441.711 183.677,-448.251"/>
</g>
<!-- Node41 -->
<g id="node41" class="node"><title>Node41</title>
<g id="a_node41"><a xlink:href="$structIterationData.xhtml#a891c2a7e6d8f1134dece070ecab16afd" xlink:title="Copy the contents of the all population individuals to their internal clones. ">
<polygon fill="none" stroke="black" points="189.5,-387.5 189.5,-407.5 339.5,-407.5 339.5,-387.5 189.5,-387.5"/>
<text text-anchor="middle" x="264.5" y="-394.7" font-family="Helvetica,sans-Serif" font-size="11.00">IterationData::setPopulation</text>
</a>
</g>
</g>
<!-- Node1&#45;&gt;Node41 -->
<g id="edge47" class="edge"><title>Node1&#45;&gt;Node41</title>
<path fill="none" stroke="midnightblue" d="M64.5553,-742.403C63.1441,-696.907 63.764,-509.191 164,-417.5 168.735,-413.168 174.137,-409.665 179.92,-406.841"/>
<polygon fill="midnightblue" stroke="midnightblue" points="181.395,-410.018 189.28,-402.941 178.703,-403.556 181.395,-410.018"/>
</g>
<!-- Node42 -->
<g id="node42" class="node"><title>Node42</title>
<g id="a_node42"><a xlink:href="$structIterationData.xhtml#a88c3571863098a65b89cbb22817607f3" xlink:title="Copy the contents of the general best solution to an internal clone. ">
<polygon fill="none" stroke="black" points="185,-348.5 185,-368.5 344,-368.5 344,-348.5 185,-348.5"/>
<text text-anchor="middle" x="264.5" y="-355.7" font-family="Helvetica,sans-Serif" font-size="11.00">IterationData::setGeneralBest</text>
</a>
</g>
</g>
<!-- Node1&#45;&gt;Node42 -->
<g id="edge48" class="edge"><title>Node1&#45;&gt;Node42</title>
<path fill="none" stroke="midnightblue" d="M66.2474,-742.301C73.1225,-687.765 108.124,-431.099 164,-378.5 167.58,-375.13 171.562,-372.257 175.816,-369.812"/>
<polygon fill="midnightblue" stroke="midnightblue" points="177.442,-372.913 184.887,-365.375 174.366,-366.625 177.442,-372.913"/>
</g>
<!-- Node43 -->
<g id="node43" class="node"><title>Node43</title>
<g id="a_node43"><a xlink:href="$structIterationData.xhtml#a9351be56294d61182190c223975032bb" xlink:title="Copy the contents of the parent best solution to an internal clone. ">
<polygon fill="none" stroke="black" points="188,-309.5 188,-329.5 341,-329.5 341,-309.5 188,-309.5"/>
<text text-anchor="middle" x="264.5" y="-316.7" font-family="Helvetica,sans-Serif" font-size="11.00">IterationData::setParentBest</text>
</a>
</g>
</g>
<!-- Node1&#45;&gt;Node43 -->
<g id="edge49" class="edge"><title>Node1&#45;&gt;Node43</title>
<path fill="none" stroke="midnightblue" d="M65.9668,-742.406C71.6867,-684.821 102.946,-398.341 164,-339.5 168.308,-335.349 173.223,-331.946 178.509,-329.168"/>
<polygon fill="midnightblue" stroke="midnightblue" points="180.008,-332.332 187.713,-325.059 177.154,-325.94 180.008,-332.332"/>
</g>
<!-- Node44 -->
<g id="node44" class="node"><title>Node44</title>
<g id="a_node44"><a xlink:href="$structIterationData.xhtml#a61d9eaec319ef239ae3fe9d5c1a12920" xlink:title="Copy the contents of the iteration&#39;s best solution to an internal clone. ">
<polygon fill="none" stroke="black" points="184.5,-270.5 184.5,-290.5 344.5,-290.5 344.5,-270.5 184.5,-270.5"/>
<text text-anchor="middle" x="264.5" y="-277.7" font-family="Helvetica,sans-Serif" font-size="11.00">IterationData::setIterationBest</text>
</a>
</g>
</g>
<!-- Node1&#45;&gt;Node44 -->
<g id="edge50" class="edge"><title>Node1&#45;&gt;Node44</title>
<path fill="none" stroke="midnightblue" d="M65.7548,-742.271C70.4676,-681.232 97.8281,-365.54 164,-300.5 167.342,-297.215 171.063,-294.397 175.049,-291.984"/>
<polygon fill="midnightblue" stroke="midnightblue" points="176.845,-294.997 184.152,-287.325 173.656,-288.766 176.845,-294.997"/>
</g>
<!-- Node45 -->
<g id="node45" class="node"><title>Node45</title>
<g id="a_node45"><a xlink:href="$classTHBuilder.xhtml#a196903e0bccbc650cd8a965987756d28" xlink:title="Get the RegionSelectionPolicy configured. ">
<polygon fill="none" stroke="black" points="182,-219.5 182,-251.5 347,-251.5 347,-219.5 182,-219.5"/>
<text text-anchor="start" x="190" y="-238.7" font-family="Helvetica,sans-Serif" font-size="11.00">THBuilder::getRegionSelection</text>
<text text-anchor="middle" x="264.5" y="-226.7" font-family="Helvetica,sans-Serif" font-size="11.00">Policy</text>
</a>
</g>
</g>
<!-- Node1&#45;&gt;Node45 -->
<g id="edge51" class="edge"><title>Node1&#45;&gt;Node45</title>
<path fill="none" stroke="midnightblue" d="M65.6205,-742.296C69.7025,-678.5 94.7207,-334.818 164,-261.5 166.817,-258.519 169.929,-255.864 173.261,-253.5"/>
<polygon fill="midnightblue" stroke="midnightblue" points="175.234,-256.396 181.953,-248.204 171.592,-250.418 175.234,-256.396"/>
</g>
<!-- Node46 -->
<g id="node46" class="node"><title>Node46</title>
<g id="a_node46"><a xlink:href="$classTHBuilder.xhtml#a611f5596ed334d38c1d77d57845676ed" xlink:title="Get the SearchSpace configured. ">
<polygon fill="none" stroke="black" points="188.5,-180.5 188.5,-200.5 340.5,-200.5 340.5,-180.5 188.5,-180.5"/>
<text text-anchor="middle" x="264.5" y="-187.7" font-family="Helvetica,sans-Serif" font-size="11.00">THBuilder::getSearchSpace</text>
</a>
</g>
</g>
<!-- Node1&#45;&gt;Node46 -->
<g id="edge52" class="edge"><title>Node1&#45;&gt;Node46</title>
<path fill="none" stroke="midnightblue" d="M65.3626,-742.086C67.9568,-673.768 85.9025,-289.992 164,-210.5 168.351,-206.071 173.389,-202.483 178.843,-199.587"/>
<polygon fill="midnightblue" stroke="midnightblue" points="180.657,-202.611 188.365,-195.342 177.806,-196.217 180.657,-202.611"/>
</g>
<!-- Node47 -->
<g id="node47" class="node"><title>Node47</title>
<g id="a_node47"><a xlink:href="$classTHBuilder.xhtml#a080cdf2aea549d1074186156aa449b62" xlink:title="Get the RelocationStrategyPolicy configured. ">
<polygon fill="none" stroke="black" points="196,-129.5 196,-161.5 333,-161.5 333,-129.5 196,-129.5"/>
<text text-anchor="start" x="204" y="-148.7" font-family="Helvetica,sans-Serif" font-size="11.00">THBuilder::getRelocation</text>
<text text-anchor="middle" x="264.5" y="-136.7" font-family="Helvetica,sans-Serif" font-size="11.00">StrategyPolicy</text>
</a>
</g>
</g>
<!-- Node1&#45;&gt;Node47 -->
<g id="edge53" class="edge"><title>Node1&#45;&gt;Node47</title>
<path fill="none" stroke="midnightblue" d="M65.2634,-742.294C67.2873,-671.896 82.5621,-258.522 164,-170.5 170.262,-163.731 178.062,-158.678 186.52,-154.923"/>
<polygon fill="midnightblue" stroke="midnightblue" points="187.819,-158.173 195.915,-151.338 185.324,-151.633 187.819,-158.173"/>
</g>
<!-- Node48 -->
<g id="node48" class="node"><title>Node48</title>
<g id="a_node48"><a xlink:href="$classFitnessPolicy.xhtml#a069122b137e7a1b9d66e1d026c4e7f1b" xlink:title="This method calculates the fitness for the Solution instance provided. ">
<polygon fill="none" stroke="black" points="209,-90.5 209,-110.5 320,-110.5 320,-90.5 209,-90.5"/>
<text text-anchor="middle" x="264.5" y="-97.7" font-family="Helvetica,sans-Serif" font-size="11.00">FitnessPolicy::apply</text>
</a>
</g>
</g>
<!-- Node1&#45;&gt;Node48 -->
<g id="edge54" class="edge"><title>Node1&#45;&gt;Node48</title>
<path fill="none" stroke="midnightblue" d="M65.0551,-742.317C65.6703,-668.322 73.1459,-213.454 164,-119.5 173.304,-109.879 185.869,-104.299 198.934,-101.208"/>
<polygon fill="midnightblue" stroke="midnightblue" points="199.804,-104.605 208.977,-99.3034 198.5,-97.7279 199.804,-104.605"/>
</g>
<!-- Node49 -->
<g id="node49" class="node"><title>Node49</title>
<g id="a_node49"><a xlink:href="$classTHBuilder_1_1SearchGroup.xhtml#a0dcdc7254955afc39899a52f9b997fc3" xlink:title="Get the Search instance of the last optimization algorithm executed. ">
<polygon fill="none" stroke="black" points="173,-39.5 173,-71.5 356,-71.5 356,-39.5 173,-39.5"/>
<text text-anchor="start" x="181" y="-58.7" font-family="Helvetica,sans-Serif" font-size="11.00">THBuilder::SearchGroup</text>
<text text-anchor="middle" x="264.5" y="-46.7" font-family="Helvetica,sans-Serif" font-size="11.00">::getSearchAlgorithmLastExecuted</text>
</a>
</g>
</g>
<!-- Node1&#45;&gt;Node49 -->
<g id="edge55" class="edge"><title>Node1&#45;&gt;Node49</title>
<path fill="none" stroke="midnightblue" d="M65.0106,-742.243C65.3,-665.675 70.8372,-183.467 164,-80.5 164.654,-79.7777 165.325,-79.0749 166.012,-78.391"/>
<polygon fill="midnightblue" stroke="midnightblue" points="168.519,-80.8576 173.959,-71.7659 164.037,-75.481 168.519,-80.8576"/>
</g>
<!-- Node50 -->
<g id="node50" class="node"><title>Node50</title>
<g id="a_node50"><a xlink:href="$classTHTree.xhtml#a13af8833607e6a6968d77c2a142e7c6f" xlink:title="Get the tree topology size. ">
<polygon fill="none" stroke="black" points="198,-0.5 198,-20.5 331,-20.5 331,-0.5 198,-0.5"/>
<text text-anchor="middle" x="264.5" y="-7.7" font-family="Helvetica,sans-Serif" font-size="11.00">THTree::getCurrentSize</text>
</a>
</g>
</g>
<!-- Node1&#45;&gt;Node50 -->
<g id="edge56" class="edge"><title>Node1&#45;&gt;Node50</title>
<path fill="none" stroke="midnightblue" d="M64.8409,-742.446C63.7992,-663.108 60.8883,-138.183 164,-29.5 170.693,-22.4456 179.136,-17.5522 188.262,-14.2153"/>
<polygon fill="midnightblue" stroke="midnightblue" points="189.416,-17.5228 197.974,-11.2761 187.389,-10.8229 189.416,-17.5228"/>
</g>
<!-- Node51 -->
<g id="node51" class="node"><title>Node51</title>
<g id="a_node51"><a xlink:href="$structt__node.xhtml#ad39388169d7963221a70c4a4af864ac4" xlink:title="t_node::isLeaf">
<polygon fill="none" stroke="black" points="222.5,-762.5 222.5,-782.5 306.5,-782.5 306.5,-762.5 222.5,-762.5"/>
<text text-anchor="middle" x="264.5" y="-769.7" font-family="Helvetica,sans-Serif" font-size="11.00">t_node::isLeaf</text>
</a>
</g>
</g>
<!-- Node1&#45;&gt;Node51 -->
<g id="edge57" class="edge"><title>Node1&#45;&gt;Node51</title>
<path fill="none" stroke="midnightblue" d="M128.079,-758.856C155.218,-761.59 186.537,-764.746 212.216,-767.333"/>
<polygon fill="midnightblue" stroke="midnightblue" points="212.183,-770.847 222.484,-768.367 212.885,-763.882 212.183,-770.847"/>
</g>
<!-- Node7 -->
<g id="node7" class="node"><title>Node7</title>
<g id="a_node7"><a xlink:href="$classTHBuilder.xhtml#a097e1501549341f26e5316aca8108b5c" xlink:title="Get the SearchAlgorithmSelectionPolicy configured. ">
<polygon fill="none" stroke="black" points="401,-1308.5 401,-1340.5 568,-1340.5 568,-1308.5 401,-1308.5"/>
<text text-anchor="start" x="409" y="-1327.7" font-family="Helvetica,sans-Serif" font-size="11.00">THBuilder::getSearchAlgorithm</text>
<text text-anchor="middle" x="484.5" y="-1315.7" font-family="Helvetica,sans-Serif" font-size="11.00">SelectionPolicy</text>
</a>
</g>
</g>
<!-- Node6&#45;&gt;Node7 -->
<g id="edge6" class="edge"><title>Node6&#45;&gt;Node7</title>
<path fill="none" stroke="midnightblue" d="M333.688,-1231.57C344.768,-1235.14 355.658,-1239.97 365,-1246.5 388.338,-1262.82 378.061,-1282.63 401,-1299.5 402.861,-1300.87 404.798,-1302.16 406.794,-1303.39"/>
<polygon fill="midnightblue" stroke="midnightblue" points="405.422,-1306.63 415.88,-1308.32 408.761,-1300.47 405.422,-1306.63"/>
</g>
<!-- Node6&#45;&gt;Node8 -->
<g id="edge7" class="edge"><title>Node6&#45;&gt;Node8</title>
<path fill="none" stroke="midnightblue" d="M290.572,-1231.57C313.028,-1241.78 345.362,-1259.63 365,-1284.5 395.57,-1323.22 364.351,-1356.48 401,-1389.5 404.859,-1392.98 409.225,-1395.86 413.885,-1398.24"/>
<polygon fill="midnightblue" stroke="midnightblue" points="412.581,-1401.49 423.151,-1402.23 415.349,-1395.06 412.581,-1401.49"/>
</g>
<!-- Node9 -->
<g id="node9" class="node"><title>Node9</title>
<g id="a_node9"><a xlink:href="$classTHBuilder_1_1SearchGroup.xhtml#a3f8d98c07db48420c49bee854c00ae8b" xlink:title="THBuilder::SearchGroup\l::getPopulationSize">
<polygon fill="none" stroke="black" points="416.5,-1257.5 416.5,-1289.5 552.5,-1289.5 552.5,-1257.5 416.5,-1257.5"/>
<text text-anchor="start" x="424.5" y="-1276.7" font-family="Helvetica,sans-Serif" font-size="11.00">THBuilder::SearchGroup</text>
<text text-anchor="middle" x="484.5" y="-1264.7" font-family="Helvetica,sans-Serif" font-size="11.00">::getPopulationSize</text>
</a>
</g>
</g>
<!-- Node6&#45;&gt;Node9 -->
<g id="edge8" class="edge"><title>Node6&#45;&gt;Node9</title>
<path fill="none" stroke="midnightblue" d="M307.533,-1231.53C335.452,-1238.19 372.943,-1247.13 406.145,-1255.05"/>
<polygon fill="midnightblue" stroke="midnightblue" points="405.756,-1258.55 416.295,-1257.47 407.38,-1251.74 405.756,-1258.55"/>
</g>
<!-- Node10 -->
<g id="node10" class="node"><title>Node10</title>
<g id="a_node10"><a xlink:href="$classConvergenceControlPolicy.xhtml#ad72beb5807e87c3fa0602bd0bf4679ac" xlink:title="Virtual method that will run, monitor and control one TH iteration. ">
<polygon fill="none" stroke="black" points="401,-1218.5 401,-1238.5 568,-1238.5 568,-1218.5 401,-1218.5"/>
<text text-anchor="middle" x="484.5" y="-1225.7" font-family="Helvetica,sans-Serif" font-size="11.00">ConvergenceControlPolicy::run</text>
</a>
</g>
</g>
<!-- Node6&#45;&gt;Node10 -->
<g id="edge9" class="edge"><title>Node6&#45;&gt;Node10</title>
<path fill="none" stroke="midnightblue" d="M343.587,-1224.01C358.821,-1224.5 374.932,-1225.01 390.591,-1225.52"/>
<polygon fill="midnightblue" stroke="midnightblue" points="390.695,-1229.02 400.802,-1225.84 390.919,-1222.03 390.695,-1229.02"/>
</g>
<!-- Node6&#45;&gt;Node11 -->
<g id="edge10" class="edge"><title>Node6&#45;&gt;Node11</title>
<path fill="none" stroke="midnightblue" d="M340.593,-1231.6C349.541,-1235.22 357.975,-1240.06 365,-1246.5 401.06,-1279.55 364.615,-1317.81 401,-1350.5 402.353,-1351.72 403.768,-1352.86 405.236,-1353.93"/>
<polygon fill="midnightblue" stroke="midnightblue" points="403.793,-1357.15 414.156,-1359.36 407.431,-1351.17 403.793,-1357.15"/>
</g>
<!-- Node6&#45;&gt;Node12 -->
<g id="edge11" class="edge"><title>Node6&#45;&gt;Node12</title>
<path fill="none" stroke="midnightblue" d="M333.878,-1211.46C356.503,-1208.14 381.852,-1204.42 405.164,-1201"/>
<polygon fill="midnightblue" stroke="midnightblue" points="405.979,-1204.42 415.364,-1199.5 404.962,-1197.49 405.979,-1204.42"/>
</g>
<!-- Node6&#45;&gt;Node13 -->
<g id="edge12" class="edge"><title>Node6&#45;&gt;Node13</title>
<path fill="none" stroke="midnightblue" d="M290.823,-1211.5C317.931,-1200.9 362.275,-1183.88 401,-1170.5 407.485,-1168.26 414.283,-1165.99 421.075,-1163.77"/>
<polygon fill="midnightblue" stroke="midnightblue" points="422.545,-1166.98 430.987,-1160.58 420.395,-1160.32 422.545,-1166.98"/>
</g>
<!-- Node6&#45;&gt;Node14 -->
<g id="edge13" class="edge"><title>Node6&#45;&gt;Node14</title>
<path fill="none" stroke="midnightblue" d="M275.742,-1211.38C297.115,-1190.85 348.824,-1144.16 401,-1119.5 406.596,-1116.85 412.577,-1114.54 418.665,-1112.52"/>
<polygon fill="midnightblue" stroke="midnightblue" points="419.743,-1115.85 428.281,-1109.57 417.694,-1109.15 419.743,-1115.85"/>
</g>
<!-- Node6&#45;&gt;Node15 -->
<g id="edge14" class="edge"><title>Node6&#45;&gt;Node15</title>
<path fill="none" stroke="midnightblue" d="M272.048,-1211.45C289.574,-1185.41 340.361,-1115.35 401,-1080.5 406.618,-1077.27 412.741,-1074.56 419.028,-1072.29"/>
<polygon fill="midnightblue" stroke="midnightblue" points="420.558,-1075.47 428.994,-1069.06 418.403,-1068.81 420.558,-1075.47"/>
</g>
<!-- Node6&#45;&gt;Node16 -->
<g id="edge15" class="edge"><title>Node6&#45;&gt;Node16</title>
<path fill="none" stroke="midnightblue" d="M269.992,-1211.41C284.258,-1180.6 331.714,-1087.06 401,-1041.5 405.094,-1038.81 409.517,-1036.48 414.113,-1034.46"/>
<polygon fill="midnightblue" stroke="midnightblue" points="415.673,-1037.61 423.743,-1030.74 413.153,-1031.08 415.673,-1037.61"/>
</g>
<!-- Node20 -->
<g id="node20" class="node"><title>Node20</title>
<g id="a_node20"><a xlink:href="$structPosition.xhtml#af5e0d1ae77f5840a090325a7ba9fd8b5" xlink:title="Get a partial position based on its index in the list of values that represents the actual Position...">
<polygon fill="none" stroke="black" points="409.5,-891.5 409.5,-911.5 559.5,-911.5 559.5,-891.5 409.5,-891.5"/>
<text text-anchor="middle" x="484.5" y="-898.7" font-family="Helvetica,sans-Serif" font-size="11.00">Position::getInternalPosition</text>
</a>
</g>
</g>
<!-- Node19&#45;&gt;Node20 -->
<g id="edge19" class="edge"><title>Node19&#45;&gt;Node20</title>
<path fill="none" stroke="midnightblue" d="M324.782,-901.5C347.72,-901.5 374.397,-901.5 399.26,-901.5"/>
<polygon fill="midnightblue" stroke="midnightblue" points="399.419,-905 409.419,-901.5 399.419,-898 399.419,-905"/>
</g>
<!-- Node28 -->
<g id="node28" class="node"><title>Node28</title>
<g id="a_node28"><a xlink:href="$classRegion.xhtml#aed7a4120591db745b5b424fb94588294" xlink:title="Obtains a pointer to the map containing the dimensions that compose the entire search space...">
<polygon fill="none" stroke="black" points="402,-492.5 402,-512.5 567,-512.5 567,-492.5 402,-492.5"/>
<text text-anchor="middle" x="484.5" y="-499.7" font-family="Helvetica,sans-Serif" font-size="11.00">Region::getOriginalDimensions</text>
</a>
</g>
</g>
<!-- Node27&#45;&gt;Node28 -->
<g id="edge34" class="edge"><title>Node27&#45;&gt;Node28</title>
<path fill="none" stroke="midnightblue" d="M307.714,-561.233C325.827,-558.445 346.933,-553.892 365,-546.5 382.798,-539.219 383.387,-530.217 401,-522.5 407.167,-519.798 413.761,-517.423 420.433,-515.346"/>
<polygon fill="midnightblue" stroke="midnightblue" points="421.591,-518.654 430.222,-512.51 419.643,-511.93 421.591,-518.654"/>
</g>
<!-- Node29 -->
<g id="node29" class="node"><title>Node29</title>
<g id="a_node29"><a xlink:href="$classRegion.xhtml#a07c792e7ab2768254d71a0b688ccd935" xlink:title="Get the map of Partitions that compose the current &quot;anchor&quot; sub&#45;region. ">
<polygon fill="none" stroke="black" points="426,-453.5 426,-473.5 543,-473.5 543,-453.5 426,-453.5"/>
<text text-anchor="middle" x="484.5" y="-460.7" font-family="Helvetica,sans-Serif" font-size="11.00">Region::getPartitions</text>
</a>
</g>
</g>
<!-- Node27&#45;&gt;Node29 -->
<g id="edge35" class="edge"><title>Node27&#45;&gt;Node29</title>
<path fill="none" stroke="midnightblue" d="M307.825,-565.255C326.791,-563.282 348.542,-558.254 365,-546.5 391.244,-527.758 375.225,-502.881 401,-483.5 405.679,-479.982 410.891,-477.074 416.36,-474.672"/>
<polygon fill="midnightblue" stroke="midnightblue" points="417.659,-477.922 425.755,-471.088 415.165,-471.382 417.659,-477.922"/>
</g>
<!-- Node30 -->
<g id="node30" class="node"><title>Node30</title>
<g id="a_node30"><a xlink:href="$classTHUtil.xhtml#ad95b7150adaf4d576de406c8e7b8142c" xlink:title="THUtil::randUniformDouble">
<polygon fill="none" stroke="black" points="410.5,-414.5 410.5,-434.5 558.5,-434.5 558.5,-414.5 410.5,-414.5"/>
<text text-anchor="middle" x="484.5" y="-421.7" font-family="Helvetica,sans-Serif" font-size="11.00">THUtil::randUniformDouble</text>
</a>
</g>
</g>
<!-- Node27&#45;&gt;Node30 -->
<g id="edge36" class="edge"><title>Node27&#45;&gt;Node30</title>
<path fill="none" stroke="midnightblue" d="M307.847,-566.642C327.273,-565.035 349.397,-559.914 365,-546.5 401.455,-515.16 365.327,-476.726 401,-444.5 402.962,-442.728 405.053,-441.106 407.248,-439.622"/>
<polygon fill="midnightblue" stroke="midnightblue" points="409.196,-442.54 416.158,-434.554 405.736,-436.455 409.196,-442.54"/>
</g>
<!-- Node31 -->
<g id="node31" class="node"><title>Node31</title>
<g id="a_node31"><a xlink:href="$classTHUtil.xhtml#a1961a690dfec7f0dab0be849d31828ea" xlink:title="THUtil::randNormalDouble">
<polygon fill="none" stroke="black" points="412,-375.5 412,-395.5 557,-395.5 557,-375.5 412,-375.5"/>
<text text-anchor="middle" x="484.5" y="-382.7" font-family="Helvetica,sans-Serif" font-size="11.00">THUtil::randNormalDouble</text>
</a>
</g>
</g>
<!-- Node27&#45;&gt;Node31 -->
<g id="edge37" class="edge"><title>Node27&#45;&gt;Node31</title>
<path fill="none" stroke="midnightblue" d="M307.89,-567.283C327.562,-565.865 349.883,-560.717 365,-546.5 412.113,-502.189 354.99,-450.955 401,-405.5 402.661,-403.859 404.433,-402.344 406.294,-400.947"/>
<polygon fill="midnightblue" stroke="midnightblue" points="408.336,-403.799 414.975,-395.541 404.636,-397.857 408.336,-403.799"/>
</g>
<!-- Node32 -->
<g id="node32" class="node"><title>Node32</title>
<g id="a_node32"><a xlink:href="$structPosition.xhtml#a56d15266cecdd63cc07d6ec89f90fb4f" xlink:title="Get the lower value from the list of values that represents the Position. ">
<polygon fill="none" stroke="black" points="417.5,-726.5 417.5,-746.5 551.5,-746.5 551.5,-726.5 417.5,-726.5"/>
<text text-anchor="middle" x="484.5" y="-733.7" font-family="Helvetica,sans-Serif" font-size="11.00">Position::getLowerValue</text>
</a>
</g>
</g>
<!-- Node27&#45;&gt;Node32 -->
<g id="edge38" class="edge"><title>Node27&#45;&gt;Node32</title>
<path fill="none" stroke="midnightblue" d="M307.824,-564.295C327.481,-565.947 349.808,-571.306 365,-585.5 409.433,-627.015 357.152,-675.368 401,-717.5 403.31,-719.72 405.825,-721.699 408.493,-723.463"/>
<polygon fill="midnightblue" stroke="midnightblue" points="407.021,-726.648 417.471,-728.394 410.391,-720.512 407.021,-726.648"/>
</g>
<!-- Node33 -->
<g id="node33" class="node"><title>Node33</title>
<g id="a_node33"><a xlink:href="$structPosition.xhtml#a424b3d5791fcc593c743429e92817982" xlink:title="Get the upper value from the list of values that represents the Position. ">
<polygon fill="none" stroke="black" points="417.5,-687.5 417.5,-707.5 551.5,-707.5 551.5,-687.5 417.5,-687.5"/>
<text text-anchor="middle" x="484.5" y="-694.7" font-family="Helvetica,sans-Serif" font-size="11.00">Position::getUpperValue</text>
</a>
</g>
</g>
<!-- Node27&#45;&gt;Node33 -->
<g id="edge39" class="edge"><title>Node27&#45;&gt;Node33</title>
<path fill="none" stroke="midnightblue" d="M307.701,-565.041C327.093,-566.902 349.231,-572.221 365,-585.5 398.902,-614.05 367.501,-649.478 401,-678.5 403.239,-680.44 405.637,-682.192 408.155,-683.774"/>
<polygon fill="midnightblue" stroke="midnightblue" points="406.646,-686.935 417.121,-688.523 409.922,-680.749 406.646,-686.935"/>
</g>
<!-- Node34 -->
<g id="node34" class="node"><title>Node34</title>
<g id="a_node34"><a xlink:href="$classPartition.xhtml#a418e5b08580b3c1d33390a13eeb8eb0f" xlink:title="Get the lower bound for this partition. ">
<polygon fill="none" stroke="black" points="422,-648.5 422,-668.5 547,-668.5 547,-648.5 422,-648.5"/>
<text text-anchor="middle" x="484.5" y="-655.7" font-family="Helvetica,sans-Serif" font-size="11.00">Partition::getStartPoint</text>
</a>
</g>
</g>
<!-- Node27&#45;&gt;Node34 -->
<g id="edge40" class="edge"><title>Node27&#45;&gt;Node34</title>
<path fill="none" stroke="midnightblue" d="M307.979,-566.81C326.76,-569.126 348.316,-574.315 365,-585.5 388.959,-601.562 377.268,-623.104 401,-639.5 404.537,-641.944 408.343,-644.077 412.31,-645.939"/>
<polygon fill="midnightblue" stroke="midnightblue" points="411.227,-649.277 421.808,-649.809 413.868,-642.794 411.227,-649.277"/>
</g>
<!-- Node35 -->
<g id="node35" class="node"><title>Node35</title>
<g id="a_node35"><a xlink:href="$classPartition.xhtml#a0f3cdf44760e24735951b73dfc9dd3ab" xlink:title="Get the upper bound for this partition. ">
<polygon fill="none" stroke="black" points="423.5,-609.5 423.5,-629.5 545.5,-629.5 545.5,-609.5 423.5,-609.5"/>
<text text-anchor="middle" x="484.5" y="-616.7" font-family="Helvetica,sans-Serif" font-size="11.00">Partition::getEndPoint</text>
</a>
</g>
</g>
<!-- Node27&#45;&gt;Node35 -->
<g id="edge41" class="edge"><title>Node27&#45;&gt;Node35</title>
<path fill="none" stroke="midnightblue" d="M307.588,-572.068C325.487,-575.347 346.464,-579.836 365,-585.5 381.577,-590.566 384.496,-595.203 401,-600.5 408.38,-602.869 416.22,-605.068 424.018,-607.067"/>
<polygon fill="midnightblue" stroke="midnightblue" points="423.287,-610.491 433.835,-609.489 424.964,-603.695 423.287,-610.491"/>
</g>
<!-- Node36 -->
<g id="node36" class="node"><title>Node36</title>
<g id="a_node36"><a xlink:href="$structPosition.xhtml#a0c70a4890ea8ba9e8b9ed6b4f6030751" xlink:title="Limit upper the values of this position. ">
<polygon fill="none" stroke="black" points="409,-570.5 409,-590.5 560,-590.5 560,-570.5 409,-570.5"/>
<text text-anchor="middle" x="484.5" y="-577.7" font-family="Helvetica,sans-Serif" font-size="11.00">Position::adjustUpperBound</text>
</a>
</g>
</g>
<!-- Node27&#45;&gt;Node36 -->
<g id="edge42" class="edge"><title>Node27&#45;&gt;Node36</title>
<path fill="none" stroke="midnightblue" d="M307.533,-568.392C333.434,-570.174 367.573,-572.523 398.882,-574.678"/>
<polygon fill="midnightblue" stroke="midnightblue" points="398.717,-578.175 408.934,-575.369 399.198,-571.191 398.717,-578.175"/>
</g>
<!-- Node37 -->
<g id="node37" class="node"><title>Node37</title>
<g id="a_node37"><a xlink:href="$structPosition.xhtml#aae9a6d862e9da174648a84f876f8d78d" xlink:title="Limit lower the values of this position. ">
<polygon fill="none" stroke="black" points="409,-531.5 409,-551.5 560,-551.5 560,-531.5 409,-531.5"/>
<text text-anchor="middle" x="484.5" y="-538.7" font-family="Helvetica,sans-Serif" font-size="11.00">Position::adjustLowerBound</text>
</a>
</g>
</g>
<!-- Node27&#45;&gt;Node37 -->
<g id="edge43" class="edge"><title>Node27&#45;&gt;Node37</title>
<path fill="none" stroke="midnightblue" d="M307.533,-560.873C333.434,-558.021 367.573,-554.263 398.882,-550.816"/>
<polygon fill="midnightblue" stroke="midnightblue" points="399.377,-554.282 408.934,-549.709 398.611,-547.324 399.377,-554.282"/>
</g>
<!-- Node51&#45;&gt;Node22 -->
<g id="edge58" class="edge"><title>Node51&#45;&gt;Node22</title>
<path fill="none" stroke="midnightblue" d="M306.504,-776.074C337.846,-778.805 381.675,-782.625 417.876,-785.781"/>
<polygon fill="midnightblue" stroke="midnightblue" points="417.602,-789.27 427.868,-786.651 418.21,-782.296 417.602,-789.27"/>
</g>
</g>
</svg>
