<?xml version="1.0" encoding="UTF-8" standalone="no"?>
<!DOCTYPE svg PUBLIC "-//W3C//DTD SVG 1.1//EN"
 "http://www.w3.org/Graphics/SVG/1.1/DTD/svg11.dtd">
<!-- Generated by graphviz version 2.38.0 (20140413.2041)
 -->
<!-- Title: Solution::reset Pages: 1 -->
<svg width="295pt" height="380pt"
 viewBox="0.00 0.00 295.00 380.00" xmlns="http://www.w3.org/2000/svg" xmlns:xlink="http://www.w3.org/1999/xlink">
<g id="graph0" class="graph" transform="scale(1 1) rotate(0) translate(4 376)">
<title>Solution::reset</title>
<!-- Node1 -->
<g id="node1" class="node"><title>Node1</title>
<polygon fill="#bfbfbf" stroke="black" points="0,-175.5 0,-195.5 86,-195.5 86,-175.5 0,-175.5"/>
<text text-anchor="middle" x="43" y="-182.7" font-family="Helvetica,sans-Serif" font-size="11.00">Solution::reset</text>
</g>
<!-- Node2 -->
<g id="node2" class="node"><title>Node2</title>
<g id="a_node2"><a xlink:href="$classRegion.xhtml#aed7a4120591db745b5b424fb94588294" xlink:title="Obtains a pointer to the map containing the dimensions that compose the entire search space...">
<polygon fill="none" stroke="black" points="122,-351.5 122,-371.5 287,-371.5 287,-351.5 122,-351.5"/>
<text text-anchor="middle" x="204.5" y="-358.7" font-family="Helvetica,sans-Serif" font-size="11.00">Region::getOriginalDimensions</text>
</a>
</g>
</g>
<!-- Node1&#45;&gt;Node2 -->
<g id="edge1" class="edge"><title>Node1&#45;&gt;Node2</title>
<path fill="none" stroke="midnightblue" d="M45.9622,-195.846C51.8908,-224.125 72.3548,-303.219 122,-342.5 123.851,-343.965 125.796,-345.32 127.815,-346.575"/>
<polygon fill="midnightblue" stroke="midnightblue" points="126.601,-349.891 137.081,-351.448 129.86,-343.695 126.601,-349.891"/>
</g>
<!-- Node3 -->
<g id="node3" class="node"><title>Node3</title>
<g id="a_node3"><a xlink:href="$classRegion.xhtml#a07c792e7ab2768254d71a0b688ccd935" xlink:title="Get the map of Partitions that compose the current &quot;anchor&quot; sub&#45;region. ">
<polygon fill="none" stroke="black" points="146,-312.5 146,-332.5 263,-332.5 263,-312.5 146,-312.5"/>
<text text-anchor="middle" x="204.5" y="-319.7" font-family="Helvetica,sans-Serif" font-size="11.00">Region::getPartitions</text>
</a>
</g>
</g>
<!-- Node1&#45;&gt;Node3 -->
<g id="edge2" class="edge"><title>Node1&#45;&gt;Node3</title>
<path fill="none" stroke="midnightblue" d="M47.6433,-195.596C56.5053,-218.643 81.4822,-275.309 122,-303.5 126.472,-306.612 131.383,-309.219 136.508,-311.404"/>
<polygon fill="midnightblue" stroke="midnightblue" points="135.323,-314.697 145.916,-314.897 137.759,-308.135 135.323,-314.697"/>
</g>
<!-- Node4 -->
<g id="node4" class="node"><title>Node4</title>
<g id="a_node4"><a xlink:href="$classTHUtil.xhtml#ad95b7150adaf4d576de406c8e7b8142c" xlink:title="THUtil::randUniformDouble">
<polygon fill="none" stroke="black" points="130.5,-273.5 130.5,-293.5 278.5,-293.5 278.5,-273.5 130.5,-273.5"/>
<text text-anchor="middle" x="204.5" y="-280.7" font-family="Helvetica,sans-Serif" font-size="11.00">THUtil::randUniformDouble</text>
</a>
</g>
</g>
<!-- Node1&#45;&gt;Node4 -->
<g id="edge3" class="edge"><title>Node1&#45;&gt;Node4</title>
<path fill="none" stroke="midnightblue" d="M50.8942,-195.514C63.1377,-212.491 90.3832,-246.798 122,-264.5 125.637,-266.536 129.482,-268.355 133.443,-269.978"/>
<polygon fill="midnightblue" stroke="midnightblue" points="132.259,-273.272 142.853,-273.425 134.667,-266.699 132.259,-273.272"/>
</g>
<!-- Node5 -->
<g id="node5" class="node"><title>Node5</title>
<g id="a_node5"><a xlink:href="$classTHUtil.xhtml#a1961a690dfec7f0dab0be849d31828ea" xlink:title="THUtil::randNormalDouble">
<polygon fill="none" stroke="black" points="132,-234.5 132,-254.5 277,-254.5 277,-234.5 132,-234.5"/>
<text text-anchor="middle" x="204.5" y="-241.7" font-family="Helvetica,sans-Serif" font-size="11.00">THUtil::randNormalDouble</text>
</a>
</g>
</g>
<!-- Node1&#45;&gt;Node5 -->
<g id="edge4" class="edge"><title>Node1&#45;&gt;Node5</title>
<path fill="none" stroke="midnightblue" d="M60.8011,-195.648C76.2392,-204.596 99.9961,-217.432 122,-225.5 128.324,-227.819 135.03,-229.921 141.772,-231.808"/>
<polygon fill="midnightblue" stroke="midnightblue" points="141.074,-235.244 151.637,-234.421 142.866,-228.477 141.074,-235.244"/>
</g>
<!-- Node6 -->
<g id="node6" class="node"><title>Node6</title>
<g id="a_node6"><a xlink:href="$structPosition.xhtml#a56d15266cecdd63cc07d6ec89f90fb4f" xlink:title="Get the lower value from the list of values that represents the Position. ">
<polygon fill="none" stroke="black" points="137.5,-195.5 137.5,-215.5 271.5,-215.5 271.5,-195.5 137.5,-195.5"/>
<text text-anchor="middle" x="204.5" y="-202.7" font-family="Helvetica,sans-Serif" font-size="11.00">Position::getLowerValue</text>
</a>
</g>
</g>
<!-- Node1&#45;&gt;Node6 -->
<g id="edge5" class="edge"><title>Node1&#45;&gt;Node6</title>
<path fill="none" stroke="midnightblue" d="M86.3243,-190.807C98.8751,-192.381 113.025,-194.155 127.04,-195.912"/>
<polygon fill="midnightblue" stroke="midnightblue" points="126.838,-199.415 137.196,-197.186 127.709,-192.469 126.838,-199.415"/>
</g>
<!-- Node7 -->
<g id="node7" class="node"><title>Node7</title>
<g id="a_node7"><a xlink:href="$structPosition.xhtml#a424b3d5791fcc593c743429e92817982" xlink:title="Get the upper value from the list of values that represents the Position. ">
<polygon fill="none" stroke="black" points="137.5,-156.5 137.5,-176.5 271.5,-176.5 271.5,-156.5 137.5,-156.5"/>
<text text-anchor="middle" x="204.5" y="-163.7" font-family="Helvetica,sans-Serif" font-size="11.00">Position::getUpperValue</text>
</a>
</g>
</g>
<!-- Node1&#45;&gt;Node7 -->
<g id="edge6" class="edge"><title>Node1&#45;&gt;Node7</title>
<path fill="none" stroke="midnightblue" d="M86.3243,-180.458C98.8751,-178.963 113.025,-177.278 127.04,-175.608"/>
<polygon fill="midnightblue" stroke="midnightblue" points="127.68,-179.057 137.196,-174.398 126.852,-172.106 127.68,-179.057"/>
</g>
<!-- Node8 -->
<g id="node8" class="node"><title>Node8</title>
<g id="a_node8"><a xlink:href="$classPartition.xhtml#a418e5b08580b3c1d33390a13eeb8eb0f" xlink:title="Get the lower bound for this partition. ">
<polygon fill="none" stroke="black" points="142,-117.5 142,-137.5 267,-137.5 267,-117.5 142,-117.5"/>
<text text-anchor="middle" x="204.5" y="-124.7" font-family="Helvetica,sans-Serif" font-size="11.00">Partition::getStartPoint</text>
</a>
</g>
</g>
<!-- Node1&#45;&gt;Node8 -->
<g id="edge7" class="edge"><title>Node1&#45;&gt;Node8</title>
<path fill="none" stroke="midnightblue" d="M61.8063,-175.47C77.3162,-167.066 100.61,-155.235 122,-147.5 129.418,-144.818 137.343,-142.375 145.23,-140.191"/>
<polygon fill="midnightblue" stroke="midnightblue" points="146.385,-143.506 155.158,-137.565 144.595,-136.739 146.385,-143.506"/>
</g>
<!-- Node9 -->
<g id="node9" class="node"><title>Node9</title>
<g id="a_node9"><a xlink:href="$classPartition.xhtml#a0f3cdf44760e24735951b73dfc9dd3ab" xlink:title="Get the upper bound for this partition. ">
<polygon fill="none" stroke="black" points="143.5,-78.5 143.5,-98.5 265.5,-98.5 265.5,-78.5 143.5,-78.5"/>
<text text-anchor="middle" x="204.5" y="-85.7" font-family="Helvetica,sans-Serif" font-size="11.00">Partition::getEndPoint</text>
</a>
</g>
</g>
<!-- Node1&#45;&gt;Node9 -->
<g id="edge8" class="edge"><title>Node1&#45;&gt;Node9</title>
<path fill="none" stroke="midnightblue" d="M51.3771,-175.251C63.93,-158.593 91.1075,-125.772 122,-108.5 126.417,-106.03 131.136,-103.863 135.993,-101.961"/>
<polygon fill="midnightblue" stroke="midnightblue" points="137.196,-105.248 145.462,-98.6206 134.867,-98.6467 137.196,-105.248"/>
</g>
<!-- Node10 -->
<g id="node10" class="node"><title>Node10</title>
<g id="a_node10"><a xlink:href="$structPosition.xhtml#a0c70a4890ea8ba9e8b9ed6b4f6030751" xlink:title="Limit upper the values of this position. ">
<polygon fill="none" stroke="black" points="129,-39.5 129,-59.5 280,-59.5 280,-39.5 129,-39.5"/>
<text text-anchor="middle" x="204.5" y="-46.7" font-family="Helvetica,sans-Serif" font-size="11.00">Position::adjustUpperBound</text>
</a>
</g>
</g>
<!-- Node1&#45;&gt;Node10 -->
<g id="edge9" class="edge"><title>Node1&#45;&gt;Node10</title>
<path fill="none" stroke="midnightblue" d="M47.8522,-175.266C56.9843,-152.461 82.2096,-97.2945 122,-69.5 125.109,-67.3282 128.429,-65.3913 131.884,-63.664"/>
<polygon fill="midnightblue" stroke="midnightblue" points="133.524,-66.7669 141.294,-59.5637 130.728,-60.3496 133.524,-66.7669"/>
</g>
<!-- Node11 -->
<g id="node11" class="node"><title>Node11</title>
<g id="a_node11"><a xlink:href="$structPosition.xhtml#aae9a6d862e9da174648a84f876f8d78d" xlink:title="Limit lower the values of this position. ">
<polygon fill="none" stroke="black" points="129,-0.5 129,-20.5 280,-20.5 280,-0.5 129,-0.5"/>
<text text-anchor="middle" x="204.5" y="-7.7" font-family="Helvetica,sans-Serif" font-size="11.00">Position::adjustLowerBound</text>
</a>
</g>
</g>
<!-- Node1&#45;&gt;Node11 -->
<g id="edge10" class="edge"><title>Node1&#45;&gt;Node11</title>
<path fill="none" stroke="midnightblue" d="M46.029,-175.313C52.1281,-147.464 72.9875,-69.5388 122,-30.5 124.484,-28.5215 127.136,-26.7349 129.909,-25.1219"/>
<polygon fill="midnightblue" stroke="midnightblue" points="131.727,-28.1268 139.121,-20.5388 128.609,-21.8596 131.727,-28.1268"/>
</g>
</g>
</svg>
