<?xml version="1.0" encoding="UTF-8" standalone="no"?>
<!DOCTYPE svg PUBLIC "-//W3C//DTD SVG 1.1//EN"
 "http://www.w3.org/Graphics/SVG/1.1/DTD/svg11.dtd">
<!-- Generated by graphviz version 2.38.0 (20140413.2041)
 -->
<!-- Title: Search::startup Pages: 1 -->
<svg width="592pt" height="107pt"
 viewBox="0.00 0.00 592.00 107.00" xmlns="http://www.w3.org/2000/svg" xmlns:xlink="http://www.w3.org/1999/xlink">
<g id="graph0" class="graph" transform="scale(1 1) rotate(0) translate(4 103)">
<title>Search::startup</title>
<!-- Node1 -->
<g id="node1" class="node"><title>Node1</title>
<polygon fill="#bfbfbf" stroke="black" points="0,-39.5 0,-59.5 90,-59.5 90,-39.5 0,-39.5"/>
<text text-anchor="middle" x="45" y="-46.7" font-family="Helvetica,sans-Serif" font-size="11.00">Search::startup</text>
</g>
<!-- Node2 -->
<g id="node2" class="node"><title>Node2</title>
<g id="a_node2"><a xlink:href="$classCSMOn.xhtml#a430398bc3e096631f8cd180ee1877616" xlink:title="This method runs, monitors and limits the convergence of the optimization method during the current T...">
<polygon fill="none" stroke="black" points="156,-78.5 156,-98.5 233,-98.5 233,-78.5 156,-78.5"/>
<text text-anchor="middle" x="194.5" y="-85.7" font-family="Helvetica,sans-Serif" font-size="11.00">CSMOn::run</text>
</a>
</g>
</g>
<!-- Node1&#45;&gt;Node2 -->
<g id="edge1" class="edge"><title>Node1&#45;&gt;Node2</title>
<path fill="none" stroke="midnightblue" d="M93.8908,-62.1627C113.999,-67.4794 137.043,-73.5725 155.899,-78.5581"/>
<polygon fill="midnightblue" stroke="midnightblue" points="94.5474,-58.716 83.9849,-59.5435 92.758,-65.4835 94.5474,-58.716"/>
</g>
<!-- Node3 -->
<g id="node3" class="node"><title>Node3</title>
<g id="a_node3"><a xlink:href="$classSearch.xhtml#af9f46406f1f1f7f89ab294c155738ca6" xlink:title="Set the full search space. ">
<polygon fill="none" stroke="black" points="126,-39.5 126,-59.5 263,-59.5 263,-39.5 126,-39.5"/>
<text text-anchor="middle" x="194.5" y="-46.7" font-family="Helvetica,sans-Serif" font-size="11.00">Search::setSearchSpace</text>
</a>
</g>
</g>
<!-- Node1&#45;&gt;Node3 -->
<g id="edge2" class="edge"><title>Node1&#45;&gt;Node3</title>
<path fill="none" stroke="midnightblue" d="M100.484,-49.5C108.733,-49.5 117.327,-49.5 125.814,-49.5"/>
<polygon fill="midnightblue" stroke="midnightblue" points="100.255,-46.0001 90.2549,-49.5 100.255,-53.0001 100.255,-46.0001"/>
</g>
<!-- Node6 -->
<g id="node6" class="node"><title>Node6</title>
<g id="a_node6"><a xlink:href="$classTHBuilder_1_1THImpl.xhtml#a943301db5154fd7b672119b5c9917303" xlink:title="Starts the Treasure Hunt mechanisms. ">
<polygon fill="none" stroke="black" points="130.5,-0.5 130.5,-20.5 258.5,-20.5 258.5,-0.5 130.5,-0.5"/>
<text text-anchor="middle" x="194.5" y="-7.7" font-family="Helvetica,sans-Serif" font-size="11.00">THBuilder::THImpl::run</text>
</a>
</g>
</g>
<!-- Node1&#45;&gt;Node6 -->
<g id="edge6" class="edge"><title>Node1&#45;&gt;Node6</title>
<path fill="none" stroke="midnightblue" d="M93.8515,-36.8477C113.878,-31.5526 136.823,-25.4857 155.644,-20.5094"/>
<polygon fill="midnightblue" stroke="midnightblue" points="92.758,-33.5165 83.9849,-39.4565 94.5474,-40.284 92.758,-33.5165"/>
</g>
<!-- Node4 -->
<g id="node4" class="node"><title>Node4</title>
<g id="a_node4"><a xlink:href="$classTHBuilder_1_1SearchGroup.xhtml#a794cf5448380674b51022b5d65a240e2" xlink:title="Constructor to create the internal Search Group. ">
<polygon fill="none" stroke="black" points="299,-56.5 299,-88.5 435,-88.5 435,-56.5 299,-56.5"/>
<text text-anchor="start" x="307" y="-75.7" font-family="Helvetica,sans-Serif" font-size="11.00">THBuilder::SearchGroup</text>
<text text-anchor="middle" x="367" y="-63.7" font-family="Helvetica,sans-Serif" font-size="11.00">::SearchGroup</text>
</a>
</g>
</g>
<!-- Node3&#45;&gt;Node4 -->
<g id="edge3" class="edge"><title>Node3&#45;&gt;Node4</title>
<path fill="none" stroke="midnightblue" d="M273.336,-59.9999C281.878,-61.1521 290.519,-62.3178 298.914,-63.4503"/>
<polygon fill="midnightblue" stroke="midnightblue" points="273.754,-56.5247 263.376,-58.6563 272.818,-63.4618 273.754,-56.5247"/>
</g>
<!-- Node5 -->
<g id="node5" class="node"><title>Node5</title>
<g id="a_node5"><a xlink:href="$classTHBuilder_1_1THImpl.xhtml#a0d6e2fd43f50755ff2738e924f66690d" xlink:title="THBuilder::THImpl::\lTHImpl">
<polygon fill="none" stroke="black" points="471,-33.5 471,-65.5 584,-65.5 584,-33.5 471,-33.5"/>
<text text-anchor="start" x="479" y="-52.7" font-family="Helvetica,sans-Serif" font-size="11.00">THBuilder::THImpl::</text>
<text text-anchor="middle" x="527.5" y="-40.7" font-family="Helvetica,sans-Serif" font-size="11.00">THImpl</text>
</a>
</g>
</g>
<!-- Node3&#45;&gt;Node5 -->
<g id="edge5" class="edge"><title>Node3&#45;&gt;Node5</title>
<path fill="none" stroke="midnightblue" d="M273.285,-47.8349C281.961,-47.6974 290.669,-47.5805 299,-47.5 359.442,-46.9161 374.559,-46.8395 435,-47.5 446.598,-47.6267 459.022,-47.8438 470.858,-48.0894"/>
<polygon fill="midnightblue" stroke="midnightblue" points="273.081,-44.3378 263.141,-48.0049 273.199,-51.3368 273.081,-44.3378"/>
</g>
<!-- Node4&#45;&gt;Node5 -->
<g id="edge4" class="edge"><title>Node4&#45;&gt;Node5</title>
<path fill="none" stroke="midnightblue" d="M445.247,-61.2906C453.824,-60.0461 462.431,-58.7971 470.668,-57.6019"/>
<polygon fill="midnightblue" stroke="midnightblue" points="444.612,-57.8461 435.218,-62.7459 445.617,-64.7735 444.612,-57.8461"/>
</g>
</g>
</svg>
