<?xml version="1.0" encoding="UTF-8" standalone="no"?>
<!DOCTYPE svg PUBLIC "-//W3C//DTD SVG 1.1//EN"
 "http://www.w3.org/Graphics/SVG/1.1/DTD/svg11.dtd">
<!-- Generated by graphviz version 2.38.0 (20140413.2041)
 -->
<!-- Title: TH::~TH Pages: 1 -->
<svg width="216pt" height="185pt"
 viewBox="0.00 0.00 216.00 185.00" xmlns="http://www.w3.org/2000/svg" xmlns:xlink="http://www.w3.org/1999/xlink">
<g id="graph0" class="graph" transform="scale(1 1) rotate(0) translate(4 181)">
<title>TH::~TH</title>
<!-- Node1 -->
<g id="node1" class="node"><title>Node1</title>
<polygon fill="#bfbfbf" stroke="black" points="0,-78.5 0,-98.5 59,-98.5 59,-78.5 0,-78.5"/>
<text text-anchor="middle" x="29.5" y="-85.7" font-family="Helvetica,sans-Serif" font-size="11.00">TH::~TH</text>
</g>
<!-- Node2 -->
<g id="node2" class="node"><title>Node2</title>
<g id="a_node2"><a xlink:href="$classTH.xhtml#aa7b9b5ac83b57193d581f1bf1dfc7265" xlink:title="Starts the Treasure Hunt mechanisms. ">
<polygon fill="none" stroke="black" points="125,-156.5 125,-176.5 178,-176.5 178,-156.5 125,-156.5"/>
<text text-anchor="middle" x="151.5" y="-163.7" font-family="Helvetica,sans-Serif" font-size="11.00">TH::run</text>
</a>
</g>
</g>
<!-- Node1&#45;&gt;Node2 -->
<g id="edge1" class="edge"><title>Node1&#45;&gt;Node2</title>
<path fill="none" stroke="midnightblue" d="M39.123,-98.6358C50.6529,-111.613 72.2883,-134.029 95,-147.5 101.18,-151.165 108.168,-154.253 115.05,-156.804"/>
<polygon fill="midnightblue" stroke="midnightblue" points="114.356,-160.265 124.951,-160.161 116.604,-153.635 114.356,-160.265"/>
</g>
<!-- Node3 -->
<g id="node3" class="node"><title>Node3</title>
<g id="a_node3"><a xlink:href="$classTH.xhtml#a745d83b7c3f5abaac7daa5b04d4bfabe" xlink:title="Get the best Solution obtained after the TH has finished. ">
<polygon fill="none" stroke="black" points="95,-117.5 95,-137.5 208,-137.5 208,-117.5 95,-117.5"/>
<text text-anchor="middle" x="151.5" y="-124.7" font-family="Helvetica,sans-Serif" font-size="11.00">TH::getBestSolution</text>
</a>
</g>
</g>
<!-- Node1&#45;&gt;Node3 -->
<g id="edge2" class="edge"><title>Node1&#45;&gt;Node3</title>
<path fill="none" stroke="midnightblue" d="M59.243,-97.8415C74.2871,-102.731 92.9686,-108.802 109.503,-114.176"/>
<polygon fill="midnightblue" stroke="midnightblue" points="108.877,-117.653 119.469,-117.415 111.04,-110.995 108.877,-117.653"/>
</g>
<!-- Node4 -->
<g id="node4" class="node"><title>Node4</title>
<g id="a_node4"><a xlink:href="$classTH.xhtml#ab7a4c280d39eb1e5cf3bf169dbe83b64" xlink:title="Get the best&#45;list obtained after the TH has finished. ">
<polygon fill="none" stroke="black" points="106,-78.5 106,-98.5 197,-98.5 197,-78.5 106,-78.5"/>
<text text-anchor="middle" x="151.5" y="-85.7" font-family="Helvetica,sans-Serif" font-size="11.00">TH::getBestList</text>
</a>
</g>
</g>
<!-- Node1&#45;&gt;Node4 -->
<g id="edge3" class="edge"><title>Node1&#45;&gt;Node4</title>
<path fill="none" stroke="midnightblue" d="M59.243,-88.5C70.077,-88.5 82.7974,-88.5 95.2439,-88.5"/>
<polygon fill="midnightblue" stroke="midnightblue" points="95.5871,-92.0001 105.587,-88.5 95.5871,-85.0001 95.5871,-92.0001"/>
</g>
<!-- Node5 -->
<g id="node5" class="node"><title>Node5</title>
<g id="a_node5"><a xlink:href="$classTH.xhtml#a1ae2252ee4a5afad845aac1b49ff1e31" xlink:title="Get the number of evaluations performed after the TH has finished. ">
<polygon fill="none" stroke="black" points="108,-39.5 108,-59.5 195,-59.5 195,-39.5 108,-39.5"/>
<text text-anchor="middle" x="151.5" y="-46.7" font-family="Helvetica,sans-Serif" font-size="11.00">TH::getNEvals</text>
</a>
</g>
</g>
<!-- Node1&#45;&gt;Node5 -->
<g id="edge4" class="edge"><title>Node1&#45;&gt;Node5</title>
<path fill="none" stroke="midnightblue" d="M59.243,-79.1585C74.2871,-74.2692 92.9686,-68.1977 109.503,-62.824"/>
<polygon fill="midnightblue" stroke="midnightblue" points="111.04,-66.0046 119.469,-59.5851 108.877,-59.3474 111.04,-66.0046"/>
</g>
<!-- Node6 -->
<g id="node6" class="node"><title>Node6</title>
<g id="a_node6"><a xlink:href="$classTH.xhtml#a7746a718f28ab3128bb03490cdcbb152" xlink:title="Get this TH instance&#39;s unique identifier. ">
<polygon fill="none" stroke="black" points="119.5,-0.5 119.5,-20.5 183.5,-20.5 183.5,-0.5 119.5,-0.5"/>
<text text-anchor="middle" x="151.5" y="-7.7" font-family="Helvetica,sans-Serif" font-size="11.00">TH::getID</text>
</a>
</g>
</g>
<!-- Node1&#45;&gt;Node6 -->
<g id="edge5" class="edge"><title>Node1&#45;&gt;Node6</title>
<path fill="none" stroke="midnightblue" d="M39.5964,-78.1594C51.2964,-65.4089 72.7718,-43.798 95,-30.5 99.6693,-27.7066 104.791,-25.2113 109.975,-23.0107"/>
<polygon fill="midnightblue" stroke="midnightblue" points="111.254,-26.2688 119.293,-19.367 108.705,-19.7496 111.254,-26.2688"/>
</g>
</g>
</svg>
