<?xml version="1.0" encoding="UTF-8" standalone="no"?>
<!DOCTYPE svg PUBLIC "-//W3C//DTD SVG 1.1//EN"
 "http://www.w3.org/Graphics/SVG/1.1/DTD/svg11.dtd">
<!-- Generated by graphviz version 2.38.0 (20140413.2041)
 -->
<!-- Title: Search::setSearchSpace Pages: 1 -->
<svg width="466pt" height="64pt"
 viewBox="0.00 0.00 466.00 64.00" xmlns="http://www.w3.org/2000/svg" xmlns:xlink="http://www.w3.org/1999/xlink">
<g id="graph0" class="graph" transform="scale(1 1) rotate(0) translate(4 60)">
<title>Search::setSearchSpace</title>
<!-- Node1 -->
<g id="node1" class="node"><title>Node1</title>
<polygon fill="#bfbfbf" stroke="black" points="0,-6.5 0,-26.5 137,-26.5 137,-6.5 0,-6.5"/>
<text text-anchor="middle" x="68.5" y="-13.7" font-family="Helvetica,sans-Serif" font-size="11.00">Search::setSearchSpace</text>
</g>
<!-- Node2 -->
<g id="node2" class="node"><title>Node2</title>
<g id="a_node2"><a xlink:href="$classTHBuilder_1_1SearchGroup.xhtml#a794cf5448380674b51022b5d65a240e2" xlink:title="Constructor to create the internal Search Group. ">
<polygon fill="none" stroke="black" points="173,-23.5 173,-55.5 309,-55.5 309,-23.5 173,-23.5"/>
<text text-anchor="start" x="181" y="-42.7" font-family="Helvetica,sans-Serif" font-size="11.00">THBuilder::SearchGroup</text>
<text text-anchor="middle" x="241" y="-30.7" font-family="Helvetica,sans-Serif" font-size="11.00">::SearchGroup</text>
</a>
</g>
</g>
<!-- Node1&#45;&gt;Node2 -->
<g id="edge1" class="edge"><title>Node1&#45;&gt;Node2</title>
<path fill="none" stroke="midnightblue" d="M147.336,-26.9999C155.878,-28.1521 164.519,-29.3178 172.914,-30.4503"/>
<polygon fill="midnightblue" stroke="midnightblue" points="147.754,-23.5247 137.376,-25.6563 146.818,-30.4618 147.754,-23.5247"/>
</g>
<!-- Node3 -->
<g id="node3" class="node"><title>Node3</title>
<g id="a_node3"><a xlink:href="$classTHBuilder_1_1THImpl.xhtml#a0d6e2fd43f50755ff2738e924f66690d" xlink:title="THBuilder::THImpl::\lTHImpl">
<polygon fill="none" stroke="black" points="345,-0.5 345,-32.5 458,-32.5 458,-0.5 345,-0.5"/>
<text text-anchor="start" x="353" y="-19.7" font-family="Helvetica,sans-Serif" font-size="11.00">THBuilder::THImpl::</text>
<text text-anchor="middle" x="401.5" y="-7.7" font-family="Helvetica,sans-Serif" font-size="11.00">THImpl</text>
</a>
</g>
</g>
<!-- Node1&#45;&gt;Node3 -->
<g id="edge3" class="edge"><title>Node1&#45;&gt;Node3</title>
<path fill="none" stroke="midnightblue" d="M147.285,-14.8349C155.961,-14.6974 164.669,-14.5805 173,-14.5 233.442,-13.9161 248.559,-13.8395 309,-14.5 320.598,-14.6267 333.022,-14.8438 344.858,-15.0894"/>
<polygon fill="midnightblue" stroke="midnightblue" points="147.081,-11.3378 137.141,-15.0049 147.199,-18.3368 147.081,-11.3378"/>
</g>
<!-- Node2&#45;&gt;Node3 -->
<g id="edge2" class="edge"><title>Node2&#45;&gt;Node3</title>
<path fill="none" stroke="midnightblue" d="M319.247,-28.2906C327.824,-27.0461 336.431,-25.7971 344.668,-24.6019"/>
<polygon fill="midnightblue" stroke="midnightblue" points="318.612,-24.8461 309.218,-29.7459 319.617,-31.7735 318.612,-24.8461"/>
</g>
</g>
</svg>
