<?xml version="1.0" encoding="UTF-8" standalone="no"?>
<!DOCTYPE svg PUBLIC "-//W3C//DTD SVG 1.1//EN"
 "http://www.w3.org/Graphics/SVG/1.1/DTD/svg11.dtd">
<!-- Generated by graphviz version 2.38.0 (20140413.2041)
 -->
<!-- Title: HillClimbing::next Pages: 1 -->
<svg width="304pt" height="263pt"
 viewBox="0.00 0.00 304.00 263.00" xmlns="http://www.w3.org/2000/svg" xmlns:xlink="http://www.w3.org/1999/xlink">
<g id="graph0" class="graph" transform="scale(1 1) rotate(0) translate(4 259)">
<title>HillClimbing::next</title>
<!-- Node1 -->
<g id="node1" class="node"><title>Node1</title>
<polygon fill="#bfbfbf" stroke="black" points="0,-117.5 0,-137.5 100,-137.5 100,-117.5 0,-117.5"/>
<text text-anchor="middle" x="50" y="-124.7" font-family="Helvetica,sans-Serif" font-size="11.00">HillClimbing::next</text>
</g>
<!-- Node2 -->
<g id="node2" class="node"><title>Node2</title>
<g id="a_node2"><a xlink:href="$classSearch.xhtml#ad2d5be608164b67b1fb055b0162f4e88" xlink:title="Search::getSearchSpace">
<polygon fill="none" stroke="black" points="147.5,-234.5 147.5,-254.5 284.5,-254.5 284.5,-234.5 147.5,-234.5"/>
<text text-anchor="middle" x="216" y="-241.7" font-family="Helvetica,sans-Serif" font-size="11.00">Search::getSearchSpace</text>
</a>
</g>
</g>
<!-- Node1&#45;&gt;Node2 -->
<g id="edge1" class="edge"><title>Node1&#45;&gt;Node2</title>
<path fill="none" stroke="midnightblue" d="M56.786,-137.655C68.7969,-157.768 98.4713,-202.688 136,-225.5 139.046,-227.351 142.259,-229.022 145.579,-230.53"/>
<polygon fill="midnightblue" stroke="midnightblue" points="144.576,-233.899 155.16,-234.364 147.176,-227.4 144.576,-233.899"/>
</g>
<!-- Node3 -->
<g id="node3" class="node"><title>Node3</title>
<g id="a_node3"><a xlink:href="$classTHUtil.xhtml#ad95b7150adaf4d576de406c8e7b8142c" xlink:title="THUtil::randUniformDouble">
<polygon fill="none" stroke="black" points="142,-195.5 142,-215.5 290,-215.5 290,-195.5 142,-195.5"/>
<text text-anchor="middle" x="216" y="-202.7" font-family="Helvetica,sans-Serif" font-size="11.00">THUtil::randUniformDouble</text>
</a>
</g>
</g>
<!-- Node1&#45;&gt;Node3 -->
<g id="edge2" class="edge"><title>Node1&#45;&gt;Node3</title>
<path fill="none" stroke="midnightblue" d="M62.5283,-137.62C78.1266,-150.792 107.314,-173.642 136,-186.5 140.988,-188.736 146.276,-190.73 151.659,-192.505"/>
<polygon fill="midnightblue" stroke="midnightblue" points="150.821,-195.908 161.406,-195.467 152.856,-189.211 150.821,-195.908"/>
</g>
<!-- Node4 -->
<g id="node4" class="node"><title>Node4</title>
<g id="a_node4"><a xlink:href="$classRegion.xhtml#a300afb04c957e821d362c358253130b8" xlink:title="Get the full search space&#39;s Dimension based on its sequential index. ">
<polygon fill="none" stroke="black" points="136,-156.5 136,-176.5 296,-176.5 296,-156.5 136,-156.5"/>
<text text-anchor="middle" x="216" y="-163.7" font-family="Helvetica,sans-Serif" font-size="11.00">Region::getOriginalDimension</text>
</a>
</g>
</g>
<!-- Node1&#45;&gt;Node4 -->
<g id="edge3" class="edge"><title>Node1&#45;&gt;Node4</title>
<path fill="none" stroke="midnightblue" d="M93.2341,-137.543C114.564,-142.616 140.629,-148.814 163.164,-154.173"/>
<polygon fill="midnightblue" stroke="midnightblue" points="162.371,-157.582 172.909,-156.491 163.99,-150.772 162.371,-157.582"/>
</g>
<!-- Node5 -->
<g id="node5" class="node"><title>Node5</title>
<g id="a_node5"><a xlink:href="$classPartition.xhtml#a418e5b08580b3c1d33390a13eeb8eb0f" xlink:title="Get the lower bound for this partition. ">
<polygon fill="none" stroke="black" points="153.5,-117.5 153.5,-137.5 278.5,-137.5 278.5,-117.5 153.5,-117.5"/>
<text text-anchor="middle" x="216" y="-124.7" font-family="Helvetica,sans-Serif" font-size="11.00">Partition::getStartPoint</text>
</a>
</g>
</g>
<!-- Node1&#45;&gt;Node5 -->
<g id="edge4" class="edge"><title>Node1&#45;&gt;Node5</title>
<path fill="none" stroke="midnightblue" d="M100.205,-127.5C113.644,-127.5 128.489,-127.5 142.918,-127.5"/>
<polygon fill="midnightblue" stroke="midnightblue" points="143.325,-131 153.325,-127.5 143.325,-124 143.325,-131"/>
</g>
<!-- Node6 -->
<g id="node6" class="node"><title>Node6</title>
<g id="a_node6"><a xlink:href="$classPartition.xhtml#a0f3cdf44760e24735951b73dfc9dd3ab" xlink:title="Get the upper bound for this partition. ">
<polygon fill="none" stroke="black" points="155,-78.5 155,-98.5 277,-98.5 277,-78.5 155,-78.5"/>
<text text-anchor="middle" x="216" y="-85.7" font-family="Helvetica,sans-Serif" font-size="11.00">Partition::getEndPoint</text>
</a>
</g>
</g>
<!-- Node1&#45;&gt;Node6 -->
<g id="edge5" class="edge"><title>Node1&#45;&gt;Node6</title>
<path fill="none" stroke="midnightblue" d="M93.2341,-117.457C114.564,-112.384 140.629,-106.186 163.164,-100.827"/>
<polygon fill="midnightblue" stroke="midnightblue" points="163.99,-104.228 172.909,-98.5094 162.371,-97.418 163.99,-104.228"/>
</g>
<!-- Node7 -->
<g id="node7" class="node"><title>Node7</title>
<g id="a_node7"><a xlink:href="$classFitnessPolicy.xhtml#a069122b137e7a1b9d66e1d026c4e7f1b" xlink:title="This method calculates the fitness for the Solution instance provided. ">
<polygon fill="none" stroke="black" points="160.5,-39.5 160.5,-59.5 271.5,-59.5 271.5,-39.5 160.5,-39.5"/>
<text text-anchor="middle" x="216" y="-46.7" font-family="Helvetica,sans-Serif" font-size="11.00">FitnessPolicy::apply</text>
</a>
</g>
</g>
<!-- Node1&#45;&gt;Node7 -->
<g id="edge6" class="edge"><title>Node1&#45;&gt;Node7</title>
<path fill="none" stroke="midnightblue" d="M62.8528,-117.391C78.5763,-104.476 107.659,-82.2709 136,-69.5 141.841,-66.868 148.087,-64.5414 154.412,-62.4945"/>
<polygon fill="midnightblue" stroke="midnightblue" points="155.8,-65.7324 164.371,-59.5044 153.787,-59.0281 155.8,-65.7324"/>
</g>
<!-- Node8 -->
<g id="node8" class="node"><title>Node8</title>
<g id="a_node8"><a xlink:href="$classFitnessPolicy.xhtml#acaf9a99792b12c78eaabc0acadd1de9f" xlink:title="Check if the first Solution is better than the second Solution. ">
<polygon fill="none" stroke="black" points="146,-0.5 146,-20.5 286,-20.5 286,-0.5 146,-0.5"/>
<text text-anchor="middle" x="216" y="-7.7" font-family="Helvetica,sans-Serif" font-size="11.00">FitnessPolicy::firstIsBetter</text>
</a>
</g>
</g>
<!-- Node1&#45;&gt;Node8 -->
<g id="edge7" class="edge"><title>Node1&#45;&gt;Node8</title>
<path fill="none" stroke="midnightblue" d="M56.8364,-117.487C68.938,-97.6498 98.7673,-53.3069 136,-30.5 139.836,-28.1502 143.938,-26.0755 148.181,-24.244"/>
<polygon fill="midnightblue" stroke="midnightblue" points="149.563,-27.4622 157.644,-20.6102 147.054,-20.9274 149.563,-27.4622"/>
</g>
</g>
</svg>
