<?xml version="1.0" encoding="UTF-8" standalone="no"?>
<!DOCTYPE svg PUBLIC "-//W3C//DTD SVG 1.1//EN"
 "http://www.w3.org/Graphics/SVG/1.1/DTD/svg11.dtd">
<!-- Generated by graphviz version 2.38.0 (20140413.2041)
 -->
<!-- Title: Dimension&lt; P &gt; Pages: 1 -->
<svg width="105pt" height="298pt"
 viewBox="0.00 0.00 105.00 298.00" xmlns="http://www.w3.org/2000/svg" xmlns:xlink="http://www.w3.org/1999/xlink">
<g id="graph0" class="graph" transform="scale(1 1) rotate(0) translate(4 294)">
<title>Dimension&lt; P &gt;</title>
<!-- Node1 -->
<g id="node1" class="node"><title>Node1</title>
<polygon fill="#bfbfbf" stroke="black" points="1,-0.5 1,-84.5 96,-84.5 96,-0.5 1,-0.5"/>
<text text-anchor="middle" x="48.5" y="-71.7" font-family="Helvetica,sans-Serif" font-size="11.00">Dimension&lt; P &gt;</text>
<polyline fill="none" stroke="black" points="1,-64.5 96,-64.5 "/>
<text text-anchor="middle" x="48.5" y="-51.7" font-family="Helvetica,sans-Serif" font-size="11.00"> </text>
<polyline fill="none" stroke="black" points="1,-44.5 96,-44.5 "/>
<text text-anchor="start" x="9" y="-31.7" font-family="Helvetica,sans-Serif" font-size="11.00">+ Dimension()</text>
<text text-anchor="start" x="9" y="-19.7" font-family="Helvetica,sans-Serif" font-size="11.00">+ Dimension()</text>
<text text-anchor="start" x="9" y="-7.7" font-family="Helvetica,sans-Serif" font-size="11.00">+ ~Dimension()</text>
</g>
<!-- Node2 -->
<g id="node2" class="node"><title>Node2</title>
<g id="a_node2"><a xlink:href="$classPartition.xhtml" xlink:title="This class represents an interval within dimension&#39;s boundaries. ">
<polygon fill="none" stroke="black" points="-7.10543e-15,-121.5 -7.10543e-15,-289.5 97,-289.5 97,-121.5 -7.10543e-15,-121.5"/>
<text text-anchor="middle" x="48.5" y="-276.7" font-family="Helvetica,sans-Serif" font-size="11.00">Partition&lt; P &gt;</text>
<polyline fill="none" stroke="black" points="-7.10543e-15,-269.5 97,-269.5 "/>
<text text-anchor="middle" x="48.5" y="-256.7" font-family="Helvetica,sans-Serif" font-size="11.00"> </text>
<polyline fill="none" stroke="black" points="-7.10543e-15,-249.5 97,-249.5 "/>
<text text-anchor="start" x="8" y="-236.7" font-family="Helvetica,sans-Serif" font-size="11.00">+ Partition()</text>
<text text-anchor="start" x="8" y="-224.7" font-family="Helvetica,sans-Serif" font-size="11.00">+ Partition()</text>
<text text-anchor="start" x="8" y="-212.7" font-family="Helvetica,sans-Serif" font-size="11.00">+ ~Partition()</text>
<text text-anchor="start" x="8" y="-200.7" font-family="Helvetica,sans-Serif" font-size="11.00">+ operator&lt;()</text>
<text text-anchor="start" x="8" y="-188.7" font-family="Helvetica,sans-Serif" font-size="11.00">+ operator&gt;()</text>
<text text-anchor="start" x="8" y="-176.7" font-family="Helvetica,sans-Serif" font-size="11.00">+ getID()</text>
<text text-anchor="start" x="8" y="-164.7" font-family="Helvetica,sans-Serif" font-size="11.00">+ getStartPoint()</text>
<text text-anchor="start" x="8" y="-152.7" font-family="Helvetica,sans-Serif" font-size="11.00">+ setStartPoint()</text>
<text text-anchor="start" x="8" y="-140.7" font-family="Helvetica,sans-Serif" font-size="11.00">+ getEndPoint()</text>
<text text-anchor="start" x="8" y="-128.7" font-family="Helvetica,sans-Serif" font-size="11.00">+ setEndPoint()</text>
</a>
</g>
</g>
<!-- Node2&#45;&gt;Node1 -->
<g id="edge1" class="edge"><title>Node2&#45;&gt;Node1</title>
<path fill="none" stroke="midnightblue" d="M48.5,-111.065C48.5,-101.814 48.5,-92.7975 48.5,-84.5209"/>
<polygon fill="none" stroke="midnightblue" points="45.0001,-111.17 48.5,-121.17 52.0001,-111.17 45.0001,-111.17"/>
</g>
</g>
</svg>
