<?xml version="1.0" encoding="UTF-8" standalone="no"?>
<!DOCTYPE svg PUBLIC "-//W3C//DTD SVG 1.1//EN"
 "http://www.w3.org/Graphics/SVG/1.1/DTD/svg11.dtd">
<!-- Generated by graphviz version 2.38.0 (20140413.2041)
 -->
<!-- Title: THBuilder::getSearchAlgorithmSelectionPolicy Pages: 1 -->
<svg width="533pt" height="41pt"
 viewBox="0.00 0.00 533.00 41.00" xmlns="http://www.w3.org/2000/svg" xmlns:xlink="http://www.w3.org/1999/xlink">
<g id="graph0" class="graph" transform="scale(1 1) rotate(0) translate(4 37)">
<title>THBuilder::getSearchAlgorithmSelectionPolicy</title>
<!-- Node1 -->
<g id="node1" class="node"><title>Node1</title>
<polygon fill="#bfbfbf" stroke="black" points="0,-0.5 0,-32.5 167,-32.5 167,-0.5 0,-0.5"/>
<text text-anchor="start" x="8" y="-19.7" font-family="Helvetica,sans-Serif" font-size="11.00">THBuilder::getSearchAlgorithm</text>
<text text-anchor="middle" x="83.5" y="-7.7" font-family="Helvetica,sans-Serif" font-size="11.00">SelectionPolicy</text>
</g>
<!-- Node2 -->
<g id="node2" class="node"><title>Node2</title>
<g id="a_node2"><a xlink:href="$classTHBuilder_1_1SearchGroup.xhtml#ac8c33d89ddd52e38fb23d7102d9086e0" xlink:title="Perform a complete execution of the search group. ">
<polygon fill="none" stroke="black" points="203,-6.5 203,-26.5 361,-26.5 361,-6.5 203,-6.5"/>
<text text-anchor="middle" x="282" y="-13.7" font-family="Helvetica,sans-Serif" font-size="11.00">THBuilder::SearchGroup::run</text>
</a>
</g>
</g>
<!-- Node1&#45;&gt;Node2 -->
<g id="edge1" class="edge"><title>Node1&#45;&gt;Node2</title>
<path fill="none" stroke="midnightblue" d="M177.51,-16.5C185.945,-16.5 194.432,-16.5 202.72,-16.5"/>
<polygon fill="midnightblue" stroke="midnightblue" points="177.264,-13.0001 167.264,-16.5 177.264,-20.0001 177.264,-13.0001"/>
</g>
<!-- Node3 -->
<g id="node3" class="node"><title>Node3</title>
<g id="a_node3"><a xlink:href="$classTHBuilder_1_1THImpl.xhtml#a943301db5154fd7b672119b5c9917303" xlink:title="Starts the Treasure Hunt mechanisms. ">
<polygon fill="none" stroke="black" points="397,-6.5 397,-26.5 525,-26.5 525,-6.5 397,-6.5"/>
<text text-anchor="middle" x="461" y="-13.7" font-family="Helvetica,sans-Serif" font-size="11.00">THBuilder::THImpl::run</text>
</a>
</g>
</g>
<!-- Node2&#45;&gt;Node3 -->
<g id="edge2" class="edge"><title>Node2&#45;&gt;Node3</title>
<path fill="none" stroke="midnightblue" d="M371.271,-16.5C379.91,-16.5 388.552,-16.5 396.868,-16.5"/>
<polygon fill="midnightblue" stroke="midnightblue" points="371.15,-13.0001 361.15,-16.5 371.15,-20.0001 371.15,-13.0001"/>
</g>
</g>
</svg>
