<?xml version="1.0" encoding="UTF-8" standalone="no"?>
<!DOCTYPE svg PUBLIC "-//W3C//DTD SVG 1.1//EN"
 "http://www.w3.org/Graphics/SVG/1.1/DTD/svg11.dtd">
<!-- Generated by graphviz version 2.38.0 (20140413.2041)
 -->
<!-- Title: BestListUpdatePolicy&lt; P, pSize, F, fSize, V, vSize &gt; Pages: 1 -->
<svg width="372pt" height="298pt"
 viewBox="0.00 0.00 371.50 298.00" xmlns="http://www.w3.org/2000/svg" xmlns:xlink="http://www.w3.org/1999/xlink">
<g id="graph0" class="graph" transform="scale(1 1) rotate(0) translate(4 294)">
<title>BestListUpdatePolicy&lt; P, pSize, F, fSize, V, vSize &gt;</title>
<!-- Node1 -->
<g id="node1" class="node"><title>Node1</title>
<polygon fill="#bfbfbf" stroke="black" points="105,-169.5 105,-289.5 248,-289.5 248,-169.5 105,-169.5"/>
<text text-anchor="start" x="113" y="-276.7" font-family="Helvetica,sans-Serif" font-size="11.00">BestListUpdatePolicy</text>
<text text-anchor="start" x="113" y="-264.7" font-family="Helvetica,sans-Serif" font-size="11.00">&lt; P, pSize, F, fSize,</text>
<text text-anchor="middle" x="176.5" y="-252.7" font-family="Helvetica,sans-Serif" font-size="11.00"> V, vSize &gt;</text>
<polyline fill="none" stroke="black" points="105,-245.5 248,-245.5 "/>
<text text-anchor="middle" x="176.5" y="-232.7" font-family="Helvetica,sans-Serif" font-size="11.00"> </text>
<polyline fill="none" stroke="black" points="105,-225.5 248,-225.5 "/>
<text text-anchor="start" x="113" y="-212.7" font-family="Helvetica,sans-Serif" font-size="11.00">+ BestListUpdatePolicy()</text>
<text text-anchor="start" x="113" y="-200.7" font-family="Helvetica,sans-Serif" font-size="11.00">+ ~BestListUpdatePolicy()</text>
<text text-anchor="start" x="113" y="-188.7" font-family="Helvetica,sans-Serif" font-size="11.00">+ apply()</text>
<text text-anchor="start" x="113" y="-176.7" font-family="Helvetica,sans-Serif" font-size="11.00"># euclideanDistance()</text>
</g>
<!-- Node2 -->
<g id="node2" class="node"><title>Node2</title>
<g id="a_node2"><a xlink:href="$classConvergentBestListUpdatePolicy.xhtml" xlink:title="This policy updates the BestList instance by enforcing a behavior that speeds up the convergence...">
<polygon fill="none" stroke="black" points="0,-0.5 0,-132.5 163,-132.5 163,-0.5 0,-0.5"/>
<text text-anchor="start" x="8" y="-119.7" font-family="Helvetica,sans-Serif" font-size="11.00">ConvergentBestListUpdate</text>
<text text-anchor="start" x="8" y="-107.7" font-family="Helvetica,sans-Serif" font-size="11.00">Policy&lt; P, pSize, F, fSize,</text>
<text text-anchor="middle" x="81.5" y="-95.7" font-family="Helvetica,sans-Serif" font-size="11.00"> V, vSize &gt;</text>
<polyline fill="none" stroke="black" points="0,-88.5 163,-88.5 "/>
<text text-anchor="middle" x="81.5" y="-75.7" font-family="Helvetica,sans-Serif" font-size="11.00"> </text>
<polyline fill="none" stroke="black" points="0,-68.5 163,-68.5 "/>
<text text-anchor="start" x="8" y="-55.7" font-family="Helvetica,sans-Serif" font-size="11.00">+ ConvergentBestListUpdate</text>
<text text-anchor="start" x="8" y="-43.7" font-family="Helvetica,sans-Serif" font-size="11.00">Policy()</text>
<text text-anchor="start" x="8" y="-31.7" font-family="Helvetica,sans-Serif" font-size="11.00">+ ~ConvergentBestListUpdate</text>
<text text-anchor="start" x="8" y="-19.7" font-family="Helvetica,sans-Serif" font-size="11.00">Policy()</text>
<text text-anchor="start" x="8" y="-7.7" font-family="Helvetica,sans-Serif" font-size="11.00">+ apply()</text>
</a>
</g>
</g>
<!-- Node1&#45;&gt;Node2 -->
<g id="edge1" class="edge"><title>Node1&#45;&gt;Node2</title>
<path fill="none" stroke="midnightblue" d="M136.448,-160.622C130.952,-151.308 125.32,-141.763 119.856,-132.503"/>
<polygon fill="none" stroke="midnightblue" points="133.569,-162.63 141.665,-169.464 139.597,-159.073 133.569,-162.63"/>
</g>
<!-- Node3 -->
<g id="node3" class="node"><title>Node3</title>
<g id="a_node3"><a xlink:href="$classDivergentBestListUpdatePolicy.xhtml" xlink:title="This policy updates the BestList instance by enforcing a behavior that slows down the convergence...">
<polygon fill="none" stroke="black" points="181.5,-6.5 181.5,-126.5 363.5,-126.5 363.5,-6.5 181.5,-6.5"/>
<text text-anchor="start" x="189.5" y="-113.7" font-family="Helvetica,sans-Serif" font-size="11.00">DivergentBestListUpdatePolicy</text>
<text text-anchor="start" x="189.5" y="-101.7" font-family="Helvetica,sans-Serif" font-size="11.00">&lt; P, pSize, F, fSize, V,</text>
<text text-anchor="middle" x="272.5" y="-89.7" font-family="Helvetica,sans-Serif" font-size="11.00"> vSize &gt;</text>
<polyline fill="none" stroke="black" points="181.5,-82.5 363.5,-82.5 "/>
<text text-anchor="middle" x="272.5" y="-69.7" font-family="Helvetica,sans-Serif" font-size="11.00"> </text>
<polyline fill="none" stroke="black" points="181.5,-62.5 363.5,-62.5 "/>
<text text-anchor="start" x="189.5" y="-49.7" font-family="Helvetica,sans-Serif" font-size="11.00">+ DivergentBestListUpdatePolicy()</text>
<text text-anchor="start" x="189.5" y="-37.7" font-family="Helvetica,sans-Serif" font-size="11.00">+ ~DivergentBestListUpdate</text>
<text text-anchor="start" x="189.5" y="-25.7" font-family="Helvetica,sans-Serif" font-size="11.00">Policy()</text>
<text text-anchor="start" x="189.5" y="-13.7" font-family="Helvetica,sans-Serif" font-size="11.00">+ apply()</text>
</a>
</g>
</g>
<!-- Node1&#45;&gt;Node3 -->
<g id="edge2" class="edge"><title>Node1&#45;&gt;Node3</title>
<path fill="none" stroke="midnightblue" d="M216.848,-160.832C223.644,-149.435 230.65,-137.685 237.303,-126.529"/>
<polygon fill="none" stroke="midnightblue" points="213.817,-159.082 211.702,-169.464 219.829,-162.667 213.817,-159.082"/>
</g>
</g>
</svg>
