<?xml version="1.0" encoding="UTF-8" standalone="no"?>
<!DOCTYPE svg PUBLIC "-//W3C//DTD SVG 1.1//EN"
 "http://www.w3.org/Graphics/SVG/1.1/DTD/svg11.dtd">
<!-- Generated by graphviz version 2.38.0 (20140413.2041)
 -->
<!-- Title: Search::finalize Pages: 1 -->
<svg width="592pt" height="74pt"
 viewBox="0.00 0.00 592.00 74.00" xmlns="http://www.w3.org/2000/svg" xmlns:xlink="http://www.w3.org/1999/xlink">
<g id="graph0" class="graph" transform="scale(1 1) rotate(0) translate(4 70)">
<title>Search::finalize</title>
<!-- Node1 -->
<g id="node1" class="node"><title>Node1</title>
<polygon fill="#bfbfbf" stroke="black" points="0,-25.5 0,-45.5 90,-45.5 90,-25.5 0,-25.5"/>
<text text-anchor="middle" x="45" y="-32.7" font-family="Helvetica,sans-Serif" font-size="11.00">Search::finalize</text>
</g>
<!-- Node2 -->
<g id="node2" class="node"><title>Node2</title>
<g id="a_node2"><a xlink:href="$classCSMOn.xhtml#a430398bc3e096631f8cd180ee1877616" xlink:title="This method runs, monitors and limits the convergence of the optimization method during the current T...">
<polygon fill="none" stroke="black" points="156,-45.5 156,-65.5 233,-65.5 233,-45.5 156,-45.5"/>
<text text-anchor="middle" x="194.5" y="-52.7" font-family="Helvetica,sans-Serif" font-size="11.00">CSMOn::run</text>
</a>
</g>
</g>
<!-- Node1&#45;&gt;Node2 -->
<g id="edge1" class="edge"><title>Node1&#45;&gt;Node2</title>
<path fill="none" stroke="midnightblue" d="M100.284,-42.8606C118.719,-45.3602 138.901,-48.0967 155.757,-50.3824"/>
<polygon fill="midnightblue" stroke="midnightblue" points="100.634,-39.3761 90.2549,-41.5007 99.6939,-46.3126 100.634,-39.3761"/>
</g>
<!-- Node3 -->
<g id="node3" class="node"><title>Node3</title>
<g id="a_node3"><a xlink:href="$classSearch.xhtml#af9f46406f1f1f7f89ab294c155738ca6" xlink:title="Set the full search space. ">
<polygon fill="none" stroke="black" points="126,-6.5 126,-26.5 263,-26.5 263,-6.5 126,-6.5"/>
<text text-anchor="middle" x="194.5" y="-13.7" font-family="Helvetica,sans-Serif" font-size="11.00">Search::setSearchSpace</text>
</a>
</g>
</g>
<!-- Node1&#45;&gt;Node3 -->
<g id="edge2" class="edge"><title>Node1&#45;&gt;Node3</title>
<path fill="none" stroke="midnightblue" d="M100.209,-28.5171C108.542,-27.4438 117.233,-26.3242 125.814,-25.2189"/>
<polygon fill="midnightblue" stroke="midnightblue" points="99.7257,-25.0504 90.2549,-29.7994 100.62,-31.993 99.7257,-25.0504"/>
</g>
<!-- Node4 -->
<g id="node4" class="node"><title>Node4</title>
<g id="a_node4"><a xlink:href="$classTHBuilder_1_1SearchGroup.xhtml#a794cf5448380674b51022b5d65a240e2" xlink:title="Constructor to create the internal Search Group. ">
<polygon fill="none" stroke="black" points="299,-23.5 299,-55.5 435,-55.5 435,-23.5 299,-23.5"/>
<text text-anchor="start" x="307" y="-42.7" font-family="Helvetica,sans-Serif" font-size="11.00">THBuilder::SearchGroup</text>
<text text-anchor="middle" x="367" y="-30.7" font-family="Helvetica,sans-Serif" font-size="11.00">::SearchGroup</text>
</a>
</g>
</g>
<!-- Node3&#45;&gt;Node4 -->
<g id="edge3" class="edge"><title>Node3&#45;&gt;Node4</title>
<path fill="none" stroke="midnightblue" d="M273.336,-26.9999C281.878,-28.1521 290.519,-29.3178 298.914,-30.4503"/>
<polygon fill="midnightblue" stroke="midnightblue" points="273.754,-23.5247 263.376,-25.6563 272.818,-30.4618 273.754,-23.5247"/>
</g>
<!-- Node5 -->
<g id="node5" class="node"><title>Node5</title>
<g id="a_node5"><a xlink:href="$classTHBuilder_1_1THImpl.xhtml#a0d6e2fd43f50755ff2738e924f66690d" xlink:title="THBuilder::THImpl::\lTHImpl">
<polygon fill="none" stroke="black" points="471,-0.5 471,-32.5 584,-32.5 584,-0.5 471,-0.5"/>
<text text-anchor="start" x="479" y="-19.7" font-family="Helvetica,sans-Serif" font-size="11.00">THBuilder::THImpl::</text>
<text text-anchor="middle" x="527.5" y="-7.7" font-family="Helvetica,sans-Serif" font-size="11.00">THImpl</text>
</a>
</g>
</g>
<!-- Node3&#45;&gt;Node5 -->
<g id="edge5" class="edge"><title>Node3&#45;&gt;Node5</title>
<path fill="none" stroke="midnightblue" d="M273.285,-14.8349C281.961,-14.6974 290.669,-14.5805 299,-14.5 359.442,-13.9161 374.559,-13.8395 435,-14.5 446.598,-14.6267 459.022,-14.8438 470.858,-15.0894"/>
<polygon fill="midnightblue" stroke="midnightblue" points="273.081,-11.3378 263.141,-15.0049 273.199,-18.3368 273.081,-11.3378"/>
</g>
<!-- Node4&#45;&gt;Node5 -->
<g id="edge4" class="edge"><title>Node4&#45;&gt;Node5</title>
<path fill="none" stroke="midnightblue" d="M445.247,-28.2906C453.824,-27.0461 462.431,-25.7971 470.668,-24.6019"/>
<polygon fill="midnightblue" stroke="midnightblue" points="444.612,-24.8461 435.218,-29.7459 445.617,-31.7735 444.612,-24.8461"/>
</g>
</g>
</svg>
