<?xml version="1.0" encoding="UTF-8" standalone="no"?>
<!DOCTYPE svg PUBLIC "-//W3C//DTD SVG 1.1//EN"
 "http://www.w3.org/Graphics/SVG/1.1/DTD/svg11.dtd">
<!-- Generated by graphviz version 2.38.0 (20140413.2041)
 -->
<!-- Title: BestList::set Pages: 1 -->
<svg width="284pt" height="92pt"
 viewBox="0.00 0.00 284.00 92.00" xmlns="http://www.w3.org/2000/svg" xmlns:xlink="http://www.w3.org/1999/xlink">
<g id="graph0" class="graph" transform="scale(1 1) rotate(0) translate(4 88)">
<title>BestList::set</title>
<!-- Node1 -->
<g id="node1" class="node"><title>Node1</title>
<polygon fill="#bfbfbf" stroke="black" points="0,-31.5 0,-51.5 75,-51.5 75,-31.5 0,-31.5"/>
<text text-anchor="middle" x="37.5" y="-38.7" font-family="Helvetica,sans-Serif" font-size="11.00">BestList::set</text>
</g>
<!-- Node2 -->
<g id="node2" class="node"><title>Node2</title>
<g id="a_node2"><a xlink:href="$classConvergentBestListUpdatePolicy.xhtml#a6382937d32ac8bab7169f216fcd3048f" xlink:title="This method implements a behavior that focus on convergence speed when updating the solutions from th...">
<polygon fill="none" stroke="black" points="120.5,-51.5 120.5,-83.5 266.5,-83.5 266.5,-51.5 120.5,-51.5"/>
<text text-anchor="start" x="128.5" y="-70.7" font-family="Helvetica,sans-Serif" font-size="11.00">ConvergentBestListUpdate</text>
<text text-anchor="middle" x="193.5" y="-58.7" font-family="Helvetica,sans-Serif" font-size="11.00">Policy::apply</text>
</a>
</g>
</g>
<!-- Node1&#45;&gt;Node2 -->
<g id="edge1" class="edge"><title>Node1&#45;&gt;Node2</title>
<path fill="none" stroke="midnightblue" d="M85.5808,-49.4487C96.5581,-51.302 108.496,-53.3175 120.284,-55.3077"/>
<polygon fill="midnightblue" stroke="midnightblue" points="85.83,-45.9413 75.3868,-47.7276 84.6646,-52.8436 85.83,-45.9413"/>
</g>
<!-- Node3 -->
<g id="node3" class="node"><title>Node3</title>
<g id="a_node3"><a xlink:href="$classDivergentBestListUpdatePolicy.xhtml#a793d47a0c458eef94b27fbee73e5df0e" xlink:title="This method implements a behavior that promotes diversity when updating the solutions from the BestLi...">
<polygon fill="none" stroke="black" points="111,-0.5 111,-32.5 276,-32.5 276,-0.5 111,-0.5"/>
<text text-anchor="start" x="119" y="-19.7" font-family="Helvetica,sans-Serif" font-size="11.00">DivergentBestListUpdatePolicy</text>
<text text-anchor="middle" x="193.5" y="-7.7" font-family="Helvetica,sans-Serif" font-size="11.00">::apply</text>
</a>
</g>
</g>
<!-- Node1&#45;&gt;Node3 -->
<g id="edge2" class="edge"><title>Node1&#45;&gt;Node3</title>
<path fill="none" stroke="midnightblue" d="M85.3264,-33.8983C93.4232,-32.5839 102.049,-31.1836 110.756,-29.7702"/>
<polygon fill="midnightblue" stroke="midnightblue" points="84.6968,-30.4546 75.3868,-35.5119 85.8185,-37.3642 84.6968,-30.4546"/>
</g>
</g>
</svg>
