<?xml version="1.0" encoding="UTF-8" standalone="no"?>
<!DOCTYPE svg PUBLIC "-//W3C//DTD SVG 1.1//EN"
 "http://www.w3.org/Graphics/SVG/1.1/DTD/svg11.dtd">
<!-- Generated by graphviz version 2.38.0 (20140413.2041)
 -->
<!-- Title: Solution::getFitness Pages: 1 -->
<svg width="499pt" height="152pt"
 viewBox="0.00 0.00 499.00 152.07" xmlns="http://www.w3.org/2000/svg" xmlns:xlink="http://www.w3.org/1999/xlink">
<g id="graph0" class="graph" transform="scale(1 1) rotate(0) translate(4 148.065)">
<title>Solution::getFitness</title>
<!-- Node1 -->
<g id="node1" class="node"><title>Node1</title>
<polygon fill="#bfbfbf" stroke="black" points="0,-43.5655 0,-63.5655 111,-63.5655 111,-43.5655 0,-43.5655"/>
<text text-anchor="middle" x="55.5" y="-50.7655" font-family="Helvetica,sans-Serif" font-size="11.00">Solution::getFitness</text>
</g>
<!-- Node2 -->
<g id="node2" class="node"><title>Node2</title>
<g id="a_node2"><a xlink:href="$classRosenbrockFitnessPolicy.xhtml#adfbf6f67e41f0a5a90b8e31245d9b2c9" xlink:title="RosenbrockFitnessPolicy\l::firstIsBetter">
<polygon fill="none" stroke="black" points="157.5,-111.565 157.5,-143.565 294.5,-143.565 294.5,-111.565 157.5,-111.565"/>
<text text-anchor="start" x="165.5" y="-130.765" font-family="Helvetica,sans-Serif" font-size="11.00">RosenbrockFitnessPolicy</text>
<text text-anchor="middle" x="226" y="-118.765" font-family="Helvetica,sans-Serif" font-size="11.00">::firstIsBetter</text>
</a>
</g>
</g>
<!-- Node1&#45;&gt;Node2 -->
<g id="edge1" class="edge"><title>Node1&#45;&gt;Node2</title>
<path fill="none" stroke="midnightblue" d="M81.692,-68.8527C99.5083,-79.2506 124.189,-92.8346 147,-102.565 154.456,-105.746 162.458,-108.749 170.394,-111.497"/>
<polygon fill="midnightblue" stroke="midnightblue" points="83.4368,-65.8183 73.0472,-63.7429 79.8749,-71.8443 83.4368,-65.8183"/>
</g>
<!-- Node4 -->
<g id="node4" class="node"><title>Node4</title>
<g id="a_node4"><a xlink:href="$classTHBuilder_1_1SearchGroup.xhtml#a794cf5448380674b51022b5d65a240e2" xlink:title="Constructor to create the internal Search Group. ">
<polygon fill="none" stroke="black" points="158,-60.5655 158,-92.5655 294,-92.5655 294,-60.5655 158,-60.5655"/>
<text text-anchor="start" x="166" y="-79.7655" font-family="Helvetica,sans-Serif" font-size="11.00">THBuilder::SearchGroup</text>
<text text-anchor="middle" x="226" y="-67.7655" font-family="Helvetica,sans-Serif" font-size="11.00">::SearchGroup</text>
</a>
</g>
</g>
<!-- Node1&#45;&gt;Node4 -->
<g id="edge3" class="edge"><title>Node1&#45;&gt;Node4</title>
<path fill="none" stroke="midnightblue" d="M121.161,-62.3916C133.197,-64.0345 145.797,-65.7544 157.904,-67.407"/>
<polygon fill="midnightblue" stroke="midnightblue" points="121.589,-58.9176 111.207,-61.0329 120.642,-65.8533 121.589,-58.9176"/>
</g>
<!-- Node6 -->
<g id="node6" class="node"><title>Node6</title>
<g id="a_node6"><a xlink:href="$classTHBuilder_1_1SearchGroup.xhtml#ac8c33d89ddd52e38fb23d7102d9086e0" xlink:title="Perform a complete execution of the search group. ">
<polygon fill="none" stroke="black" points="147,-21.5655 147,-41.5655 305,-41.5655 305,-21.5655 147,-21.5655"/>
<text text-anchor="middle" x="226" y="-28.7655" font-family="Helvetica,sans-Serif" font-size="11.00">THBuilder::SearchGroup::run</text>
</a>
</g>
</g>
<!-- Node1&#45;&gt;Node6 -->
<g id="edge5" class="edge"><title>Node1&#45;&gt;Node6</title>
<path fill="none" stroke="midnightblue" d="M121.366,-45.0963C130.158,-43.9484 139.247,-42.7617 148.222,-41.5899"/>
<polygon fill="midnightblue" stroke="midnightblue" points="120.67,-41.6574 111.207,-46.4227 121.576,-48.5985 120.67,-41.6574"/>
</g>
<!-- Node7 -->
<g id="node7" class="node"><title>Node7</title>
<g id="a_node7"><a xlink:href="$classTHBuilder_1_1THImpl.xhtml#a943301db5154fd7b672119b5c9917303" xlink:title="Starts the Treasure Hunt mechanisms. ">
<polygon fill="none" stroke="black" points="352,-2.56547 352,-22.5655 480,-22.5655 480,-2.56547 352,-2.56547"/>
<text text-anchor="middle" x="416" y="-9.76547" font-family="Helvetica,sans-Serif" font-size="11.00">THBuilder::THImpl::run</text>
</a>
</g>
</g>
<!-- Node1&#45;&gt;Node7 -->
<g id="edge7" class="edge"><title>Node1&#45;&gt;Node7</title>
<path fill="none" stroke="midnightblue" d="M81.437,-38.3852C99.0507,-28.5842 123.595,-16.7318 147,-11.5655 215.833,3.62859 297.056,0.488836 351.897,-4.60627"/>
<polygon fill="midnightblue" stroke="midnightblue" points="79.3461,-35.5497 72.4159,-43.5636 82.831,-41.6206 79.3461,-35.5497"/>
</g>
<!-- Node3 -->
<g id="node3" class="node"><title>Node3</title>
<g id="a_node3"><a xlink:href="$classRosenbrockFitnessPolicy.xhtml#aaabda48891e8fb971d24d84a8dc5da31" xlink:title="RosenbrockFitnessPolicy\l::~RosenbrockFitnessPolicy">
<polygon fill="none" stroke="black" points="341,-111.565 341,-143.565 491,-143.565 491,-111.565 341,-111.565"/>
<text text-anchor="start" x="349" y="-130.765" font-family="Helvetica,sans-Serif" font-size="11.00">RosenbrockFitnessPolicy</text>
<text text-anchor="middle" x="416" y="-118.765" font-family="Helvetica,sans-Serif" font-size="11.00">::~RosenbrockFitnessPolicy</text>
</a>
</g>
</g>
<!-- Node2&#45;&gt;Node3 -->
<g id="edge2" class="edge"><title>Node2&#45;&gt;Node3</title>
<path fill="none" stroke="midnightblue" d="M304.609,-127.565C316.641,-127.565 329.042,-127.565 340.992,-127.565"/>
<polygon fill="midnightblue" stroke="midnightblue" points="304.607,-124.066 294.607,-127.565 304.607,-131.066 304.607,-124.066"/>
</g>
<!-- Node5 -->
<g id="node5" class="node"><title>Node5</title>
<g id="a_node5"><a xlink:href="$classTHBuilder_1_1THImpl.xhtml#a0d6e2fd43f50755ff2738e924f66690d" xlink:title="THBuilder::THImpl::\lTHImpl">
<polygon fill="none" stroke="black" points="359.5,-60.5655 359.5,-92.5655 472.5,-92.5655 472.5,-60.5655 359.5,-60.5655"/>
<text text-anchor="start" x="367.5" y="-79.7655" font-family="Helvetica,sans-Serif" font-size="11.00">THBuilder::THImpl::</text>
<text text-anchor="middle" x="416" y="-67.7655" font-family="Helvetica,sans-Serif" font-size="11.00">THImpl</text>
</a>
</g>
</g>
<!-- Node4&#45;&gt;Node5 -->
<g id="edge4" class="edge"><title>Node4&#45;&gt;Node5</title>
<path fill="none" stroke="midnightblue" d="M304.24,-76.5655C322.736,-76.5655 342.126,-76.5655 359.421,-76.5655"/>
<polygon fill="midnightblue" stroke="midnightblue" points="304.076,-73.0656 294.076,-76.5655 304.076,-80.0656 304.076,-73.0656"/>
</g>
<!-- Node6&#45;&gt;Node7 -->
<g id="edge6" class="edge"><title>Node6&#45;&gt;Node7</title>
<path fill="none" stroke="midnightblue" d="M315.359,-22.6356C327.634,-21.395 340.039,-20.1413 351.731,-18.9597"/>
<polygon fill="midnightblue" stroke="midnightblue" points="314.693,-19.185 305.096,-23.6728 315.397,-26.1495 314.693,-19.185"/>
</g>
</g>
</svg>
