<?xml version="1.0" encoding="UTF-8" standalone="no"?>
<!DOCTYPE svg PUBLIC "-//W3C//DTD SVG 1.1//EN"
 "http://www.w3.org/Graphics/SVG/1.1/DTD/svg11.dtd">
<!-- Generated by graphviz version 2.38.0 (20140413.2041)
 -->
<!-- Title: THBuilder::getRegionSelectionPolicy Pages: 1 -->
<svg width="337pt" height="80pt"
 viewBox="0.00 0.00 337.00 80.00" xmlns="http://www.w3.org/2000/svg" xmlns:xlink="http://www.w3.org/1999/xlink">
<g id="graph0" class="graph" transform="scale(1 1) rotate(0) translate(4 76)">
<title>THBuilder::getRegionSelectionPolicy</title>
<!-- Node1 -->
<g id="node1" class="node"><title>Node1</title>
<polygon fill="#bfbfbf" stroke="black" points="0,-16.5 0,-48.5 165,-48.5 165,-16.5 0,-16.5"/>
<text text-anchor="start" x="8" y="-35.7" font-family="Helvetica,sans-Serif" font-size="11.00">THBuilder::getRegionSelection</text>
<text text-anchor="middle" x="82.5" y="-23.7" font-family="Helvetica,sans-Serif" font-size="11.00">Policy</text>
</g>
<!-- Node2 -->
<g id="node2" class="node"><title>Node2</title>
<g id="a_node2"><a xlink:href="$classTHBuilder_1_1THImpl.xhtml#a0d6e2fd43f50755ff2738e924f66690d" xlink:title="THBuilder::THImpl::\lTHImpl">
<polygon fill="none" stroke="black" points="208.5,-39.5 208.5,-71.5 321.5,-71.5 321.5,-39.5 208.5,-39.5"/>
<text text-anchor="start" x="216.5" y="-58.7" font-family="Helvetica,sans-Serif" font-size="11.00">THBuilder::THImpl::</text>
<text text-anchor="middle" x="265" y="-46.7" font-family="Helvetica,sans-Serif" font-size="11.00">THImpl</text>
</a>
</g>
</g>
<!-- Node1&#45;&gt;Node2 -->
<g id="edge1" class="edge"><title>Node1&#45;&gt;Node2</title>
<path fill="none" stroke="midnightblue" d="M175.036,-44.1638C186.427,-45.6153 197.79,-47.0633 208.401,-48.4153"/>
<polygon fill="midnightblue" stroke="midnightblue" points="175.399,-40.6819 165.037,-42.8897 174.514,-47.6258 175.399,-40.6819"/>
</g>
<!-- Node3 -->
<g id="node3" class="node"><title>Node3</title>
<g id="a_node3"><a xlink:href="$classTHBuilder_1_1THImpl.xhtml#a943301db5154fd7b672119b5c9917303" xlink:title="Starts the Treasure Hunt mechanisms. ">
<polygon fill="none" stroke="black" points="201,-0.5 201,-20.5 329,-20.5 329,-0.5 201,-0.5"/>
<text text-anchor="middle" x="265" y="-7.7" font-family="Helvetica,sans-Serif" font-size="11.00">THBuilder::THImpl::run</text>
</a>
</g>
</g>
<!-- Node1&#45;&gt;Node3 -->
<g id="edge2" class="edge"><title>Node1&#45;&gt;Node3</title>
<path fill="none" stroke="midnightblue" d="M175.236,-21.3189C183.933,-20.2588 192.612,-19.201 200.95,-18.1848"/>
<polygon fill="midnightblue" stroke="midnightblue" points="174.54,-17.8777 165.037,-22.562 175.387,-24.8263 174.54,-17.8777"/>
</g>
</g>
</svg>
