<?xml version="1.0" encoding="UTF-8" standalone="no"?>
<!DOCTYPE svg PUBLIC "-//W3C//DTD SVG 1.1//EN"
 "http://www.w3.org/Graphics/SVG/1.1/DTD/svg11.dtd">
<!-- Generated by graphviz version 2.38.0 (20140413.2041)
 -->
<!-- Title: THBuilder::getTHTree Pages: 1 -->
<svg width="453pt" height="64pt"
 viewBox="0.00 0.00 453.00 64.00" xmlns="http://www.w3.org/2000/svg" xmlns:xlink="http://www.w3.org/1999/xlink">
<g id="graph0" class="graph" transform="scale(1 1) rotate(0) translate(4 60)">
<title>THBuilder::getTHTree</title>
<!-- Node1 -->
<g id="node1" class="node"><title>Node1</title>
<polygon fill="#bfbfbf" stroke="black" points="0,-6.5 0,-26.5 124,-26.5 124,-6.5 0,-6.5"/>
<text text-anchor="middle" x="62" y="-13.7" font-family="Helvetica,sans-Serif" font-size="11.00">THBuilder::getTHTree</text>
</g>
<!-- Node2 -->
<g id="node2" class="node"><title>Node2</title>
<g id="a_node2"><a xlink:href="$classTHBuilder_1_1SearchGroup.xhtml#a794cf5448380674b51022b5d65a240e2" xlink:title="Constructor to create the internal Search Group. ">
<polygon fill="none" stroke="black" points="160,-23.5 160,-55.5 296,-55.5 296,-23.5 160,-23.5"/>
<text text-anchor="start" x="168" y="-42.7" font-family="Helvetica,sans-Serif" font-size="11.00">THBuilder::SearchGroup</text>
<text text-anchor="middle" x="228" y="-30.7" font-family="Helvetica,sans-Serif" font-size="11.00">::SearchGroup</text>
</a>
</g>
</g>
<!-- Node1&#45;&gt;Node2 -->
<g id="edge1" class="edge"><title>Node1&#45;&gt;Node2</title>
<path fill="none" stroke="midnightblue" d="M134.024,-26.4606C142.588,-27.6617 151.315,-28.8856 159.822,-30.0787"/>
<polygon fill="midnightblue" stroke="midnightblue" points="134.457,-22.9872 124.068,-25.0644 133.485,-29.9194 134.457,-22.9872"/>
</g>
<!-- Node3 -->
<g id="node3" class="node"><title>Node3</title>
<g id="a_node3"><a xlink:href="$classTHBuilder_1_1THImpl.xhtml#a0d6e2fd43f50755ff2738e924f66690d" xlink:title="THBuilder::THImpl::\lTHImpl">
<polygon fill="none" stroke="black" points="332,-0.5 332,-32.5 445,-32.5 445,-0.5 332,-0.5"/>
<text text-anchor="start" x="340" y="-19.7" font-family="Helvetica,sans-Serif" font-size="11.00">THBuilder::THImpl::</text>
<text text-anchor="middle" x="388.5" y="-7.7" font-family="Helvetica,sans-Serif" font-size="11.00">THImpl</text>
</a>
</g>
</g>
<!-- Node1&#45;&gt;Node3 -->
<g id="edge3" class="edge"><title>Node1&#45;&gt;Node3</title>
<path fill="none" stroke="midnightblue" d="M134.199,-14.864C142.89,-14.7139 151.647,-14.5861 160,-14.5 220.441,-13.877 235.559,-13.8395 296,-14.5 307.598,-14.6267 320.022,-14.8438 331.858,-15.0894"/>
<polygon fill="midnightblue" stroke="midnightblue" points="133.989,-11.3672 124.055,-15.0493 134.117,-18.366 133.989,-11.3672"/>
</g>
<!-- Node2&#45;&gt;Node3 -->
<g id="edge2" class="edge"><title>Node2&#45;&gt;Node3</title>
<path fill="none" stroke="midnightblue" d="M306.247,-28.2906C314.824,-27.0461 323.431,-25.7971 331.668,-24.6019"/>
<polygon fill="midnightblue" stroke="midnightblue" points="305.612,-24.8461 296.218,-29.7459 306.617,-31.7735 305.612,-24.8461"/>
</g>
</g>
</svg>
