<?xml version="1.0" encoding="UTF-8" standalone="no"?>
<!DOCTYPE svg PUBLIC "-//W3C//DTD SVG 1.1//EN"
 "http://www.w3.org/Graphics/SVG/1.1/DTD/svg11.dtd">
<!-- Generated by graphviz version 2.38.0 (20140413.2041)
 -->
<!-- Title: Solution::setFitness Pages: 1 -->
<svg width="477pt" height="182pt"
 viewBox="0.00 0.00 477.00 182.00" xmlns="http://www.w3.org/2000/svg" xmlns:xlink="http://www.w3.org/1999/xlink">
<g id="graph0" class="graph" transform="scale(1 1) rotate(0) translate(4 178)">
<title>Solution::setFitness</title>
<!-- Node1 -->
<g id="node1" class="node"><title>Node1</title>
<polygon fill="#bfbfbf" stroke="black" points="0,-70.5 0,-90.5 110,-90.5 110,-70.5 0,-70.5"/>
<text text-anchor="middle" x="55" y="-77.7" font-family="Helvetica,sans-Serif" font-size="11.00">Solution::setFitness</text>
</g>
<!-- Node2 -->
<g id="node2" class="node"><title>Node2</title>
<g id="a_node2"><a xlink:href="$classRosenbrockFitnessPolicy.xhtml#af93be349121f72b580d64243d2daf5f2" xlink:title="RosenbrockFitnessPolicy\l::apply">
<polygon fill="none" stroke="black" points="146,-141.5 146,-173.5 283,-173.5 283,-141.5 146,-141.5"/>
<text text-anchor="start" x="154" y="-160.7" font-family="Helvetica,sans-Serif" font-size="11.00">RosenbrockFitnessPolicy</text>
<text text-anchor="middle" x="214.5" y="-148.7" font-family="Helvetica,sans-Serif" font-size="11.00">::apply</text>
</a>
</g>
</g>
<!-- Node1&#45;&gt;Node2 -->
<g id="edge1" class="edge"><title>Node1&#45;&gt;Node2</title>
<path fill="none" stroke="midnightblue" d="M80.0912,-95.9172C97.881,-106.928 122.913,-121.651 146,-132.5 152.673,-135.636 159.855,-138.654 166.958,-141.443"/>
<polygon fill="midnightblue" stroke="midnightblue" points="81.8306,-92.8768 71.4972,-90.5379 78.1167,-98.8104 81.8306,-92.8768"/>
</g>
<!-- Node4 -->
<g id="node4" class="node"><title>Node4</title>
<g id="a_node4"><a xlink:href="$classRosenbrockFitnessPolicy.xhtml#a99011107bbcaadee1cba44a0c8646bd0" xlink:title="RosenbrockFitnessPolicy\l::setWorstFitness">
<polygon fill="none" stroke="black" points="146,-90.5 146,-122.5 283,-122.5 283,-90.5 146,-90.5"/>
<text text-anchor="start" x="154" y="-109.7" font-family="Helvetica,sans-Serif" font-size="11.00">RosenbrockFitnessPolicy</text>
<text text-anchor="middle" x="214.5" y="-97.7" font-family="Helvetica,sans-Serif" font-size="11.00">::setWorstFitness</text>
</a>
</g>
</g>
<!-- Node1&#45;&gt;Node4 -->
<g id="edge3" class="edge"><title>Node1&#45;&gt;Node4</title>
<path fill="none" stroke="midnightblue" d="M120.324,-91.1185C128.736,-92.5072 137.375,-93.9333 145.84,-95.3307"/>
<polygon fill="midnightblue" stroke="midnightblue" points="120.639,-87.6233 110.203,-89.4477 119.499,-94.5298 120.639,-87.6233"/>
</g>
<!-- Node5 -->
<g id="node5" class="node"><title>Node5</title>
<g id="a_node5"><a xlink:href="$classRosenbrockFitnessPolicy.xhtml#a1ed5f0d7c07f508c1db7cf787e8a9ec2" xlink:title="RosenbrockFitnessPolicy\l::setBestFitness">
<polygon fill="none" stroke="black" points="146,-39.5 146,-71.5 283,-71.5 283,-39.5 146,-39.5"/>
<text text-anchor="start" x="154" y="-58.7" font-family="Helvetica,sans-Serif" font-size="11.00">RosenbrockFitnessPolicy</text>
<text text-anchor="middle" x="214.5" y="-46.7" font-family="Helvetica,sans-Serif" font-size="11.00">::setBestFitness</text>
</a>
</g>
</g>
<!-- Node1&#45;&gt;Node5 -->
<g id="edge5" class="edge"><title>Node1&#45;&gt;Node5</title>
<path fill="none" stroke="midnightblue" d="M120.324,-70.2899C128.736,-68.9547 137.375,-67.5833 145.84,-66.2397"/>
<polygon fill="midnightblue" stroke="midnightblue" points="119.53,-66.8719 110.203,-71.8964 120.628,-73.7854 119.53,-66.8719"/>
</g>
<!-- Node6 -->
<g id="node6" class="node"><title>Node6</title>
<g id="a_node6"><a xlink:href="$classTHBuilder_1_1THImpl.xhtml#a943301db5154fd7b672119b5c9917303" xlink:title="Starts the Treasure Hunt mechanisms. ">
<polygon fill="none" stroke="black" points="150.5,-0.5 150.5,-20.5 278.5,-20.5 278.5,-0.5 150.5,-0.5"/>
<text text-anchor="middle" x="214.5" y="-7.7" font-family="Helvetica,sans-Serif" font-size="11.00">THBuilder::THImpl::run</text>
</a>
</g>
</g>
<!-- Node1&#45;&gt;Node6 -->
<g id="edge7" class="edge"><title>Node1&#45;&gt;Node6</title>
<path fill="none" stroke="midnightblue" d="M80.2864,-65.0901C97.9947,-54.3362 122.844,-40.2241 146,-30.5 154.903,-26.7615 164.739,-23.4257 174.084,-20.6002"/>
<polygon fill="midnightblue" stroke="midnightblue" points="78.401,-62.1407 71.7238,-70.3666 82.0734,-68.1001 78.401,-62.1407"/>
</g>
<!-- Node3 -->
<g id="node3" class="node"><title>Node3</title>
<g id="a_node3"><a xlink:href="$classRosenbrockFitnessPolicy.xhtml#aaabda48891e8fb971d24d84a8dc5da31" xlink:title="RosenbrockFitnessPolicy\l::~RosenbrockFitnessPolicy">
<polygon fill="none" stroke="black" points="319,-90.5 319,-122.5 469,-122.5 469,-90.5 319,-90.5"/>
<text text-anchor="start" x="327" y="-109.7" font-family="Helvetica,sans-Serif" font-size="11.00">RosenbrockFitnessPolicy</text>
<text text-anchor="middle" x="394" y="-97.7" font-family="Helvetica,sans-Serif" font-size="11.00">::~RosenbrockFitnessPolicy</text>
</a>
</g>
</g>
<!-- Node2&#45;&gt;Node3 -->
<g id="edge2" class="edge"><title>Node2&#45;&gt;Node3</title>
<path fill="none" stroke="midnightblue" d="M281.4,-138.565C299.749,-133.293 319.496,-127.619 337.203,-122.532"/>
<polygon fill="midnightblue" stroke="midnightblue" points="280.307,-135.238 271.662,-141.363 282.24,-141.966 280.307,-135.238"/>
</g>
<!-- Node4&#45;&gt;Node3 -->
<g id="edge4" class="edge"><title>Node4&#45;&gt;Node3</title>
<path fill="none" stroke="midnightblue" d="M293.33,-106.5C301.779,-106.5 310.363,-106.5 318.768,-106.5"/>
<polygon fill="midnightblue" stroke="midnightblue" points="293.112,-103 283.111,-106.5 293.111,-110 293.112,-103"/>
</g>
<!-- Node5&#45;&gt;Node3 -->
<g id="edge6" class="edge"><title>Node5&#45;&gt;Node3</title>
<path fill="none" stroke="midnightblue" d="M281.4,-74.4346C299.749,-79.7067 319.496,-85.3805 337.203,-90.4683"/>
<polygon fill="midnightblue" stroke="midnightblue" points="282.24,-71.0344 271.662,-71.6367 280.307,-77.7622 282.24,-71.0344"/>
</g>
</g>
</svg>
