<?xml version="1.0" encoding="UTF-8" standalone="no"?>
<!DOCTYPE svg PUBLIC "-//W3C//DTD SVG 1.1//EN"
 "http://www.w3.org/Graphics/SVG/1.1/DTD/svg11.dtd">
<!-- Generated by graphviz version 2.38.0 (20140413.2041)
 -->
<!-- Title: THBuilder::getId Pages: 1 -->
<svg width="424pt" height="131pt"
 viewBox="0.00 0.00 424.00 131.00" xmlns="http://www.w3.org/2000/svg" xmlns:xlink="http://www.w3.org/1999/xlink">
<g id="graph0" class="graph" transform="scale(1 1) rotate(0) translate(4 127)">
<title>THBuilder::getId</title>
<!-- Node1 -->
<g id="node1" class="node"><title>Node1</title>
<polygon fill="#bfbfbf" stroke="black" points="0,-51.5 0,-71.5 95,-71.5 95,-51.5 0,-51.5"/>
<text text-anchor="middle" x="47.5" y="-58.7" font-family="Helvetica,sans-Serif" font-size="11.00">THBuilder::getId</text>
</g>
<!-- Node2 -->
<g id="node2" class="node"><title>Node2</title>
<g id="a_node2"><a xlink:href="$classTHBuilder_1_1SearchGroup.xhtml#a794cf5448380674b51022b5d65a240e2" xlink:title="Constructor to create the internal Search Group. ">
<polygon fill="none" stroke="black" points="131,-90.5 131,-122.5 267,-122.5 267,-90.5 131,-90.5"/>
<text text-anchor="start" x="139" y="-109.7" font-family="Helvetica,sans-Serif" font-size="11.00">THBuilder::SearchGroup</text>
<text text-anchor="middle" x="199" y="-97.7" font-family="Helvetica,sans-Serif" font-size="11.00">::SearchGroup</text>
</a>
</g>
</g>
<!-- Node1&#45;&gt;Node2 -->
<g id="edge1" class="edge"><title>Node1&#45;&gt;Node2</title>
<path fill="none" stroke="midnightblue" d="M91.9435,-74.5766C108.404,-79.5314 127.337,-85.2302 144.609,-90.4292"/>
<polygon fill="midnightblue" stroke="midnightblue" points="92.6352,-71.1298 82.0507,-71.5989 90.6175,-77.8327 92.6352,-71.1298"/>
</g>
<!-- Node3 -->
<g id="node3" class="node"><title>Node3</title>
<g id="a_node3"><a xlink:href="$classTHBuilder_1_1THImpl.xhtml#a0d6e2fd43f50755ff2738e924f66690d" xlink:title="THBuilder::THImpl::\lTHImpl">
<polygon fill="none" stroke="black" points="303,-67.5 303,-99.5 416,-99.5 416,-67.5 303,-67.5"/>
<text text-anchor="start" x="311" y="-86.7" font-family="Helvetica,sans-Serif" font-size="11.00">THBuilder::THImpl::</text>
<text text-anchor="middle" x="359.5" y="-74.7" font-family="Helvetica,sans-Serif" font-size="11.00">THImpl</text>
</a>
</g>
</g>
<!-- Node1&#45;&gt;Node3 -->
<g id="edge3" class="edge"><title>Node1&#45;&gt;Node3</title>
<path fill="none" stroke="midnightblue" d="M105.396,-65.5378C161.657,-69.5305 247.197,-75.6011 302.976,-79.5596"/>
<polygon fill="midnightblue" stroke="midnightblue" points="105.468,-62.0342 95.2458,-64.8174 104.973,-69.0167 105.468,-62.0342"/>
</g>
<!-- Node4 -->
<g id="node4" class="node"><title>Node4</title>
<g id="a_node4"><a xlink:href="$classTHBuilder_1_1THImpl.xhtml#a0406a795161bcba315c11f21fa5a4770" xlink:title="Get the TH instance&#39;s unique ID in the processing grid. ">
<polygon fill="none" stroke="black" points="142.5,-0.5 142.5,-32.5 255.5,-32.5 255.5,-0.5 142.5,-0.5"/>
<text text-anchor="start" x="150.5" y="-19.7" font-family="Helvetica,sans-Serif" font-size="11.00">THBuilder::THImpl::</text>
<text text-anchor="middle" x="199" y="-7.7" font-family="Helvetica,sans-Serif" font-size="11.00">getID</text>
</a>
</g>
</g>
<!-- Node1&#45;&gt;Node4 -->
<g id="edge4" class="edge"><title>Node1&#45;&gt;Node4</title>
<path fill="none" stroke="midnightblue" d="M91.9435,-48.4234C108.404,-43.4686 127.337,-37.7698 144.609,-32.5708"/>
<polygon fill="midnightblue" stroke="midnightblue" points="90.6175,-45.1673 82.0507,-51.4011 92.6352,-51.8702 90.6175,-45.1673"/>
</g>
<!-- Node2&#45;&gt;Node3 -->
<g id="edge2" class="edge"><title>Node2&#45;&gt;Node3</title>
<path fill="none" stroke="midnightblue" d="M277.247,-95.2906C285.824,-94.0461 294.431,-92.7971 302.668,-91.6019"/>
<polygon fill="midnightblue" stroke="midnightblue" points="276.612,-91.8461 267.218,-96.7459 277.617,-98.7735 276.612,-91.8461"/>
</g>
</g>
</svg>
