<?xml version="1.0" encoding="UTF-8" standalone="no"?>
<!DOCTYPE svg PUBLIC "-//W3C//DTD SVG 1.1//EN"
 "http://www.w3.org/Graphics/SVG/1.1/DTD/svg11.dtd">
<!-- Generated by graphviz version 2.38.0 (20140413.2041)
 -->
<!-- Title: PSO::startup Pages: 1 -->
<svg width="271pt" height="263pt"
 viewBox="0.00 0.00 271.00 263.00" xmlns="http://www.w3.org/2000/svg" xmlns:xlink="http://www.w3.org/1999/xlink">
<g id="graph0" class="graph" transform="scale(1 1) rotate(0) translate(4 259)">
<title>PSO::startup</title>
<!-- Node1 -->
<g id="node1" class="node"><title>Node1</title>
<polygon fill="#bfbfbf" stroke="black" points="0,-117.5 0,-137.5 79,-137.5 79,-117.5 0,-117.5"/>
<text text-anchor="middle" x="39.5" y="-124.7" font-family="Helvetica,sans-Serif" font-size="11.00">PSO::startup</text>
</g>
<!-- Node2 -->
<g id="node2" class="node"><title>Node2</title>
<g id="a_node2"><a xlink:href="$classSearch.xhtml#ab83e643822f70e74ec6ee7e81512c886" xlink:title="Search::getPopulationSize">
<polygon fill="none" stroke="black" points="117,-234.5 117,-254.5 261,-254.5 261,-234.5 117,-234.5"/>
<text text-anchor="middle" x="189" y="-241.7" font-family="Helvetica,sans-Serif" font-size="11.00">Search::getPopulationSize</text>
</a>
</g>
</g>
<!-- Node1&#45;&gt;Node2 -->
<g id="edge1" class="edge"><title>Node1&#45;&gt;Node2</title>
<path fill="none" stroke="midnightblue" d="M45.2664,-137.605C55.2455,-157.627 80.3173,-202.393 115,-225.5 117.725,-227.315 120.613,-228.957 123.608,-230.442"/>
<polygon fill="midnightblue" stroke="midnightblue" points="122.284,-233.683 132.852,-234.444 125.065,-227.259 122.284,-233.683"/>
</g>
<!-- Node3 -->
<g id="node3" class="node"><title>Node3</title>
<g id="a_node3"><a xlink:href="$classSearch.xhtml#a5997e43c8ba27480819f3e6358f984f4" xlink:title="Search::getPopulation">
<polygon fill="none" stroke="black" points="127.5,-195.5 127.5,-215.5 250.5,-215.5 250.5,-195.5 127.5,-195.5"/>
<text text-anchor="middle" x="189" y="-202.7" font-family="Helvetica,sans-Serif" font-size="11.00">Search::getPopulation</text>
</a>
</g>
</g>
<!-- Node1&#45;&gt;Node3 -->
<g id="edge2" class="edge"><title>Node1&#45;&gt;Node3</title>
<path fill="none" stroke="midnightblue" d="M50.6253,-137.842C64.1217,-151.042 89.3046,-173.698 115,-186.5 119.245,-188.615 123.751,-190.512 128.358,-192.21"/>
<polygon fill="midnightblue" stroke="midnightblue" points="127.311,-195.551 137.905,-195.423 129.544,-188.916 127.311,-195.551"/>
</g>
<!-- Node4 -->
<g id="node4" class="node"><title>Node4</title>
<g id="a_node4"><a xlink:href="$classSearch.xhtml#a39d6e69d2b1573ba4564819eeee1cb4e" xlink:title="Search::getFitnessPolicy">
<polygon fill="none" stroke="black" points="121.5,-156.5 121.5,-176.5 256.5,-176.5 256.5,-156.5 121.5,-156.5"/>
<text text-anchor="middle" x="189" y="-163.7" font-family="Helvetica,sans-Serif" font-size="11.00">Search::getFitnessPolicy</text>
</a>
</g>
</g>
<!-- Node1&#45;&gt;Node4 -->
<g id="edge3" class="edge"><title>Node1&#45;&gt;Node4</title>
<path fill="none" stroke="midnightblue" d="M77.6218,-137.525C89.5523,-140.731 102.83,-144.283 115,-147.5 122.921,-149.594 131.33,-151.799 139.516,-153.936"/>
<polygon fill="midnightblue" stroke="midnightblue" points="138.783,-157.362 149.342,-156.497 140.548,-150.588 138.783,-157.362"/>
</g>
<!-- Node5 -->
<g id="node5" class="node"><title>Node5</title>
<g id="a_node5"><a xlink:href="$classTHUtil.xhtml#ac88c9d3a82da43e5afc2cb063d2579ec" xlink:title="Get a random seed. ">
<polygon fill="none" stroke="black" points="121.5,-117.5 121.5,-137.5 256.5,-137.5 256.5,-117.5 121.5,-117.5"/>
<text text-anchor="middle" x="189" y="-124.7" font-family="Helvetica,sans-Serif" font-size="11.00">THUtil::getRandomSeed</text>
</a>
</g>
</g>
<!-- Node1&#45;&gt;Node5 -->
<g id="edge4" class="edge"><title>Node1&#45;&gt;Node5</title>
<path fill="none" stroke="midnightblue" d="M79.2539,-127.5C89.1217,-127.5 100.078,-127.5 111.127,-127.5"/>
<polygon fill="midnightblue" stroke="midnightblue" points="111.273,-131 121.273,-127.5 111.273,-124 111.273,-131"/>
</g>
<!-- Node6 -->
<g id="node6" class="node"><title>Node6</title>
<g id="a_node6"><a xlink:href="$classSearch.xhtml#ad2d5be608164b67b1fb055b0162f4e88" xlink:title="Search::getSearchSpace">
<polygon fill="none" stroke="black" points="120.5,-78.5 120.5,-98.5 257.5,-98.5 257.5,-78.5 120.5,-78.5"/>
<text text-anchor="middle" x="189" y="-85.7" font-family="Helvetica,sans-Serif" font-size="11.00">Search::getSearchSpace</text>
</a>
</g>
</g>
<!-- Node1&#45;&gt;Node6 -->
<g id="edge5" class="edge"><title>Node1&#45;&gt;Node6</title>
<path fill="none" stroke="midnightblue" d="M78.4849,-117.457C97.3243,-112.475 120.272,-106.408 140.285,-101.116"/>
<polygon fill="midnightblue" stroke="midnightblue" points="141.371,-104.449 150.144,-98.5094 139.581,-97.682 141.371,-104.449"/>
</g>
<!-- Node7 -->
<g id="node7" class="node"><title>Node7</title>
<g id="a_node7"><a xlink:href="$classTHUtil.xhtml#ad95b7150adaf4d576de406c8e7b8142c" xlink:title="THUtil::randUniformDouble">
<polygon fill="none" stroke="black" points="115,-39.5 115,-59.5 263,-59.5 263,-39.5 115,-39.5"/>
<text text-anchor="middle" x="189" y="-46.7" font-family="Helvetica,sans-Serif" font-size="11.00">THUtil::randUniformDouble</text>
</a>
</g>
</g>
<!-- Node1&#45;&gt;Node7 -->
<g id="edge6" class="edge"><title>Node1&#45;&gt;Node7</title>
<path fill="none" stroke="midnightblue" d="M50.6855,-117.392C64.247,-104.479 89.5001,-82.2758 115,-69.5 119.993,-66.9984 125.34,-64.7761 130.787,-62.8095"/>
<polygon fill="midnightblue" stroke="midnightblue" points="132.252,-66.011 140.641,-59.5403 130.048,-59.367 132.252,-66.011"/>
</g>
<!-- Node8 -->
<g id="node8" class="node"><title>Node8</title>
<g id="a_node8"><a xlink:href="$classFitnessPolicy.xhtml#acaf9a99792b12c78eaabc0acadd1de9f" xlink:title="Check if the first Solution is better than the second Solution. ">
<polygon fill="none" stroke="black" points="119,-0.5 119,-20.5 259,-20.5 259,-0.5 119,-0.5"/>
<text text-anchor="middle" x="189" y="-7.7" font-family="Helvetica,sans-Serif" font-size="11.00">FitnessPolicy::firstIsBetter</text>
</a>
</g>
</g>
<!-- Node1&#45;&gt;Node8 -->
<g id="edge7" class="edge"><title>Node1&#45;&gt;Node8</title>
<path fill="none" stroke="midnightblue" d="M45.4761,-117.23C55.6542,-97.3334 80.8076,-53.4745 115,-30.5 118.34,-28.2556 121.926,-26.2619 125.651,-24.4912"/>
<polygon fill="midnightblue" stroke="midnightblue" points="127.255,-27.6144 135.135,-20.5328 124.559,-21.1545 127.255,-27.6144"/>
</g>
</g>
</svg>
