<?xml version="1.0" encoding="UTF-8" standalone="no"?>
<!DOCTYPE svg PUBLIC "-//W3C//DTD SVG 1.1//EN"
 "http://www.w3.org/Graphics/SVG/1.1/DTD/svg11.dtd">
<!-- Generated by graphviz version 2.38.0 (20140413.2041)
 -->
<!-- Title: THBuilder::getMaxTimeSeconds Pages: 1 -->
<svg width="345pt" height="80pt"
 viewBox="0.00 0.00 345.00 80.00" xmlns="http://www.w3.org/2000/svg" xmlns:xlink="http://www.w3.org/1999/xlink">
<g id="graph0" class="graph" transform="scale(1 1) rotate(0) translate(4 76)">
<title>THBuilder::getMaxTimeSeconds</title>
<!-- Node1 -->
<g id="node1" class="node"><title>Node1</title>
<polygon fill="#bfbfbf" stroke="black" points="0,-22.5 0,-42.5 173,-42.5 173,-22.5 0,-22.5"/>
<text text-anchor="middle" x="86.5" y="-29.7" font-family="Helvetica,sans-Serif" font-size="11.00">THBuilder::getMaxTimeSeconds</text>
</g>
<!-- Node2 -->
<g id="node2" class="node"><title>Node2</title>
<g id="a_node2"><a xlink:href="$classTHBuilder_1_1THImpl.xhtml#a0d6e2fd43f50755ff2738e924f66690d" xlink:title="THBuilder::THImpl::\lTHImpl">
<polygon fill="none" stroke="black" points="216.5,-39.5 216.5,-71.5 329.5,-71.5 329.5,-39.5 216.5,-39.5"/>
<text text-anchor="start" x="224.5" y="-58.7" font-family="Helvetica,sans-Serif" font-size="11.00">THBuilder::THImpl::</text>
<text text-anchor="middle" x="273" y="-46.7" font-family="Helvetica,sans-Serif" font-size="11.00">THImpl</text>
</a>
</g>
</g>
<!-- Node1&#45;&gt;Node2 -->
<g id="edge1" class="edge"><title>Node1&#45;&gt;Node2</title>
<path fill="none" stroke="midnightblue" d="M177.874,-43.7661C190.968,-45.3985 204.113,-47.0372 216.253,-48.5505"/>
<polygon fill="midnightblue" stroke="midnightblue" points="178.244,-40.2852 167.888,-42.5212 177.378,-47.2315 178.244,-40.2852"/>
</g>
<!-- Node3 -->
<g id="node3" class="node"><title>Node3</title>
<g id="a_node3"><a xlink:href="$classTHBuilder_1_1THImpl.xhtml#a943301db5154fd7b672119b5c9917303" xlink:title="Starts the Treasure Hunt mechanisms. ">
<polygon fill="none" stroke="black" points="209,-0.5 209,-20.5 337,-20.5 337,-0.5 209,-0.5"/>
<text text-anchor="middle" x="273" y="-7.7" font-family="Helvetica,sans-Serif" font-size="11.00">THBuilder::THImpl::run</text>
</a>
</g>
</g>
<!-- Node1&#45;&gt;Node3 -->
<g id="edge2" class="edge"><title>Node1&#45;&gt;Node3</title>
<path fill="none" stroke="midnightblue" d="M181.422,-21.3007C190.682,-20.1965 199.92,-19.0949 208.762,-18.0406"/>
<polygon fill="midnightblue" stroke="midnightblue" points="180.897,-17.8383 171.382,-22.4978 181.726,-24.7891 180.897,-17.8383"/>
</g>
</g>
</svg>
