<?xml version="1.0" encoding="UTF-8" standalone="no"?>
<!DOCTYPE svg PUBLIC "-//W3C//DTD SVG 1.1//EN"
 "http://www.w3.org/Graphics/SVG/1.1/DTD/svg11.dtd">
<!-- Generated by graphviz version 2.38.0 (20140413.2041)
 -->
<!-- Title: THUtil::randUniformDouble Pages: 1 -->
<svg width="713pt" height="329pt"
 viewBox="0.00 0.00 713.00 329.00" xmlns="http://www.w3.org/2000/svg" xmlns:xlink="http://www.w3.org/1999/xlink">
<g id="graph0" class="graph" transform="scale(1 1) rotate(0) translate(4 325)">
<title>THUtil::randUniformDouble</title>
<!-- Node1 -->
<g id="node1" class="node"><title>Node1</title>
<polygon fill="#bfbfbf" stroke="black" points="0,-160.5 0,-180.5 148,-180.5 148,-160.5 0,-160.5"/>
<text text-anchor="middle" x="74" y="-167.7" font-family="Helvetica,sans-Serif" font-size="11.00">THUtil::randUniformDouble</text>
</g>
<!-- Node2 -->
<g id="node2" class="node"><title>Node2</title>
<g id="a_node2"><a xlink:href="$classHillClimbing.xhtml#a7c67b745880b93be26eb4fa113f0e37f" xlink:title="Perform the actual optimization only until the next improvement. ">
<polygon fill="none" stroke="black" points="217.5,-300.5 217.5,-320.5 317.5,-320.5 317.5,-300.5 217.5,-300.5"/>
<text text-anchor="middle" x="267.5" y="-307.7" font-family="Helvetica,sans-Serif" font-size="11.00">HillClimbing::next</text>
</a>
</g>
</g>
<!-- Node1&#45;&gt;Node2 -->
<g id="edge1" class="edge"><title>Node1&#45;&gt;Node2</title>
<path fill="none" stroke="midnightblue" d="M86.3167,-189.024C103.791,-215.971 139.97,-265.587 184,-291.5 194.007,-297.389 205.694,-301.453 217.072,-304.257"/>
<polygon fill="midnightblue" stroke="midnightblue" points="89.2372,-187.094 80.9335,-180.513 83.3214,-190.836 89.2372,-187.094"/>
</g>
<!-- Node3 -->
<g id="node3" class="node"><title>Node3</title>
<g id="a_node3"><a xlink:href="$classPSO.xhtml#a8fb3e9a46396074cbbdc2d04a83783a5" xlink:title="Initialize the algorithm for a new optimization. ">
<polygon fill="none" stroke="black" points="228,-261.5 228,-281.5 307,-281.5 307,-261.5 228,-261.5"/>
<text text-anchor="middle" x="267.5" y="-268.7" font-family="Helvetica,sans-Serif" font-size="11.00">PSO::startup</text>
</a>
</g>
</g>
<!-- Node1&#45;&gt;Node3 -->
<g id="edge2" class="edge"><title>Node1&#45;&gt;Node3</title>
<path fill="none" stroke="midnightblue" d="M92.6876,-187.589C113.063,-206.317 148.338,-235.9 184,-252.5 197.591,-258.827 213.449,-263.128 227.61,-266.014"/>
<polygon fill="midnightblue" stroke="midnightblue" points="94.8429,-184.812 85.1525,-180.529 90.0567,-189.92 94.8429,-184.812"/>
</g>
<!-- Node4 -->
<g id="node4" class="node"><title>Node4</title>
<g id="a_node4"><a xlink:href="$classPSO.xhtml#a25e15ab34186e7c52a4789108ae24ece" xlink:title="Perform the actual optimization only until the next improvement. ">
<polygon fill="none" stroke="black" points="234.5,-222.5 234.5,-242.5 300.5,-242.5 300.5,-222.5 234.5,-222.5"/>
<text text-anchor="middle" x="267.5" y="-229.7" font-family="Helvetica,sans-Serif" font-size="11.00">PSO::next</text>
</a>
</g>
</g>
<!-- Node1&#45;&gt;Node4 -->
<g id="edge3" class="edge"><title>Node1&#45;&gt;Node4</title>
<path fill="none" stroke="midnightblue" d="M113.514,-183.919C134.329,-191.085 160.511,-199.957 184,-207.5 200.529,-212.808 219.018,-218.439 234.297,-223.01"/>
<polygon fill="midnightblue" stroke="midnightblue" points="114.655,-180.61 104.06,-180.655 112.37,-187.227 114.655,-180.61"/>
</g>
<!-- Node5 -->
<g id="node5" class="node"><title>Node5</title>
<g id="a_node5"><a xlink:href="$classBetaRelocationStrategyPolicy.xhtml#aeadaa254d012725ab1a67419d9cb37ef" xlink:title="This method implements the policy to relocate TH instance&#39;s population at every TH instance&#39;s iterati...">
<polygon fill="none" stroke="black" points="392,-159.5 392,-191.5 551,-191.5 551,-159.5 392,-159.5"/>
<text text-anchor="start" x="400" y="-178.7" font-family="Helvetica,sans-Serif" font-size="11.00">BetaRelocationStrategyPolicy</text>
<text text-anchor="middle" x="471.5" y="-166.7" font-family="Helvetica,sans-Serif" font-size="11.00">::apply</text>
</a>
</g>
</g>
<!-- Node1&#45;&gt;Node5 -->
<g id="edge4" class="edge"><title>Node1&#45;&gt;Node5</title>
<path fill="none" stroke="midnightblue" d="M158.401,-173.845C167.045,-174.106 175.699,-174.333 184,-174.5 254.243,-175.911 334.193,-176.069 391.754,-175.928"/>
<polygon fill="midnightblue" stroke="midnightblue" points="158.387,-170.343 148.281,-173.523 158.164,-177.339 158.387,-170.343"/>
</g>
<!-- Node6 -->
<g id="node6" class="node"><title>Node6</title>
<g id="a_node6"><a xlink:href="$classReinforcementLearningSearchAlgorithmSelectionPolicy.xhtml#a4bd477b9e70030b13bc214cec3fa71d1" xlink:title="Choose the next optimization algorithm to be executed. ">
<polygon fill="none" stroke="black" points="184,-132.5 184,-164.5 351,-164.5 351,-132.5 184,-132.5"/>
<text text-anchor="start" x="192" y="-151.7" font-family="Helvetica,sans-Serif" font-size="11.00">ReinforcementLearningSearch</text>
<text text-anchor="middle" x="267.5" y="-139.7" font-family="Helvetica,sans-Serif" font-size="11.00">AlgorithmSelectionPolicy::apply</text>
</a>
</g>
</g>
<!-- Node1&#45;&gt;Node6 -->
<g id="edge5" class="edge"><title>Node1&#45;&gt;Node6</title>
<path fill="none" stroke="midnightblue" d="M158.39,-160.92C166.796,-159.954 175.331,-158.974 183.731,-158.009"/>
<polygon fill="midnightblue" stroke="midnightblue" points="157.753,-157.47 148.218,-162.089 158.552,-164.424 157.753,-157.47"/>
</g>
<!-- Node7 -->
<g id="node7" class="node"><title>Node7</title>
<g id="a_node7"><a xlink:href="$classSolution.xhtml#a84c713b707a570add53e85a28196bb3e" xlink:title="Reset the position of the current Solution in the search space. ">
<polygon fill="none" stroke="black" points="224.5,-93.5 224.5,-113.5 310.5,-113.5 310.5,-93.5 224.5,-93.5"/>
<text text-anchor="middle" x="267.5" y="-100.7" font-family="Helvetica,sans-Serif" font-size="11.00">Solution::reset</text>
</a>
</g>
</g>
<!-- Node1&#45;&gt;Node7 -->
<g id="edge6" class="edge"><title>Node1&#45;&gt;Node7</title>
<path fill="none" stroke="midnightblue" d="M103.917,-155.974C125.551,-145.551 156.091,-131.767 184,-122.5 196.833,-118.239 211.097,-114.587 224.107,-111.656"/>
<polygon fill="midnightblue" stroke="midnightblue" points="102.097,-152.968 94.6447,-160.498 105.167,-159.259 102.097,-152.968"/>
</g>
<!-- Node8 -->
<g id="node8" class="node"><title>Node8</title>
<g id="a_node8"><a xlink:href="$classTHBuilder_1_1SearchGroup.xhtml#aafebb836a1ec681213319a024a254ca8" xlink:title="Reset the location of the population individuals and calculate the fitness. ">
<polygon fill="none" stroke="black" points="403.5,-51.5 403.5,-83.5 539.5,-83.5 539.5,-51.5 403.5,-51.5"/>
<text text-anchor="start" x="411.5" y="-70.7" font-family="Helvetica,sans-Serif" font-size="11.00">THBuilder::SearchGroup</text>
<text text-anchor="middle" x="471.5" y="-58.7" font-family="Helvetica,sans-Serif" font-size="11.00">::resetPopulation</text>
</a>
</g>
</g>
<!-- Node1&#45;&gt;Node8 -->
<g id="edge11" class="edge"><title>Node1&#45;&gt;Node8</title>
<path fill="none" stroke="midnightblue" d="M90.4881,-152.753C109.937,-131.88 145.46,-98.2141 184,-83.5 255.207,-56.3143 343.635,-55.9089 403.265,-59.9835"/>
<polygon fill="midnightblue" stroke="midnightblue" points="87.7535,-150.558 83.623,-160.315 92.9362,-155.264 87.7535,-150.558"/>
</g>
<!-- Node11 -->
<g id="node11" class="node"><title>Node11</title>
<g id="a_node11"><a xlink:href="$classTHUtil.xhtml#a5318218946e65adbdb431a2664d04016" xlink:title="THUtil::randUniformInt">
<polygon fill="none" stroke="black" points="205,-12.5 205,-32.5 330,-32.5 330,-12.5 205,-12.5"/>
<text text-anchor="middle" x="267.5" y="-19.7" font-family="Helvetica,sans-Serif" font-size="11.00">THUtil::randUniformInt</text>
</a>
</g>
</g>
<!-- Node1&#45;&gt;Node11 -->
<g id="edge12" class="edge"><title>Node1&#45;&gt;Node11</title>
<path fill="none" stroke="midnightblue" d="M87.2449,-151.917C105.402,-125.735 141.89,-78.107 184,-50.5 195.89,-42.7048 210.172,-36.859 223.486,-32.5821"/>
<polygon fill="midnightblue" stroke="midnightblue" points="84.3316,-149.977 81.6077,-160.216 90.122,-153.911 84.3316,-149.977"/>
</g>
<!-- Node7&#45;&gt;Node5 -->
<g id="edge7" class="edge"><title>Node7&#45;&gt;Node5</title>
<path fill="none" stroke="midnightblue" d="M320.85,-113.967C330.952,-116.432 341.379,-119.292 351,-122.5 381.572,-132.696 414.996,-147.888 438.701,-159.396"/>
<polygon fill="midnightblue" stroke="midnightblue" points="321.435,-110.509 310.9,-111.635 319.838,-117.325 321.435,-110.509"/>
</g>
<!-- Node7&#45;&gt;Node8 -->
<g id="edge8" class="edge"><title>Node7&#45;&gt;Node8</title>
<path fill="none" stroke="midnightblue" d="M320.9,-94.1614C346.005,-89.6872 376.37,-84.2756 403.166,-79.5002"/>
<polygon fill="midnightblue" stroke="midnightblue" points="320.077,-90.7529 310.846,-95.9532 321.305,-97.6443 320.077,-90.7529"/>
</g>
<!-- Node10 -->
<g id="node10" class="node"><title>Node10</title>
<g id="a_node10"><a xlink:href="$classTHBuilder_1_1THImpl.xhtml#a943301db5154fd7b672119b5c9917303" xlink:title="Starts the Treasure Hunt mechanisms. ">
<polygon fill="none" stroke="black" points="407.5,-102.5 407.5,-122.5 535.5,-122.5 535.5,-102.5 407.5,-102.5"/>
<text text-anchor="middle" x="471.5" y="-109.7" font-family="Helvetica,sans-Serif" font-size="11.00">THBuilder::THImpl::run</text>
</a>
</g>
</g>
<!-- Node7&#45;&gt;Node10 -->
<g id="edge10" class="edge"><title>Node7&#45;&gt;Node10</title>
<path fill="none" stroke="midnightblue" d="M321.043,-105.841C347.482,-107.019 379.726,-108.456 407.488,-109.693"/>
<polygon fill="midnightblue" stroke="midnightblue" points="320.992,-102.335 310.846,-105.387 320.68,-109.328 320.992,-102.335"/>
</g>
<!-- Node9 -->
<g id="node9" class="node"><title>Node9</title>
<g id="a_node9"><a xlink:href="$classTHBuilder_1_1THImpl.xhtml#a0d6e2fd43f50755ff2738e924f66690d" xlink:title="THBuilder::THImpl::\lTHImpl">
<polygon fill="none" stroke="black" points="592,-51.5 592,-83.5 705,-83.5 705,-51.5 592,-51.5"/>
<text text-anchor="start" x="600" y="-70.7" font-family="Helvetica,sans-Serif" font-size="11.00">THBuilder::THImpl::</text>
<text text-anchor="middle" x="648.5" y="-58.7" font-family="Helvetica,sans-Serif" font-size="11.00">THImpl</text>
</a>
</g>
</g>
<!-- Node8&#45;&gt;Node9 -->
<g id="edge9" class="edge"><title>Node8&#45;&gt;Node9</title>
<path fill="none" stroke="midnightblue" d="M549.875,-67.5C564.021,-67.5 578.525,-67.5 591.881,-67.5"/>
<polygon fill="midnightblue" stroke="midnightblue" points="549.659,-64.0001 539.659,-67.5 549.659,-71.0001 549.659,-64.0001"/>
</g>
<!-- Node12 -->
<g id="node12" class="node"><title>Node12</title>
<g id="a_node12"><a xlink:href="$classRandomBestListSelectionPolicy.xhtml#ae32f042697269d74c6fed4b9ff6771c8" xlink:title="Implements the policy that selects a random solution from the best&#45;list. ">
<polygon fill="none" stroke="black" points="387,-0.5 387,-32.5 556,-32.5 556,-0.5 387,-0.5"/>
<text text-anchor="start" x="395" y="-19.7" font-family="Helvetica,sans-Serif" font-size="11.00">RandomBestListSelectionPolicy</text>
<text text-anchor="middle" x="471.5" y="-7.7" font-family="Helvetica,sans-Serif" font-size="11.00">::apply</text>
</a>
</g>
</g>
<!-- Node11&#45;&gt;Node12 -->
<g id="edge13" class="edge"><title>Node11&#45;&gt;Node12</title>
<path fill="none" stroke="midnightblue" d="M340.442,-20.3631C355.472,-19.9167 371.44,-19.4424 386.853,-18.9846"/>
<polygon fill="midnightblue" stroke="midnightblue" points="340.096,-16.8717 330.204,-20.6672 340.304,-23.8687 340.096,-16.8717"/>
</g>
</g>
</svg>
