<?xml version="1.0" encoding="UTF-8" standalone="no"?>
<!DOCTYPE svg PUBLIC "-//W3C//DTD SVG 1.1//EN"
 "http://www.w3.org/Graphics/SVG/1.1/DTD/svg11.dtd">
<!-- Generated by graphviz version 2.38.0 (20140413.2041)
 -->
<!-- Title: THTree::addRootNode Pages: 1 -->
<svg width="267pt" height="68pt"
 viewBox="0.00 0.00 267.00 68.00" xmlns="http://www.w3.org/2000/svg" xmlns:xlink="http://www.w3.org/1999/xlink">
<g id="graph0" class="graph" transform="scale(1 1) rotate(0) translate(4 64)">
<title>THTree::addRootNode</title>
<!-- Node1 -->
<g id="node1" class="node"><title>Node1</title>
<polygon fill="#bfbfbf" stroke="black" points="0,-19.5 0,-39.5 128,-39.5 128,-19.5 0,-19.5"/>
<text text-anchor="middle" x="64" y="-26.7" font-family="Helvetica,sans-Serif" font-size="11.00">THTree::addRootNode</text>
</g>
<!-- Node2 -->
<g id="node2" class="node"><title>Node2</title>
<g id="a_node2"><a xlink:href="$structt__node.xhtml#ae62cd63088f17a9741dfbbfe0b564690" xlink:title="t_node::setID">
<polygon fill="none" stroke="black" points="171,-39.5 171,-59.5 252,-59.5 252,-39.5 171,-39.5"/>
<text text-anchor="middle" x="211.5" y="-46.7" font-family="Helvetica,sans-Serif" font-size="11.00">t_node::setID</text>
</a>
</g>
</g>
<!-- Node1&#45;&gt;Node2 -->
<g id="edge1" class="edge"><title>Node1&#45;&gt;Node2</title>
<path fill="none" stroke="midnightblue" d="M128.395,-38.2141C139.193,-39.6984 150.27,-41.221 160.655,-42.6484"/>
<polygon fill="midnightblue" stroke="midnightblue" points="160.388,-46.1446 170.772,-44.039 161.341,-39.2098 160.388,-46.1446"/>
</g>
<!-- Node3 -->
<g id="node3" class="node"><title>Node3</title>
<g id="a_node3"><a xlink:href="$structt__node.xhtml#a4fe63274d162dcffb5ff14c848d19883" xlink:title="t_node::setLevel">
<polygon fill="none" stroke="black" points="164,-0.5 164,-20.5 259,-20.5 259,-0.5 164,-0.5"/>
<text text-anchor="middle" x="211.5" y="-7.7" font-family="Helvetica,sans-Serif" font-size="11.00">t_node::setLevel</text>
</a>
</g>
</g>
<!-- Node1&#45;&gt;Node3 -->
<g id="edge2" class="edge"><title>Node1&#45;&gt;Node3</title>
<path fill="none" stroke="midnightblue" d="M128.395,-21.2216C136.888,-20.1125 145.555,-18.9808 153.92,-17.8884"/>
<polygon fill="midnightblue" stroke="midnightblue" points="154.481,-21.345 163.944,-16.5795 153.575,-14.4039 154.481,-21.345"/>
</g>
</g>
</svg>
