<?xml version="1.0" encoding="UTF-8" standalone="no"?>
<!DOCTYPE svg PUBLIC "-//W3C//DTD SVG 1.1//EN"
 "http://www.w3.org/Graphics/SVG/1.1/DTD/svg11.dtd">
<!-- Generated by graphviz version 2.38.0 (20140413.2041)
 -->
<!-- Title: BestList::getListSize Pages: 1 -->
<svg width="326pt" height="182pt"
 viewBox="0.00 0.00 326.00 182.00" xmlns="http://www.w3.org/2000/svg" xmlns:xlink="http://www.w3.org/1999/xlink">
<g id="graph0" class="graph" transform="scale(1 1) rotate(0) translate(4 178)">
<title>BestList::getListSize</title>
<!-- Node1 -->
<g id="node1" class="node"><title>Node1</title>
<polygon fill="#bfbfbf" stroke="black" points="0,-82.5 0,-102.5 113,-102.5 113,-82.5 0,-82.5"/>
<text text-anchor="middle" x="56.5" y="-89.7" font-family="Helvetica,sans-Serif" font-size="11.00">BestList::getListSize</text>
</g>
<!-- Node2 -->
<g id="node2" class="node"><title>Node2</title>
<g id="a_node2"><a xlink:href="$classBestList.xhtml#ae664f030cfdd2440bc05ef4873915d32" xlink:title="Constructor that generates a new best&#45;list initialized as a full copy of another BestList instance...">
<polygon fill="none" stroke="black" points="184,-153.5 184,-173.5 283,-173.5 283,-153.5 184,-153.5"/>
<text text-anchor="middle" x="233.5" y="-160.7" font-family="Helvetica,sans-Serif" font-size="11.00">BestList::BestList</text>
</a>
</g>
</g>
<!-- Node1&#45;&gt;Node2 -->
<g id="edge1" class="edge"><title>Node1&#45;&gt;Node2</title>
<path fill="none" stroke="midnightblue" d="M80.6643,-108.204C98.6178,-119.734 124.487,-134.985 149,-144.5 159.949,-148.75 172.092,-152.186 183.65,-154.906"/>
<polygon fill="midnightblue" stroke="midnightblue" points="82.3304,-105.111 72.0464,-102.564 78.4969,-110.968 82.3304,-105.111"/>
</g>
<!-- Node3 -->
<g id="node3" class="node"><title>Node3</title>
<g id="a_node3"><a xlink:href="$classConvergentBestListUpdatePolicy.xhtml#a6382937d32ac8bab7169f216fcd3048f" xlink:title="This method implements a behavior that focus on convergence speed when updating the solutions from th...">
<polygon fill="none" stroke="black" points="160.5,-102.5 160.5,-134.5 306.5,-134.5 306.5,-102.5 160.5,-102.5"/>
<text text-anchor="start" x="168.5" y="-121.7" font-family="Helvetica,sans-Serif" font-size="11.00">ConvergentBestListUpdate</text>
<text text-anchor="middle" x="233.5" y="-109.7" font-family="Helvetica,sans-Serif" font-size="11.00">Policy::apply</text>
</a>
</g>
</g>
<!-- Node1&#45;&gt;Node3 -->
<g id="edge2" class="edge"><title>Node1&#45;&gt;Node3</title>
<path fill="none" stroke="midnightblue" d="M123.315,-102.278C135.365,-104.068 148,-105.946 160.226,-107.762"/>
<polygon fill="midnightblue" stroke="midnightblue" points="123.758,-98.8057 113.352,-100.798 122.729,-105.73 123.758,-98.8057"/>
</g>
<!-- Node4 -->
<g id="node4" class="node"><title>Node4</title>
<g id="a_node4"><a xlink:href="$classDivergentBestListUpdatePolicy.xhtml#a793d47a0c458eef94b27fbee73e5df0e" xlink:title="This method implements a behavior that promotes diversity when updating the solutions from the BestLi...">
<polygon fill="none" stroke="black" points="151,-51.5 151,-83.5 316,-83.5 316,-51.5 151,-51.5"/>
<text text-anchor="start" x="159" y="-70.7" font-family="Helvetica,sans-Serif" font-size="11.00">DivergentBestListUpdatePolicy</text>
<text text-anchor="middle" x="233.5" y="-58.7" font-family="Helvetica,sans-Serif" font-size="11.00">::apply</text>
</a>
</g>
</g>
<!-- Node1&#45;&gt;Node4 -->
<g id="edge3" class="edge"><title>Node1&#45;&gt;Node4</title>
<path fill="none" stroke="midnightblue" d="M123.298,-83.1003C132.247,-81.8218 141.52,-80.4971 150.709,-79.1844"/>
<polygon fill="midnightblue" stroke="midnightblue" points="122.757,-79.642 113.352,-84.5211 123.747,-86.5716 122.757,-79.642"/>
</g>
<!-- Node5 -->
<g id="node5" class="node"><title>Node5</title>
<g id="a_node5"><a xlink:href="$classRandomBestListSelectionPolicy.xhtml#ae32f042697269d74c6fed4b9ff6771c8" xlink:title="Implements the policy that selects a random solution from the best&#45;list. ">
<polygon fill="none" stroke="black" points="149,-0.5 149,-32.5 318,-32.5 318,-0.5 149,-0.5"/>
<text text-anchor="start" x="157" y="-19.7" font-family="Helvetica,sans-Serif" font-size="11.00">RandomBestListSelectionPolicy</text>
<text text-anchor="middle" x="233.5" y="-7.7" font-family="Helvetica,sans-Serif" font-size="11.00">::apply</text>
</a>
</g>
</g>
<!-- Node1&#45;&gt;Node5 -->
<g id="edge4" class="edge"><title>Node1&#45;&gt;Node5</title>
<path fill="none" stroke="midnightblue" d="M82.267,-77.2147C100.307,-66.5203 125.582,-52.4281 149,-42.5 157.387,-38.9442 166.43,-35.6269 175.36,-32.6318"/>
<polygon fill="midnightblue" stroke="midnightblue" points="80.3104,-74.3071 73.5412,-82.4574 83.9155,-80.3073 80.3104,-74.3071"/>
</g>
</g>
</svg>
