<?xml version="1.0" encoding="UTF-8" standalone="no"?>
<!DOCTYPE svg PUBLIC "-//W3C//DTD SVG 1.1//EN"
 "http://www.w3.org/Graphics/SVG/1.1/DTD/svg11.dtd">
<!-- Generated by graphviz version 2.38.0 (20140413.2041)
 -->
<!-- Title: ReinforcementLearningSearchAlgorithmSelectionPolicy::apply Pages: 1 -->
<svg width="392pt" height="68pt"
 viewBox="0.00 0.00 392.00 68.00" xmlns="http://www.w3.org/2000/svg" xmlns:xlink="http://www.w3.org/1999/xlink">
<g id="graph0" class="graph" transform="scale(1 1) rotate(0) translate(4 64)">
<title>ReinforcementLearningSearchAlgorithmSelectionPolicy::apply</title>
<!-- Node1 -->
<g id="node1" class="node"><title>Node1</title>
<polygon fill="#bfbfbf" stroke="black" points="0,-13.5 0,-45.5 167,-45.5 167,-13.5 0,-13.5"/>
<text text-anchor="start" x="8" y="-32.7" font-family="Helvetica,sans-Serif" font-size="11.00">ReinforcementLearningSearch</text>
<text text-anchor="middle" x="83.5" y="-20.7" font-family="Helvetica,sans-Serif" font-size="11.00">AlgorithmSelectionPolicy::apply</text>
</g>
<!-- Node2 -->
<g id="node2" class="node"><title>Node2</title>
<g id="a_node2"><a xlink:href="$classTHUtil.xhtml#ad95b7150adaf4d576de406c8e7b8142c" xlink:title="THUtil::randUniformDouble">
<polygon fill="none" stroke="black" points="219.5,-39.5 219.5,-59.5 367.5,-59.5 367.5,-39.5 219.5,-39.5"/>
<text text-anchor="middle" x="293.5" y="-46.7" font-family="Helvetica,sans-Serif" font-size="11.00">THUtil::randUniformDouble</text>
</a>
</g>
</g>
<!-- Node1&#45;&gt;Node2 -->
<g id="edge1" class="edge"><title>Node1&#45;&gt;Node2</title>
<path fill="none" stroke="midnightblue" d="M167.006,-37.4333C180.879,-38.7672 195.285,-40.1524 209.179,-41.4884"/>
<polygon fill="midnightblue" stroke="midnightblue" points="208.901,-44.9777 219.19,-42.4509 209.571,-38.0098 208.901,-44.9777"/>
</g>
<!-- Node3 -->
<g id="node3" class="node"><title>Node3</title>
<g id="a_node3"><a xlink:href="$classSearchScore.xhtml#a4a3bd7e51e9de5c7ff2ae9cf4b64d13d" xlink:title="SearchScore::getSearchAlgorithm">
<polygon fill="none" stroke="black" points="203,-0.5 203,-20.5 384,-20.5 384,-0.5 203,-0.5"/>
<text text-anchor="middle" x="293.5" y="-7.7" font-family="Helvetica,sans-Serif" font-size="11.00">SearchScore::getSearchAlgorithm</text>
</a>
</g>
</g>
<!-- Node1&#45;&gt;Node3 -->
<g id="edge2" class="edge"><title>Node1&#45;&gt;Node3</title>
<path fill="none" stroke="midnightblue" d="M167.006,-21.9634C175.484,-21.1889 184.162,-20.3963 192.8,-19.6072"/>
<polygon fill="midnightblue" stroke="midnightblue" points="193.267,-23.0792 202.908,-18.6839 192.631,-16.1082 193.267,-23.0792"/>
</g>
</g>
</svg>
