<?xml version="1.0" encoding="UTF-8" standalone="no"?>
<!DOCTYPE svg PUBLIC "-//W3C//DTD SVG 1.1//EN"
 "http://www.w3.org/Graphics/SVG/1.1/DTD/svg11.dtd">
<!-- Generated by graphviz version 2.38.0 (20140413.2041)
 -->
<!-- Title: Region::getPartitions Pages: 1 -->
<svg width="591pt" height="131pt"
 viewBox="0.00 0.00 591.00 131.00" xmlns="http://www.w3.org/2000/svg" xmlns:xlink="http://www.w3.org/1999/xlink">
<g id="graph0" class="graph" transform="scale(1 1) rotate(0) translate(4 127)">
<title>Region::getPartitions</title>
<!-- Node1 -->
<g id="node1" class="node"><title>Node1</title>
<polygon fill="#bfbfbf" stroke="black" points="0,-45.5 0,-65.5 117,-65.5 117,-45.5 0,-45.5"/>
<text text-anchor="middle" x="58.5" y="-52.7" font-family="Helvetica,sans-Serif" font-size="11.00">Region::getPartitions</text>
</g>
<!-- Node2 -->
<g id="node2" class="node"><title>Node2</title>
<g id="a_node2"><a xlink:href="$classSolution.xhtml#a84c713b707a570add53e85a28196bb3e" xlink:title="Reset the position of the current Solution in the search space. ">
<polygon fill="none" stroke="black" points="153,-45.5 153,-65.5 239,-65.5 239,-45.5 153,-45.5"/>
<text text-anchor="middle" x="196" y="-52.7" font-family="Helvetica,sans-Serif" font-size="11.00">Solution::reset</text>
</a>
</g>
</g>
<!-- Node1&#45;&gt;Node2 -->
<g id="edge1" class="edge"><title>Node1&#45;&gt;Node2</title>
<path fill="none" stroke="midnightblue" d="M127.497,-55.5C136.162,-55.5 144.822,-55.5 152.909,-55.5"/>
<polygon fill="midnightblue" stroke="midnightblue" points="127.357,-52.0001 117.357,-55.5 127.357,-59.0001 127.357,-52.0001"/>
</g>
<!-- Node3 -->
<g id="node3" class="node"><title>Node3</title>
<g id="a_node3"><a xlink:href="$classBetaRelocationStrategyPolicy.xhtml#aeadaa254d012725ab1a67419d9cb37ef" xlink:title="This method implements the policy to relocate TH instance&#39;s population at every TH instance&#39;s iterati...">
<polygon fill="none" stroke="black" points="275,-90.5 275,-122.5 434,-122.5 434,-90.5 275,-90.5"/>
<text text-anchor="start" x="283" y="-109.7" font-family="Helvetica,sans-Serif" font-size="11.00">BetaRelocationStrategyPolicy</text>
<text text-anchor="middle" x="354.5" y="-97.7" font-family="Helvetica,sans-Serif" font-size="11.00">::apply</text>
</a>
</g>
</g>
<!-- Node2&#45;&gt;Node3 -->
<g id="edge2" class="edge"><title>Node2&#45;&gt;Node3</title>
<path fill="none" stroke="midnightblue" d="M236.518,-68.7872C248.834,-72.8973 262.471,-77.4168 275,-81.5 283.975,-84.4249 293.54,-87.5034 302.795,-90.4618"/>
<polygon fill="midnightblue" stroke="midnightblue" points="237.565,-65.4467 226.971,-65.5949 235.345,-72.0854 237.565,-65.4467"/>
</g>
<!-- Node4 -->
<g id="node4" class="node"><title>Node4</title>
<g id="a_node4"><a xlink:href="$classTHBuilder_1_1SearchGroup.xhtml#aafebb836a1ec681213319a024a254ca8" xlink:title="Reset the location of the population individuals and calculate the fitness. ">
<polygon fill="none" stroke="black" points="286.5,-39.5 286.5,-71.5 422.5,-71.5 422.5,-39.5 286.5,-39.5"/>
<text text-anchor="start" x="294.5" y="-58.7" font-family="Helvetica,sans-Serif" font-size="11.00">THBuilder::SearchGroup</text>
<text text-anchor="middle" x="354.5" y="-46.7" font-family="Helvetica,sans-Serif" font-size="11.00">::resetPopulation</text>
</a>
</g>
</g>
<!-- Node2&#45;&gt;Node4 -->
<g id="edge3" class="edge"><title>Node2&#45;&gt;Node4</title>
<path fill="none" stroke="midnightblue" d="M249.487,-55.5C261.315,-55.5 274.027,-55.5 286.364,-55.5"/>
<polygon fill="midnightblue" stroke="midnightblue" points="249.351,-52.0001 239.351,-55.5 249.351,-59.0001 249.351,-52.0001"/>
</g>
<!-- Node6 -->
<g id="node6" class="node"><title>Node6</title>
<g id="a_node6"><a xlink:href="$classTHBuilder_1_1THImpl.xhtml#a943301db5154fd7b672119b5c9917303" xlink:title="Starts the Treasure Hunt mechanisms. ">
<polygon fill="none" stroke="black" points="290.5,-0.5 290.5,-20.5 418.5,-20.5 418.5,-0.5 290.5,-0.5"/>
<text text-anchor="middle" x="354.5" y="-7.7" font-family="Helvetica,sans-Serif" font-size="11.00">THBuilder::THImpl::run</text>
</a>
</g>
</g>
<!-- Node2&#45;&gt;Node6 -->
<g id="edge5" class="edge"><title>Node2&#45;&gt;Node6</title>
<path fill="none" stroke="midnightblue" d="M236.41,-42.3555C248.721,-38.3877 262.382,-34.1258 275,-30.5 287.03,-27.0431 300.183,-23.5725 312.225,-20.5156"/>
<polygon fill="midnightblue" stroke="midnightblue" points="235.3,-39.0361 226.872,-45.4567 237.464,-45.693 235.3,-39.0361"/>
</g>
<!-- Node5 -->
<g id="node5" class="node"><title>Node5</title>
<g id="a_node5"><a xlink:href="$classTHBuilder_1_1THImpl.xhtml#a0d6e2fd43f50755ff2738e924f66690d" xlink:title="THBuilder::THImpl::\lTHImpl">
<polygon fill="none" stroke="black" points="470,-39.5 470,-71.5 583,-71.5 583,-39.5 470,-39.5"/>
<text text-anchor="start" x="478" y="-58.7" font-family="Helvetica,sans-Serif" font-size="11.00">THBuilder::THImpl::</text>
<text text-anchor="middle" x="526.5" y="-46.7" font-family="Helvetica,sans-Serif" font-size="11.00">THImpl</text>
</a>
</g>
</g>
<!-- Node4&#45;&gt;Node5 -->
<g id="edge4" class="edge"><title>Node4&#45;&gt;Node5</title>
<path fill="none" stroke="midnightblue" d="M433.017,-55.5C445.401,-55.5 457.999,-55.5 469.747,-55.5"/>
<polygon fill="midnightblue" stroke="midnightblue" points="432.689,-52.0001 422.689,-55.5 432.688,-59.0001 432.689,-52.0001"/>
</g>
</g>
</svg>
