<?xml version="1.0" encoding="UTF-8" standalone="no"?>
<!DOCTYPE svg PUBLIC "-//W3C//DTD SVG 1.1//EN"
 "http://www.w3.org/Graphics/SVG/1.1/DTD/svg11.dtd">
<!-- Generated by graphviz version 2.38.0 (20140413.2041)
 -->
<!-- Title: THBuilder::SearchGroup::resetPopulation Pages: 1 -->
<svg width="555pt" height="439pt"
 viewBox="0.00 0.00 555.00 439.00" xmlns="http://www.w3.org/2000/svg" xmlns:xlink="http://www.w3.org/1999/xlink">
<g id="graph0" class="graph" transform="scale(1 1) rotate(0) translate(4 435)">
<title>THBuilder::SearchGroup::resetPopulation</title>
<!-- Node1 -->
<g id="node1" class="node"><title>Node1</title>
<polygon fill="#bfbfbf" stroke="black" points="0,-248.5 0,-280.5 136,-280.5 136,-248.5 0,-248.5"/>
<text text-anchor="start" x="8" y="-267.7" font-family="Helvetica,sans-Serif" font-size="11.00">THBuilder::SearchGroup</text>
<text text-anchor="middle" x="68" y="-255.7" font-family="Helvetica,sans-Serif" font-size="11.00">::resetPopulation</text>
</g>
<!-- Node2 -->
<g id="node2" class="node"><title>Node2</title>
<g id="a_node2"><a xlink:href="$classTHUtil.xhtml#ac88c9d3a82da43e5afc2cb063d2579ec" xlink:title="Get a random seed. ">
<polygon fill="none" stroke="black" points="191.5,-410.5 191.5,-430.5 326.5,-430.5 326.5,-410.5 191.5,-410.5"/>
<text text-anchor="middle" x="259" y="-417.7" font-family="Helvetica,sans-Serif" font-size="11.00">THUtil::getRandomSeed</text>
</a>
</g>
</g>
<!-- Node1&#45;&gt;Node2 -->
<g id="edge1" class="edge"><title>Node1&#45;&gt;Node2</title>
<path fill="none" stroke="midnightblue" d="M76.3049,-280.563C90.3934,-309.62 124.205,-370.744 172,-401.5 175.142,-403.522 178.468,-405.331 181.914,-406.95"/>
<polygon fill="midnightblue" stroke="midnightblue" points="180.693,-410.232 191.273,-410.804 183.359,-403.759 180.693,-410.232"/>
</g>
<!-- Node3 -->
<g id="node3" class="node"><title>Node3</title>
<g id="a_node3"><a xlink:href="$classTHBuilder.xhtml#a4ee5b9c2c19c8e0adb0991593a4d19e5" xlink:title="Get the startup solutions to be used. ">
<polygon fill="none" stroke="black" points="176,-371.5 176,-391.5 342,-391.5 342,-371.5 176,-371.5"/>
<text text-anchor="middle" x="259" y="-378.7" font-family="Helvetica,sans-Serif" font-size="11.00">THBuilder::getStartupSolutions</text>
</a>
</g>
</g>
<!-- Node1&#45;&gt;Node3 -->
<g id="edge2" class="edge"><title>Node1&#45;&gt;Node3</title>
<path fill="none" stroke="midnightblue" d="M81.0569,-280.502C98.5681,-302.545 133.213,-341.862 172,-362.5 175.797,-364.52 179.797,-366.326 183.91,-367.939"/>
<polygon fill="midnightblue" stroke="midnightblue" points="183.077,-371.356 193.671,-371.367 185.396,-364.752 183.077,-371.356"/>
</g>
<!-- Node4 -->
<g id="node4" class="node"><title>Node4</title>
<g id="a_node4"><a xlink:href="$classTHBuilder.xhtml#a2635dd5906c5a0884eadd4357b57f622" xlink:title="Get the number of startup solutions to be used. ">
<polygon fill="none" stroke="black" points="172,-332.5 172,-352.5 346,-352.5 346,-332.5 172,-332.5"/>
<text text-anchor="middle" x="259" y="-339.7" font-family="Helvetica,sans-Serif" font-size="11.00">THBuilder::getNStartupSolutions</text>
</a>
</g>
</g>
<!-- Node1&#45;&gt;Node4 -->
<g id="edge3" class="edge"><title>Node1&#45;&gt;Node4</title>
<path fill="none" stroke="midnightblue" d="M92.5233,-280.738C112.76,-294.015 143.167,-312.356 172,-323.5 177.99,-325.815 184.33,-327.882 190.743,-329.72"/>
<polygon fill="midnightblue" stroke="midnightblue" points="190.276,-333.218 200.841,-332.422 192.085,-326.456 190.276,-333.218"/>
</g>
<!-- Node5 -->
<g id="node5" class="node"><title>Node5</title>
<g id="a_node5"><a xlink:href="$structt__node.xhtml#a8f72af855ca7d42a9680aca399524499" xlink:title="t_node::isRoot">
<polygon fill="none" stroke="black" points="216,-293.5 216,-313.5 302,-313.5 302,-293.5 216,-293.5"/>
<text text-anchor="middle" x="259" y="-300.7" font-family="Helvetica,sans-Serif" font-size="11.00">t_node::isRoot</text>
</a>
</g>
</g>
<!-- Node1&#45;&gt;Node5 -->
<g id="edge4" class="edge"><title>Node1&#45;&gt;Node5</title>
<path fill="none" stroke="midnightblue" d="M136.166,-278.36C159.065,-283.085 184.307,-288.294 205.848,-292.738"/>
<polygon fill="midnightblue" stroke="midnightblue" points="205.279,-296.195 215.78,-294.788 206.693,-289.339 205.279,-296.195"/>
</g>
<!-- Node7 -->
<g id="node7" class="node"><title>Node7</title>
<g id="a_node7"><a xlink:href="$classTHUtil.xhtml#ad95b7150adaf4d576de406c8e7b8142c" xlink:title="THUtil::randUniformDouble">
<polygon fill="none" stroke="black" points="390.5,-351.5 390.5,-371.5 538.5,-371.5 538.5,-351.5 390.5,-351.5"/>
<text text-anchor="middle" x="464.5" y="-358.7" font-family="Helvetica,sans-Serif" font-size="11.00">THUtil::randUniformDouble</text>
</a>
</g>
</g>
<!-- Node1&#45;&gt;Node7 -->
<g id="edge6" class="edge"><title>Node1&#45;&gt;Node7</title>
<path fill="none" stroke="midnightblue" d="M136.198,-253.138C195.689,-246.651 282.661,-246.214 346,-284.5 371.965,-300.195 357.346,-324.818 382,-342.5 384.38,-344.207 386.89,-345.762 389.495,-347.18"/>
<polygon fill="midnightblue" stroke="midnightblue" points="388.13,-350.406 398.669,-351.49 391.106,-344.07 388.13,-350.406"/>
</g>
<!-- Node8 -->
<g id="node8" class="node"><title>Node8</title>
<g id="a_node8"><a xlink:href="$classSolution.xhtml#a84c713b707a570add53e85a28196bb3e" xlink:title="Reset the position of the current Solution in the search space. ">
<polygon fill="none" stroke="black" points="216,-215.5 216,-235.5 302,-235.5 302,-215.5 216,-215.5"/>
<text text-anchor="middle" x="259" y="-222.7" font-family="Helvetica,sans-Serif" font-size="11.00">Solution::reset</text>
</a>
</g>
</g>
<!-- Node1&#45;&gt;Node8 -->
<g id="edge7" class="edge"><title>Node1&#45;&gt;Node8</title>
<path fill="none" stroke="midnightblue" d="M136.166,-250.64C159.065,-245.915 184.307,-240.706 205.848,-236.262"/>
<polygon fill="midnightblue" stroke="midnightblue" points="206.693,-239.661 215.78,-234.212 205.279,-232.805 206.693,-239.661"/>
</g>
<!-- Node18 -->
<g id="node18" class="node"><title>Node18</title>
<g id="a_node18"><a xlink:href="$classFitnessPolicy.xhtml#a069122b137e7a1b9d66e1d026c4e7f1b" xlink:title="This method calculates the fitness for the Solution instance provided. ">
<polygon fill="none" stroke="black" points="203.5,-176.5 203.5,-196.5 314.5,-196.5 314.5,-176.5 203.5,-176.5"/>
<text text-anchor="middle" x="259" y="-183.7" font-family="Helvetica,sans-Serif" font-size="11.00">FitnessPolicy::apply</text>
</a>
</g>
</g>
<!-- Node1&#45;&gt;Node18 -->
<g id="edge18" class="edge"><title>Node1&#45;&gt;Node18</title>
<path fill="none" stroke="midnightblue" d="M92.5233,-248.262C112.76,-234.985 143.167,-216.644 172,-205.5 178.766,-202.885 185.977,-200.587 193.236,-198.578"/>
<polygon fill="midnightblue" stroke="midnightblue" points="194.326,-201.911 203.128,-196.015 192.57,-195.135 194.326,-201.911"/>
</g>
<!-- Node19 -->
<g id="node19" class="node"><title>Node19</title>
<g id="a_node19"><a xlink:href="$classFitnessPolicy.xhtml#acaf9a99792b12c78eaabc0acadd1de9f" xlink:title="Check if the first Solution is better than the second Solution. ">
<polygon fill="none" stroke="black" points="189,-137.5 189,-157.5 329,-157.5 329,-137.5 189,-137.5"/>
<text text-anchor="middle" x="259" y="-144.7" font-family="Helvetica,sans-Serif" font-size="11.00">FitnessPolicy::firstIsBetter</text>
</a>
</g>
</g>
<!-- Node1&#45;&gt;Node19 -->
<g id="edge19" class="edge"><title>Node1&#45;&gt;Node19</title>
<path fill="none" stroke="midnightblue" d="M81.0569,-248.498C98.5681,-226.455 133.213,-187.138 172,-166.5 175.797,-164.48 179.797,-162.674 183.91,-161.061"/>
<polygon fill="midnightblue" stroke="midnightblue" points="185.396,-164.248 193.671,-157.633 183.077,-157.644 185.396,-164.248"/>
</g>
<!-- Node20 -->
<g id="node20" class="node"><title>Node20</title>
<g id="a_node20"><a xlink:href="$classTHBuilder.xhtml#aca895af8d67060f0f66176aa18f00f98" xlink:title="Get the BestListUpdatePolicy configured. ">
<polygon fill="none" stroke="black" points="179,-86.5 179,-118.5 339,-118.5 339,-86.5 179,-86.5"/>
<text text-anchor="start" x="187" y="-105.7" font-family="Helvetica,sans-Serif" font-size="11.00">THBuilder::getBestListUpdate</text>
<text text-anchor="middle" x="259" y="-93.7" font-family="Helvetica,sans-Serif" font-size="11.00">Policy</text>
</a>
</g>
</g>
<!-- Node1&#45;&gt;Node20 -->
<g id="edge20" class="edge"><title>Node1&#45;&gt;Node20</title>
<path fill="none" stroke="midnightblue" d="M76.7325,-248.285C91.2772,-219.535 125.482,-159.634 172,-127.5 174.261,-125.938 176.619,-124.473 179.051,-123.098"/>
<polygon fill="midnightblue" stroke="midnightblue" points="180.789,-126.142 188.134,-118.507 177.631,-119.895 180.789,-126.142"/>
</g>
<!-- Node6 -->
<g id="node6" class="node"><title>Node6</title>
<g id="a_node6"><a xlink:href="$structt__node.xhtml#a92a900c7452cca30f4974b4b15326c2c" xlink:title="t_node::hasParent">
<polygon fill="none" stroke="black" points="412,-390.5 412,-410.5 517,-410.5 517,-390.5 412,-390.5"/>
<text text-anchor="middle" x="464.5" y="-397.7" font-family="Helvetica,sans-Serif" font-size="11.00">t_node::hasParent</text>
</a>
</g>
</g>
<!-- Node5&#45;&gt;Node6 -->
<g id="edge5" class="edge"><title>Node5&#45;&gt;Node6</title>
<path fill="none" stroke="midnightblue" d="M302.125,-306.616C317.058,-309.366 333.292,-314.391 346,-323.5 370.659,-341.175 357.346,-363.818 382,-381.5 388.006,-385.808 394.844,-389.154 401.946,-391.75"/>
<polygon fill="midnightblue" stroke="midnightblue" points="401.15,-395.169 411.74,-394.846 403.26,-388.495 401.15,-395.169"/>
</g>
<!-- Node8&#45;&gt;Node7 -->
<g id="edge10" class="edge"><title>Node8&#45;&gt;Node7</title>
<path fill="none" stroke="midnightblue" d="M302.327,-229.938C317.631,-233.421 334.062,-239.592 346,-250.5 378.414,-280.118 348.8,-313.766 382,-342.5 383.565,-343.855 385.209,-345.118 386.918,-346.295"/>
<polygon fill="midnightblue" stroke="midnightblue" points="385.524,-349.531 395.936,-351.492 389.019,-343.466 385.524,-349.531"/>
</g>
<!-- Node9 -->
<g id="node9" class="node"><title>Node9</title>
<g id="a_node9"><a xlink:href="$classRegion.xhtml#aed7a4120591db745b5b424fb94588294" xlink:title="Obtains a pointer to the map containing the dimensions that compose the entire search space...">
<polygon fill="none" stroke="black" points="382,-312.5 382,-332.5 547,-332.5 547,-312.5 382,-312.5"/>
<text text-anchor="middle" x="464.5" y="-319.7" font-family="Helvetica,sans-Serif" font-size="11.00">Region::getOriginalDimensions</text>
</a>
</g>
</g>
<!-- Node8&#45;&gt;Node9 -->
<g id="edge8" class="edge"><title>Node8&#45;&gt;Node9</title>
<path fill="none" stroke="midnightblue" d="M302.433,-231.742C317.231,-235.428 333.297,-241.267 346,-250.5 369.034,-267.242 358.524,-287.384 382,-303.5 384.553,-305.252 387.245,-306.845 390.037,-308.292"/>
<polygon fill="midnightblue" stroke="midnightblue" points="388.683,-311.52 399.238,-312.434 391.557,-305.137 388.683,-311.52"/>
</g>
<!-- Node10 -->
<g id="node10" class="node"><title>Node10</title>
<g id="a_node10"><a xlink:href="$classRegion.xhtml#a07c792e7ab2768254d71a0b688ccd935" xlink:title="Get the map of Partitions that compose the current &quot;anchor&quot; sub&#45;region. ">
<polygon fill="none" stroke="black" points="406,-273.5 406,-293.5 523,-293.5 523,-273.5 406,-273.5"/>
<text text-anchor="middle" x="464.5" y="-280.7" font-family="Helvetica,sans-Serif" font-size="11.00">Region::getPartitions</text>
</a>
</g>
</g>
<!-- Node8&#45;&gt;Node10 -->
<g id="edge9" class="edge"><title>Node8&#45;&gt;Node10</title>
<path fill="none" stroke="midnightblue" d="M297.475,-235.619C312.635,-239.914 330.244,-245.158 346,-250.5 362.258,-256.013 365.599,-259.427 382,-264.5 389.515,-266.824 397.496,-269.015 405.411,-271.025"/>
<polygon fill="midnightblue" stroke="midnightblue" points="404.814,-274.483 415.36,-273.471 406.485,-267.685 404.814,-274.483"/>
</g>
<!-- Node11 -->
<g id="node11" class="node"><title>Node11</title>
<g id="a_node11"><a xlink:href="$classTHUtil.xhtml#a1961a690dfec7f0dab0be849d31828ea" xlink:title="THUtil::randNormalDouble">
<polygon fill="none" stroke="black" points="392,-234.5 392,-254.5 537,-254.5 537,-234.5 392,-234.5"/>
<text text-anchor="middle" x="464.5" y="-241.7" font-family="Helvetica,sans-Serif" font-size="11.00">THUtil::randNormalDouble</text>
</a>
</g>
</g>
<!-- Node8&#45;&gt;Node11 -->
<g id="edge11" class="edge"><title>Node8&#45;&gt;Node11</title>
<path fill="none" stroke="midnightblue" d="M302.165,-229.437C325.083,-231.577 354.226,-234.298 381.421,-236.837"/>
<polygon fill="midnightblue" stroke="midnightblue" points="381.449,-240.354 391.731,-237.799 382.1,-233.385 381.449,-240.354"/>
</g>
<!-- Node12 -->
<g id="node12" class="node"><title>Node12</title>
<g id="a_node12"><a xlink:href="$structPosition.xhtml#a56d15266cecdd63cc07d6ec89f90fb4f" xlink:title="Get the lower value from the list of values that represents the Position. ">
<polygon fill="none" stroke="black" points="397.5,-195.5 397.5,-215.5 531.5,-215.5 531.5,-195.5 397.5,-195.5"/>
<text text-anchor="middle" x="464.5" y="-202.7" font-family="Helvetica,sans-Serif" font-size="11.00">Position::getLowerValue</text>
</a>
</g>
</g>
<!-- Node8&#45;&gt;Node12 -->
<g id="edge12" class="edge"><title>Node8&#45;&gt;Node12</title>
<path fill="none" stroke="midnightblue" d="M302.165,-221.356C326.742,-218.941 358.481,-215.821 387.296,-212.989"/>
<polygon fill="midnightblue" stroke="midnightblue" points="387.741,-216.463 397.35,-212.001 387.056,-209.496 387.741,-216.463"/>
</g>
<!-- Node13 -->
<g id="node13" class="node"><title>Node13</title>
<g id="a_node13"><a xlink:href="$structPosition.xhtml#a424b3d5791fcc593c743429e92817982" xlink:title="Get the upper value from the list of values that represents the Position. ">
<polygon fill="none" stroke="black" points="397.5,-156.5 397.5,-176.5 531.5,-176.5 531.5,-156.5 397.5,-156.5"/>
<text text-anchor="middle" x="464.5" y="-163.7" font-family="Helvetica,sans-Serif" font-size="11.00">Position::getUpperValue</text>
</a>
</g>
</g>
<!-- Node8&#45;&gt;Node13 -->
<g id="edge13" class="edge"><title>Node8&#45;&gt;Node13</title>
<path fill="none" stroke="midnightblue" d="M302.259,-218.125C316.418,-215.013 332.125,-210.846 346,-205.5 363.079,-198.919 364.923,-192.086 382,-185.5 387.96,-183.201 394.277,-181.132 400.653,-179.281"/>
<polygon fill="midnightblue" stroke="midnightblue" points="401.948,-182.555 410.677,-176.55 400.108,-175.802 401.948,-182.555"/>
</g>
<!-- Node14 -->
<g id="node14" class="node"><title>Node14</title>
<g id="a_node14"><a xlink:href="$classPartition.xhtml#a418e5b08580b3c1d33390a13eeb8eb0f" xlink:title="Get the lower bound for this partition. ">
<polygon fill="none" stroke="black" points="402,-117.5 402,-137.5 527,-137.5 527,-117.5 402,-117.5"/>
<text text-anchor="middle" x="464.5" y="-124.7" font-family="Helvetica,sans-Serif" font-size="11.00">Partition::getStartPoint</text>
</a>
</g>
</g>
<!-- Node8&#45;&gt;Node14 -->
<g id="edge14" class="edge"><title>Node8&#45;&gt;Node14</title>
<path fill="none" stroke="midnightblue" d="M302.163,-222.437C317.1,-219.693 333.327,-214.657 346,-205.5 370.898,-187.509 357.106,-164.498 382,-146.5 385.284,-144.126 388.819,-142.044 392.513,-140.218"/>
<polygon fill="midnightblue" stroke="midnightblue" points="394.141,-143.329 401.966,-136.187 391.395,-136.889 394.141,-143.329"/>
</g>
<!-- Node15 -->
<g id="node15" class="node"><title>Node15</title>
<g id="a_node15"><a xlink:href="$classPartition.xhtml#a0f3cdf44760e24735951b73dfc9dd3ab" xlink:title="Get the upper bound for this partition. ">
<polygon fill="none" stroke="black" points="403.5,-78.5 403.5,-98.5 525.5,-98.5 525.5,-78.5 403.5,-78.5"/>
<text text-anchor="middle" x="464.5" y="-85.7" font-family="Helvetica,sans-Serif" font-size="11.00">Partition::getEndPoint</text>
</a>
</g>
</g>
<!-- Node8&#45;&gt;Node15 -->
<g id="edge15" class="edge"><title>Node8&#45;&gt;Node15</title>
<path fill="none" stroke="midnightblue" d="M302.316,-223.884C317.619,-221.335 334.053,-216.055 346,-205.5 380.774,-174.777 347.235,-138.232 382,-107.5 385.619,-104.301 389.673,-101.612 393.988,-99.3547"/>
<polygon fill="midnightblue" stroke="midnightblue" points="395.423,-102.547 403.155,-95.3034 392.594,-96.1444 395.423,-102.547"/>
</g>
<!-- Node16 -->
<g id="node16" class="node"><title>Node16</title>
<g id="a_node16"><a xlink:href="$structPosition.xhtml#a0c70a4890ea8ba9e8b9ed6b4f6030751" xlink:title="Limit upper the values of this position. ">
<polygon fill="none" stroke="black" points="389,-39.5 389,-59.5 540,-59.5 540,-39.5 389,-39.5"/>
<text text-anchor="middle" x="464.5" y="-46.7" font-family="Helvetica,sans-Serif" font-size="11.00">Position::adjustUpperBound</text>
</a>
</g>
</g>
<!-- Node8&#45;&gt;Node16 -->
<g id="edge16" class="edge"><title>Node8&#45;&gt;Node16</title>
<path fill="none" stroke="midnightblue" d="M302.418,-224.542C317.916,-222.098 334.458,-216.718 346,-205.5 391.146,-161.622 336.866,-112.391 382,-68.5 383.139,-67.3922 384.33,-66.3443 385.565,-65.3533"/>
<polygon fill="midnightblue" stroke="midnightblue" points="387.873,-68.025 394.304,-59.6056 384.026,-62.1767 387.873,-68.025"/>
</g>
<!-- Node17 -->
<g id="node17" class="node"><title>Node17</title>
<g id="a_node17"><a xlink:href="$structPosition.xhtml#aae9a6d862e9da174648a84f876f8d78d" xlink:title="Limit lower the values of this position. ">
<polygon fill="none" stroke="black" points="389,-0.5 389,-20.5 540,-20.5 540,-0.5 389,-0.5"/>
<text text-anchor="middle" x="464.5" y="-7.7" font-family="Helvetica,sans-Serif" font-size="11.00">Position::adjustLowerBound</text>
</a>
</g>
</g>
<!-- Node8&#45;&gt;Node17 -->
<g id="edge17" class="edge"><title>Node8&#45;&gt;Node17</title>
<path fill="none" stroke="midnightblue" d="M302.302,-224.938C317.972,-222.572 334.665,-217.142 346,-205.5 401.697,-148.294 326.318,-86.7214 382,-29.5 383.077,-28.3937 384.204,-27.3464 385.377,-26.3553"/>
<polygon fill="midnightblue" stroke="midnightblue" points="387.469,-29.1636 393.703,-20.5966 383.487,-23.4064 387.469,-29.1636"/>
</g>
</g>
</svg>
