<?xml version="1.0" encoding="UTF-8" standalone="no"?>
<!DOCTYPE svg PUBLIC "-//W3C//DTD SVG 1.1//EN"
 "http://www.w3.org/Graphics/SVG/1.1/DTD/svg11.dtd">
<!-- Generated by graphviz version 2.38.0 (20140413.2041)
 -->
<!-- Title: PSO::next Pages: 1 -->
<svg width="270pt" height="380pt"
 viewBox="0.00 0.00 270.00 380.00" xmlns="http://www.w3.org/2000/svg" xmlns:xlink="http://www.w3.org/1999/xlink">
<g id="graph0" class="graph" transform="scale(1 1) rotate(0) translate(4 376)">
<title>PSO::next</title>
<!-- Node1 -->
<g id="node1" class="node"><title>Node1</title>
<polygon fill="#bfbfbf" stroke="black" points="0,-175.5 0,-195.5 66,-195.5 66,-175.5 0,-175.5"/>
<text text-anchor="middle" x="33" y="-182.7" font-family="Helvetica,sans-Serif" font-size="11.00">PSO::next</text>
</g>
<!-- Node2 -->
<g id="node2" class="node"><title>Node2</title>
<g id="a_node2"><a xlink:href="$classSearch.xhtml#ad2d5be608164b67b1fb055b0162f4e88" xlink:title="Search::getSearchSpace">
<polygon fill="none" stroke="black" points="113.5,-351.5 113.5,-371.5 250.5,-371.5 250.5,-351.5 113.5,-351.5"/>
<text text-anchor="middle" x="182" y="-358.7" font-family="Helvetica,sans-Serif" font-size="11.00">Search::getSearchSpace</text>
</a>
</g>
</g>
<!-- Node1&#45;&gt;Node2 -->
<g id="edge1" class="edge"><title>Node1&#45;&gt;Node2</title>
<path fill="none" stroke="midnightblue" d="M35.2875,-195.796C39.3746,-223.947 54.7072,-302.743 102,-342.5 103.579,-343.828 105.236,-345.065 106.956,-346.22"/>
<polygon fill="midnightblue" stroke="midnightblue" points="105.588,-349.466 116.019,-351.32 109.021,-343.365 105.588,-349.466"/>
</g>
<!-- Node3 -->
<g id="node3" class="node"><title>Node3</title>
<g id="a_node3"><a xlink:href="$classRegion.xhtml#a300afb04c957e821d362c358253130b8" xlink:title="Get the full search space&#39;s Dimension based on its sequential index. ">
<polygon fill="none" stroke="black" points="102,-312.5 102,-332.5 262,-332.5 262,-312.5 102,-312.5"/>
<text text-anchor="middle" x="182" y="-319.7" font-family="Helvetica,sans-Serif" font-size="11.00">Region::getOriginalDimension</text>
</a>
</g>
</g>
<!-- Node1&#45;&gt;Node3 -->
<g id="edge2" class="edge"><title>Node1&#45;&gt;Node3</title>
<path fill="none" stroke="midnightblue" d="M36.7969,-195.559C43.7251,-218.528 63.9377,-275.042 102,-303.5 104.125,-305.089 106.365,-306.547 108.691,-307.885"/>
<polygon fill="midnightblue" stroke="midnightblue" points="107.508,-311.204 118.027,-312.472 110.595,-304.921 107.508,-311.204"/>
</g>
<!-- Node4 -->
<g id="node4" class="node"><title>Node4</title>
<g id="a_node4"><a xlink:href="$structPosition.xhtml#a4099812c9395b6dbe03ca8d25f7ae7fc" xlink:title="Math method that subtracts the value received from each value in the list that represents the Positio...">
<polygon fill="none" stroke="black" points="143,-273.5 143,-293.5 221,-293.5 221,-273.5 143,-273.5"/>
<text text-anchor="middle" x="182" y="-280.7" font-family="Helvetica,sans-Serif" font-size="11.00">Position::sub</text>
</a>
</g>
</g>
<!-- Node1&#45;&gt;Node4 -->
<g id="edge3" class="edge"><title>Node1&#45;&gt;Node4</title>
<path fill="none" stroke="midnightblue" d="M39.6981,-195.509C49.9005,-212.478 72.9615,-246.774 102,-264.5 111.403,-270.24 122.42,-274.246 133.193,-277.042"/>
<polygon fill="midnightblue" stroke="midnightblue" points="132.434,-280.458 142.963,-279.284 134,-273.636 132.434,-280.458"/>
</g>
<!-- Node5 -->
<g id="node5" class="node"><title>Node5</title>
<g id="a_node5"><a xlink:href="$structPosition.xhtml#a161444b6ea70afe4cfc7bdd81678105c" xlink:title="Math method that multiplies (individually) each value in the list that represents the Position with t...">
<polygon fill="none" stroke="black" points="141.5,-234.5 141.5,-254.5 222.5,-254.5 222.5,-234.5 141.5,-234.5"/>
<text text-anchor="middle" x="182" y="-241.7" font-family="Helvetica,sans-Serif" font-size="11.00">Position::mult</text>
</a>
</g>
</g>
<!-- Node1&#45;&gt;Node5 -->
<g id="edge4" class="edge"><title>Node1&#45;&gt;Node5</title>
<path fill="none" stroke="midnightblue" d="M48.2097,-195.553C61.5393,-204.563 82.3154,-217.549 102,-225.5 111.319,-229.264 121.571,-232.405 131.513,-234.977"/>
<polygon fill="midnightblue" stroke="midnightblue" points="130.763,-238.397 141.307,-237.363 132.419,-231.596 130.763,-238.397"/>
</g>
<!-- Node6 -->
<g id="node6" class="node"><title>Node6</title>
<g id="a_node6"><a xlink:href="$classTHUtil.xhtml#ad95b7150adaf4d576de406c8e7b8142c" xlink:title="THUtil::randUniformDouble">
<polygon fill="none" stroke="black" points="108,-195.5 108,-215.5 256,-215.5 256,-195.5 108,-195.5"/>
<text text-anchor="middle" x="182" y="-202.7" font-family="Helvetica,sans-Serif" font-size="11.00">THUtil::randUniformDouble</text>
</a>
</g>
</g>
<!-- Node1&#45;&gt;Node6 -->
<g id="edge5" class="edge"><title>Node1&#45;&gt;Node6</title>
<path fill="none" stroke="midnightblue" d="M66.2598,-189.889C75.8034,-191.188 86.7186,-192.673 97.9361,-194.199"/>
<polygon fill="midnightblue" stroke="midnightblue" points="97.4643,-197.667 107.845,-195.547 98.408,-190.731 97.4643,-197.667"/>
</g>
<!-- Node7 -->
<g id="node7" class="node"><title>Node7</title>
<g id="a_node7"><a xlink:href="$structPosition.xhtml#a11256d014f2958d21a1198676208df33" xlink:title="Math method that sums (individually) each value in the list that represents the Position with the val...">
<polygon fill="none" stroke="black" points="141.5,-156.5 141.5,-176.5 222.5,-176.5 222.5,-156.5 141.5,-156.5"/>
<text text-anchor="middle" x="182" y="-163.7" font-family="Helvetica,sans-Serif" font-size="11.00">Position::sum</text>
</a>
</g>
</g>
<!-- Node1&#45;&gt;Node7 -->
<g id="edge6" class="edge"><title>Node1&#45;&gt;Node7</title>
<path fill="none" stroke="midnightblue" d="M66.2598,-181.33C85.3754,-178.86 109.994,-175.678 131.522,-172.895"/>
<polygon fill="midnightblue" stroke="midnightblue" points="132.016,-176.361 141.484,-171.607 131.118,-169.418 132.016,-176.361"/>
</g>
<!-- Node8 -->
<g id="node8" class="node"><title>Node8</title>
<g id="a_node8"><a xlink:href="$classPartition.xhtml#a0f3cdf44760e24735951b73dfc9dd3ab" xlink:title="Get the upper bound for this partition. ">
<polygon fill="none" stroke="black" points="121,-117.5 121,-137.5 243,-137.5 243,-117.5 121,-117.5"/>
<text text-anchor="middle" x="182" y="-124.7" font-family="Helvetica,sans-Serif" font-size="11.00">Partition::getEndPoint</text>
</a>
</g>
</g>
<!-- Node1&#45;&gt;Node8 -->
<g id="edge7" class="edge"><title>Node1&#45;&gt;Node8</title>
<path fill="none" stroke="midnightblue" d="M49.3589,-175.377C62.7775,-166.915 83.0265,-155.051 102,-147.5 108.688,-144.838 115.837,-142.445 123.001,-140.318"/>
<polygon fill="midnightblue" stroke="midnightblue" points="124.056,-143.657 132.736,-137.582 122.162,-136.918 124.056,-143.657"/>
</g>
<!-- Node9 -->
<g id="node9" class="node"><title>Node9</title>
<g id="a_node9"><a xlink:href="$classPartition.xhtml#a418e5b08580b3c1d33390a13eeb8eb0f" xlink:title="Get the lower bound for this partition. ">
<polygon fill="none" stroke="black" points="119.5,-78.5 119.5,-98.5 244.5,-98.5 244.5,-78.5 119.5,-78.5"/>
<text text-anchor="middle" x="182" y="-85.7" font-family="Helvetica,sans-Serif" font-size="11.00">Partition::getStartPoint</text>
</a>
</g>
</g>
<!-- Node1&#45;&gt;Node9 -->
<g id="edge8" class="edge"><title>Node1&#45;&gt;Node9</title>
<path fill="none" stroke="midnightblue" d="M40.1198,-175.251C50.6154,-158.594 73.6793,-125.773 102,-108.5 105.841,-106.158 109.946,-104.088 114.191,-102.261"/>
<polygon fill="midnightblue" stroke="midnightblue" points="115.573,-105.48 123.659,-98.6338 113.068,-98.943 115.573,-105.48"/>
</g>
<!-- Node10 -->
<g id="node10" class="node"><title>Node10</title>
<g id="a_node10"><a xlink:href="$classFitnessPolicy.xhtml#a069122b137e7a1b9d66e1d026c4e7f1b" xlink:title="This method calculates the fitness for the Solution instance provided. ">
<polygon fill="none" stroke="black" points="126.5,-39.5 126.5,-59.5 237.5,-59.5 237.5,-39.5 126.5,-39.5"/>
<text text-anchor="middle" x="182" y="-46.7" font-family="Helvetica,sans-Serif" font-size="11.00">FitnessPolicy::apply</text>
</a>
</g>
</g>
<!-- Node1&#45;&gt;Node10 -->
<g id="edge9" class="edge"><title>Node1&#45;&gt;Node10</title>
<path fill="none" stroke="midnightblue" d="M36.9794,-175.302C44.1646,-152.569 64.671,-97.5415 102,-69.5 106.454,-66.1541 111.407,-63.3644 116.6,-61.0388"/>
<polygon fill="midnightblue" stroke="midnightblue" points="118.093,-64.2139 126.15,-57.3342 115.561,-57.6876 118.093,-64.2139"/>
</g>
<!-- Node11 -->
<g id="node11" class="node"><title>Node11</title>
<g id="a_node11"><a xlink:href="$classFitnessPolicy.xhtml#acaf9a99792b12c78eaabc0acadd1de9f" xlink:title="Check if the first Solution is better than the second Solution. ">
<polygon fill="none" stroke="black" points="112,-0.5 112,-20.5 252,-20.5 252,-0.5 112,-0.5"/>
<text text-anchor="middle" x="182" y="-7.7" font-family="Helvetica,sans-Serif" font-size="11.00">FitnessPolicy::firstIsBetter</text>
</a>
</g>
</g>
<!-- Node1&#45;&gt;Node11 -->
<g id="edge10" class="edge"><title>Node1&#45;&gt;Node11</title>
<path fill="none" stroke="midnightblue" d="M35.356,-175.362C39.6181,-147.637 55.3565,-70 102,-30.5 104.227,-28.6142 106.608,-26.9025 109.103,-25.349"/>
<polygon fill="midnightblue" stroke="midnightblue" points="110.772,-28.4257 117.973,-20.6538 107.497,-22.2391 110.772,-28.4257"/>
</g>
</g>
</svg>
