<?xml version="1.0" encoding="UTF-8" standalone="no"?>
<!DOCTYPE svg PUBLIC "-//W3C//DTD SVG 1.1//EN"
 "http://www.w3.org/Graphics/SVG/1.1/DTD/svg11.dtd">
<!-- Generated by graphviz version 2.38.0 (20140413.2041)
 -->
<!-- Title: CSMOn::run Pages: 1 -->
<svg width="264pt" height="146pt"
 viewBox="0.00 0.00 264.00 146.00" xmlns="http://www.w3.org/2000/svg" xmlns:xlink="http://www.w3.org/1999/xlink">
<g id="graph0" class="graph" transform="scale(1 1) rotate(0) translate(4 142)">
<title>CSMOn::run</title>
<!-- Node1 -->
<g id="node1" class="node"><title>Node1</title>
<polygon fill="#bfbfbf" stroke="black" points="0,-58.5 0,-78.5 77,-78.5 77,-58.5 0,-58.5"/>
<text text-anchor="middle" x="38.5" y="-65.7" font-family="Helvetica,sans-Serif" font-size="11.00">CSMOn::run</text>
</g>
<!-- Node2 -->
<g id="node2" class="node"><title>Node2</title>
<g id="a_node2"><a xlink:href="$classSearch.xhtml#afe8c2a6dd96ad12f77de7c8226a76028" xlink:title="Method responsible for setting up all the optimization algorithm for the next optimization. ">
<polygon fill="none" stroke="black" points="139.5,-117.5 139.5,-137.5 229.5,-137.5 229.5,-117.5 139.5,-117.5"/>
<text text-anchor="middle" x="184.5" y="-124.7" font-family="Helvetica,sans-Serif" font-size="11.00">Search::startup</text>
</a>
</g>
</g>
<!-- Node1&#45;&gt;Node2 -->
<g id="edge1" class="edge"><title>Node1&#45;&gt;Node2</title>
<path fill="none" stroke="midnightblue" d="M55.3149,-78.5297C69.851,-87.3985 92.2301,-100.184 113,-108.5 118.428,-110.673 124.189,-112.68 129.986,-114.51"/>
<polygon fill="midnightblue" stroke="midnightblue" points="129.141,-117.91 139.725,-117.421 131.146,-111.204 129.141,-117.91"/>
</g>
<!-- Node3 -->
<g id="node3" class="node"><title>Node3</title>
<g id="a_node3"><a xlink:href="$classSearch.xhtml#a134eb5da3918998d5a3d1e049f7b585e" xlink:title="Get the number of FitnessPolicy evaluations performed since the last time the method startup() was ca...">
<polygon fill="none" stroke="black" points="113,-78.5 113,-98.5 256,-98.5 256,-78.5 113,-78.5"/>
<text text-anchor="middle" x="184.5" y="-85.7" font-family="Helvetica,sans-Serif" font-size="11.00">Search::getCurrentNEvals</text>
</a>
</g>
</g>
<!-- Node1&#45;&gt;Node3 -->
<g id="edge2" class="edge"><title>Node1&#45;&gt;Node3</title>
<path fill="none" stroke="midnightblue" d="M77.3343,-73.7548C85.2656,-74.8563 93.9169,-76.0579 102.747,-77.2842"/>
<polygon fill="midnightblue" stroke="midnightblue" points="102.376,-80.7663 112.762,-78.6753 103.339,-73.8328 102.376,-80.7663"/>
</g>
<!-- Node4 -->
<g id="node4" class="node"><title>Node4</title>
<g id="a_node4"><a xlink:href="$classSearch.xhtml#aa64dbfe1bd713c36cc8785178a81325e" xlink:title="Inform the ConvergenceControlPolicy that no next improvement could be found in reasonable time...">
<polygon fill="none" stroke="black" points="138.5,-39.5 138.5,-59.5 230.5,-59.5 230.5,-39.5 138.5,-39.5"/>
<text text-anchor="middle" x="184.5" y="-46.7" font-family="Helvetica,sans-Serif" font-size="11.00">Search::isStuck</text>
</a>
</g>
</g>
<!-- Node1&#45;&gt;Node4 -->
<g id="edge3" class="edge"><title>Node1&#45;&gt;Node4</title>
<path fill="none" stroke="midnightblue" d="M77.3343,-63.508C92.8609,-61.4593 111.147,-59.0466 128.128,-56.806"/>
<polygon fill="midnightblue" stroke="midnightblue" points="129.04,-60.2162 138.496,-55.438 128.124,-53.2763 129.04,-60.2162"/>
</g>
<!-- Node5 -->
<g id="node5" class="node"><title>Node5</title>
<g id="a_node5"><a xlink:href="$classSearch.xhtml#afa7022c6b9be775211d8a9be85b880f3" xlink:title="Method responsible for all post&#45;processing after the optimization has completed. ">
<polygon fill="none" stroke="black" points="139.5,-0.5 139.5,-20.5 229.5,-20.5 229.5,-0.5 139.5,-0.5"/>
<text text-anchor="middle" x="184.5" y="-7.7" font-family="Helvetica,sans-Serif" font-size="11.00">Search::finalize</text>
</a>
</g>
</g>
<!-- Node1&#45;&gt;Node5 -->
<g id="edge4" class="edge"><title>Node1&#45;&gt;Node5</title>
<path fill="none" stroke="midnightblue" d="M56.5634,-58.428C71.1736,-50.1118 92.9641,-38.4282 113,-30.5 119.359,-27.9839 126.155,-25.6427 132.925,-23.5138"/>
<polygon fill="midnightblue" stroke="midnightblue" points="134.204,-26.7842 142.771,-20.5512 132.187,-20.0811 134.204,-26.7842"/>
</g>
</g>
</svg>
