<?xml version="1.0" encoding="UTF-8" standalone="no"?>
<!DOCTYPE svg PUBLIC "-//W3C//DTD SVG 1.1//EN"
 "http://www.w3.org/Graphics/SVG/1.1/DTD/svg11.dtd">
<!-- Generated by graphviz version 2.38.0 (20140413.2041)
 -->
<!-- Title: Partition::Partition Pages: 1 -->
<svg width="271pt" height="107pt"
 viewBox="0.00 0.00 271.00 107.00" xmlns="http://www.w3.org/2000/svg" xmlns:xlink="http://www.w3.org/1999/xlink">
<g id="graph0" class="graph" transform="scale(1 1) rotate(0) translate(4 103)">
<title>Partition::Partition</title>
<!-- Node1 -->
<g id="node1" class="node"><title>Node1</title>
<polygon fill="#bfbfbf" stroke="black" points="0,-39.5 0,-59.5 102,-59.5 102,-39.5 0,-39.5"/>
<text text-anchor="middle" x="51" y="-46.7" font-family="Helvetica,sans-Serif" font-size="11.00">Partition::Partition</text>
</g>
<!-- Node2 -->
<g id="node2" class="node"><title>Node2</title>
<g id="a_node2"><a xlink:href="$classPartition.xhtml#a3d9ce01ee6fbc781a9fa7c02adeda3e6" xlink:title="Get the partition ID. ">
<polygon fill="none" stroke="black" points="156,-78.5 156,-98.5 245,-98.5 245,-78.5 156,-78.5"/>
<text text-anchor="middle" x="200.5" y="-85.7" font-family="Helvetica,sans-Serif" font-size="11.00">Partition::getID</text>
</a>
</g>
</g>
<!-- Node1&#45;&gt;Node2 -->
<g id="edge1" class="edge"><title>Node1&#45;&gt;Node2</title>
<path fill="none" stroke="midnightblue" d="M89.9849,-59.5435C108.824,-64.5247 131.772,-70.5923 151.785,-75.8839"/>
<polygon fill="midnightblue" stroke="midnightblue" points="151.081,-79.318 161.644,-78.4906 152.871,-72.5505 151.081,-79.318"/>
</g>
<!-- Node3 -->
<g id="node3" class="node"><title>Node3</title>
<g id="a_node3"><a xlink:href="$classPartition.xhtml#a418e5b08580b3c1d33390a13eeb8eb0f" xlink:title="Get the lower bound for this partition. ">
<polygon fill="none" stroke="black" points="138,-39.5 138,-59.5 263,-59.5 263,-39.5 138,-39.5"/>
<text text-anchor="middle" x="200.5" y="-46.7" font-family="Helvetica,sans-Serif" font-size="11.00">Partition::getStartPoint</text>
</a>
</g>
</g>
<!-- Node1&#45;&gt;Node3 -->
<g id="edge2" class="edge"><title>Node1&#45;&gt;Node3</title>
<path fill="none" stroke="midnightblue" d="M102.349,-49.5C110.566,-49.5 119.217,-49.5 127.829,-49.5"/>
<polygon fill="midnightblue" stroke="midnightblue" points="127.894,-53.0001 137.894,-49.5 127.894,-46.0001 127.894,-53.0001"/>
</g>
<!-- Node4 -->
<g id="node4" class="node"><title>Node4</title>
<g id="a_node4"><a xlink:href="$classPartition.xhtml#a0f3cdf44760e24735951b73dfc9dd3ab" xlink:title="Get the upper bound for this partition. ">
<polygon fill="none" stroke="black" points="139.5,-0.5 139.5,-20.5 261.5,-20.5 261.5,-0.5 139.5,-0.5"/>
<text text-anchor="middle" x="200.5" y="-7.7" font-family="Helvetica,sans-Serif" font-size="11.00">Partition::getEndPoint</text>
</a>
</g>
</g>
<!-- Node1&#45;&gt;Node4 -->
<g id="edge3" class="edge"><title>Node1&#45;&gt;Node4</title>
<path fill="none" stroke="midnightblue" d="M89.9849,-39.4565C108.824,-34.4753 131.772,-28.4077 151.785,-23.1161"/>
<polygon fill="midnightblue" stroke="midnightblue" points="152.871,-26.4495 161.644,-20.5094 151.081,-19.682 152.871,-26.4495"/>
</g>
</g>
</svg>
