<?xml version="1.0" encoding="UTF-8" standalone="no"?>
<!DOCTYPE svg PUBLIC "-//W3C//DTD SVG 1.1//EN"
 "http://www.w3.org/Graphics/SVG/1.1/DTD/svg11.dtd">
<!-- Generated by graphviz version 2.38.0 (20140413.2041)
 -->
<!-- Title: RosenbrockFitnessPolicy Pages: 1 -->
<svg width="184pt" height="612pt"
 viewBox="0.00 0.00 184.00 612.00" xmlns="http://www.w3.org/2000/svg" xmlns:xlink="http://www.w3.org/1999/xlink">
<g id="graph0" class="graph" transform="scale(1 1) rotate(0) translate(4 608)">
<title>RosenbrockFitnessPolicy</title>
<!-- Node1 -->
<g id="node1" class="node"><title>Node1</title>
<polygon fill="#bfbfbf" stroke="black" points="-1.42109e-14,-0.5 -1.42109e-14,-168.5 176,-168.5 176,-0.5 -1.42109e-14,-0.5"/>
<text text-anchor="middle" x="88" y="-155.7" font-family="Helvetica,sans-Serif" font-size="11.00">RosenbrockFitnessPolicy</text>
<polyline fill="none" stroke="black" points="-1.42109e-14,-148.5 176,-148.5 "/>
<text text-anchor="middle" x="88" y="-135.7" font-family="Helvetica,sans-Serif" font-size="11.00"> </text>
<polyline fill="none" stroke="black" points="-1.42109e-14,-128.5 176,-128.5 "/>
<text text-anchor="start" x="8" y="-115.7" font-family="Helvetica,sans-Serif" font-size="11.00">+ RosenbrockFitnessPolicy()</text>
<text text-anchor="start" x="8" y="-103.7" font-family="Helvetica,sans-Serif" font-size="11.00">+ ~RosenbrockFitnessPolicy()</text>
<text text-anchor="start" x="8" y="-91.7" font-family="Helvetica,sans-Serif" font-size="11.00">+ apply()</text>
<text text-anchor="start" x="8" y="-79.7" font-family="Helvetica,sans-Serif" font-size="11.00">+ firstIsBetter()</text>
<text text-anchor="start" x="8" y="-67.7" font-family="Helvetica,sans-Serif" font-size="11.00">+ firstIsBetter()</text>
<text text-anchor="start" x="8" y="-55.7" font-family="Helvetica,sans-Serif" font-size="11.00">+ setWorstFitness()</text>
<text text-anchor="start" x="8" y="-43.7" font-family="Helvetica,sans-Serif" font-size="11.00">+ setWorstFitness()</text>
<text text-anchor="start" x="8" y="-31.7" font-family="Helvetica,sans-Serif" font-size="11.00">+ setBestFitness()</text>
<text text-anchor="start" x="8" y="-19.7" font-family="Helvetica,sans-Serif" font-size="11.00">+ setBestFitness()</text>
<text text-anchor="start" x="8" y="-7.7" font-family="Helvetica,sans-Serif" font-size="11.00">+ getMinEstimatedFitnessValue()</text>
</g>
<!-- Node2 -->
<g id="node2" class="node"><title>Node2</title>
<g id="a_node2"><a xlink:href="$classFitnessPolicy.xhtml" xlink:title="{FitnessPolicy\&lt;\&gt;\n||+ FitnessPolicy()\l+ ~FitnessPolicy()\l+ apply()\l+ firstIsBetter()\l+ firstIsBetter()\l+ setWorstFitness()\l+ setWorstFitness()\l+ setBestFitness()\l+ setBestFitness()\l+ getMinEstimatedFitnessValue()\l}">
<polygon fill="none" stroke="black" points="-1.42109e-14,-206.5 -1.42109e-14,-374.5 176,-374.5 176,-206.5 -1.42109e-14,-206.5"/>
<text text-anchor="middle" x="88" y="-361.7" font-family="Helvetica,sans-Serif" font-size="11.00">FitnessPolicy&lt;&gt;</text>
<polyline fill="none" stroke="black" points="-1.42109e-14,-354.5 176,-354.5 "/>
<text text-anchor="middle" x="88" y="-341.7" font-family="Helvetica,sans-Serif" font-size="11.00"> </text>
<polyline fill="none" stroke="black" points="-1.42109e-14,-334.5 176,-334.5 "/>
<text text-anchor="start" x="8" y="-321.7" font-family="Helvetica,sans-Serif" font-size="11.00">+ FitnessPolicy()</text>
<text text-anchor="start" x="8" y="-309.7" font-family="Helvetica,sans-Serif" font-size="11.00">+ ~FitnessPolicy()</text>
<text text-anchor="start" x="8" y="-297.7" font-family="Helvetica,sans-Serif" font-size="11.00">+ apply()</text>
<text text-anchor="start" x="8" y="-285.7" font-family="Helvetica,sans-Serif" font-size="11.00">+ firstIsBetter()</text>
<text text-anchor="start" x="8" y="-273.7" font-family="Helvetica,sans-Serif" font-size="11.00">+ firstIsBetter()</text>
<text text-anchor="start" x="8" y="-261.7" font-family="Helvetica,sans-Serif" font-size="11.00">+ setWorstFitness()</text>
<text text-anchor="start" x="8" y="-249.7" font-family="Helvetica,sans-Serif" font-size="11.00">+ setWorstFitness()</text>
<text text-anchor="start" x="8" y="-237.7" font-family="Helvetica,sans-Serif" font-size="11.00">+ setBestFitness()</text>
<text text-anchor="start" x="8" y="-225.7" font-family="Helvetica,sans-Serif" font-size="11.00">+ setBestFitness()</text>
<text text-anchor="start" x="8" y="-213.7" font-family="Helvetica,sans-Serif" font-size="11.00">+ getMinEstimatedFitnessValue()</text>
</a>
</g>
</g>
<!-- Node2&#45;&gt;Node1 -->
<g id="edge1" class="edge"><title>Node2&#45;&gt;Node1</title>
<path fill="none" stroke="midnightblue" d="M88,-195.948C88,-186.792 88,-177.544 88,-168.503"/>
<polygon fill="none" stroke="midnightblue" points="84.5001,-196.231 88,-206.231 91.5001,-196.231 84.5001,-196.231"/>
</g>
<!-- Node3 -->
<g id="node3" class="node"><title>Node3</title>
<g id="a_node3"><a xlink:href="$classFitnessPolicy.xhtml" xlink:title="Template for the policy that calculates the fitness (or cost) for the problem under optimization...">
<polygon fill="none" stroke="black" points="-1.42109e-14,-423.5 -1.42109e-14,-603.5 176,-603.5 176,-423.5 -1.42109e-14,-423.5"/>
<text text-anchor="start" x="8" y="-590.7" font-family="Helvetica,sans-Serif" font-size="11.00">FitnessPolicy&lt; P, pSize,</text>
<text text-anchor="middle" x="88" y="-578.7" font-family="Helvetica,sans-Serif" font-size="11.00"> F, fSize, V, vSize &gt;</text>
<polyline fill="none" stroke="black" points="-1.42109e-14,-571.5 176,-571.5 "/>
<text text-anchor="middle" x="88" y="-558.7" font-family="Helvetica,sans-Serif" font-size="11.00"> </text>
<polyline fill="none" stroke="black" points="-1.42109e-14,-551.5 176,-551.5 "/>
<text text-anchor="start" x="8" y="-538.7" font-family="Helvetica,sans-Serif" font-size="11.00">+ FitnessPolicy()</text>
<text text-anchor="start" x="8" y="-526.7" font-family="Helvetica,sans-Serif" font-size="11.00">+ ~FitnessPolicy()</text>
<text text-anchor="start" x="8" y="-514.7" font-family="Helvetica,sans-Serif" font-size="11.00">+ apply()</text>
<text text-anchor="start" x="8" y="-502.7" font-family="Helvetica,sans-Serif" font-size="11.00">+ firstIsBetter()</text>
<text text-anchor="start" x="8" y="-490.7" font-family="Helvetica,sans-Serif" font-size="11.00">+ firstIsBetter()</text>
<text text-anchor="start" x="8" y="-478.7" font-family="Helvetica,sans-Serif" font-size="11.00">+ setWorstFitness()</text>
<text text-anchor="start" x="8" y="-466.7" font-family="Helvetica,sans-Serif" font-size="11.00">+ setWorstFitness()</text>
<text text-anchor="start" x="8" y="-454.7" font-family="Helvetica,sans-Serif" font-size="11.00">+ setBestFitness()</text>
<text text-anchor="start" x="8" y="-442.7" font-family="Helvetica,sans-Serif" font-size="11.00">+ setBestFitness()</text>
<text text-anchor="start" x="8" y="-430.7" font-family="Helvetica,sans-Serif" font-size="11.00">+ getMinEstimatedFitnessValue()</text>
</a>
</g>
</g>
<!-- Node3&#45;&gt;Node2 -->
<g id="edge2" class="edge"><title>Node3&#45;&gt;Node2</title>
<path fill="none" stroke="orange" d="M88,-413.02C88,-400.196 88,-387.173 88,-374.65"/>
<polygon fill="orange" stroke="orange" points="84.5001,-413.248 88,-423.248 91.5001,-413.248 84.5001,-413.248"/>
<text text-anchor="middle" x="96.5" y="-396.2" font-family="Helvetica,sans-Serif" font-size="11.00"> &lt;&gt;</text>
</g>
</g>
</svg>
