<?xml version="1.0" encoding="UTF-8" standalone="no"?>
<!DOCTYPE svg PUBLIC "-//W3C//DTD SVG 1.1//EN"
 "http://www.w3.org/Graphics/SVG/1.1/DTD/svg11.dtd">
<!-- Generated by graphviz version 2.38.0 (20140413.2041)
 -->
<!-- Title: Search::getCurrentNEvals Pages: 1 -->
<svg width="666pt" height="129pt"
 viewBox="0.00 0.00 666.00 129.00" xmlns="http://www.w3.org/2000/svg" xmlns:xlink="http://www.w3.org/1999/xlink">
<g id="graph0" class="graph" transform="scale(1 1) rotate(0) translate(4 125)">
<title>Search::getCurrentNEvals</title>
<!-- Node1 -->
<g id="node1" class="node"><title>Node1</title>
<polygon fill="#bfbfbf" stroke="black" points="0,-39.5 0,-59.5 143,-59.5 143,-39.5 0,-39.5"/>
<text text-anchor="middle" x="71.5" y="-46.7" font-family="Helvetica,sans-Serif" font-size="11.00">Search::getCurrentNEvals</text>
</g>
<!-- Node2 -->
<g id="node2" class="node"><title>Node2</title>
<g id="a_node2"><a xlink:href="$classCSMOn.xhtml#a430398bc3e096631f8cd180ee1877616" xlink:title="This method runs, monitors and limits the convergence of the optimization method during the current T...">
<polygon fill="none" stroke="black" points="219.5,-98.5 219.5,-118.5 296.5,-118.5 296.5,-98.5 219.5,-98.5"/>
<text text-anchor="middle" x="258" y="-105.7" font-family="Helvetica,sans-Serif" font-size="11.00">CSMOn::run</text>
</a>
</g>
</g>
<!-- Node1&#45;&gt;Node2 -->
<g id="edge1" class="edge"><title>Node1&#45;&gt;Node2</title>
<path fill="none" stroke="midnightblue" d="M106.09,-63.3026C126.876,-71.5459 154.234,-81.8631 179,-89.5 192.052,-93.5249 206.542,-97.2526 219.456,-100.321"/>
<polygon fill="midnightblue" stroke="midnightblue" points="107.329,-60.0288 96.745,-59.561 104.728,-66.5273 107.329,-60.0288"/>
</g>
<!-- Node3 -->
<g id="node3" class="node"><title>Node3</title>
<g id="a_node3"><a xlink:href="$classSearch.xhtml#af9f46406f1f1f7f89ab294c155738ca6" xlink:title="Set the full search space. ">
<polygon fill="none" stroke="black" points="189.5,-59.5 189.5,-79.5 326.5,-79.5 326.5,-59.5 189.5,-59.5"/>
<text text-anchor="middle" x="258" y="-66.7" font-family="Helvetica,sans-Serif" font-size="11.00">Search::setSearchSpace</text>
</a>
</g>
</g>
<!-- Node1&#45;&gt;Node3 -->
<g id="edge2" class="edge"><title>Node1&#45;&gt;Node3</title>
<path fill="none" stroke="midnightblue" d="M153.089,-58.2359C165.148,-59.5432 177.477,-60.8797 189.235,-62.1542"/>
<polygon fill="midnightblue" stroke="midnightblue" points="153.36,-54.7449 143.041,-57.1468 152.606,-61.7042 153.36,-54.7449"/>
</g>
<!-- Node6 -->
<g id="node6" class="node"><title>Node6</title>
<g id="a_node6"><a xlink:href="$classTHBuilder_1_1SearchGroup.xhtml#ac8c33d89ddd52e38fb23d7102d9086e0" xlink:title="Perform a complete execution of the search group. ">
<polygon fill="none" stroke="black" points="179,-20.5 179,-40.5 337,-40.5 337,-20.5 179,-20.5"/>
<text text-anchor="middle" x="258" y="-27.7" font-family="Helvetica,sans-Serif" font-size="11.00">THBuilder::SearchGroup::run</text>
</a>
</g>
</g>
<!-- Node1&#45;&gt;Node6 -->
<g id="edge6" class="edge"><title>Node1&#45;&gt;Node6</title>
<path fill="none" stroke="midnightblue" d="M153.011,-41.2089C161.573,-40.3271 170.272,-39.4313 178.807,-38.5524"/>
<polygon fill="midnightblue" stroke="midnightblue" points="152.63,-37.7295 143.041,-42.2356 153.347,-44.6927 152.63,-37.7295"/>
</g>
<!-- Node7 -->
<g id="node7" class="node"><title>Node7</title>
<g id="a_node7"><a xlink:href="$classTHBuilder_1_1THImpl.xhtml#a943301db5154fd7b672119b5c9917303" xlink:title="Starts the Treasure Hunt mechanisms. ">
<polygon fill="none" stroke="black" points="377,-0.5 377,-20.5 505,-20.5 505,-0.5 377,-0.5"/>
<text text-anchor="middle" x="441" y="-7.7" font-family="Helvetica,sans-Serif" font-size="11.00">THBuilder::THImpl::run</text>
</a>
</g>
</g>
<!-- Node1&#45;&gt;Node7 -->
<g id="edge8" class="edge"><title>Node1&#45;&gt;Node7</title>
<path fill="none" stroke="midnightblue" d="M102.412,-35.3295C123.335,-26.2269 152.221,-15.2491 179,-10.5 245.813,1.34863 323.769,-0.664712 376.969,-4.37696"/>
<polygon fill="midnightblue" stroke="midnightblue" points="100.816,-32.2091 93.1105,-39.481 103.669,-38.6014 100.816,-32.2091"/>
</g>
<!-- Node4 -->
<g id="node4" class="node"><title>Node4</title>
<g id="a_node4"><a xlink:href="$classTHBuilder_1_1SearchGroup.xhtml#a794cf5448380674b51022b5d65a240e2" xlink:title="Constructor to create the internal Search Group. ">
<polygon fill="none" stroke="black" points="373,-88.5 373,-120.5 509,-120.5 509,-88.5 373,-88.5"/>
<text text-anchor="start" x="381" y="-107.7" font-family="Helvetica,sans-Serif" font-size="11.00">THBuilder::SearchGroup</text>
<text text-anchor="middle" x="441" y="-95.7" font-family="Helvetica,sans-Serif" font-size="11.00">::SearchGroup</text>
</a>
</g>
</g>
<!-- Node3&#45;&gt;Node4 -->
<g id="edge3" class="edge"><title>Node3&#45;&gt;Node4</title>
<path fill="none" stroke="midnightblue" d="M321.065,-81.5015C337.78,-84.7337 355.935,-88.2444 372.911,-91.5269"/>
<polygon fill="midnightblue" stroke="midnightblue" points="321.35,-77.9919 310.867,-79.5296 320.021,-84.8645 321.35,-77.9919"/>
</g>
<!-- Node5 -->
<g id="node5" class="node"><title>Node5</title>
<g id="a_node5"><a xlink:href="$classTHBuilder_1_1THImpl.xhtml#a0d6e2fd43f50755ff2738e924f66690d" xlink:title="THBuilder::THImpl::\lTHImpl">
<polygon fill="none" stroke="black" points="545,-65.5 545,-97.5 658,-97.5 658,-65.5 545,-65.5"/>
<text text-anchor="start" x="553" y="-84.7" font-family="Helvetica,sans-Serif" font-size="11.00">THBuilder::THImpl::</text>
<text text-anchor="middle" x="601.5" y="-72.7" font-family="Helvetica,sans-Serif" font-size="11.00">THImpl</text>
</a>
</g>
</g>
<!-- Node3&#45;&gt;Node5 -->
<g id="edge5" class="edge"><title>Node3&#45;&gt;Node5</title>
<path fill="none" stroke="midnightblue" d="M337.233,-72.249C400.65,-74.4774 488.458,-77.5629 544.876,-79.5454"/>
<polygon fill="midnightblue" stroke="midnightblue" points="336.994,-68.7386 326.878,-71.8852 336.749,-75.7343 336.994,-68.7386"/>
</g>
<!-- Node4&#45;&gt;Node5 -->
<g id="edge4" class="edge"><title>Node4&#45;&gt;Node5</title>
<path fill="none" stroke="midnightblue" d="M519.247,-93.2906C527.824,-92.0461 536.431,-90.7971 544.668,-89.6019"/>
<polygon fill="midnightblue" stroke="midnightblue" points="518.612,-89.8461 509.218,-94.7459 519.617,-96.7735 518.612,-89.8461"/>
</g>
<!-- Node6&#45;&gt;Node7 -->
<g id="edge7" class="edge"><title>Node6&#45;&gt;Node7</title>
<path fill="none" stroke="midnightblue" d="M347.098,-20.7654C357.154,-19.6542 367.25,-18.5387 376.888,-17.4737"/>
<polygon fill="midnightblue" stroke="midnightblue" points="346.629,-17.2959 337.074,-21.8731 347.398,-24.2535 346.629,-17.2959"/>
</g>
</g>
</svg>
