<?xml version="1.0" encoding="UTF-8" standalone="no"?>
<!DOCTYPE svg PUBLIC "-//W3C//DTD SVG 1.1//EN"
 "http://www.w3.org/Graphics/SVG/1.1/DTD/svg11.dtd">
<!-- Generated by graphviz version 2.38.0 (20140413.2041)
 -->
<!-- Title: Partition::getID Pages: 1 -->
<svg width="235pt" height="68pt"
 viewBox="0.00 0.00 235.00 68.00" xmlns="http://www.w3.org/2000/svg" xmlns:xlink="http://www.w3.org/1999/xlink">
<g id="graph0" class="graph" transform="scale(1 1) rotate(0) translate(4 64)">
<title>Partition::getID</title>
<!-- Node1 -->
<g id="node1" class="node"><title>Node1</title>
<polygon fill="#bfbfbf" stroke="black" points="0,-19.5 0,-39.5 89,-39.5 89,-19.5 0,-19.5"/>
<text text-anchor="middle" x="44.5" y="-26.7" font-family="Helvetica,sans-Serif" font-size="11.00">Partition::getID</text>
</g>
<!-- Node2 -->
<g id="node2" class="node"><title>Node2</title>
<g id="a_node2"><a xlink:href="$classPartition.xhtml#a45b2a3119be4fe1b735547044df96f74" xlink:title="This constructor creates a Partition as a copy from another Partition. ">
<polygon fill="none" stroke="black" points="125,-39.5 125,-59.5 227,-59.5 227,-39.5 125,-39.5"/>
<text text-anchor="middle" x="176" y="-46.7" font-family="Helvetica,sans-Serif" font-size="11.00">Partition::Partition</text>
</a>
</g>
</g>
<!-- Node1&#45;&gt;Node2 -->
<g id="edge1" class="edge"><title>Node1&#45;&gt;Node2</title>
<path fill="none" stroke="midnightblue" d="M99.4741,-37.8358C107.915,-39.1394 116.607,-40.4818 124.955,-41.7711"/>
<polygon fill="midnightblue" stroke="midnightblue" points="99.7599,-34.3385 89.3428,-36.2711 98.6914,-41.2565 99.7599,-34.3385"/>
</g>
<!-- Node3 -->
<g id="node3" class="node"><title>Node3</title>
<g id="a_node3"><a xlink:href="$classRegion.xhtml#a762d4587205ba6bed49660ae1359a4a6" xlink:title="Debug the current Region instance. ">
<polygon fill="none" stroke="black" points="137,-0.5 137,-20.5 215,-20.5 215,-0.5 137,-0.5"/>
<text text-anchor="middle" x="176" y="-7.7" font-family="Helvetica,sans-Serif" font-size="11.00">Region::print</text>
</a>
</g>
</g>
<!-- Node1&#45;&gt;Node3 -->
<g id="edge2" class="edge"><title>Node1&#45;&gt;Node3</title>
<path fill="none" stroke="midnightblue" d="M99.2922,-21.6077C111.898,-19.7582 125.075,-17.825 136.835,-16.0995"/>
<polygon fill="midnightblue" stroke="midnightblue" points="98.7288,-18.1528 89.3428,-23.0675 99.745,-25.0787 98.7288,-18.1528"/>
</g>
</g>
</svg>
