<?xml version="1.0" encoding="UTF-8" standalone="no"?>
<!DOCTYPE svg PUBLIC "-//W3C//DTD SVG 1.1//EN"
 "http://www.w3.org/Graphics/SVG/1.1/DTD/svg11.dtd">
<!-- Generated by graphviz version 2.38.0 (20140413.2041)
 -->
<!-- Title: THBuilder::SearchGroup::run Pages: 1 -->
<svg width="369pt" height="416pt"
 viewBox="0.00 0.00 369.00 416.00" xmlns="http://www.w3.org/2000/svg" xmlns:xlink="http://www.w3.org/1999/xlink">
<g id="graph0" class="graph" transform="scale(1 1) rotate(0) translate(4 412)">
<title>THBuilder::SearchGroup::run</title>
<!-- Node1 -->
<g id="node1" class="node"><title>Node1</title>
<polygon fill="#bfbfbf" stroke="black" points="0,-187.5 0,-207.5 158,-207.5 158,-187.5 0,-187.5"/>
<text text-anchor="middle" x="79" y="-194.7" font-family="Helvetica,sans-Serif" font-size="11.00">THBuilder::SearchGroup::run</text>
</g>
<!-- Node2 -->
<g id="node2" class="node"><title>Node2</title>
<g id="a_node2"><a xlink:href="$classTHBuilder.xhtml#a097e1501549341f26e5316aca8108b5c" xlink:title="Get the SearchAlgorithmSelectionPolicy configured. ">
<polygon fill="none" stroke="black" points="194,-375.5 194,-407.5 361,-407.5 361,-375.5 194,-375.5"/>
<text text-anchor="start" x="202" y="-394.7" font-family="Helvetica,sans-Serif" font-size="11.00">THBuilder::getSearchAlgorithm</text>
<text text-anchor="middle" x="277.5" y="-382.7" font-family="Helvetica,sans-Serif" font-size="11.00">SelectionPolicy</text>
</a>
</g>
</g>
<!-- Node1&#45;&gt;Node2 -->
<g id="edge1" class="edge"><title>Node1&#45;&gt;Node2</title>
<path fill="none" stroke="midnightblue" d="M83.9272,-207.634C95.7974,-236.917 134.2,-322.366 194,-366.5 195.859,-367.872 197.794,-369.169 199.788,-370.396"/>
<polygon fill="midnightblue" stroke="midnightblue" points="198.411,-373.632 208.868,-375.336 201.757,-367.483 198.411,-373.632"/>
</g>
<!-- Node3 -->
<g id="node3" class="node"><title>Node3</title>
<g id="a_node3"><a xlink:href="$classSearch.xhtml#a06246066740a703454189564dc5c326e" xlink:title="Set the population. ">
<polygon fill="none" stroke="black" points="216.5,-336.5 216.5,-356.5 338.5,-356.5 338.5,-336.5 216.5,-336.5"/>
<text text-anchor="middle" x="277.5" y="-343.7" font-family="Helvetica,sans-Serif" font-size="11.00">Search::setPopulation</text>
</a>
</g>
</g>
<!-- Node1&#45;&gt;Node3 -->
<g id="edge2" class="edge"><title>Node1&#45;&gt;Node3</title>
<path fill="none" stroke="midnightblue" d="M85.6933,-207.524C100.254,-232.188 141.433,-296.088 194,-327.5 197.939,-329.854 202.144,-331.916 206.492,-333.723"/>
<polygon fill="midnightblue" stroke="midnightblue" points="205.596,-337.122 216.19,-337.284 208.009,-330.551 205.596,-337.122"/>
</g>
<!-- Node4 -->
<g id="node4" class="node"><title>Node4</title>
<g id="a_node4"><a xlink:href="$classTHBuilder_1_1SearchGroup.xhtml#a3f8d98c07db48420c49bee854c00ae8b" xlink:title="THBuilder::SearchGroup\l::getPopulationSize">
<polygon fill="none" stroke="black" points="209.5,-285.5 209.5,-317.5 345.5,-317.5 345.5,-285.5 209.5,-285.5"/>
<text text-anchor="start" x="217.5" y="-304.7" font-family="Helvetica,sans-Serif" font-size="11.00">THBuilder::SearchGroup</text>
<text text-anchor="middle" x="277.5" y="-292.7" font-family="Helvetica,sans-Serif" font-size="11.00">::getPopulationSize</text>
</a>
</g>
</g>
<!-- Node1&#45;&gt;Node4 -->
<g id="edge3" class="edge"><title>Node1&#45;&gt;Node4</title>
<path fill="none" stroke="midnightblue" d="M91.8639,-207.619C111.767,-224.14 153.673,-257.014 194,-276.5 197.973,-278.42 202.125,-280.229 206.363,-281.928"/>
<polygon fill="midnightblue" stroke="midnightblue" points="205.147,-285.21 215.739,-285.47 207.621,-278.662 205.147,-285.21"/>
</g>
<!-- Node5 -->
<g id="node5" class="node"><title>Node5</title>
<g id="a_node5"><a xlink:href="$classConvergenceControlPolicy.xhtml#ad72beb5807e87c3fa0602bd0bf4679ac" xlink:title="Virtual method that will run, monitor and control one TH iteration. ">
<polygon fill="none" stroke="black" points="194,-246.5 194,-266.5 361,-266.5 361,-246.5 194,-246.5"/>
<text text-anchor="middle" x="277.5" y="-253.7" font-family="Helvetica,sans-Serif" font-size="11.00">ConvergenceControlPolicy::run</text>
</a>
</g>
</g>
<!-- Node1&#45;&gt;Node5 -->
<g id="edge4" class="edge"><title>Node1&#45;&gt;Node5</title>
<path fill="none" stroke="midnightblue" d="M105.995,-207.55C128.929,-216.192 163.377,-228.631 194,-237.5 202.016,-239.822 210.535,-242.048 218.939,-244.107"/>
<polygon fill="midnightblue" stroke="midnightblue" points="218.176,-247.523 228.715,-246.444 219.803,-240.715 218.176,-247.523"/>
</g>
<!-- Node6 -->
<g id="node6" class="node"><title>Node6</title>
<g id="a_node6"><a xlink:href="$classSearch.xhtml#a134eb5da3918998d5a3d1e049f7b585e" xlink:title="Get the number of FitnessPolicy evaluations performed since the last time the method startup() was ca...">
<polygon fill="none" stroke="black" points="206,-207.5 206,-227.5 349,-227.5 349,-207.5 206,-207.5"/>
<text text-anchor="middle" x="277.5" y="-214.7" font-family="Helvetica,sans-Serif" font-size="11.00">Search::getCurrentNEvals</text>
</a>
</g>
</g>
<!-- Node1&#45;&gt;Node6 -->
<g id="edge5" class="edge"><title>Node1&#45;&gt;Node6</title>
<path fill="none" stroke="midnightblue" d="M158.227,-205.462C170.518,-206.713 183.246,-208.008 195.596,-209.266"/>
<polygon fill="midnightblue" stroke="midnightblue" points="195.561,-212.78 205.864,-210.311 196.27,-205.816 195.561,-212.78"/>
</g>
<!-- Node7 -->
<g id="node7" class="node"><title>Node7</title>
<g id="a_node7"><a xlink:href="$classSearch.xhtml#a6b275ce5596bb50216cc9fc827f44912" xlink:title="Get the best Solution found since the last time the method startup() was called. ">
<polygon fill="none" stroke="black" points="208,-168.5 208,-188.5 347,-188.5 347,-168.5 208,-168.5"/>
<text text-anchor="middle" x="277.5" y="-175.7" font-family="Helvetica,sans-Serif" font-size="11.00">Search::getBestIndividual</text>
</a>
</g>
</g>
<!-- Node1&#45;&gt;Node7 -->
<g id="edge6" class="edge"><title>Node1&#45;&gt;Node7</title>
<path fill="none" stroke="midnightblue" d="M158.227,-189.936C171.148,-188.687 184.551,-187.391 197.491,-186.14"/>
<polygon fill="midnightblue" stroke="midnightblue" points="198.135,-189.594 207.751,-185.147 197.461,-182.626 198.135,-189.594"/>
</g>
<!-- Node8 -->
<g id="node8" class="node"><title>Node8</title>
<g id="a_node8"><a xlink:href="$classTHBuilder.xhtml#aca895af8d67060f0f66176aa18f00f98" xlink:title="Get the BestListUpdatePolicy configured. ">
<polygon fill="none" stroke="black" points="197.5,-117.5 197.5,-149.5 357.5,-149.5 357.5,-117.5 197.5,-117.5"/>
<text text-anchor="start" x="205.5" y="-136.7" font-family="Helvetica,sans-Serif" font-size="11.00">THBuilder::getBestListUpdate</text>
<text text-anchor="middle" x="277.5" y="-124.7" font-family="Helvetica,sans-Serif" font-size="11.00">Policy</text>
</a>
</g>
</g>
<!-- Node1&#45;&gt;Node8 -->
<g id="edge7" class="edge"><title>Node1&#45;&gt;Node8</title>
<path fill="none" stroke="midnightblue" d="M109.959,-187.364C132.925,-179.631 165.423,-168.765 194,-159.5 200.875,-157.271 208.08,-154.961 215.249,-152.68"/>
<polygon fill="midnightblue" stroke="midnightblue" points="216.495,-155.957 224.968,-149.597 214.378,-149.285 216.495,-155.957"/>
</g>
<!-- Node9 -->
<g id="node9" class="node"><title>Node9</title>
<g id="a_node9"><a xlink:href="$classFitnessPolicy.xhtml#acaf9a99792b12c78eaabc0acadd1de9f" xlink:title="Check if the first Solution is better than the second Solution. ">
<polygon fill="none" stroke="black" points="207.5,-78.5 207.5,-98.5 347.5,-98.5 347.5,-78.5 207.5,-78.5"/>
<text text-anchor="middle" x="277.5" y="-85.7" font-family="Helvetica,sans-Serif" font-size="11.00">FitnessPolicy::firstIsBetter</text>
</a>
</g>
</g>
<!-- Node1&#45;&gt;Node9 -->
<g id="edge8" class="edge"><title>Node1&#45;&gt;Node9</title>
<path fill="none" stroke="midnightblue" d="M89.9656,-187.238C108.616,-168.643 150.824,-129.375 194,-108.5 199.355,-105.911 205.072,-103.641 210.904,-101.654"/>
<polygon fill="midnightblue" stroke="midnightblue" points="212.28,-104.891 220.783,-98.5712 210.195,-98.2092 212.28,-104.891"/>
</g>
<!-- Node10 -->
<g id="node10" class="node"><title>Node10</title>
<g id="a_node10"><a xlink:href="$classSolution.xhtml#ae7720fedccf4ae8ff24170e159fd266f" xlink:title="Get a pointer to the actual Fitness instance. ">
<polygon fill="none" stroke="black" points="222,-39.5 222,-59.5 333,-59.5 333,-39.5 222,-39.5"/>
<text text-anchor="middle" x="277.5" y="-46.7" font-family="Helvetica,sans-Serif" font-size="11.00">Solution::getFitness</text>
</a>
</g>
</g>
<!-- Node1&#45;&gt;Node10 -->
<g id="edge9" class="edge"><title>Node1&#45;&gt;Node10</title>
<path fill="none" stroke="midnightblue" d="M85.9752,-187.31C100.87,-162.857 142.203,-100.585 194,-69.5 199.556,-66.1656 205.638,-63.3865 211.9,-61.0705"/>
<polygon fill="midnightblue" stroke="midnightblue" points="213.435,-64.2499 221.84,-57.7988 211.247,-57.6008 213.435,-64.2499"/>
</g>
<!-- Node11 -->
<g id="node11" class="node"><title>Node11</title>
<g id="a_node11"><a xlink:href="$classTHBuilder.xhtml#a35de691f57f40cb8719190e8a2ca6ccf" xlink:title="Get the global number of fitness function evaluations performed by this TH instance. ">
<polygon fill="none" stroke="black" points="217,-0.5 217,-20.5 338,-20.5 338,-0.5 217,-0.5"/>
<text text-anchor="middle" x="277.5" y="-7.7" font-family="Helvetica,sans-Serif" font-size="11.00">THBuilder::getNEvals</text>
</a>
</g>
</g>
<!-- Node1&#45;&gt;Node11 -->
<g id="edge10" class="edge"><title>Node1&#45;&gt;Node11</title>
<path fill="none" stroke="midnightblue" d="M83.8457,-187.322C95.495,-157.941 133.359,-72.4181 194,-30.5 198.211,-27.5892 202.798,-25.1001 207.582,-22.9718"/>
<polygon fill="midnightblue" stroke="midnightblue" points="208.931,-26.2024 216.976,-19.3078 206.387,-19.6808 208.931,-26.2024"/>
</g>
</g>
</svg>
