<?xml version="1.0" encoding="UTF-8" standalone="no"?>
<!DOCTYPE svg PUBLIC "-//W3C//DTD SVG 1.1//EN"
 "http://www.w3.org/Graphics/SVG/1.1/DTD/svg11.dtd">
<!-- Generated by graphviz version 2.38.0 (20140413.2041)
 -->
<!-- Title: RandomBestListSelectionPolicy::apply Pages: 1 -->
<svg width="522pt" height="68pt"
 viewBox="0.00 0.00 522.00 68.00" xmlns="http://www.w3.org/2000/svg" xmlns:xlink="http://www.w3.org/1999/xlink">
<g id="graph0" class="graph" transform="scale(1 1) rotate(0) translate(4 64)">
<title>RandomBestListSelectionPolicy::apply</title>
<!-- Node1 -->
<g id="node1" class="node"><title>Node1</title>
<polygon fill="#bfbfbf" stroke="black" points="0,-13.5 0,-45.5 169,-45.5 169,-13.5 0,-13.5"/>
<text text-anchor="start" x="8" y="-32.7" font-family="Helvetica,sans-Serif" font-size="11.00">RandomBestListSelectionPolicy</text>
<text text-anchor="middle" x="84.5" y="-20.7" font-family="Helvetica,sans-Serif" font-size="11.00">::apply</text>
</g>
<!-- Node2 -->
<g id="node2" class="node"><title>Node2</title>
<g id="a_node2"><a xlink:href="$classBestList.xhtml#ac627a3267d2b7cf8f579cc7e5b77d2e3" xlink:title="BestList::getListSize">
<polygon fill="none" stroke="black" points="211,-39.5 211,-59.5 324,-59.5 324,-39.5 211,-39.5"/>
<text text-anchor="middle" x="267.5" y="-46.7" font-family="Helvetica,sans-Serif" font-size="11.00">BestList::getListSize</text>
</a>
</g>
</g>
<!-- Node1&#45;&gt;Node2 -->
<g id="edge1" class="edge"><title>Node1&#45;&gt;Node2</title>
<path fill="none" stroke="midnightblue" d="M169.112,-38.7389C179.741,-39.9134 190.498,-41.102 200.791,-42.2393"/>
<polygon fill="midnightblue" stroke="midnightblue" points="200.583,-45.7376 210.907,-43.3571 201.352,-38.7799 200.583,-45.7376"/>
</g>
<!-- Node3 -->
<g id="node3" class="node"><title>Node3</title>
<g id="a_node3"><a xlink:href="$classTHUtil.xhtml#a5318218946e65adbdb431a2664d04016" xlink:title="THUtil::randUniformInt">
<polygon fill="none" stroke="black" points="205,-0.5 205,-20.5 330,-20.5 330,-0.5 205,-0.5"/>
<text text-anchor="middle" x="267.5" y="-7.7" font-family="Helvetica,sans-Serif" font-size="11.00">THUtil::randUniformInt</text>
</a>
</g>
</g>
<!-- Node1&#45;&gt;Node3 -->
<g id="edge2" class="edge"><title>Node1&#45;&gt;Node3</title>
<path fill="none" stroke="midnightblue" d="M169.112,-20.723C177.673,-19.8244 186.317,-18.917 194.734,-18.0334"/>
<polygon fill="midnightblue" stroke="midnightblue" points="195.288,-21.4946 204.868,-16.9696 194.558,-14.5328 195.288,-21.4946"/>
</g>
<!-- Node4 -->
<g id="node4" class="node"><title>Node4</title>
<g id="a_node4"><a xlink:href="$classTHUtil.xhtml#ad95b7150adaf4d576de406c8e7b8142c" xlink:title="THUtil::randUniformDouble">
<polygon fill="none" stroke="black" points="366,-0.5 366,-20.5 514,-20.5 514,-0.5 366,-0.5"/>
<text text-anchor="middle" x="440" y="-7.7" font-family="Helvetica,sans-Serif" font-size="11.00">THUtil::randUniformDouble</text>
</a>
</g>
</g>
<!-- Node3&#45;&gt;Node4 -->
<g id="edge3" class="edge"><title>Node3&#45;&gt;Node4</title>
<path fill="none" stroke="midnightblue" d="M330.054,-10.5C338.419,-10.5 347.113,-10.5 355.78,-10.5"/>
<polygon fill="midnightblue" stroke="midnightblue" points="355.92,-14.0001 365.92,-10.5 355.92,-7.0001 355.92,-14.0001"/>
</g>
</g>
</svg>
