<?xml version="1.0" encoding="UTF-8" standalone="no"?>
<!DOCTYPE svg PUBLIC "-//W3C//DTD SVG 1.1//EN"
 "http://www.w3.org/Graphics/SVG/1.1/DTD/svg11.dtd">
<!-- Generated by graphviz version 2.38.0 (20140413.2041)
 -->
<!-- Title: src/TH/ConvergenceControlPolicy.h Pages: 1 -->
<svg width="173pt" height="155pt"
 viewBox="0.00 0.00 173.00 155.00" xmlns="http://www.w3.org/2000/svg" xmlns:xlink="http://www.w3.org/1999/xlink">
<g id="graph0" class="graph" transform="scale(1 1) rotate(0) translate(4 151)">
<title>src/TH/ConvergenceControlPolicy.h</title>
<!-- Node1 -->
<g id="node1" class="node"><title>Node1</title>
<polygon fill="#bfbfbf" stroke="black" points="13,-114.5 13,-146.5 165,-146.5 165,-114.5 13,-114.5"/>
<text text-anchor="start" x="21" y="-133.7" font-family="Helvetica,sans-Serif" font-size="11.00">src/TH/ConvergenceControl</text>
<text text-anchor="middle" x="89" y="-121.7" font-family="Helvetica,sans-Serif" font-size="11.00">Policy.h</text>
</g>
<!-- Node2 -->
<g id="node2" class="node"><title>Node2</title>
<g id="a_node2"><a xlink:href="$CSMOn_8h.xhtml" xlink:title="src/TH/CSMOn.h">
<polygon fill="none" stroke="black" points="0,-57.5 0,-77.5 100,-77.5 100,-57.5 0,-57.5"/>
<text text-anchor="middle" x="50" y="-64.7" font-family="Helvetica,sans-Serif" font-size="11.00">src/TH/CSMOn.h</text>
</a>
</g>
</g>
<!-- Node1&#45;&gt;Node2 -->
<g id="edge1" class="edge"><title>Node1&#45;&gt;Node2</title>
<path fill="none" stroke="midnightblue" d="M73.8154,-105.75C67.4948,-95.8637 60.5374,-84.9815 55.7834,-77.5459"/>
<polygon fill="midnightblue" stroke="midnightblue" points="71.0241,-107.881 79.3595,-114.421 76.9217,-104.111 71.0241,-107.881"/>
</g>
<!-- Node3 -->
<g id="node3" class="node"><title>Node3</title>
<g id="a_node3"><a xlink:href="$THBuilder_8h.xhtml" xlink:title="src/TH/THBuilder.h">
<polygon fill="none" stroke="black" points="34,-0.5 34,-20.5 144,-20.5 144,-0.5 34,-0.5"/>
<text text-anchor="middle" x="89" y="-7.7" font-family="Helvetica,sans-Serif" font-size="11.00">src/TH/THBuilder.h</text>
</a>
</g>
</g>
<!-- Node1&#45;&gt;Node3 -->
<g id="edge3" class="edge"><title>Node1&#45;&gt;Node3</title>
<path fill="none" stroke="midnightblue" d="M101.805,-104.967C107.565,-91.0099 112.391,-73.1432 109,-57 106.197,-43.6578 99.2356,-29.453 94.3165,-20.5327"/>
<polygon fill="midnightblue" stroke="midnightblue" points="98.4889,-103.806 97.5506,-114.359 104.865,-106.695 98.4889,-103.806"/>
</g>
<!-- Node2&#45;&gt;Node3 -->
<g id="edge2" class="edge"><title>Node2&#45;&gt;Node3</title>
<path fill="none" stroke="midnightblue" d="M62.3052,-49.1465C68.968,-39.7503 76.9342,-28.5159 82.42,-20.7795"/>
<polygon fill="midnightblue" stroke="midnightblue" points="59.3693,-47.236 56.4401,-57.4179 65.0795,-51.285 59.3693,-47.236"/>
</g>
</g>
</svg>
