<?xml version="1.0" encoding="UTF-8" standalone="no"?>
<!DOCTYPE svg PUBLIC "-//W3C//DTD SVG 1.1//EN"
 "http://www.w3.org/Graphics/SVG/1.1/DTD/svg11.dtd">
<!-- Generated by graphviz version 2.38.0 (20140413.2041)
 -->
<!-- Title: src/TH/macros.h Pages: 1 -->
<svg width="2177pt" height="521pt"
 viewBox="0.00 0.00 2177.00 521.00" xmlns="http://www.w3.org/2000/svg" xmlns:xlink="http://www.w3.org/1999/xlink">
<g id="graph0" class="graph" transform="scale(1 1) rotate(0) translate(4 517)">
<title>src/TH/macros.h</title>
<!-- Node1 -->
<g id="node1" class="node"><title>Node1</title>
<polygon fill="#bfbfbf" stroke="black" points="2073,-492.5 2073,-512.5 2169,-512.5 2169,-492.5 2073,-492.5"/>
<text text-anchor="middle" x="2121" y="-499.7" font-family="Helvetica,sans-Serif" font-size="11.00">src/TH/macros.h</text>
</g>
<!-- Node2 -->
<g id="node2" class="node"><title>Node2</title>
<g id="a_node2"><a xlink:href="$THUtil_8h.xhtml" xlink:title="src/TH/THUtil.h">
<polygon fill="none" stroke="black" points="2038,-435.5 2038,-455.5 2130,-455.5 2130,-435.5 2038,-435.5"/>
<text text-anchor="middle" x="2084" y="-442.7" font-family="Helvetica,sans-Serif" font-size="11.00">src/TH/THUtil.h</text>
</a>
</g>
</g>
<!-- Node1&#45;&gt;Node2 -->
<g id="edge1" class="edge"><title>Node1&#45;&gt;Node2</title>
<path fill="none" stroke="midnightblue" d="M2109.13,-483.855C2102.85,-474.519 2095.39,-463.436 2090.24,-455.779"/>
<polygon fill="midnightblue" stroke="midnightblue" points="2106.4,-486.074 2114.89,-492.418 2112.21,-482.167 2106.4,-486.074"/>
</g>
<!-- Node7 -->
<g id="node7" class="node"><title>Node7</title>
<g id="a_node7"><a xlink:href="$THBuilder_8h.xhtml" xlink:title="src/TH/THBuilder.h">
<polygon fill="none" stroke="black" points="1240,-0.5 1240,-20.5 1350,-20.5 1350,-0.5 1240,-0.5"/>
<text text-anchor="middle" x="1295" y="-7.7" font-family="Helvetica,sans-Serif" font-size="11.00">src/TH/THBuilder.h</text>
</a>
</g>
</g>
<!-- Node1&#45;&gt;Node7 -->
<g id="edge52" class="edge"><title>Node1&#45;&gt;Node7</title>
<path fill="none" stroke="midnightblue" d="M2131.04,-483.223C2142,-461.538 2158,-423.973 2158,-389.5 2158,-389.5 2158,-389.5 2158,-141.5 2158,-89.7833 2124.89,-78.8125 2078,-57 2012.49,-26.5257 1517.37,-15.3068 1350.05,-12.3623"/>
<polygon fill="midnightblue" stroke="midnightblue" points="2127.85,-481.774 2126.3,-492.255 2134.05,-485.028 2127.85,-481.774"/>
</g>
<!-- Node3 -->
<g id="node3" class="node"><title>Node3</title>
<g id="a_node3"><a xlink:href="$Solution_8h.xhtml" xlink:title="src/TH/Solution.h">
<polygon fill="none" stroke="black" points="1700,-378.5 1700,-398.5 1800,-398.5 1800,-378.5 1700,-378.5"/>
<text text-anchor="middle" x="1750" y="-385.7" font-family="Helvetica,sans-Serif" font-size="11.00">src/TH/Solution.h</text>
</a>
</g>
</g>
<!-- Node2&#45;&gt;Node3 -->
<g id="edge2" class="edge"><title>Node2&#45;&gt;Node3</title>
<path fill="none" stroke="midnightblue" d="M2027.65,-435.221C1963.98,-424.736 1861.29,-407.826 1800.25,-397.774"/>
<polygon fill="midnightblue" stroke="midnightblue" points="2027.47,-438.739 2037.91,-436.91 2028.61,-431.832 2027.47,-438.739"/>
</g>
<!-- Node2&#45;&gt;Node7 -->
<g id="edge51" class="edge"><title>Node2&#45;&gt;Node7</title>
<path fill="none" stroke="midnightblue" d="M2093.77,-426.191C2104.43,-404.476 2120,-366.882 2120,-332.5 2120,-332.5 2120,-332.5 2120,-141.5 2120,-86.6327 2080.37,-78.7628 2030,-57 1968.2,-30.2979 1510.55,-16.7343 1350.26,-12.7649"/>
<polygon fill="midnightblue" stroke="midnightblue" points="2090.58,-424.739 2089.16,-435.237 2096.82,-427.92 2090.58,-424.739"/>
</g>
<!-- Node4 -->
<g id="node4" class="node"><title>Node4</title>
<g id="a_node4"><a xlink:href="$BestList_8h.xhtml" xlink:title="src/TH/BestList.h">
<polygon fill="none" stroke="black" points="186.5,-201.5 186.5,-221.5 285.5,-221.5 285.5,-201.5 186.5,-201.5"/>
<text text-anchor="middle" x="236" y="-208.7" font-family="Helvetica,sans-Serif" font-size="11.00">src/TH/BestList.h</text>
</a>
</g>
</g>
<!-- Node3&#45;&gt;Node4 -->
<g id="edge3" class="edge"><title>Node3&#45;&gt;Node4</title>
<path fill="none" stroke="midnightblue" d="M1689.4,-380.495C1442.13,-351.914 511.965,-244.398 285.794,-218.256"/>
<polygon fill="midnightblue" stroke="midnightblue" points="1689.29,-384.006 1699.63,-381.677 1690.09,-377.052 1689.29,-384.006"/>
</g>
<!-- Node3&#45;&gt;Node7 -->
<g id="edge49" class="edge"><title>Node3&#45;&gt;Node7</title>
<path fill="none" stroke="midnightblue" d="M1810.19,-379.75C1905.88,-365.726 2082,-332.211 2082,-275.5 2082,-275.5 2082,-275.5 2082,-141.5 2082,-80.554 2030.92,-78.7783 1974,-57 1860.48,-13.5681 1490.83,-10.5588 1350.09,-11.0508"/>
<polygon fill="midnightblue" stroke="midnightblue" points="1809.46,-376.319 1800.06,-381.206 1810.46,-383.247 1809.46,-376.319"/>
</g>
<!-- Node11 -->
<g id="node11" class="node"><title>Node11</title>
<g id="a_node11"><a xlink:href="$TH_8h.xhtml" xlink:title="src/TH/TH.h">
<polygon fill="none" stroke="black" points="0,-132.5 0,-152.5 76,-152.5 76,-132.5 0,-132.5"/>
<text text-anchor="middle" x="38" y="-139.7" font-family="Helvetica,sans-Serif" font-size="11.00">src/TH/TH.h</text>
</a>
</g>
</g>
<!-- Node3&#45;&gt;Node11 -->
<g id="edge48" class="edge"><title>Node3&#45;&gt;Node11</title>
<path fill="none" stroke="midnightblue" d="M1689.51,-383.314C1585.64,-375.977 1366.68,-359.867 1182,-342 734.558,-298.713 602.336,-373.491 177,-228 124.894,-210.177 71.5182,-170.478 49.0399,-152.571"/>
<polygon fill="midnightblue" stroke="midnightblue" points="1689.58,-386.827 1699.8,-384.038 1690.07,-379.844 1689.58,-386.827"/>
</g>
<!-- Node12 -->
<g id="node12" class="node"><title>Node12</title>
<g id="a_node12"><a xlink:href="$FitnessPolicy_8h.xhtml" xlink:title="src/TH/FitnessPolicy.h">
<polygon fill="none" stroke="black" points="1560,-321.5 1560,-341.5 1684,-341.5 1684,-321.5 1560,-321.5"/>
<text text-anchor="middle" x="1622" y="-328.7" font-family="Helvetica,sans-Serif" font-size="11.00">src/TH/FitnessPolicy.h</text>
</a>
</g>
</g>
<!-- Node3&#45;&gt;Node12 -->
<g id="edge16" class="edge"><title>Node3&#45;&gt;Node12</title>
<path fill="none" stroke="midnightblue" d="M1719.66,-374.463C1696.1,-364.338 1664.02,-350.557 1643.17,-341.596"/>
<polygon fill="midnightblue" stroke="midnightblue" points="1718.29,-377.686 1728.86,-378.418 1721.06,-371.254 1718.29,-377.686"/>
</g>
<!-- Node23 -->
<g id="node23" class="node"><title>Node23</title>
<g id="a_node23"><a xlink:href="$RosenbrockFitnessPolicy_8h.xhtml" xlink:title="src/RosenbrockFitnessPolicy.h">
<polygon fill="none" stroke="black" points="1830,-264.5 1830,-284.5 1994,-284.5 1994,-264.5 1830,-264.5"/>
<text text-anchor="middle" x="1912" y="-271.7" font-family="Helvetica,sans-Serif" font-size="11.00">src/RosenbrockFitnessPolicy.h</text>
</a>
</g>
</g>
<!-- Node3&#45;&gt;Node23 -->
<g id="edge50" class="edge"><title>Node3&#45;&gt;Node23</title>
<path fill="none" stroke="midnightblue" d="M1771.57,-372.586C1805.54,-349.101 1870.51,-304.183 1898.56,-284.792"/>
<polygon fill="midnightblue" stroke="midnightblue" points="1769.49,-369.769 1763.26,-378.335 1773.47,-375.527 1769.49,-369.769"/>
</g>
<!-- Node25 -->
<g id="node25" class="node"><title>Node25</title>
<g id="a_node25"><a xlink:href="$IterationData_8h.xhtml" xlink:title="src/TH/IterationData.h">
<polygon fill="none" stroke="black" points="1688.5,-264.5 1688.5,-284.5 1811.5,-284.5 1811.5,-264.5 1688.5,-264.5"/>
<text text-anchor="middle" x="1750" y="-271.7" font-family="Helvetica,sans-Serif" font-size="11.00">src/TH/IterationData.h</text>
</a>
</g>
</g>
<!-- Node3&#45;&gt;Node25 -->
<g id="edge38" class="edge"><title>Node3&#45;&gt;Node25</title>
<path fill="none" stroke="midnightblue" d="M1750,-368.17C1750,-343.839 1750,-303.028 1750,-284.792"/>
<polygon fill="midnightblue" stroke="midnightblue" points="1746.5,-368.335 1750,-378.335 1753.5,-368.335 1746.5,-368.335"/>
</g>
<!-- Node5 -->
<g id="node5" class="node"><title>Node5</title>
<g id="a_node5"><a xlink:href="$BestListSelectionPolicy_8h.xhtml" xlink:title="src/TH/BestListSelection\lPolicy.h">
<polygon fill="none" stroke="black" points="169,-126.5 169,-158.5 303,-158.5 303,-126.5 169,-126.5"/>
<text text-anchor="start" x="177" y="-145.7" font-family="Helvetica,sans-Serif" font-size="11.00">src/TH/BestListSelection</text>
<text text-anchor="middle" x="236" y="-133.7" font-family="Helvetica,sans-Serif" font-size="11.00">Policy.h</text>
</a>
</g>
</g>
<!-- Node4&#45;&gt;Node5 -->
<g id="edge4" class="edge"><title>Node4&#45;&gt;Node5</title>
<path fill="none" stroke="midnightblue" d="M236,-191.308C236,-180.898 236,-168.218 236,-158.533"/>
<polygon fill="midnightblue" stroke="midnightblue" points="232.5,-191.464 236,-201.464 239.5,-191.464 232.5,-191.464"/>
</g>
<!-- Node4&#45;&gt;Node7 -->
<g id="edge15" class="edge"><title>Node4&#45;&gt;Node7</title>
<path fill="none" stroke="midnightblue" d="M205.67,-196.83C189.774,-188.168 171.31,-175.477 160,-159 134.031,-121.167 112.2,-90.0821 144,-57 182.35,-17.1041 1015.08,-12.1836 1239.63,-11.5824"/>
<polygon fill="midnightblue" stroke="midnightblue" points="204.167,-199.992 214.659,-201.461 207.373,-193.77 204.167,-199.992"/>
</g>
<!-- Node8 -->
<g id="node8" class="node"><title>Node8</title>
<g id="a_node8"><a xlink:href="$BestListUpdatePolicy_8h.xhtml" xlink:title="src/TH/BestListUpdatePolicy.h">
<polygon fill="none" stroke="black" points="386.5,-132.5 386.5,-152.5 549.5,-152.5 549.5,-132.5 386.5,-132.5"/>
<text text-anchor="middle" x="468" y="-139.7" font-family="Helvetica,sans-Serif" font-size="11.00">src/TH/BestListUpdatePolicy.h</text>
</a>
</g>
</g>
<!-- Node4&#45;&gt;Node8 -->
<g id="edge8" class="edge"><title>Node4&#45;&gt;Node8</title>
<path fill="none" stroke="midnightblue" d="M277.141,-198.619C322.707,-185.459 395.177,-164.531 436.466,-152.607"/>
<polygon fill="midnightblue" stroke="midnightblue" points="275.925,-195.327 267.289,-201.464 277.867,-202.052 275.925,-195.327"/>
</g>
<!-- Node4&#45;&gt;Node11 -->
<g id="edge13" class="edge"><title>Node4&#45;&gt;Node11</title>
<path fill="none" stroke="midnightblue" d="M199.407,-198.118C160.445,-184.933 99.7065,-164.38 64.9124,-152.607"/>
<polygon fill="midnightblue" stroke="midnightblue" points="198.703,-201.574 209.297,-201.464 200.946,-194.943 198.703,-201.574"/>
</g>
<!-- Node6 -->
<g id="node6" class="node"><title>Node6</title>
<g id="a_node6"><a xlink:href="$RandomBestListSelectionPolicy_8h.xhtml" xlink:title="src/TH/RandomBestListSelection\lPolicy.h">
<polygon fill="none" stroke="black" points="163,-57.5 163,-89.5 339,-89.5 339,-57.5 163,-57.5"/>
<text text-anchor="start" x="171" y="-76.7" font-family="Helvetica,sans-Serif" font-size="11.00">src/TH/RandomBestListSelection</text>
<text text-anchor="middle" x="251" y="-64.7" font-family="Helvetica,sans-Serif" font-size="11.00">Policy.h</text>
</a>
</g>
</g>
<!-- Node5&#45;&gt;Node6 -->
<g id="edge5" class="edge"><title>Node5&#45;&gt;Node6</title>
<path fill="none" stroke="midnightblue" d="M241.638,-116.318C243.647,-107.341 245.848,-97.5143 247.61,-89.6432"/>
<polygon fill="midnightblue" stroke="midnightblue" points="238.173,-115.774 239.404,-126.297 245.004,-117.303 238.173,-115.774"/>
</g>
<!-- Node5&#45;&gt;Node7 -->
<g id="edge7" class="edge"><title>Node5&#45;&gt;Node7</title>
<path fill="none" stroke="midnightblue" d="M186.593,-121.371C173.679,-113.58 161.335,-103.269 154,-90 146.904,-77.1641 143.838,-67.5755 154,-57 191.989,-17.466 1016.57,-12.2813 1239.74,-11.6022"/>
<polygon fill="midnightblue" stroke="midnightblue" points="185.129,-124.562 195.569,-126.368 188.534,-118.446 185.129,-124.562"/>
</g>
<!-- Node6&#45;&gt;Node7 -->
<g id="edge6" class="edge"><title>Node6&#45;&gt;Node7</title>
<path fill="none" stroke="midnightblue" d="M349.141,-57.3976C350.435,-57.2603 351.722,-57.1277 353,-57 688.823,-23.4629 1094.56,-14.4343 1239.91,-12.1893"/>
<polygon fill="midnightblue" stroke="midnightblue" points="348.654,-53.9304 339.112,-58.5346 349.443,-60.8858 348.654,-53.9304"/>
</g>
<!-- Node8&#45;&gt;Node7 -->
<g id="edge12" class="edge"><title>Node8&#45;&gt;Node7</title>
<path fill="none" stroke="midnightblue" d="M431.345,-128.249C414.329,-120.036 395.745,-107.627 386,-90 378.904,-77.1641 375.892,-67.627 386,-57 415.522,-25.9628 1047.41,-14.858 1239.86,-12.1886"/>
<polygon fill="midnightblue" stroke="midnightblue" points="430.014,-131.488 440.571,-132.386 432.879,-125.101 430.014,-131.488"/>
</g>
<!-- Node9 -->
<g id="node9" class="node"><title>Node9</title>
<g id="a_node9"><a xlink:href="$ConvergentBestListUpdatePolicy_8h.xhtml" xlink:title="src/TH/ConvergentBestList\lUpdatePolicy.h">
<polygon fill="none" stroke="black" points="395,-57.5 395,-89.5 541,-89.5 541,-57.5 395,-57.5"/>
<text text-anchor="start" x="403" y="-76.7" font-family="Helvetica,sans-Serif" font-size="11.00">src/TH/ConvergentBestList</text>
<text text-anchor="middle" x="468" y="-64.7" font-family="Helvetica,sans-Serif" font-size="11.00">UpdatePolicy.h</text>
</a>
</g>
</g>
<!-- Node8&#45;&gt;Node9 -->
<g id="edge9" class="edge"><title>Node8&#45;&gt;Node9</title>
<path fill="none" stroke="midnightblue" d="M468,-122.308C468,-111.898 468,-99.2184 468,-89.5335"/>
<polygon fill="midnightblue" stroke="midnightblue" points="464.5,-122.464 468,-132.464 471.5,-122.464 464.5,-122.464"/>
</g>
<!-- Node10 -->
<g id="node10" class="node"><title>Node10</title>
<g id="a_node10"><a xlink:href="$DivergentBestListUpdatePolicy_8h.xhtml" xlink:title="src/TH/DivergentBestList\lUpdatePolicy.h">
<polygon fill="none" stroke="black" points="559.5,-57.5 559.5,-89.5 696.5,-89.5 696.5,-57.5 559.5,-57.5"/>
<text text-anchor="start" x="567.5" y="-76.7" font-family="Helvetica,sans-Serif" font-size="11.00">src/TH/DivergentBestList</text>
<text text-anchor="middle" x="628" y="-64.7" font-family="Helvetica,sans-Serif" font-size="11.00">UpdatePolicy.h</text>
</a>
</g>
</g>
<!-- Node8&#45;&gt;Node10 -->
<g id="edge11" class="edge"><title>Node8&#45;&gt;Node10</title>
<path fill="none" stroke="midnightblue" d="M498.821,-128.594C525.482,-117.429 564.05,-101.279 592.099,-89.5335"/>
<polygon fill="midnightblue" stroke="midnightblue" points="497.45,-125.373 489.578,-132.464 500.154,-131.83 497.45,-125.373"/>
</g>
<!-- Node9&#45;&gt;Node7 -->
<g id="edge10" class="edge"><title>Node9&#45;&gt;Node7</title>
<path fill="none" stroke="midnightblue" d="M551.37,-56.9315C814.352,-24.8023 1117.25,-15.2295 1239.64,-12.5017"/>
<polygon fill="midnightblue" stroke="midnightblue" points="550.741,-53.4825 541.246,-58.1821 551.599,-60.4297 550.741,-53.4825"/>
</g>
<!-- Node11&#45;&gt;Node7 -->
<g id="edge14" class="edge"><title>Node11&#45;&gt;Node7</title>
<path fill="none" stroke="midnightblue" d="M42.2528,-122.405C47.8501,-102.276 59.8233,-71.5141 83,-57 132.578,-25.9523 1009.57,-14.5198 1239.94,-12.0451"/>
<polygon fill="midnightblue" stroke="midnightblue" points="38.8032,-121.773 39.7686,-132.323 45.5934,-123.473 38.8032,-121.773"/>
</g>
<!-- Node12&#45;&gt;Node7 -->
<g id="edge35" class="edge"><title>Node12&#45;&gt;Node7</title>
<path fill="none" stroke="midnightblue" d="M1622,-311.033C1622,-287.64 1622,-247.2 1622,-212.5 1622,-212.5 1622,-212.5 1622,-141.5 1622,-98.3082 1609.45,-81.6699 1574,-57 1538.7,-32.4373 1420.98,-20.1815 1350.23,-14.8936"/>
<polygon fill="midnightblue" stroke="midnightblue" points="1618.5,-311.32 1622,-321.32 1625.5,-311.32 1618.5,-311.32"/>
</g>
<!-- Node12&#45;&gt;Node8 -->
<g id="edge17" class="edge"><title>Node12&#45;&gt;Node8</title>
<path fill="none" stroke="midnightblue" d="M1554.22,-319.887C1436.68,-301.447 1187.43,-262.186 977,-228 810.774,-200.995 614.185,-168.082 521.476,-152.503"/>
<polygon fill="midnightblue" stroke="midnightblue" points="1553.74,-323.354 1564.16,-321.446 1554.82,-316.438 1553.74,-323.354"/>
</g>
<!-- Node13 -->
<g id="node13" class="node"><title>Node13</title>
<g id="a_node13"><a xlink:href="$Search_8h.xhtml" xlink:title="src/TH/Search.h">
<polygon fill="none" stroke="black" points="1425.5,-264.5 1425.5,-284.5 1520.5,-284.5 1520.5,-264.5 1425.5,-264.5"/>
<text text-anchor="middle" x="1473" y="-271.7" font-family="Helvetica,sans-Serif" font-size="11.00">src/TH/Search.h</text>
</a>
</g>
</g>
<!-- Node12&#45;&gt;Node13 -->
<g id="edge18" class="edge"><title>Node12&#45;&gt;Node13</title>
<path fill="none" stroke="midnightblue" d="M1587.77,-317.866C1560.25,-307.707 1522.24,-293.677 1497.64,-284.596"/>
<polygon fill="midnightblue" stroke="midnightblue" points="1586.8,-321.238 1597.4,-321.418 1589.23,-314.671 1586.8,-321.238"/>
</g>
<!-- Node12&#45;&gt;Node23 -->
<g id="edge36" class="edge"><title>Node12&#45;&gt;Node23</title>
<path fill="none" stroke="midnightblue" d="M1679.69,-319.558C1733.83,-309.291 1813.83,-294.118 1864.41,-284.525"/>
<polygon fill="midnightblue" stroke="midnightblue" points="1678.74,-316.177 1669.56,-321.479 1680.04,-323.055 1678.74,-316.177"/>
</g>
<!-- Node13&#45;&gt;Node7 -->
<g id="edge31" class="edge"><title>Node13&#45;&gt;Node7</title>
<path fill="none" stroke="midnightblue" d="M1522.02,-260.841C1538.59,-253.966 1555.33,-243.564 1565,-228 1589.52,-188.524 1624.5,-138.383 1547,-57 1520.63,-29.3117 1415.94,-18.2901 1350.07,-14.0383"/>
<polygon fill="midnightblue" stroke="midnightblue" points="1520.45,-257.69 1512.33,-264.494 1522.92,-264.24 1520.45,-257.69"/>
</g>
<!-- Node14 -->
<g id="node14" class="node"><title>Node14</title>
<g id="a_node14"><a xlink:href="$ConvergenceControlPolicy_8h.xhtml" xlink:title="src/TH/ConvergenceControl\lPolicy.h">
<polygon fill="none" stroke="black" points="701,-126.5 701,-158.5 853,-158.5 853,-126.5 701,-126.5"/>
<text text-anchor="start" x="709" y="-145.7" font-family="Helvetica,sans-Serif" font-size="11.00">src/TH/ConvergenceControl</text>
<text text-anchor="middle" x="777" y="-133.7" font-family="Helvetica,sans-Serif" font-size="11.00">Policy.h</text>
</a>
</g>
</g>
<!-- Node13&#45;&gt;Node14 -->
<g id="edge19" class="edge"><title>Node13&#45;&gt;Node14</title>
<path fill="none" stroke="midnightblue" d="M1415.2,-267.878C1345.9,-260.692 1226.42,-246.886 1125,-228 1020.02,-208.452 899.268,-177.099 831.156,-158.58"/>
<polygon fill="midnightblue" stroke="midnightblue" points="1415.16,-271.392 1425.46,-268.932 1415.87,-264.429 1415.16,-271.392"/>
</g>
<!-- Node16 -->
<g id="node16" class="node"><title>Node16</title>
<g id="a_node16"><a xlink:href="$SearchScore_8h.xhtml" xlink:title="src/TH/SearchScore.h">
<polygon fill="none" stroke="black" points="1134,-201.5 1134,-221.5 1258,-221.5 1258,-201.5 1134,-201.5"/>
<text text-anchor="middle" x="1196" y="-208.7" font-family="Helvetica,sans-Serif" font-size="11.00">src/TH/SearchScore.h</text>
</a>
</g>
</g>
<!-- Node13&#45;&gt;Node16 -->
<g id="edge23" class="edge"><title>Node13&#45;&gt;Node16</title>
<path fill="none" stroke="midnightblue" d="M1422.21,-262.316C1368.96,-250.59 1286.32,-232.389 1237.04,-221.538"/>
<polygon fill="midnightblue" stroke="midnightblue" points="1421.61,-265.767 1432.13,-264.499 1423.11,-258.93 1421.61,-265.767"/>
</g>
<!-- Node21 -->
<g id="node21" class="node"><title>Node21</title>
<g id="a_node21"><a xlink:href="$PSO_8h.xhtml" xlink:title="src/PSO.h">
<polygon fill="none" stroke="black" points="1490,-201.5 1490,-221.5 1556,-221.5 1556,-201.5 1490,-201.5"/>
<text text-anchor="middle" x="1523" y="-208.7" font-family="Helvetica,sans-Serif" font-size="11.00">src/PSO.h</text>
</a>
</g>
</g>
<!-- Node13&#45;&gt;Node21 -->
<g id="edge32" class="edge"><title>Node13&#45;&gt;Node21</title>
<path fill="none" stroke="midnightblue" d="M1486.87,-256.578C1496.17,-245.234 1508.05,-230.742 1515.59,-221.538"/>
<polygon fill="midnightblue" stroke="midnightblue" points="1484.01,-254.547 1480.38,-264.499 1489.42,-258.984 1484.01,-254.547"/>
</g>
<!-- Node22 -->
<g id="node22" class="node"><title>Node22</title>
<g id="a_node22"><a xlink:href="$HillClimbing_8h.xhtml" xlink:title="src/HillClimbing.h">
<polygon fill="none" stroke="black" points="1372,-201.5 1372,-221.5 1472,-221.5 1472,-201.5 1372,-201.5"/>
<text text-anchor="middle" x="1422" y="-208.7" font-family="Helvetica,sans-Serif" font-size="11.00">src/HillClimbing.h</text>
</a>
</g>
</g>
<!-- Node13&#45;&gt;Node22 -->
<g id="edge33" class="edge"><title>Node13&#45;&gt;Node22</title>
<path fill="none" stroke="midnightblue" d="M1458.85,-256.578C1449.37,-245.234 1437.25,-230.742 1429.56,-221.538"/>
<polygon fill="midnightblue" stroke="midnightblue" points="1456.38,-259.072 1465.47,-264.499 1461.75,-254.582 1456.38,-259.072"/>
</g>
<!-- Node14&#45;&gt;Node7 -->
<g id="edge22" class="edge"><title>Node14&#45;&gt;Node7</title>
<path fill="none" stroke="midnightblue" d="M755.989,-118.335C741.76,-99.8096 728.18,-74.1801 744,-57 777.119,-21.0333 1106.55,-13.4961 1239.65,-11.9177"/>
<polygon fill="midnightblue" stroke="midnightblue" points="753.439,-120.748 762.468,-126.291 758.867,-116.327 753.439,-120.748"/>
</g>
<!-- Node15 -->
<g id="node15" class="node"><title>Node15</title>
<g id="a_node15"><a xlink:href="$CSMOn_8h.xhtml" xlink:title="src/TH/CSMOn.h">
<polygon fill="none" stroke="black" points="753,-63.5 753,-83.5 853,-83.5 853,-63.5 753,-63.5"/>
<text text-anchor="middle" x="803" y="-70.7" font-family="Helvetica,sans-Serif" font-size="11.00">src/TH/CSMOn.h</text>
</a>
</g>
</g>
<!-- Node14&#45;&gt;Node15 -->
<g id="edge20" class="edge"><title>Node14&#45;&gt;Node15</title>
<path fill="none" stroke="midnightblue" d="M786.627,-116.693C791.102,-105.16 796.151,-92.1501 799.444,-83.6646"/>
<polygon fill="midnightblue" stroke="midnightblue" points="783.255,-115.708 782.9,-126.297 789.781,-118.24 783.255,-115.708"/>
</g>
<!-- Node15&#45;&gt;Node7 -->
<g id="edge21" class="edge"><title>Node15&#45;&gt;Node7</title>
<path fill="none" stroke="midnightblue" d="M846.519,-61.1483C853.343,-59.6037 860.34,-58.1553 867,-57 999.893,-33.947 1158.16,-20.7827 1239.95,-15.0229"/>
<polygon fill="midnightblue" stroke="midnightblue" points="845.638,-57.7599 836.705,-63.457 847.241,-64.5739 845.638,-57.7599"/>
</g>
<!-- Node16&#45;&gt;Node7 -->
<g id="edge30" class="edge"><title>Node16&#45;&gt;Node7</title>
<path fill="none" stroke="midnightblue" d="M1131.23,-199.489C1030.54,-179.732 854.642,-133.074 922,-57 942.704,-33.6166 1141.15,-19.7564 1239.84,-14.2565"/>
<polygon fill="midnightblue" stroke="midnightblue" points="1130.85,-202.979 1141.33,-201.429 1132.17,-196.105 1130.85,-202.979"/>
</g>
<!-- Node17 -->
<g id="node17" class="node"><title>Node17</title>
<g id="a_node17"><a xlink:href="$SearchAlgorithmSelectionPolicy_8h.xhtml" xlink:title="src/TH/SearchAlgorithmSelection\lPolicy.h">
<polygon fill="none" stroke="black" points="1108,-126.5 1108,-158.5 1284,-158.5 1284,-126.5 1108,-126.5"/>
<text text-anchor="start" x="1116" y="-145.7" font-family="Helvetica,sans-Serif" font-size="11.00">src/TH/SearchAlgorithmSelection</text>
<text text-anchor="middle" x="1196" y="-133.7" font-family="Helvetica,sans-Serif" font-size="11.00">Policy.h</text>
</a>
</g>
</g>
<!-- Node16&#45;&gt;Node17 -->
<g id="edge24" class="edge"><title>Node16&#45;&gt;Node17</title>
<path fill="none" stroke="midnightblue" d="M1196,-191.308C1196,-180.898 1196,-168.218 1196,-158.533"/>
<polygon fill="midnightblue" stroke="midnightblue" points="1192.5,-191.464 1196,-201.464 1199.5,-191.464 1192.5,-191.464"/>
</g>
<!-- Node17&#45;&gt;Node7 -->
<g id="edge29" class="edge"><title>Node17&#45;&gt;Node7</title>
<path fill="none" stroke="midnightblue" d="M1097.76,-138.929C1005.09,-133.052 887.358,-114.507 938,-57 957.614,-34.7272 1144.76,-20.4523 1239.96,-14.5722"/>
<polygon fill="midnightblue" stroke="midnightblue" points="1097.6,-142.425 1107.79,-139.522 1098.01,-135.437 1097.6,-142.425"/>
</g>
<!-- Node18 -->
<g id="node18" class="node"><title>Node18</title>
<g id="a_node18"><a xlink:href="$ReinforcementLearningSearchAlgorithmSelectionPolicy_8h.xhtml" xlink:title="src/TH/ReinforcementLearning\lSearchAlgorithmSelectionPolicy.h">
<polygon fill="none" stroke="black" points="1158.5,-57.5 1158.5,-89.5 1337.5,-89.5 1337.5,-57.5 1158.5,-57.5"/>
<text text-anchor="start" x="1166.5" y="-76.7" font-family="Helvetica,sans-Serif" font-size="11.00">src/TH/ReinforcementLearning</text>
<text text-anchor="middle" x="1248" y="-64.7" font-family="Helvetica,sans-Serif" font-size="11.00">SearchAlgorithmSelectionPolicy.h</text>
</a>
</g>
</g>
<!-- Node17&#45;&gt;Node18 -->
<g id="edge25" class="edge"><title>Node17&#45;&gt;Node18</title>
<path fill="none" stroke="midnightblue" d="M1213.97,-118.351C1221.34,-108.848 1229.67,-98.1132 1236.25,-89.6432"/>
<polygon fill="midnightblue" stroke="midnightblue" points="1211.17,-116.251 1207.8,-126.297 1216.7,-120.543 1211.17,-116.251"/>
</g>
<!-- Node19 -->
<g id="node19" class="node"><title>Node19</title>
<g id="a_node19"><a xlink:href="$RoundRobinSearchAlgorithmSelectionPolicy_8h.xhtml" xlink:title="src/TH/RoundRobinSearchAlgorithm\lSelectionPolicy.h">
<polygon fill="none" stroke="black" points="947.5,-57.5 947.5,-89.5 1140.5,-89.5 1140.5,-57.5 947.5,-57.5"/>
<text text-anchor="start" x="955.5" y="-76.7" font-family="Helvetica,sans-Serif" font-size="11.00">src/TH/RoundRobinSearchAlgorithm</text>
<text text-anchor="middle" x="1044" y="-64.7" font-family="Helvetica,sans-Serif" font-size="11.00">SelectionPolicy.h</text>
</a>
</g>
</g>
<!-- Node17&#45;&gt;Node19 -->
<g id="edge26" class="edge"><title>Node17&#45;&gt;Node19</title>
<path fill="none" stroke="midnightblue" d="M1152.47,-122.313C1128.91,-111.927 1100.22,-99.2794 1078.26,-89.6017"/>
<polygon fill="midnightblue" stroke="midnightblue" points="1151.33,-125.633 1161.89,-126.464 1154.15,-119.228 1151.33,-125.633"/>
</g>
<!-- Node20 -->
<g id="node20" class="node"><title>Node20</title>
<g id="a_node20"><a xlink:href="$SingleSearchAlgorithmSelectionPolicy_8h.xhtml" xlink:title="src/TH/SingleSearchAlgorithm\lSelectionPolicy.h">
<polygon fill="none" stroke="black" points="1356,-57.5 1356,-89.5 1518,-89.5 1518,-57.5 1356,-57.5"/>
<text text-anchor="start" x="1364" y="-76.7" font-family="Helvetica,sans-Serif" font-size="11.00">src/TH/SingleSearchAlgorithm</text>
<text text-anchor="middle" x="1437" y="-64.7" font-family="Helvetica,sans-Serif" font-size="11.00">SelectionPolicy.h</text>
</a>
</g>
</g>
<!-- Node17&#45;&gt;Node20 -->
<g id="edge28" class="edge"><title>Node17&#45;&gt;Node20</title>
<path fill="none" stroke="midnightblue" d="M1260.08,-123.684C1298.31,-113.057 1346.32,-99.7095 1382.68,-89.6017"/>
<polygon fill="midnightblue" stroke="midnightblue" points="1258.78,-120.413 1250.09,-126.464 1260.66,-127.157 1258.78,-120.413"/>
</g>
<!-- Node19&#45;&gt;Node7 -->
<g id="edge27" class="edge"><title>Node19&#45;&gt;Node7</title>
<path fill="none" stroke="midnightblue" d="M1115.71,-55.0731C1162.01,-43.8204 1220.36,-29.6394 1257.68,-20.5695"/>
<polygon fill="midnightblue" stroke="midnightblue" points="1114.61,-51.737 1105.72,-57.4996 1116.27,-58.539 1114.61,-51.737"/>
</g>
<!-- Node22&#45;&gt;Node7 -->
<g id="edge34" class="edge"><title>Node22&#45;&gt;Node7</title>
<path fill="none" stroke="midnightblue" d="M1445.24,-195.863C1486.93,-167.83 1566.57,-105.08 1527,-57 1505.03,-30.2984 1411.47,-19.0349 1350.08,-14.4547"/>
<polygon fill="midnightblue" stroke="midnightblue" points="1443.17,-193.036 1436.74,-201.454 1447.01,-198.885 1443.17,-193.036"/>
</g>
<!-- Node24 -->
<g id="node24" class="node"><title>Node24</title>
<g id="a_node24"><a xlink:href="$RosenbrockFitnessPolicy_8cpp.xhtml" xlink:title="src/RosenbrockFitnessPolicy.cpp">
<polygon fill="none" stroke="black" points="1878.5,-201.5 1878.5,-221.5 2053.5,-221.5 2053.5,-201.5 1878.5,-201.5"/>
<text text-anchor="middle" x="1966" y="-208.7" font-family="Helvetica,sans-Serif" font-size="11.00">src/RosenbrockFitnessPolicy.cpp</text>
</a>
</g>
</g>
<!-- Node23&#45;&gt;Node24 -->
<g id="edge37" class="edge"><title>Node23&#45;&gt;Node24</title>
<path fill="none" stroke="midnightblue" d="M1926.69,-256.911C1936.77,-245.519 1949.77,-230.833 1958,-221.538"/>
<polygon fill="midnightblue" stroke="midnightblue" points="1923.98,-254.692 1919.97,-264.499 1929.22,-259.332 1923.98,-254.692"/>
</g>
<!-- Node25&#45;&gt;Node7 -->
<g id="edge47" class="edge"><title>Node25&#45;&gt;Node7</title>
<path fill="none" stroke="midnightblue" d="M1777.29,-259.604C1793.12,-251.15 1813.19,-239.744 1830,-228 1848.61,-214.998 1848.7,-205.172 1869,-195 1932.62,-163.122 1980.7,-214.685 2025,-159 2034.13,-147.522 2031.91,-138.939 2025,-126 1999.05,-77.3904 1974.1,-74.9247 1922,-57 1816.99,-20.8741 1482.73,-13.4313 1350.04,-11.8979"/>
<polygon fill="midnightblue" stroke="midnightblue" points="1775.27,-256.712 1768.05,-264.464 1778.53,-262.907 1775.27,-256.712"/>
</g>
<!-- Node26 -->
<g id="node26" class="node"><title>Node26</title>
<g id="a_node26"><a xlink:href="$RelocationStrategyData_8h.xhtml" xlink:title="src/TH/RelocationStrategy\lData.h">
<polygon fill="none" stroke="black" points="1678.5,-195.5 1678.5,-227.5 1821.5,-227.5 1821.5,-195.5 1678.5,-195.5"/>
<text text-anchor="start" x="1686.5" y="-214.7" font-family="Helvetica,sans-Serif" font-size="11.00">src/TH/RelocationStrategy</text>
<text text-anchor="middle" x="1750" y="-202.7" font-family="Helvetica,sans-Serif" font-size="11.00">Data.h</text>
</a>
</g>
</g>
<!-- Node25&#45;&gt;Node26 -->
<g id="edge39" class="edge"><title>Node25&#45;&gt;Node26</title>
<path fill="none" stroke="midnightblue" d="M1750,-254.296C1750,-245.714 1750,-235.742 1750,-227.691"/>
<polygon fill="midnightblue" stroke="midnightblue" points="1746.5,-254.499 1750,-264.499 1753.5,-254.499 1746.5,-254.499"/>
</g>
<!-- Node26&#45;&gt;Node7 -->
<g id="edge46" class="edge"><title>Node26&#45;&gt;Node7</title>
<path fill="none" stroke="midnightblue" d="M1774.9,-188.27C1805.42,-160.343 1854.19,-113.267 1863,-90 1868.19,-76.2837 1872.95,-67.777 1863,-57 1828.65,-19.7912 1485.91,-12.9962 1350.05,-11.7668"/>
<polygon fill="midnightblue" stroke="midnightblue" points="1772.25,-185.953 1767.2,-195.267 1776.95,-191.134 1772.25,-185.953"/>
</g>
<!-- Node27 -->
<g id="node27" class="node"><title>Node27</title>
<g id="a_node27"><a xlink:href="$BetaRelocationStrategyData_8h.xhtml" xlink:title="src/TH/BetaRelocationStrategy\lData.h">
<polygon fill="none" stroke="black" points="1850,-126.5 1850,-158.5 2016,-158.5 2016,-126.5 1850,-126.5"/>
<text text-anchor="start" x="1858" y="-145.7" font-family="Helvetica,sans-Serif" font-size="11.00">src/TH/BetaRelocationStrategy</text>
<text text-anchor="middle" x="1933" y="-133.7" font-family="Helvetica,sans-Serif" font-size="11.00">Data.h</text>
</a>
</g>
</g>
<!-- Node26&#45;&gt;Node27 -->
<g id="edge40" class="edge"><title>Node26&#45;&gt;Node27</title>
<path fill="none" stroke="midnightblue" d="M1800.52,-192.002C1829.24,-181.49 1864.73,-168.494 1891.75,-158.602"/>
<polygon fill="midnightblue" stroke="midnightblue" points="1799.26,-188.739 1791.07,-195.464 1801.66,-195.312 1799.26,-188.739"/>
</g>
<!-- Node28 -->
<g id="node28" class="node"><title>Node28</title>
<g id="a_node28"><a xlink:href="$RelocationStrategyPolicy_8h.xhtml" xlink:title="src/TH/RelocationStrategy\lPolicy.h">
<polygon fill="none" stroke="black" points="1650.5,-126.5 1650.5,-158.5 1793.5,-158.5 1793.5,-126.5 1650.5,-126.5"/>
<text text-anchor="start" x="1658.5" y="-145.7" font-family="Helvetica,sans-Serif" font-size="11.00">src/TH/RelocationStrategy</text>
<text text-anchor="middle" x="1722" y="-133.7" font-family="Helvetica,sans-Serif" font-size="11.00">Policy.h</text>
</a>
</g>
</g>
<!-- Node26&#45;&gt;Node28 -->
<g id="edge42" class="edge"><title>Node26&#45;&gt;Node28</title>
<path fill="none" stroke="midnightblue" d="M1739.72,-185.902C1735.9,-176.77 1731.69,-166.685 1728.33,-158.643"/>
<polygon fill="midnightblue" stroke="midnightblue" points="1736.56,-187.42 1743.65,-195.297 1743.02,-184.72 1736.56,-187.42"/>
</g>
<!-- Node27&#45;&gt;Node7 -->
<g id="edge41" class="edge"><title>Node27&#45;&gt;Node7</title>
<path fill="none" stroke="midnightblue" d="M1929.15,-116.527C1924.72,-96.9303 1915.38,-70.7417 1896,-57 1852.07,-25.8472 1490.11,-15.374 1350.05,-12.467"/>
<polygon fill="midnightblue" stroke="midnightblue" points="1925.72,-117.214 1931.1,-126.344 1932.59,-115.854 1925.72,-117.214"/>
</g>
<!-- Node28&#45;&gt;Node7 -->
<g id="edge45" class="edge"><title>Node28&#45;&gt;Node7</title>
<path fill="none" stroke="midnightblue" d="M1702.19,-119.033C1681.93,-96.6229 1651.31,-64.4822 1636,-57 1586.83,-32.9693 1433.33,-20.0278 1350.05,-14.613"/>
<polygon fill="midnightblue" stroke="midnightblue" points="1699.6,-121.389 1708.89,-126.497 1704.82,-116.715 1699.6,-121.389"/>
</g>
<!-- Node29 -->
<g id="node29" class="node"><title>Node29</title>
<g id="a_node29"><a xlink:href="$BetaRelocationStrategyPolicy_8h.xhtml" xlink:title="src/TH/BetaRelocationStrategy\lPolicy.h">
<polygon fill="none" stroke="black" points="1688,-57.5 1688,-89.5 1854,-89.5 1854,-57.5 1688,-57.5"/>
<text text-anchor="start" x="1696" y="-76.7" font-family="Helvetica,sans-Serif" font-size="11.00">src/TH/BetaRelocationStrategy</text>
<text text-anchor="middle" x="1771" y="-64.7" font-family="Helvetica,sans-Serif" font-size="11.00">Policy.h</text>
</a>
</g>
</g>
<!-- Node28&#45;&gt;Node29 -->
<g id="edge43" class="edge"><title>Node28&#45;&gt;Node29</title>
<path fill="none" stroke="midnightblue" d="M1739.14,-118.063C1746.04,-108.632 1753.79,-98.0276 1759.93,-89.6432"/>
<polygon fill="midnightblue" stroke="midnightblue" points="1736.2,-116.159 1733.12,-126.297 1741.85,-120.291 1736.2,-116.159"/>
</g>
<!-- Node29&#45;&gt;Node7 -->
<g id="edge44" class="edge"><title>Node29&#45;&gt;Node7</title>
<path fill="none" stroke="midnightblue" d="M1677.87,-57.5468C1676.57,-57.3618 1675.28,-57.1794 1674,-57 1558.98,-40.9122 1423.83,-25.5279 1350.01,-17.4232"/>
<polygon fill="midnightblue" stroke="midnightblue" points="1677.56,-61.0375 1687.96,-59.012 1678.56,-54.1102 1677.56,-61.0375"/>
</g>
</g>
</svg>
