<?xml version="1.0" encoding="UTF-8" standalone="no"?>
<!DOCTYPE svg PUBLIC "-//W3C//DTD SVG 1.1//EN"
 "http://www.w3.org/Graphics/SVG/1.1/DTD/svg11.dtd">
<!-- Generated by graphviz version 2.38.0 (20140413.2041)
 -->
<!-- Title: src/TH/Position.h Pages: 1 -->
<svg width="132pt" height="86pt"
 viewBox="0.00 0.00 131.50 86.00" xmlns="http://www.w3.org/2000/svg" xmlns:xlink="http://www.w3.org/1999/xlink">
<g id="graph0" class="graph" transform="scale(1 1) rotate(0) translate(4 82)">
<title>src/TH/Position.h</title>
<!-- Node1 -->
<g id="node1" class="node"><title>Node1</title>
<polygon fill="#bfbfbf" stroke="black" points="16.5,-57.5 16.5,-77.5 115.5,-77.5 115.5,-57.5 16.5,-57.5"/>
<text text-anchor="middle" x="66" y="-64.7" font-family="Helvetica,sans-Serif" font-size="11.00">src/TH/Position.h</text>
</g>
<!-- Node2 -->
<g id="node2" class="node"><title>Node2</title>
<polygon fill="none" stroke="#bfbfbf" points="0,-0.5 0,-20.5 62,-20.5 62,-0.5 0,-0.5"/>
<text text-anchor="middle" x="31" y="-7.7" font-family="Helvetica,sans-Serif" font-size="11.00">stdexcept</text>
</g>
<!-- Node1&#45;&gt;Node2 -->
<g id="edge1" class="edge"><title>Node1&#45;&gt;Node2</title>
<path fill="none" stroke="midnightblue" d="M60.2205,-57.4179C55.3859,-49.8207 48.3426,-38.7527 42.3824,-29.3866"/>
<polygon fill="midnightblue" stroke="midnightblue" points="45.2267,-27.337 36.9051,-20.7795 39.3211,-31.0952 45.2267,-27.337"/>
</g>
<!-- Node3 -->
<g id="node3" class="node"><title>Node3</title>
<polygon fill="none" stroke="#bfbfbf" points="80.5,-0.5 80.5,-20.5 123.5,-20.5 123.5,-0.5 80.5,-0.5"/>
<text text-anchor="middle" x="102" y="-7.7" font-family="Helvetica,sans-Serif" font-size="11.00">string</text>
</g>
<!-- Node1&#45;&gt;Node3 -->
<g id="edge2" class="edge"><title>Node1&#45;&gt;Node3</title>
<path fill="none" stroke="midnightblue" d="M71.9447,-57.4179C76.9174,-49.8207 84.1619,-38.7527 90.2924,-29.3866"/>
<polygon fill="midnightblue" stroke="midnightblue" points="93.378,-31.0633 95.9262,-20.7795 87.5211,-27.2297 93.378,-31.0633"/>
</g>
</g>
</svg>
