<?xml version="1.0" encoding="UTF-8" standalone="no"?>
<!DOCTYPE svg PUBLIC "-//W3C//DTD SVG 1.1//EN"
 "http://www.w3.org/Graphics/SVG/1.1/DTD/svg11.dtd">
<!-- Generated by graphviz version 2.38.0 (20140413.2041)
 -->
<!-- Title: src/TH/RandomBestListSelectionPolicy.h Pages: 1 -->
<svg width="1212pt" height="440pt"
 viewBox="0.00 0.00 1212.18 440.00" xmlns="http://www.w3.org/2000/svg" xmlns:xlink="http://www.w3.org/1999/xlink">
<g id="graph0" class="graph" transform="scale(1 1) rotate(0) translate(4 436)">
<title>src/TH/RandomBestListSelectionPolicy.h</title>
<!-- Node1 -->
<g id="node1" class="node"><title>Node1</title>
<polygon fill="#bfbfbf" stroke="black" points="230.179,-399.5 230.179,-431.5 406.179,-431.5 406.179,-399.5 230.179,-399.5"/>
<text text-anchor="start" x="238.179" y="-418.7" font-family="Helvetica,sans-Serif" font-size="11.00">src/TH/RandomBestListSelection</text>
<text text-anchor="middle" x="318.179" y="-406.7" font-family="Helvetica,sans-Serif" font-size="11.00">Policy.h</text>
</g>
<!-- Node2 -->
<g id="node2" class="node"><title>Node2</title>
<g id="a_node2"><a xlink:href="$BestListSelectionPolicy_8h.xhtml" xlink:title="BestListSelectionPolicy.h">
<polygon fill="none" stroke="black" points="249.679,-342.5 249.679,-362.5 386.679,-362.5 386.679,-342.5 249.679,-342.5"/>
<text text-anchor="middle" x="318.179" y="-349.7" font-family="Helvetica,sans-Serif" font-size="11.00">BestListSelectionPolicy.h</text>
</a>
</g>
</g>
<!-- Node1&#45;&gt;Node2 -->
<g id="edge1" class="edge"><title>Node1&#45;&gt;Node2</title>
<path fill="none" stroke="midnightblue" d="M318.179,-399.421C318.179,-391.375 318.179,-381.386 318.179,-372.781"/>
<polygon fill="midnightblue" stroke="midnightblue" points="321.679,-372.546 318.179,-362.546 314.679,-372.546 321.679,-372.546"/>
</g>
<!-- Node3 -->
<g id="node3" class="node"><title>Node3</title>
<g id="a_node3"><a xlink:href="$BestList_8h.xhtml" xlink:title="BestList.h">
<polygon fill="none" stroke="black" points="286.179,-285.5 286.179,-305.5 350.179,-305.5 350.179,-285.5 286.179,-285.5"/>
<text text-anchor="middle" x="318.179" y="-292.7" font-family="Helvetica,sans-Serif" font-size="11.00">BestList.h</text>
</a>
</g>
</g>
<!-- Node2&#45;&gt;Node3 -->
<g id="edge2" class="edge"><title>Node2&#45;&gt;Node3</title>
<path fill="none" stroke="midnightblue" d="M318.179,-342.418C318.179,-335.216 318.179,-324.896 318.179,-315.863"/>
<polygon fill="midnightblue" stroke="midnightblue" points="321.679,-315.779 318.179,-305.779 314.679,-315.779 321.679,-315.779"/>
</g>
<!-- Node4 -->
<g id="node4" class="node"><title>Node4</title>
<g id="a_node4"><a xlink:href="$Solution_8h.xhtml" xlink:title="Solution.h">
<polygon fill="none" stroke="black" points="285.679,-228.5 285.679,-248.5 350.679,-248.5 350.679,-228.5 285.679,-228.5"/>
<text text-anchor="middle" x="318.179" y="-235.7" font-family="Helvetica,sans-Serif" font-size="11.00">Solution.h</text>
</a>
</g>
</g>
<!-- Node3&#45;&gt;Node4 -->
<g id="edge3" class="edge"><title>Node3&#45;&gt;Node4</title>
<path fill="none" stroke="midnightblue" d="M318.179,-285.418C318.179,-278.216 318.179,-267.896 318.179,-258.863"/>
<polygon fill="midnightblue" stroke="midnightblue" points="321.679,-258.779 318.179,-248.779 314.679,-258.779 321.679,-258.779"/>
</g>
<!-- Node5 -->
<g id="node5" class="node"><title>Node5</title>
<g id="a_node5"><a xlink:href="$ConstraintViolation_8h.xhtml" xlink:title="ConstraintViolation.h">
<polygon fill="none" stroke="black" points="14.179,-171.5 14.179,-191.5 130.179,-191.5 130.179,-171.5 14.179,-171.5"/>
<text text-anchor="middle" x="72.179" y="-178.7" font-family="Helvetica,sans-Serif" font-size="11.00">ConstraintViolation.h</text>
</a>
</g>
</g>
<!-- Node4&#45;&gt;Node5 -->
<g id="edge4" class="edge"><title>Node4&#45;&gt;Node5</title>
<path fill="none" stroke="midnightblue" d="M285.512,-230.196C243.904,-220.894 171.56,-204.719 122.789,-193.815"/>
<polygon fill="midnightblue" stroke="midnightblue" points="123.282,-190.339 112.759,-191.573 121.754,-197.17 123.282,-190.339"/>
</g>
<!-- Node6 -->
<g id="node6" class="node"><title>Node6</title>
<polygon fill="none" stroke="#bfbfbf" points="41.179,-114.5 41.179,-134.5 103.179,-134.5 103.179,-114.5 41.179,-114.5"/>
<text text-anchor="middle" x="72.179" y="-121.7" font-family="Helvetica,sans-Serif" font-size="11.00">stdexcept</text>
</g>
<!-- Node4&#45;&gt;Node6 -->
<g id="edge35" class="edge"><title>Node4&#45;&gt;Node6</title>
<path fill="none" stroke="midnightblue" d="M285.502,-237.882C212.792,-237.961 41.1958,-233.631 5.17897,-192 -11.5552,-172.657 17.0132,-152.184 41.8685,-139.147"/>
<polygon fill="midnightblue" stroke="midnightblue" points="43.7272,-142.131 51.1105,-134.533 40.6002,-135.869 43.7272,-142.131"/>
</g>
<!-- Node7 -->
<g id="node7" class="node"><title>Node7</title>
<g id="a_node7"><a xlink:href="$Position_8h.xhtml" xlink:title="Position.h">
<polygon fill="none" stroke="black" points="226.179,-171.5 226.179,-191.5 290.179,-191.5 290.179,-171.5 226.179,-171.5"/>
<text text-anchor="middle" x="258.179" y="-178.7" font-family="Helvetica,sans-Serif" font-size="11.00">Position.h</text>
</a>
</g>
</g>
<!-- Node4&#45;&gt;Node7 -->
<g id="edge6" class="edge"><title>Node4&#45;&gt;Node7</title>
<path fill="none" stroke="midnightblue" d="M308.271,-228.418C299.465,-220.346 286.385,-208.356 275.799,-198.652"/>
<polygon fill="midnightblue" stroke="midnightblue" points="278.039,-195.957 268.302,-191.779 273.309,-201.117 278.039,-195.957"/>
</g>
<!-- Node8 -->
<g id="node8" class="node"><title>Node8</title>
<polygon fill="none" stroke="#bfbfbf" points="121.679,-114.5 121.679,-134.5 164.679,-134.5 164.679,-114.5 121.679,-114.5"/>
<text text-anchor="middle" x="143.179" y="-121.7" font-family="Helvetica,sans-Serif" font-size="11.00">string</text>
</g>
<!-- Node4&#45;&gt;Node8 -->
<g id="edge36" class="edge"><title>Node4&#45;&gt;Node8</title>
<path fill="none" stroke="midnightblue" d="M318.213,-228.396C317.758,-214.166 314.758,-186.665 299.179,-171 281.747,-153.472 215.078,-138.62 174.751,-130.994"/>
<polygon fill="midnightblue" stroke="midnightblue" points="175.338,-127.543 164.869,-129.17 174.067,-134.427 175.338,-127.543"/>
</g>
<!-- Node9 -->
<g id="node9" class="node"><title>Node9</title>
<g id="a_node9"><a xlink:href="$Fitness_8h.xhtml" xlink:title="Fitness.h">
<polygon fill="none" stroke="black" points="148.179,-171.5 148.179,-191.5 208.179,-191.5 208.179,-171.5 148.179,-171.5"/>
<text text-anchor="middle" x="178.179" y="-178.7" font-family="Helvetica,sans-Serif" font-size="11.00">Fitness.h</text>
</a>
</g>
</g>
<!-- Node4&#45;&gt;Node9 -->
<g id="edge9" class="edge"><title>Node4&#45;&gt;Node9</title>
<path fill="none" stroke="midnightblue" d="M295.061,-228.418C272.06,-219.382 236.56,-205.435 210.717,-195.283"/>
<polygon fill="midnightblue" stroke="midnightblue" points="211.919,-191.995 201.331,-191.596 209.359,-198.51 211.919,-191.995"/>
</g>
<!-- Node10 -->
<g id="node10" class="node"><title>Node10</title>
<g id="a_node10"><a xlink:href="$Region_8h.xhtml" xlink:title="Region.h">
<polygon fill="none" stroke="black" points="346.179,-171.5 346.179,-191.5 406.179,-191.5 406.179,-171.5 346.179,-171.5"/>
<text text-anchor="middle" x="376.179" y="-178.7" font-family="Helvetica,sans-Serif" font-size="11.00">Region.h</text>
</a>
</g>
</g>
<!-- Node4&#45;&gt;Node10 -->
<g id="edge11" class="edge"><title>Node4&#45;&gt;Node10</title>
<path fill="none" stroke="midnightblue" d="M327.756,-228.418C336.185,-220.425 348.666,-208.59 358.845,-198.938"/>
<polygon fill="midnightblue" stroke="midnightblue" points="361.545,-201.2 366.393,-191.779 356.729,-196.121 361.545,-201.2"/>
</g>
<!-- Node17 -->
<g id="node17" class="node"><title>Node17</title>
<g id="a_node17"><a xlink:href="$THUtil_8h.xhtml" xlink:title="THUtil.h">
<polygon fill="none" stroke="black" points="756.179,-171.5 756.179,-191.5 812.179,-191.5 812.179,-171.5 756.179,-171.5"/>
<text text-anchor="middle" x="784.179" y="-178.7" font-family="Helvetica,sans-Serif" font-size="11.00">THUtil.h</text>
</a>
</g>
</g>
<!-- Node4&#45;&gt;Node17 -->
<g id="edge20" class="edge"><title>Node4&#45;&gt;Node17</title>
<path fill="none" stroke="midnightblue" d="M350.947,-233.633C434.745,-223.742 656.527,-197.566 745.976,-187.009"/>
<polygon fill="midnightblue" stroke="midnightblue" points="746.441,-190.478 755.962,-185.83 745.621,-183.527 746.441,-190.478"/>
</g>
<!-- Node28 -->
<g id="node28" class="node"><title>Node28</title>
<polygon fill="none" stroke="#bfbfbf" points="830.679,-171.5 830.679,-191.5 873.679,-191.5 873.679,-171.5 830.679,-171.5"/>
<text text-anchor="middle" x="852.179" y="-178.7" font-family="Helvetica,sans-Serif" font-size="11.00">mpi.h</text>
</g>
<!-- Node4&#45;&gt;Node28 -->
<g id="edge33" class="edge"><title>Node4&#45;&gt;Node28</title>
<path fill="none" stroke="midnightblue" d="M350.874,-236.88C430.06,-234.882 638.375,-226.667 820.613,-191.682"/>
<polygon fill="midnightblue" stroke="midnightblue" points="821.5,-195.075 830.644,-189.724 820.159,-188.205 821.5,-195.075"/>
</g>
<!-- Node29 -->
<g id="node29" class="node"><title>Node29</title>
<polygon fill="none" stroke="#bfbfbf" points="891.679,-171.5 891.679,-191.5 946.679,-191.5 946.679,-171.5 891.679,-171.5"/>
<text text-anchor="middle" x="919.179" y="-178.7" font-family="Helvetica,sans-Serif" font-size="11.00">stddef.h</text>
</g>
<!-- Node4&#45;&gt;Node29 -->
<g id="edge34" class="edge"><title>Node4&#45;&gt;Node29</title>
<path fill="none" stroke="midnightblue" d="M350.915,-236.892C436.682,-234.871 675.021,-226.492 881.271,-192.071"/>
<polygon fill="midnightblue" stroke="midnightblue" points="882.103,-195.48 891.378,-190.358 880.934,-188.578 882.103,-195.48"/>
</g>
<!-- Node5&#45;&gt;Node6 -->
<g id="edge5" class="edge"><title>Node5&#45;&gt;Node6</title>
<path fill="none" stroke="midnightblue" d="M72.179,-171.418C72.179,-164.216 72.179,-153.896 72.179,-144.863"/>
<polygon fill="midnightblue" stroke="midnightblue" points="75.6791,-144.779 72.179,-134.779 68.6791,-144.779 75.6791,-144.779"/>
</g>
<!-- Node7&#45;&gt;Node6 -->
<g id="edge7" class="edge"><title>Node7&#45;&gt;Node6</title>
<path fill="none" stroke="midnightblue" d="M227.465,-171.418C196.004,-162.115 146.944,-147.608 112.403,-137.394"/>
<polygon fill="midnightblue" stroke="midnightblue" points="113.212,-133.984 102.63,-134.504 111.227,-140.696 113.212,-133.984"/>
</g>
<!-- Node7&#45;&gt;Node8 -->
<g id="edge8" class="edge"><title>Node7&#45;&gt;Node8</title>
<path fill="none" stroke="midnightblue" d="M239.189,-171.418C220.711,-162.581 192.414,-149.047 171.321,-138.959"/>
<polygon fill="midnightblue" stroke="midnightblue" points="172.729,-135.753 162.197,-134.596 169.708,-142.068 172.729,-135.753"/>
</g>
<!-- Node9&#45;&gt;Node6 -->
<g id="edge10" class="edge"><title>Node9&#45;&gt;Node6</title>
<path fill="none" stroke="midnightblue" d="M160.675,-171.418C143.797,-162.66 118.03,-149.291 98.6453,-139.233"/>
<polygon fill="midnightblue" stroke="midnightblue" points="100.197,-136.095 89.7087,-134.596 96.973,-142.308 100.197,-136.095"/>
</g>
<!-- Node11 -->
<g id="node11" class="node"><title>Node11</title>
<g id="a_node11"><a xlink:href="$Dimension_8h.xhtml" xlink:title="Dimension.h">
<polygon fill="none" stroke="black" points="353.679,-114.5 353.679,-134.5 430.679,-134.5 430.679,-114.5 353.679,-114.5"/>
<text text-anchor="middle" x="392.179" y="-121.7" font-family="Helvetica,sans-Serif" font-size="11.00">Dimension.h</text>
</a>
</g>
</g>
<!-- Node10&#45;&gt;Node11 -->
<g id="edge12" class="edge"><title>Node10&#45;&gt;Node11</title>
<path fill="none" stroke="midnightblue" d="M378.821,-171.418C380.939,-164.137 383.984,-153.669 386.633,-144.566"/>
<polygon fill="midnightblue" stroke="midnightblue" points="390.047,-145.359 389.479,-134.779 383.325,-143.404 390.047,-145.359"/>
</g>
<!-- Node12 -->
<g id="node12" class="node"><title>Node12</title>
<g id="a_node12"><a xlink:href="$Partition_8h.xhtml" xlink:title="Partition.h">
<polygon fill="none" stroke="black" points="356.679,-57.5 356.679,-77.5 421.679,-77.5 421.679,-57.5 356.679,-57.5"/>
<text text-anchor="middle" x="389.179" y="-64.7" font-family="Helvetica,sans-Serif" font-size="11.00">Partition.h</text>
</a>
</g>
</g>
<!-- Node10&#45;&gt;Node12 -->
<g id="edge15" class="edge"><title>Node10&#45;&gt;Node12</title>
<path fill="none" stroke="midnightblue" d="M345.911,-173.104C299.667,-161.663 216.303,-140.425 212.179,-135 206.53,-127.57 206.46,-121.376 212.179,-114 228.527,-92.9185 299.771,-79.9002 346.738,-73.4484"/>
<polygon fill="midnightblue" stroke="midnightblue" points="347.2,-76.9179 356.653,-72.1337 346.279,-69.9786 347.2,-76.9179"/>
</g>
<!-- Node13 -->
<g id="node13" class="node"><title>Node13</title>
<polygon fill="none" stroke="#bfbfbf" points="426.679,-0.5 426.679,-20.5 473.679,-20.5 473.679,-0.5 426.679,-0.5"/>
<text text-anchor="middle" x="450.179" y="-7.7" font-family="Helvetica,sans-Serif" font-size="11.00">cstdlib</text>
</g>
<!-- Node10&#45;&gt;Node13 -->
<g id="edge17" class="edge"><title>Node10&#45;&gt;Node13</title>
<path fill="none" stroke="midnightblue" d="M396.897,-171.375C411.36,-163.832 429.708,-151.654 439.179,-135 457.819,-102.222 456.1,-56.4768 453.156,-30.8575"/>
<polygon fill="midnightblue" stroke="midnightblue" points="456.582,-30.0689 451.786,-20.6216 449.644,-30.9976 456.582,-30.0689"/>
</g>
<!-- Node14 -->
<g id="node14" class="node"><title>Node14</title>
<polygon fill="none" stroke="#bfbfbf" points="221.179,-114.5 221.179,-134.5 259.179,-134.5 259.179,-114.5 221.179,-114.5"/>
<text text-anchor="middle" x="240.179" y="-121.7" font-family="Helvetica,sans-Serif" font-size="11.00">map</text>
</g>
<!-- Node10&#45;&gt;Node14 -->
<g id="edge16" class="edge"><title>Node10&#45;&gt;Node14</title>
<path fill="none" stroke="midnightblue" d="M353.721,-171.418C330.543,-162.044 294.3,-147.387 269.016,-137.162"/>
<polygon fill="midnightblue" stroke="midnightblue" points="270.166,-133.852 259.583,-133.347 267.542,-140.341 270.166,-133.852"/>
</g>
<!-- Node15 -->
<g id="node15" class="node"><title>Node15</title>
<polygon fill="none" stroke="#bfbfbf" points="478.679,-57.5 478.679,-77.5 533.679,-77.5 533.679,-57.5 478.679,-57.5"/>
<text text-anchor="middle" x="506.179" y="-64.7" font-family="Helvetica,sans-Serif" font-size="11.00">sstream</text>
</g>
<!-- Node10&#45;&gt;Node15 -->
<g id="edge18" class="edge"><title>Node10&#45;&gt;Node15</title>
<path fill="none" stroke="midnightblue" d="M406.412,-172.157C427.298,-165.111 454.563,-153.21 473.179,-135 486.541,-121.929 495.355,-102.325 500.485,-87.7849"/>
<polygon fill="midnightblue" stroke="midnightblue" points="503.953,-88.4375 503.704,-77.8455 497.293,-86.2804 503.953,-88.4375"/>
</g>
<!-- Node16 -->
<g id="node16" class="node"><title>Node16</title>
<polygon fill="none" stroke="#bfbfbf" points="277.179,-114.5 277.179,-134.5 335.179,-134.5 335.179,-114.5 277.179,-114.5"/>
<text text-anchor="middle" x="306.179" y="-121.7" font-family="Helvetica,sans-Serif" font-size="11.00">iostream</text>
</g>
<!-- Node10&#45;&gt;Node16 -->
<g id="edge19" class="edge"><title>Node10&#45;&gt;Node16</title>
<path fill="none" stroke="midnightblue" d="M364.62,-171.418C354.145,-163.188 338.486,-150.884 326.013,-141.084"/>
<polygon fill="midnightblue" stroke="midnightblue" points="328.015,-138.206 317.989,-134.779 323.69,-143.71 328.015,-138.206"/>
</g>
<!-- Node11&#45;&gt;Node12 -->
<g id="edge13" class="edge"><title>Node11&#45;&gt;Node12</title>
<path fill="none" stroke="midnightblue" d="M391.684,-114.418C391.291,-107.216 390.728,-96.8962 390.235,-87.8632"/>
<polygon fill="midnightblue" stroke="midnightblue" points="393.725,-87.574 389.685,-77.7795 386.735,-87.9553 393.725,-87.574"/>
</g>
<!-- Node12&#45;&gt;Node13 -->
<g id="edge14" class="edge"><title>Node12&#45;&gt;Node13</title>
<path fill="none" stroke="midnightblue" d="M399.252,-57.4179C408.204,-49.3458 421.503,-37.3556 432.265,-27.6517"/>
<polygon fill="midnightblue" stroke="midnightblue" points="434.804,-30.0753 439.887,-20.7795 430.117,-24.8764 434.804,-30.0753"/>
</g>
<!-- Node17&#45;&gt;Node13 -->
<g id="edge24" class="edge"><title>Node17&#45;&gt;Node13</title>
<path fill="none" stroke="midnightblue" d="M761.786,-171.447C745.961,-163.939 725.459,-151.775 713.179,-135 691.972,-106.032 718.525,-81.388 692.179,-57 662.35,-29.3876 543.302,-17.6911 484.044,-13.5013"/>
<polygon fill="midnightblue" stroke="midnightblue" points="483.923,-9.98529 473.71,-12.8042 483.452,-16.9694 483.923,-9.98529"/>
</g>
<!-- Node18 -->
<g id="node18" class="node"><title>Node18</title>
<polygon fill="none" stroke="#bfbfbf" points="794.179,-114.5 794.179,-134.5 846.179,-134.5 846.179,-114.5 794.179,-114.5"/>
<text text-anchor="middle" x="820.179" y="-121.7" font-family="Helvetica,sans-Serif" font-size="11.00">string.h</text>
</g>
<!-- Node17&#45;&gt;Node18 -->
<g id="edge21" class="edge"><title>Node17&#45;&gt;Node18</title>
<path fill="none" stroke="midnightblue" d="M790.124,-171.418C795.096,-163.821 802.341,-152.753 808.471,-143.387"/>
<polygon fill="midnightblue" stroke="midnightblue" points="811.557,-145.063 814.105,-134.779 805.7,-141.23 811.557,-145.063"/>
</g>
<!-- Node19 -->
<g id="node19" class="node"><title>Node19</title>
<polygon fill="none" stroke="#bfbfbf" points="864.679,-114.5 864.679,-134.5 917.679,-134.5 917.679,-114.5 864.679,-114.5"/>
<text text-anchor="middle" x="891.179" y="-121.7" font-family="Helvetica,sans-Serif" font-size="11.00">random</text>
</g>
<!-- Node17&#45;&gt;Node19 -->
<g id="edge22" class="edge"><title>Node17&#45;&gt;Node19</title>
<path fill="none" stroke="midnightblue" d="M801.848,-171.418C818.885,-162.66 844.895,-149.291 864.463,-139.233"/>
<polygon fill="midnightblue" stroke="midnightblue" points="866.19,-142.28 873.484,-134.596 862.99,-136.054 866.19,-142.28"/>
</g>
<!-- Node20 -->
<g id="node20" class="node"><title>Node20</title>
<polygon fill="none" stroke="#bfbfbf" points="936.179,-114.5 936.179,-134.5 980.179,-134.5 980.179,-114.5 936.179,-114.5"/>
<text text-anchor="middle" x="958.179" y="-121.7" font-family="Helvetica,sans-Serif" font-size="11.00">cstdio</text>
</g>
<!-- Node17&#45;&gt;Node20 -->
<g id="edge23" class="edge"><title>Node17&#45;&gt;Node20</title>
<path fill="none" stroke="midnightblue" d="M812.522,-171.541C843.631,-161.708 893.467,-145.955 926.016,-135.667"/>
<polygon fill="midnightblue" stroke="midnightblue" points="927.45,-138.884 935.93,-132.533 925.341,-132.209 927.45,-138.884"/>
</g>
<!-- Node21 -->
<g id="node21" class="node"><title>Node21</title>
<polygon fill="none" stroke="#bfbfbf" points="998.679,-114.5 998.679,-134.5 1051.68,-134.5 1051.68,-114.5 998.679,-114.5"/>
<text text-anchor="middle" x="1025.18" y="-121.7" font-family="Helvetica,sans-Serif" font-size="11.00">fstream</text>
</g>
<!-- Node17&#45;&gt;Node21 -->
<g id="edge25" class="edge"><title>Node17&#45;&gt;Node21</title>
<path fill="none" stroke="midnightblue" d="M812.376,-173.342C815.677,-172.536 819,-171.74 822.179,-171 893.097,-154.496 913.674,-152.808 988.562,-135.059"/>
<polygon fill="midnightblue" stroke="midnightblue" points="989.563,-138.419 998.477,-132.692 987.937,-131.61 989.563,-138.419"/>
</g>
<!-- Node22 -->
<g id="node22" class="node"><title>Node22</title>
<polygon fill="none" stroke="#bfbfbf" points="1070.18,-114.5 1070.18,-134.5 1132.18,-134.5 1132.18,-114.5 1070.18,-114.5"/>
<text text-anchor="middle" x="1101.18" y="-121.7" font-family="Helvetica,sans-Serif" font-size="11.00">sys/stat.h</text>
</g>
<!-- Node17&#45;&gt;Node22 -->
<g id="edge26" class="edge"><title>Node17&#45;&gt;Node22</title>
<path fill="none" stroke="midnightblue" d="M812.333,-173.144C815.642,-172.373 818.978,-171.64 822.179,-171 924.328,-150.587 953.941,-155.121 1059.66,-135.16"/>
<polygon fill="midnightblue" stroke="midnightblue" points="1060.63,-138.538 1069.79,-133.217 1059.31,-131.663 1060.63,-138.538"/>
</g>
<!-- Node23 -->
<g id="node23" class="node"><title>Node23</title>
<polygon fill="none" stroke="#bfbfbf" points="1150.18,-114.5 1150.18,-134.5 1204.18,-134.5 1204.18,-114.5 1150.18,-114.5"/>
<text text-anchor="middle" x="1177.18" y="-121.7" font-family="Helvetica,sans-Serif" font-size="11.00">libgen.h</text>
</g>
<!-- Node17&#45;&gt;Node23 -->
<g id="edge27" class="edge"><title>Node17&#45;&gt;Node23</title>
<path fill="none" stroke="midnightblue" d="M812.311,-173.026C815.623,-172.277 818.967,-171.58 822.179,-171 959.432,-146.212 999.166,-160.591 1140.26,-134.919"/>
<polygon fill="midnightblue" stroke="midnightblue" points="1140.95,-138.35 1150.15,-133.085 1139.68,-131.467 1140.95,-138.35"/>
</g>
<!-- Node24 -->
<g id="node24" class="node"><title>Node24</title>
<g id="a_node24"><a xlink:href="$macros_8h.xhtml" xlink:title="Macros and constants must defined in this file. ">
<polygon fill="none" stroke="black" points="570.679,-114.5 570.679,-134.5 631.679,-134.5 631.679,-114.5 570.679,-114.5"/>
<text text-anchor="middle" x="601.179" y="-121.7" font-family="Helvetica,sans-Serif" font-size="11.00">macros.h</text>
</a>
</g>
</g>
<!-- Node17&#45;&gt;Node24 -->
<g id="edge28" class="edge"><title>Node17&#45;&gt;Node24</title>
<path fill="none" stroke="midnightblue" d="M755.986,-172.027C725.234,-162.784 675.77,-147.918 641.049,-137.483"/>
<polygon fill="midnightblue" stroke="midnightblue" points="641.815,-134.058 631.23,-134.532 639.8,-140.762 641.815,-134.058"/>
</g>
<!-- Node27 -->
<g id="node27" class="node"><title>Node27</title>
<g id="a_node27"><a xlink:href="$config_8h.xhtml" xlink:title="Global configurations must be set in this file. ">
<polygon fill="none" stroke="black" points="722.179,-114.5 722.179,-134.5 776.179,-134.5 776.179,-114.5 722.179,-114.5"/>
<text text-anchor="middle" x="749.179" y="-121.7" font-family="Helvetica,sans-Serif" font-size="11.00">config.h</text>
</a>
</g>
</g>
<!-- Node17&#45;&gt;Node27 -->
<g id="edge32" class="edge"><title>Node17&#45;&gt;Node27</title>
<path fill="none" stroke="midnightblue" d="M778.399,-171.418C773.565,-163.821 766.522,-152.753 760.561,-143.387"/>
<polygon fill="midnightblue" stroke="midnightblue" points="763.406,-141.337 755.084,-134.779 757.5,-145.095 763.406,-141.337"/>
</g>
<!-- Node24&#45;&gt;Node15 -->
<g id="edge31" class="edge"><title>Node24&#45;&gt;Node15</title>
<path fill="none" stroke="midnightblue" d="M585.492,-114.418C570.64,-105.82 548.109,-92.7754 530.852,-82.7844"/>
<polygon fill="midnightblue" stroke="midnightblue" points="532.298,-79.577 521.89,-77.5956 528.79,-85.635 532.298,-79.577"/>
</g>
<!-- Node25 -->
<g id="node25" class="node"><title>Node25</title>
<polygon fill="none" stroke="#bfbfbf" points="635.179,-57.5 635.179,-77.5 683.179,-77.5 683.179,-57.5 635.179,-57.5"/>
<text text-anchor="middle" x="659.179" y="-64.7" font-family="Helvetica,sans-Serif" font-size="11.00">stdio.h</text>
</g>
<!-- Node24&#45;&gt;Node25 -->
<g id="edge29" class="edge"><title>Node24&#45;&gt;Node25</title>
<path fill="none" stroke="midnightblue" d="M610.756,-114.418C619.185,-106.425 631.666,-94.5903 641.845,-84.9377"/>
<polygon fill="midnightblue" stroke="midnightblue" points="644.545,-87.2001 649.393,-77.7795 639.729,-82.1207 644.545,-87.2001"/>
</g>
<!-- Node26 -->
<g id="node26" class="node"><title>Node26</title>
<polygon fill="none" stroke="#bfbfbf" points="551.679,-57.5 551.679,-77.5 616.679,-77.5 616.679,-57.5 551.679,-57.5"/>
<text text-anchor="middle" x="584.179" y="-64.7" font-family="Helvetica,sans-Serif" font-size="11.00">sys/time.h</text>
</g>
<!-- Node24&#45;&gt;Node26 -->
<g id="edge30" class="edge"><title>Node24&#45;&gt;Node26</title>
<path fill="none" stroke="midnightblue" d="M598.372,-114.418C596.121,-107.137 592.886,-96.669 590.072,-87.5659"/>
<polygon fill="midnightblue" stroke="midnightblue" points="593.344,-86.2999 587.047,-77.7795 586.656,-88.3671 593.344,-86.2999"/>
</g>
</g>
</svg>
