<?xml version="1.0" encoding="UTF-8" standalone="no"?>
<!DOCTYPE svg PUBLIC "-//W3C//DTD SVG 1.1//EN"
 "http://www.w3.org/Graphics/SVG/1.1/DTD/svg11.dtd">
<!-- Generated by graphviz version 2.38.0 (20140413.2041)
 -->
<!-- Title: src/TH/RegionSelectionPolicy.h Pages: 1 -->
<svg width="227pt" height="155pt"
 viewBox="0.00 0.00 226.50 155.00" xmlns="http://www.w3.org/2000/svg" xmlns:xlink="http://www.w3.org/1999/xlink">
<g id="graph0" class="graph" transform="scale(1 1) rotate(0) translate(4 151)">
<title>src/TH/RegionSelectionPolicy.h</title>
<!-- Node1 -->
<g id="node1" class="node"><title>Node1</title>
<polygon fill="#bfbfbf" stroke="black" points="50.5,-126.5 50.5,-146.5 218.5,-146.5 218.5,-126.5 50.5,-126.5"/>
<text text-anchor="middle" x="134.5" y="-133.7" font-family="Helvetica,sans-Serif" font-size="11.00">src/TH/RegionSelectionPolicy.h</text>
</g>
<!-- Node2 -->
<g id="node2" class="node"><title>Node2</title>
<g id="a_node2"><a xlink:href="$GroupRegionSelectionPolicy_8h.xhtml" xlink:title="src/TH/GroupRegionSelection\lPolicy.h">
<polygon fill="none" stroke="black" points="0,-57.5 0,-89.5 161,-89.5 161,-57.5 0,-57.5"/>
<text text-anchor="start" x="8" y="-76.7" font-family="Helvetica,sans-Serif" font-size="11.00">src/TH/GroupRegionSelection</text>
<text text-anchor="middle" x="80.5" y="-64.7" font-family="Helvetica,sans-Serif" font-size="11.00">Policy.h</text>
</a>
</g>
</g>
<!-- Node1&#45;&gt;Node2 -->
<g id="edge1" class="edge"><title>Node1&#45;&gt;Node2</title>
<path fill="none" stroke="midnightblue" d="M119.764,-118.854C111.705,-109.75 101.796,-98.5561 93.9481,-89.6914"/>
<polygon fill="midnightblue" stroke="midnightblue" points="117.283,-121.332 126.532,-126.499 122.524,-116.692 117.283,-121.332"/>
</g>
<!-- Node3 -->
<g id="node3" class="node"><title>Node3</title>
<g id="a_node3"><a xlink:href="$THBuilder_8h.xhtml" xlink:title="src/TH/THBuilder.h">
<polygon fill="none" stroke="black" points="79.5,-0.5 79.5,-20.5 189.5,-20.5 189.5,-0.5 79.5,-0.5"/>
<text text-anchor="middle" x="134.5" y="-7.7" font-family="Helvetica,sans-Serif" font-size="11.00">src/TH/THBuilder.h</text>
</a>
</g>
</g>
<!-- Node1&#45;&gt;Node3 -->
<g id="edge3" class="edge"><title>Node1&#45;&gt;Node3</title>
<path fill="none" stroke="midnightblue" d="M151.96,-119.044C159.177,-111.055 166.728,-100.846 170.5,-90 175.317,-76.1471 175.317,-70.8529 170.5,-57 165.471,-42.5388 153.723,-29.2098 145.007,-20.7666"/>
<polygon fill="midnightblue" stroke="midnightblue" points="149.443,-116.612 145.007,-126.233 154.475,-121.478 149.443,-116.612"/>
</g>
<!-- Node2&#45;&gt;Node3 -->
<g id="edge2" class="edge"><title>Node2&#45;&gt;Node3</title>
<path fill="none" stroke="midnightblue" d="M100.724,-49.6547C109.684,-39.5332 119.708,-28.2091 126.492,-20.5459"/>
<polygon fill="midnightblue" stroke="midnightblue" points="97.8561,-47.6138 93.8483,-57.4213 103.097,-52.2536 97.8561,-47.6138"/>
</g>
</g>
</svg>
