<?xml version="1.0" encoding="UTF-8" standalone="no"?>
<!DOCTYPE svg PUBLIC "-//W3C//DTD SVG 1.1//EN"
 "http://www.w3.org/Graphics/SVG/1.1/DTD/svg11.dtd">
<!-- Generated by graphviz version 2.38.0 (20140413.2041)
 -->
<!-- Title: src/TH/RelocationStrategyData.h Pages: 1 -->
<svg width="434pt" height="236pt"
 viewBox="0.00 0.00 434.00 236.00" xmlns="http://www.w3.org/2000/svg" xmlns:xlink="http://www.w3.org/1999/xlink">
<g id="graph0" class="graph" transform="scale(1 1) rotate(0) translate(4 232)">
<title>src/TH/RelocationStrategyData.h</title>
<!-- Node1 -->
<g id="node1" class="node"><title>Node1</title>
<polygon fill="#bfbfbf" stroke="black" points="122.5,-195.5 122.5,-227.5 265.5,-227.5 265.5,-195.5 122.5,-195.5"/>
<text text-anchor="start" x="130.5" y="-214.7" font-family="Helvetica,sans-Serif" font-size="11.00">src/TH/RelocationStrategy</text>
<text text-anchor="middle" x="194" y="-202.7" font-family="Helvetica,sans-Serif" font-size="11.00">Data.h</text>
</g>
<!-- Node2 -->
<g id="node2" class="node"><title>Node2</title>
<g id="a_node2"><a xlink:href="$BetaRelocationStrategyData_8h.xhtml" xlink:title="src/TH/BetaRelocationStrategy\lData.h">
<polygon fill="none" stroke="black" points="0,-57.5 0,-89.5 166,-89.5 166,-57.5 0,-57.5"/>
<text text-anchor="start" x="8" y="-76.7" font-family="Helvetica,sans-Serif" font-size="11.00">src/TH/BetaRelocationStrategy</text>
<text text-anchor="middle" x="83" y="-64.7" font-family="Helvetica,sans-Serif" font-size="11.00">Data.h</text>
</a>
</g>
</g>
<!-- Node1&#45;&gt;Node2 -->
<g id="edge1" class="edge"><title>Node1&#45;&gt;Node2</title>
<path fill="none" stroke="midnightblue" d="M175.145,-187.398C152.376,-159.501 114.729,-113.375 95.3582,-89.6415"/>
<polygon fill="midnightblue" stroke="midnightblue" points="172.662,-189.892 181.697,-195.426 178.085,-185.466 172.662,-189.892"/>
</g>
<!-- Node3 -->
<g id="node3" class="node"><title>Node3</title>
<g id="a_node3"><a xlink:href="$THBuilder_8h.xhtml" xlink:title="src/TH/THBuilder.h">
<polygon fill="none" stroke="black" points="158,-0.5 158,-20.5 268,-20.5 268,-0.5 158,-0.5"/>
<text text-anchor="middle" x="213" y="-7.7" font-family="Helvetica,sans-Serif" font-size="11.00">src/TH/THBuilder.h</text>
</a>
</g>
</g>
<!-- Node1&#45;&gt;Node3 -->
<g id="edge7" class="edge"><title>Node1&#45;&gt;Node3</title>
<path fill="none" stroke="midnightblue" d="M196.419,-185.169C200.682,-140.51 209.349,-49.7424 212.124,-20.6744"/>
<polygon fill="midnightblue" stroke="midnightblue" points="192.926,-184.928 195.459,-195.215 199.894,-185.593 192.926,-184.928"/>
</g>
<!-- Node4 -->
<g id="node4" class="node"><title>Node4</title>
<g id="a_node4"><a xlink:href="$RelocationStrategyPolicy_8h.xhtml" xlink:title="src/TH/RelocationStrategy\lPolicy.h">
<polygon fill="none" stroke="black" points="222.5,-126.5 222.5,-158.5 365.5,-158.5 365.5,-126.5 222.5,-126.5"/>
<text text-anchor="start" x="230.5" y="-145.7" font-family="Helvetica,sans-Serif" font-size="11.00">src/TH/RelocationStrategy</text>
<text text-anchor="middle" x="294" y="-133.7" font-family="Helvetica,sans-Serif" font-size="11.00">Policy.h</text>
</a>
</g>
</g>
<!-- Node1&#45;&gt;Node4 -->
<g id="edge3" class="edge"><title>Node1&#45;&gt;Node4</title>
<path fill="none" stroke="midnightblue" d="M225.151,-189.629C240.123,-179.598 257.735,-167.798 271.398,-158.643"/>
<polygon fill="midnightblue" stroke="midnightblue" points="223.051,-186.823 216.692,-195.297 226.947,-192.638 223.051,-186.823"/>
</g>
<!-- Node2&#45;&gt;Node3 -->
<g id="edge2" class="edge"><title>Node2&#45;&gt;Node3</title>
<path fill="none" stroke="midnightblue" d="M124.433,-53.0582C147.66,-42.1594 175.531,-29.0817 193.722,-20.5459"/>
<polygon fill="midnightblue" stroke="midnightblue" points="122.701,-50.0049 115.135,-57.4213 125.675,-56.3419 122.701,-50.0049"/>
</g>
<!-- Node4&#45;&gt;Node3 -->
<g id="edge6" class="edge"><title>Node4&#45;&gt;Node3</title>
<path fill="none" stroke="midnightblue" d="M272.936,-118.733C265.507,-110.094 257.415,-99.9371 251,-90 235.725,-66.3394 222.587,-35.621 216.544,-20.5909"/>
<polygon fill="midnightblue" stroke="midnightblue" points="270.539,-121.308 279.778,-126.494 275.79,-116.678 270.539,-121.308"/>
</g>
<!-- Node5 -->
<g id="node5" class="node"><title>Node5</title>
<g id="a_node5"><a xlink:href="$BetaRelocationStrategyPolicy_8h.xhtml" xlink:title="src/TH/BetaRelocationStrategy\lPolicy.h">
<polygon fill="none" stroke="black" points="260,-57.5 260,-89.5 426,-89.5 426,-57.5 260,-57.5"/>
<text text-anchor="start" x="268" y="-76.7" font-family="Helvetica,sans-Serif" font-size="11.00">src/TH/BetaRelocationStrategy</text>
<text text-anchor="middle" x="343" y="-64.7" font-family="Helvetica,sans-Serif" font-size="11.00">Policy.h</text>
</a>
</g>
</g>
<!-- Node4&#45;&gt;Node5 -->
<g id="edge4" class="edge"><title>Node4&#45;&gt;Node5</title>
<path fill="none" stroke="midnightblue" d="M311.141,-118.063C318.038,-108.632 325.793,-98.0276 331.925,-89.6432"/>
<polygon fill="midnightblue" stroke="midnightblue" points="308.197,-116.159 305.119,-126.297 313.847,-120.291 308.197,-116.159"/>
</g>
<!-- Node5&#45;&gt;Node3 -->
<g id="edge5" class="edge"><title>Node5&#45;&gt;Node3</title>
<path fill="none" stroke="midnightblue" d="M301.567,-53.0582C278.34,-42.1594 250.469,-29.0817 232.278,-20.5459"/>
<polygon fill="midnightblue" stroke="midnightblue" points="300.325,-56.3419 310.865,-57.4213 303.299,-50.0049 300.325,-56.3419"/>
</g>
</g>
</svg>
