<?xml version="1.0" encoding="UTF-8" standalone="no"?>
<!DOCTYPE svg PUBLIC "-//W3C//DTD SVG 1.1//EN"
 "http://www.w3.org/Graphics/SVG/1.1/DTD/svg11.dtd">
<!-- Generated by graphviz version 2.38.0 (20140413.2041)
 -->
<!-- Title: src/TH/SearchAlgorithmSelectionPolicy.h Pages: 1 -->
<svg width="617pt" height="167pt"
 viewBox="0.00 0.00 616.50 167.00" xmlns="http://www.w3.org/2000/svg" xmlns:xlink="http://www.w3.org/1999/xlink">
<g id="graph0" class="graph" transform="scale(1 1) rotate(0) translate(4 163)">
<title>src/TH/SearchAlgorithmSelectionPolicy.h</title>
<!-- Node1 -->
<g id="node1" class="node"><title>Node1</title>
<polygon fill="#bfbfbf" stroke="black" points="267.5,-126.5 267.5,-158.5 443.5,-158.5 443.5,-126.5 267.5,-126.5"/>
<text text-anchor="start" x="275.5" y="-145.7" font-family="Helvetica,sans-Serif" font-size="11.00">src/TH/SearchAlgorithmSelection</text>
<text text-anchor="middle" x="355.5" y="-133.7" font-family="Helvetica,sans-Serif" font-size="11.00">Policy.h</text>
</g>
<!-- Node2 -->
<g id="node2" class="node"><title>Node2</title>
<g id="a_node2"><a xlink:href="$ReinforcementLearningSearchAlgorithmSelectionPolicy_8h.xhtml" xlink:title="src/TH/ReinforcementLearning\lSearchAlgorithmSelectionPolicy.h">
<polygon fill="none" stroke="black" points="0,-57.5 0,-89.5 179,-89.5 179,-57.5 0,-57.5"/>
<text text-anchor="start" x="8" y="-76.7" font-family="Helvetica,sans-Serif" font-size="11.00">src/TH/ReinforcementLearning</text>
<text text-anchor="middle" x="89.5" y="-64.7" font-family="Helvetica,sans-Serif" font-size="11.00">SearchAlgorithmSelectionPolicy.h</text>
</a>
</g>
</g>
<!-- Node1&#45;&gt;Node2 -->
<g id="edge1" class="edge"><title>Node1&#45;&gt;Node2</title>
<path fill="none" stroke="midnightblue" d="M285.844,-123.955C243.479,-113.284 189.927,-99.7955 149.456,-89.6017"/>
<polygon fill="midnightblue" stroke="midnightblue" points="285.252,-127.415 295.804,-126.464 286.962,-120.627 285.252,-127.415"/>
</g>
<!-- Node3 -->
<g id="node3" class="node"><title>Node3</title>
<g id="a_node3"><a xlink:href="$RoundRobinSearchAlgorithmSelectionPolicy_8h.xhtml" xlink:title="src/TH/RoundRobinSearchAlgorithm\lSelectionPolicy.h">
<polygon fill="none" stroke="black" points="197,-57.5 197,-89.5 390,-89.5 390,-57.5 197,-57.5"/>
<text text-anchor="start" x="205" y="-76.7" font-family="Helvetica,sans-Serif" font-size="11.00">src/TH/RoundRobinSearchAlgorithm</text>
<text text-anchor="middle" x="293.5" y="-64.7" font-family="Helvetica,sans-Serif" font-size="11.00">SelectionPolicy.h</text>
</a>
</g>
</g>
<!-- Node1&#45;&gt;Node3 -->
<g id="edge2" class="edge"><title>Node1&#45;&gt;Node3</title>
<path fill="none" stroke="midnightblue" d="M334.61,-118.925C325.687,-109.283 315.509,-98.2843 307.513,-89.6432"/>
<polygon fill="midnightblue" stroke="midnightblue" points="332.07,-121.334 341.431,-126.297 337.208,-116.58 332.07,-121.334"/>
</g>
<!-- Node4 -->
<g id="node4" class="node"><title>Node4</title>
<g id="a_node4"><a xlink:href="$THBuilder_8h.xhtml" xlink:title="src/TH/THBuilder.h">
<polygon fill="none" stroke="black" points="300.5,-0.5 300.5,-20.5 410.5,-20.5 410.5,-0.5 300.5,-0.5"/>
<text text-anchor="middle" x="355.5" y="-7.7" font-family="Helvetica,sans-Serif" font-size="11.00">src/TH/THBuilder.h</text>
</a>
</g>
</g>
<!-- Node1&#45;&gt;Node4 -->
<g id="edge5" class="edge"><title>Node1&#45;&gt;Node4</title>
<path fill="none" stroke="midnightblue" d="M380.766,-118.963C388.277,-110.687 395.551,-100.702 399.5,-90 404.578,-76.2403 404.999,-70.5968 399.5,-57 393.32,-41.7193 379.276,-28.7245 368.705,-20.583"/>
<polygon fill="midnightblue" stroke="midnightblue" points="378.054,-116.732 373.592,-126.341 383.072,-121.612 378.054,-116.732"/>
</g>
<!-- Node5 -->
<g id="node5" class="node"><title>Node5</title>
<g id="a_node5"><a xlink:href="$SingleSearchAlgorithmSelectionPolicy_8h.xhtml" xlink:title="src/TH/SingleSearchAlgorithm\lSelectionPolicy.h">
<polygon fill="none" stroke="black" points="446.5,-57.5 446.5,-89.5 608.5,-89.5 608.5,-57.5 446.5,-57.5"/>
<text text-anchor="start" x="454.5" y="-76.7" font-family="Helvetica,sans-Serif" font-size="11.00">src/TH/SingleSearchAlgorithm</text>
<text text-anchor="middle" x="527.5" y="-64.7" font-family="Helvetica,sans-Serif" font-size="11.00">SelectionPolicy.h</text>
</a>
</g>
</g>
<!-- Node1&#45;&gt;Node5 -->
<g id="edge4" class="edge"><title>Node1&#45;&gt;Node5</title>
<path fill="none" stroke="midnightblue" d="M403.692,-122.727C430.552,-112.264 463.556,-99.4084 488.731,-89.6017"/>
<polygon fill="midnightblue" stroke="midnightblue" points="402.148,-119.573 394.1,-126.464 404.689,-126.095 402.148,-119.573"/>
</g>
<!-- Node3&#45;&gt;Node4 -->
<g id="edge3" class="edge"><title>Node3&#45;&gt;Node4</title>
<path fill="none" stroke="midnightblue" d="M316.11,-50.2546C326.55,-39.9831 338.363,-28.3609 346.306,-20.5459"/>
<polygon fill="midnightblue" stroke="midnightblue" points="313.5,-47.913 308.826,-57.4213 318.409,-52.9029 313.5,-47.913"/>
</g>
</g>
</svg>
