<?xml version="1.0" encoding="UTF-8" standalone="no"?>
<!DOCTYPE svg PUBLIC "-//W3C//DTD SVG 1.1//EN"
 "http://www.w3.org/Graphics/SVG/1.1/DTD/svg11.dtd">
<!-- Generated by graphviz version 2.38.0 (20140413.2041)
 -->
<!-- Title: src/TH/SearchAlgorithmSelectionPolicy.h Pages: 1 -->
<svg width="1270pt" height="497pt"
 viewBox="0.00 0.00 1269.50 497.00" xmlns="http://www.w3.org/2000/svg" xmlns:xlink="http://www.w3.org/1999/xlink">
<g id="graph0" class="graph" transform="scale(1 1) rotate(0) translate(4 493)">
<title>src/TH/SearchAlgorithmSelectionPolicy.h</title>
<!-- Node1 -->
<g id="node1" class="node"><title>Node1</title>
<polygon fill="#bfbfbf" stroke="black" points="1065.5,-456.5 1065.5,-488.5 1241.5,-488.5 1241.5,-456.5 1065.5,-456.5"/>
<text text-anchor="start" x="1073.5" y="-475.7" font-family="Helvetica,sans-Serif" font-size="11.00">src/TH/SearchAlgorithmSelection</text>
<text text-anchor="middle" x="1153.5" y="-463.7" font-family="Helvetica,sans-Serif" font-size="11.00">Policy.h</text>
</g>
<!-- Node2 -->
<g id="node2" class="node"><title>Node2</title>
<g id="a_node2"><a xlink:href="$SearchScore_8h.xhtml" xlink:title="SearchScore.h">
<polygon fill="none" stroke="black" points="919,-399.5 919,-419.5 1008,-419.5 1008,-399.5 919,-399.5"/>
<text text-anchor="middle" x="963.5" y="-406.7" font-family="Helvetica,sans-Serif" font-size="11.00">SearchScore.h</text>
</a>
</g>
</g>
<!-- Node1&#45;&gt;Node2 -->
<g id="edge1" class="edge"><title>Node1&#45;&gt;Node2</title>
<path fill="none" stroke="midnightblue" d="M1106.53,-456.421C1074.15,-446.024 1031.66,-432.383 1001.43,-422.677"/>
<polygon fill="midnightblue" stroke="midnightblue" points="1002.27,-419.27 991.676,-419.546 1000.13,-425.935 1002.27,-419.27"/>
</g>
<!-- Node31 -->
<g id="node31" class="node"><title>Node31</title>
<g id="a_node31"><a xlink:href="$THTree_8h.xhtml" xlink:title="THTree.h">
<polygon fill="none" stroke="black" points="1122,-228.5 1122,-248.5 1185,-248.5 1185,-228.5 1122,-228.5"/>
<text text-anchor="middle" x="1153.5" y="-235.7" font-family="Helvetica,sans-Serif" font-size="11.00">THTree.h</text>
</a>
</g>
</g>
<!-- Node1&#45;&gt;Node31 -->
<g id="edge45" class="edge"><title>Node1&#45;&gt;Node31</title>
<path fill="none" stroke="midnightblue" d="M1153.5,-456.278C1153.5,-415.474 1153.5,-303.704 1153.5,-258.675"/>
<polygon fill="midnightblue" stroke="midnightblue" points="1157,-258.523 1153.5,-248.523 1150,-258.524 1157,-258.523"/>
</g>
<!-- Node32 -->
<g id="node32" class="node"><title>Node32</title>
<polygon fill="none" stroke="#bfbfbf" points="1215.5,-171.5 1215.5,-191.5 1261.5,-191.5 1261.5,-171.5 1215.5,-171.5"/>
<text text-anchor="middle" x="1238.5" y="-178.7" font-family="Helvetica,sans-Serif" font-size="11.00">vector</text>
</g>
<!-- Node1&#45;&gt;Node32 -->
<g id="edge46" class="edge"><title>Node1&#45;&gt;Node32</title>
<path fill="none" stroke="midnightblue" d="M1172.22,-456.493C1195.58,-435.943 1232.5,-396.643 1232.5,-353.5 1232.5,-353.5 1232.5,-353.5 1232.5,-294.5 1232.5,-261.999 1235.05,-224.27 1236.83,-201.945"/>
<polygon fill="midnightblue" stroke="midnightblue" points="1240.33,-202.038 1237.67,-191.784 1233.35,-201.461 1240.33,-202.038"/>
</g>
<!-- Node3 -->
<g id="node3" class="node"><title>Node3</title>
<g id="a_node3"><a xlink:href="$Search_8h.xhtml" xlink:title="Search.h">
<polygon fill="none" stroke="black" points="856.5,-342.5 856.5,-362.5 916.5,-362.5 916.5,-342.5 856.5,-342.5"/>
<text text-anchor="middle" x="886.5" y="-349.7" font-family="Helvetica,sans-Serif" font-size="11.00">Search.h</text>
</a>
</g>
</g>
<!-- Node2&#45;&gt;Node3 -->
<g id="edge2" class="edge"><title>Node2&#45;&gt;Node3</title>
<path fill="none" stroke="midnightblue" d="M950.785,-399.418C939.082,-391.058 921.495,-378.497 907.673,-368.624"/>
<polygon fill="midnightblue" stroke="midnightblue" points="909.406,-365.56 899.234,-362.596 905.337,-371.256 909.406,-365.56"/>
</g>
<!-- Node4 -->
<g id="node4" class="node"><title>Node4</title>
<g id="a_node4"><a xlink:href="$FitnessPolicy_8h.xhtml" xlink:title="FitnessPolicy.h">
<polygon fill="none" stroke="black" points="788,-285.5 788,-305.5 877,-305.5 877,-285.5 788,-285.5"/>
<text text-anchor="middle" x="832.5" y="-292.7" font-family="Helvetica,sans-Serif" font-size="11.00">FitnessPolicy.h</text>
</a>
</g>
</g>
<!-- Node3&#45;&gt;Node4 -->
<g id="edge3" class="edge"><title>Node3&#45;&gt;Node4</title>
<path fill="none" stroke="midnightblue" d="M877.583,-342.418C869.735,-334.425 858.116,-322.59 848.639,-312.938"/>
<polygon fill="midnightblue" stroke="midnightblue" points="851.114,-310.463 841.611,-305.779 846.119,-315.367 851.114,-310.463"/>
</g>
<!-- Node29 -->
<g id="node29" class="node"><title>Node29</title>
<polygon fill="none" stroke="#bfbfbf" points="0,-171.5 0,-191.5 43,-191.5 43,-171.5 0,-171.5"/>
<text text-anchor="middle" x="21.5" y="-178.7" font-family="Helvetica,sans-Serif" font-size="11.00">mpi.h</text>
</g>
<!-- Node3&#45;&gt;Node29 -->
<g id="edge44" class="edge"><title>Node3&#45;&gt;Node29</title>
<path fill="none" stroke="midnightblue" d="M856.219,-346.619C770.607,-332.705 519.575,-291.124 312.5,-249 217.758,-229.727 106.557,-203.227 53.2027,-190.27"/>
<polygon fill="midnightblue" stroke="midnightblue" points="53.8693,-186.83 43.3252,-187.865 52.2134,-193.631 53.8693,-186.83"/>
</g>
<!-- Node33 -->
<g id="node33" class="node"><title>Node33</title>
<g id="a_node33"><a xlink:href="$SearchSpace_8h.xhtml" xlink:title="SearchSpace.h">
<polygon fill="none" stroke="black" points="895,-285.5 895,-305.5 986,-305.5 986,-285.5 895,-285.5"/>
<text text-anchor="middle" x="940.5" y="-292.7" font-family="Helvetica,sans-Serif" font-size="11.00">SearchSpace.h</text>
</a>
</g>
</g>
<!-- Node3&#45;&gt;Node33 -->
<g id="edge42" class="edge"><title>Node3&#45;&gt;Node33</title>
<path fill="none" stroke="midnightblue" d="M895.417,-342.418C903.265,-334.425 914.884,-322.59 924.361,-312.938"/>
<polygon fill="midnightblue" stroke="midnightblue" points="926.881,-315.367 931.389,-305.779 921.886,-310.463 926.881,-315.367"/>
</g>
<!-- Node5 -->
<g id="node5" class="node"><title>Node5</title>
<g id="a_node5"><a xlink:href="$Solution_8h.xhtml" xlink:title="Solution.h">
<polygon fill="none" stroke="black" points="322,-228.5 322,-248.5 387,-248.5 387,-228.5 322,-228.5"/>
<text text-anchor="middle" x="354.5" y="-235.7" font-family="Helvetica,sans-Serif" font-size="11.00">Solution.h</text>
</a>
</g>
</g>
<!-- Node4&#45;&gt;Node5 -->
<g id="edge4" class="edge"><title>Node4&#45;&gt;Node5</title>
<path fill="none" stroke="midnightblue" d="M787.96,-289.375C696.221,-278.819 487.257,-254.775 397.152,-244.408"/>
<polygon fill="midnightblue" stroke="midnightblue" points="397.357,-240.908 387.023,-243.242 396.557,-247.862 397.357,-240.908"/>
</g>
<!-- Node4&#45;&gt;Node31 -->
<g id="edge38" class="edge"><title>Node4&#45;&gt;Node31</title>
<path fill="none" stroke="midnightblue" d="M877.028,-286.488C879.894,-285.982 882.737,-285.482 885.5,-285 965.479,-271.043 1058.99,-255.297 1111.73,-246.47"/>
<polygon fill="midnightblue" stroke="midnightblue" points="1112.43,-249.901 1121.72,-244.799 1111.28,-242.997 1112.43,-249.901"/>
</g>
<!-- Node6 -->
<g id="node6" class="node"><title>Node6</title>
<g id="a_node6"><a xlink:href="$ConstraintViolation_8h.xhtml" xlink:title="ConstraintViolation.h">
<polygon fill="none" stroke="black" points="181.5,-171.5 181.5,-191.5 297.5,-191.5 297.5,-171.5 181.5,-171.5"/>
<text text-anchor="middle" x="239.5" y="-178.7" font-family="Helvetica,sans-Serif" font-size="11.00">ConstraintViolation.h</text>
</a>
</g>
</g>
<!-- Node5&#45;&gt;Node6 -->
<g id="edge5" class="edge"><title>Node5&#45;&gt;Node6</title>
<path fill="none" stroke="midnightblue" d="M335.51,-228.418C317.032,-219.581 288.735,-206.047 267.642,-195.959"/>
<polygon fill="midnightblue" stroke="midnightblue" points="269.05,-192.753 258.518,-191.596 266.029,-199.068 269.05,-192.753"/>
</g>
<!-- Node7 -->
<g id="node7" class="node"><title>Node7</title>
<polygon fill="none" stroke="#bfbfbf" points="137.5,-114.5 137.5,-134.5 199.5,-134.5 199.5,-114.5 137.5,-114.5"/>
<text text-anchor="middle" x="168.5" y="-121.7" font-family="Helvetica,sans-Serif" font-size="11.00">stdexcept</text>
</g>
<!-- Node5&#45;&gt;Node7 -->
<g id="edge36" class="edge"><title>Node5&#45;&gt;Node7</title>
<path fill="none" stroke="midnightblue" d="M350.261,-228.351C343.187,-214.06 327.638,-186.478 306.5,-171 290.846,-159.538 244.183,-145.423 209.426,-135.982"/>
<polygon fill="midnightblue" stroke="midnightblue" points="210.087,-132.536 199.522,-133.33 208.276,-139.298 210.087,-132.536"/>
</g>
<!-- Node8 -->
<g id="node8" class="node"><title>Node8</title>
<g id="a_node8"><a xlink:href="$Position_8h.xhtml" xlink:title="Position.h">
<polygon fill="none" stroke="black" points="99.5,-171.5 99.5,-191.5 163.5,-191.5 163.5,-171.5 99.5,-171.5"/>
<text text-anchor="middle" x="131.5" y="-178.7" font-family="Helvetica,sans-Serif" font-size="11.00">Position.h</text>
</a>
</g>
</g>
<!-- Node5&#45;&gt;Node8 -->
<g id="edge7" class="edge"><title>Node5&#45;&gt;Node8</title>
<path fill="none" stroke="midnightblue" d="M321.596,-229.385C282.339,-219.702 216.635,-203.497 173.681,-192.903"/>
<polygon fill="midnightblue" stroke="midnightblue" points="174.362,-189.466 163.814,-190.47 172.685,-196.263 174.362,-189.466"/>
</g>
<!-- Node9 -->
<g id="node9" class="node"><title>Node9</title>
<polygon fill="none" stroke="#bfbfbf" points="67,-114.5 67,-134.5 110,-134.5 110,-114.5 67,-114.5"/>
<text text-anchor="middle" x="88.5" y="-121.7" font-family="Helvetica,sans-Serif" font-size="11.00">string</text>
</g>
<!-- Node5&#45;&gt;Node9 -->
<g id="edge37" class="edge"><title>Node5&#45;&gt;Node9</title>
<path fill="none" stroke="midnightblue" d="M321.74,-236.813C257.847,-234.716 120.233,-226.238 90.5,-192 79.3954,-179.213 80.3551,-159.258 83.2022,-144.542"/>
<polygon fill="midnightblue" stroke="midnightblue" points="86.6782,-145.052 85.5787,-134.514 79.8669,-143.437 86.6782,-145.052"/>
</g>
<!-- Node10 -->
<g id="node10" class="node"><title>Node10</title>
<g id="a_node10"><a xlink:href="$Fitness_8h.xhtml" xlink:title="Fitness.h">
<polygon fill="none" stroke="black" points="353.5,-171.5 353.5,-191.5 413.5,-191.5 413.5,-171.5 353.5,-171.5"/>
<text text-anchor="middle" x="383.5" y="-178.7" font-family="Helvetica,sans-Serif" font-size="11.00">Fitness.h</text>
</a>
</g>
</g>
<!-- Node5&#45;&gt;Node10 -->
<g id="edge10" class="edge"><title>Node5&#45;&gt;Node10</title>
<path fill="none" stroke="midnightblue" d="M359.289,-228.418C363.253,-220.9 369.009,-209.983 373.914,-200.68"/>
<polygon fill="midnightblue" stroke="midnightblue" points="377.039,-202.258 378.607,-191.779 370.847,-198.993 377.039,-202.258"/>
</g>
<!-- Node11 -->
<g id="node11" class="node"><title>Node11</title>
<g id="a_node11"><a xlink:href="$Region_8h.xhtml" xlink:title="Region.h">
<polygon fill="none" stroke="black" points="910.5,-171.5 910.5,-191.5 970.5,-191.5 970.5,-171.5 910.5,-171.5"/>
<text text-anchor="middle" x="940.5" y="-178.7" font-family="Helvetica,sans-Serif" font-size="11.00">Region.h</text>
</a>
</g>
</g>
<!-- Node5&#45;&gt;Node11 -->
<g id="edge12" class="edge"><title>Node5&#45;&gt;Node11</title>
<path fill="none" stroke="midnightblue" d="M387.262,-234.425C487.666,-225.001 790.905,-196.54 900.464,-186.258"/>
<polygon fill="midnightblue" stroke="midnightblue" points="900.82,-189.74 910.449,-185.32 900.166,-182.77 900.82,-189.74"/>
</g>
<!-- Node18 -->
<g id="node18" class="node"><title>Node18</title>
<g id="a_node18"><a xlink:href="$THUtil_8h.xhtml" xlink:title="THUtil.h">
<polygon fill="none" stroke="black" points="505.5,-171.5 505.5,-191.5 561.5,-191.5 561.5,-171.5 505.5,-171.5"/>
<text text-anchor="middle" x="533.5" y="-178.7" font-family="Helvetica,sans-Serif" font-size="11.00">THUtil.h</text>
</a>
</g>
</g>
<!-- Node5&#45;&gt;Node18 -->
<g id="edge21" class="edge"><title>Node5&#45;&gt;Node18</title>
<path fill="none" stroke="midnightblue" d="M384.058,-228.418C414.565,-219.044 462.267,-204.387 495.545,-194.162"/>
<polygon fill="midnightblue" stroke="midnightblue" points="496.843,-197.425 505.374,-191.142 494.787,-190.733 496.843,-197.425"/>
</g>
<!-- Node5&#45;&gt;Node29 -->
<g id="edge34" class="edge"><title>Node5&#45;&gt;Node29</title>
<path fill="none" stroke="midnightblue" d="M321.776,-233.639C266.845,-226.902 152.749,-211.805 57.5,-192 56.0365,-191.696 54.5437,-191.369 53.0387,-191.026"/>
<polygon fill="midnightblue" stroke="midnightblue" points="53.6588,-187.575 43.1138,-188.601 51.9973,-194.375 53.6588,-187.575"/>
</g>
<!-- Node30 -->
<g id="node30" class="node"><title>Node30</title>
<polygon fill="none" stroke="#bfbfbf" points="432,-171.5 432,-191.5 487,-191.5 487,-171.5 432,-171.5"/>
<text text-anchor="middle" x="459.5" y="-178.7" font-family="Helvetica,sans-Serif" font-size="11.00">stddef.h</text>
</g>
<!-- Node5&#45;&gt;Node30 -->
<g id="edge35" class="edge"><title>Node5&#45;&gt;Node30</title>
<path fill="none" stroke="midnightblue" d="M371.839,-228.418C388.482,-219.7 413.849,-206.412 433.021,-196.37"/>
<polygon fill="midnightblue" stroke="midnightblue" points="434.901,-199.336 442.136,-191.596 431.653,-193.135 434.901,-199.336"/>
</g>
<!-- Node6&#45;&gt;Node7 -->
<g id="edge6" class="edge"><title>Node6&#45;&gt;Node7</title>
<path fill="none" stroke="midnightblue" d="M227.776,-171.418C217.151,-163.188 201.268,-150.884 188.617,-141.084"/>
<polygon fill="midnightblue" stroke="midnightblue" points="190.528,-138.137 180.479,-134.779 186.241,-143.67 190.528,-138.137"/>
</g>
<!-- Node8&#45;&gt;Node7 -->
<g id="edge8" class="edge"><title>Node8&#45;&gt;Node7</title>
<path fill="none" stroke="midnightblue" d="M137.61,-171.418C142.774,-163.742 150.322,-152.522 156.664,-143.094"/>
<polygon fill="midnightblue" stroke="midnightblue" points="159.58,-145.03 162.257,-134.779 153.772,-141.123 159.58,-145.03"/>
</g>
<!-- Node8&#45;&gt;Node9 -->
<g id="edge9" class="edge"><title>Node8&#45;&gt;Node9</title>
<path fill="none" stroke="midnightblue" d="M124.399,-171.418C118.336,-163.662 109.445,-152.29 102.028,-142.803"/>
<polygon fill="midnightblue" stroke="midnightblue" points="104.671,-140.502 95.7548,-134.779 99.1568,-144.813 104.671,-140.502"/>
</g>
<!-- Node10&#45;&gt;Node7 -->
<g id="edge11" class="edge"><title>Node10&#45;&gt;Node7</title>
<path fill="none" stroke="midnightblue" d="M353.152,-172.736C315.618,-163.135 251.562,-146.748 209.633,-136.022"/>
<polygon fill="midnightblue" stroke="midnightblue" points="210.296,-132.579 199.74,-133.492 208.561,-139.361 210.296,-132.579"/>
</g>
<!-- Node12 -->
<g id="node12" class="node"><title>Node12</title>
<g id="a_node12"><a xlink:href="$Dimension_8h.xhtml" xlink:title="Dimension.h">
<polygon fill="none" stroke="black" points="988,-114.5 988,-134.5 1065,-134.5 1065,-114.5 988,-114.5"/>
<text text-anchor="middle" x="1026.5" y="-121.7" font-family="Helvetica,sans-Serif" font-size="11.00">Dimension.h</text>
</a>
</g>
</g>
<!-- Node11&#45;&gt;Node12 -->
<g id="edge13" class="edge"><title>Node11&#45;&gt;Node12</title>
<path fill="none" stroke="midnightblue" d="M954.701,-171.418C968.021,-162.899 988.165,-150.017 1003.73,-140.063"/>
<polygon fill="midnightblue" stroke="midnightblue" points="1005.74,-142.932 1012.28,-134.596 1001.97,-137.035 1005.74,-142.932"/>
</g>
<!-- Node13 -->
<g id="node13" class="node"><title>Node13</title>
<g id="a_node13"><a xlink:href="$Partition_8h.xhtml" xlink:title="Partition.h">
<polygon fill="none" stroke="black" points="994,-57.5 994,-77.5 1059,-77.5 1059,-57.5 994,-57.5"/>
<text text-anchor="middle" x="1026.5" y="-64.7" font-family="Helvetica,sans-Serif" font-size="11.00">Partition.h</text>
</a>
</g>
</g>
<!-- Node11&#45;&gt;Node13 -->
<g id="edge16" class="edge"><title>Node11&#45;&gt;Node13</title>
<path fill="none" stroke="midnightblue" d="M928.556,-171.367C912.881,-158.252 888.873,-133.515 902.5,-114 920.74,-87.8778 955.706,-76.7079 983.869,-71.9546"/>
<polygon fill="midnightblue" stroke="midnightblue" points="984.511,-75.398 993.894,-70.4779 983.491,-68.4727 984.511,-75.398"/>
</g>
<!-- Node14 -->
<g id="node14" class="node"><title>Node14</title>
<polygon fill="none" stroke="#bfbfbf" points="1036,-0.5 1036,-20.5 1083,-20.5 1083,-0.5 1036,-0.5"/>
<text text-anchor="middle" x="1059.5" y="-7.7" font-family="Helvetica,sans-Serif" font-size="11.00">cstdlib</text>
</g>
<!-- Node11&#45;&gt;Node14 -->
<g id="edge18" class="edge"><title>Node11&#45;&gt;Node14</title>
<path fill="none" stroke="midnightblue" d="M970.668,-179.71C1002.19,-177.076 1050.23,-167.56 1073.5,-135 1095.99,-103.54 1080.13,-55.6043 1068.59,-29.6776"/>
<polygon fill="midnightblue" stroke="midnightblue" points="1071.75,-28.166 1064.33,-20.6062 1065.42,-31.145 1071.75,-28.166"/>
</g>
<!-- Node15 -->
<g id="node15" class="node"><title>Node15</title>
<polygon fill="none" stroke="#bfbfbf" points="1121.5,-114.5 1121.5,-134.5 1159.5,-134.5 1159.5,-114.5 1121.5,-114.5"/>
<text text-anchor="middle" x="1140.5" y="-121.7" font-family="Helvetica,sans-Serif" font-size="11.00">map</text>
</g>
<!-- Node11&#45;&gt;Node15 -->
<g id="edge17" class="edge"><title>Node11&#45;&gt;Node15</title>
<path fill="none" stroke="midnightblue" d="M970.705,-172.41C1004.18,-163.411 1059.76,-148.376 1107.5,-135 1108.76,-134.647 1110.05,-134.285 1111.34,-133.918"/>
<polygon fill="midnightblue" stroke="midnightblue" points="1112.66,-137.181 1121.32,-131.072 1110.74,-130.45 1112.66,-137.181"/>
</g>
<!-- Node16 -->
<g id="node16" class="node"><title>Node16</title>
<polygon fill="none" stroke="#bfbfbf" points="836,-57.5 836,-77.5 891,-77.5 891,-57.5 836,-57.5"/>
<text text-anchor="middle" x="863.5" y="-64.7" font-family="Helvetica,sans-Serif" font-size="11.00">sstream</text>
</g>
<!-- Node11&#45;&gt;Node16 -->
<g id="edge19" class="edge"><title>Node11&#45;&gt;Node16</title>
<path fill="none" stroke="midnightblue" d="M915.832,-171.42C899.794,-164.145 879.981,-152.272 869.5,-135 860.959,-120.925 860.048,-101.998 860.93,-87.9357"/>
<polygon fill="midnightblue" stroke="midnightblue" points="864.423,-88.1791 861.91,-77.8865 857.456,-87.4994 864.423,-88.1791"/>
</g>
<!-- Node17 -->
<g id="node17" class="node"><title>Node17</title>
<polygon fill="none" stroke="#bfbfbf" points="911.5,-114.5 911.5,-134.5 969.5,-134.5 969.5,-114.5 911.5,-114.5"/>
<text text-anchor="middle" x="940.5" y="-121.7" font-family="Helvetica,sans-Serif" font-size="11.00">iostream</text>
</g>
<!-- Node11&#45;&gt;Node17 -->
<g id="edge20" class="edge"><title>Node11&#45;&gt;Node17</title>
<path fill="none" stroke="midnightblue" d="M940.5,-171.418C940.5,-164.216 940.5,-153.896 940.5,-144.863"/>
<polygon fill="midnightblue" stroke="midnightblue" points="944,-144.779 940.5,-134.779 937,-144.779 944,-144.779"/>
</g>
<!-- Node12&#45;&gt;Node13 -->
<g id="edge14" class="edge"><title>Node12&#45;&gt;Node13</title>
<path fill="none" stroke="midnightblue" d="M1026.5,-114.418C1026.5,-107.216 1026.5,-96.8962 1026.5,-87.8632"/>
<polygon fill="midnightblue" stroke="midnightblue" points="1030,-87.7794 1026.5,-77.7795 1023,-87.7795 1030,-87.7794"/>
</g>
<!-- Node13&#45;&gt;Node14 -->
<g id="edge15" class="edge"><title>Node13&#45;&gt;Node14</title>
<path fill="none" stroke="midnightblue" d="M1031.95,-57.4179C1036.51,-49.8207 1043.15,-38.7527 1048.77,-29.3866"/>
<polygon fill="midnightblue" stroke="midnightblue" points="1051.79,-31.1552 1053.93,-20.7795 1045.79,-27.5536 1051.79,-31.1552"/>
</g>
<!-- Node18&#45;&gt;Node14 -->
<g id="edge25" class="edge"><title>Node18&#45;&gt;Node14</title>
<path fill="none" stroke="midnightblue" d="M561.811,-178.652C620.533,-174.316 753.068,-161.769 788.5,-135 819.268,-111.755 795.922,-80.495 826.5,-57 857.203,-33.4086 968.35,-19.937 1025.32,-14.4386"/>
<polygon fill="midnightblue" stroke="midnightblue" points="1025.99,-17.891 1035.62,-13.4743 1025.34,-10.9214 1025.99,-17.891"/>
</g>
<!-- Node19 -->
<g id="node19" class="node"><title>Node19</title>
<polygon fill="none" stroke="#bfbfbf" points="217.5,-114.5 217.5,-134.5 269.5,-134.5 269.5,-114.5 217.5,-114.5"/>
<text text-anchor="middle" x="243.5" y="-121.7" font-family="Helvetica,sans-Serif" font-size="11.00">string.h</text>
</g>
<!-- Node18&#45;&gt;Node19 -->
<g id="edge22" class="edge"><title>Node18&#45;&gt;Node19</title>
<path fill="none" stroke="midnightblue" d="M505.336,-173.191C502.029,-172.412 498.696,-171.663 495.5,-171 402.863,-151.769 375.751,-155.553 279.639,-135.073"/>
<polygon fill="midnightblue" stroke="midnightblue" points="280.317,-131.638 269.803,-132.944 278.837,-138.48 280.317,-131.638"/>
</g>
<!-- Node20 -->
<g id="node20" class="node"><title>Node20</title>
<polygon fill="none" stroke="#bfbfbf" points="288,-114.5 288,-134.5 341,-134.5 341,-114.5 288,-114.5"/>
<text text-anchor="middle" x="314.5" y="-121.7" font-family="Helvetica,sans-Serif" font-size="11.00">random</text>
</g>
<!-- Node18&#45;&gt;Node20 -->
<g id="edge23" class="edge"><title>Node18&#45;&gt;Node20</title>
<path fill="none" stroke="midnightblue" d="M505.28,-173.439C501.983,-172.616 498.667,-171.789 495.5,-171 434.089,-155.7 416.454,-151.825 351.208,-135.154"/>
<polygon fill="midnightblue" stroke="midnightblue" points="351.781,-131.688 341.225,-132.599 350.045,-138.47 351.781,-131.688"/>
</g>
<!-- Node21 -->
<g id="node21" class="node"><title>Node21</title>
<polygon fill="none" stroke="#bfbfbf" points="359.5,-114.5 359.5,-134.5 403.5,-134.5 403.5,-114.5 359.5,-114.5"/>
<text text-anchor="middle" x="381.5" y="-121.7" font-family="Helvetica,sans-Serif" font-size="11.00">cstdio</text>
</g>
<!-- Node18&#45;&gt;Node21 -->
<g id="edge24" class="edge"><title>Node18&#45;&gt;Node21</title>
<path fill="none" stroke="midnightblue" d="M508.4,-171.418C482.302,-161.975 441.384,-147.169 413.101,-136.934"/>
<polygon fill="midnightblue" stroke="midnightblue" points="414.262,-133.633 403.668,-133.521 411.881,-140.215 414.262,-133.633"/>
</g>
<!-- Node22 -->
<g id="node22" class="node"><title>Node22</title>
<polygon fill="none" stroke="#bfbfbf" points="422,-114.5 422,-134.5 475,-134.5 475,-114.5 422,-114.5"/>
<text text-anchor="middle" x="448.5" y="-121.7" font-family="Helvetica,sans-Serif" font-size="11.00">fstream</text>
</g>
<!-- Node18&#45;&gt;Node22 -->
<g id="edge26" class="edge"><title>Node18&#45;&gt;Node22</title>
<path fill="none" stroke="midnightblue" d="M519.464,-171.418C506.299,-162.899 486.389,-150.017 471.006,-140.063"/>
<polygon fill="midnightblue" stroke="midnightblue" points="472.854,-137.09 462.557,-134.596 469.051,-142.967 472.854,-137.09"/>
</g>
<!-- Node23 -->
<g id="node23" class="node"><title>Node23</title>
<polygon fill="none" stroke="#bfbfbf" points="493.5,-114.5 493.5,-134.5 555.5,-134.5 555.5,-114.5 493.5,-114.5"/>
<text text-anchor="middle" x="524.5" y="-121.7" font-family="Helvetica,sans-Serif" font-size="11.00">sys/stat.h</text>
</g>
<!-- Node18&#45;&gt;Node23 -->
<g id="edge27" class="edge"><title>Node18&#45;&gt;Node23</title>
<path fill="none" stroke="midnightblue" d="M532.014,-171.418C530.835,-164.216 529.147,-153.896 527.669,-144.863"/>
<polygon fill="midnightblue" stroke="midnightblue" points="531.087,-144.083 526.018,-134.779 524.179,-145.213 531.087,-144.083"/>
</g>
<!-- Node24 -->
<g id="node24" class="node"><title>Node24</title>
<polygon fill="none" stroke="#bfbfbf" points="573.5,-114.5 573.5,-134.5 627.5,-134.5 627.5,-114.5 573.5,-114.5"/>
<text text-anchor="middle" x="600.5" y="-121.7" font-family="Helvetica,sans-Serif" font-size="11.00">libgen.h</text>
</g>
<!-- Node18&#45;&gt;Node24 -->
<g id="edge28" class="edge"><title>Node18&#45;&gt;Node24</title>
<path fill="none" stroke="midnightblue" d="M544.564,-171.418C554.493,-163.267 569.29,-151.12 581.171,-141.367"/>
<polygon fill="midnightblue" stroke="midnightblue" points="583.687,-143.83 589.196,-134.779 579.246,-138.419 583.687,-143.83"/>
</g>
<!-- Node25 -->
<g id="node25" class="node"><title>Node25</title>
<g id="a_node25"><a xlink:href="$macros_8h.xhtml" xlink:title="Macros and constants must defined in this file. ">
<polygon fill="none" stroke="black" points="646,-114.5 646,-134.5 707,-134.5 707,-114.5 646,-114.5"/>
<text text-anchor="middle" x="676.5" y="-121.7" font-family="Helvetica,sans-Serif" font-size="11.00">macros.h</text>
</a>
</g>
</g>
<!-- Node18&#45;&gt;Node25 -->
<g id="edge29" class="edge"><title>Node18&#45;&gt;Node25</title>
<path fill="none" stroke="midnightblue" d="M557.114,-171.418C580.608,-162.382 616.868,-148.435 643.265,-138.283"/>
<polygon fill="midnightblue" stroke="midnightblue" points="644.774,-141.452 652.851,-134.596 642.261,-134.919 644.774,-141.452"/>
</g>
<!-- Node28 -->
<g id="node28" class="node"><title>Node28</title>
<g id="a_node28"><a xlink:href="$config_8h.xhtml" xlink:title="Global configurations must be set in this file. ">
<polygon fill="none" stroke="black" points="725.5,-114.5 725.5,-134.5 779.5,-134.5 779.5,-114.5 725.5,-114.5"/>
<text text-anchor="middle" x="752.5" y="-121.7" font-family="Helvetica,sans-Serif" font-size="11.00">config.h</text>
</a>
</g>
</g>
<!-- Node18&#45;&gt;Node28 -->
<g id="edge33" class="edge"><title>Node18&#45;&gt;Node28</title>
<path fill="none" stroke="midnightblue" d="M561.575,-173.54C597.336,-164.661 661.038,-148.799 715.5,-135 715.6,-134.975 715.701,-134.949 715.802,-134.924"/>
<polygon fill="midnightblue" stroke="midnightblue" points="716.6,-138.332 725.427,-132.472 714.873,-131.548 716.6,-138.332"/>
</g>
<!-- Node25&#45;&gt;Node16 -->
<g id="edge32" class="edge"><title>Node25&#45;&gt;Node16</title>
<path fill="none" stroke="midnightblue" d="M707.379,-114.418C739.953,-104.837 791.293,-89.7373 826.13,-79.4913"/>
<polygon fill="midnightblue" stroke="midnightblue" points="827.323,-82.7885 835.929,-76.609 825.348,-76.0729 827.323,-82.7885"/>
</g>
<!-- Node26 -->
<g id="node26" class="node"><title>Node26</title>
<polygon fill="none" stroke="#bfbfbf" points="690.5,-57.5 690.5,-77.5 738.5,-77.5 738.5,-57.5 690.5,-57.5"/>
<text text-anchor="middle" x="714.5" y="-64.7" font-family="Helvetica,sans-Serif" font-size="11.00">stdio.h</text>
</g>
<!-- Node25&#45;&gt;Node26 -->
<g id="edge30" class="edge"><title>Node25&#45;&gt;Node26</title>
<path fill="none" stroke="midnightblue" d="M682.775,-114.418C688.079,-106.742 695.83,-95.5217 702.344,-86.0945"/>
<polygon fill="midnightblue" stroke="midnightblue" points="705.284,-87.9963 708.089,-77.7795 699.525,-84.0173 705.284,-87.9963"/>
</g>
<!-- Node27 -->
<g id="node27" class="node"><title>Node27</title>
<polygon fill="none" stroke="#bfbfbf" points="607,-57.5 607,-77.5 672,-77.5 672,-57.5 607,-57.5"/>
<text text-anchor="middle" x="639.5" y="-64.7" font-family="Helvetica,sans-Serif" font-size="11.00">sys/time.h</text>
</g>
<!-- Node25&#45;&gt;Node27 -->
<g id="edge31" class="edge"><title>Node25&#45;&gt;Node27</title>
<path fill="none" stroke="midnightblue" d="M670.39,-114.418C665.226,-106.742 657.678,-95.5217 651.336,-86.0945"/>
<polygon fill="midnightblue" stroke="midnightblue" points="654.228,-84.1231 645.743,-77.7795 648.42,-88.0303 654.228,-84.1231"/>
</g>
<!-- Node31&#45;&gt;Node14 -->
<g id="edge41" class="edge"><title>Node31&#45;&gt;Node14</title>
<path fill="none" stroke="midnightblue" d="M1157.67,-228.366C1166.66,-207.256 1185.73,-153.849 1168.5,-114 1151.44,-74.5418 1110.89,-43.2652 1084.34,-26.0813"/>
<polygon fill="midnightblue" stroke="midnightblue" points="1085.93,-22.9465 1075.6,-20.6006 1082.22,-28.8775 1085.93,-22.9465"/>
</g>
<!-- Node31&#45;&gt;Node15 -->
<g id="edge39" class="edge"><title>Node31&#45;&gt;Node15</title>
<path fill="none" stroke="midnightblue" d="M1152.44,-228.335C1150.33,-210.204 1145.6,-169.407 1142.76,-145"/>
<polygon fill="midnightblue" stroke="midnightblue" points="1146.21,-144.322 1141.58,-134.792 1139.25,-145.129 1146.21,-144.322"/>
</g>
<!-- Node31&#45;&gt;Node32 -->
<g id="edge40" class="edge"><title>Node31&#45;&gt;Node32</title>
<path fill="none" stroke="midnightblue" d="M1167.54,-228.418C1180.7,-219.899 1200.61,-207.017 1215.99,-197.063"/>
<polygon fill="midnightblue" stroke="midnightblue" points="1217.95,-199.967 1224.44,-191.596 1214.15,-194.09 1217.95,-199.967"/>
</g>
<!-- Node33&#45;&gt;Node11 -->
<g id="edge43" class="edge"><title>Node33&#45;&gt;Node11</title>
<path fill="none" stroke="midnightblue" d="M940.5,-285.335C940.5,-267.204 940.5,-226.407 940.5,-202"/>
<polygon fill="midnightblue" stroke="midnightblue" points="944,-201.792 940.5,-191.792 937,-201.792 944,-201.792"/>
</g>
</g>
</svg>
