<?xml version="1.0" encoding="UTF-8" standalone="no"?>
<!DOCTYPE svg PUBLIC "-//W3C//DTD SVG 1.1//EN"
 "http://www.w3.org/Graphics/SVG/1.1/DTD/svg11.dtd">
<!-- Generated by graphviz version 2.38.0 (20140413.2041)
 -->
<!-- Title: Position::sub Pages: 1 -->
<svg width="442pt" height="119pt"
 viewBox="0.00 0.00 442.00 119.00" xmlns="http://www.w3.org/2000/svg" xmlns:xlink="http://www.w3.org/1999/xlink">
<g id="graph0" class="graph" transform="scale(1 1) rotate(0) translate(4 115)">
<title>Position::sub</title>
<!-- Node1 -->
<g id="node1" class="node"><title>Node1</title>
<polygon fill="#bfbfbf" stroke="black" points="0,-45.5 0,-65.5 78,-65.5 78,-45.5 0,-45.5"/>
<text text-anchor="middle" x="39" y="-52.7" font-family="Helvetica,sans-Serif" font-size="11.00">Position::sub</text>
</g>
<!-- Node2 -->
<g id="node2" class="node"><title>Node2</title>
<g id="a_node2"><a xlink:href="$classPSO.xhtml#a25e15ab34186e7c52a4789108ae24ece" xlink:title="Perform the actual optimization only until the next improvement. ">
<polygon fill="none" stroke="black" points="140.5,-90.5 140.5,-110.5 206.5,-110.5 206.5,-90.5 140.5,-90.5"/>
<text text-anchor="middle" x="173.5" y="-97.7" font-family="Helvetica,sans-Serif" font-size="11.00">PSO::next</text>
</a>
</g>
</g>
<!-- Node1&#45;&gt;Node2 -->
<g id="edge1" class="edge"><title>Node1&#45;&gt;Node2</title>
<path fill="none" stroke="midnightblue" d="M77.5146,-68.8756C89.1843,-72.9839 102.108,-77.4802 114,-81.5 122.801,-84.4749 132.377,-87.6222 141.184,-90.4811"/>
<polygon fill="midnightblue" stroke="midnightblue" points="78.6518,-65.5654 68.057,-65.5348 76.3203,-72.1658 78.6518,-65.5654"/>
</g>
<!-- Node3 -->
<g id="node3" class="node"><title>Node3</title>
<g id="a_node3"><a xlink:href="$classBestListUpdatePolicy.xhtml#a6987f90d6d9e5fec813f5aa53fe47ce3" xlink:title="Convenience method that calculates the Euclidean distance between two solutions. ">
<polygon fill="none" stroke="black" points="114,-39.5 114,-71.5 233,-71.5 233,-39.5 114,-39.5"/>
<text text-anchor="start" x="122" y="-58.7" font-family="Helvetica,sans-Serif" font-size="11.00">BestListUpdatePolicy</text>
<text text-anchor="middle" x="173.5" y="-46.7" font-family="Helvetica,sans-Serif" font-size="11.00">::euclideanDistance</text>
</a>
</g>
</g>
<!-- Node1&#45;&gt;Node3 -->
<g id="edge2" class="edge"><title>Node1&#45;&gt;Node3</title>
<path fill="none" stroke="midnightblue" d="M88.4181,-55.5C96.5843,-55.5 105.141,-55.5 113.54,-55.5"/>
<polygon fill="midnightblue" stroke="midnightblue" points="88.3245,-52.0001 78.3245,-55.5 88.3245,-59.0001 88.3245,-52.0001"/>
</g>
<!-- Node6 -->
<g id="node6" class="node"><title>Node6</title>
<g id="a_node6"><a xlink:href="$structPosition.xhtml#a09bbd5c9bbd247ccd0307a5968a40564" xlink:title="Math method that subtracts the list that represents the Position from Position instance received...">
<polygon fill="none" stroke="black" points="134.5,-0.5 134.5,-20.5 212.5,-20.5 212.5,-0.5 134.5,-0.5"/>
<text text-anchor="middle" x="173.5" y="-7.7" font-family="Helvetica,sans-Serif" font-size="11.00">Position::sub</text>
</a>
</g>
</g>
<!-- Node1&#45;&gt;Node6 -->
<g id="edge5" class="edge"><title>Node1&#45;&gt;Node6</title>
<path fill="none" stroke="midnightblue" d="M77.5146,-42.1244C89.1843,-38.0161 102.108,-33.5198 114,-29.5 122.801,-26.5251 132.377,-23.3778 141.184,-20.5189"/>
<polygon fill="midnightblue" stroke="midnightblue" points="76.3203,-38.8342 68.057,-45.4652 78.6518,-45.4346 76.3203,-38.8342"/>
</g>
<!-- Node4 -->
<g id="node4" class="node"><title>Node4</title>
<g id="a_node4"><a xlink:href="$classConvergentBestListUpdatePolicy.xhtml#a6382937d32ac8bab7169f216fcd3048f" xlink:title="This method implements a behavior that focus on convergence speed when updating the solutions from th...">
<polygon fill="none" stroke="black" points="278.5,-64.5 278.5,-96.5 424.5,-96.5 424.5,-64.5 278.5,-64.5"/>
<text text-anchor="start" x="286.5" y="-83.7" font-family="Helvetica,sans-Serif" font-size="11.00">ConvergentBestListUpdate</text>
<text text-anchor="middle" x="351.5" y="-71.7" font-family="Helvetica,sans-Serif" font-size="11.00">Policy::apply</text>
</a>
</g>
</g>
<!-- Node3&#45;&gt;Node4 -->
<g id="edge3" class="edge"><title>Node3&#45;&gt;Node4</title>
<path fill="none" stroke="midnightblue" d="M243.124,-65.2478C254.687,-66.8902 266.72,-68.5994 278.369,-70.2541"/>
<polygon fill="midnightblue" stroke="midnightblue" points="243.498,-61.7658 233.105,-63.8246 242.514,-68.6963 243.498,-61.7658"/>
</g>
<!-- Node5 -->
<g id="node5" class="node"><title>Node5</title>
<g id="a_node5"><a xlink:href="$classDivergentBestListUpdatePolicy.xhtml#a793d47a0c458eef94b27fbee73e5df0e" xlink:title="This method implements a behavior that promotes diversity when updating the solutions from the BestLi...">
<polygon fill="none" stroke="black" points="269,-13.5 269,-45.5 434,-45.5 434,-13.5 269,-13.5"/>
<text text-anchor="start" x="277" y="-32.7" font-family="Helvetica,sans-Serif" font-size="11.00">DivergentBestListUpdatePolicy</text>
<text text-anchor="middle" x="351.5" y="-20.7" font-family="Helvetica,sans-Serif" font-size="11.00">::apply</text>
</a>
</g>
</g>
<!-- Node3&#45;&gt;Node5 -->
<g id="edge4" class="edge"><title>Node3&#45;&gt;Node5</title>
<path fill="none" stroke="midnightblue" d="M243.245,-45.3445C251.677,-44.0988 260.357,-42.8166 268.954,-41.5465"/>
<polygon fill="midnightblue" stroke="midnightblue" points="242.487,-41.9185 233.105,-46.8424 243.51,-48.8433 242.487,-41.9185"/>
</g>
</g>
</svg>
