<?xml version="1.0" encoding="UTF-8" standalone="no"?>
<!DOCTYPE svg PUBLIC "-//W3C//DTD SVG 1.1//EN"
 "http://www.w3.org/Graphics/SVG/1.1/DTD/svg11.dtd">
<!-- Generated by graphviz version 2.38.0 (20140413.2041)
 -->
<!-- Title: Position::getLowerValue Pages: 1 -->
<svg width="608pt" height="131pt"
 viewBox="0.00 0.00 608.00 131.00" xmlns="http://www.w3.org/2000/svg" xmlns:xlink="http://www.w3.org/1999/xlink">
<g id="graph0" class="graph" transform="scale(1 1) rotate(0) translate(4 127)">
<title>Position::getLowerValue</title>
<!-- Node1 -->
<g id="node1" class="node"><title>Node1</title>
<polygon fill="#bfbfbf" stroke="black" points="0,-45.5 0,-65.5 134,-65.5 134,-45.5 0,-45.5"/>
<text text-anchor="middle" x="67" y="-52.7" font-family="Helvetica,sans-Serif" font-size="11.00">Position::getLowerValue</text>
</g>
<!-- Node2 -->
<g id="node2" class="node"><title>Node2</title>
<g id="a_node2"><a xlink:href="$classSolution.xhtml#a84c713b707a570add53e85a28196bb3e" xlink:title="Reset the position of the current Solution in the search space. ">
<polygon fill="none" stroke="black" points="170,-45.5 170,-65.5 256,-65.5 256,-45.5 170,-45.5"/>
<text text-anchor="middle" x="213" y="-52.7" font-family="Helvetica,sans-Serif" font-size="11.00">Solution::reset</text>
</a>
</g>
</g>
<!-- Node1&#45;&gt;Node2 -->
<g id="edge1" class="edge"><title>Node1&#45;&gt;Node2</title>
<path fill="none" stroke="midnightblue" d="M144.353,-55.5C153.08,-55.5 161.722,-55.5 169.762,-55.5"/>
<polygon fill="midnightblue" stroke="midnightblue" points="144.1,-52.0001 134.1,-55.5 144.1,-59.0001 144.1,-52.0001"/>
</g>
<!-- Node3 -->
<g id="node3" class="node"><title>Node3</title>
<g id="a_node3"><a xlink:href="$classBetaRelocationStrategyPolicy.xhtml#aeadaa254d012725ab1a67419d9cb37ef" xlink:title="This method implements the policy to relocate TH instance&#39;s population at every TH instance&#39;s iterati...">
<polygon fill="none" stroke="black" points="292,-90.5 292,-122.5 451,-122.5 451,-90.5 292,-90.5"/>
<text text-anchor="start" x="300" y="-109.7" font-family="Helvetica,sans-Serif" font-size="11.00">BetaRelocationStrategyPolicy</text>
<text text-anchor="middle" x="371.5" y="-97.7" font-family="Helvetica,sans-Serif" font-size="11.00">::apply</text>
</a>
</g>
</g>
<!-- Node2&#45;&gt;Node3 -->
<g id="edge2" class="edge"><title>Node2&#45;&gt;Node3</title>
<path fill="none" stroke="midnightblue" d="M253.518,-68.7872C265.834,-72.8973 279.471,-77.4168 292,-81.5 300.975,-84.4249 310.54,-87.5034 319.795,-90.4618"/>
<polygon fill="midnightblue" stroke="midnightblue" points="254.565,-65.4467 243.971,-65.5949 252.345,-72.0854 254.565,-65.4467"/>
</g>
<!-- Node4 -->
<g id="node4" class="node"><title>Node4</title>
<g id="a_node4"><a xlink:href="$classTHBuilder_1_1SearchGroup.xhtml#aafebb836a1ec681213319a024a254ca8" xlink:title="Reset the location of the population individuals and calculate the fitness. ">
<polygon fill="none" stroke="black" points="303.5,-39.5 303.5,-71.5 439.5,-71.5 439.5,-39.5 303.5,-39.5"/>
<text text-anchor="start" x="311.5" y="-58.7" font-family="Helvetica,sans-Serif" font-size="11.00">THBuilder::SearchGroup</text>
<text text-anchor="middle" x="371.5" y="-46.7" font-family="Helvetica,sans-Serif" font-size="11.00">::resetPopulation</text>
</a>
</g>
</g>
<!-- Node2&#45;&gt;Node4 -->
<g id="edge3" class="edge"><title>Node2&#45;&gt;Node4</title>
<path fill="none" stroke="midnightblue" d="M266.487,-55.5C278.315,-55.5 291.027,-55.5 303.364,-55.5"/>
<polygon fill="midnightblue" stroke="midnightblue" points="266.351,-52.0001 256.351,-55.5 266.351,-59.0001 266.351,-52.0001"/>
</g>
<!-- Node6 -->
<g id="node6" class="node"><title>Node6</title>
<g id="a_node6"><a xlink:href="$classTHBuilder_1_1THImpl.xhtml#a943301db5154fd7b672119b5c9917303" xlink:title="Starts the Treasure Hunt mechanisms. ">
<polygon fill="none" stroke="black" points="307.5,-0.5 307.5,-20.5 435.5,-20.5 435.5,-0.5 307.5,-0.5"/>
<text text-anchor="middle" x="371.5" y="-7.7" font-family="Helvetica,sans-Serif" font-size="11.00">THBuilder::THImpl::run</text>
</a>
</g>
</g>
<!-- Node2&#45;&gt;Node6 -->
<g id="edge5" class="edge"><title>Node2&#45;&gt;Node6</title>
<path fill="none" stroke="midnightblue" d="M253.41,-42.3555C265.721,-38.3877 279.382,-34.1258 292,-30.5 304.03,-27.0431 317.183,-23.5725 329.225,-20.5156"/>
<polygon fill="midnightblue" stroke="midnightblue" points="252.3,-39.0361 243.872,-45.4567 254.464,-45.693 252.3,-39.0361"/>
</g>
<!-- Node5 -->
<g id="node5" class="node"><title>Node5</title>
<g id="a_node5"><a xlink:href="$classTHBuilder_1_1THImpl.xhtml#a0d6e2fd43f50755ff2738e924f66690d" xlink:title="THBuilder::THImpl::\lTHImpl">
<polygon fill="none" stroke="black" points="487,-39.5 487,-71.5 600,-71.5 600,-39.5 487,-39.5"/>
<text text-anchor="start" x="495" y="-58.7" font-family="Helvetica,sans-Serif" font-size="11.00">THBuilder::THImpl::</text>
<text text-anchor="middle" x="543.5" y="-46.7" font-family="Helvetica,sans-Serif" font-size="11.00">THImpl</text>
</a>
</g>
</g>
<!-- Node4&#45;&gt;Node5 -->
<g id="edge4" class="edge"><title>Node4&#45;&gt;Node5</title>
<path fill="none" stroke="midnightblue" d="M450.017,-55.5C462.401,-55.5 474.999,-55.5 486.747,-55.5"/>
<polygon fill="midnightblue" stroke="midnightblue" points="449.689,-52.0001 439.689,-55.5 449.688,-59.0001 449.689,-52.0001"/>
</g>
</g>
</svg>
