<?xml version="1.0" encoding="UTF-8" standalone="no"?>
<!DOCTYPE svg PUBLIC "-//W3C//DTD SVG 1.1//EN"
 "http://www.w3.org/Graphics/SVG/1.1/DTD/svg11.dtd">
<!-- Generated by graphviz version 2.38.0 (20140413.2041)
 -->
<!-- Title: Position::sum Pages: 1 -->
<svg width="275pt" height="68pt"
 viewBox="0.00 0.00 275.00 68.00" xmlns="http://www.w3.org/2000/svg" xmlns:xlink="http://www.w3.org/1999/xlink">
<g id="graph0" class="graph" transform="scale(1 1) rotate(0) translate(4 64)">
<title>Position::sum</title>
<!-- Node1 -->
<g id="node1" class="node"><title>Node1</title>
<polygon fill="#bfbfbf" stroke="black" points="0,-19.5 0,-39.5 81,-39.5 81,-19.5 0,-19.5"/>
<text text-anchor="middle" x="40.5" y="-26.7" font-family="Helvetica,sans-Serif" font-size="11.00">Position::sum</text>
</g>
<!-- Node2 -->
<g id="node2" class="node"><title>Node2</title>
<g id="a_node2"><a xlink:href="$structPosition.xhtml#ac9d8d79414e34bd4486b8fc047cdb5bd" xlink:title="Position::checkCompatibility">
<polygon fill="none" stroke="black" points="117,-39.5 117,-59.5 267,-59.5 267,-39.5 117,-39.5"/>
<text text-anchor="middle" x="192" y="-46.7" font-family="Helvetica,sans-Serif" font-size="11.00">Position::checkCompatibility</text>
</a>
</g>
</g>
<!-- Node1&#45;&gt;Node2 -->
<g id="edge1" class="edge"><title>Node1&#45;&gt;Node2</title>
<path fill="none" stroke="midnightblue" d="M81.1708,-34.8071C89.1528,-35.875 97.825,-37.0351 106.679,-38.2196"/>
<polygon fill="midnightblue" stroke="midnightblue" points="106.351,-41.7068 116.726,-39.5637 107.279,-34.7686 106.351,-41.7068"/>
</g>
<!-- Node3 -->
<g id="node3" class="node"><title>Node3</title>
<g id="a_node3"><a xlink:href="$structPosition.xhtml#a11256d014f2958d21a1198676208df33" xlink:title="Math method that sums (individually) each value in the list that represents the Position with the val...">
<polygon fill="none" stroke="black" points="151.5,-0.5 151.5,-20.5 232.5,-20.5 232.5,-0.5 151.5,-0.5"/>
<text text-anchor="middle" x="192" y="-7.7" font-family="Helvetica,sans-Serif" font-size="11.00">Position::sum</text>
</a>
</g>
</g>
<!-- Node1&#45;&gt;Node3 -->
<g id="edge2" class="edge"><title>Node1&#45;&gt;Node3</title>
<path fill="none" stroke="midnightblue" d="M81.1708,-24.4582C99.6603,-22.1084 121.853,-19.2879 141.435,-16.7992"/>
<polygon fill="midnightblue" stroke="midnightblue" points="141.925,-20.2653 151.403,-15.5323 141.042,-13.3211 141.925,-20.2653"/>
</g>
</g>
</svg>
