<?xml version="1.0" encoding="UTF-8" standalone="no"?>
<!DOCTYPE svg PUBLIC "-//W3C//DTD SVG 1.1//EN"
 "http://www.w3.org/Graphics/SVG/1.1/DTD/svg11.dtd">
<!-- Generated by graphviz version 2.38.0 (20140413.2041)
 -->
<!-- Title: t_node::hasChildren Pages: 1 -->
<svg width="434pt" height="117pt"
 viewBox="0.00 0.00 434.00 117.25" xmlns="http://www.w3.org/2000/svg" xmlns:xlink="http://www.w3.org/1999/xlink">
<g id="graph0" class="graph" transform="scale(1 1) rotate(0) translate(4 113.253)">
<title>t_node::hasChildren</title>
<!-- Node1 -->
<g id="node1" class="node"><title>Node1</title>
<polygon fill="#bfbfbf" stroke="black" points="0,-42.5 0,-62.5 113,-62.5 113,-42.5 0,-42.5"/>
<text text-anchor="middle" x="56.5" y="-49.7" font-family="Helvetica,sans-Serif" font-size="11.00">t_node::hasChildren</text>
</g>
<!-- Node2 -->
<g id="node2" class="node"><title>Node2</title>
<g id="a_node2"><a xlink:href="$classTHBuilder_1_1THImpl.xhtml#a0d6e2fd43f50755ff2738e924f66690d" xlink:title="THBuilder::THImpl::\lTHImpl">
<polygon fill="none" stroke="black" points="305.5,-71.5 305.5,-103.5 418.5,-103.5 418.5,-71.5 305.5,-71.5"/>
<text text-anchor="start" x="313.5" y="-90.7" font-family="Helvetica,sans-Serif" font-size="11.00">THBuilder::THImpl::</text>
<text text-anchor="middle" x="362" y="-78.7" font-family="Helvetica,sans-Serif" font-size="11.00">THImpl</text>
</a>
</g>
</g>
<!-- Node1&#45;&gt;Node2 -->
<g id="edge1" class="edge"><title>Node1&#45;&gt;Node2</title>
<path fill="none" stroke="midnightblue" d="M79.669,-68.4122C97.4467,-80.139 123.549,-95.1142 149,-101.5 200.876,-114.516 262,-108.296 305.252,-100.455"/>
<polygon fill="midnightblue" stroke="midnightblue" points="81.416,-65.3676 71.1787,-62.6386 77.4797,-71.1561 81.416,-65.3676"/>
</g>
<!-- Node3 -->
<g id="node3" class="node"><title>Node3</title>
<g id="a_node3"><a xlink:href="$classTHBuilder_1_1THImpl.xhtml#a844f4c665317e9c6e1d6af6b10081a60" xlink:title="THBuilder::THImpl::\l~THImpl">
<polygon fill="none" stroke="black" points="149,-59.5 149,-91.5 262,-91.5 262,-59.5 149,-59.5"/>
<text text-anchor="start" x="157" y="-78.7" font-family="Helvetica,sans-Serif" font-size="11.00">THBuilder::THImpl::</text>
<text text-anchor="middle" x="205.5" y="-66.7" font-family="Helvetica,sans-Serif" font-size="11.00">~THImpl</text>
</a>
</g>
</g>
<!-- Node1&#45;&gt;Node3 -->
<g id="edge2" class="edge"><title>Node1&#45;&gt;Node3</title>
<path fill="none" stroke="midnightblue" d="M123.078,-62.7604C131.681,-64.1065 140.43,-65.4754 148.847,-66.7924"/>
<polygon fill="midnightblue" stroke="midnightblue" points="123.495,-59.2833 113.074,-61.1953 122.413,-66.1991 123.495,-59.2833"/>
</g>
<!-- Node4 -->
<g id="node4" class="node"><title>Node4</title>
<g id="a_node4"><a xlink:href="$classTHBuilder_1_1THImpl.xhtml#a943301db5154fd7b672119b5c9917303" xlink:title="Starts the Treasure Hunt mechanisms. ">
<polygon fill="none" stroke="black" points="298,-0.5 298,-20.5 426,-20.5 426,-0.5 298,-0.5"/>
<text text-anchor="middle" x="362" y="-7.7" font-family="Helvetica,sans-Serif" font-size="11.00">THBuilder::THImpl::run</text>
</a>
</g>
</g>
<!-- Node1&#45;&gt;Node4 -->
<g id="edge3" class="edge"><title>Node1&#45;&gt;Node4</title>
<path fill="none" stroke="midnightblue" d="M82.7346,-37.3182C100.553,-27.5166 125.371,-15.664 149,-10.5 198.081,0.226501 255.095,-0.485805 297.627,-3.48811"/>
<polygon fill="midnightblue" stroke="midnightblue" points="80.5778,-34.5178 73.6077,-42.4971 84.0324,-40.606 80.5778,-34.5178"/>
</g>
<!-- Node5 -->
<g id="node5" class="node"><title>Node5</title>
<g id="a_node5"><a xlink:href="$structt__node.xhtml#ad39388169d7963221a70c4a4af864ac4" xlink:title="t_node::isLeaf">
<polygon fill="none" stroke="black" points="163.5,-20.5 163.5,-40.5 247.5,-40.5 247.5,-20.5 163.5,-20.5"/>
<text text-anchor="middle" x="205.5" y="-27.7" font-family="Helvetica,sans-Serif" font-size="11.00">t_node::isLeaf</text>
</a>
</g>
</g>
<!-- Node1&#45;&gt;Node5 -->
<g id="edge4" class="edge"><title>Node1&#45;&gt;Node5</title>
<path fill="none" stroke="midnightblue" d="M123.311,-42.6507C136.828,-40.6278 150.695,-38.5525 163.057,-36.7023"/>
<polygon fill="midnightblue" stroke="midnightblue" points="122.446,-39.2411 113.074,-44.1827 123.482,-46.164 122.446,-39.2411"/>
</g>
<!-- Node5&#45;&gt;Node2 -->
<g id="edge5" class="edge"><title>Node5&#45;&gt;Node2</title>
<path fill="none" stroke="midnightblue" d="M244.264,-44.0412C250.204,-46.1904 256.272,-48.3975 262,-50.5 280.431,-57.2647 300.75,-64.8384 318.159,-71.363"/>
<polygon fill="midnightblue" stroke="midnightblue" points="245.067,-40.6101 234.473,-40.5078 242.691,-47.1945 245.067,-40.6101"/>
</g>
<!-- Node5&#45;&gt;Node4 -->
<g id="edge6" class="edge"><title>Node5&#45;&gt;Node4</title>
<path fill="none" stroke="midnightblue" d="M257.925,-23.843C270.748,-22.1831 284.644,-20.3842 297.957,-18.6609"/>
<polygon fill="midnightblue" stroke="midnightblue" points="257.371,-20.3855 247.903,-25.1404 258.27,-27.3275 257.371,-20.3855"/>
</g>
</g>
</svg>
