<?xml version="1.0" encoding="UTF-8" standalone="no"?>
<!DOCTYPE svg PUBLIC "-//W3C//DTD SVG 1.1//EN"
 "http://www.w3.org/Graphics/SVG/1.1/DTD/svg11.dtd">
<!-- Generated by graphviz version 2.38.0 (20140413.2041)
 -->
<!-- Title: ConstraintViolation::equals Pages: 1 -->
<svg width="263pt" height="92pt"
 viewBox="0.00 0.00 263.00 92.00" xmlns="http://www.w3.org/2000/svg" xmlns:xlink="http://www.w3.org/1999/xlink">
<g id="graph0" class="graph" transform="scale(1 1) rotate(0) translate(4 88)">
<title>ConstraintViolation::equals</title>
<!-- Node1 -->
<g id="node1" class="node"><title>Node1</title>
<polygon fill="#bfbfbf" stroke="black" points="0,-25.5 0,-57.5 107,-57.5 107,-25.5 0,-25.5"/>
<text text-anchor="start" x="8" y="-44.7" font-family="Helvetica,sans-Serif" font-size="11.00">ConstraintViolation</text>
<text text-anchor="middle" x="53.5" y="-32.7" font-family="Helvetica,sans-Serif" font-size="11.00">::equals</text>
</g>
<!-- Node2 -->
<g id="node2" class="node"><title>Node2</title>
<g id="a_node2"><a xlink:href="$structConstraintViolation.xhtml#a82ebcbfe61ca8adcf6f7b613c4c69f8d" xlink:title="ConstraintViolation\l::checkCompatibility">
<polygon fill="none" stroke="black" points="143,-51.5 143,-83.5 255,-83.5 255,-51.5 143,-51.5"/>
<text text-anchor="start" x="151" y="-70.7" font-family="Helvetica,sans-Serif" font-size="11.00">ConstraintViolation</text>
<text text-anchor="middle" x="199" y="-58.7" font-family="Helvetica,sans-Serif" font-size="11.00">::checkCompatibility</text>
</a>
</g>
</g>
<!-- Node1&#45;&gt;Node2 -->
<g id="edge1" class="edge"><title>Node1&#45;&gt;Node2</title>
<path fill="none" stroke="midnightblue" d="M107.119,-51.0338C115.513,-52.5547 124.284,-54.1438 132.925,-55.7093"/>
<polygon fill="midnightblue" stroke="midnightblue" points="132.514,-59.1918 142.978,-57.5308 133.762,-52.304 132.514,-59.1918"/>
</g>
<!-- Node3 -->
<g id="node3" class="node"><title>Node3</title>
<g id="a_node3"><a xlink:href="$structConstraintViolation.xhtml#a163197175eff749bf4b026c076961120" xlink:title="Compares the current list of constraint violations with the buffer received. ">
<polygon fill="none" stroke="black" points="145.5,-0.5 145.5,-32.5 252.5,-32.5 252.5,-0.5 145.5,-0.5"/>
<text text-anchor="start" x="153.5" y="-19.7" font-family="Helvetica,sans-Serif" font-size="11.00">ConstraintViolation</text>
<text text-anchor="middle" x="199" y="-7.7" font-family="Helvetica,sans-Serif" font-size="11.00">::equals</text>
</a>
</g>
</g>
<!-- Node1&#45;&gt;Node3 -->
<g id="edge2" class="edge"><title>Node1&#45;&gt;Node3</title>
<path fill="none" stroke="midnightblue" d="M107.119,-32.3329C116.283,-30.7364 125.896,-29.0617 135.298,-27.4236"/>
<polygon fill="midnightblue" stroke="midnightblue" points="136.136,-30.8305 145.387,-25.666 134.935,-23.9343 136.136,-30.8305"/>
</g>
</g>
</svg>
