<?xml version="1.0" encoding="UTF-8" standalone="no"?>
<!DOCTYPE svg PUBLIC "-//W3C//DTD SVG 1.1//EN"
 "http://www.w3.org/Graphics/SVG/1.1/DTD/svg11.dtd">
<!-- Generated by graphviz version 2.38.0 (20140413.2041)
 -->
<!-- Title: Position::equals Pages: 1 -->
<svg width="286pt" height="68pt"
 viewBox="0.00 0.00 286.00 68.00" xmlns="http://www.w3.org/2000/svg" xmlns:xlink="http://www.w3.org/1999/xlink">
<g id="graph0" class="graph" transform="scale(1 1) rotate(0) translate(4 64)">
<title>Position::equals</title>
<!-- Node1 -->
<g id="node1" class="node"><title>Node1</title>
<polygon fill="#bfbfbf" stroke="black" points="0,-19.5 0,-39.5 92,-39.5 92,-19.5 0,-19.5"/>
<text text-anchor="middle" x="46" y="-26.7" font-family="Helvetica,sans-Serif" font-size="11.00">Position::equals</text>
</g>
<!-- Node2 -->
<g id="node2" class="node"><title>Node2</title>
<g id="a_node2"><a xlink:href="$structPosition.xhtml#ac9d8d79414e34bd4486b8fc047cdb5bd" xlink:title="Position::checkCompatibility">
<polygon fill="none" stroke="black" points="128,-39.5 128,-59.5 278,-59.5 278,-39.5 128,-39.5"/>
<text text-anchor="middle" x="203" y="-46.7" font-family="Helvetica,sans-Serif" font-size="11.00">Position::checkCompatibility</text>
</a>
</g>
</g>
<!-- Node1&#45;&gt;Node2 -->
<g id="edge1" class="edge"><title>Node1&#45;&gt;Node2</title>
<path fill="none" stroke="midnightblue" d="M92.2491,-35.3386C100.364,-36.3857 109.054,-37.507 117.859,-38.6431"/>
<polygon fill="midnightblue" stroke="midnightblue" points="117.458,-42.1203 127.824,-39.9289 118.354,-35.1779 117.458,-42.1203"/>
</g>
<!-- Node3 -->
<g id="node3" class="node"><title>Node3</title>
<g id="a_node3"><a xlink:href="$structPosition.xhtml#af78cd02c57904a56e97393857b8765eb" xlink:title="Compares the current position with the buffer received. ">
<polygon fill="none" stroke="black" points="157,-0.5 157,-20.5 249,-20.5 249,-0.5 157,-0.5"/>
<text text-anchor="middle" x="203" y="-7.7" font-family="Helvetica,sans-Serif" font-size="11.00">Position::equals</text>
</a>
</g>
</g>
<!-- Node1&#45;&gt;Node3 -->
<g id="edge2" class="edge"><title>Node1&#45;&gt;Node3</title>
<path fill="none" stroke="midnightblue" d="M92.2491,-23.9533C109.359,-21.8559 129.022,-19.4456 146.935,-17.2498"/>
<polygon fill="midnightblue" stroke="midnightblue" points="147.463,-20.7115 156.963,-16.0207 146.611,-13.7635 147.463,-20.7115"/>
</g>
</g>
</svg>
