<?xml version="1.0" encoding="UTF-8" standalone="no"?>
<!DOCTYPE svg PUBLIC "-//W3C//DTD SVG 1.1//EN"
 "http://www.w3.org/Graphics/SVG/1.1/DTD/svg11.dtd">
<!-- Generated by graphviz version 2.38.0 (20140413.2041)
 -->
<!-- Title: Position::mult Pages: 1 -->
<svg width="206pt" height="68pt"
 viewBox="0.00 0.00 206.00 68.00" xmlns="http://www.w3.org/2000/svg" xmlns:xlink="http://www.w3.org/1999/xlink">
<g id="graph0" class="graph" transform="scale(1 1) rotate(0) translate(4 64)">
<title>Position::mult</title>
<!-- Node1 -->
<g id="node1" class="node"><title>Node1</title>
<polygon fill="#bfbfbf" stroke="black" points="0,-19.5 0,-39.5 81,-39.5 81,-19.5 0,-19.5"/>
<text text-anchor="middle" x="40.5" y="-26.7" font-family="Helvetica,sans-Serif" font-size="11.00">Position::mult</text>
</g>
<!-- Node2 -->
<g id="node2" class="node"><title>Node2</title>
<g id="a_node2"><a xlink:href="$classPSO.xhtml#a25e15ab34186e7c52a4789108ae24ece" xlink:title="Perform the actual optimization only until the next improvement. ">
<polygon fill="none" stroke="black" points="124.5,-39.5 124.5,-59.5 190.5,-59.5 190.5,-39.5 124.5,-39.5"/>
<text text-anchor="middle" x="157.5" y="-46.7" font-family="Helvetica,sans-Serif" font-size="11.00">PSO::next</text>
</a>
</g>
</g>
<!-- Node1&#45;&gt;Node2 -->
<g id="edge1" class="edge"><title>Node1&#45;&gt;Node2</title>
<path fill="none" stroke="midnightblue" d="M91.2503,-38.1522C102.507,-40.11 114.168,-42.1379 124.464,-43.9285"/>
<polygon fill="midnightblue" stroke="midnightblue" points="91.5283,-34.6481 81.0765,-36.3829 90.3289,-41.5446 91.5283,-34.6481"/>
</g>
<!-- Node3 -->
<g id="node3" class="node"><title>Node3</title>
<g id="a_node3"><a xlink:href="$structPosition.xhtml#a8cff5fed8bf343eec2689374cb076de1" xlink:title="Math method that multiplies the list that represents the Position with Position instance received...">
<polygon fill="none" stroke="black" points="117,-0.5 117,-20.5 198,-20.5 198,-0.5 117,-0.5"/>
<text text-anchor="middle" x="157.5" y="-7.7" font-family="Helvetica,sans-Serif" font-size="11.00">Position::mult</text>
</a>
</g>
</g>
<!-- Node1&#45;&gt;Node3 -->
<g id="edge2" class="edge"><title>Node1&#45;&gt;Node3</title>
<path fill="none" stroke="midnightblue" d="M91.0417,-21.3148C99.6666,-19.8899 108.535,-18.4246 116.851,-17.0508"/>
<polygon fill="midnightblue" stroke="midnightblue" points="90.3722,-17.8779 81.0765,-22.9613 91.5133,-24.7843 90.3722,-17.8779"/>
</g>
</g>
</svg>
