<?xml version="1.0" encoding="UTF-8" standalone="no"?>
<!DOCTYPE svg PUBLIC "-//W3C//DTD SVG 1.1//EN"
 "http://www.w3.org/Graphics/SVG/1.1/DTD/svg11.dtd">
<!-- Generated by graphviz version 2.38.0 (20140413.2041)
 -->
<!-- Title: Position::sumInternalValues Pages: 1 -->
<svg width="514pt" height="92pt"
 viewBox="0.00 0.00 514.00 92.00" xmlns="http://www.w3.org/2000/svg" xmlns:xlink="http://www.w3.org/1999/xlink">
<g id="graph0" class="graph" transform="scale(1 1) rotate(0) translate(4 88)">
<title>Position::sumInternalValues</title>
<!-- Node1 -->
<g id="node1" class="node"><title>Node1</title>
<polygon fill="#bfbfbf" stroke="black" points="0,-31.5 0,-51.5 150,-51.5 150,-31.5 0,-31.5"/>
<text text-anchor="middle" x="75" y="-38.7" font-family="Helvetica,sans-Serif" font-size="11.00">Position::sumInternalValues</text>
</g>
<!-- Node2 -->
<g id="node2" class="node"><title>Node2</title>
<g id="a_node2"><a xlink:href="$classBestListUpdatePolicy.xhtml#a6987f90d6d9e5fec813f5aa53fe47ce3" xlink:title="Convenience method that calculates the Euclidean distance between two solutions. ">
<polygon fill="none" stroke="black" points="186,-25.5 186,-57.5 305,-57.5 305,-25.5 186,-25.5"/>
<text text-anchor="start" x="194" y="-44.7" font-family="Helvetica,sans-Serif" font-size="11.00">BestListUpdatePolicy</text>
<text text-anchor="middle" x="245.5" y="-32.7" font-family="Helvetica,sans-Serif" font-size="11.00">::euclideanDistance</text>
</a>
</g>
</g>
<!-- Node1&#45;&gt;Node2 -->
<g id="edge1" class="edge"><title>Node1&#45;&gt;Node2</title>
<path fill="none" stroke="midnightblue" d="M160.481,-41.5C169.088,-41.5 177.691,-41.5 185.933,-41.5"/>
<polygon fill="midnightblue" stroke="midnightblue" points="160.397,-38.0001 150.397,-41.5 160.397,-45.0001 160.397,-38.0001"/>
</g>
<!-- Node3 -->
<g id="node3" class="node"><title>Node3</title>
<g id="a_node3"><a xlink:href="$classConvergentBestListUpdatePolicy.xhtml#a6382937d32ac8bab7169f216fcd3048f" xlink:title="This method implements a behavior that focus on convergence speed when updating the solutions from th...">
<polygon fill="none" stroke="black" points="350.5,-51.5 350.5,-83.5 496.5,-83.5 496.5,-51.5 350.5,-51.5"/>
<text text-anchor="start" x="358.5" y="-70.7" font-family="Helvetica,sans-Serif" font-size="11.00">ConvergentBestListUpdate</text>
<text text-anchor="middle" x="423.5" y="-58.7" font-family="Helvetica,sans-Serif" font-size="11.00">Policy::apply</text>
</a>
</g>
</g>
<!-- Node2&#45;&gt;Node3 -->
<g id="edge2" class="edge"><title>Node2&#45;&gt;Node3</title>
<path fill="none" stroke="midnightblue" d="M315.124,-51.6377C326.687,-53.3458 338.72,-55.1234 350.369,-56.8442"/>
<polygon fill="midnightblue" stroke="midnightblue" points="315.51,-48.1567 305.105,-50.1576 314.487,-55.0815 315.51,-48.1567"/>
</g>
<!-- Node4 -->
<g id="node4" class="node"><title>Node4</title>
<g id="a_node4"><a xlink:href="$classDivergentBestListUpdatePolicy.xhtml#a793d47a0c458eef94b27fbee73e5df0e" xlink:title="This method implements a behavior that promotes diversity when updating the solutions from the BestLi...">
<polygon fill="none" stroke="black" points="341,-0.5 341,-32.5 506,-32.5 506,-0.5 341,-0.5"/>
<text text-anchor="start" x="349" y="-19.7" font-family="Helvetica,sans-Serif" font-size="11.00">DivergentBestListUpdatePolicy</text>
<text text-anchor="middle" x="423.5" y="-7.7" font-family="Helvetica,sans-Serif" font-size="11.00">::apply</text>
</a>
</g>
</g>
<!-- Node2&#45;&gt;Node4 -->
<g id="edge3" class="edge"><title>Node2&#45;&gt;Node4</title>
<path fill="none" stroke="midnightblue" d="M315.245,-31.735C323.677,-30.5373 332.357,-29.3044 340.954,-28.0832"/>
<polygon fill="midnightblue" stroke="midnightblue" points="314.514,-28.3037 305.105,-33.1754 315.498,-35.2342 314.514,-28.3037"/>
</g>
</g>
</svg>
