<?xml version="1.0" encoding="UTF-8" standalone="no"?>
<!DOCTYPE svg PUBLIC "-//W3C//DTD SVG 1.1//EN"
 "http://www.w3.org/Graphics/SVG/1.1/DTD/svg11.dtd">
<!-- Generated by graphviz version 2.38.0 (20140413.2041)
 -->
<!-- Title: Fitness::checkCompatibility Pages: 1 -->
<svg width="294pt" height="68pt"
 viewBox="0.00 0.00 294.00 68.00" xmlns="http://www.w3.org/2000/svg" xmlns:xlink="http://www.w3.org/1999/xlink">
<g id="graph0" class="graph" transform="scale(1 1) rotate(0) translate(4 64)">
<title>Fitness::checkCompatibility</title>
<!-- Node1 -->
<g id="node1" class="node"><title>Node1</title>
<polygon fill="#bfbfbf" stroke="black" points="0,-19.5 0,-39.5 146,-39.5 146,-19.5 0,-19.5"/>
<text text-anchor="middle" x="73" y="-26.7" font-family="Helvetica,sans-Serif" font-size="11.00">Fitness::checkCompatibility</text>
</g>
<!-- Node2 -->
<g id="node2" class="node"><title>Node2</title>
<g id="a_node2"><a xlink:href="$structFitness.xhtml#a19e4c2cc608e17611deacc194d83dc89" xlink:title="Operator that overrides the contents of this fitness with the contents of the Fitness instance receiv...">
<polygon fill="none" stroke="black" points="182,-39.5 182,-59.5 286,-59.5 286,-39.5 182,-39.5"/>
<text text-anchor="middle" x="234" y="-46.7" font-family="Helvetica,sans-Serif" font-size="11.00">Fitness::operator=</text>
</a>
</g>
</g>
<!-- Node1&#45;&gt;Node2 -->
<g id="edge1" class="edge"><title>Node1&#45;&gt;Node2</title>
<path fill="none" stroke="midnightblue" d="M156.208,-39.8406C164.86,-40.9289 173.469,-42.0118 181.624,-43.0376"/>
<polygon fill="midnightblue" stroke="midnightblue" points="156.415,-36.3392 146.057,-38.5637 155.542,-43.2845 156.415,-36.3392"/>
</g>
<!-- Node3 -->
<g id="node3" class="node"><title>Node3</title>
<g id="a_node3"><a xlink:href="$structFitness.xhtml#acfc0528bc5ec716f1c06a58086c59b50" xlink:title="Compares the current fitness with the fitness received. ">
<polygon fill="none" stroke="black" points="189.5,-0.5 189.5,-20.5 278.5,-20.5 278.5,-0.5 189.5,-0.5"/>
<text text-anchor="middle" x="234" y="-7.7" font-family="Helvetica,sans-Serif" font-size="11.00">Fitness::equals</text>
</a>
</g>
</g>
<!-- Node1&#45;&gt;Node3 -->
<g id="edge2" class="edge"><title>Node1&#45;&gt;Node3</title>
<path fill="none" stroke="midnightblue" d="M156.138,-19.6847C167.617,-18.3131 179.022,-16.9502 189.395,-15.7107"/>
<polygon fill="midnightblue" stroke="midnightblue" points="155.571,-16.2276 146.057,-20.8895 156.401,-23.1781 155.571,-16.2276"/>
</g>
</g>
</svg>
