<?xml version="1.0" encoding="UTF-8" standalone="no"?>
<!DOCTYPE svg PUBLIC "-//W3C//DTD SVG 1.1//EN"
 "http://www.w3.org/Graphics/SVG/1.1/DTD/svg11.dtd">
<!-- Generated by graphviz version 2.38.0 (20140413.2041)
 -->
<!-- Title: t_node Pages: 1 -->
<svg width="165pt" height="249pt"
 viewBox="0.00 0.00 165.00 249.00" xmlns="http://www.w3.org/2000/svg" xmlns:xlink="http://www.w3.org/1999/xlink">
<g id="graph0" class="graph" transform="scale(1 1) rotate(0) translate(4 245)">
<title>t_node</title>
<!-- Node1 -->
<g id="node1" class="node"><title>Node1</title>
<polygon fill="#bfbfbf" stroke="black" points="-7.10543e-15,-0.5 -7.10543e-15,-240.5 98,-240.5 98,-0.5 -7.10543e-15,-0.5"/>
<text text-anchor="middle" x="49" y="-227.7" font-family="Helvetica,sans-Serif" font-size="11.00">t_node</text>
<polyline fill="none" stroke="black" points="-7.10543e-15,-220.5 98,-220.5 "/>
<text text-anchor="start" x="8" y="-207.7" font-family="Helvetica,sans-Serif" font-size="11.00">+ ID</text>
<text text-anchor="start" x="8" y="-195.7" font-family="Helvetica,sans-Serif" font-size="11.00">+ L</text>
<text text-anchor="start" x="8" y="-183.7" font-family="Helvetica,sans-Serif" font-size="11.00">+ children</text>
<polyline fill="none" stroke="black" points="-7.10543e-15,-176.5 98,-176.5 "/>
<text text-anchor="start" x="8" y="-163.7" font-family="Helvetica,sans-Serif" font-size="11.00">+ t_node()</text>
<text text-anchor="start" x="8" y="-151.7" font-family="Helvetica,sans-Serif" font-size="11.00">+ getChildren()</text>
<text text-anchor="start" x="8" y="-139.7" font-family="Helvetica,sans-Serif" font-size="11.00">+ getNChildren()</text>
<text text-anchor="start" x="8" y="-127.7" font-family="Helvetica,sans-Serif" font-size="11.00">+ addChildren()</text>
<text text-anchor="start" x="8" y="-115.7" font-family="Helvetica,sans-Serif" font-size="11.00">+ hasChildren()</text>
<text text-anchor="start" x="8" y="-103.7" font-family="Helvetica,sans-Serif" font-size="11.00">+ hasParent()</text>
<text text-anchor="start" x="8" y="-91.7" font-family="Helvetica,sans-Serif" font-size="11.00">+ isLeaf()</text>
<text text-anchor="start" x="8" y="-79.7" font-family="Helvetica,sans-Serif" font-size="11.00">+ isRoot()</text>
<text text-anchor="start" x="8" y="-67.7" font-family="Helvetica,sans-Serif" font-size="11.00">+ getID()</text>
<text text-anchor="start" x="8" y="-55.7" font-family="Helvetica,sans-Serif" font-size="11.00">+ setID()</text>
<text text-anchor="start" x="8" y="-43.7" font-family="Helvetica,sans-Serif" font-size="11.00">+ getLevel()</text>
<text text-anchor="start" x="8" y="-31.7" font-family="Helvetica,sans-Serif" font-size="11.00">+ setLevel()</text>
<text text-anchor="start" x="8" y="-19.7" font-family="Helvetica,sans-Serif" font-size="11.00">+ getParent()</text>
<text text-anchor="start" x="8" y="-7.7" font-family="Helvetica,sans-Serif" font-size="11.00">+ setParent()</text>
</g>
<!-- Node1&#45;&gt;Node1 -->
<g id="edge1" class="edge"><title>Node1&#45;&gt;Node1</title>
<path fill="none" stroke="#404040" d="M98.0804,-164.047C108.486,-159.625 116,-145.109 116,-120.5 116,-104.158 112.686,-92.2668 107.413,-84.8268"/>
<polygon fill="none" stroke="#404040" points="107.252,-84.6912 100.087,-83.8793 98.0804,-76.9529 105.246,-77.7648 107.252,-84.6912"/>
<text text-anchor="middle" x="136.5" y="-117.7" font-family="Helvetica,sans-Serif" font-size="11.00"> +parent</text>
</g>
</g>
</svg>
