<?xml version="1.0" encoding="UTF-8" standalone="no"?>
<!DOCTYPE svg PUBLIC "-//W3C//DTD SVG 1.1//EN"
 "http://www.w3.org/Graphics/SVG/1.1/DTD/svg11.dtd">
<!-- Generated by graphviz version 2.38.0 (20140413.2041)
 -->
<!-- Title: t_node::isRoot Pages: 1 -->
<svg width="415pt" height="131pt"
 viewBox="0.00 0.00 415.00 131.00" xmlns="http://www.w3.org/2000/svg" xmlns:xlink="http://www.w3.org/1999/xlink">
<g id="graph0" class="graph" transform="scale(1 1) rotate(0) translate(4 127)">
<title>t_node::isRoot</title>
<!-- Node1 -->
<g id="node1" class="node"><title>Node1</title>
<polygon fill="#bfbfbf" stroke="black" points="0,-51.5 0,-71.5 86,-71.5 86,-51.5 0,-51.5"/>
<text text-anchor="middle" x="43" y="-58.7" font-family="Helvetica,sans-Serif" font-size="11.00">t_node::isRoot</text>
</g>
<!-- Node2 -->
<g id="node2" class="node"><title>Node2</title>
<g id="a_node2"><a xlink:href="$classTHBuilder_1_1SearchGroup.xhtml#a794cf5448380674b51022b5d65a240e2" xlink:title="Constructor to create the internal Search Group. ">
<polygon fill="none" stroke="black" points="122,-90.5 122,-122.5 258,-122.5 258,-90.5 122,-90.5"/>
<text text-anchor="start" x="130" y="-109.7" font-family="Helvetica,sans-Serif" font-size="11.00">THBuilder::SearchGroup</text>
<text text-anchor="middle" x="190" y="-97.7" font-family="Helvetica,sans-Serif" font-size="11.00">::SearchGroup</text>
</a>
</g>
</g>
<!-- Node1&#45;&gt;Node2 -->
<g id="edge1" class="edge"><title>Node1&#45;&gt;Node2</title>
<path fill="none" stroke="midnightblue" d="M86.1358,-74.5766C102.101,-79.5314 120.464,-85.2302 137.216,-90.4292"/>
<polygon fill="midnightblue" stroke="midnightblue" points="87.1289,-71.2202 76.5408,-71.5989 85.0541,-77.9057 87.1289,-71.2202"/>
</g>
<!-- Node3 -->
<g id="node3" class="node"><title>Node3</title>
<g id="a_node3"><a xlink:href="$classTHBuilder_1_1THImpl.xhtml#a0d6e2fd43f50755ff2738e924f66690d" xlink:title="THBuilder::THImpl::\lTHImpl">
<polygon fill="none" stroke="black" points="294,-45.5 294,-77.5 407,-77.5 407,-45.5 294,-45.5"/>
<text text-anchor="start" x="302" y="-64.7" font-family="Helvetica,sans-Serif" font-size="11.00">THBuilder::THImpl::</text>
<text text-anchor="middle" x="350.5" y="-52.7" font-family="Helvetica,sans-Serif" font-size="11.00">THImpl</text>
</a>
</g>
</g>
<!-- Node1&#45;&gt;Node3 -->
<g id="edge5" class="edge"><title>Node1&#45;&gt;Node3</title>
<path fill="none" stroke="midnightblue" d="M96.3902,-61.5C151.406,-61.5 237.581,-61.5 293.807,-61.5"/>
<polygon fill="midnightblue" stroke="midnightblue" points="96.1578,-58.0001 86.1577,-61.5 96.1577,-65.0001 96.1578,-58.0001"/>
</g>
<!-- Node4 -->
<g id="node4" class="node"><title>Node4</title>
<g id="a_node4"><a xlink:href="$classTHBuilder_1_1SearchGroup.xhtml#aafebb836a1ec681213319a024a254ca8" xlink:title="Reset the location of the population individuals and calculate the fitness. ">
<polygon fill="none" stroke="black" points="122,-0.5 122,-32.5 258,-32.5 258,-0.5 122,-0.5"/>
<text text-anchor="start" x="130" y="-19.7" font-family="Helvetica,sans-Serif" font-size="11.00">THBuilder::SearchGroup</text>
<text text-anchor="middle" x="190" y="-7.7" font-family="Helvetica,sans-Serif" font-size="11.00">::resetPopulation</text>
</a>
</g>
</g>
<!-- Node1&#45;&gt;Node4 -->
<g id="edge3" class="edge"><title>Node1&#45;&gt;Node4</title>
<path fill="none" stroke="midnightblue" d="M86.1358,-48.4234C102.101,-43.4686 120.464,-37.7698 137.216,-32.5708"/>
<polygon fill="midnightblue" stroke="midnightblue" points="85.0541,-45.0943 76.5408,-51.4011 87.1289,-51.7798 85.0541,-45.0943"/>
</g>
<!-- Node2&#45;&gt;Node3 -->
<g id="edge2" class="edge"><title>Node2&#45;&gt;Node3</title>
<path fill="none" stroke="midnightblue" d="M257.408,-87.646C269.559,-84.1961 282.124,-80.6287 293.919,-77.2801"/>
<polygon fill="midnightblue" stroke="midnightblue" points="256.438,-84.2829 247.774,-90.3811 258.35,-91.0168 256.438,-84.2829"/>
</g>
<!-- Node4&#45;&gt;Node3 -->
<g id="edge4" class="edge"><title>Node4&#45;&gt;Node3</title>
<path fill="none" stroke="midnightblue" d="M257.408,-35.354C269.559,-38.8039 282.124,-42.3713 293.919,-45.7199"/>
<polygon fill="midnightblue" stroke="midnightblue" points="258.35,-31.9832 247.774,-32.6189 256.438,-38.7171 258.35,-31.9832"/>
</g>
</g>
</svg>
