<?xml version="1.0" encoding="UTF-8" standalone="no"?>
<!DOCTYPE svg PUBLIC "-//W3C//DTD SVG 1.1//EN"
 "http://www.w3.org/Graphics/SVG/1.1/DTD/svg11.dtd">
<!-- Generated by graphviz version 2.38.0 (20140413.2041)
 -->
<!-- Title: t_node::getLevel Pages: 1 -->
<svg width="425pt" height="197pt"
 viewBox="0.00 0.00 425.00 197.00" xmlns="http://www.w3.org/2000/svg" xmlns:xlink="http://www.w3.org/1999/xlink">
<g id="graph0" class="graph" transform="scale(1 1) rotate(0) translate(4 193)">
<title>t_node::getLevel</title>
<!-- Node1 -->
<g id="node1" class="node"><title>Node1</title>
<polygon fill="#bfbfbf" stroke="black" points="0,-78.5 0,-98.5 96,-98.5 96,-78.5 0,-78.5"/>
<text text-anchor="middle" x="48" y="-85.7" font-family="Helvetica,sans-Serif" font-size="11.00">t_node::getLevel</text>
</g>
<!-- Node2 -->
<g id="node2" class="node"><title>Node2</title>
<g id="a_node2"><a xlink:href="$classTHBuilder_1_1SearchGroup.xhtml#a794cf5448380674b51022b5d65a240e2" xlink:title="Constructor to create the internal Search Group. ">
<polygon fill="none" stroke="black" points="132,-156.5 132,-188.5 268,-188.5 268,-156.5 132,-156.5"/>
<text text-anchor="start" x="140" y="-175.7" font-family="Helvetica,sans-Serif" font-size="11.00">THBuilder::SearchGroup</text>
<text text-anchor="middle" x="200" y="-163.7" font-family="Helvetica,sans-Serif" font-size="11.00">::SearchGroup</text>
</a>
</g>
</g>
<!-- Node1&#45;&gt;Node2 -->
<g id="edge1" class="edge"><title>Node1&#45;&gt;Node2</title>
<path fill="none" stroke="midnightblue" d="M72.0234,-104.39C88.4043,-115.399 111.121,-130.072 132,-141.5 141.556,-146.731 152.153,-151.906 162.046,-156.485"/>
<polygon fill="midnightblue" stroke="midnightblue" points="73.8673,-101.412 63.6267,-98.6953 69.9381,-107.205 73.8673,-101.412"/>
</g>
<!-- Node3 -->
<g id="node3" class="node"><title>Node3</title>
<g id="a_node3"><a xlink:href="$classTHBuilder_1_1THImpl.xhtml#a0d6e2fd43f50755ff2738e924f66690d" xlink:title="THBuilder::THImpl::\lTHImpl">
<polygon fill="none" stroke="black" points="304,-111.5 304,-143.5 417,-143.5 417,-111.5 304,-111.5"/>
<text text-anchor="start" x="312" y="-130.7" font-family="Helvetica,sans-Serif" font-size="11.00">THBuilder::THImpl::</text>
<text text-anchor="middle" x="360.5" y="-118.7" font-family="Helvetica,sans-Serif" font-size="11.00">THImpl</text>
</a>
</g>
</g>
<!-- Node1&#45;&gt;Node3 -->
<g id="edge3" class="edge"><title>Node1&#45;&gt;Node3</title>
<path fill="none" stroke="midnightblue" d="M95.2645,-100.973C107.163,-103.815 119.996,-106.564 132,-108.5 190.106,-117.871 257.351,-122.763 303.581,-125.22"/>
<polygon fill="midnightblue" stroke="midnightblue" points="96.0747,-97.5685 85.5282,-98.5801 94.4036,-104.366 96.0747,-97.5685"/>
</g>
<!-- Node4 -->
<g id="node4" class="node"><title>Node4</title>
<g id="a_node4"><a xlink:href="$classTHTree.xhtml#a4dd1e98529fdd21abe3ebbb685184ffd" xlink:title="Add a child node to the tree topology. ">
<polygon fill="none" stroke="black" points="148,-78.5 148,-98.5 252,-98.5 252,-78.5 148,-78.5"/>
<text text-anchor="middle" x="200" y="-85.7" font-family="Helvetica,sans-Serif" font-size="11.00">THTree::addNode</text>
</a>
</g>
</g>
<!-- Node1&#45;&gt;Node4 -->
<g id="edge4" class="edge"><title>Node1&#45;&gt;Node4</title>
<path fill="none" stroke="midnightblue" d="M106.33,-88.5C120.029,-88.5 134.561,-88.5 147.955,-88.5"/>
<polygon fill="midnightblue" stroke="midnightblue" points="106.049,-85.0001 96.0494,-88.5 106.049,-92.0001 106.049,-85.0001"/>
</g>
<!-- Node5 -->
<g id="node5" class="node"><title>Node5</title>
<g id="a_node5"><a xlink:href="$classTHTree.xhtml#a839ab9db010c87b20c1ba76a79f71b70" xlink:title="Lock this THTree topology for any further change. ">
<polygon fill="none" stroke="black" points="160.5,-39.5 160.5,-59.5 239.5,-59.5 239.5,-39.5 160.5,-39.5"/>
<text text-anchor="middle" x="200" y="-46.7" font-family="Helvetica,sans-Serif" font-size="11.00">THTree::lock</text>
</a>
</g>
</g>
<!-- Node1&#45;&gt;Node5 -->
<g id="edge5" class="edge"><title>Node1&#45;&gt;Node5</title>
<path fill="none" stroke="midnightblue" d="M97.3837,-75.9202C117.815,-70.608 141.275,-64.5085 160.502,-59.5094"/>
<polygon fill="midnightblue" stroke="midnightblue" points="96.4262,-72.5527 87.6287,-78.4565 98.1877,-79.3275 96.4262,-72.5527"/>
</g>
<!-- Node6 -->
<g id="node6" class="node"><title>Node6</title>
<g id="a_node6"><a xlink:href="$classTHTree.xhtml#a790b7da1235d0ff11cbc75b512783ca9" xlink:title="THTree::getLevel">
<polygon fill="none" stroke="black" points="149.5,-0.5 149.5,-20.5 250.5,-20.5 250.5,-0.5 149.5,-0.5"/>
<text text-anchor="middle" x="200" y="-7.7" font-family="Helvetica,sans-Serif" font-size="11.00">THTree::getLevel</text>
</a>
</g>
</g>
<!-- Node1&#45;&gt;Node6 -->
<g id="edge7" class="edge"><title>Node1&#45;&gt;Node6</title>
<path fill="none" stroke="midnightblue" d="M69.0133,-71.7522C85.1531,-58.9514 108.894,-41.6614 132,-30.5 140.089,-26.5927 149.099,-23.2732 157.823,-20.5281"/>
<polygon fill="midnightblue" stroke="midnightblue" points="66.4519,-69.3225 60.881,-78.3345 70.8559,-74.7636 66.4519,-69.3225"/>
</g>
<!-- Node2&#45;&gt;Node3 -->
<g id="edge2" class="edge"><title>Node2&#45;&gt;Node3</title>
<path fill="none" stroke="midnightblue" d="M267.408,-153.646C279.559,-150.196 292.124,-146.629 303.919,-143.28"/>
<polygon fill="midnightblue" stroke="midnightblue" points="266.438,-150.283 257.774,-156.381 268.35,-157.017 266.438,-150.283"/>
</g>
<!-- Node5&#45;&gt;Node3 -->
<g id="edge6" class="edge"><title>Node5&#45;&gt;Node3</title>
<path fill="none" stroke="midnightblue" d="M249.474,-62.2321C255.806,-64.3979 262.128,-66.8246 268,-69.5 293.33,-81.0412 319.954,-98.6232 337.91,-111.404"/>
<polygon fill="midnightblue" stroke="midnightblue" points="250.17,-58.7792 239.578,-59.045 248.024,-65.4422 250.17,-58.7792"/>
</g>
</g>
</svg>
