<?xml version="1.0" encoding="UTF-8" standalone="no"?>
<!DOCTYPE svg PUBLIC "-//W3C//DTD SVG 1.1//EN"
 "http://www.w3.org/Graphics/SVG/1.1/DTD/svg11.dtd">
<!-- Generated by graphviz version 2.38.0 (20140413.2041)
 -->
<!-- Title: src/TH/THTree.h Pages: 1 -->
<svg width="176pt" height="86pt"
 viewBox="0.00 0.00 175.50 86.00" xmlns="http://www.w3.org/2000/svg" xmlns:xlink="http://www.w3.org/1999/xlink">
<g id="graph0" class="graph" transform="scale(1 1) rotate(0) translate(4 82)">
<title>src/TH/THTree.h</title>
<!-- Node1 -->
<g id="node1" class="node"><title>Node1</title>
<polygon fill="#bfbfbf" stroke="black" points="30,-57.5 30,-77.5 128,-77.5 128,-57.5 30,-57.5"/>
<text text-anchor="middle" x="79" y="-64.7" font-family="Helvetica,sans-Serif" font-size="11.00">src/TH/THTree.h</text>
</g>
<!-- Node2 -->
<g id="node2" class="node"><title>Node2</title>
<polygon fill="none" stroke="#bfbfbf" points="0,-0.5 0,-20.5 38,-20.5 38,-0.5 0,-0.5"/>
<text text-anchor="middle" x="19" y="-7.7" font-family="Helvetica,sans-Serif" font-size="11.00">map</text>
</g>
<!-- Node1&#45;&gt;Node2 -->
<g id="edge1" class="edge"><title>Node1&#45;&gt;Node2</title>
<path fill="none" stroke="midnightblue" d="M69.0922,-57.4179C60.2864,-49.3458 47.2061,-37.3556 36.62,-27.6517"/>
<polygon fill="midnightblue" stroke="midnightblue" points="38.8597,-24.9567 29.123,-20.7795 34.1296,-30.1168 38.8597,-24.9567"/>
</g>
<!-- Node3 -->
<g id="node3" class="node"><title>Node3</title>
<polygon fill="none" stroke="#bfbfbf" points="56,-0.5 56,-20.5 102,-20.5 102,-0.5 56,-0.5"/>
<text text-anchor="middle" x="79" y="-7.7" font-family="Helvetica,sans-Serif" font-size="11.00">vector</text>
</g>
<!-- Node1&#45;&gt;Node3 -->
<g id="edge2" class="edge"><title>Node1&#45;&gt;Node3</title>
<path fill="none" stroke="midnightblue" d="M79,-57.4179C79,-50.2164 79,-39.8962 79,-30.8632"/>
<polygon fill="midnightblue" stroke="midnightblue" points="82.5001,-30.7794 79,-20.7795 75.5001,-30.7795 82.5001,-30.7794"/>
</g>
<!-- Node4 -->
<g id="node4" class="node"><title>Node4</title>
<polygon fill="none" stroke="#bfbfbf" points="120.5,-0.5 120.5,-20.5 167.5,-20.5 167.5,-0.5 120.5,-0.5"/>
<text text-anchor="middle" x="144" y="-7.7" font-family="Helvetica,sans-Serif" font-size="11.00">cstdlib</text>
</g>
<!-- Node1&#45;&gt;Node4 -->
<g id="edge3" class="edge"><title>Node1&#45;&gt;Node4</title>
<path fill="none" stroke="midnightblue" d="M89.7334,-57.4179C99.3666,-49.2667 113.722,-37.1201 125.248,-27.3669"/>
<polygon fill="midnightblue" stroke="midnightblue" points="127.66,-29.9108 133.033,-20.7795 123.139,-24.5671 127.66,-29.9108"/>
</g>
</g>
</svg>
