<?xml version="1.0" encoding="UTF-8" standalone="no"?>
<!DOCTYPE svg PUBLIC "-//W3C//DTD SVG 1.1//EN"
 "http://www.w3.org/Graphics/SVG/1.1/DTD/svg11.dtd">
<!-- Generated by graphviz version 2.38.0 (20140413.2041)
 -->
<!-- Title: src/TH/BestListUpdatePolicy.h Pages: 1 -->
<svg width="348pt" height="155pt"
 viewBox="0.00 0.00 347.50 155.00" xmlns="http://www.w3.org/2000/svg" xmlns:xlink="http://www.w3.org/1999/xlink">
<g id="graph0" class="graph" transform="scale(1 1) rotate(0) translate(4 151)">
<title>src/TH/BestListUpdatePolicy.h</title>
<!-- Node1 -->
<g id="node1" class="node"><title>Node1</title>
<polygon fill="#bfbfbf" stroke="black" points="92.5,-126.5 92.5,-146.5 255.5,-146.5 255.5,-126.5 92.5,-126.5"/>
<text text-anchor="middle" x="174" y="-133.7" font-family="Helvetica,sans-Serif" font-size="11.00">src/TH/BestListUpdatePolicy.h</text>
</g>
<!-- Node2 -->
<g id="node2" class="node"><title>Node2</title>
<g id="a_node2"><a xlink:href="ConvergentBestListUpdatePolicy_8h.xhtml" target="_top" xlink:title="src/TH/ConvergentBestList\lUpdatePolicy.h">
<polygon fill="none" stroke="black" points="0,-57.5 0,-89.5 146,-89.5 146,-57.5 0,-57.5"/>
<text text-anchor="start" x="8" y="-76.7" font-family="Helvetica,sans-Serif" font-size="11.00">src/TH/ConvergentBestList</text>
<text text-anchor="middle" x="73" y="-64.7" font-family="Helvetica,sans-Serif" font-size="11.00">UpdatePolicy.h</text>
</a>
</g>
</g>
<!-- Node1&#45;&gt;Node2 -->
<g id="edge1" class="edge"><title>Node1&#45;&gt;Node2</title>
<path fill="none" stroke="midnightblue" d="M150.497,-121.305C134.802,-111.826 114.179,-99.3703 98.1529,-89.6914"/>
<polygon fill="midnightblue" stroke="midnightblue" points="148.728,-124.325 159.097,-126.499 152.347,-118.333 148.728,-124.325"/>
</g>
<!-- Node3 -->
<g id="node3" class="node"><title>Node3</title>
<g id="a_node3"><a xlink:href="THBuilder_8h.xhtml" target="_top" xlink:title="src/TH/THBuilder.h">
<polygon fill="none" stroke="black" points="68,-0.5 68,-20.5 178,-20.5 178,-0.5 68,-0.5"/>
<text text-anchor="middle" x="123" y="-7.7" font-family="Helvetica,sans-Serif" font-size="11.00">src/TH/THBuilder.h</text>
</a>
</g>
</g>
<!-- Node1&#45;&gt;Node3 -->
<g id="edge4" class="edge"><title>Node1&#45;&gt;Node3</title>
<path fill="none" stroke="midnightblue" d="M171.448,-116.49C168.783,-100.173 163.741,-76.3038 155,-57 148.785,-43.2761 138.262,-29.3823 130.989,-20.6219"/>
<polygon fill="midnightblue" stroke="midnightblue" points="167.993,-117.056 172.928,-126.431 174.917,-116.024 167.993,-117.056"/>
</g>
<!-- Node4 -->
<g id="node4" class="node"><title>Node4</title>
<g id="a_node4"><a xlink:href="DivergentBestListUpdatePolicy_8h.xhtml" target="_top" xlink:title="src/TH/DivergentBestList\lUpdatePolicy.h">
<polygon fill="none" stroke="black" points="202.5,-57.5 202.5,-89.5 339.5,-89.5 339.5,-57.5 202.5,-57.5"/>
<text text-anchor="start" x="210.5" y="-76.7" font-family="Helvetica,sans-Serif" font-size="11.00">src/TH/DivergentBestList</text>
<text text-anchor="middle" x="271" y="-64.7" font-family="Helvetica,sans-Serif" font-size="11.00">UpdatePolicy.h</text>
</a>
</g>
</g>
<!-- Node1&#45;&gt;Node4 -->
<g id="edge3" class="edge"><title>Node1&#45;&gt;Node4</title>
<path fill="none" stroke="midnightblue" d="M196.996,-121.039C212.015,-111.593 231.596,-99.2798 246.843,-89.6914"/>
<polygon fill="midnightblue" stroke="midnightblue" points="194.915,-118.213 188.313,-126.499 198.641,-124.139 194.915,-118.213"/>
</g>
<!-- Node2&#45;&gt;Node3 -->
<g id="edge2" class="edge"><title>Node2&#45;&gt;Node3</title>
<path fill="none" stroke="midnightblue" d="M91.7256,-49.6547C100.022,-39.5332 109.304,-28.2091 115.585,-20.5459"/>
<polygon fill="midnightblue" stroke="midnightblue" points="88.992,-47.4686 85.3596,-57.4213 94.4057,-51.9062 88.992,-47.4686"/>
</g>
</g>
</svg>
