<?xml version="1.0" encoding="UTF-8" standalone="no"?>
<!DOCTYPE svg PUBLIC "-//W3C//DTD SVG 1.1//EN"
 "http://www.w3.org/Graphics/SVG/1.1/DTD/svg11.dtd">
<!-- Generated by graphviz version 2.38.0 (20140413.2041)
 -->
<!-- Title: THBuilder::getFitnessPolicy Pages: 1 -->
<svg width="665pt" height="98pt"
 viewBox="0.00 0.00 665.00 97.74" xmlns="http://www.w3.org/2000/svg" xmlns:xlink="http://www.w3.org/1999/xlink">
<g id="graph0" class="graph" transform="scale(1 1) rotate(0) translate(4 93.7441)">
<title>THBuilder::getFitnessPolicy</title>
<!-- Node1 -->
<g id="node1" class="node"><title>Node1</title>
<polygon fill="#bfbfbf" stroke="black" points="0,-22.2441 0,-42.2441 149,-42.2441 149,-22.2441 0,-22.2441"/>
<text text-anchor="middle" x="74.5" y="-29.4441" font-family="Helvetica,sans-Serif" font-size="11.00">THBuilder::getFitnessPolicy</text>
</g>
<!-- Node2 -->
<g id="node2" class="node"><title>Node2</title>
<g id="a_node2"><a xlink:href="classTHBuilder.xhtml#af3eb76a92cb3c0caf8452cdd9e26bac7" target="_top" xlink:title="Get the ConvergenceControlPolicy configured. ">
<polygon fill="none" stroke="black" points="185,-16.2441 185,-48.2441 336,-48.2441 336,-16.2441 185,-16.2441"/>
<text text-anchor="start" x="193" y="-35.4441" font-family="Helvetica,sans-Serif" font-size="11.00">THBuilder::getConvergence</text>
<text text-anchor="middle" x="260.5" y="-23.4441" font-family="Helvetica,sans-Serif" font-size="11.00">ControlPolicy</text>
</a>
</g>
</g>
<!-- Node1&#45;&gt;Node2 -->
<g id="edge1" class="edge"><title>Node1&#45;&gt;Node2</title>
<path fill="none" stroke="midnightblue" d="M159.063,-32.2441C167.678,-32.2441 176.392,-32.2441 184.9,-32.2441"/>
<polygon fill="midnightblue" stroke="midnightblue" points="159.015,-28.7442 149.015,-32.2441 159.015,-35.7442 159.015,-28.7442"/>
</g>
<!-- Node3 -->
<g id="node3" class="node"><title>Node3</title>
<g id="a_node3"><a xlink:href="classTHBuilder_1_1SearchGroup.xhtml#a794cf5448380674b51022b5d65a240e2" target="_top" xlink:title="Constructor to create the internal Search Group. ">
<polygon fill="none" stroke="black" points="372,-57.2441 372,-89.2441 508,-89.2441 508,-57.2441 372,-57.2441"/>
<text text-anchor="start" x="380" y="-76.4441" font-family="Helvetica,sans-Serif" font-size="11.00">THBuilder::SearchGroup</text>
<text text-anchor="middle" x="440" y="-64.4441" font-family="Helvetica,sans-Serif" font-size="11.00">::SearchGroup</text>
</a>
</g>
</g>
<!-- Node1&#45;&gt;Node3 -->
<g id="edge5" class="edge"><title>Node1&#45;&gt;Node3</title>
<path fill="none" stroke="midnightblue" d="M122.228,-44.6624C141.529,-49.3332 164.211,-54.2363 185,-57.2441 247.97,-66.3548 320.466,-70.2785 371.847,-71.9679"/>
<polygon fill="midnightblue" stroke="midnightblue" points="123.019,-41.2525 112.471,-42.2523 121.34,-48.0483 123.019,-41.2525"/>
</g>
<!-- Node4 -->
<g id="node4" class="node"><title>Node4</title>
<g id="a_node4"><a xlink:href="classTHBuilder_1_1THImpl.xhtml#a0d6e2fd43f50755ff2738e924f66690d" target="_top" xlink:title="THBuilder::THImpl::\lTHImpl">
<polygon fill="none" stroke="black" points="544,-12.2441 544,-44.2441 657,-44.2441 657,-12.2441 544,-12.2441"/>
<text text-anchor="start" x="552" y="-31.4441" font-family="Helvetica,sans-Serif" font-size="11.00">THBuilder::THImpl::</text>
<text text-anchor="middle" x="600.5" y="-19.4441" font-family="Helvetica,sans-Serif" font-size="11.00">THImpl</text>
</a>
</g>
</g>
<!-- Node1&#45;&gt;Node4 -->
<g id="edge6" class="edge"><title>Node1&#45;&gt;Node4</title>
<path fill="none" stroke="midnightblue" d="M118.444,-19.5981C138.475,-14.3343 162.754,-8.849 185,-6.24412 312.939,8.73669 464.299,-7.9289 543.998,-19.351"/>
<polygon fill="midnightblue" stroke="midnightblue" points="117.428,-16.2471 108.685,-22.2322 119.252,-23.0052 117.428,-16.2471"/>
</g>
<!-- Node2&#45;&gt;Node3 -->
<g id="edge2" class="edge"><title>Node2&#45;&gt;Node3</title>
<path fill="none" stroke="midnightblue" d="M340.8,-50.5614C351.214,-52.9668 361.804,-55.4129 371.986,-57.7649"/>
<polygon fill="midnightblue" stroke="midnightblue" points="341.42,-47.1124 330.889,-48.2719 339.844,-53.9328 341.42,-47.1124"/>
</g>
<!-- Node2&#45;&gt;Node4 -->
<g id="edge4" class="edge"><title>Node2&#45;&gt;Node4</title>
<path fill="none" stroke="midnightblue" d="M346.233,-31.2414C408.123,-30.5089 490.275,-29.5367 543.99,-28.901"/>
<polygon fill="midnightblue" stroke="midnightblue" points="346.052,-27.7432 336.094,-31.3614 346.135,-34.7427 346.052,-27.7432"/>
</g>
<!-- Node3&#45;&gt;Node4 -->
<g id="edge3" class="edge"><title>Node3&#45;&gt;Node4</title>
<path fill="none" stroke="midnightblue" d="M507.408,-54.3901C519.559,-50.9402 532.124,-47.3729 543.919,-44.0242"/>
<polygon fill="midnightblue" stroke="midnightblue" points="506.438,-51.027 497.774,-57.1252 508.35,-57.7609 506.438,-51.027"/>
</g>
</g>
</svg>
