<?xml version="1.0" encoding="UTF-8" standalone="no"?>
<!DOCTYPE svg PUBLIC "-//W3C//DTD SVG 1.1//EN"
 "http://www.w3.org/Graphics/SVG/1.1/DTD/svg11.dtd">
<!-- Generated by graphviz version 2.38.0 (20140413.2041)
 -->
<!-- Title: THBuilder::getMaxNumberEvaluations Pages: 1 -->
<svg width="373pt" height="80pt"
 viewBox="0.00 0.00 373.00 80.00" xmlns="http://www.w3.org/2000/svg" xmlns:xlink="http://www.w3.org/1999/xlink">
<g id="graph0" class="graph" transform="scale(1 1) rotate(0) translate(4 76)">
<title>THBuilder::getMaxNumberEvaluations</title>
<!-- Node1 -->
<g id="node1" class="node"><title>Node1</title>
<polygon fill="#bfbfbf" stroke="black" points="0,-22.5 0,-42.5 201,-42.5 201,-22.5 0,-22.5"/>
<text text-anchor="middle" x="100.5" y="-29.7" font-family="Helvetica,sans-Serif" font-size="11.00">THBuilder::getMaxNumberEvaluations</text>
</g>
<!-- Node2 -->
<g id="node2" class="node"><title>Node2</title>
<g id="a_node2"><a xlink:href="classTHBuilder_1_1THImpl.xhtml#a0d6e2fd43f50755ff2738e924f66690d" target="_top" xlink:title="THBuilder::THImpl::\lTHImpl">
<polygon fill="none" stroke="black" points="244.5,-39.5 244.5,-71.5 357.5,-71.5 357.5,-39.5 244.5,-39.5"/>
<text text-anchor="start" x="252.5" y="-58.7" font-family="Helvetica,sans-Serif" font-size="11.00">THBuilder::THImpl::</text>
<text text-anchor="middle" x="301" y="-46.7" font-family="Helvetica,sans-Serif" font-size="11.00">THImpl</text>
</a>
</g>
</g>
<!-- Node1&#45;&gt;Node2 -->
<g id="edge1" class="edge"><title>Node1&#45;&gt;Node2</title>
<path fill="none" stroke="midnightblue" d="M198.339,-43.7207C214.136,-45.551 230.013,-47.3907 244.37,-49.0543"/>
<polygon fill="midnightblue" stroke="midnightblue" points="198.324,-40.1956 187.988,-42.5212 197.518,-47.149 198.324,-40.1956"/>
</g>
<!-- Node3 -->
<g id="node3" class="node"><title>Node3</title>
<g id="a_node3"><a xlink:href="classTHBuilder_1_1THImpl.xhtml#a943301db5154fd7b672119b5c9917303" target="_top" xlink:title="Starts the Treasure Hunt mechanisms. ">
<polygon fill="none" stroke="black" points="237,-0.5 237,-20.5 365,-20.5 365,-0.5 237,-0.5"/>
<text text-anchor="middle" x="301" y="-7.7" font-family="Helvetica,sans-Serif" font-size="11.00">THBuilder::THImpl::run</text>
</a>
</g>
</g>
<!-- Node1&#45;&gt;Node3 -->
<g id="edge2" class="edge"><title>Node1&#45;&gt;Node3</title>
<path fill="none" stroke="midnightblue" d="M201.787,-21.385C213.752,-20.0589 225.697,-18.7351 236.926,-17.4905"/>
<polygon fill="midnightblue" stroke="midnightblue" points="201.301,-17.9174 191.747,-22.4978 202.072,-24.8748 201.301,-17.9174"/>
</g>
</g>
</svg>
