<?xml version="1.0" encoding="UTF-8" standalone="no"?>
<!DOCTYPE svg PUBLIC "-//W3C//DTD SVG 1.1//EN"
 "http://www.w3.org/Graphics/SVG/1.1/DTD/svg11.dtd">
<!-- Generated by graphviz version 2.38.0 (20140413.2041)
 -->
<!-- Title: HillClimbing::startup Pages: 1 -->
<svg width="301pt" height="224pt"
 viewBox="0.00 0.00 301.00 224.00" xmlns="http://www.w3.org/2000/svg" xmlns:xlink="http://www.w3.org/1999/xlink">
<g id="graph0" class="graph" transform="scale(1 1) rotate(0) translate(4 220)">
<title>HillClimbing::startup</title>
<!-- Node1 -->
<g id="node1" class="node"><title>Node1</title>
<polygon fill="#bfbfbf" stroke="black" points="0,-97.5 0,-117.5 113,-117.5 113,-97.5 0,-97.5"/>
<text text-anchor="middle" x="56.5" y="-104.7" font-family="Helvetica,sans-Serif" font-size="11.00">HillClimbing::startup</text>
</g>
<!-- Node2 -->
<g id="node2" class="node"><title>Node2</title>
<g id="a_node2"><a xlink:href="classSearch.xhtml#ab83e643822f70e74ec6ee7e81512c886" target="_top" xlink:title="Search::getPopulationSize">
<polygon fill="none" stroke="black" points="149,-195.5 149,-215.5 293,-215.5 293,-195.5 149,-195.5"/>
<text text-anchor="middle" x="221" y="-202.7" font-family="Helvetica,sans-Serif" font-size="11.00">Search::getPopulationSize</text>
</a>
</g>
</g>
<!-- Node1&#45;&gt;Node2 -->
<g id="edge1" class="edge"><title>Node1&#45;&gt;Node2</title>
<path fill="none" stroke="midnightblue" d="M66.2989,-117.622C81.4792,-134.449 114.314,-168.139 149,-186.5 152.912,-188.571 157.067,-190.429 161.328,-192.095"/>
<polygon fill="midnightblue" stroke="midnightblue" points="160.177,-195.4 170.771,-195.441 162.515,-188.802 160.177,-195.4"/>
</g>
<!-- Node3 -->
<g id="node3" class="node"><title>Node3</title>
<g id="a_node3"><a xlink:href="classSearch.xhtml#a5997e43c8ba27480819f3e6358f984f4" target="_top" xlink:title="Search::getPopulation">
<polygon fill="none" stroke="black" points="159.5,-156.5 159.5,-176.5 282.5,-176.5 282.5,-156.5 159.5,-156.5"/>
<text text-anchor="middle" x="221" y="-163.7" font-family="Helvetica,sans-Serif" font-size="11.00">Search::getPopulation</text>
</a>
</g>
</g>
<!-- Node1&#45;&gt;Node3 -->
<g id="edge2" class="edge"><title>Node1&#45;&gt;Node3</title>
<path fill="none" stroke="midnightblue" d="M78.2192,-117.629C96.5344,-126.323 124.128,-138.791 149,-147.5 155.311,-149.71 162.014,-151.811 168.684,-153.756"/>
<polygon fill="midnightblue" stroke="midnightblue" points="167.807,-157.145 178.382,-156.487 169.705,-150.407 167.807,-157.145"/>
</g>
<!-- Node4 -->
<g id="node4" class="node"><title>Node4</title>
<g id="a_node4"><a xlink:href="classSearch.xhtml#a39d6e69d2b1573ba4564819eeee1cb4e" target="_top" xlink:title="Search::getFitnessPolicy">
<polygon fill="none" stroke="black" points="153.5,-117.5 153.5,-137.5 288.5,-137.5 288.5,-117.5 153.5,-117.5"/>
<text text-anchor="middle" x="221" y="-124.7" font-family="Helvetica,sans-Serif" font-size="11.00">Search::getFitnessPolicy</text>
</a>
</g>
</g>
<!-- Node1&#45;&gt;Node4 -->
<g id="edge3" class="edge"><title>Node1&#45;&gt;Node4</title>
<path fill="none" stroke="midnightblue" d="M113.423,-114.383C123.063,-115.569 133.231,-116.821 143.306,-118.061"/>
<polygon fill="midnightblue" stroke="midnightblue" points="142.974,-121.546 153.326,-119.294 143.829,-114.599 142.974,-121.546"/>
</g>
<!-- Node5 -->
<g id="node5" class="node"><title>Node5</title>
<g id="a_node5"><a xlink:href="classTHUtil.xhtml#ac88c9d3a82da43e5afc2cb063d2579ec" target="_top" xlink:title="Get a random seed. ">
<polygon fill="none" stroke="black" points="153.5,-78.5 153.5,-98.5 288.5,-98.5 288.5,-78.5 153.5,-78.5"/>
<text text-anchor="middle" x="221" y="-85.7" font-family="Helvetica,sans-Serif" font-size="11.00">THUtil::getRandomSeed</text>
</a>
</g>
</g>
<!-- Node1&#45;&gt;Node5 -->
<g id="edge4" class="edge"><title>Node1&#45;&gt;Node5</title>
<path fill="none" stroke="midnightblue" d="M113.423,-100.961C123.063,-99.8342 133.231,-98.6453 143.306,-97.4673"/>
<polygon fill="midnightblue" stroke="midnightblue" points="143.8,-100.933 153.326,-96.2957 142.987,-93.9808 143.8,-100.933"/>
</g>
<!-- Node6 -->
<g id="node6" class="node"><title>Node6</title>
<g id="a_node6"><a xlink:href="classSearch.xhtml#ad2d5be608164b67b1fb055b0162f4e88" target="_top" xlink:title="Search::getSearchSpace">
<polygon fill="none" stroke="black" points="152.5,-39.5 152.5,-59.5 289.5,-59.5 289.5,-39.5 152.5,-39.5"/>
<text text-anchor="middle" x="221" y="-46.7" font-family="Helvetica,sans-Serif" font-size="11.00">Search::getSearchSpace</text>
</a>
</g>
</g>
<!-- Node1&#45;&gt;Node6 -->
<g id="edge5" class="edge"><title>Node1&#45;&gt;Node6</title>
<path fill="none" stroke="midnightblue" d="M79.7736,-97.3742C98.1262,-89.2443 124.95,-77.8479 149,-69.5 156.15,-67.0181 163.783,-64.6162 171.295,-62.3896"/>
<polygon fill="midnightblue" stroke="midnightblue" points="172.413,-65.7097 181.049,-59.5716 170.47,-58.9847 172.413,-65.7097"/>
</g>
<!-- Node7 -->
<g id="node7" class="node"><title>Node7</title>
<g id="a_node7"><a xlink:href="classFitnessPolicy.xhtml#acaf9a99792b12c78eaabc0acadd1de9f" target="_top" xlink:title="Check if the first Solution is better than the second Solution. ">
<polygon fill="none" stroke="black" points="151,-0.5 151,-20.5 291,-20.5 291,-0.5 151,-0.5"/>
<text text-anchor="middle" x="221" y="-7.7" font-family="Helvetica,sans-Serif" font-size="11.00">FitnessPolicy::firstIsBetter</text>
</a>
</g>
</g>
<!-- Node1&#45;&gt;Node7 -->
<g id="edge6" class="edge"><title>Node1&#45;&gt;Node7</title>
<path fill="none" stroke="midnightblue" d="M66.6279,-97.4311C82.035,-81.032 114.874,-48.5741 149,-30.5 153.62,-28.0529 158.573,-25.8776 163.634,-23.9497"/>
<polygon fill="midnightblue" stroke="midnightblue" points="165.146,-27.1298 173.443,-20.5408 162.848,-20.5178 165.146,-27.1298"/>
</g>
</g>
</svg>
