<?xml version="1.0" encoding="UTF-8" standalone="no"?>
<!DOCTYPE svg PUBLIC "-//W3C//DTD SVG 1.1//EN"
 "http://www.w3.org/Graphics/SVG/1.1/DTD/svg11.dtd">
<!-- Generated by graphviz version 2.38.0 (20140413.2041)
 -->
<!-- Title: Partition::getEndPoint Pages: 1 -->
<svg width="612pt" height="246pt"
 viewBox="0.00 0.00 612.00 246.00" xmlns="http://www.w3.org/2000/svg" xmlns:xlink="http://www.w3.org/1999/xlink">
<g id="graph0" class="graph" transform="scale(1 1) rotate(0) translate(4 242)">
<title>Partition::getEndPoint</title>
<!-- Node1 -->
<g id="node1" class="node"><title>Node1</title>
<polygon fill="#bfbfbf" stroke="black" points="0,-119.5 0,-139.5 122,-139.5 122,-119.5 0,-119.5"/>
<text text-anchor="middle" x="61" y="-126.7" font-family="Helvetica,sans-Serif" font-size="11.00">Partition::getEndPoint</text>
</g>
<!-- Node2 -->
<g id="node2" class="node"><title>Node2</title>
<g id="a_node2"><a xlink:href="classHillClimbing.xhtml#a7c67b745880b93be26eb4fa113f0e37f" target="_top" xlink:title="Perform the actual optimization only until the next improvement. ">
<polygon fill="none" stroke="black" points="159,-217.5 159,-237.5 259,-237.5 259,-217.5 159,-217.5"/>
<text text-anchor="middle" x="209" y="-224.7" font-family="Helvetica,sans-Serif" font-size="11.00">HillClimbing::next</text>
</a>
</g>
</g>
<!-- Node1&#45;&gt;Node2 -->
<g id="edge1" class="edge"><title>Node1&#45;&gt;Node2</title>
<path fill="none" stroke="midnightblue" d="M79.6265,-147.042C97.9368,-164.497 128.051,-191.119 158,-208.5 163.863,-211.903 170.448,-214.91 176.866,-217.47"/>
<polygon fill="midnightblue" stroke="midnightblue" points="81.7036,-144.181 72.0873,-139.734 76.8314,-149.207 81.7036,-144.181"/>
</g>
<!-- Node3 -->
<g id="node3" class="node"><title>Node3</title>
<g id="a_node3"><a xlink:href="classPSO.xhtml#a25e15ab34186e7c52a4789108ae24ece" target="_top" xlink:title="Perform the actual optimization only until the next improvement. ">
<polygon fill="none" stroke="black" points="176,-178.5 176,-198.5 242,-198.5 242,-178.5 176,-178.5"/>
<text text-anchor="middle" x="209" y="-185.7" font-family="Helvetica,sans-Serif" font-size="11.00">PSO::next</text>
</a>
</g>
</g>
<!-- Node1&#45;&gt;Node3 -->
<g id="edge2" class="edge"><title>Node1&#45;&gt;Node3</title>
<path fill="none" stroke="midnightblue" d="M96.1005,-143.28C122.746,-154.048 159.158,-168.763 183.112,-178.442"/>
<polygon fill="midnightblue" stroke="midnightblue" points="97.3499,-140.01 86.7669,-139.509 94.7271,-146.5 97.3499,-140.01"/>
</g>
<!-- Node4 -->
<g id="node4" class="node"><title>Node4</title>
<g id="a_node4"><a xlink:href="classBetaRelocationStrategyPolicy.xhtml#aeadaa254d012725ab1a67419d9cb37ef" target="_top" xlink:title="This method implements the policy to relocate TH instance&#39;s population at every TH instance&#39;s iterati...">
<polygon fill="none" stroke="black" points="296,-100.5 296,-132.5 455,-132.5 455,-100.5 296,-100.5"/>
<text text-anchor="start" x="304" y="-119.7" font-family="Helvetica,sans-Serif" font-size="11.00">BetaRelocationStrategyPolicy</text>
<text text-anchor="middle" x="375.5" y="-107.7" font-family="Helvetica,sans-Serif" font-size="11.00">::apply</text>
</a>
</g>
</g>
<!-- Node1&#45;&gt;Node4 -->
<g id="edge3" class="edge"><title>Node1&#45;&gt;Node4</title>
<path fill="none" stroke="midnightblue" d="M132.28,-130.316C140.942,-130.392 149.674,-130.457 158,-130.5 203.333,-130.736 214.751,-133.256 260,-130.5 271.594,-129.794 283.812,-128.689 295.775,-127.402"/>
<polygon fill="midnightblue" stroke="midnightblue" points="132.203,-126.816 122.171,-130.223 132.138,-133.815 132.203,-126.816"/>
</g>
<!-- Node5 -->
<g id="node5" class="node"><title>Node5</title>
<g id="a_node5"><a xlink:href="classPartition.xhtml#a45b2a3119be4fe1b735547044df96f74" target="_top" xlink:title="This constructor creates a Partition as a copy from another Partition. ">
<polygon fill="none" stroke="black" points="158,-100.5 158,-120.5 260,-120.5 260,-100.5 158,-100.5"/>
<text text-anchor="middle" x="209" y="-107.7" font-family="Helvetica,sans-Serif" font-size="11.00">Partition::Partition</text>
</a>
</g>
</g>
<!-- Node1&#45;&gt;Node5 -->
<g id="edge4" class="edge"><title>Node1&#45;&gt;Node5</title>
<path fill="none" stroke="midnightblue" d="M132.248,-120.358C140.83,-119.241 149.461,-118.118 157.669,-117.05"/>
<polygon fill="midnightblue" stroke="midnightblue" points="131.691,-116.901 122.227,-121.662 132.595,-123.842 131.691,-116.901"/>
</g>
<!-- Node6 -->
<g id="node6" class="node"><title>Node6</title>
<g id="a_node6"><a xlink:href="classRegion.xhtml#a762d4587205ba6bed49660ae1359a4a6" target="_top" xlink:title="Debug the current Region instance. ">
<polygon fill="none" stroke="black" points="170,-61.5 170,-81.5 248,-81.5 248,-61.5 170,-61.5"/>
<text text-anchor="middle" x="209" y="-68.7" font-family="Helvetica,sans-Serif" font-size="11.00">Region::print</text>
</a>
</g>
</g>
<!-- Node1&#45;&gt;Node6 -->
<g id="edge5" class="edge"><title>Node1&#45;&gt;Node6</title>
<path fill="none" stroke="midnightblue" d="M95.7981,-115.551C114.158,-108.029 137.28,-98.6444 158,-90.5 165.519,-87.5445 173.702,-84.4035 181.23,-81.5443"/>
<polygon fill="midnightblue" stroke="midnightblue" points="94.3239,-112.373 86.4023,-119.408 96.9823,-118.848 94.3239,-112.373"/>
</g>
<!-- Node7 -->
<g id="node7" class="node"><title>Node7</title>
<g id="a_node7"><a xlink:href="classSolution.xhtml#a84c713b707a570add53e85a28196bb3e" target="_top" xlink:title="Reset the position of the current Solution in the search space. ">
<polygon fill="none" stroke="black" points="166,-22.5 166,-42.5 252,-42.5 252,-22.5 166,-22.5"/>
<text text-anchor="middle" x="209" y="-29.7" font-family="Helvetica,sans-Serif" font-size="11.00">Solution::reset</text>
</a>
</g>
</g>
<!-- Node1&#45;&gt;Node7 -->
<g id="edge6" class="edge"><title>Node1&#45;&gt;Node7</title>
<path fill="none" stroke="midnightblue" d="M79.6678,-112.196C98.0104,-94.9748 128.149,-68.6999 158,-51.5 163.874,-48.1156 170.463,-45.1165 176.883,-42.558"/>
<polygon fill="midnightblue" stroke="midnightblue" points="76.931,-109.969 72.1136,-119.406 81.7641,-115.033 76.931,-109.969"/>
</g>
<!-- Node7&#45;&gt;Node4 -->
<g id="edge7" class="edge"><title>Node7&#45;&gt;Node4</title>
<path fill="none" stroke="midnightblue" d="M250.457,-46.5935C253.746,-48.1231 256.968,-49.7613 260,-51.5 277.823,-61.72 278.528,-69.6902 296,-80.5 307.985,-87.9152 321.753,-94.7386 334.378,-100.405"/>
<polygon fill="midnightblue" stroke="midnightblue" points="251.676,-43.3081 241.106,-42.5769 248.913,-49.7398 251.676,-43.3081"/>
</g>
<!-- Node8 -->
<g id="node8" class="node"><title>Node8</title>
<g id="a_node8"><a xlink:href="classTHBuilder_1_1SearchGroup.xhtml#aafebb836a1ec681213319a024a254ca8" target="_top" xlink:title="Reset the location of the population individuals and calculate the fitness. ">
<polygon fill="none" stroke="black" points="307.5,-39.5 307.5,-71.5 443.5,-71.5 443.5,-39.5 307.5,-39.5"/>
<text text-anchor="start" x="315.5" y="-58.7" font-family="Helvetica,sans-Serif" font-size="11.00">THBuilder::SearchGroup</text>
<text text-anchor="middle" x="375.5" y="-46.7" font-family="Helvetica,sans-Serif" font-size="11.00">::resetPopulation</text>
</a>
</g>
</g>
<!-- Node7&#45;&gt;Node8 -->
<g id="edge8" class="edge"><title>Node7&#45;&gt;Node8</title>
<path fill="none" stroke="midnightblue" d="M262.484,-39.8381C276.759,-41.8341 292.418,-44.0235 307.384,-46.116"/>
<polygon fill="midnightblue" stroke="midnightblue" points="262.751,-36.3416 252.363,-38.4231 261.782,-43.2741 262.751,-36.3416"/>
</g>
<!-- Node10 -->
<g id="node10" class="node"><title>Node10</title>
<g id="a_node10"><a xlink:href="classTHBuilder_1_1THImpl.xhtml#a943301db5154fd7b672119b5c9917303" target="_top" xlink:title="Starts the Treasure Hunt mechanisms. ">
<polygon fill="none" stroke="black" points="311.5,-0.5 311.5,-20.5 439.5,-20.5 439.5,-0.5 311.5,-0.5"/>
<text text-anchor="middle" x="375.5" y="-7.7" font-family="Helvetica,sans-Serif" font-size="11.00">THBuilder::THImpl::run</text>
</a>
</g>
</g>
<!-- Node7&#45;&gt;Node10 -->
<g id="edge10" class="edge"><title>Node7&#45;&gt;Node10</title>
<path fill="none" stroke="midnightblue" d="M262.358,-25.4977C277.977,-23.4088 295.261,-21.0973 311.486,-18.9274"/>
<polygon fill="midnightblue" stroke="midnightblue" points="261.811,-22.0397 252.363,-26.8345 262.739,-28.9779 261.811,-22.0397"/>
</g>
<!-- Node9 -->
<g id="node9" class="node"><title>Node9</title>
<g id="a_node9"><a xlink:href="classTHBuilder_1_1THImpl.xhtml#a0d6e2fd43f50755ff2738e924f66690d" target="_top" xlink:title="THBuilder::THImpl::\lTHImpl">
<polygon fill="none" stroke="black" points="491,-39.5 491,-71.5 604,-71.5 604,-39.5 491,-39.5"/>
<text text-anchor="start" x="499" y="-58.7" font-family="Helvetica,sans-Serif" font-size="11.00">THBuilder::THImpl::</text>
<text text-anchor="middle" x="547.5" y="-46.7" font-family="Helvetica,sans-Serif" font-size="11.00">THImpl</text>
</a>
</g>
</g>
<!-- Node8&#45;&gt;Node9 -->
<g id="edge9" class="edge"><title>Node8&#45;&gt;Node9</title>
<path fill="none" stroke="midnightblue" d="M454.017,-55.5C466.401,-55.5 478.999,-55.5 490.747,-55.5"/>
<polygon fill="midnightblue" stroke="midnightblue" points="453.689,-52.0001 443.689,-55.5 453.688,-59.0001 453.689,-52.0001"/>
</g>
</g>
</svg>
