<?xml version="1.0" encoding="UTF-8" standalone="no"?>
<!DOCTYPE svg PUBLIC "-//W3C//DTD SVG 1.1//EN"
 "http://www.w3.org/Graphics/SVG/1.1/DTD/svg11.dtd">
<!-- Generated by graphviz version 2.38.0 (20140413.2041)
 -->
<!-- Title: THTree::getCurrentSize Pages: 1 -->
<svg width="305pt" height="80pt"
 viewBox="0.00 0.00 305.00 80.00" xmlns="http://www.w3.org/2000/svg" xmlns:xlink="http://www.w3.org/1999/xlink">
<g id="graph0" class="graph" transform="scale(1 1) rotate(0) translate(4 76)">
<title>THTree::getCurrentSize</title>
<!-- Node1 -->
<g id="node1" class="node"><title>Node1</title>
<polygon fill="#bfbfbf" stroke="black" points="0,-22.5 0,-42.5 133,-42.5 133,-22.5 0,-22.5"/>
<text text-anchor="middle" x="66.5" y="-29.7" font-family="Helvetica,sans-Serif" font-size="11.00">THTree::getCurrentSize</text>
</g>
<!-- Node2 -->
<g id="node2" class="node"><title>Node2</title>
<g id="a_node2"><a xlink:href="classTHBuilder_1_1THImpl.xhtml#a0d6e2fd43f50755ff2738e924f66690d" target="_top" xlink:title="THBuilder::THImpl::\lTHImpl">
<polygon fill="none" stroke="black" points="176.5,-39.5 176.5,-71.5 289.5,-71.5 289.5,-39.5 176.5,-39.5"/>
<text text-anchor="start" x="184.5" y="-58.7" font-family="Helvetica,sans-Serif" font-size="11.00">THBuilder::THImpl::</text>
<text text-anchor="middle" x="233" y="-46.7" font-family="Helvetica,sans-Serif" font-size="11.00">THImpl</text>
</a>
</g>
</g>
<!-- Node1&#45;&gt;Node2 -->
<g id="edge1" class="edge"><title>Node1&#45;&gt;Node2</title>
<path fill="none" stroke="midnightblue" d="M143.542,-43.132C154.59,-44.6768 165.789,-46.2426 176.335,-47.717"/>
<polygon fill="midnightblue" stroke="midnightblue" points="143.849,-39.641 133.461,-41.7225 142.88,-46.5735 143.849,-39.641"/>
</g>
<!-- Node3 -->
<g id="node3" class="node"><title>Node3</title>
<g id="a_node3"><a xlink:href="classTHBuilder_1_1THImpl.xhtml#a943301db5154fd7b672119b5c9917303" target="_top" xlink:title="Starts the Treasure Hunt mechanisms. ">
<polygon fill="none" stroke="black" points="169,-0.5 169,-20.5 297,-20.5 297,-0.5 169,-0.5"/>
<text text-anchor="middle" x="233" y="-7.7" font-family="Helvetica,sans-Serif" font-size="11.00">THBuilder::THImpl::run</text>
</a>
</g>
</g>
<!-- Node1&#45;&gt;Node3 -->
<g id="edge2" class="edge"><title>Node1&#45;&gt;Node3</title>
<path fill="none" stroke="midnightblue" d="M143.427,-22.3456C151.972,-21.2029 160.608,-20.0479 168.964,-18.9303"/>
<polygon fill="midnightblue" stroke="midnightblue" points="142.908,-18.8837 133.461,-23.6785 143.836,-25.822 142.908,-18.8837"/>
</g>
</g>
</svg>
