<?xml version="1.0" encoding="UTF-8" standalone="no"?>
<!DOCTYPE svg PUBLIC "-//W3C//DTD SVG 1.1//EN"
 "http://www.w3.org/Graphics/SVG/1.1/DTD/svg11.dtd">
<!-- Generated by graphviz version 2.38.0 (20140413.2041)
 -->
<!-- Title: RosenbrockFitnessPolicy::apply Pages: 1 -->
<svg width="322pt" height="68pt"
 viewBox="0.00 0.00 322.00 68.00" xmlns="http://www.w3.org/2000/svg" xmlns:xlink="http://www.w3.org/1999/xlink">
<g id="graph0" class="graph" transform="scale(1 1) rotate(0) translate(4 64)">
<title>RosenbrockFitnessPolicy::apply</title>
<!-- Node1 -->
<g id="node1" class="node"><title>Node1</title>
<polygon fill="#bfbfbf" stroke="black" points="0,-13.5 0,-45.5 137,-45.5 137,-13.5 0,-13.5"/>
<text text-anchor="start" x="8" y="-32.7" font-family="Helvetica,sans-Serif" font-size="11.00">RosenbrockFitnessPolicy</text>
<text text-anchor="middle" x="68.5" y="-20.7" font-family="Helvetica,sans-Serif" font-size="11.00">::apply</text>
</g>
<!-- Node2 -->
<g id="node2" class="node"><title>Node2</title>
<g id="a_node2"><a xlink:href="classSolution.xhtml#ad5b8c8ce272efaada80e93b0e097d1cd" target="_top" xlink:title="Get the number of dimensions of this Solution instance. ">
<polygon fill="none" stroke="black" points="173,-39.5 173,-59.5 314,-59.5 314,-39.5 173,-39.5"/>
<text text-anchor="middle" x="243.5" y="-46.7" font-family="Helvetica,sans-Serif" font-size="11.00">Solution::getNDimensions</text>
</a>
</g>
</g>
<!-- Node1&#45;&gt;Node2 -->
<g id="edge1" class="edge"><title>Node1&#45;&gt;Node2</title>
<path fill="none" stroke="midnightblue" d="M137.378,-37.3471C145.746,-38.3146 154.359,-39.3103 162.882,-40.2956"/>
<polygon fill="midnightblue" stroke="midnightblue" points="162.491,-43.7736 172.827,-41.4453 163.295,-36.8199 162.491,-43.7736"/>
</g>
<!-- Node3 -->
<g id="node3" class="node"><title>Node3</title>
<g id="a_node3"><a xlink:href="classSolution.xhtml#a6c38d7e27c91077d67460a62aed71e06" target="_top" xlink:title="Assigns the values of the buffer received to the current Fitness instance. ">
<polygon fill="none" stroke="black" points="188.5,-0.5 188.5,-20.5 298.5,-20.5 298.5,-0.5 188.5,-0.5"/>
<text text-anchor="middle" x="243.5" y="-7.7" font-family="Helvetica,sans-Serif" font-size="11.00">Solution::setFitness</text>
</a>
</g>
</g>
<!-- Node1&#45;&gt;Node3 -->
<g id="edge2" class="edge"><title>Node1&#45;&gt;Node3</title>
<path fill="none" stroke="midnightblue" d="M137.378,-22.0452C150.88,-20.5623 165.018,-19.0095 178.39,-17.541"/>
<polygon fill="midnightblue" stroke="midnightblue" points="178.885,-21.0078 188.443,-16.4369 178.12,-14.0496 178.885,-21.0078"/>
</g>
</g>
</svg>
