<?xml version="1.0" encoding="UTF-8" standalone="no"?>
<!DOCTYPE svg PUBLIC "-//W3C//DTD SVG 1.1//EN"
 "http://www.w3.org/Graphics/SVG/1.1/DTD/svg11.dtd">
<!-- Generated by graphviz version 2.38.0 (20140413.2041)
 -->
<!-- Title: Search::getBestIndividual Pages: 1 -->
<!--zoomable 129 -->
<svg id="main" version="1.1" xmlns="http://www.w3.org/2000/svg" xmlns:xlink="http://www.w3.org/1999/xlink" xml:space="preserve" onload="init(evt)">
<style type="text/css"><![CDATA[
.edge:hover path { stroke: red; }
.edge:hover polygon { stroke: red; fill: red; }
]]></style>
<script type="text/javascript"><![CDATA[
var edges = document.getElementsByTagName('g');
if (edges && edges.length) {
  for (var i=0;i<edges.length;i++) {
    if (edges[i].id.substr(0,4)=='edge') {
      edges[i].setAttribute('class','edge');
    }
  }
}
]]></script>
        <defs>
                <circle id="rim" cx="0" cy="0" r="7"/>
                <circle id="rim2" cx="0" cy="0" r="3.5"/>
                <g id="zoomPlus">
                        <use xlink:href="#rim" fill="#404040">
                                <set attributeName="fill" to="#808080" begin="zoomplus.mouseover" end="zoomplus.mouseout"/>
                        </use>
                        <path d="M-4,0h8M0,-4v8" fill="none" stroke="white" stroke-width="1.5" pointer-events="none"/>
                </g>
                <g id="zoomMin">
                        <use xlink:href="#rim" fill="#404040">
                                <set attributeName="fill" to="#808080" begin="zoomminus.mouseover" end="zoomminus.mouseout"/>
                        </use>
                        <path d="M-4,0h8" fill="none" stroke="white" stroke-width="1.5" pointer-events="none"/>
                </g>
                <g id="dirArrow">
                        <path fill="none" stroke="white" stroke-width="1.5" d="M0,-3.0v7 M-2.5,-0.5L0,-3.0L2.5,-0.5"/>
                </g>
               <g id="resetDef">
                       <use xlink:href="#rim2" fill="#404040">
                               <set attributeName="fill" to="#808080" begin="reset.mouseover" end="reset.mouseout"/>
                       </use>
               </g>
        </defs>

<script type="text/javascript">
var viewWidth = 662;
var viewHeight = 129;
var sectionId = 'dynsection-4';
</script>
<script xlink:href="svgpan.js"/>
<svg id="graph" class="graph">
<g id="viewport">
<title>Search::getBestIndividual</title>
<!-- Node1 -->
<g id="node1" class="node"><title>Node1</title>
<polygon fill="#bfbfbf" stroke="black" points="0,-20.5 0,-40.5 139,-40.5 139,-20.5 0,-20.5"/>
<text text-anchor="middle" x="69.5" y="-27.7" font-family="Helvetica,sans-Serif" font-size="11.00">Search::getBestIndividual</text>
</g>
<!-- Node2 -->
<g id="node2" class="node"><title>Node2</title>
<g id="a_node2"><a xlink:href="classSearch.xhtml#af9f46406f1f1f7f89ab294c155738ca6" target="_top" xlink:title="Set the full search space. ">
<polygon fill="none" stroke="black" points="185.5,-59.5 185.5,-79.5 322.5,-79.5 322.5,-59.5 185.5,-59.5"/>
<text text-anchor="middle" x="254" y="-66.7" font-family="Helvetica,sans-Serif" font-size="11.00">Search::setSearchSpace</text>
</a>
</g>
</g>
<!-- Node1&#45;&gt;Node2 -->
<g id="edge1" class="edge"><title>Node1&#45;&gt;Node2</title>
<path fill="none" stroke="midnightblue" d="M127.341,-42.6469C152.665,-48.0585 182.13,-54.3552 206.161,-59.4906"/>
<polygon fill="midnightblue" stroke="midnightblue" points="128.009,-39.2106 117.498,-40.5435 126.546,-46.0561 128.009,-39.2106"/>
</g>
<!-- Node5 -->
<g id="node5" class="node"><title>Node5</title>
<g id="a_node5"><a xlink:href="classTHBuilder_1_1SearchGroup.xhtml#ac8c33d89ddd52e38fb23d7102d9086e0" target="_top" xlink:title="Perform a complete execution of the search group. ">
<polygon fill="none" stroke="black" points="175,-20.5 175,-40.5 333,-40.5 333,-20.5 175,-20.5"/>
<text text-anchor="middle" x="254" y="-27.7" font-family="Helvetica,sans-Serif" font-size="11.00">THBuilder::SearchGroup::run</text>
</a>
</g>
</g>
<!-- Node1&#45;&gt;Node5 -->
<g id="edge5" class="edge"><title>Node1&#45;&gt;Node5</title>
<path fill="none" stroke="midnightblue" d="M149.422,-30.5C157.848,-30.5 166.417,-30.5 174.834,-30.5"/>
<polygon fill="midnightblue" stroke="midnightblue" points="149.235,-27.0001 139.235,-30.5 149.235,-34.0001 149.235,-27.0001"/>
</g>
<!-- Node6 -->
<g id="node6" class="node"><title>Node6</title>
<g id="a_node6"><a xlink:href="classTHBuilder_1_1THImpl.xhtml#a943301db5154fd7b672119b5c9917303" target="_top" xlink:title="Starts the Treasure Hunt mechanisms. ">
<polygon fill="none" stroke="black" points="373,-0.5 373,-20.5 501,-20.5 501,-0.5 373,-0.5"/>
<text text-anchor="middle" x="437" y="-7.7" font-family="Helvetica,sans-Serif" font-size="11.00">THBuilder::THImpl::run</text>
</a>
</g>
</g>
<!-- Node1&#45;&gt;Node6 -->
<g id="edge7" class="edge"><title>Node1&#45;&gt;Node6</title>
<path fill="none" stroke="midnightblue" d="M122.98,-18.4468C139.53,-15.1882 157.944,-12.1175 175,-10.5 242.327,-4.11518 319.863,-5.17516 372.82,-7.16938"/>
<polygon fill="midnightblue" stroke="midnightblue" points="122.047,-15.0649 112.946,-20.4887 123.443,-21.9244 122.047,-15.0649"/>
</g>
<!-- Node3 -->
<g id="node3" class="node"><title>Node3</title>
<g id="a_node3"><a xlink:href="classTHBuilder_1_1SearchGroup.xhtml#a794cf5448380674b51022b5d65a240e2" target="_top" xlink:title="Constructor to create the internal Search Group. ">
<polygon fill="none" stroke="black" points="369,-88.5 369,-120.5 505,-120.5 505,-88.5 369,-88.5"/>
<text text-anchor="start" x="377" y="-107.7" font-family="Helvetica,sans-Serif" font-size="11.00">THBuilder::SearchGroup</text>
<text text-anchor="middle" x="437" y="-95.7" font-family="Helvetica,sans-Serif" font-size="11.00">::SearchGroup</text>
</a>
</g>
</g>
<!-- Node2&#45;&gt;Node3 -->
<g id="edge2" class="edge"><title>Node2&#45;&gt;Node3</title>
<path fill="none" stroke="midnightblue" d="M317.065,-81.5015C333.78,-84.7337 351.935,-88.2444 368.911,-91.5269"/>
<polygon fill="midnightblue" stroke="midnightblue" points="317.35,-77.9919 306.867,-79.5296 316.021,-84.8645 317.35,-77.9919"/>
</g>
<!-- Node4 -->
<g id="node4" class="node"><title>Node4</title>
<g id="a_node4"><a xlink:href="classTHBuilder_1_1THImpl.xhtml#a0d6e2fd43f50755ff2738e924f66690d" target="_top" xlink:title="THBuilder::THImpl::\lTHImpl">
<polygon fill="none" stroke="black" points="541,-65.5 541,-97.5 654,-97.5 654,-65.5 541,-65.5"/>
<text text-anchor="start" x="549" y="-84.7" font-family="Helvetica,sans-Serif" font-size="11.00">THBuilder::THImpl::</text>
<text text-anchor="middle" x="597.5" y="-72.7" font-family="Helvetica,sans-Serif" font-size="11.00">THImpl</text>
</a>
</g>
</g>
<!-- Node2&#45;&gt;Node4 -->
<g id="edge4" class="edge"><title>Node2&#45;&gt;Node4</title>
<path fill="none" stroke="midnightblue" d="M333.233,-72.249C396.65,-74.4774 484.458,-77.5629 540.876,-79.5454"/>
<polygon fill="midnightblue" stroke="midnightblue" points="332.994,-68.7386 322.878,-71.8852 332.749,-75.7343 332.994,-68.7386"/>
</g>
<!-- Node3&#45;&gt;Node4 -->
<g id="edge3" class="edge"><title>Node3&#45;&gt;Node4</title>
<path fill="none" stroke="midnightblue" d="M515.247,-93.2906C523.824,-92.0461 532.431,-90.7971 540.668,-89.6019"/>
<polygon fill="midnightblue" stroke="midnightblue" points="514.612,-89.8461 505.218,-94.7459 515.617,-96.7735 514.612,-89.8461"/>
</g>
<!-- Node5&#45;&gt;Node6 -->
<g id="edge6" class="edge"><title>Node5&#45;&gt;Node6</title>
<path fill="none" stroke="midnightblue" d="M343.098,-20.7654C353.154,-19.6542 363.25,-18.5387 372.888,-17.4737"/>
<polygon fill="midnightblue" stroke="midnightblue" points="342.629,-17.2959 333.074,-21.8731 343.398,-24.2535 342.629,-17.2959"/>
</g>
</g>
</svg>
        <g id="navigator" transform="translate(0 0)" fill="#404254">
                <rect fill="#f2f5e9" fill-opacity="0.5" stroke="#606060" stroke-width=".5" x="0" y="0" width="60" height="60"/>
                <use id="zoomplus" xlink:href="#zoomPlus" x="17" y="9" onmousedown="handleZoom(evt,'in')"/>
                <use id="zoomminus" xlink:href="#zoomMin" x="42" y="9" onmousedown="handleZoom(evt,'out')"/>
                <use id="reset" xlink:href="#resetDef" x="30" y="36" onmousedown="handleReset()"/>
                <g id="arrowUp" xlink:href="#dirArrow" transform="translate(30 24)" onmousedown="handlePan(0,-1)">
                  <use xlink:href="#rim" fill="#404040">
                        <set attributeName="fill" to="#808080" begin="arrowUp.mouseover" end="arrowUp.mouseout"/>
                  </use>
                  <path fill="none" stroke="white" stroke-width="1.5" d="M0,-3.0v7 M-2.5,-0.5L0,-3.0L2.5,-0.5"/>
                </g>
                <g id="arrowRight" xlink:href="#dirArrow" transform="rotate(90) translate(36 -43)" onmousedown="handlePan(1,0)">
                  <use xlink:href="#rim" fill="#404040">
                        <set attributeName="fill" to="#808080" begin="arrowRight.mouseover" end="arrowRight.mouseout"/>
                  </use>
                  <path fill="none" stroke="white" stroke-width="1.5" d="M0,-3.0v7 M-2.5,-0.5L0,-3.0L2.5,-0.5"/>
                </g>
                <g id="arrowDown" xlink:href="#dirArrow" transform="rotate(180) translate(-30 -48)" onmousedown="handlePan(0,1)">
                  <use xlink:href="#rim" fill="#404040">
                        <set attributeName="fill" to="#808080" begin="arrowDown.mouseover" end="arrowDown.mouseout"/>
                  </use>
                  <path fill="none" stroke="white" stroke-width="1.5" d="M0,-3.0v7 M-2.5,-0.5L0,-3.0L2.5,-0.5"/>
                </g>
                <g id="arrowLeft" xlink:href="#dirArrow" transform="rotate(270) translate(-36 17)" onmousedown="handlePan(-1,0)">
                  <use xlink:href="#rim" fill="#404040">
                        <set attributeName="fill" to="#808080" begin="arrowLeft.mouseover" end="arrowLeft.mouseout"/>
                  </use>
                  <path fill="none" stroke="white" stroke-width="1.5" d="M0,-3.0v7 M-2.5,-0.5L0,-3.0L2.5,-0.5"/>
                </g>
        </g>
        <svg viewBox="0 0 15 15" width="100%" height="30px" preserveAspectRatio="xMaxYMin meet">
         <g id="arrow_out" transform="scale(0.3 0.3)">
          <a xlink:href="classSearch_a6b275ce5596bb50216cc9fc827f44912_icgraph_org.svg" target="_base">
           <rect id="button" ry="5" rx="5" y="6" x="6" height="38" width="38"
                fill="#f2f5e9" fill-opacity="0.5" stroke="#606060" stroke-width="1.0"/>
           <path id="arrow"
             d="M 11.500037,31.436501 C 11.940474,20.09759 22.043105,11.32322 32.158766,21.979434 L 37.068811,17.246167 C 37.068811,17.246167 37.088388,32 37.088388,32 L 22.160133,31.978069 C 22.160133,31.978069 26.997745,27.140456 26.997745,27.140456 C 18.528582,18.264221 13.291696,25.230495 11.500037,31.436501 z"
             style="fill:#404040;"/>
          </a>
         </g>
        </svg>
</svg>
