<?xml version="1.0" encoding="UTF-8" standalone="no"?>
<!DOCTYPE svg PUBLIC "-//W3C//DTD SVG 1.1//EN"
 "http://www.w3.org/Graphics/SVG/1.1/DTD/svg11.dtd">
<!-- Generated by graphviz version 2.38.0 (20140413.2041)
 -->
<!-- Title: THBuilder::SearchGroup::getPopulationSize Pages: 1 -->
<svg width="502pt" height="80pt"
 viewBox="0.00 0.00 502.00 80.00" xmlns="http://www.w3.org/2000/svg" xmlns:xlink="http://www.w3.org/1999/xlink">
<g id="graph0" class="graph" transform="scale(1 1) rotate(0) translate(4 76)">
<title>THBuilder::SearchGroup::getPopulationSize</title>
<!-- Node1 -->
<g id="node1" class="node"><title>Node1</title>
<polygon fill="#bfbfbf" stroke="black" points="0,-22.5 0,-54.5 136,-54.5 136,-22.5 0,-22.5"/>
<text text-anchor="start" x="8" y="-41.7" font-family="Helvetica,sans-Serif" font-size="11.00">THBuilder::SearchGroup</text>
<text text-anchor="middle" x="68" y="-29.7" font-family="Helvetica,sans-Serif" font-size="11.00">::getPopulationSize</text>
</g>
<!-- Node2 -->
<g id="node2" class="node"><title>Node2</title>
<g id="a_node2"><a xlink:href="classTHBuilder_1_1SearchGroup.xhtml#ac8c33d89ddd52e38fb23d7102d9086e0" target="_top" xlink:title="Perform a complete execution of the search group. ">
<polygon fill="none" stroke="black" points="172,-51.5 172,-71.5 330,-71.5 330,-51.5 172,-51.5"/>
<text text-anchor="middle" x="251" y="-58.7" font-family="Helvetica,sans-Serif" font-size="11.00">THBuilder::SearchGroup::run</text>
</a>
</g>
</g>
<!-- Node1&#45;&gt;Node2 -->
<g id="edge1" class="edge"><title>Node1&#45;&gt;Node2</title>
<path fill="none" stroke="midnightblue" d="M146.1,-48.2973C154.665,-49.3856 163.393,-50.4948 171.97,-51.5845"/>
<polygon fill="midnightblue" stroke="midnightblue" points="146.502,-44.8203 136.141,-47.0317 145.619,-51.7644 146.502,-44.8203"/>
</g>
<!-- Node4 -->
<g id="node4" class="node"><title>Node4</title>
<g id="a_node4"><a xlink:href="classTHBuilder_1_1THImpl.xhtml#a0d6e2fd43f50755ff2738e924f66690d" target="_top" xlink:title="THBuilder::THImpl::\lTHImpl">
<polygon fill="none" stroke="black" points="194.5,-0.5 194.5,-32.5 307.5,-32.5 307.5,-0.5 194.5,-0.5"/>
<text text-anchor="start" x="202.5" y="-19.7" font-family="Helvetica,sans-Serif" font-size="11.00">THBuilder::THImpl::</text>
<text text-anchor="middle" x="251" y="-7.7" font-family="Helvetica,sans-Serif" font-size="11.00">THImpl</text>
</a>
</g>
</g>
<!-- Node1&#45;&gt;Node4 -->
<g id="edge3" class="edge"><title>Node1&#45;&gt;Node4</title>
<path fill="none" stroke="midnightblue" d="M146.11,-29.1275C162.273,-27.1629 179.019,-25.1275 194.224,-23.2794"/>
<polygon fill="midnightblue" stroke="midnightblue" points="145.645,-25.6582 136.141,-30.3393 146.49,-32.607 145.645,-25.6582"/>
</g>
<!-- Node3 -->
<g id="node3" class="node"><title>Node3</title>
<g id="a_node3"><a xlink:href="classTHBuilder_1_1THImpl.xhtml#a943301db5154fd7b672119b5c9917303" target="_top" xlink:title="Starts the Treasure Hunt mechanisms. ">
<polygon fill="none" stroke="black" points="366,-51.5 366,-71.5 494,-71.5 494,-51.5 366,-51.5"/>
<text text-anchor="middle" x="430" y="-58.7" font-family="Helvetica,sans-Serif" font-size="11.00">THBuilder::THImpl::run</text>
</a>
</g>
</g>
<!-- Node2&#45;&gt;Node3 -->
<g id="edge2" class="edge"><title>Node2&#45;&gt;Node3</title>
<path fill="none" stroke="midnightblue" d="M340.271,-61.5C348.91,-61.5 357.552,-61.5 365.868,-61.5"/>
<polygon fill="midnightblue" stroke="midnightblue" points="340.15,-58.0001 330.15,-61.5 340.15,-65.0001 340.15,-58.0001"/>
</g>
</g>
</svg>
