<?xml version="1.0" encoding="UTF-8" standalone="no"?>
<!DOCTYPE svg PUBLIC "-//W3C//DTD SVG 1.1//EN"
 "http://www.w3.org/Graphics/SVG/1.1/DTD/svg11.dtd">
<!-- Generated by graphviz version 2.38.0 (20140413.2041)
 -->
<!-- Title: Search::setSearchSpace Pages: 1 -->
<svg width="324pt" height="302pt"
 viewBox="0.00 0.00 324.00 302.00" xmlns="http://www.w3.org/2000/svg" xmlns:xlink="http://www.w3.org/1999/xlink">
<g id="graph0" class="graph" transform="scale(1 1) rotate(0) translate(4 298)">
<title>Search::setSearchSpace</title>
<!-- Node1 -->
<g id="node1" class="node"><title>Node1</title>
<polygon fill="#bfbfbf" stroke="black" points="0,-136.5 0,-156.5 137,-156.5 137,-136.5 0,-136.5"/>
<text text-anchor="middle" x="68.5" y="-143.7" font-family="Helvetica,sans-Serif" font-size="11.00">Search::setSearchSpace</text>
</g>
<!-- Node2 -->
<g id="node2" class="node"><title>Node2</title>
<g id="a_node2"><a xlink:href="classSearch.xhtml#afe8c2a6dd96ad12f77de7c8226a76028" target="_top" xlink:title="Method responsible for setting up all the optimization algorithm for the next optimization. ">
<polygon fill="none" stroke="black" points="199.5,-273.5 199.5,-293.5 289.5,-293.5 289.5,-273.5 199.5,-273.5"/>
<text text-anchor="middle" x="244.5" y="-280.7" font-family="Helvetica,sans-Serif" font-size="11.00">Search::startup</text>
</a>
</g>
</g>
<!-- Node1&#45;&gt;Node2 -->
<g id="edge1" class="edge"><title>Node1&#45;&gt;Node2</title>
<path fill="none" stroke="midnightblue" d="M75.5501,-156.833C89.5892,-179.874 126.738,-235.689 173,-264.5 178.101,-267.677 183.73,-270.329 189.517,-272.541"/>
<polygon fill="midnightblue" stroke="midnightblue" points="188.746,-275.975 199.34,-275.864 190.989,-269.344 188.746,-275.975"/>
</g>
<!-- Node3 -->
<g id="node3" class="node"><title>Node3</title>
<g id="a_node3"><a xlink:href="classSearch.xhtml#afa7022c6b9be775211d8a9be85b880f3" target="_top" xlink:title="Method responsible for all post&#45;processing after the optimization has completed. ">
<polygon fill="none" stroke="black" points="199.5,-234.5 199.5,-254.5 289.5,-254.5 289.5,-234.5 199.5,-234.5"/>
<text text-anchor="middle" x="244.5" y="-241.7" font-family="Helvetica,sans-Serif" font-size="11.00">Search::finalize</text>
</a>
</g>
</g>
<!-- Node1&#45;&gt;Node3 -->
<g id="edge2" class="edge"><title>Node1&#45;&gt;Node3</title>
<path fill="none" stroke="midnightblue" d="M79.7389,-156.554C97.3315,-173.28 135.078,-206.825 173,-225.5 178.245,-228.083 183.889,-230.352 189.618,-232.337"/>
<polygon fill="midnightblue" stroke="midnightblue" points="188.692,-235.715 199.283,-235.413 190.815,-229.045 188.692,-235.715"/>
</g>
<!-- Node4 -->
<g id="node4" class="node"><title>Node4</title>
<g id="a_node4"><a xlink:href="classSearch.xhtml#ae2ea32c6a6ab958e714f19dc71fae9db" target="_top" xlink:title="Method responsible for executing the actual optimization to obtain the next best result. ">
<polygon fill="none" stroke="black" points="206,-195.5 206,-215.5 283,-215.5 283,-195.5 206,-195.5"/>
<text text-anchor="middle" x="244.5" y="-202.7" font-family="Helvetica,sans-Serif" font-size="11.00">Search::next</text>
</a>
</g>
</g>
<!-- Node1&#45;&gt;Node4 -->
<g id="edge3" class="edge"><title>Node1&#45;&gt;Node4</title>
<path fill="none" stroke="midnightblue" d="M93.4983,-156.605C114.311,-165.167 145.352,-177.46 173,-186.5 180.455,-188.938 188.425,-191.307 196.225,-193.498"/>
<polygon fill="midnightblue" stroke="midnightblue" points="195.393,-196.899 205.963,-196.171 197.246,-190.149 195.393,-196.899"/>
</g>
<!-- Node5 -->
<g id="node5" class="node"><title>Node5</title>
<g id="a_node5"><a xlink:href="classSearch.xhtml#aa64dbfe1bd713c36cc8785178a81325e" target="_top" xlink:title="Inform the ConvergenceControlPolicy that no next improvement could be found in reasonable time...">
<polygon fill="none" stroke="black" points="198.5,-156.5 198.5,-176.5 290.5,-176.5 290.5,-156.5 198.5,-156.5"/>
<text text-anchor="middle" x="244.5" y="-163.7" font-family="Helvetica,sans-Serif" font-size="11.00">Search::isStuck</text>
</a>
</g>
</g>
<!-- Node1&#45;&gt;Node5 -->
<g id="edge4" class="edge"><title>Node1&#45;&gt;Node5</title>
<path fill="none" stroke="midnightblue" d="M137.271,-154.29C154.101,-156.224 171.94,-158.275 188.098,-160.132"/>
<polygon fill="midnightblue" stroke="midnightblue" points="188.111,-163.656 198.445,-161.321 188.91,-156.702 188.111,-163.656"/>
</g>
<!-- Node6 -->
<g id="node6" class="node"><title>Node6</title>
<g id="a_node6"><a xlink:href="classSearch.xhtml#a6b275ce5596bb50216cc9fc827f44912" target="_top" xlink:title="Get the best Solution found since the last time the method startup() was called. ">
<polygon fill="none" stroke="black" points="175,-117.5 175,-137.5 314,-137.5 314,-117.5 175,-117.5"/>
<text text-anchor="middle" x="244.5" y="-124.7" font-family="Helvetica,sans-Serif" font-size="11.00">Search::getBestIndividual</text>
</a>
</g>
</g>
<!-- Node1&#45;&gt;Node6 -->
<g id="edge5" class="edge"><title>Node1&#45;&gt;Node6</title>
<path fill="none" stroke="midnightblue" d="M137.271,-139.1C146.215,-138.123 155.444,-137.115 164.554,-136.121"/>
<polygon fill="midnightblue" stroke="midnightblue" points="165.207,-139.57 174.768,-135.005 164.447,-132.612 165.207,-139.57"/>
</g>
<!-- Node7 -->
<g id="node7" class="node"><title>Node7</title>
<g id="a_node7"><a xlink:href="classSearch.xhtml#a134eb5da3918998d5a3d1e049f7b585e" target="_top" xlink:title="Get the number of FitnessPolicy evaluations performed since the last time the method startup() was ca...">
<polygon fill="none" stroke="black" points="173,-78.5 173,-98.5 316,-98.5 316,-78.5 173,-78.5"/>
<text text-anchor="middle" x="244.5" y="-85.7" font-family="Helvetica,sans-Serif" font-size="11.00">Search::getCurrentNEvals</text>
</a>
</g>
</g>
<!-- Node1&#45;&gt;Node7 -->
<g id="edge6" class="edge"><title>Node1&#45;&gt;Node7</title>
<path fill="none" stroke="midnightblue" d="M95.2577,-136.428C116.085,-128.434 146.239,-117.195 173,-108.5 180.487,-106.067 188.473,-103.642 196.28,-101.363"/>
<polygon fill="midnightblue" stroke="midnightblue" points="197.376,-104.69 206.021,-98.5651 195.444,-97.9621 197.376,-104.69"/>
</g>
<!-- Node8 -->
<g id="node8" class="node"><title>Node8</title>
<g id="a_node8"><a xlink:href="classSearch.xhtml#a6f167beec8fc582b2d993a4bd76e241c" target="_top" xlink:title="Get the Fitness for the current best Solution. ">
<polygon fill="none" stroke="black" points="180.5,-39.5 180.5,-59.5 308.5,-59.5 308.5,-39.5 180.5,-39.5"/>
<text text-anchor="middle" x="244.5" y="-46.7" font-family="Helvetica,sans-Serif" font-size="11.00">Search::getBestFitness</text>
</a>
</g>
</g>
<!-- Node1&#45;&gt;Node8 -->
<g id="edge7" class="edge"><title>Node1&#45;&gt;Node8</title>
<path fill="none" stroke="midnightblue" d="M80.3921,-136.245C98.3357,-119.874 135.838,-87.8206 173,-69.5 177.992,-67.0388 183.337,-64.8347 188.769,-62.8717"/>
<polygon fill="midnightblue" stroke="midnightblue" points="190.204,-66.0824 198.581,-59.5952 187.987,-59.4428 190.204,-66.0824"/>
</g>
<!-- Node9 -->
<g id="node9" class="node"><title>Node9</title>
<g id="a_node9"><a xlink:href="classSearch.xhtml#afbc425366989c9fc8aa7c88b70812b97" target="_top" xlink:title="Get the name of the optimization method implemented. ">
<polygon fill="none" stroke="black" points="194,-0.5 194,-20.5 295,-20.5 295,-0.5 194,-0.5"/>
<text text-anchor="middle" x="244.5" y="-7.7" font-family="Helvetica,sans-Serif" font-size="11.00">Search::getName</text>
</a>
</g>
</g>
<!-- Node1&#45;&gt;Node9 -->
<g id="edge8" class="edge"><title>Node1&#45;&gt;Node9</title>
<path fill="none" stroke="midnightblue" d="M75.6231,-136.388C89.8117,-113.832 127.247,-59.1437 173,-30.5 176.639,-28.2215 180.545,-26.1962 184.582,-24.3968"/>
<polygon fill="midnightblue" stroke="midnightblue" points="186.172,-27.5318 194.181,-20.5958 183.595,-21.0236 186.172,-27.5318"/>
</g>
</g>
</svg>
