<?xml version="1.0" encoding="UTF-8" standalone="no"?>
<!DOCTYPE svg PUBLIC "-//W3C//DTD SVG 1.1//EN"
 "http://www.w3.org/Graphics/SVG/1.1/DTD/svg11.dtd">
<!-- Generated by graphviz version 2.38.0 (20140413.2041)
 -->
<!-- Title: THUtil::randUniformDouble Pages: 1 -->
<svg width="671pt" height="285pt"
 viewBox="0.00 0.00 671.00 285.00" xmlns="http://www.w3.org/2000/svg" xmlns:xlink="http://www.w3.org/1999/xlink">
<g id="graph0" class="graph" transform="scale(1 1) rotate(0) translate(4 281)">
<title>THUtil::randUniformDouble</title>
<!-- Node1 -->
<g id="node1" class="node"><title>Node1</title>
<polygon fill="#bfbfbf" stroke="black" points="0,-139.5 0,-159.5 148,-159.5 148,-139.5 0,-139.5"/>
<text text-anchor="middle" x="74" y="-146.7" font-family="Helvetica,sans-Serif" font-size="11.00">THUtil::randUniformDouble</text>
</g>
<!-- Node2 -->
<g id="node2" class="node"><title>Node2</title>
<g id="a_node2"><a xlink:href="classHillClimbing.xhtml#a7c67b745880b93be26eb4fa113f0e37f" target="_top" xlink:title="Perform the actual optimization only until the next improvement. ">
<polygon fill="none" stroke="black" points="196.5,-256.5 196.5,-276.5 296.5,-276.5 296.5,-256.5 196.5,-256.5"/>
<text text-anchor="middle" x="246.5" y="-263.7" font-family="Helvetica,sans-Serif" font-size="11.00">HillClimbing::next</text>
</a>
</g>
</g>
<!-- Node1&#45;&gt;Node2 -->
<g id="edge1" class="edge"><title>Node1&#45;&gt;Node2</title>
<path fill="none" stroke="midnightblue" d="M90.2003,-167.245C109.801,-189.079 145.923,-225.902 184,-247.5 190.221,-251.029 197.175,-253.981 204.107,-256.423"/>
<polygon fill="midnightblue" stroke="midnightblue" points="92.7651,-164.862 83.5272,-159.674 87.5136,-169.49 92.7651,-164.862"/>
</g>
<!-- Node3 -->
<g id="node3" class="node"><title>Node3</title>
<g id="a_node3"><a xlink:href="classPSO.xhtml#a8fb3e9a46396074cbbdc2d04a83783a5" target="_top" xlink:title="Initialize the algorithm for a new optimization. ">
<polygon fill="none" stroke="black" points="207,-217.5 207,-237.5 286,-237.5 286,-217.5 207,-217.5"/>
<text text-anchor="middle" x="246.5" y="-224.7" font-family="Helvetica,sans-Serif" font-size="11.00">PSO::startup</text>
</a>
</g>
</g>
<!-- Node1&#45;&gt;Node3 -->
<g id="edge2" class="edge"><title>Node1&#45;&gt;Node3</title>
<path fill="none" stroke="midnightblue" d="M99.9809,-164.858C121.635,-177.718 154.106,-195.935 184,-208.5 191.83,-211.791 200.431,-214.802 208.655,-217.41"/>
<polygon fill="midnightblue" stroke="midnightblue" points="101.496,-161.685 91.1215,-159.536 97.8915,-167.685 101.496,-161.685"/>
</g>
<!-- Node4 -->
<g id="node4" class="node"><title>Node4</title>
<g id="a_node4"><a xlink:href="classPSO.xhtml#a25e15ab34186e7c52a4789108ae24ece" target="_top" xlink:title="Perform the actual optimization only until the next improvement. ">
<polygon fill="none" stroke="black" points="213.5,-178.5 213.5,-198.5 279.5,-198.5 279.5,-178.5 213.5,-178.5"/>
<text text-anchor="middle" x="246.5" y="-185.7" font-family="Helvetica,sans-Serif" font-size="11.00">PSO::next</text>
</a>
</g>
</g>
<!-- Node1&#45;&gt;Node4 -->
<g id="edge3" class="edge"><title>Node1&#45;&gt;Node4</title>
<path fill="none" stroke="midnightblue" d="M128.875,-161.823C156.632,-168.172 189.546,-175.701 213.319,-181.139"/>
<polygon fill="midnightblue" stroke="midnightblue" points="129.437,-158.361 118.908,-159.543 127.876,-165.185 129.437,-158.361"/>
</g>
<!-- Node5 -->
<g id="node5" class="node"><title>Node5</title>
<g id="a_node5"><a xlink:href="classBetaRelocationStrategyPolicy.xhtml#aeadaa254d012725ab1a67419d9cb37ef" target="_top" xlink:title="This method implements the policy to relocate TH instance&#39;s population at every TH instance&#39;s iterati...">
<polygon fill="none" stroke="black" points="350,-141.5 350,-173.5 509,-173.5 509,-141.5 350,-141.5"/>
<text text-anchor="start" x="358" y="-160.7" font-family="Helvetica,sans-Serif" font-size="11.00">BetaRelocationStrategyPolicy</text>
<text text-anchor="middle" x="429.5" y="-148.7" font-family="Helvetica,sans-Serif" font-size="11.00">::apply</text>
</a>
</g>
</g>
<!-- Node1&#45;&gt;Node5 -->
<g id="edge4" class="edge"><title>Node1&#45;&gt;Node5</title>
<path fill="none" stroke="midnightblue" d="M158.464,-151.389C216.367,-152.699 292.992,-154.433 349.824,-155.719"/>
<polygon fill="midnightblue" stroke="midnightblue" points="158.322,-147.885 148.245,-151.158 158.164,-154.883 158.322,-147.885"/>
</g>
<!-- Node6 -->
<g id="node6" class="node"><title>Node6</title>
<g id="a_node6"><a xlink:href="classSolution.xhtml#a84c713b707a570add53e85a28196bb3e" target="_top" xlink:title="Reset the position of the current Solution in the search space. ">
<polygon fill="none" stroke="black" points="203.5,-100.5 203.5,-120.5 289.5,-120.5 289.5,-100.5 203.5,-100.5"/>
<text text-anchor="middle" x="246.5" y="-107.7" font-family="Helvetica,sans-Serif" font-size="11.00">Solution::reset</text>
</a>
</g>
</g>
<!-- Node1&#45;&gt;Node6 -->
<g id="edge5" class="edge"><title>Node1&#45;&gt;Node6</title>
<path fill="none" stroke="midnightblue" d="M128.928,-137.164C152.921,-131.676 180.758,-125.309 203.212,-120.173"/>
<polygon fill="midnightblue" stroke="midnightblue" points="127.876,-133.815 118.908,-139.457 129.437,-140.639 127.876,-133.815"/>
</g>
<!-- Node7 -->
<g id="node7" class="node"><title>Node7</title>
<g id="a_node7"><a xlink:href="classTHBuilder_1_1SearchGroup.xhtml#aafebb836a1ec681213319a024a254ca8" target="_top" xlink:title="Reset the location of the population individuals and calculate the fitness. ">
<polygon fill="none" stroke="black" points="361.5,-51.5 361.5,-83.5 497.5,-83.5 497.5,-51.5 361.5,-51.5"/>
<text text-anchor="start" x="369.5" y="-70.7" font-family="Helvetica,sans-Serif" font-size="11.00">THBuilder::SearchGroup</text>
<text text-anchor="middle" x="429.5" y="-58.7" font-family="Helvetica,sans-Serif" font-size="11.00">::resetPopulation</text>
</a>
</g>
</g>
<!-- Node1&#45;&gt;Node7 -->
<g id="edge10" class="edge"><title>Node1&#45;&gt;Node7</title>
<path fill="none" stroke="midnightblue" d="M97.6611,-133.689C118.914,-119.748 152.113,-100.188 184,-90.5 242.234,-72.8073 311.547,-67.6946 361.477,-66.6335"/>
<polygon fill="midnightblue" stroke="midnightblue" points="95.6829,-130.802 89.3227,-139.275 99.5788,-136.617 95.6829,-130.802"/>
</g>
<!-- Node10 -->
<g id="node10" class="node"><title>Node10</title>
<g id="a_node10"><a xlink:href="classTHUtil.xhtml#a5318218946e65adbdb431a2664d04016" target="_top" xlink:title="THUtil::randUniformInt">
<polygon fill="none" stroke="black" points="184,-13.5 184,-33.5 309,-33.5 309,-13.5 184,-13.5"/>
<text text-anchor="middle" x="246.5" y="-20.7" font-family="Helvetica,sans-Serif" font-size="11.00">THUtil::randUniformInt</text>
</a>
</g>
</g>
<!-- Node1&#45;&gt;Node10 -->
<g id="edge11" class="edge"><title>Node1&#45;&gt;Node10</title>
<path fill="none" stroke="midnightblue" d="M92.1516,-132.105C112.732,-111.836 148.873,-78.1152 184,-54.5 196.007,-46.428 210.403,-39.0611 222.247,-33.536"/>
<polygon fill="midnightblue" stroke="midnightblue" points="89.4323,-129.873 84.8173,-139.41 94.3723,-134.833 89.4323,-129.873"/>
</g>
<!-- Node6&#45;&gt;Node5 -->
<g id="edge6" class="edge"><title>Node6&#45;&gt;Node5</title>
<path fill="none" stroke="midnightblue" d="M296.276,-123.166C317.913,-128.784 343.625,-135.461 366.597,-141.426"/>
<polygon fill="midnightblue" stroke="midnightblue" points="296.888,-119.708 286.329,-120.583 295.128,-126.484 296.888,-119.708"/>
</g>
<!-- Node6&#45;&gt;Node7 -->
<g id="edge7" class="edge"><title>Node6&#45;&gt;Node7</title>
<path fill="none" stroke="midnightblue" d="M299.686,-98.1021C318.867,-93.5454 340.864,-88.3196 361.188,-83.4913"/>
<polygon fill="midnightblue" stroke="midnightblue" points="298.857,-94.7017 289.936,-100.418 300.475,-101.512 298.857,-94.7017"/>
</g>
<!-- Node9 -->
<g id="node9" class="node"><title>Node9</title>
<g id="a_node9"><a xlink:href="classTHBuilder_1_1THImpl.xhtml#a943301db5154fd7b672119b5c9917303" target="_top" xlink:title="Starts the Treasure Hunt mechanisms. ">
<polygon fill="none" stroke="black" points="365.5,-102.5 365.5,-122.5 493.5,-122.5 493.5,-102.5 365.5,-102.5"/>
<text text-anchor="middle" x="429.5" y="-109.7" font-family="Helvetica,sans-Serif" font-size="11.00">THBuilder::THImpl::run</text>
</a>
</g>
</g>
<!-- Node6&#45;&gt;Node9 -->
<g id="edge9" class="edge"><title>Node6&#45;&gt;Node9</title>
<path fill="none" stroke="midnightblue" d="M300,-111.08C320.44,-111.306 344.041,-111.567 365.395,-111.803"/>
<polygon fill="midnightblue" stroke="midnightblue" points="299.975,-107.58 289.936,-110.969 299.897,-114.579 299.975,-107.58"/>
</g>
<!-- Node8 -->
<g id="node8" class="node"><title>Node8</title>
<g id="a_node8"><a xlink:href="classTHBuilder_1_1THImpl.xhtml#a0d6e2fd43f50755ff2738e924f66690d" target="_top" xlink:title="THBuilder::THImpl::\lTHImpl">
<polygon fill="none" stroke="black" points="550,-51.5 550,-83.5 663,-83.5 663,-51.5 550,-51.5"/>
<text text-anchor="start" x="558" y="-70.7" font-family="Helvetica,sans-Serif" font-size="11.00">THBuilder::THImpl::</text>
<text text-anchor="middle" x="606.5" y="-58.7" font-family="Helvetica,sans-Serif" font-size="11.00">THImpl</text>
</a>
</g>
</g>
<!-- Node7&#45;&gt;Node8 -->
<g id="edge8" class="edge"><title>Node7&#45;&gt;Node8</title>
<path fill="none" stroke="midnightblue" d="M507.875,-67.5C522.021,-67.5 536.525,-67.5 549.881,-67.5"/>
<polygon fill="midnightblue" stroke="midnightblue" points="507.659,-64.0001 497.659,-67.5 507.659,-71.0001 507.659,-64.0001"/>
</g>
<!-- Node11 -->
<g id="node11" class="node"><title>Node11</title>
<g id="a_node11"><a xlink:href="classRandomBestListSelectionPolicy.xhtml#ae32f042697269d74c6fed4b9ff6771c8" target="_top" xlink:title="Implements the policy that selects a random solution from the best&#45;list. ">
<polygon fill="none" stroke="black" points="345,-0.5 345,-32.5 514,-32.5 514,-0.5 345,-0.5"/>
<text text-anchor="start" x="353" y="-19.7" font-family="Helvetica,sans-Serif" font-size="11.00">RandomBestListSelectionPolicy</text>
<text text-anchor="middle" x="429.5" y="-7.7" font-family="Helvetica,sans-Serif" font-size="11.00">::apply</text>
</a>
</g>
</g>
<!-- Node10&#45;&gt;Node11 -->
<g id="edge12" class="edge"><title>Node10&#45;&gt;Node11</title>
<path fill="none" stroke="midnightblue" d="M319.138,-20.7295C327.534,-20.4048 336.156,-20.0713 344.698,-19.741"/>
<polygon fill="midnightblue" stroke="midnightblue" points="318.888,-17.2364 309.031,-21.1204 319.159,-24.2312 318.888,-17.2364"/>
</g>
</g>
</svg>
