<?xml version="1.0" encoding="UTF-8" standalone="no"?>
<!DOCTYPE svg PUBLIC "-//W3C//DTD SVG 1.1//EN"
 "http://www.w3.org/Graphics/SVG/1.1/DTD/svg11.dtd">
<!-- Generated by graphviz version 2.38.0 (20140413.2041)
 -->
<!-- Title: THBuilder::getConvergenceControlPolicy Pages: 1 -->
<svg width="480pt" height="64pt"
 viewBox="0.00 0.00 480.00 64.00" xmlns="http://www.w3.org/2000/svg" xmlns:xlink="http://www.w3.org/1999/xlink">
<g id="graph0" class="graph" transform="scale(1 1) rotate(0) translate(4 60)">
<title>THBuilder::getConvergenceControlPolicy</title>
<!-- Node1 -->
<g id="node1" class="node"><title>Node1</title>
<polygon fill="#bfbfbf" stroke="black" points="0,-0.5 0,-32.5 151,-32.5 151,-0.5 0,-0.5"/>
<text text-anchor="start" x="8" y="-19.7" font-family="Helvetica,sans-Serif" font-size="11.00">THBuilder::getConvergence</text>
<text text-anchor="middle" x="75.5" y="-7.7" font-family="Helvetica,sans-Serif" font-size="11.00">ControlPolicy</text>
</g>
<!-- Node2 -->
<g id="node2" class="node"><title>Node2</title>
<g id="a_node2"><a xlink:href="classTHBuilder_1_1SearchGroup.xhtml#a794cf5448380674b51022b5d65a240e2" target="_top" xlink:title="Constructor to create the internal Search Group. ">
<polygon fill="none" stroke="black" points="187,-23.5 187,-55.5 323,-55.5 323,-23.5 187,-23.5"/>
<text text-anchor="start" x="195" y="-42.7" font-family="Helvetica,sans-Serif" font-size="11.00">THBuilder::SearchGroup</text>
<text text-anchor="middle" x="255" y="-30.7" font-family="Helvetica,sans-Serif" font-size="11.00">::SearchGroup</text>
</a>
</g>
</g>
<!-- Node1&#45;&gt;Node2 -->
<g id="edge1" class="edge"><title>Node1&#45;&gt;Node2</title>
<path fill="none" stroke="midnightblue" d="M161.074,-27.4589C169.688,-28.5751 178.356,-29.6982 186.75,-30.7859"/>
<polygon fill="midnightblue" stroke="midnightblue" points="161.371,-23.9682 151.004,-26.1541 160.472,-30.9102 161.371,-23.9682"/>
</g>
<!-- Node3 -->
<g id="node3" class="node"><title>Node3</title>
<g id="a_node3"><a xlink:href="classTHBuilder_1_1THImpl.xhtml#a0d6e2fd43f50755ff2738e924f66690d" target="_top" xlink:title="THBuilder::THImpl::\lTHImpl">
<polygon fill="none" stroke="black" points="359,-0.5 359,-32.5 472,-32.5 472,-0.5 359,-0.5"/>
<text text-anchor="start" x="367" y="-19.7" font-family="Helvetica,sans-Serif" font-size="11.00">THBuilder::THImpl::</text>
<text text-anchor="middle" x="415.5" y="-7.7" font-family="Helvetica,sans-Serif" font-size="11.00">THImpl</text>
</a>
</g>
</g>
<!-- Node1&#45;&gt;Node3 -->
<g id="edge3" class="edge"><title>Node1&#45;&gt;Node3</title>
<path fill="none" stroke="midnightblue" d="M161.27,-14.8096C169.96,-14.6831 178.657,-14.5755 187,-14.5 247.442,-13.9531 262.559,-13.8395 323,-14.5 334.598,-14.6267 347.022,-14.8438 358.858,-15.0894"/>
<polygon fill="midnightblue" stroke="midnightblue" points="161.039,-11.3126 151.094,-14.9661 161.146,-18.3118 161.039,-11.3126"/>
</g>
<!-- Node2&#45;&gt;Node3 -->
<g id="edge2" class="edge"><title>Node2&#45;&gt;Node3</title>
<path fill="none" stroke="midnightblue" d="M333.247,-28.2906C341.824,-27.0461 350.431,-25.7971 358.668,-24.6019"/>
<polygon fill="midnightblue" stroke="midnightblue" points="332.612,-24.8461 323.218,-29.7459 333.617,-31.7735 332.612,-24.8461"/>
</g>
</g>
</svg>
