<?xml version="1.0" encoding="UTF-8" standalone="no"?>
<!DOCTYPE svg PUBLIC "-//W3C//DTD SVG 1.1//EN"
 "http://www.w3.org/Graphics/SVG/1.1/DTD/svg11.dtd">
<!-- Generated by graphviz version 2.38.0 (20140413.2041)
 -->
<!-- Title: Search::getBestIndividual Pages: 1 -->
<svg width="662pt" height="129pt"
 viewBox="0.00 0.00 662.00 129.00" xmlns="http://www.w3.org/2000/svg" xmlns:xlink="http://www.w3.org/1999/xlink">
<g id="graph0" class="graph" transform="scale(1 1) rotate(0) translate(4 125)">
<title>Search::getBestIndividual</title>
<!-- Node1 -->
<g id="node1" class="node"><title>Node1</title>
<polygon fill="#bfbfbf" stroke="black" points="0,-20.5 0,-40.5 139,-40.5 139,-20.5 0,-20.5"/>
<text text-anchor="middle" x="69.5" y="-27.7" font-family="Helvetica,sans-Serif" font-size="11.00">Search::getBestIndividual</text>
</g>
<!-- Node2 -->
<g id="node2" class="node"><title>Node2</title>
<g id="a_node2"><a xlink:href="classSearch.xhtml#af9f46406f1f1f7f89ab294c155738ca6" target="_top" xlink:title="Set the full search space. ">
<polygon fill="none" stroke="black" points="185.5,-59.5 185.5,-79.5 322.5,-79.5 322.5,-59.5 185.5,-59.5"/>
<text text-anchor="middle" x="254" y="-66.7" font-family="Helvetica,sans-Serif" font-size="11.00">Search::setSearchSpace</text>
</a>
</g>
</g>
<!-- Node1&#45;&gt;Node2 -->
<g id="edge1" class="edge"><title>Node1&#45;&gt;Node2</title>
<path fill="none" stroke="midnightblue" d="M127.341,-42.6469C152.665,-48.0585 182.13,-54.3552 206.161,-59.4906"/>
<polygon fill="midnightblue" stroke="midnightblue" points="128.009,-39.2106 117.498,-40.5435 126.546,-46.0561 128.009,-39.2106"/>
</g>
<!-- Node5 -->
<g id="node5" class="node"><title>Node5</title>
<g id="a_node5"><a xlink:href="classTHBuilder_1_1SearchGroup.xhtml#ac8c33d89ddd52e38fb23d7102d9086e0" target="_top" xlink:title="Perform a complete execution of the search group. ">
<polygon fill="none" stroke="black" points="175,-20.5 175,-40.5 333,-40.5 333,-20.5 175,-20.5"/>
<text text-anchor="middle" x="254" y="-27.7" font-family="Helvetica,sans-Serif" font-size="11.00">THBuilder::SearchGroup::run</text>
</a>
</g>
</g>
<!-- Node1&#45;&gt;Node5 -->
<g id="edge5" class="edge"><title>Node1&#45;&gt;Node5</title>
<path fill="none" stroke="midnightblue" d="M149.422,-30.5C157.848,-30.5 166.417,-30.5 174.834,-30.5"/>
<polygon fill="midnightblue" stroke="midnightblue" points="149.235,-27.0001 139.235,-30.5 149.235,-34.0001 149.235,-27.0001"/>
</g>
<!-- Node6 -->
<g id="node6" class="node"><title>Node6</title>
<g id="a_node6"><a xlink:href="classTHBuilder_1_1THImpl.xhtml#a943301db5154fd7b672119b5c9917303" target="_top" xlink:title="Starts the Treasure Hunt mechanisms. ">
<polygon fill="none" stroke="black" points="373,-0.5 373,-20.5 501,-20.5 501,-0.5 373,-0.5"/>
<text text-anchor="middle" x="437" y="-7.7" font-family="Helvetica,sans-Serif" font-size="11.00">THBuilder::THImpl::run</text>
</a>
</g>
</g>
<!-- Node1&#45;&gt;Node6 -->
<g id="edge7" class="edge"><title>Node1&#45;&gt;Node6</title>
<path fill="none" stroke="midnightblue" d="M122.98,-18.4468C139.53,-15.1882 157.944,-12.1175 175,-10.5 242.327,-4.11518 319.863,-5.17516 372.82,-7.16938"/>
<polygon fill="midnightblue" stroke="midnightblue" points="122.047,-15.0649 112.946,-20.4887 123.443,-21.9244 122.047,-15.0649"/>
</g>
<!-- Node3 -->
<g id="node3" class="node"><title>Node3</title>
<g id="a_node3"><a xlink:href="classTHBuilder_1_1SearchGroup.xhtml#a794cf5448380674b51022b5d65a240e2" target="_top" xlink:title="Constructor to create the internal Search Group. ">
<polygon fill="none" stroke="black" points="369,-88.5 369,-120.5 505,-120.5 505,-88.5 369,-88.5"/>
<text text-anchor="start" x="377" y="-107.7" font-family="Helvetica,sans-Serif" font-size="11.00">THBuilder::SearchGroup</text>
<text text-anchor="middle" x="437" y="-95.7" font-family="Helvetica,sans-Serif" font-size="11.00">::SearchGroup</text>
</a>
</g>
</g>
<!-- Node2&#45;&gt;Node3 -->
<g id="edge2" class="edge"><title>Node2&#45;&gt;Node3</title>
<path fill="none" stroke="midnightblue" d="M317.065,-81.5015C333.78,-84.7337 351.935,-88.2444 368.911,-91.5269"/>
<polygon fill="midnightblue" stroke="midnightblue" points="317.35,-77.9919 306.867,-79.5296 316.021,-84.8645 317.35,-77.9919"/>
</g>
<!-- Node4 -->
<g id="node4" class="node"><title>Node4</title>
<g id="a_node4"><a xlink:href="classTHBuilder_1_1THImpl.xhtml#a0d6e2fd43f50755ff2738e924f66690d" target="_top" xlink:title="THBuilder::THImpl::\lTHImpl">
<polygon fill="none" stroke="black" points="541,-65.5 541,-97.5 654,-97.5 654,-65.5 541,-65.5"/>
<text text-anchor="start" x="549" y="-84.7" font-family="Helvetica,sans-Serif" font-size="11.00">THBuilder::THImpl::</text>
<text text-anchor="middle" x="597.5" y="-72.7" font-family="Helvetica,sans-Serif" font-size="11.00">THImpl</text>
</a>
</g>
</g>
<!-- Node2&#45;&gt;Node4 -->
<g id="edge4" class="edge"><title>Node2&#45;&gt;Node4</title>
<path fill="none" stroke="midnightblue" d="M333.233,-72.249C396.65,-74.4774 484.458,-77.5629 540.876,-79.5454"/>
<polygon fill="midnightblue" stroke="midnightblue" points="332.994,-68.7386 322.878,-71.8852 332.749,-75.7343 332.994,-68.7386"/>
</g>
<!-- Node3&#45;&gt;Node4 -->
<g id="edge3" class="edge"><title>Node3&#45;&gt;Node4</title>
<path fill="none" stroke="midnightblue" d="M515.247,-93.2906C523.824,-92.0461 532.431,-90.7971 540.668,-89.6019"/>
<polygon fill="midnightblue" stroke="midnightblue" points="514.612,-89.8461 505.218,-94.7459 515.617,-96.7735 514.612,-89.8461"/>
</g>
<!-- Node5&#45;&gt;Node6 -->
<g id="edge6" class="edge"><title>Node5&#45;&gt;Node6</title>
<path fill="none" stroke="midnightblue" d="M343.098,-20.7654C353.154,-19.6542 363.25,-18.5387 372.888,-17.4737"/>
<polygon fill="midnightblue" stroke="midnightblue" points="342.629,-17.2959 333.074,-21.8731 343.398,-24.2535 342.629,-17.2959"/>
</g>
</g>
</svg>
