<?xml version="1.0" encoding="UTF-8" standalone="no"?>
<!DOCTYPE svg PUBLIC "-//W3C//DTD SVG 1.1//EN"
 "http://www.w3.org/Graphics/SVG/1.1/DTD/svg11.dtd">
<!-- Generated by graphviz version 2.38.0 (20140413.2041)
 -->
<!-- Title: THBuilder::getBias Pages: 1 -->
<svg width="436pt" height="64pt"
 viewBox="0.00 0.00 436.00 64.00" xmlns="http://www.w3.org/2000/svg" xmlns:xlink="http://www.w3.org/1999/xlink">
<g id="graph0" class="graph" transform="scale(1 1) rotate(0) translate(4 60)">
<title>THBuilder::getBias</title>
<!-- Node1 -->
<g id="node1" class="node"><title>Node1</title>
<polygon fill="#bfbfbf" stroke="black" points="0,-6.5 0,-26.5 107,-26.5 107,-6.5 0,-6.5"/>
<text text-anchor="middle" x="53.5" y="-13.7" font-family="Helvetica,sans-Serif" font-size="11.00">THBuilder::getBias</text>
</g>
<!-- Node2 -->
<g id="node2" class="node"><title>Node2</title>
<g id="a_node2"><a xlink:href="classTHBuilder_1_1SearchGroup.xhtml#a794cf5448380674b51022b5d65a240e2" target="_top" xlink:title="Constructor to create the internal Search Group. ">
<polygon fill="none" stroke="black" points="143,-23.5 143,-55.5 279,-55.5 279,-23.5 143,-23.5"/>
<text text-anchor="start" x="151" y="-42.7" font-family="Helvetica,sans-Serif" font-size="11.00">THBuilder::SearchGroup</text>
<text text-anchor="middle" x="211" y="-30.7" font-family="Helvetica,sans-Serif" font-size="11.00">::SearchGroup</text>
</a>
</g>
</g>
<!-- Node1&#45;&gt;Node2 -->
<g id="edge1" class="edge"><title>Node1&#45;&gt;Node2</title>
<path fill="none" stroke="midnightblue" d="M117.254,-25.782C125.664,-27.0258 134.317,-28.3057 142.799,-29.5603"/>
<polygon fill="midnightblue" stroke="midnightblue" points="117.55,-22.2877 107.145,-24.2868 116.525,-29.2123 117.55,-22.2877"/>
</g>
<!-- Node3 -->
<g id="node3" class="node"><title>Node3</title>
<g id="a_node3"><a xlink:href="classTHBuilder_1_1THImpl.xhtml#a0d6e2fd43f50755ff2738e924f66690d" target="_top" xlink:title="THBuilder::THImpl::\lTHImpl">
<polygon fill="none" stroke="black" points="315,-0.5 315,-32.5 428,-32.5 428,-0.5 315,-0.5"/>
<text text-anchor="start" x="323" y="-19.7" font-family="Helvetica,sans-Serif" font-size="11.00">THBuilder::THImpl::</text>
<text text-anchor="middle" x="371.5" y="-7.7" font-family="Helvetica,sans-Serif" font-size="11.00">THImpl</text>
</a>
</g>
</g>
<!-- Node1&#45;&gt;Node3 -->
<g id="edge3" class="edge"><title>Node1&#45;&gt;Node3</title>
<path fill="none" stroke="midnightblue" d="M117.392,-14.9037C125.997,-14.7365 134.716,-14.5936 143,-14.5 203.441,-13.8171 218.559,-13.8395 279,-14.5 290.598,-14.6267 303.022,-14.8438 314.858,-15.0894"/>
<polygon fill="midnightblue" stroke="midnightblue" points="117.304,-11.4047 107.378,-15.1097 117.448,-18.4032 117.304,-11.4047"/>
</g>
<!-- Node2&#45;&gt;Node3 -->
<g id="edge2" class="edge"><title>Node2&#45;&gt;Node3</title>
<path fill="none" stroke="midnightblue" d="M289.247,-28.2906C297.824,-27.0461 306.431,-25.7971 314.668,-24.6019"/>
<polygon fill="midnightblue" stroke="midnightblue" points="288.612,-24.8461 279.218,-29.7459 289.617,-31.7735 288.612,-24.8461"/>
</g>
</g>
</svg>
