<?xml version="1.0" encoding="UTF-8" standalone="no"?>
<!DOCTYPE svg PUBLIC "-//W3C//DTD SVG 1.1//EN"
 "http://www.w3.org/Graphics/SVG/1.1/DTD/svg11.dtd">
<!-- Generated by graphviz version 2.38.0 (20140413.2041)
 -->
<!-- Title: SearchAlgorithmSelectionPolicy::~SearchAlgorithmSelectionPolicy Pages: 1 -->
<svg width="367pt" height="92pt"
 viewBox="0.00 0.00 367.00 92.00" xmlns="http://www.w3.org/2000/svg" xmlns:xlink="http://www.w3.org/1999/xlink">
<g id="graph0" class="graph" transform="scale(1 1) rotate(0) translate(4 88)">
<title>SearchAlgorithmSelectionPolicy::~SearchAlgorithmSelectionPolicy</title>
<!-- Node1 -->
<g id="node1" class="node"><title>Node1</title>
<polygon fill="#bfbfbf" stroke="black" points="0,-19.5 0,-63.5 182,-63.5 182,-19.5 0,-19.5"/>
<text text-anchor="start" x="8" y="-50.7" font-family="Helvetica,sans-Serif" font-size="11.00">SearchAlgorithmSelection</text>
<text text-anchor="start" x="8" y="-38.7" font-family="Helvetica,sans-Serif" font-size="11.00">Policy::~SearchAlgorithmSelection</text>
<text text-anchor="middle" x="91" y="-26.7" font-family="Helvetica,sans-Serif" font-size="11.00">Policy</text>
</g>
<!-- Node2 -->
<g id="node2" class="node"><title>Node2</title>
<g id="a_node2"><a xlink:href="classSearchAlgorithmSelectionPolicy.xhtml#a0f316179ba1d9590efa74cac86eac777" target="_top" xlink:title="Choose the next optimization algorithm to be executed. ">
<polygon fill="none" stroke="black" points="218,-51.5 218,-83.5 359,-83.5 359,-51.5 218,-51.5"/>
<text text-anchor="start" x="226" y="-70.7" font-family="Helvetica,sans-Serif" font-size="11.00">SearchAlgorithmSelection</text>
<text text-anchor="middle" x="288.5" y="-58.7" font-family="Helvetica,sans-Serif" font-size="11.00">Policy::apply</text>
</a>
</g>
</g>
<!-- Node1&#45;&gt;Node2 -->
<g id="edge1" class="edge"><title>Node1&#45;&gt;Node2</title>
<path fill="none" stroke="midnightblue" d="M182.025,-53.4726C190.574,-54.6096 199.203,-55.7572 207.647,-56.8802"/>
<polygon fill="midnightblue" stroke="midnightblue" points="207.464,-60.3866 217.838,-58.2355 208.387,-53.4477 207.464,-60.3866"/>
</g>
<!-- Node3 -->
<g id="node3" class="node"><title>Node3</title>
<g id="a_node3"><a xlink:href="classSearchAlgorithmSelectionPolicy.xhtml#a6b590e565ce6d9f64a1351f2d233b679" target="_top" xlink:title="Rank the performance of the Search instance previously executed. ">
<polygon fill="none" stroke="black" points="218,-0.5 218,-32.5 359,-32.5 359,-0.5 218,-0.5"/>
<text text-anchor="start" x="226" y="-19.7" font-family="Helvetica,sans-Serif" font-size="11.00">SearchAlgorithmSelection</text>
<text text-anchor="middle" x="288.5" y="-7.7" font-family="Helvetica,sans-Serif" font-size="11.00">Policy::rank</text>
</a>
</g>
</g>
<!-- Node1&#45;&gt;Node3 -->
<g id="edge2" class="edge"><title>Node1&#45;&gt;Node3</title>
<path fill="none" stroke="midnightblue" d="M182.025,-29.9879C190.574,-28.8946 199.203,-27.7911 207.647,-26.7113"/>
<polygon fill="midnightblue" stroke="midnightblue" points="208.363,-30.1484 217.838,-25.4081 207.475,-23.2049 208.363,-30.1484"/>
</g>
</g>
</svg>
