<?xml version="1.0" encoding="UTF-8" standalone="no"?>
<!DOCTYPE svg PUBLIC "-//W3C//DTD SVG 1.1//EN"
 "http://www.w3.org/Graphics/SVG/1.1/DTD/svg11.dtd">
<!-- Generated by graphviz version 2.38.0 (20140413.2041)
 -->
<!-- Title: BestListSelectionPolicy&lt; P, pSize, F, fSize, V, vSize &gt; Pages: 1 -->
<svg width="194pt" height="274pt"
 viewBox="0.00 0.00 194.00 274.00" xmlns="http://www.w3.org/2000/svg" xmlns:xlink="http://www.w3.org/1999/xlink">
<g id="graph0" class="graph" transform="scale(1 1) rotate(0) translate(4 270)">
<title>BestListSelectionPolicy&lt; P, pSize, F, fSize, V, vSize &gt;</title>
<!-- Node1 -->
<g id="node1" class="node"><title>Node1</title>
<polygon fill="#bfbfbf" stroke="black" points="17,-157.5 17,-265.5 169,-265.5 169,-157.5 17,-157.5"/>
<text text-anchor="start" x="25" y="-252.7" font-family="Helvetica,sans-Serif" font-size="11.00">BestListSelectionPolicy</text>
<text text-anchor="start" x="25" y="-240.7" font-family="Helvetica,sans-Serif" font-size="11.00">&lt; P, pSize, F, fSize,</text>
<text text-anchor="middle" x="93" y="-228.7" font-family="Helvetica,sans-Serif" font-size="11.00"> V, vSize &gt;</text>
<polyline fill="none" stroke="black" points="17,-221.5 169,-221.5 "/>
<text text-anchor="middle" x="93" y="-208.7" font-family="Helvetica,sans-Serif" font-size="11.00"> </text>
<polyline fill="none" stroke="black" points="17,-201.5 169,-201.5 "/>
<text text-anchor="start" x="25" y="-188.7" font-family="Helvetica,sans-Serif" font-size="11.00">+ BestListSelectionPolicy()</text>
<text text-anchor="start" x="25" y="-176.7" font-family="Helvetica,sans-Serif" font-size="11.00">+ ~BestListSelectionPolicy()</text>
<text text-anchor="start" x="25" y="-164.7" font-family="Helvetica,sans-Serif" font-size="11.00">+ apply()</text>
</g>
<!-- Node2 -->
<g id="node2" class="node"><title>Node2</title>
<g id="a_node2"><a xlink:href="classRandomBestListSelectionPolicy.xhtml" target="_top" xlink:title="This policy selects a random Solution from the BestList instance. ">
<polygon fill="none" stroke="black" points="-1.42109e-14,-0.5 -1.42109e-14,-120.5 186,-120.5 186,-0.5 -1.42109e-14,-0.5"/>
<text text-anchor="start" x="8" y="-107.7" font-family="Helvetica,sans-Serif" font-size="11.00">RandomBestListSelectionPolicy</text>
<text text-anchor="start" x="8" y="-95.7" font-family="Helvetica,sans-Serif" font-size="11.00">&lt; P, pSize, F, fSize, V,</text>
<text text-anchor="middle" x="93" y="-83.7" font-family="Helvetica,sans-Serif" font-size="11.00"> vSize &gt;</text>
<polyline fill="none" stroke="black" points="-1.42109e-14,-76.5 186,-76.5 "/>
<text text-anchor="middle" x="93" y="-63.7" font-family="Helvetica,sans-Serif" font-size="11.00"> </text>
<polyline fill="none" stroke="black" points="-1.42109e-14,-56.5 186,-56.5 "/>
<text text-anchor="start" x="8" y="-43.7" font-family="Helvetica,sans-Serif" font-size="11.00">+ RandomBestListSelectionPolicy()</text>
<text text-anchor="start" x="8" y="-31.7" font-family="Helvetica,sans-Serif" font-size="11.00">+ ~RandomBestListSelection</text>
<text text-anchor="start" x="8" y="-19.7" font-family="Helvetica,sans-Serif" font-size="11.00">Policy()</text>
<text text-anchor="start" x="8" y="-7.7" font-family="Helvetica,sans-Serif" font-size="11.00">+ apply()</text>
</a>
</g>
</g>
<!-- Node1&#45;&gt;Node2 -->
<g id="edge1" class="edge"><title>Node1&#45;&gt;Node2</title>
<path fill="none" stroke="midnightblue" d="M93,-146.969C93,-138.208 93,-129.24 93,-120.564"/>
<polygon fill="none" stroke="midnightblue" points="89.5001,-147.128 93,-157.128 96.5001,-147.128 89.5001,-147.128"/>
</g>
</g>
</svg>
