<?xml version="1.0" encoding="UTF-8" standalone="no"?>
<!DOCTYPE svg PUBLIC "-//W3C//DTD SVG 1.1//EN"
 "http://www.w3.org/Graphics/SVG/1.1/DTD/svg11.dtd">
<!-- Generated by graphviz version 2.38.0 (20140413.2041)
 -->
<!-- Title: HillClimbing::getBestFitness Pages: 1 -->
<svg width="515pt" height="29pt"
 viewBox="0.00 0.00 515.00 29.00" xmlns="http://www.w3.org/2000/svg" xmlns:xlink="http://www.w3.org/1999/xlink">
<g id="graph0" class="graph" transform="scale(1 1) rotate(0) translate(4 25)">
<title>HillClimbing::getBestFitness</title>
<!-- Node1 -->
<g id="node1" class="node"><title>Node1</title>
<polygon fill="#bfbfbf" stroke="black" points="0,-0.5 0,-20.5 151,-20.5 151,-0.5 0,-0.5"/>
<text text-anchor="middle" x="75.5" y="-7.7" font-family="Helvetica,sans-Serif" font-size="11.00">HillClimbing::getBestFitness</text>
</g>
<!-- Node2 -->
<g id="node2" class="node"><title>Node2</title>
<g id="a_node2"><a xlink:href="classHillClimbing.xhtml#a13d4097b5483b2aaaff381af6b4ccf79" target="_top" xlink:title="Get the best Solution found since the last time the method startup() was called. ">
<polygon fill="none" stroke="black" points="187,-0.5 187,-20.5 348,-20.5 348,-0.5 187,-0.5"/>
<text text-anchor="middle" x="267.5" y="-7.7" font-family="Helvetica,sans-Serif" font-size="11.00">HillClimbing::getBestIndividual</text>
</a>
</g>
</g>
<!-- Node1&#45;&gt;Node2 -->
<g id="edge1" class="edge"><title>Node1&#45;&gt;Node2</title>
<path fill="none" stroke="midnightblue" d="M151.048,-10.5C159.492,-10.5 168.162,-10.5 176.774,-10.5"/>
<polygon fill="midnightblue" stroke="midnightblue" points="176.84,-14.0001 186.84,-10.5 176.84,-7.0001 176.84,-14.0001"/>
</g>
<!-- Node3 -->
<g id="node3" class="node"><title>Node3</title>
<g id="a_node3"><a xlink:href="classSearch.xhtml#a5997e43c8ba27480819f3e6358f984f4" target="_top" xlink:title="Search::getPopulation">
<polygon fill="none" stroke="black" points="384,-0.5 384,-20.5 507,-20.5 507,-0.5 384,-0.5"/>
<text text-anchor="middle" x="445.5" y="-7.7" font-family="Helvetica,sans-Serif" font-size="11.00">Search::getPopulation</text>
</a>
</g>
</g>
<!-- Node2&#45;&gt;Node3 -->
<g id="edge2" class="edge"><title>Node2&#45;&gt;Node3</title>
<path fill="none" stroke="midnightblue" d="M348.004,-10.5C356.553,-10.5 365.21,-10.5 373.648,-10.5"/>
<polygon fill="midnightblue" stroke="midnightblue" points="373.81,-14.0001 383.81,-10.5 373.809,-7.0001 373.81,-14.0001"/>
</g>
</g>
</svg>
