<?xml version="1.0" encoding="UTF-8" standalone="no"?>
<!DOCTYPE svg PUBLIC "-//W3C//DTD SVG 1.1//EN"
 "http://www.w3.org/Graphics/SVG/1.1/DTD/svg11.dtd">
<!-- Generated by graphviz version 2.38.0 (20140413.2041)
 -->
<!-- Title: BestListUpdatePolicy::euclideanDistance Pages: 1 -->
<svg width="328pt" height="92pt"
 viewBox="0.00 0.00 328.00 92.00" xmlns="http://www.w3.org/2000/svg" xmlns:xlink="http://www.w3.org/1999/xlink">
<g id="graph0" class="graph" transform="scale(1 1) rotate(0) translate(4 88)">
<title>BestListUpdatePolicy::euclideanDistance</title>
<!-- Node1 -->
<g id="node1" class="node"><title>Node1</title>
<polygon fill="#bfbfbf" stroke="black" points="0,-25.5 0,-57.5 119,-57.5 119,-25.5 0,-25.5"/>
<text text-anchor="start" x="8" y="-44.7" font-family="Helvetica,sans-Serif" font-size="11.00">BestListUpdatePolicy</text>
<text text-anchor="middle" x="59.5" y="-32.7" font-family="Helvetica,sans-Serif" font-size="11.00">::euclideanDistance</text>
</g>
<!-- Node2 -->
<g id="node2" class="node"><title>Node2</title>
<g id="a_node2"><a xlink:href="classConvergentBestListUpdatePolicy.xhtml#a6382937d32ac8bab7169f216fcd3048f" target="_top" xlink:title="This method implements a behavior that focus on convergence speed when updating the solutions from th...">
<polygon fill="none" stroke="black" points="164.5,-51.5 164.5,-83.5 310.5,-83.5 310.5,-51.5 164.5,-51.5"/>
<text text-anchor="start" x="172.5" y="-70.7" font-family="Helvetica,sans-Serif" font-size="11.00">ConvergentBestListUpdate</text>
<text text-anchor="middle" x="237.5" y="-58.7" font-family="Helvetica,sans-Serif" font-size="11.00">Policy::apply</text>
</a>
</g>
</g>
<!-- Node1&#45;&gt;Node2 -->
<g id="edge1" class="edge"><title>Node1&#45;&gt;Node2</title>
<path fill="none" stroke="midnightblue" d="M129.124,-51.6377C140.687,-53.3458 152.72,-55.1234 164.369,-56.8442"/>
<polygon fill="midnightblue" stroke="midnightblue" points="129.51,-48.1567 119.105,-50.1576 128.487,-55.0815 129.51,-48.1567"/>
</g>
<!-- Node3 -->
<g id="node3" class="node"><title>Node3</title>
<g id="a_node3"><a xlink:href="classDivergentBestListUpdatePolicy.xhtml#a793d47a0c458eef94b27fbee73e5df0e" target="_top" xlink:title="This method implements a behavior that promotes diversity when updating the solutions from the BestLi...">
<polygon fill="none" stroke="black" points="155,-0.5 155,-32.5 320,-32.5 320,-0.5 155,-0.5"/>
<text text-anchor="start" x="163" y="-19.7" font-family="Helvetica,sans-Serif" font-size="11.00">DivergentBestListUpdatePolicy</text>
<text text-anchor="middle" x="237.5" y="-7.7" font-family="Helvetica,sans-Serif" font-size="11.00">::apply</text>
</a>
</g>
</g>
<!-- Node1&#45;&gt;Node3 -->
<g id="edge2" class="edge"><title>Node1&#45;&gt;Node3</title>
<path fill="none" stroke="midnightblue" d="M129.245,-31.735C137.677,-30.5373 146.357,-29.3044 154.954,-28.0832"/>
<polygon fill="midnightblue" stroke="midnightblue" points="128.514,-28.3037 119.105,-33.1754 129.498,-35.2342 128.514,-28.3037"/>
</g>
</g>
</svg>
