<?xml version="1.0" encoding="UTF-8" standalone="no"?>
<!DOCTYPE svg PUBLIC "-//W3C//DTD SVG 1.1//EN"
 "http://www.w3.org/Graphics/SVG/1.1/DTD/svg11.dtd">
<!-- Generated by graphviz version 2.38.0 (20140413.2041)
 -->
<!-- Title: Region::getOriginalDimension Pages: 1 -->
<svg width="304pt" height="68pt"
 viewBox="0.00 0.00 304.00 68.00" xmlns="http://www.w3.org/2000/svg" xmlns:xlink="http://www.w3.org/1999/xlink">
<g id="graph0" class="graph" transform="scale(1 1) rotate(0) translate(4 64)">
<title>Region::getOriginalDimension</title>
<!-- Node1 -->
<g id="node1" class="node"><title>Node1</title>
<polygon fill="#bfbfbf" stroke="black" points="0,-19.5 0,-39.5 160,-39.5 160,-19.5 0,-19.5"/>
<text text-anchor="middle" x="80" y="-26.7" font-family="Helvetica,sans-Serif" font-size="11.00">Region::getOriginalDimension</text>
</g>
<!-- Node2 -->
<g id="node2" class="node"><title>Node2</title>
<g id="a_node2"><a xlink:href="classHillClimbing.xhtml#a7c67b745880b93be26eb4fa113f0e37f" target="_top" xlink:title="Perform the actual optimization only until the next improvement. ">
<polygon fill="none" stroke="black" points="196,-39.5 196,-59.5 296,-59.5 296,-39.5 196,-39.5"/>
<text text-anchor="middle" x="246" y="-46.7" font-family="Helvetica,sans-Serif" font-size="11.00">HillClimbing::next</text>
</a>
</g>
</g>
<!-- Node1&#45;&gt;Node2 -->
<g id="edge1" class="edge"><title>Node1&#45;&gt;Node2</title>
<path fill="none" stroke="midnightblue" d="M170.059,-40.3609C178.843,-41.4321 187.518,-42.49 195.676,-43.4849"/>
<polygon fill="midnightblue" stroke="midnightblue" points="170.468,-36.8849 160.118,-39.1485 169.62,-43.8334 170.468,-36.8849"/>
</g>
<!-- Node3 -->
<g id="node3" class="node"><title>Node3</title>
<g id="a_node3"><a xlink:href="classPSO.xhtml#a25e15ab34186e7c52a4789108ae24ece" target="_top" xlink:title="Perform the actual optimization only until the next improvement. ">
<polygon fill="none" stroke="black" points="213,-0.5 213,-20.5 279,-20.5 279,-0.5 213,-0.5"/>
<text text-anchor="middle" x="246" y="-7.7" font-family="Helvetica,sans-Serif" font-size="11.00">PSO::next</text>
</a>
</g>
</g>
<!-- Node1&#45;&gt;Node3 -->
<g id="edge2" class="edge"><title>Node1&#45;&gt;Node3</title>
<path fill="none" stroke="midnightblue" d="M170.182,-19.168C185.458,-17.3982 200.398,-15.6673 212.862,-14.2233"/>
<polygon fill="midnightblue" stroke="midnightblue" points="169.648,-15.7063 160.118,-20.3339 170.454,-22.6597 169.648,-15.7063"/>
</g>
</g>
</svg>
