<?xml version="1.0" encoding="UTF-8" standalone="no"?>
<!DOCTYPE svg PUBLIC "-//W3C//DTD SVG 1.1//EN"
 "http://www.w3.org/Graphics/SVG/1.1/DTD/svg11.dtd">
<!-- Generated by graphviz version 2.38.0 (20140413.2041)
 -->
<!-- Title: Search::setFitnessPolicy Pages: 1 -->
<svg width="463pt" height="64pt"
 viewBox="0.00 0.00 463.00 64.00" xmlns="http://www.w3.org/2000/svg" xmlns:xlink="http://www.w3.org/1999/xlink">
<g id="graph0" class="graph" transform="scale(1 1) rotate(0) translate(4 60)">
<title>Search::setFitnessPolicy</title>
<!-- Node1 -->
<g id="node1" class="node"><title>Node1</title>
<polygon fill="#bfbfbf" stroke="black" points="0,-6.5 0,-26.5 134,-26.5 134,-6.5 0,-6.5"/>
<text text-anchor="middle" x="67" y="-13.7" font-family="Helvetica,sans-Serif" font-size="11.00">Search::setFitnessPolicy</text>
</g>
<!-- Node2 -->
<g id="node2" class="node"><title>Node2</title>
<g id="a_node2"><a xlink:href="classTHBuilder_1_1SearchGroup.xhtml#a794cf5448380674b51022b5d65a240e2" target="_top" xlink:title="Constructor to create the internal Search Group. ">
<polygon fill="none" stroke="black" points="170,-23.5 170,-55.5 306,-55.5 306,-23.5 170,-23.5"/>
<text text-anchor="start" x="178" y="-42.7" font-family="Helvetica,sans-Serif" font-size="11.00">THBuilder::SearchGroup</text>
<text text-anchor="middle" x="238" y="-30.7" font-family="Helvetica,sans-Serif" font-size="11.00">::SearchGroup</text>
</a>
</g>
</g>
<!-- Node1&#45;&gt;Node2 -->
<g id="edge1" class="edge"><title>Node1&#45;&gt;Node2</title>
<path fill="none" stroke="midnightblue" d="M144.233,-26.8749C152.75,-28.034 161.38,-29.2085 169.772,-30.3507"/>
<polygon fill="midnightblue" stroke="midnightblue" points="144.689,-23.4048 134.308,-25.5242 143.745,-30.3408 144.689,-23.4048"/>
</g>
<!-- Node3 -->
<g id="node3" class="node"><title>Node3</title>
<g id="a_node3"><a xlink:href="classTHBuilder_1_1THImpl.xhtml#a0d6e2fd43f50755ff2738e924f66690d" target="_top" xlink:title="THBuilder::THImpl::\lTHImpl">
<polygon fill="none" stroke="black" points="342,-0.5 342,-32.5 455,-32.5 455,-0.5 342,-0.5"/>
<text text-anchor="start" x="350" y="-19.7" font-family="Helvetica,sans-Serif" font-size="11.00">THBuilder::THImpl::</text>
<text text-anchor="middle" x="398.5" y="-7.7" font-family="Helvetica,sans-Serif" font-size="11.00">THImpl</text>
</a>
</g>
</g>
<!-- Node1&#45;&gt;Node3 -->
<g id="edge3" class="edge"><title>Node1&#45;&gt;Node3</title>
<path fill="none" stroke="midnightblue" d="M144.26,-14.8414C152.941,-14.701 161.662,-14.5817 170,-14.5 230.442,-13.9075 245.559,-13.8395 306,-14.5 317.598,-14.6267 330.022,-14.8438 341.858,-15.0894"/>
<polygon fill="midnightblue" stroke="midnightblue" points="144.052,-11.3443 134.114,-15.0147 144.172,-18.3433 144.052,-11.3443"/>
</g>
<!-- Node2&#45;&gt;Node3 -->
<g id="edge2" class="edge"><title>Node2&#45;&gt;Node3</title>
<path fill="none" stroke="midnightblue" d="M316.247,-28.2906C324.824,-27.0461 333.431,-25.7971 341.668,-24.6019"/>
<polygon fill="midnightblue" stroke="midnightblue" points="315.612,-24.8461 306.218,-29.7459 316.617,-31.7735 315.612,-24.8461"/>
</g>
</g>
</svg>
