<?xml version="1.0" encoding="UTF-8" standalone="no"?>
<!DOCTYPE svg PUBLIC "-//W3C//DTD SVG 1.1//EN"
 "http://www.w3.org/Graphics/SVG/1.1/DTD/svg11.dtd">
<!-- Generated by graphviz version 2.38.0 (20140413.2041)
 -->
<!-- Title: Search::getFitnessPolicy Pages: 1 -->
<svg width="292pt" height="68pt"
 viewBox="0.00 0.00 292.00 68.00" xmlns="http://www.w3.org/2000/svg" xmlns:xlink="http://www.w3.org/1999/xlink">
<g id="graph0" class="graph" transform="scale(1 1) rotate(0) translate(4 64)">
<title>Search::getFitnessPolicy</title>
<!-- Node1 -->
<g id="node1" class="node"><title>Node1</title>
<polygon fill="#bfbfbf" stroke="black" points="0,-19.5 0,-39.5 135,-39.5 135,-19.5 0,-19.5"/>
<text text-anchor="middle" x="67.5" y="-26.7" font-family="Helvetica,sans-Serif" font-size="11.00">Search::getFitnessPolicy</text>
</g>
<!-- Node2 -->
<g id="node2" class="node"><title>Node2</title>
<g id="a_node2"><a xlink:href="classHillClimbing.xhtml#a845d2e4cac39582bf1218a90431c2f3c" target="_top" xlink:title="Initialize the algorithm for a new optimization. ">
<polygon fill="none" stroke="black" points="171,-39.5 171,-59.5 284,-59.5 284,-39.5 171,-39.5"/>
<text text-anchor="middle" x="227.5" y="-46.7" font-family="Helvetica,sans-Serif" font-size="11.00">HillClimbing::startup</text>
</a>
</g>
</g>
<!-- Node1&#45;&gt;Node2 -->
<g id="edge1" class="edge"><title>Node1&#45;&gt;Node2</title>
<path fill="none" stroke="midnightblue" d="M145.077,-39.1932C153.655,-40.2791 162.271,-41.3698 170.521,-42.414"/>
<polygon fill="midnightblue" stroke="midnightblue" points="145.409,-35.7074 135.048,-37.9238 144.53,-42.652 145.409,-35.7074"/>
</g>
<!-- Node3 -->
<g id="node3" class="node"><title>Node3</title>
<g id="a_node3"><a xlink:href="classPSO.xhtml#a8fb3e9a46396074cbbdc2d04a83783a5" target="_top" xlink:title="Initialize the algorithm for a new optimization. ">
<polygon fill="none" stroke="black" points="188,-0.5 188,-20.5 267,-20.5 267,-0.5 188,-0.5"/>
<text text-anchor="middle" x="227.5" y="-7.7" font-family="Helvetica,sans-Serif" font-size="11.00">PSO::startup</text>
</a>
</g>
</g>
<!-- Node1&#45;&gt;Node3 -->
<g id="edge2" class="edge"><title>Node1&#45;&gt;Node3</title>
<path fill="none" stroke="midnightblue" d="M145.268,-20.2684C160.092,-18.4858 175.021,-16.6906 187.964,-15.1341"/>
<polygon fill="midnightblue" stroke="midnightblue" points="144.559,-16.8284 135.048,-21.4974 145.395,-23.7783 144.559,-16.8284"/>
</g>
</g>
</svg>
