<?xml version="1.0" encoding="UTF-8" standalone="no"?>
<!DOCTYPE svg PUBLIC "-//W3C//DTD SVG 1.1//EN"
 "http://www.w3.org/Graphics/SVG/1.1/DTD/svg11.dtd">
<!-- Generated by graphviz version 2.38.0 (20140413.2041)
 -->
<!-- Title: THBuilder::getMaxIterations Pages: 1 -->
<svg width="323pt" height="80pt"
 viewBox="0.00 0.00 323.00 80.00" xmlns="http://www.w3.org/2000/svg" xmlns:xlink="http://www.w3.org/1999/xlink">
<g id="graph0" class="graph" transform="scale(1 1) rotate(0) translate(4 76)">
<title>THBuilder::getMaxIterations</title>
<!-- Node1 -->
<g id="node1" class="node"><title>Node1</title>
<polygon fill="#bfbfbf" stroke="black" points="0,-22.5 0,-42.5 151,-42.5 151,-22.5 0,-22.5"/>
<text text-anchor="middle" x="75.5" y="-29.7" font-family="Helvetica,sans-Serif" font-size="11.00">THBuilder::getMaxIterations</text>
</g>
<!-- Node2 -->
<g id="node2" class="node"><title>Node2</title>
<g id="a_node2"><a xlink:href="classTHBuilder_1_1THImpl.xhtml#a0d6e2fd43f50755ff2738e924f66690d" target="_top" xlink:title="THBuilder::THImpl::\lTHImpl">
<polygon fill="none" stroke="black" points="194.5,-39.5 194.5,-71.5 307.5,-71.5 307.5,-39.5 194.5,-39.5"/>
<text text-anchor="start" x="202.5" y="-58.7" font-family="Helvetica,sans-Serif" font-size="11.00">THBuilder::THImpl::</text>
<text text-anchor="middle" x="251" y="-46.7" font-family="Helvetica,sans-Serif" font-size="11.00">THImpl</text>
</a>
</g>
</g>
<!-- Node1&#45;&gt;Node2 -->
<g id="edge1" class="edge"><title>Node1&#45;&gt;Node2</title>
<path fill="none" stroke="midnightblue" d="M161.002,-43.702C172.322,-45.2026 183.692,-46.71 194.343,-48.1218"/>
<polygon fill="midnightblue" stroke="midnightblue" points="161.46,-40.2321 151.087,-42.3876 160.54,-47.1714 161.46,-40.2321"/>
</g>
<!-- Node3 -->
<g id="node3" class="node"><title>Node3</title>
<g id="a_node3"><a xlink:href="classTHBuilder_1_1THImpl.xhtml#a943301db5154fd7b672119b5c9917303" target="_top" xlink:title="Starts the Treasure Hunt mechanisms. ">
<polygon fill="none" stroke="black" points="187,-0.5 187,-20.5 315,-20.5 315,-0.5 187,-0.5"/>
<text text-anchor="middle" x="251" y="-7.7" font-family="Helvetica,sans-Serif" font-size="11.00">THBuilder::THImpl::run</text>
</a>
</g>
</g>
<!-- Node1&#45;&gt;Node3 -->
<g id="edge2" class="edge"><title>Node1&#45;&gt;Node3</title>
<path fill="none" stroke="midnightblue" d="M161.214,-21.7581C169.87,-20.6606 178.553,-19.5596 186.918,-18.4989"/>
<polygon fill="midnightblue" stroke="midnightblue" points="160.567,-18.3121 151.087,-23.0423 161.447,-25.2565 160.567,-18.3121"/>
</g>
</g>
</svg>
