<?xml version="1.0" encoding="UTF-8" standalone="no"?>
<!DOCTYPE svg PUBLIC "-//W3C//DTD SVG 1.1//EN"
 "http://www.w3.org/Graphics/SVG/1.1/DTD/svg11.dtd">
<!-- Generated by graphviz version 2.38.0 (20140413.2041)
 -->
<!-- Title: FitnessPolicy::apply Pages: 1 -->
<svg width="444pt" height="260pt"
 viewBox="0.00 0.00 444.00 260.00" xmlns="http://www.w3.org/2000/svg" xmlns:xlink="http://www.w3.org/1999/xlink">
<g id="graph0" class="graph" transform="scale(1 1) rotate(0) translate(4 256)">
<title>FitnessPolicy::apply</title>
<!-- Node1 -->
<g id="node1" class="node"><title>Node1</title>
<polygon fill="#bfbfbf" stroke="black" points="0,-121.5 0,-141.5 111,-141.5 111,-121.5 0,-121.5"/>
<text text-anchor="middle" x="55.5" y="-128.7" font-family="Helvetica,sans-Serif" font-size="11.00">FitnessPolicy::apply</text>
</g>
<!-- Node2 -->
<g id="node2" class="node"><title>Node2</title>
<g id="a_node2"><a xlink:href="classHillClimbing.xhtml#a7c67b745880b93be26eb4fa113f0e37f" target="_top" xlink:title="Perform the actual optimization only until the next improvement. ">
<polygon fill="none" stroke="black" points="167,-231.5 167,-251.5 267,-251.5 267,-231.5 167,-231.5"/>
<text text-anchor="middle" x="217" y="-238.7" font-family="Helvetica,sans-Serif" font-size="11.00">HillClimbing::next</text>
</a>
</g>
</g>
<!-- Node1&#45;&gt;Node2 -->
<g id="edge1" class="edge"><title>Node1&#45;&gt;Node2</title>
<path fill="none" stroke="midnightblue" d="M69.7699,-149.676C85.8002,-170.335 114.673,-203.627 147,-222.5 153.116,-226.071 159.93,-228.993 166.826,-231.379"/>
<polygon fill="midnightblue" stroke="midnightblue" points="72.5395,-147.536 63.7134,-141.675 66.9581,-151.76 72.5395,-147.536"/>
</g>
<!-- Node3 -->
<g id="node3" class="node"><title>Node3</title>
<g id="a_node3"><a xlink:href="classPSO.xhtml#a25e15ab34186e7c52a4789108ae24ece" target="_top" xlink:title="Perform the actual optimization only until the next improvement. ">
<polygon fill="none" stroke="black" points="184,-192.5 184,-212.5 250,-212.5 250,-192.5 184,-192.5"/>
<text text-anchor="middle" x="217" y="-199.7" font-family="Helvetica,sans-Serif" font-size="11.00">PSO::next</text>
</a>
</g>
</g>
<!-- Node1&#45;&gt;Node3 -->
<g id="edge2" class="edge"><title>Node1&#45;&gt;Node3</title>
<path fill="none" stroke="midnightblue" d="M79.8295,-147.106C97.6258,-158.456 123.073,-173.522 147,-183.5 158.697,-188.378 172.027,-192.385 183.832,-195.441"/>
<polygon fill="midnightblue" stroke="midnightblue" points="81.564,-144.059 71.2692,-141.555 77.7558,-149.932 81.564,-144.059"/>
</g>
<!-- Node4 -->
<g id="node4" class="node"><title>Node4</title>
<g id="a_node4"><a xlink:href="classFitnessPolicy.xhtml#adfac4092c631ea82aa5cd0ea03526d1e" target="_top" xlink:title="FitnessPolicy\&lt;\&gt;::~Fitness\lPolicy">
<polygon fill="none" stroke="black" points="147,-141.5 147,-173.5 287,-173.5 287,-141.5 147,-141.5"/>
<text text-anchor="start" x="155" y="-160.7" font-family="Helvetica,sans-Serif" font-size="11.00">FitnessPolicy&lt;&gt;::~Fitness</text>
<text text-anchor="middle" x="217" y="-148.7" font-family="Helvetica,sans-Serif" font-size="11.00">Policy</text>
</a>
</g>
</g>
<!-- Node1&#45;&gt;Node4 -->
<g id="edge3" class="edge"><title>Node1&#45;&gt;Node4</title>
<path fill="none" stroke="midnightblue" d="M121.479,-142.092C129.863,-143.459 138.473,-144.862 146.92,-146.239"/>
<polygon fill="midnightblue" stroke="midnightblue" points="121.824,-138.602 111.391,-140.448 120.697,-145.511 121.824,-138.602"/>
</g>
<!-- Node5 -->
<g id="node5" class="node"><title>Node5</title>
<g id="a_node5"><a xlink:href="classTHBuilder_1_1SearchGroup.xhtml#a794cf5448380674b51022b5d65a240e2" target="_top" xlink:title="Constructor to create the internal Search Group. ">
<polygon fill="none" stroke="black" points="149,-90.5 149,-122.5 285,-122.5 285,-90.5 149,-90.5"/>
<text text-anchor="start" x="157" y="-109.7" font-family="Helvetica,sans-Serif" font-size="11.00">THBuilder::SearchGroup</text>
<text text-anchor="middle" x="217" y="-97.7" font-family="Helvetica,sans-Serif" font-size="11.00">::SearchGroup</text>
</a>
</g>
</g>
<!-- Node1&#45;&gt;Node5 -->
<g id="edge4" class="edge"><title>Node1&#45;&gt;Node5</title>
<path fill="none" stroke="midnightblue" d="M121.46,-121.318C130.5,-119.901 139.803,-118.443 148.881,-117.02"/>
<polygon fill="midnightblue" stroke="midnightblue" points="120.728,-117.89 111.391,-122.896 121.812,-124.806 120.728,-117.89"/>
</g>
<!-- Node7 -->
<g id="node7" class="node"><title>Node7</title>
<g id="a_node7"><a xlink:href="classTHBuilder_1_1SearchGroup.xhtml#aafebb836a1ec681213319a024a254ca8" target="_top" xlink:title="Reset the location of the population individuals and calculate the fitness. ">
<polygon fill="none" stroke="black" points="149,-39.5 149,-71.5 285,-71.5 285,-39.5 149,-39.5"/>
<text text-anchor="start" x="157" y="-58.7" font-family="Helvetica,sans-Serif" font-size="11.00">THBuilder::SearchGroup</text>
<text text-anchor="middle" x="217" y="-46.7" font-family="Helvetica,sans-Serif" font-size="11.00">::resetPopulation</text>
</a>
</g>
</g>
<!-- Node1&#45;&gt;Node7 -->
<g id="edge6" class="edge"><title>Node1&#45;&gt;Node7</title>
<path fill="none" stroke="midnightblue" d="M81.8117,-116.225C99.6826,-105.762 124.379,-91.9445 147,-81.5 154.438,-78.0656 162.47,-74.7234 170.333,-71.642"/>
<polygon fill="midnightblue" stroke="midnightblue" points="79.9624,-113.252 73.1357,-121.354 83.525,-119.278 79.9624,-113.252"/>
</g>
<!-- Node8 -->
<g id="node8" class="node"><title>Node8</title>
<g id="a_node8"><a xlink:href="classTHBuilder_1_1THImpl.xhtml#a943301db5154fd7b672119b5c9917303" target="_top" xlink:title="Starts the Treasure Hunt mechanisms. ">
<polygon fill="none" stroke="black" points="153,-0.5 153,-20.5 281,-20.5 281,-0.5 153,-0.5"/>
<text text-anchor="middle" x="217" y="-7.7" font-family="Helvetica,sans-Serif" font-size="11.00">THBuilder::THImpl::run</text>
</a>
</g>
</g>
<!-- Node1&#45;&gt;Node8 -->
<g id="edge8" class="edge"><title>Node1&#45;&gt;Node8</title>
<path fill="none" stroke="midnightblue" d="M68.4278,-112.73C83.8542,-89.9633 112.837,-51.9734 147,-30.5 153.441,-26.4513 160.731,-23.1965 168.098,-20.5871"/>
<polygon fill="midnightblue" stroke="midnightblue" points="65.4315,-110.916 62.8455,-121.191 71.2743,-114.772 65.4315,-110.916"/>
</g>
<!-- Node6 -->
<g id="node6" class="node"><title>Node6</title>
<g id="a_node6"><a xlink:href="classTHBuilder_1_1THImpl.xhtml#a0d6e2fd43f50755ff2738e924f66690d" target="_top" xlink:title="THBuilder::THImpl::\lTHImpl">
<polygon fill="none" stroke="black" points="323,-64.5 323,-96.5 436,-96.5 436,-64.5 323,-64.5"/>
<text text-anchor="start" x="331" y="-83.7" font-family="Helvetica,sans-Serif" font-size="11.00">THBuilder::THImpl::</text>
<text text-anchor="middle" x="379.5" y="-71.7" font-family="Helvetica,sans-Serif" font-size="11.00">THImpl</text>
</a>
</g>
</g>
<!-- Node5&#45;&gt;Node6 -->
<g id="edge5" class="edge"><title>Node5&#45;&gt;Node6</title>
<path fill="none" stroke="midnightblue" d="M295.2,-93.9941C304.515,-92.4851 313.886,-90.9671 322.808,-89.5217"/>
<polygon fill="midnightblue" stroke="midnightblue" points="294.448,-90.5702 285.136,-95.6243 295.568,-97.4801 294.448,-90.5702"/>
</g>
<!-- Node7&#45;&gt;Node6 -->
<g id="edge7" class="edge"><title>Node7&#45;&gt;Node6</title>
<path fill="none" stroke="midnightblue" d="M295.2,-67.5249C304.515,-68.9759 313.886,-70.4355 322.808,-71.8253"/>
<polygon fill="midnightblue" stroke="midnightblue" points="295.556,-64.0383 285.136,-65.9574 294.479,-70.9549 295.556,-64.0383"/>
</g>
</g>
</svg>
