<?xml version="1.0" encoding="UTF-8" standalone="no"?>
<!DOCTYPE svg PUBLIC "-//W3C//DTD SVG 1.1//EN"
 "http://www.w3.org/Graphics/SVG/1.1/DTD/svg11.dtd">
<!-- Generated by graphviz version 2.38.0 (20140413.2041)
 -->
<!-- Title: Search::getName Pages: 1 -->
<svg width="603pt" height="64pt"
 viewBox="0.00 0.00 603.00 64.00" xmlns="http://www.w3.org/2000/svg" xmlns:xlink="http://www.w3.org/1999/xlink">
<g id="graph0" class="graph" transform="scale(1 1) rotate(0) translate(4 60)">
<title>Search::getName</title>
<!-- Node1 -->
<g id="node1" class="node"><title>Node1</title>
<polygon fill="#bfbfbf" stroke="black" points="0,-6.5 0,-26.5 101,-26.5 101,-6.5 0,-6.5"/>
<text text-anchor="middle" x="50.5" y="-13.7" font-family="Helvetica,sans-Serif" font-size="11.00">Search::getName</text>
</g>
<!-- Node2 -->
<g id="node2" class="node"><title>Node2</title>
<g id="a_node2"><a xlink:href="classSearch.xhtml#af9f46406f1f1f7f89ab294c155738ca6" target="_top" xlink:title="Set the full search space. ">
<polygon fill="none" stroke="black" points="137,-6.5 137,-26.5 274,-26.5 274,-6.5 137,-6.5"/>
<text text-anchor="middle" x="205.5" y="-13.7" font-family="Helvetica,sans-Serif" font-size="11.00">Search::setSearchSpace</text>
</a>
</g>
</g>
<!-- Node1&#45;&gt;Node2 -->
<g id="edge1" class="edge"><title>Node1&#45;&gt;Node2</title>
<path fill="none" stroke="midnightblue" d="M111.287,-16.5C119.717,-16.5 128.432,-16.5 136.994,-16.5"/>
<polygon fill="midnightblue" stroke="midnightblue" points="111.175,-13.0001 101.175,-16.5 111.175,-20.0001 111.175,-13.0001"/>
</g>
<!-- Node3 -->
<g id="node3" class="node"><title>Node3</title>
<g id="a_node3"><a xlink:href="classTHBuilder_1_1SearchGroup.xhtml#a794cf5448380674b51022b5d65a240e2" target="_top" xlink:title="Constructor to create the internal Search Group. ">
<polygon fill="none" stroke="black" points="310,-23.5 310,-55.5 446,-55.5 446,-23.5 310,-23.5"/>
<text text-anchor="start" x="318" y="-42.7" font-family="Helvetica,sans-Serif" font-size="11.00">THBuilder::SearchGroup</text>
<text text-anchor="middle" x="378" y="-30.7" font-family="Helvetica,sans-Serif" font-size="11.00">::SearchGroup</text>
</a>
</g>
</g>
<!-- Node2&#45;&gt;Node3 -->
<g id="edge2" class="edge"><title>Node2&#45;&gt;Node3</title>
<path fill="none" stroke="midnightblue" d="M284.336,-26.9999C292.878,-28.1521 301.519,-29.3178 309.914,-30.4503"/>
<polygon fill="midnightblue" stroke="midnightblue" points="284.754,-23.5247 274.376,-25.6563 283.818,-30.4618 284.754,-23.5247"/>
</g>
<!-- Node4 -->
<g id="node4" class="node"><title>Node4</title>
<g id="a_node4"><a xlink:href="classTHBuilder_1_1THImpl.xhtml#a0d6e2fd43f50755ff2738e924f66690d" target="_top" xlink:title="THBuilder::THImpl::\lTHImpl">
<polygon fill="none" stroke="black" points="482,-0.5 482,-32.5 595,-32.5 595,-0.5 482,-0.5"/>
<text text-anchor="start" x="490" y="-19.7" font-family="Helvetica,sans-Serif" font-size="11.00">THBuilder::THImpl::</text>
<text text-anchor="middle" x="538.5" y="-7.7" font-family="Helvetica,sans-Serif" font-size="11.00">THImpl</text>
</a>
</g>
</g>
<!-- Node2&#45;&gt;Node4 -->
<g id="edge4" class="edge"><title>Node2&#45;&gt;Node4</title>
<path fill="none" stroke="midnightblue" d="M284.285,-14.8349C292.961,-14.6974 301.669,-14.5805 310,-14.5 370.442,-13.9161 385.559,-13.8395 446,-14.5 457.598,-14.6267 470.022,-14.8438 481.858,-15.0894"/>
<polygon fill="midnightblue" stroke="midnightblue" points="284.081,-11.3378 274.141,-15.0049 284.199,-18.3368 284.081,-11.3378"/>
</g>
<!-- Node3&#45;&gt;Node4 -->
<g id="edge3" class="edge"><title>Node3&#45;&gt;Node4</title>
<path fill="none" stroke="midnightblue" d="M456.247,-28.2906C464.824,-27.0461 473.431,-25.7971 481.668,-24.6019"/>
<polygon fill="midnightblue" stroke="midnightblue" points="455.612,-24.8461 446.218,-29.7459 456.617,-31.7735 455.612,-24.8461"/>
</g>
</g>
</svg>
