<?xml version="1.0" encoding="UTF-8" standalone="no"?>
<!DOCTYPE svg PUBLIC "-//W3C//DTD SVG 1.1//EN"
 "http://www.w3.org/Graphics/SVG/1.1/DTD/svg11.dtd">
<!-- Generated by graphviz version 2.38.0 (20140413.2041)
 -->
<!-- Title: RosenbrockFitnessPolicy::~RosenbrockFitnessPolicy Pages: 1 -->
<!--zoomable 194 -->
<svg id="main" version="1.1" xmlns="http://www.w3.org/2000/svg" xmlns:xlink="http://www.w3.org/1999/xlink" xml:space="preserve" onload="init(evt)">
<style type="text/css"><![CDATA[
.edge:hover path { stroke: red; }
.edge:hover polygon { stroke: red; fill: red; }
]]></style>
<script type="text/javascript"><![CDATA[
var edges = document.getElementsByTagName('g');
if (edges && edges.length) {
  for (var i=0;i<edges.length;i++) {
    if (edges[i].id.substr(0,4)=='edge') {
      edges[i].setAttribute('class','edge');
    }
  }
}
]]></script>
        <defs>
                <circle id="rim" cx="0" cy="0" r="7"/>
                <circle id="rim2" cx="0" cy="0" r="3.5"/>
                <g id="zoomPlus">
                        <use xlink:href="#rim" fill="#404040">
                                <set attributeName="fill" to="#808080" begin="zoomplus.mouseover" end="zoomplus.mouseout"/>
                        </use>
                        <path d="M-4,0h8M0,-4v8" fill="none" stroke="white" stroke-width="1.5" pointer-events="none"/>
                </g>
                <g id="zoomMin">
                        <use xlink:href="#rim" fill="#404040">
                                <set attributeName="fill" to="#808080" begin="zoomminus.mouseover" end="zoomminus.mouseout"/>
                        </use>
                        <path d="M-4,0h8" fill="none" stroke="white" stroke-width="1.5" pointer-events="none"/>
                </g>
                <g id="dirArrow">
                        <path fill="none" stroke="white" stroke-width="1.5" d="M0,-3.0v7 M-2.5,-0.5L0,-3.0L2.5,-0.5"/>
                </g>
               <g id="resetDef">
                       <use xlink:href="#rim2" fill="#404040">
                               <set attributeName="fill" to="#808080" begin="reset.mouseover" end="reset.mouseout"/>
                       </use>
               </g>
        </defs>

<script type="text/javascript">
var viewWidth = 508;
var viewHeight = 194;
var sectionId = 'dynsection-2';
</script>
<script xlink:href="svgpan.js"/>
<svg id="graph" class="graph">
<g id="viewport">
<title>RosenbrockFitnessPolicy::~RosenbrockFitnessPolicy</title>
<!-- Node1 -->
<g id="node1" class="node"><title>Node1</title>
<polygon fill="#bfbfbf" stroke="black" points="0,-76.5 0,-108.5 150,-108.5 150,-76.5 0,-76.5"/>
<text text-anchor="start" x="8" y="-95.7" font-family="Helvetica,sans-Serif" font-size="11.00">RosenbrockFitnessPolicy</text>
<text text-anchor="middle" x="75" y="-83.7" font-family="Helvetica,sans-Serif" font-size="11.00">::~RosenbrockFitnessPolicy</text>
</g>
<!-- Node2 -->
<g id="node2" class="node"><title>Node2</title>
<g id="a_node2"><a xlink:href="classRosenbrockFitnessPolicy.xhtml#af93be349121f72b580d64243d2daf5f2" target="_top" xlink:title="RosenbrockFitnessPolicy\l::apply">
<polygon fill="none" stroke="black" points="186,-153.5 186,-185.5 323,-185.5 323,-153.5 186,-153.5"/>
<text text-anchor="start" x="194" y="-172.7" font-family="Helvetica,sans-Serif" font-size="11.00">RosenbrockFitnessPolicy</text>
<text text-anchor="middle" x="254.5" y="-160.7" font-family="Helvetica,sans-Serif" font-size="11.00">::apply</text>
</a>
</g>
</g>
<!-- Node1&#45;&gt;Node2 -->
<g id="edge1" class="edge"><title>Node1&#45;&gt;Node2</title>
<path fill="none" stroke="midnightblue" d="M108.395,-108.724C130.129,-119.382 159.519,-133.362 186,-144.5 190.129,-146.237 194.425,-147.977 198.76,-149.686"/>
<polygon fill="midnightblue" stroke="midnightblue" points="197.675,-153.019 208.264,-153.364 200.201,-146.491 197.675,-153.019"/>
</g>
<!-- Node5 -->
<g id="node5" class="node"><title>Node5</title>
<g id="a_node5"><a xlink:href="classRosenbrockFitnessPolicy.xhtml#adfbf6f67e41f0a5a90b8e31245d9b2c9" target="_top" xlink:title="RosenbrockFitnessPolicy\l::firstIsBetter">
<polygon fill="none" stroke="black" points="186,-0.5 186,-32.5 323,-32.5 323,-0.5 186,-0.5"/>
<text text-anchor="start" x="194" y="-19.7" font-family="Helvetica,sans-Serif" font-size="11.00">RosenbrockFitnessPolicy</text>
<text text-anchor="middle" x="254.5" y="-7.7" font-family="Helvetica,sans-Serif" font-size="11.00">::firstIsBetter</text>
</a>
</g>
</g>
<!-- Node1&#45;&gt;Node5 -->
<g id="edge4" class="edge"><title>Node1&#45;&gt;Node5</title>
<path fill="none" stroke="midnightblue" d="M109.961,-76.4378C131.586,-66.3656 160.271,-53.2915 186,-42.5 190.799,-40.4872 195.812,-38.4449 200.846,-36.4352"/>
<polygon fill="midnightblue" stroke="midnightblue" points="202.481,-39.5529 210.498,-32.6272 199.912,-33.0413 202.481,-39.5529"/>
</g>
<!-- Node7 -->
<g id="node7" class="node"><title>Node7</title>
<g id="a_node7"><a xlink:href="classRosenbrockFitnessPolicy.xhtml#a99011107bbcaadee1cba44a0c8646bd0" target="_top" xlink:title="RosenbrockFitnessPolicy\l::setWorstFitness">
<polygon fill="none" stroke="black" points="186,-102.5 186,-134.5 323,-134.5 323,-102.5 186,-102.5"/>
<text text-anchor="start" x="194" y="-121.7" font-family="Helvetica,sans-Serif" font-size="11.00">RosenbrockFitnessPolicy</text>
<text text-anchor="middle" x="254.5" y="-109.7" font-family="Helvetica,sans-Serif" font-size="11.00">::setWorstFitness</text>
</a>
</g>
</g>
<!-- Node1&#45;&gt;Node7 -->
<g id="edge6" class="edge"><title>Node1&#45;&gt;Node7</title>
<path fill="none" stroke="midnightblue" d="M150.248,-103.376C158.714,-104.616 167.362,-105.883 175.871,-107.129"/>
<polygon fill="midnightblue" stroke="midnightblue" points="175.376,-110.594 185.778,-108.58 176.391,-103.668 175.376,-110.594"/>
</g>
<!-- Node8 -->
<g id="node8" class="node"><title>Node8</title>
<g id="a_node8"><a xlink:href="classRosenbrockFitnessPolicy.xhtml#a1ed5f0d7c07f508c1db7cf787e8a9ec2" target="_top" xlink:title="RosenbrockFitnessPolicy\l::setBestFitness">
<polygon fill="none" stroke="black" points="186,-51.5 186,-83.5 323,-83.5 323,-51.5 186,-51.5"/>
<text text-anchor="start" x="194" y="-70.7" font-family="Helvetica,sans-Serif" font-size="11.00">RosenbrockFitnessPolicy</text>
<text text-anchor="middle" x="254.5" y="-58.7" font-family="Helvetica,sans-Serif" font-size="11.00">::setBestFitness</text>
</a>
</g>
</g>
<!-- Node1&#45;&gt;Node8 -->
<g id="edge8" class="edge"><title>Node1&#45;&gt;Node8</title>
<path fill="none" stroke="midnightblue" d="M150.248,-82.0426C158.714,-80.8501 167.362,-79.6321 175.871,-78.4336"/>
<polygon fill="midnightblue" stroke="midnightblue" points="176.364,-81.8989 185.778,-77.0384 175.387,-74.9673 176.364,-81.8989"/>
</g>
<!-- Node3 -->
<g id="node3" class="node"><title>Node3</title>
<g id="a_node3"><a xlink:href="classSolution.xhtml#ad5b8c8ce272efaada80e93b0e097d1cd" target="_top" xlink:title="Get the number of dimensions of this Solution instance. ">
<polygon fill="none" stroke="black" points="359,-159.5 359,-179.5 500,-179.5 500,-159.5 359,-159.5"/>
<text text-anchor="middle" x="429.5" y="-166.7" font-family="Helvetica,sans-Serif" font-size="11.00">Solution::getNDimensions</text>
</a>
</g>
</g>
<!-- Node2&#45;&gt;Node3 -->
<g id="edge2" class="edge"><title>Node2&#45;&gt;Node3</title>
<path fill="none" stroke="midnightblue" d="M323.378,-169.5C331.655,-169.5 340.172,-169.5 348.604,-169.5"/>
<polygon fill="midnightblue" stroke="midnightblue" points="348.827,-173 358.827,-169.5 348.827,-166 348.827,-173"/>
</g>
<!-- Node4 -->
<g id="node4" class="node"><title>Node4</title>
<g id="a_node4"><a xlink:href="classSolution.xhtml#a6c38d7e27c91077d67460a62aed71e06" target="_top" xlink:title="Assigns the values of the buffer received to the current Fitness instance. ">
<polygon fill="none" stroke="black" points="374.5,-108.5 374.5,-128.5 484.5,-128.5 484.5,-108.5 374.5,-108.5"/>
<text text-anchor="middle" x="429.5" y="-115.7" font-family="Helvetica,sans-Serif" font-size="11.00">Solution::setFitness</text>
</a>
</g>
</g>
<!-- Node2&#45;&gt;Node4 -->
<g id="edge3" class="edge"><title>Node2&#45;&gt;Node4</title>
<path fill="none" stroke="midnightblue" d="M310.238,-153.363C334.297,-146.271 362.162,-138.056 384.799,-131.383"/>
<polygon fill="midnightblue" stroke="midnightblue" points="385.873,-134.715 394.476,-128.53 383.894,-128.001 385.873,-134.715"/>
</g>
<!-- Node6 -->
<g id="node6" class="node"><title>Node6</title>
<g id="a_node6"><a xlink:href="classSolution.xhtml#ae7720fedccf4ae8ff24170e159fd266f" target="_top" xlink:title="Get a pointer to the actual Fitness instance. ">
<polygon fill="none" stroke="black" points="374,-6.5 374,-26.5 485,-26.5 485,-6.5 374,-6.5"/>
<text text-anchor="middle" x="429.5" y="-13.7" font-family="Helvetica,sans-Serif" font-size="11.00">Solution::getFitness</text>
</a>
</g>
</g>
<!-- Node5&#45;&gt;Node6 -->
<g id="edge5" class="edge"><title>Node5&#45;&gt;Node6</title>
<path fill="none" stroke="midnightblue" d="M323.378,-16.5C336.599,-16.5 350.429,-16.5 363.552,-16.5"/>
<polygon fill="midnightblue" stroke="midnightblue" points="363.9,-20.0001 373.9,-16.5 363.9,-13.0001 363.9,-20.0001"/>
</g>
<!-- Node7&#45;&gt;Node4 -->
<g id="edge7" class="edge"><title>Node7&#45;&gt;Node4</title>
<path fill="none" stroke="midnightblue" d="M323.378,-118.5C336.88,-118.5 351.018,-118.5 364.39,-118.5"/>
<polygon fill="midnightblue" stroke="midnightblue" points="364.443,-122 374.443,-118.5 364.443,-115 364.443,-122"/>
</g>
<!-- Node8&#45;&gt;Node4 -->
<g id="edge9" class="edge"><title>Node8&#45;&gt;Node4</title>
<path fill="none" stroke="midnightblue" d="M310.238,-83.6367C334.297,-90.7291 362.162,-98.9436 384.799,-105.617"/>
<polygon fill="midnightblue" stroke="midnightblue" points="383.894,-108.999 394.476,-108.47 385.873,-102.285 383.894,-108.999"/>
</g>
</g>
</svg>
        <g id="navigator" transform="translate(0 0)" fill="#404254">
                <rect fill="#f2f5e9" fill-opacity="0.5" stroke="#606060" stroke-width=".5" x="0" y="0" width="60" height="60"/>
                <use id="zoomplus" xlink:href="#zoomPlus" x="17" y="9" onmousedown="handleZoom(evt,'in')"/>
                <use id="zoomminus" xlink:href="#zoomMin" x="42" y="9" onmousedown="handleZoom(evt,'out')"/>
                <use id="reset" xlink:href="#resetDef" x="30" y="36" onmousedown="handleReset()"/>
                <g id="arrowUp" xlink:href="#dirArrow" transform="translate(30 24)" onmousedown="handlePan(0,-1)">
                  <use xlink:href="#rim" fill="#404040">
                        <set attributeName="fill" to="#808080" begin="arrowUp.mouseover" end="arrowUp.mouseout"/>
                  </use>
                  <path fill="none" stroke="white" stroke-width="1.5" d="M0,-3.0v7 M-2.5,-0.5L0,-3.0L2.5,-0.5"/>
                </g>
                <g id="arrowRight" xlink:href="#dirArrow" transform="rotate(90) translate(36 -43)" onmousedown="handlePan(1,0)">
                  <use xlink:href="#rim" fill="#404040">
                        <set attributeName="fill" to="#808080" begin="arrowRight.mouseover" end="arrowRight.mouseout"/>
                  </use>
                  <path fill="none" stroke="white" stroke-width="1.5" d="M0,-3.0v7 M-2.5,-0.5L0,-3.0L2.5,-0.5"/>
                </g>
                <g id="arrowDown" xlink:href="#dirArrow" transform="rotate(180) translate(-30 -48)" onmousedown="handlePan(0,1)">
                  <use xlink:href="#rim" fill="#404040">
                        <set attributeName="fill" to="#808080" begin="arrowDown.mouseover" end="arrowDown.mouseout"/>
                  </use>
                  <path fill="none" stroke="white" stroke-width="1.5" d="M0,-3.0v7 M-2.5,-0.5L0,-3.0L2.5,-0.5"/>
                </g>
                <g id="arrowLeft" xlink:href="#dirArrow" transform="rotate(270) translate(-36 17)" onmousedown="handlePan(-1,0)">
                  <use xlink:href="#rim" fill="#404040">
                        <set attributeName="fill" to="#808080" begin="arrowLeft.mouseover" end="arrowLeft.mouseout"/>
                  </use>
                  <path fill="none" stroke="white" stroke-width="1.5" d="M0,-3.0v7 M-2.5,-0.5L0,-3.0L2.5,-0.5"/>
                </g>
        </g>
        <svg viewBox="0 0 15 15" width="100%" height="30px" preserveAspectRatio="xMaxYMin meet">
         <g id="arrow_out" transform="scale(0.3 0.3)">
          <a xlink:href="classRosenbrockFitnessPolicy_aaabda48891e8fb971d24d84a8dc5da31_cgraph_org.svg" target="_base">
           <rect id="button" ry="5" rx="5" y="6" x="6" height="38" width="38"
                fill="#f2f5e9" fill-opacity="0.5" stroke="#606060" stroke-width="1.0"/>
           <path id="arrow"
             d="M 11.500037,31.436501 C 11.940474,20.09759 22.043105,11.32322 32.158766,21.979434 L 37.068811,17.246167 C 37.068811,17.246167 37.088388,32 37.088388,32 L 22.160133,31.978069 C 22.160133,31.978069 26.997745,27.140456 26.997745,27.140456 C 18.528582,18.264221 13.291696,25.230495 11.500037,31.436501 z"
             style="fill:#404040;"/>
          </a>
         </g>
        </svg>
</svg>
