<?xml version="1.0" encoding="UTF-8" standalone="no"?>
<!DOCTYPE svg PUBLIC "-//W3C//DTD SVG 1.1//EN"
 "http://www.w3.org/Graphics/SVG/1.1/DTD/svg11.dtd">
<!-- Generated by graphviz version 2.38.0 (20140413.2041)
 -->
<!-- Title: Search::getSearchSpace Pages: 1 -->
<svg width="294pt" height="146pt"
 viewBox="0.00 0.00 294.00 146.00" xmlns="http://www.w3.org/2000/svg" xmlns:xlink="http://www.w3.org/1999/xlink">
<g id="graph0" class="graph" transform="scale(1 1) rotate(0) translate(4 142)">
<title>Search::getSearchSpace</title>
<!-- Node1 -->
<g id="node1" class="node"><title>Node1</title>
<polygon fill="#bfbfbf" stroke="black" points="0,-58.5 0,-78.5 137,-78.5 137,-58.5 0,-58.5"/>
<text text-anchor="middle" x="68.5" y="-65.7" font-family="Helvetica,sans-Serif" font-size="11.00">Search::getSearchSpace</text>
</g>
<!-- Node2 -->
<g id="node2" class="node"><title>Node2</title>
<g id="a_node2"><a xlink:href="classHillClimbing.xhtml#a845d2e4cac39582bf1218a90431c2f3c" target="_top" xlink:title="Initialize the algorithm for a new optimization. ">
<polygon fill="none" stroke="black" points="173,-117.5 173,-137.5 286,-137.5 286,-117.5 173,-117.5"/>
<text text-anchor="middle" x="229.5" y="-124.7" font-family="Helvetica,sans-Serif" font-size="11.00">HillClimbing::startup</text>
</a>
</g>
</g>
<!-- Node1&#45;&gt;Node2 -->
<g id="edge1" class="edge"><title>Node1&#45;&gt;Node2</title>
<path fill="none" stroke="midnightblue" d="M104.257,-82.3211C124.285,-90.1876 149.978,-100.114 173,-108.5 181.23,-111.498 190.193,-114.625 198.469,-117.458"/>
<polygon fill="midnightblue" stroke="midnightblue" points="105.503,-79.0504 94.9163,-78.6406 102.937,-85.563 105.503,-79.0504"/>
</g>
<!-- Node3 -->
<g id="node3" class="node"><title>Node3</title>
<g id="a_node3"><a xlink:href="classHillClimbing.xhtml#a7c67b745880b93be26eb4fa113f0e37f" target="_top" xlink:title="Perform the actual optimization only until the next improvement. ">
<polygon fill="none" stroke="black" points="179.5,-78.5 179.5,-98.5 279.5,-98.5 279.5,-78.5 179.5,-78.5"/>
<text text-anchor="middle" x="229.5" y="-85.7" font-family="Helvetica,sans-Serif" font-size="11.00">HillClimbing::next</text>
</a>
</g>
</g>
<!-- Node1&#45;&gt;Node3 -->
<g id="edge2" class="edge"><title>Node1&#45;&gt;Node3</title>
<path fill="none" stroke="midnightblue" d="M147.633,-78.328C158.351,-79.6763 169.103,-81.0287 179.109,-82.2873"/>
<polygon fill="midnightblue" stroke="midnightblue" points="147.75,-74.8153 137.392,-77.0398 146.876,-81.7606 147.75,-74.8153"/>
</g>
<!-- Node4 -->
<g id="node4" class="node"><title>Node4</title>
<g id="a_node4"><a xlink:href="classPSO.xhtml#a8fb3e9a46396074cbbdc2d04a83783a5" target="_top" xlink:title="Initialize the algorithm for a new optimization. ">
<polygon fill="none" stroke="black" points="190,-39.5 190,-59.5 269,-59.5 269,-39.5 190,-39.5"/>
<text text-anchor="middle" x="229.5" y="-46.7" font-family="Helvetica,sans-Serif" font-size="11.00">PSO::startup</text>
</a>
</g>
</g>
<!-- Node1&#45;&gt;Node4 -->
<g id="edge3" class="edge"><title>Node1&#45;&gt;Node4</title>
<path fill="none" stroke="midnightblue" d="M147.517,-59.1772C162.193,-57.4234 176.937,-55.6616 189.747,-54.1308"/>
<polygon fill="midnightblue" stroke="midnightblue" points="146.906,-55.7253 137.392,-60.3872 147.736,-62.6758 146.906,-55.7253"/>
</g>
<!-- Node5 -->
<g id="node5" class="node"><title>Node5</title>
<g id="a_node5"><a xlink:href="classPSO.xhtml#a25e15ab34186e7c52a4789108ae24ece" target="_top" xlink:title="Perform the actual optimization only until the next improvement. ">
<polygon fill="none" stroke="black" points="196.5,-0.5 196.5,-20.5 262.5,-20.5 262.5,-0.5 196.5,-0.5"/>
<text text-anchor="middle" x="229.5" y="-7.7" font-family="Helvetica,sans-Serif" font-size="11.00">PSO::next</text>
</a>
</g>
</g>
<!-- Node1&#45;&gt;Node5 -->
<g id="edge4" class="edge"><title>Node1&#45;&gt;Node5</title>
<path fill="none" stroke="midnightblue" d="M106.274,-54.9375C126.041,-47.6627 150.84,-38.5606 173,-30.5 181.951,-27.244 191.723,-23.7142 200.539,-20.5393"/>
<polygon fill="midnightblue" stroke="midnightblue" points="104.898,-51.7146 96.7232,-58.4545 107.317,-58.2834 104.898,-51.7146"/>
</g>
</g>
</svg>
