<?xml version="1.0" encoding="UTF-8" standalone="no"?>
<!DOCTYPE svg PUBLIC "-//W3C//DTD SVG 1.1//EN"
 "http://www.w3.org/Graphics/SVG/1.1/DTD/svg11.dtd">
<!-- Generated by graphviz version 2.38.0 (20140413.2041)
 -->
<!-- Title: Search::getPopulationSize Pages: 1 -->
<svg width="301pt" height="68pt"
 viewBox="0.00 0.00 301.00 68.00" xmlns="http://www.w3.org/2000/svg" xmlns:xlink="http://www.w3.org/1999/xlink">
<g id="graph0" class="graph" transform="scale(1 1) rotate(0) translate(4 64)">
<title>Search::getPopulationSize</title>
<!-- Node1 -->
<g id="node1" class="node"><title>Node1</title>
<polygon fill="#bfbfbf" stroke="black" points="0,-19.5 0,-39.5 144,-39.5 144,-19.5 0,-19.5"/>
<text text-anchor="middle" x="72" y="-26.7" font-family="Helvetica,sans-Serif" font-size="11.00">Search::getPopulationSize</text>
</g>
<!-- Node2 -->
<g id="node2" class="node"><title>Node2</title>
<g id="a_node2"><a xlink:href="classHillClimbing.xhtml#a845d2e4cac39582bf1218a90431c2f3c" target="_top" xlink:title="Initialize the algorithm for a new optimization. ">
<polygon fill="none" stroke="black" points="180,-39.5 180,-59.5 293,-59.5 293,-39.5 180,-39.5"/>
<text text-anchor="middle" x="236.5" y="-46.7" font-family="Helvetica,sans-Serif" font-size="11.00">HillClimbing::startup</text>
</a>
</g>
</g>
<!-- Node1&#45;&gt;Node2 -->
<g id="edge1" class="edge"><title>Node1&#45;&gt;Node2</title>
<path fill="none" stroke="midnightblue" d="M154.394,-39.5177C163.033,-40.581 171.67,-41.644 179.914,-42.6587"/>
<polygon fill="midnightblue" stroke="midnightblue" points="154.628,-36.0201 144.275,-38.2723 153.772,-42.9677 154.628,-36.0201"/>
</g>
<!-- Node3 -->
<g id="node3" class="node"><title>Node3</title>
<g id="a_node3"><a xlink:href="classPSO.xhtml#a8fb3e9a46396074cbbdc2d04a83783a5" target="_top" xlink:title="Initialize the algorithm for a new optimization. ">
<polygon fill="none" stroke="black" points="197,-0.5 197,-20.5 276,-20.5 276,-0.5 197,-0.5"/>
<text text-anchor="middle" x="236.5" y="-7.7" font-family="Helvetica,sans-Serif" font-size="11.00">PSO::startup</text>
</a>
</g>
</g>
<!-- Node1&#45;&gt;Node3 -->
<g id="edge2" class="edge"><title>Node1&#45;&gt;Node3</title>
<path fill="none" stroke="midnightblue" d="M154.491,-19.9719C169.279,-18.2428 184.057,-16.5149 196.864,-15.0174"/>
<polygon fill="midnightblue" stroke="midnightblue" points="153.801,-16.5286 144.275,-21.1663 154.614,-23.4812 153.801,-16.5286"/>
</g>
</g>
</svg>
