<?xml version="1.0" encoding="UTF-8" standalone="no"?>
<!DOCTYPE svg PUBLIC "-//W3C//DTD SVG 1.1//EN"
 "http://www.w3.org/Graphics/SVG/1.1/DTD/svg11.dtd">
<!-- Generated by graphviz version 2.38.0 (20140413.2041)
 -->
<!-- Title: THBuilder::getMaxPopulationSize Pages: 1 -->
<svg width="508pt" height="41pt"
 viewBox="0.00 0.00 508.00 41.00" xmlns="http://www.w3.org/2000/svg" xmlns:xlink="http://www.w3.org/1999/xlink">
<g id="graph0" class="graph" transform="scale(1 1) rotate(0) translate(4 37)">
<title>THBuilder::getMaxPopulationSize</title>
<!-- Node1 -->
<g id="node1" class="node"><title>Node1</title>
<polygon fill="#bfbfbf" stroke="black" points="0,-6.5 0,-26.5 179,-26.5 179,-6.5 0,-6.5"/>
<text text-anchor="middle" x="89.5" y="-13.7" font-family="Helvetica,sans-Serif" font-size="11.00">THBuilder::getMaxPopulationSize</text>
</g>
<!-- Node2 -->
<g id="node2" class="node"><title>Node2</title>
<g id="a_node2"><a xlink:href="classTHBuilder_1_1SearchGroup.xhtml#a794cf5448380674b51022b5d65a240e2" target="_top" xlink:title="Constructor to create the internal Search Group. ">
<polygon fill="none" stroke="black" points="215,-0.5 215,-32.5 351,-32.5 351,-0.5 215,-0.5"/>
<text text-anchor="start" x="223" y="-19.7" font-family="Helvetica,sans-Serif" font-size="11.00">THBuilder::SearchGroup</text>
<text text-anchor="middle" x="283" y="-7.7" font-family="Helvetica,sans-Serif" font-size="11.00">::SearchGroup</text>
</a>
</g>
</g>
<!-- Node1&#45;&gt;Node2 -->
<g id="edge1" class="edge"><title>Node1&#45;&gt;Node2</title>
<path fill="none" stroke="midnightblue" d="M189.332,-16.5C197.928,-16.5 206.49,-16.5 214.742,-16.5"/>
<polygon fill="midnightblue" stroke="midnightblue" points="189.243,-13.0001 179.243,-16.5 189.243,-20.0001 189.243,-13.0001"/>
</g>
<!-- Node3 -->
<g id="node3" class="node"><title>Node3</title>
<g id="a_node3"><a xlink:href="classTHBuilder_1_1THImpl.xhtml#a0d6e2fd43f50755ff2738e924f66690d" target="_top" xlink:title="THBuilder::THImpl::\lTHImpl">
<polygon fill="none" stroke="black" points="387,-0.5 387,-32.5 500,-32.5 500,-0.5 387,-0.5"/>
<text text-anchor="start" x="395" y="-19.7" font-family="Helvetica,sans-Serif" font-size="11.00">THBuilder::THImpl::</text>
<text text-anchor="middle" x="443.5" y="-7.7" font-family="Helvetica,sans-Serif" font-size="11.00">THImpl</text>
</a>
</g>
</g>
<!-- Node2&#45;&gt;Node3 -->
<g id="edge2" class="edge"><title>Node2&#45;&gt;Node3</title>
<path fill="none" stroke="midnightblue" d="M361.247,-16.5C369.824,-16.5 378.431,-16.5 386.668,-16.5"/>
<polygon fill="midnightblue" stroke="midnightblue" points="361.218,-13.0001 351.218,-16.5 361.218,-20.0001 361.218,-13.0001"/>
</g>
</g>
</svg>
