<?xml version="1.0" encoding="UTF-8" standalone="no"?>
<!DOCTYPE svg PUBLIC "-//W3C//DTD SVG 1.1//EN"
 "http://www.w3.org/Graphics/SVG/1.1/DTD/svg11.dtd">
<!-- Generated by graphviz version 2.38.0 (20140413.2041)
 -->
<!-- Title: THTree::getNode Pages: 1 -->
<svg width="448pt" height="115pt"
 viewBox="0.00 0.00 448.00 115.00" xmlns="http://www.w3.org/2000/svg" xmlns:xlink="http://www.w3.org/1999/xlink">
<g id="graph0" class="graph" transform="scale(1 1) rotate(0) translate(4 111)">
<title>THTree::getNode</title>
<!-- Node1 -->
<g id="node1" class="node"><title>Node1</title>
<polygon fill="#bfbfbf" stroke="black" points="0,-29.5 0,-49.5 101,-49.5 101,-29.5 0,-29.5"/>
<text text-anchor="middle" x="50.5" y="-36.7" font-family="Helvetica,sans-Serif" font-size="11.00">THTree::getNode</text>
</g>
<!-- Node2 -->
<g id="node2" class="node"><title>Node2</title>
<g id="a_node2"><a xlink:href="classGroupRegionSelectionPolicy.xhtml#a28a39331dafaa273d30bef8f0da9e4fb" target="_top" xlink:title="Method responsible for choosing one &quot;anchor&quot; sub&#45;region according to the TH instance&#39;s ID...">
<polygon fill="none" stroke="black" points="137,-74.5 137,-106.5 291,-106.5 291,-74.5 137,-74.5"/>
<text text-anchor="start" x="145" y="-93.7" font-family="Helvetica,sans-Serif" font-size="11.00">GroupRegionSelectionPolicy</text>
<text text-anchor="middle" x="214" y="-81.7" font-family="Helvetica,sans-Serif" font-size="11.00">::apply</text>
</a>
</g>
</g>
<!-- Node1&#45;&gt;Node2 -->
<g id="edge1" class="edge"><title>Node1&#45;&gt;Node2</title>
<path fill="none" stroke="midnightblue" d="M93.0259,-52.6135C114.084,-59.2635 139.843,-67.3979 162.087,-74.4223"/>
<polygon fill="midnightblue" stroke="midnightblue" points="93.997,-49.2498 83.4072,-49.576 91.8891,-55.9249 93.997,-49.2498"/>
</g>
<!-- Node3 -->
<g id="node3" class="node"><title>Node3</title>
<g id="a_node3"><a xlink:href="classTHBuilder_1_1SearchGroup.xhtml#a794cf5448380674b51022b5d65a240e2" target="_top" xlink:title="Constructor to create the internal Search Group. ">
<polygon fill="none" stroke="black" points="146,-23.5 146,-55.5 282,-55.5 282,-23.5 146,-23.5"/>
<text text-anchor="start" x="154" y="-42.7" font-family="Helvetica,sans-Serif" font-size="11.00">THBuilder::SearchGroup</text>
<text text-anchor="middle" x="214" y="-30.7" font-family="Helvetica,sans-Serif" font-size="11.00">::SearchGroup</text>
</a>
</g>
</g>
<!-- Node1&#45;&gt;Node3 -->
<g id="edge2" class="edge"><title>Node1&#45;&gt;Node3</title>
<path fill="none" stroke="midnightblue" d="M111.395,-39.5C122.624,-39.5 134.43,-39.5 145.861,-39.5"/>
<polygon fill="midnightblue" stroke="midnightblue" points="111.273,-36.0001 101.273,-39.5 111.273,-43.0001 111.273,-36.0001"/>
</g>
<!-- Node4 -->
<g id="node4" class="node"><title>Node4</title>
<g id="a_node4"><a xlink:href="classTHBuilder_1_1THImpl.xhtml#a0d6e2fd43f50755ff2738e924f66690d" target="_top" xlink:title="THBuilder::THImpl::\lTHImpl">
<polygon fill="none" stroke="black" points="327,-0.5 327,-32.5 440,-32.5 440,-0.5 327,-0.5"/>
<text text-anchor="start" x="335" y="-19.7" font-family="Helvetica,sans-Serif" font-size="11.00">THBuilder::THImpl::</text>
<text text-anchor="middle" x="383.5" y="-7.7" font-family="Helvetica,sans-Serif" font-size="11.00">THImpl</text>
</a>
</g>
</g>
<!-- Node1&#45;&gt;Node4 -->
<g id="edge4" class="edge"><title>Node1&#45;&gt;Node4</title>
<path fill="none" stroke="midnightblue" d="M88.2649,-26.2606C103.18,-21.5481 120.705,-16.8334 137,-14.5 201.555,-5.25573 276.637,-7.77564 326.605,-11.2998"/>
<polygon fill="midnightblue" stroke="midnightblue" points="86.8151,-23.0526 78.4029,-29.4935 88.9957,-29.7043 86.8151,-23.0526"/>
</g>
<!-- Node3&#45;&gt;Node4 -->
<g id="edge3" class="edge"><title>Node3&#45;&gt;Node4</title>
<path fill="none" stroke="midnightblue" d="M292.336,-28.8808C303.985,-27.2811 315.802,-25.6586 326.876,-24.1379"/>
<polygon fill="midnightblue" stroke="midnightblue" points="291.594,-25.4496 282.164,-30.2775 292.547,-32.3846 291.594,-25.4496"/>
</g>
</g>
</svg>
