<?xml version="1.0" encoding="UTF-8" standalone="no"?>
<!DOCTYPE svg PUBLIC "-//W3C//DTD SVG 1.1//EN"
 "http://www.w3.org/Graphics/SVG/1.1/DTD/svg11.dtd">
<!-- Generated by graphviz version 2.38.0 (20140413.2041)
 -->
<!-- Title: BetaRelocationStrategyPolicy::apply Pages: 1 -->
<svg width="564pt" height="678pt"
 viewBox="0.00 0.00 564.00 678.00" xmlns="http://www.w3.org/2000/svg" xmlns:xlink="http://www.w3.org/1999/xlink">
<g id="graph0" class="graph" transform="scale(1 1) rotate(0) translate(4 674)">
<title>BetaRelocationStrategyPolicy::apply</title>
<!-- Node1 -->
<g id="node1" class="node"><title>Node1</title>
<polygon fill="#bfbfbf" stroke="black" points="0,-292.5 0,-324.5 159,-324.5 159,-292.5 0,-292.5"/>
<text text-anchor="start" x="8" y="-311.7" font-family="Helvetica,sans-Serif" font-size="11.00">BetaRelocationStrategyPolicy</text>
<text text-anchor="middle" x="79.5" y="-299.7" font-family="Helvetica,sans-Serif" font-size="11.00">::apply</text>
</g>
<!-- Node2 -->
<g id="node2" class="node"><title>Node2</title>
<g id="a_node2"><a xlink:href="structRelocationStrategyData.xhtml#af0c8811e45456b184467bb9c499fa8d9" target="_top" xlink:title="RelocationStrategyData\l::getIterationData">
<polygon fill="none" stroke="black" points="209.5,-637.5 209.5,-669.5 340.5,-669.5 340.5,-637.5 209.5,-637.5"/>
<text text-anchor="start" x="217.5" y="-656.7" font-family="Helvetica,sans-Serif" font-size="11.00">RelocationStrategyData</text>
<text text-anchor="middle" x="275" y="-644.7" font-family="Helvetica,sans-Serif" font-size="11.00">::getIterationData</text>
</a>
</g>
</g>
<!-- Node1&#45;&gt;Node2 -->
<g id="edge1" class="edge"><title>Node1&#45;&gt;Node2</title>
<path fill="none" stroke="midnightblue" d="M81.4187,-324.803C85.2411,-376.908 104.284,-541.091 195,-628.5 196.858,-630.29 198.844,-631.953 200.93,-633.496"/>
<polygon fill="midnightblue" stroke="midnightblue" points="199.098,-636.479 209.417,-638.878 202.847,-630.567 199.098,-636.479"/>
</g>
<!-- Node3 -->
<g id="node3" class="node"><title>Node3</title>
<g id="a_node3"><a xlink:href="structIterationData.xhtml#a43d0a7bbb330e66eec64e1a34e0b4487" target="_top" xlink:title="Obtains the percentage of running time that has already been spent, according to the stopping criteri...">
<polygon fill="none" stroke="black" points="205.5,-586.5 205.5,-618.5 344.5,-618.5 344.5,-586.5 205.5,-586.5"/>
<text text-anchor="start" x="213.5" y="-605.7" font-family="Helvetica,sans-Serif" font-size="11.00">IterationData::percentage</text>
<text text-anchor="middle" x="275" y="-593.7" font-family="Helvetica,sans-Serif" font-size="11.00">Runtime</text>
</a>
</g>
</g>
<!-- Node1&#45;&gt;Node3 -->
<g id="edge2" class="edge"><title>Node1&#45;&gt;Node3</title>
<path fill="none" stroke="midnightblue" d="M82.6703,-324.825C89.7247,-371.374 116.292,-506.002 195,-577.5 196.281,-578.664 197.616,-579.773 198.998,-580.831"/>
<polygon fill="midnightblue" stroke="midnightblue" points="197.083,-583.761 207.359,-586.343 200.936,-577.917 197.083,-583.761"/>
</g>
<!-- Node4 -->
<g id="node4" class="node"><title>Node4</title>
<g id="a_node4"><a xlink:href="structIterationData.xhtml#a52a85ebea1211c365fce026d083feccb" target="_top" xlink:title="IterationData::getGeneralBest">
<polygon fill="none" stroke="black" points="195,-547.5 195,-567.5 355,-567.5 355,-547.5 195,-547.5"/>
<text text-anchor="middle" x="275" y="-554.7" font-family="Helvetica,sans-Serif" font-size="11.00">IterationData::getGeneralBest</text>
</a>
</g>
</g>
<!-- Node1&#45;&gt;Node4 -->
<g id="edge3" class="edge"><title>Node1&#45;&gt;Node4</title>
<path fill="none" stroke="midnightblue" d="M83.6051,-324.537C92.6328,-366.658 122.943,-481.124 195,-538.5 196.838,-539.964 198.771,-541.317 200.78,-542.569"/>
<polygon fill="midnightblue" stroke="midnightblue" points="199.525,-545.864 210.004,-547.429 202.789,-539.671 199.525,-545.864"/>
</g>
<!-- Node5 -->
<g id="node5" class="node"><title>Node5</title>
<g id="a_node5"><a xlink:href="structBetaRelocationStrategyData.xhtml#a542d95263cbcd95c32b43f31881331a5" target="_top" xlink:title="BetaRelocationStrategyData\l::setDisplacementRate">
<polygon fill="none" stroke="black" points="198,-496.5 198,-528.5 352,-528.5 352,-496.5 198,-496.5"/>
<text text-anchor="start" x="206" y="-515.7" font-family="Helvetica,sans-Serif" font-size="11.00">BetaRelocationStrategyData</text>
<text text-anchor="middle" x="275" y="-503.7" font-family="Helvetica,sans-Serif" font-size="11.00">::setDisplacementRate</text>
</a>
</g>
</g>
<!-- Node1&#45;&gt;Node5 -->
<g id="edge4" class="edge"><title>Node1&#45;&gt;Node5</title>
<path fill="none" stroke="midnightblue" d="M86.3368,-324.527C99.8683,-359.446 136.741,-442.833 195,-487.5 196.809,-488.887 198.696,-490.198 200.646,-491.437"/>
<polygon fill="midnightblue" stroke="midnightblue" points="199.105,-494.585 209.539,-496.422 202.528,-488.479 199.105,-494.585"/>
</g>
<!-- Node6 -->
<g id="node6" class="node"><title>Node6</title>
<g id="a_node6"><a xlink:href="structBetaRelocationStrategyData.xhtml#a28b664079989690fdc9f56927807b3a8" target="_top" xlink:title="BetaRelocationStrategyData\l::getBetaStartingPerc">
<polygon fill="none" stroke="black" points="198,-445.5 198,-477.5 352,-477.5 352,-445.5 198,-445.5"/>
<text text-anchor="start" x="206" y="-464.7" font-family="Helvetica,sans-Serif" font-size="11.00">BetaRelocationStrategyData</text>
<text text-anchor="middle" x="275" y="-452.7" font-family="Helvetica,sans-Serif" font-size="11.00">::getBetaStartingPerc</text>
</a>
</g>
</g>
<!-- Node1&#45;&gt;Node6 -->
<g id="edge5" class="edge"><title>Node1&#45;&gt;Node6</title>
<path fill="none" stroke="midnightblue" d="M90.7647,-324.788C108.662,-351.887 148.172,-406.237 195,-436.5 197.435,-438.074 199.977,-439.555 202.593,-440.948"/>
<polygon fill="midnightblue" stroke="midnightblue" points="201.2,-444.162 211.728,-445.352 204.24,-437.856 201.2,-444.162"/>
</g>
<!-- Node7 -->
<g id="node7" class="node"><title>Node7</title>
<g id="a_node7"><a xlink:href="structBetaRelocationStrategyData.xhtml#a29fa5c11b663b88ed1771a603a0fc230" target="_top" xlink:title="BetaRelocationStrategyData\l::getBetaMax">
<polygon fill="none" stroke="black" points="198,-394.5 198,-426.5 352,-426.5 352,-394.5 198,-394.5"/>
<text text-anchor="start" x="206" y="-413.7" font-family="Helvetica,sans-Serif" font-size="11.00">BetaRelocationStrategyData</text>
<text text-anchor="middle" x="275" y="-401.7" font-family="Helvetica,sans-Serif" font-size="11.00">::getBetaMax</text>
</a>
</g>
</g>
<!-- Node1&#45;&gt;Node7 -->
<g id="edge6" class="edge"><title>Node1&#45;&gt;Node7</title>
<path fill="none" stroke="midnightblue" d="M100.523,-324.575C122.574,-341.636 159.612,-368.438 195,-385.5 198.79,-387.327 202.746,-389.064 206.779,-390.706"/>
<polygon fill="midnightblue" stroke="midnightblue" points="205.701,-394.041 216.291,-394.364 208.214,-387.508 205.701,-394.041"/>
</g>
<!-- Node8 -->
<g id="node8" class="node"><title>Node8</title>
<g id="a_node8"><a xlink:href="structBetaRelocationStrategyData.xhtml#a96c3430655d3b0c2d0a41fe6515fbf18" target="_top" xlink:title="BetaRelocationStrategyData\l::getDisplacementRate">
<polygon fill="none" stroke="black" points="198,-343.5 198,-375.5 352,-375.5 352,-343.5 198,-343.5"/>
<text text-anchor="start" x="206" y="-362.7" font-family="Helvetica,sans-Serif" font-size="11.00">BetaRelocationStrategyData</text>
<text text-anchor="middle" x="275" y="-350.7" font-family="Helvetica,sans-Serif" font-size="11.00">::getDisplacementRate</text>
</a>
</g>
</g>
<!-- Node1&#45;&gt;Node8 -->
<g id="edge7" class="edge"><title>Node1&#45;&gt;Node8</title>
<path fill="none" stroke="midnightblue" d="M141.459,-324.567C161.07,-329.736 182.965,-335.506 203.221,-340.845"/>
<polygon fill="midnightblue" stroke="midnightblue" points="202.453,-344.262 213.015,-343.426 204.237,-337.493 202.453,-344.262"/>
</g>
<!-- Node9 -->
<g id="node9" class="node"><title>Node9</title>
<g id="a_node9"><a xlink:href="structBetaRelocationStrategyData.xhtml#aabba2baebc6e6b1eebc7ab84f3ceeb5b" target="_top" xlink:title="BetaRelocationStrategyData\l::getBetaAccelerationCoef">
<polygon fill="none" stroke="black" points="198,-292.5 198,-324.5 352,-324.5 352,-292.5 198,-292.5"/>
<text text-anchor="start" x="206" y="-311.7" font-family="Helvetica,sans-Serif" font-size="11.00">BetaRelocationStrategyData</text>
<text text-anchor="middle" x="275" y="-299.7" font-family="Helvetica,sans-Serif" font-size="11.00">::getBetaAccelerationCoef</text>
</a>
</g>
</g>
<!-- Node1&#45;&gt;Node9 -->
<g id="edge8" class="edge"><title>Node1&#45;&gt;Node9</title>
<path fill="none" stroke="midnightblue" d="M159.204,-308.5C168.578,-308.5 178.187,-308.5 187.661,-308.5"/>
<polygon fill="midnightblue" stroke="midnightblue" points="187.871,-312 197.871,-308.5 187.871,-305 187.871,-312"/>
</g>
<!-- Node10 -->
<g id="node10" class="node"><title>Node10</title>
<g id="a_node10"><a xlink:href="classRegion.xhtml#aed7a4120591db745b5b424fb94588294" target="_top" xlink:title="Obtains a pointer to the map containing the dimensions that compose the entire search space...">
<polygon fill="none" stroke="black" points="391,-351.5 391,-371.5 556,-371.5 556,-351.5 391,-351.5"/>
<text text-anchor="middle" x="473.5" y="-358.7" font-family="Helvetica,sans-Serif" font-size="11.00">Region::getOriginalDimensions</text>
</a>
</g>
</g>
<!-- Node1&#45;&gt;Node10 -->
<g id="edge9" class="edge"><title>Node1&#45;&gt;Node10</title>
<path fill="none" stroke="midnightblue" d="M117.928,-292.404C173.523,-271.157 279.469,-241.106 355,-283.5 381.787,-298.535 366.106,-324.502 391,-342.5 393.241,-344.12 395.599,-345.604 398.044,-346.964"/>
<polygon fill="midnightblue" stroke="midnightblue" points="396.697,-350.199 407.228,-351.361 399.72,-343.886 396.697,-350.199"/>
</g>
<!-- Node11 -->
<g id="node11" class="node"><title>Node11</title>
<g id="a_node11"><a xlink:href="structIterationData.xhtml#a5a7af2b925eb3a2e507988e83383d969" target="_top" xlink:title="IterationData::getParentBest">
<polygon fill="none" stroke="black" points="198,-60.5 198,-80.5 352,-80.5 352,-60.5 198,-60.5"/>
<text text-anchor="middle" x="275" y="-67.7" font-family="Helvetica,sans-Serif" font-size="11.00">IterationData::getParentBest</text>
</a>
</g>
</g>
<!-- Node1&#45;&gt;Node11 -->
<g id="edge10" class="edge"><title>Node1&#45;&gt;Node11</title>
<path fill="none" stroke="midnightblue" d="M84.591,-292.47C95.5016,-252.959 129.056,-150.15 195,-95.5 200.284,-91.1211 206.341,-87.5061 212.701,-84.5223"/>
<polygon fill="midnightblue" stroke="midnightblue" points="214.287,-87.6539 222.18,-80.587 211.602,-81.1889 214.287,-87.6539"/>
</g>
<!-- Node12 -->
<g id="node12" class="node"><title>Node12</title>
<g id="a_node12"><a xlink:href="classSolution.xhtml#ad5b8c8ce272efaada80e93b0e097d1cd" target="_top" xlink:title="Get the number of dimensions of this Solution instance. ">
<polygon fill="none" stroke="black" points="204.5,-21.5 204.5,-41.5 345.5,-41.5 345.5,-21.5 204.5,-21.5"/>
<text text-anchor="middle" x="275" y="-28.7" font-family="Helvetica,sans-Serif" font-size="11.00">Solution::getNDimensions</text>
</a>
</g>
</g>
<!-- Node1&#45;&gt;Node12 -->
<g id="edge11" class="edge"><title>Node1&#45;&gt;Node12</title>
<path fill="none" stroke="midnightblue" d="M82.7038,-292.233C89.7888,-246.533 116.308,-116.054 195,-50.5 196.761,-49.0328 198.617,-47.6753 200.549,-46.4196"/>
<polygon fill="midnightblue" stroke="midnightblue" points="202.359,-49.4186 209.443,-41.5401 198.992,-43.2816 202.359,-49.4186"/>
</g>
<!-- Node13 -->
<g id="node13" class="node"><title>Node13</title>
<g id="a_node13"><a xlink:href="classSolution.xhtml#a84c713b707a570add53e85a28196bb3e" target="_top" xlink:title="Reset the position of the current Solution in the search space. ">
<polygon fill="none" stroke="black" points="232,-176.5 232,-196.5 318,-196.5 318,-176.5 232,-176.5"/>
<text text-anchor="middle" x="275" y="-183.7" font-family="Helvetica,sans-Serif" font-size="11.00">Solution::reset</text>
</a>
</g>
</g>
<!-- Node1&#45;&gt;Node13 -->
<g id="edge12" class="edge"><title>Node1&#45;&gt;Node13</title>
<path fill="none" stroke="midnightblue" d="M95.2976,-292.498C115.795,-271.204 154.863,-233.671 195,-211.5 203.411,-206.854 212.812,-202.93 222.112,-199.668"/>
<polygon fill="midnightblue" stroke="midnightblue" points="223.317,-202.956 231.723,-196.506 221.13,-196.307 223.317,-202.956"/>
</g>
<!-- Node15 -->
<g id="node15" class="node"><title>Node15</title>
<g id="a_node15"><a xlink:href="classTHUtil.xhtml#ad95b7150adaf4d576de406c8e7b8142c" target="_top" xlink:title="THUtil::randUniformDouble">
<polygon fill="none" stroke="black" points="399.5,-312.5 399.5,-332.5 547.5,-332.5 547.5,-312.5 399.5,-312.5"/>
<text text-anchor="middle" x="473.5" y="-319.7" font-family="Helvetica,sans-Serif" font-size="11.00">THUtil::randUniformDouble</text>
</a>
</g>
</g>
<!-- Node1&#45;&gt;Node15 -->
<g id="edge23" class="edge"><title>Node1&#45;&gt;Node15</title>
<path fill="none" stroke="midnightblue" d="M103.745,-292.289C125.995,-277.832 161.097,-257.721 195,-249.5 264.108,-232.742 292.303,-215.946 355,-249.5 380.431,-263.11 367.29,-287.073 391,-303.5 393.545,-305.263 396.231,-306.865 399.018,-308.319"/>
<polygon fill="midnightblue" stroke="midnightblue" points="397.653,-311.543 408.206,-312.481 400.541,-305.167 397.653,-311.543"/>
</g>
<!-- Node19 -->
<g id="node19" class="node"><title>Node19</title>
<g id="a_node19"><a xlink:href="classPartition.xhtml#a418e5b08580b3c1d33390a13eeb8eb0f" target="_top" xlink:title="Get the lower bound for this partition. ">
<polygon fill="none" stroke="black" points="411,-39.5 411,-59.5 536,-59.5 536,-39.5 411,-39.5"/>
<text text-anchor="middle" x="473.5" y="-46.7" font-family="Helvetica,sans-Serif" font-size="11.00">Partition::getStartPoint</text>
</a>
</g>
</g>
<!-- Node1&#45;&gt;Node19 -->
<g id="edge25" class="edge"><title>Node1&#45;&gt;Node19</title>
<path fill="none" stroke="midnightblue" d="M89.0942,-292.071C105.526,-262.311 144.318,-199.516 195,-166.5 256.698,-126.308 295.367,-166.696 355,-123.5 378.66,-106.362 367.056,-85.2397 391,-68.5 394.256,-66.2237 397.746,-64.217 401.383,-62.4481"/>
<polygon fill="midnightblue" stroke="midnightblue" points="402.827,-65.6377 410.678,-58.5232 400.104,-59.1891 402.827,-65.6377"/>
</g>
<!-- Node20 -->
<g id="node20" class="node"><title>Node20</title>
<g id="a_node20"><a xlink:href="classPartition.xhtml#a0f3cdf44760e24735951b73dfc9dd3ab" target="_top" xlink:title="Get the upper bound for this partition. ">
<polygon fill="none" stroke="black" points="412.5,-0.5 412.5,-20.5 534.5,-20.5 534.5,-0.5 412.5,-0.5"/>
<text text-anchor="middle" x="473.5" y="-7.7" font-family="Helvetica,sans-Serif" font-size="11.00">Partition::getEndPoint</text>
</a>
</g>
</g>
<!-- Node1&#45;&gt;Node20 -->
<g id="edge24" class="edge"><title>Node1&#45;&gt;Node20</title>
<path fill="none" stroke="midnightblue" d="M85.577,-292.328C97.9061,-255.872 133.055,-167.07 195,-123.5 254.463,-81.6755 295.827,-131.734 355,-89.5 380.312,-71.4337 365.866,-47.8141 391,-29.5 394.666,-26.8289 398.649,-24.5267 402.819,-22.5432"/>
<polygon fill="midnightblue" stroke="midnightblue" points="404.274,-25.7293 412.193,-18.6904 401.613,-19.2549 404.274,-25.7293"/>
</g>
<!-- Node13&#45;&gt;Node10 -->
<g id="edge13" class="edge"><title>Node13&#45;&gt;Node10</title>
<path fill="none" stroke="midnightblue" d="M293.656,-196.684C311.345,-207.687 338.282,-226.736 355,-249.5 381.236,-285.223 357.54,-313.433 391,-342.5 392.522,-343.822 394.118,-345.057 395.776,-346.209"/>
<polygon fill="midnightblue" stroke="midnightblue" points="394.124,-349.297 404.525,-351.316 397.653,-343.252 394.124,-349.297"/>
</g>
<!-- Node14 -->
<g id="node14" class="node"><title>Node14</title>
<g id="a_node14"><a xlink:href="classRegion.xhtml#a07c792e7ab2768254d71a0b688ccd935" target="_top" xlink:title="Get the map of Partitions that compose the current &quot;anchor&quot; sub&#45;region. ">
<polygon fill="none" stroke="black" points="415,-273.5 415,-293.5 532,-293.5 532,-273.5 415,-273.5"/>
<text text-anchor="middle" x="473.5" y="-280.7" font-family="Helvetica,sans-Serif" font-size="11.00">Region::getPartitions</text>
</a>
</g>
</g>
<!-- Node13&#45;&gt;Node14 -->
<g id="edge14" class="edge"><title>Node13&#45;&gt;Node14</title>
<path fill="none" stroke="midnightblue" d="M318.249,-194.278C330.912,-198.022 344.272,-203.507 355,-211.5 377.835,-228.513 367.524,-248.384 391,-264.5 395.492,-267.583 400.416,-270.171 405.551,-272.342"/>
<polygon fill="midnightblue" stroke="midnightblue" points="404.377,-275.64 414.971,-275.818 406.8,-269.073 404.377,-275.64"/>
</g>
<!-- Node13&#45;&gt;Node15 -->
<g id="edge15" class="edge"><title>Node13&#45;&gt;Node15</title>
<path fill="none" stroke="midnightblue" d="M318.186,-192.533C331.285,-196.19 344.915,-202.065 355,-211.5 387.063,-241.498 357.8,-274.766 391,-303.5 392.565,-304.855 394.209,-306.118 395.918,-307.295"/>
<polygon fill="midnightblue" stroke="midnightblue" points="394.524,-310.531 404.936,-312.492 398.019,-304.466 394.524,-310.531"/>
</g>
<!-- Node16 -->
<g id="node16" class="node"><title>Node16</title>
<g id="a_node16"><a xlink:href="classTHUtil.xhtml#a1961a690dfec7f0dab0be849d31828ea" target="_top" xlink:title="THUtil::randNormalDouble">
<polygon fill="none" stroke="black" points="401,-234.5 401,-254.5 546,-254.5 546,-234.5 401,-234.5"/>
<text text-anchor="middle" x="473.5" y="-241.7" font-family="Helvetica,sans-Serif" font-size="11.00">THUtil::randNormalDouble</text>
</a>
</g>
</g>
<!-- Node13&#45;&gt;Node16 -->
<g id="edge16" class="edge"><title>Node13&#45;&gt;Node16</title>
<path fill="none" stroke="midnightblue" d="M309.601,-196.609C323.693,-200.985 340.21,-206.29 355,-211.5 371.192,-217.204 374.599,-220.427 391,-225.5 398.515,-227.824 406.496,-230.015 414.411,-232.025"/>
<polygon fill="midnightblue" stroke="midnightblue" points="413.814,-235.483 424.36,-234.471 415.485,-228.685 413.814,-235.483"/>
</g>
<!-- Node17 -->
<g id="node17" class="node"><title>Node17</title>
<g id="a_node17"><a xlink:href="structPosition.xhtml#a56d15266cecdd63cc07d6ec89f90fb4f" target="_top" xlink:title="Get the lower value from the list of values that represents the Position. ">
<polygon fill="none" stroke="black" points="406.5,-195.5 406.5,-215.5 540.5,-215.5 540.5,-195.5 406.5,-195.5"/>
<text text-anchor="middle" x="473.5" y="-202.7" font-family="Helvetica,sans-Serif" font-size="11.00">Position::getLowerValue</text>
</a>
</g>
</g>
<!-- Node13&#45;&gt;Node17 -->
<g id="edge17" class="edge"><title>Node13&#45;&gt;Node17</title>
<path fill="none" stroke="midnightblue" d="M318.154,-190.576C340.953,-192.78 369.812,-195.571 396.391,-198.141"/>
<polygon fill="midnightblue" stroke="midnightblue" points="396.159,-201.635 406.449,-199.113 396.832,-194.667 396.159,-201.635"/>
</g>
<!-- Node18 -->
<g id="node18" class="node"><title>Node18</title>
<g id="a_node18"><a xlink:href="structPosition.xhtml#a424b3d5791fcc593c743429e92817982" target="_top" xlink:title="Get the upper value from the list of values that represents the Position. ">
<polygon fill="none" stroke="black" points="406.5,-156.5 406.5,-176.5 540.5,-176.5 540.5,-156.5 406.5,-156.5"/>
<text text-anchor="middle" x="473.5" y="-163.7" font-family="Helvetica,sans-Serif" font-size="11.00">Position::getUpperValue</text>
</a>
</g>
</g>
<!-- Node13&#45;&gt;Node18 -->
<g id="edge18" class="edge"><title>Node13&#45;&gt;Node18</title>
<path fill="none" stroke="midnightblue" d="M318.154,-182.209C340.953,-179.889 369.812,-176.952 396.391,-174.246"/>
<polygon fill="midnightblue" stroke="midnightblue" points="396.855,-177.717 406.449,-173.223 396.146,-170.753 396.855,-177.717"/>
</g>
<!-- Node13&#45;&gt;Node19 -->
<g id="edge19" class="edge"><title>Node13&#45;&gt;Node19</title>
<path fill="none" stroke="midnightblue" d="M318.206,-180.489C331.307,-176.833 344.933,-170.954 355,-161.5 387.31,-131.16 357.54,-97.5667 391,-68.5 394.27,-65.6595 397.883,-63.2228 401.716,-61.1346"/>
<polygon fill="midnightblue" stroke="midnightblue" points="403.375,-64.2244 410.999,-56.868 400.451,-57.8641 403.375,-64.2244"/>
</g>
<!-- Node13&#45;&gt;Node20 -->
<g id="edge20" class="edge"><title>Node13&#45;&gt;Node20</title>
<path fill="none" stroke="midnightblue" d="M293.673,-176.328C311.376,-165.335 338.322,-146.294 355,-123.5 381.417,-87.3956 357.28,-58.8992 391,-29.5 394.641,-26.3254 398.711,-23.6549 403.038,-21.4112"/>
<polygon fill="midnightblue" stroke="midnightblue" points="404.472,-24.6039 412.223,-17.3801 401.659,-18.1941 404.472,-24.6039"/>
</g>
<!-- Node21 -->
<g id="node21" class="node"><title>Node21</title>
<g id="a_node21"><a xlink:href="structPosition.xhtml#a0c70a4890ea8ba9e8b9ed6b4f6030751" target="_top" xlink:title="Limit upper the values of this position. ">
<polygon fill="none" stroke="black" points="398,-117.5 398,-137.5 549,-137.5 549,-117.5 398,-117.5"/>
<text text-anchor="middle" x="473.5" y="-124.7" font-family="Helvetica,sans-Serif" font-size="11.00">Position::adjustUpperBound</text>
</a>
</g>
</g>
<!-- Node13&#45;&gt;Node21 -->
<g id="edge21" class="edge"><title>Node13&#45;&gt;Node21</title>
<path fill="none" stroke="midnightblue" d="M310.052,-176.445C324.069,-172.12 340.409,-166.837 355,-161.5 371.279,-155.546 374.503,-151.819 391,-146.5 398.211,-144.175 405.866,-142.009 413.485,-140.033"/>
<polygon fill="midnightblue" stroke="midnightblue" points="414.585,-143.366 423.44,-137.548 412.89,-136.574 414.585,-143.366"/>
</g>
<!-- Node22 -->
<g id="node22" class="node"><title>Node22</title>
<g id="a_node22"><a xlink:href="structPosition.xhtml#aae9a6d862e9da174648a84f876f8d78d" target="_top" xlink:title="Limit lower the values of this position. ">
<polygon fill="none" stroke="black" points="398,-78.5 398,-98.5 549,-98.5 549,-78.5 398,-78.5"/>
<text text-anchor="middle" x="473.5" y="-85.7" font-family="Helvetica,sans-Serif" font-size="11.00">Position::adjustLowerBound</text>
</a>
</g>
</g>
<!-- Node13&#45;&gt;Node22 -->
<g id="edge22" class="edge"><title>Node13&#45;&gt;Node22</title>
<path fill="none" stroke="midnightblue" d="M318.291,-178.779C330.956,-175.037 344.306,-169.539 355,-161.5 378.056,-144.167 367.29,-123.927 391,-107.5 393.545,-105.737 396.231,-104.135 399.018,-102.681"/>
<polygon fill="midnightblue" stroke="midnightblue" points="400.541,-105.833 408.206,-98.5188 397.653,-99.4567 400.541,-105.833"/>
</g>
</g>
</svg>
