<?xml version="1.0" encoding="UTF-8" standalone="no"?>
<!DOCTYPE svg PUBLIC "-//W3C//DTD SVG 1.1//EN"
 "http://www.w3.org/Graphics/SVG/1.1/DTD/svg11.dtd">
<!-- Generated by graphviz version 2.38.0 (20140413.2041)
 -->
<!-- Title: Search::getPopulation Pages: 1 -->
<!--zoomable 146 -->
<svg id="main" version="1.1" xmlns="http://www.w3.org/2000/svg" xmlns:xlink="http://www.w3.org/1999/xlink" xml:space="preserve" onload="init(evt)">
<style type="text/css"><![CDATA[
.edge:hover path { stroke: red; }
.edge:hover polygon { stroke: red; fill: red; }
]]></style>
<script type="text/javascript"><![CDATA[
var edges = document.getElementsByTagName('g');
if (edges && edges.length) {
  for (var i=0;i<edges.length;i++) {
    if (edges[i].id.substr(0,4)=='edge') {
      edges[i].setAttribute('class','edge');
    }
  }
}
]]></script>
        <defs>
                <circle id="rim" cx="0" cy="0" r="7"/>
                <circle id="rim2" cx="0" cy="0" r="3.5"/>
                <g id="zoomPlus">
                        <use xlink:href="#rim" fill="#404040">
                                <set attributeName="fill" to="#808080" begin="zoomplus.mouseover" end="zoomplus.mouseout"/>
                        </use>
                        <path d="M-4,0h8M0,-4v8" fill="none" stroke="white" stroke-width="1.5" pointer-events="none"/>
                </g>
                <g id="zoomMin">
                        <use xlink:href="#rim" fill="#404040">
                                <set attributeName="fill" to="#808080" begin="zoomminus.mouseover" end="zoomminus.mouseout"/>
                        </use>
                        <path d="M-4,0h8" fill="none" stroke="white" stroke-width="1.5" pointer-events="none"/>
                </g>
                <g id="dirArrow">
                        <path fill="none" stroke="white" stroke-width="1.5" d="M0,-3.0v7 M-2.5,-0.5L0,-3.0L2.5,-0.5"/>
                </g>
               <g id="resetDef">
                       <use xlink:href="#rim2" fill="#404040">
                               <set attributeName="fill" to="#808080" begin="reset.mouseover" end="reset.mouseout"/>
                       </use>
               </g>
        </defs>

<script type="text/javascript">
var viewWidth = 515;
var viewHeight = 146;
var sectionId = 'dynsection-8';
</script>
<script xlink:href="svgpan.js"/>
<svg id="graph" class="graph">
<g id="viewport">
<title>Search::getPopulation</title>
<!-- Node1 -->
<g id="node1" class="node"><title>Node1</title>
<polygon fill="#bfbfbf" stroke="black" points="0,-58.5 0,-78.5 123,-78.5 123,-58.5 0,-58.5"/>
<text text-anchor="middle" x="61.5" y="-65.7" font-family="Helvetica,sans-Serif" font-size="11.00">Search::getPopulation</text>
</g>
<!-- Node2 -->
<g id="node2" class="node"><title>Node2</title>
<g id="a_node2"><a xlink:href="classHillClimbing.xhtml#a845d2e4cac39582bf1218a90431c2f3c" target="_top" xlink:title="Initialize the algorithm for a new optimization. ">
<polygon fill="none" stroke="black" points="183,-117.5 183,-137.5 296,-137.5 296,-117.5 183,-117.5"/>
<text text-anchor="middle" x="239.5" y="-124.7" font-family="Helvetica,sans-Serif" font-size="11.00">HillClimbing::startup</text>
</a>
</g>
</g>
<!-- Node1&#45;&gt;Node2 -->
<g id="edge1" class="edge"><title>Node1&#45;&gt;Node2</title>
<path fill="none" stroke="midnightblue" d="M93.1969,-82.6877C111.931,-90.9766 136.525,-101.207 159,-108.5 169.258,-111.829 180.433,-114.856 191.075,-117.466"/>
<polygon fill="midnightblue" stroke="midnightblue" points="94.5335,-79.4513 83.9765,-78.556 91.6709,-85.8393 94.5335,-79.4513"/>
</g>
<!-- Node3 -->
<g id="node3" class="node"><title>Node3</title>
<g id="a_node3"><a xlink:href="classHillClimbing.xhtml#a13d4097b5483b2aaaff381af6b4ccf79" target="_top" xlink:title="Get the best Solution found since the last time the method startup() was called. ">
<polygon fill="none" stroke="black" points="159,-78.5 159,-98.5 320,-98.5 320,-78.5 159,-78.5"/>
<text text-anchor="middle" x="239.5" y="-85.7" font-family="Helvetica,sans-Serif" font-size="11.00">HillClimbing::getBestIndividual</text>
</a>
</g>
</g>
<!-- Node1&#45;&gt;Node3 -->
<g id="edge2" class="edge"><title>Node1&#45;&gt;Node3</title>
<path fill="none" stroke="midnightblue" d="M133.225,-76.5369C141.658,-77.4953 150.312,-78.4786 158.86,-79.45"/>
<polygon fill="midnightblue" stroke="midnightblue" points="133.4,-73.0344 123.069,-75.3829 132.61,-79.9897 133.4,-73.0344"/>
</g>
<!-- Node5 -->
<g id="node5" class="node"><title>Node5</title>
<g id="a_node5"><a xlink:href="classPSO.xhtml#a8fb3e9a46396074cbbdc2d04a83783a5" target="_top" xlink:title="Initialize the algorithm for a new optimization. ">
<polygon fill="none" stroke="black" points="200,-39.5 200,-59.5 279,-59.5 279,-39.5 200,-39.5"/>
<text text-anchor="middle" x="239.5" y="-46.7" font-family="Helvetica,sans-Serif" font-size="11.00">PSO::startup</text>
</a>
</g>
</g>
<!-- Node1&#45;&gt;Node5 -->
<g id="edge4" class="edge"><title>Node1&#45;&gt;Node5</title>
<path fill="none" stroke="midnightblue" d="M133.062,-60.8825C155.859,-58.4215 180.282,-55.7849 199.876,-53.6696"/>
<polygon fill="midnightblue" stroke="midnightblue" points="132.636,-57.4081 123.069,-61.9613 133.387,-64.3677 132.636,-57.4081"/>
</g>
<!-- Node6 -->
<g id="node6" class="node"><title>Node6</title>
<g id="a_node6"><a xlink:href="classPSO.xhtml#ab40ad5efb6079e427abb6e0b699fa018" target="_top" xlink:title="Get the best Solution found since the last time the method startup() was called. ">
<polygon fill="none" stroke="black" points="175.5,-0.5 175.5,-20.5 303.5,-20.5 303.5,-0.5 175.5,-0.5"/>
<text text-anchor="middle" x="239.5" y="-7.7" font-family="Helvetica,sans-Serif" font-size="11.00">PSO::getBestIndividual</text>
</a>
</g>
</g>
<!-- Node1&#45;&gt;Node6 -->
<g id="edge5" class="edge"><title>Node1&#45;&gt;Node6</title>
<path fill="none" stroke="midnightblue" d="M95.0379,-54.4771C113.572,-46.7964 137.348,-37.4547 159,-30.5 170.382,-26.844 182.854,-23.4339 194.476,-20.502"/>
<polygon fill="midnightblue" stroke="midnightblue" points="93.4659,-51.3409 85.5956,-58.4338 96.1713,-57.797 93.4659,-51.3409"/>
</g>
<!-- Node4 -->
<g id="node4" class="node"><title>Node4</title>
<g id="a_node4"><a xlink:href="classHillClimbing.xhtml#a9be3cc94cce8d67c953ddc17e6fcf84e" target="_top" xlink:title="Get the Fitness for the current best Solution. ">
<polygon fill="none" stroke="black" points="356,-78.5 356,-98.5 507,-98.5 507,-78.5 356,-78.5"/>
<text text-anchor="middle" x="431.5" y="-85.7" font-family="Helvetica,sans-Serif" font-size="11.00">HillClimbing::getBestFitness</text>
</a>
</g>
</g>
<!-- Node3&#45;&gt;Node4 -->
<g id="edge3" class="edge"><title>Node3&#45;&gt;Node4</title>
<path fill="none" stroke="midnightblue" d="M330.529,-88.5C338.992,-88.5 347.507,-88.5 355.805,-88.5"/>
<polygon fill="midnightblue" stroke="midnightblue" points="330.251,-85.0001 320.251,-88.5 330.251,-92.0001 330.251,-85.0001"/>
</g>
<!-- Node7 -->
<g id="node7" class="node"><title>Node7</title>
<g id="a_node7"><a xlink:href="classPSO.xhtml#a1ecbe78cffa328555e3e7428602a67ac" target="_top" xlink:title="Get the Fitness for the current best Solution. ">
<polygon fill="none" stroke="black" points="373,-0.5 373,-20.5 490,-20.5 490,-0.5 373,-0.5"/>
<text text-anchor="middle" x="431.5" y="-7.7" font-family="Helvetica,sans-Serif" font-size="11.00">PSO::getBestFitness</text>
</a>
</g>
</g>
<!-- Node6&#45;&gt;Node7 -->
<g id="edge6" class="edge"><title>Node6&#45;&gt;Node7</title>
<path fill="none" stroke="midnightblue" d="M313.619,-10.5C333.228,-10.5 354.152,-10.5 372.798,-10.5"/>
<polygon fill="midnightblue" stroke="midnightblue" points="313.503,-7.0001 303.503,-10.5 313.503,-14.0001 313.503,-7.0001"/>
</g>
</g>
</svg>
        <g id="navigator" transform="translate(0 0)" fill="#404254">
                <rect fill="#f2f5e9" fill-opacity="0.5" stroke="#606060" stroke-width=".5" x="0" y="0" width="60" height="60"/>
                <use id="zoomplus" xlink:href="#zoomPlus" x="17" y="9" onmousedown="handleZoom(evt,'in')"/>
                <use id="zoomminus" xlink:href="#zoomMin" x="42" y="9" onmousedown="handleZoom(evt,'out')"/>
                <use id="reset" xlink:href="#resetDef" x="30" y="36" onmousedown="handleReset()"/>
                <g id="arrowUp" xlink:href="#dirArrow" transform="translate(30 24)" onmousedown="handlePan(0,-1)">
                  <use xlink:href="#rim" fill="#404040">
                        <set attributeName="fill" to="#808080" begin="arrowUp.mouseover" end="arrowUp.mouseout"/>
                  </use>
                  <path fill="none" stroke="white" stroke-width="1.5" d="M0,-3.0v7 M-2.5,-0.5L0,-3.0L2.5,-0.5"/>
                </g>
                <g id="arrowRight" xlink:href="#dirArrow" transform="rotate(90) translate(36 -43)" onmousedown="handlePan(1,0)">
                  <use xlink:href="#rim" fill="#404040">
                        <set attributeName="fill" to="#808080" begin="arrowRight.mouseover" end="arrowRight.mouseout"/>
                  </use>
                  <path fill="none" stroke="white" stroke-width="1.5" d="M0,-3.0v7 M-2.5,-0.5L0,-3.0L2.5,-0.5"/>
                </g>
                <g id="arrowDown" xlink:href="#dirArrow" transform="rotate(180) translate(-30 -48)" onmousedown="handlePan(0,1)">
                  <use xlink:href="#rim" fill="#404040">
                        <set attributeName="fill" to="#808080" begin="arrowDown.mouseover" end="arrowDown.mouseout"/>
                  </use>
                  <path fill="none" stroke="white" stroke-width="1.5" d="M0,-3.0v7 M-2.5,-0.5L0,-3.0L2.5,-0.5"/>
                </g>
                <g id="arrowLeft" xlink:href="#dirArrow" transform="rotate(270) translate(-36 17)" onmousedown="handlePan(-1,0)">
                  <use xlink:href="#rim" fill="#404040">
                        <set attributeName="fill" to="#808080" begin="arrowLeft.mouseover" end="arrowLeft.mouseout"/>
                  </use>
                  <path fill="none" stroke="white" stroke-width="1.5" d="M0,-3.0v7 M-2.5,-0.5L0,-3.0L2.5,-0.5"/>
                </g>
        </g>
        <svg viewBox="0 0 15 15" width="100%" height="30px" preserveAspectRatio="xMaxYMin meet">
         <g id="arrow_out" transform="scale(0.3 0.3)">
          <a xlink:href="classSearch_a5997e43c8ba27480819f3e6358f984f4_icgraph_org.svg" target="_base">
           <rect id="button" ry="5" rx="5" y="6" x="6" height="38" width="38"
                fill="#f2f5e9" fill-opacity="0.5" stroke="#606060" stroke-width="1.0"/>
           <path id="arrow"
             d="M 11.500037,31.436501 C 11.940474,20.09759 22.043105,11.32322 32.158766,21.979434 L 37.068811,17.246167 C 37.068811,17.246167 37.088388,32 37.088388,32 L 22.160133,31.978069 C 22.160133,31.978069 26.997745,27.140456 26.997745,27.140456 C 18.528582,18.264221 13.291696,25.230495 11.500037,31.436501 z"
             style="fill:#404040;"/>
          </a>
         </g>
        </svg>
</svg>
