<?xml version="1.0" encoding="UTF-8" standalone="no"?>
<!DOCTYPE svg PUBLIC "-//W3C//DTD SVG 1.1//EN"
 "http://www.w3.org/Graphics/SVG/1.1/DTD/svg11.dtd">
<!-- Generated by graphviz version 2.38.0 (20140413.2041)
 -->
<!-- Title: Search::getBestFitness Pages: 1 -->
<svg width="630pt" height="64pt"
 viewBox="0.00 0.00 630.00 64.00" xmlns="http://www.w3.org/2000/svg" xmlns:xlink="http://www.w3.org/1999/xlink">
<g id="graph0" class="graph" transform="scale(1 1) rotate(0) translate(4 60)">
<title>Search::getBestFitness</title>
<!-- Node1 -->
<g id="node1" class="node"><title>Node1</title>
<polygon fill="#bfbfbf" stroke="black" points="0,-6.5 0,-26.5 128,-26.5 128,-6.5 0,-6.5"/>
<text text-anchor="middle" x="64" y="-13.7" font-family="Helvetica,sans-Serif" font-size="11.00">Search::getBestFitness</text>
</g>
<!-- Node2 -->
<g id="node2" class="node"><title>Node2</title>
<g id="a_node2"><a xlink:href="classSearch.xhtml#af9f46406f1f1f7f89ab294c155738ca6" target="_top" xlink:title="Set the full search space. ">
<polygon fill="none" stroke="black" points="164,-6.5 164,-26.5 301,-26.5 301,-6.5 164,-6.5"/>
<text text-anchor="middle" x="232.5" y="-13.7" font-family="Helvetica,sans-Serif" font-size="11.00">Search::setSearchSpace</text>
</a>
</g>
</g>
<!-- Node1&#45;&gt;Node2 -->
<g id="edge1" class="edge"><title>Node1&#45;&gt;Node2</title>
<path fill="none" stroke="midnightblue" d="M138.576,-16.5C146.974,-16.5 155.505,-16.5 163.821,-16.5"/>
<polygon fill="midnightblue" stroke="midnightblue" points="138.422,-13.0001 128.421,-16.5 138.421,-20.0001 138.422,-13.0001"/>
</g>
<!-- Node3 -->
<g id="node3" class="node"><title>Node3</title>
<g id="a_node3"><a xlink:href="classTHBuilder_1_1SearchGroup.xhtml#a794cf5448380674b51022b5d65a240e2" target="_top" xlink:title="Constructor to create the internal Search Group. ">
<polygon fill="none" stroke="black" points="337,-23.5 337,-55.5 473,-55.5 473,-23.5 337,-23.5"/>
<text text-anchor="start" x="345" y="-42.7" font-family="Helvetica,sans-Serif" font-size="11.00">THBuilder::SearchGroup</text>
<text text-anchor="middle" x="405" y="-30.7" font-family="Helvetica,sans-Serif" font-size="11.00">::SearchGroup</text>
</a>
</g>
</g>
<!-- Node2&#45;&gt;Node3 -->
<g id="edge2" class="edge"><title>Node2&#45;&gt;Node3</title>
<path fill="none" stroke="midnightblue" d="M311.336,-26.9999C319.878,-28.1521 328.519,-29.3178 336.914,-30.4503"/>
<polygon fill="midnightblue" stroke="midnightblue" points="311.754,-23.5247 301.376,-25.6563 310.818,-30.4618 311.754,-23.5247"/>
</g>
<!-- Node4 -->
<g id="node4" class="node"><title>Node4</title>
<g id="a_node4"><a xlink:href="classTHBuilder_1_1THImpl.xhtml#a0d6e2fd43f50755ff2738e924f66690d" target="_top" xlink:title="THBuilder::THImpl::\lTHImpl">
<polygon fill="none" stroke="black" points="509,-0.5 509,-32.5 622,-32.5 622,-0.5 509,-0.5"/>
<text text-anchor="start" x="517" y="-19.7" font-family="Helvetica,sans-Serif" font-size="11.00">THBuilder::THImpl::</text>
<text text-anchor="middle" x="565.5" y="-7.7" font-family="Helvetica,sans-Serif" font-size="11.00">THImpl</text>
</a>
</g>
</g>
<!-- Node2&#45;&gt;Node4 -->
<g id="edge4" class="edge"><title>Node2&#45;&gt;Node4</title>
<path fill="none" stroke="midnightblue" d="M311.285,-14.8349C319.961,-14.6974 328.669,-14.5805 337,-14.5 397.442,-13.9161 412.559,-13.8395 473,-14.5 484.598,-14.6267 497.022,-14.8438 508.858,-15.0894"/>
<polygon fill="midnightblue" stroke="midnightblue" points="311.081,-11.3378 301.141,-15.0049 311.199,-18.3368 311.081,-11.3378"/>
</g>
<!-- Node3&#45;&gt;Node4 -->
<g id="edge3" class="edge"><title>Node3&#45;&gt;Node4</title>
<path fill="none" stroke="midnightblue" d="M483.247,-28.2906C491.824,-27.0461 500.431,-25.7971 508.668,-24.6019"/>
<polygon fill="midnightblue" stroke="midnightblue" points="482.612,-24.8461 473.218,-29.7459 483.617,-31.7735 482.612,-24.8461"/>
</g>
</g>
</svg>
