<?xml version="1.0" encoding="UTF-8" standalone="no"?>
<!DOCTYPE svg PUBLIC "-//W3C//DTD SVG 1.1//EN"
 "http://www.w3.org/Graphics/SVG/1.1/DTD/svg11.dtd">
<!-- Generated by graphviz version 2.38.0 (20140413.2041)
 -->
<!-- Title: PSO::getBestFitness Pages: 1 -->
<svg width="448pt" height="29pt"
 viewBox="0.00 0.00 448.00 29.00" xmlns="http://www.w3.org/2000/svg" xmlns:xlink="http://www.w3.org/1999/xlink">
<g id="graph0" class="graph" transform="scale(1 1) rotate(0) translate(4 25)">
<title>PSO::getBestFitness</title>
<!-- Node1 -->
<g id="node1" class="node"><title>Node1</title>
<polygon fill="#bfbfbf" stroke="black" points="0,-0.5 0,-20.5 117,-20.5 117,-0.5 0,-0.5"/>
<text text-anchor="middle" x="58.5" y="-7.7" font-family="Helvetica,sans-Serif" font-size="11.00">PSO::getBestFitness</text>
</g>
<!-- Node2 -->
<g id="node2" class="node"><title>Node2</title>
<g id="a_node2"><a xlink:href="classPSO.xhtml#ab40ad5efb6079e427abb6e0b699fa018" target="_top" xlink:title="Get the best Solution found since the last time the method startup() was called. ">
<polygon fill="none" stroke="black" points="153,-0.5 153,-20.5 281,-20.5 281,-0.5 153,-0.5"/>
<text text-anchor="middle" x="217" y="-7.7" font-family="Helvetica,sans-Serif" font-size="11.00">PSO::getBestIndividual</text>
</a>
</g>
</g>
<!-- Node1&#45;&gt;Node2 -->
<g id="edge1" class="edge"><title>Node1&#45;&gt;Node2</title>
<path fill="none" stroke="midnightblue" d="M117.33,-10.5C125.654,-10.5 134.309,-10.5 142.881,-10.5"/>
<polygon fill="midnightblue" stroke="midnightblue" points="142.882,-14.0001 152.882,-10.5 142.882,-7.0001 142.882,-14.0001"/>
</g>
<!-- Node3 -->
<g id="node3" class="node"><title>Node3</title>
<g id="a_node3"><a xlink:href="classSearch.xhtml#a5997e43c8ba27480819f3e6358f984f4" target="_top" xlink:title="Search::getPopulation">
<polygon fill="none" stroke="black" points="317,-0.5 317,-20.5 440,-20.5 440,-0.5 317,-0.5"/>
<text text-anchor="middle" x="378.5" y="-7.7" font-family="Helvetica,sans-Serif" font-size="11.00">Search::getPopulation</text>
</a>
</g>
</g>
<!-- Node2&#45;&gt;Node3 -->
<g id="edge2" class="edge"><title>Node2&#45;&gt;Node3</title>
<path fill="none" stroke="midnightblue" d="M281.039,-10.5C289.396,-10.5 298.01,-10.5 306.49,-10.5"/>
<polygon fill="midnightblue" stroke="midnightblue" points="306.741,-14.0001 316.741,-10.5 306.741,-7.0001 306.741,-14.0001"/>
</g>
</g>
</svg>
