<?xml version="1.0" encoding="UTF-8" standalone="no"?>
<!DOCTYPE svg PUBLIC "-//W3C//DTD SVG 1.1//EN"
 "http://www.w3.org/Graphics/SVG/1.1/DTD/svg11.dtd">
<!-- Generated by graphviz version 2.38.0 (20140413.2041)
 -->
<!-- Title: THBuilder::getNStartupSolutions Pages: 1 -->
<svg width="503pt" height="41pt"
 viewBox="0.00 0.00 503.00 41.00" xmlns="http://www.w3.org/2000/svg" xmlns:xlink="http://www.w3.org/1999/xlink">
<g id="graph0" class="graph" transform="scale(1 1) rotate(0) translate(4 37)">
<title>THBuilder::getNStartupSolutions</title>
<!-- Node1 -->
<g id="node1" class="node"><title>Node1</title>
<polygon fill="#bfbfbf" stroke="black" points="0,-6.5 0,-26.5 174,-26.5 174,-6.5 0,-6.5"/>
<text text-anchor="middle" x="87" y="-13.7" font-family="Helvetica,sans-Serif" font-size="11.00">THBuilder::getNStartupSolutions</text>
</g>
<!-- Node2 -->
<g id="node2" class="node"><title>Node2</title>
<g id="a_node2"><a xlink:href="classTHBuilder_1_1SearchGroup.xhtml#aafebb836a1ec681213319a024a254ca8" target="_top" xlink:title="Reset the location of the population individuals and calculate the fitness. ">
<polygon fill="none" stroke="black" points="210,-0.5 210,-32.5 346,-32.5 346,-0.5 210,-0.5"/>
<text text-anchor="start" x="218" y="-19.7" font-family="Helvetica,sans-Serif" font-size="11.00">THBuilder::SearchGroup</text>
<text text-anchor="middle" x="278" y="-7.7" font-family="Helvetica,sans-Serif" font-size="11.00">::resetPopulation</text>
</a>
</g>
</g>
<!-- Node1&#45;&gt;Node2 -->
<g id="edge1" class="edge"><title>Node1&#45;&gt;Node2</title>
<path fill="none" stroke="midnightblue" d="M184.333,-16.5C192.968,-16.5 201.583,-16.5 209.889,-16.5"/>
<polygon fill="midnightblue" stroke="midnightblue" points="184.204,-13.0001 174.204,-16.5 184.204,-20.0001 184.204,-13.0001"/>
</g>
<!-- Node3 -->
<g id="node3" class="node"><title>Node3</title>
<g id="a_node3"><a xlink:href="classTHBuilder_1_1THImpl.xhtml#a0d6e2fd43f50755ff2738e924f66690d" target="_top" xlink:title="THBuilder::THImpl::\lTHImpl">
<polygon fill="none" stroke="black" points="382,-0.5 382,-32.5 495,-32.5 495,-0.5 382,-0.5"/>
<text text-anchor="start" x="390" y="-19.7" font-family="Helvetica,sans-Serif" font-size="11.00">THBuilder::THImpl::</text>
<text text-anchor="middle" x="438.5" y="-7.7" font-family="Helvetica,sans-Serif" font-size="11.00">THImpl</text>
</a>
</g>
</g>
<!-- Node2&#45;&gt;Node3 -->
<g id="edge2" class="edge"><title>Node2&#45;&gt;Node3</title>
<path fill="none" stroke="midnightblue" d="M356.247,-16.5C364.824,-16.5 373.431,-16.5 381.668,-16.5"/>
<polygon fill="midnightblue" stroke="midnightblue" points="356.218,-13.0001 346.218,-16.5 356.218,-20.0001 356.218,-13.0001"/>
</g>
</g>
</svg>
