<?xml version="1.0" encoding="UTF-8" standalone="no"?>
<!DOCTYPE svg PUBLIC "-//W3C//DTD SVG 1.1//EN"
 "http://www.w3.org/Graphics/SVG/1.1/DTD/svg11.dtd">
<!-- Generated by graphviz version 2.38.0 (20140413.2041)
 -->
<!-- Title: ReinforcementLearningSearchAlgorithmSelectionPolicy::rank Pages: 1 -->
<svg width="337pt" height="146pt"
 viewBox="0.00 0.00 337.00 146.00" xmlns="http://www.w3.org/2000/svg" xmlns:xlink="http://www.w3.org/1999/xlink">
<g id="graph0" class="graph" transform="scale(1 1) rotate(0) translate(4 142)">
<title>ReinforcementLearningSearchAlgorithmSelectionPolicy::rank</title>
<!-- Node1 -->
<g id="node1" class="node"><title>Node1</title>
<polygon fill="#bfbfbf" stroke="black" points="0,-52.5 0,-84.5 164,-84.5 164,-52.5 0,-52.5"/>
<text text-anchor="start" x="8" y="-71.7" font-family="Helvetica,sans-Serif" font-size="11.00">ReinforcementLearningSearch</text>
<text text-anchor="middle" x="82" y="-59.7" font-family="Helvetica,sans-Serif" font-size="11.00">AlgorithmSelectionPolicy::rank</text>
</g>
<!-- Node2 -->
<g id="node2" class="node"><title>Node2</title>
<g id="a_node2"><a xlink:href="classSearch.xhtml#afbc425366989c9fc8aa7c88b70812b97" target="_top" xlink:title="Get the name of the optimization method implemented. ">
<polygon fill="none" stroke="black" points="214,-117.5 214,-137.5 315,-137.5 315,-117.5 214,-117.5"/>
<text text-anchor="middle" x="264.5" y="-124.7" font-family="Helvetica,sans-Serif" font-size="11.00">Search::getName</text>
</a>
</g>
</g>
<!-- Node1&#45;&gt;Node2 -->
<g id="edge1" class="edge"><title>Node1&#45;&gt;Node2</title>
<path fill="none" stroke="midnightblue" d="M128.706,-84.5839C150.266,-92.0534 176.388,-100.934 200,-108.5 206.185,-110.482 212.729,-112.513 219.173,-114.476"/>
<polygon fill="midnightblue" stroke="midnightblue" points="218.567,-117.949 229.152,-117.487 220.589,-111.247 218.567,-117.949"/>
</g>
<!-- Node3 -->
<g id="node3" class="node"><title>Node3</title>
<g id="a_node3"><a xlink:href="structFitness.xhtml#ac6513eb1ca76f5618cbc0a2f4e25139c" target="_top" xlink:title="Get the first value from the list of values that represents the Fitness. ">
<polygon fill="none" stroke="black" points="204,-78.5 204,-98.5 325,-98.5 325,-78.5 204,-78.5"/>
<text text-anchor="middle" x="264.5" y="-85.7" font-family="Helvetica,sans-Serif" font-size="11.00">Fitness::getFirstValue</text>
</a>
</g>
</g>
<!-- Node1&#45;&gt;Node3 -->
<g id="edge2" class="edge"><title>Node1&#45;&gt;Node3</title>
<path fill="none" stroke="midnightblue" d="M164.01,-77.4762C173.957,-78.5783 184.055,-79.6972 193.814,-80.7786"/>
<polygon fill="midnightblue" stroke="midnightblue" points="193.516,-84.2669 203.841,-81.8896 194.287,-77.3095 193.516,-84.2669"/>
</g>
<!-- Node4 -->
<g id="node4" class="node"><title>Node4</title>
<g id="a_node4"><a xlink:href="classSearchScore.xhtml#a9157d1aa13189eece5b1321c08316220" target="_top" xlink:title="SearchScore::setScore">
<polygon fill="none" stroke="black" points="200.5,-39.5 200.5,-59.5 328.5,-59.5 328.5,-39.5 200.5,-39.5"/>
<text text-anchor="middle" x="264.5" y="-46.7" font-family="Helvetica,sans-Serif" font-size="11.00">SearchScore::setScore</text>
</a>
</g>
</g>
<!-- Node1&#45;&gt;Node4 -->
<g id="edge3" class="edge"><title>Node1&#45;&gt;Node4</title>
<path fill="none" stroke="midnightblue" d="M164.01,-59.9726C172.767,-59.0508 181.641,-58.1167 190.298,-57.2054"/>
<polygon fill="midnightblue" stroke="midnightblue" points="190.763,-60.676 200.341,-56.1483 190.03,-53.7145 190.763,-60.676"/>
</g>
<!-- Node5 -->
<g id="node5" class="node"><title>Node5</title>
<g id="a_node5"><a xlink:href="classSearchScore.xhtml#a909350808e091d0f75d43bbf08f6db29" target="_top" xlink:title="SearchScore::getScore">
<polygon fill="none" stroke="black" points="200,-0.5 200,-20.5 329,-20.5 329,-0.5 200,-0.5"/>
<text text-anchor="middle" x="264.5" y="-7.7" font-family="Helvetica,sans-Serif" font-size="11.00">SearchScore::getScore</text>
</a>
</g>
</g>
<!-- Node1&#45;&gt;Node5 -->
<g id="edge4" class="edge"><title>Node1&#45;&gt;Node5</title>
<path fill="none" stroke="midnightblue" d="M132.211,-52.4094C153.101,-45.6069 177.726,-37.6248 200,-30.5 207.039,-28.2486 214.522,-25.8742 221.79,-23.5787"/>
<polygon fill="midnightblue" stroke="midnightblue" points="223.019,-26.8611 231.504,-20.5164 220.914,-20.185 223.019,-26.8611"/>
</g>
</g>
</svg>
