<?xml version="1.0" encoding="UTF-8" standalone="no"?>
<!DOCTYPE svg PUBLIC "-//W3C//DTD SVG 1.1//EN"
 "http://www.w3.org/Graphics/SVG/1.1/DTD/svg11.dtd">
<!-- Generated by graphviz version 2.38.0 (20140413.2041)
 -->
<!-- Title: THUtil::getRandomSeed Pages: 1 -->
<svg width="543pt" height="296pt"
 viewBox="0.00 0.00 543.00 296.00" xmlns="http://www.w3.org/2000/svg" xmlns:xlink="http://www.w3.org/1999/xlink">
<g id="graph0" class="graph" transform="scale(1 1) rotate(0) translate(4 292)">
<title>THUtil::getRandomSeed</title>
<!-- Node1 -->
<g id="node1" class="node"><title>Node1</title>
<polygon fill="#bfbfbf" stroke="black" points="0,-157.5 0,-177.5 135,-177.5 135,-157.5 0,-157.5"/>
<text text-anchor="middle" x="67.5" y="-164.7" font-family="Helvetica,sans-Serif" font-size="11.00">THUtil::getRandomSeed</text>
</g>
<!-- Node2 -->
<g id="node2" class="node"><title>Node2</title>
<g id="a_node2"><a xlink:href="classHillClimbing.xhtml#a845d2e4cac39582bf1218a90431c2f3c" target="_top" xlink:title="Initialize the algorithm for a new optimization. ">
<polygon fill="none" stroke="black" points="222,-267.5 222,-287.5 335,-287.5 335,-267.5 222,-267.5"/>
<text text-anchor="middle" x="278.5" y="-274.7" font-family="Helvetica,sans-Serif" font-size="11.00">HillClimbing::startup</text>
</a>
</g>
</g>
<!-- Node1&#45;&gt;Node2 -->
<g id="edge1" class="edge"><title>Node1&#45;&gt;Node2</title>
<path fill="none" stroke="midnightblue" d="M83.2254,-185.574C101.486,-206.667 134.676,-240.896 171,-258.5 186.634,-266.077 204.874,-270.659 221.796,-273.421"/>
<polygon fill="midnightblue" stroke="midnightblue" points="85.6854,-183.063 76.5587,-177.682 80.3379,-187.58 85.6854,-183.063"/>
</g>
<!-- Node3 -->
<g id="node3" class="node"><title>Node3</title>
<g id="a_node3"><a xlink:href="classPSO.xhtml#a8fb3e9a46396074cbbdc2d04a83783a5" target="_top" xlink:title="Initialize the algorithm for a new optimization. ">
<polygon fill="none" stroke="black" points="239,-228.5 239,-248.5 318,-248.5 318,-228.5 239,-228.5"/>
<text text-anchor="middle" x="278.5" y="-235.7" font-family="Helvetica,sans-Serif" font-size="11.00">PSO::startup</text>
</a>
</g>
</g>
<!-- Node1&#45;&gt;Node3 -->
<g id="edge2" class="edge"><title>Node1&#45;&gt;Node3</title>
<path fill="none" stroke="midnightblue" d="M93.3947,-182.748C113.614,-194.477 143.23,-210.204 171,-219.5 192.907,-226.833 218.348,-231.506 238.87,-234.381"/>
<polygon fill="midnightblue" stroke="midnightblue" points="94.93,-179.59 84.5399,-177.517 91.3697,-185.616 94.93,-179.59"/>
</g>
<!-- Node4 -->
<g id="node4" class="node"><title>Node4</title>
<g id="a_node4"><a xlink:href="classBetaRelocationStrategyPolicy.xhtml#a3787cd91ed77d150601350420ca218a6" target="_top" xlink:title="BetaRelocationStrategyPolicy\l::BetaRelocationStrategyPolicy">
<polygon fill="none" stroke="black" points="196,-177.5 196,-209.5 361,-209.5 361,-177.5 196,-177.5"/>
<text text-anchor="start" x="204" y="-196.7" font-family="Helvetica,sans-Serif" font-size="11.00">BetaRelocationStrategyPolicy</text>
<text text-anchor="middle" x="278.5" y="-184.7" font-family="Helvetica,sans-Serif" font-size="11.00">::BetaRelocationStrategyPolicy</text>
</a>
</g>
</g>
<!-- Node1&#45;&gt;Node4 -->
<g id="edge3" class="edge"><title>Node1&#45;&gt;Node4</title>
<path fill="none" stroke="midnightblue" d="M145.28,-177.052C161.693,-179.093 179.089,-181.258 195.684,-183.322"/>
<polygon fill="midnightblue" stroke="midnightblue" points="145.559,-173.559 135.204,-175.798 144.695,-180.506 145.559,-173.559"/>
</g>
<!-- Node5 -->
<g id="node5" class="node"><title>Node5</title>
<g id="a_node5"><a xlink:href="classRandomBestListSelectionPolicy.xhtml#abc1f4bb2b43625f4161cf7adc3d9dec8" target="_top" xlink:title="RandomBestListSelectionPolicy\l::RandomBestListSelectionPolicy">
<polygon fill="none" stroke="black" points="191,-126.5 191,-158.5 366,-158.5 366,-126.5 191,-126.5"/>
<text text-anchor="start" x="199" y="-145.7" font-family="Helvetica,sans-Serif" font-size="11.00">RandomBestListSelectionPolicy</text>
<text text-anchor="middle" x="278.5" y="-133.7" font-family="Helvetica,sans-Serif" font-size="11.00">::RandomBestListSelectionPolicy</text>
</a>
</g>
</g>
<!-- Node1&#45;&gt;Node5 -->
<g id="edge4" class="edge"><title>Node1&#45;&gt;Node5</title>
<path fill="none" stroke="midnightblue" d="M145.309,-158.312C160.113,-156.542 175.716,-154.675 190.808,-152.87"/>
<polygon fill="midnightblue" stroke="midnightblue" points="144.717,-154.858 135.204,-159.521 145.548,-161.809 144.717,-154.858"/>
</g>
<!-- Node6 -->
<g id="node6" class="node"><title>Node6</title>
<g id="a_node6"><a xlink:href="classReinforcementLearningSearchAlgorithmSelectionPolicy.xhtml#a2749d93ae5cbefdfc9aedca07bfe51ce" target="_top" xlink:title="ReinforcementLearningSearch\lAlgorithmSelectionPolicy\l::ReinforcementLearningSearchAlgorithm\lSelectionPolicy">
<polygon fill="none" stroke="black" points="171,-51.5 171,-107.5 386,-107.5 386,-51.5 171,-51.5"/>
<text text-anchor="start" x="179" y="-94.7" font-family="Helvetica,sans-Serif" font-size="11.00">ReinforcementLearningSearch</text>
<text text-anchor="start" x="179" y="-82.7" font-family="Helvetica,sans-Serif" font-size="11.00">AlgorithmSelectionPolicy</text>
<text text-anchor="start" x="179" y="-70.7" font-family="Helvetica,sans-Serif" font-size="11.00">::ReinforcementLearningSearchAlgorithm</text>
<text text-anchor="middle" x="278.5" y="-58.7" font-family="Helvetica,sans-Serif" font-size="11.00">SelectionPolicy</text>
</a>
</g>
</g>
<!-- Node1&#45;&gt;Node6 -->
<g id="edge5" class="edge"><title>Node1&#45;&gt;Node6</title>
<path fill="none" stroke="midnightblue" d="M96.5151,-152.787C116.902,-142.339 145.32,-128.305 171,-117.5 179.052,-114.112 187.523,-110.753 196.024,-107.517"/>
<polygon fill="midnightblue" stroke="midnightblue" points="94.7557,-149.756 87.4759,-157.454 97.9672,-155.976 94.7557,-149.756"/>
</g>
<!-- Node7 -->
<g id="node7" class="node"><title>Node7</title>
<g id="a_node7"><a xlink:href="classTHBuilder_1_1SearchGroup.xhtml#aafebb836a1ec681213319a024a254ca8" target="_top" xlink:title="Reset the location of the population individuals and calculate the fitness. ">
<polygon fill="none" stroke="black" points="210.5,-0.5 210.5,-32.5 346.5,-32.5 346.5,-0.5 210.5,-0.5"/>
<text text-anchor="start" x="218.5" y="-19.7" font-family="Helvetica,sans-Serif" font-size="11.00">THBuilder::SearchGroup</text>
<text text-anchor="middle" x="278.5" y="-7.7" font-family="Helvetica,sans-Serif" font-size="11.00">::resetPopulation</text>
</a>
</g>
</g>
<!-- Node1&#45;&gt;Node7 -->
<g id="edge6" class="edge"><title>Node1&#45;&gt;Node7</title>
<path fill="none" stroke="midnightblue" d="M78.7485,-148.426C94.6832,-120.667 128.081,-69.5107 171,-42.5 182.839,-35.049 196.659,-29.7332 210.347,-25.9409"/>
<polygon fill="midnightblue" stroke="midnightblue" points="75.6737,-146.754 73.8536,-157.192 81.7852,-150.167 75.6737,-146.754"/>
</g>
<!-- Node8 -->
<g id="node8" class="node"><title>Node8</title>
<g id="a_node8"><a xlink:href="classTHBuilder_1_1THImpl.xhtml#a0d6e2fd43f50755ff2738e924f66690d" target="_top" xlink:title="THBuilder::THImpl::\lTHImpl">
<polygon fill="none" stroke="black" points="422,-0.5 422,-32.5 535,-32.5 535,-0.5 422,-0.5"/>
<text text-anchor="start" x="430" y="-19.7" font-family="Helvetica,sans-Serif" font-size="11.00">THBuilder::THImpl::</text>
<text text-anchor="middle" x="478.5" y="-7.7" font-family="Helvetica,sans-Serif" font-size="11.00">THImpl</text>
</a>
</g>
</g>
<!-- Node7&#45;&gt;Node8 -->
<g id="edge7" class="edge"><title>Node7&#45;&gt;Node8</title>
<path fill="none" stroke="midnightblue" d="M356.711,-16.5C378.401,-16.5 401.56,-16.5 421.737,-16.5"/>
<polygon fill="midnightblue" stroke="midnightblue" points="356.534,-13.0001 346.534,-16.5 356.534,-20.0001 356.534,-13.0001"/>
</g>
</g>
</svg>
