<?xml version="1.0" encoding="UTF-8" standalone="no"?>
<!DOCTYPE svg PUBLIC "-//W3C//DTD SVG 1.1//EN"
 "http://www.w3.org/Graphics/SVG/1.1/DTD/svg11.dtd">
<!-- Generated by graphviz version 2.38.0 (20140413.2041)
 -->
<!-- Title: ConvergenceControlPolicy&lt; P, pSize, F, fSize, V, vSize &gt; Pages: 1 -->
<svg width="177pt" height="262pt"
 viewBox="0.00 0.00 177.00 262.00" xmlns="http://www.w3.org/2000/svg" xmlns:xlink="http://www.w3.org/1999/xlink">
<g id="graph0" class="graph" transform="scale(1 1) rotate(0) translate(4 258)">
<title>ConvergenceControlPolicy&lt; P, pSize, F, fSize, V, vSize &gt;</title>
<!-- Node1 -->
<g id="node1" class="node"><title>Node1</title>
<polygon fill="#bfbfbf" stroke="black" points="-1.42109e-14,-133.5 -1.42109e-14,-253.5 169,-253.5 169,-133.5 -1.42109e-14,-133.5"/>
<text text-anchor="start" x="8" y="-240.7" font-family="Helvetica,sans-Serif" font-size="11.00">ConvergenceControlPolicy</text>
<text text-anchor="start" x="8" y="-228.7" font-family="Helvetica,sans-Serif" font-size="11.00">&lt; P, pSize, F, fSize, V,</text>
<text text-anchor="middle" x="84.5" y="-216.7" font-family="Helvetica,sans-Serif" font-size="11.00"> vSize &gt;</text>
<polyline fill="none" stroke="black" points="-1.42109e-14,-209.5 169,-209.5 "/>
<text text-anchor="middle" x="84.5" y="-196.7" font-family="Helvetica,sans-Serif" font-size="11.00"> </text>
<polyline fill="none" stroke="black" points="-1.42109e-14,-189.5 169,-189.5 "/>
<text text-anchor="start" x="8" y="-176.7" font-family="Helvetica,sans-Serif" font-size="11.00">+ ConvergenceControlPolicy()</text>
<text text-anchor="start" x="8" y="-164.7" font-family="Helvetica,sans-Serif" font-size="11.00">+ ~ConvergenceControlPolicy()</text>
<text text-anchor="start" x="8" y="-152.7" font-family="Helvetica,sans-Serif" font-size="11.00">+ run()</text>
<text text-anchor="start" x="8" y="-140.7" font-family="Helvetica,sans-Serif" font-size="11.00">+ getBudgetSize()</text>
</g>
<!-- Node2 -->
<g id="node2" class="node"><title>Node2</title>
<g id="a_node2"><a xlink:href="classCSMOn.xhtml" target="_top" xlink:title="This policy runs, monitors and controls the convergence limits for the current TH iteration...">
<polygon fill="none" stroke="black" points="23.5,-0.5 23.5,-96.5 145.5,-96.5 145.5,-0.5 23.5,-0.5"/>
<text text-anchor="start" x="31.5" y="-83.7" font-family="Helvetica,sans-Serif" font-size="11.00">CSMOn&lt; P, pSize, F,</text>
<text text-anchor="middle" x="84.5" y="-71.7" font-family="Helvetica,sans-Serif" font-size="11.00"> fSize, V, vSize &gt;</text>
<polyline fill="none" stroke="black" points="23.5,-64.5 145.5,-64.5 "/>
<text text-anchor="middle" x="84.5" y="-51.7" font-family="Helvetica,sans-Serif" font-size="11.00"> </text>
<polyline fill="none" stroke="black" points="23.5,-44.5 145.5,-44.5 "/>
<text text-anchor="start" x="31.5" y="-31.7" font-family="Helvetica,sans-Serif" font-size="11.00">+ CSMOn()</text>
<text text-anchor="start" x="31.5" y="-19.7" font-family="Helvetica,sans-Serif" font-size="11.00">+ ~CSMOn()</text>
<text text-anchor="start" x="31.5" y="-7.7" font-family="Helvetica,sans-Serif" font-size="11.00">+ run()</text>
</a>
</g>
</g>
<!-- Node1&#45;&gt;Node2 -->
<g id="edge1" class="edge"><title>Node1&#45;&gt;Node2</title>
<path fill="none" stroke="midnightblue" d="M84.5,-123.074C84.5,-114.154 84.5,-105.19 84.5,-96.74"/>
<polygon fill="none" stroke="midnightblue" points="81.0001,-123.097 84.5,-133.097 88.0001,-123.097 81.0001,-123.097"/>
</g>
</g>
</svg>
