<?xml version="1.0" encoding="UTF-8" standalone="no"?>
<!DOCTYPE svg PUBLIC "-//W3C//DTD SVG 1.1//EN"
 "http://www.w3.org/Graphics/SVG/1.1/DTD/svg11.dtd">
<!-- Generated by graphviz version 2.38.0 (20140413.2041)
 -->
<!-- Title: THBuilder::getNEvals Pages: 1 -->
<svg width="487pt" height="119pt"
 viewBox="0.00 0.00 487.00 119.00" xmlns="http://www.w3.org/2000/svg" xmlns:xlink="http://www.w3.org/1999/xlink">
<g id="graph0" class="graph" transform="scale(1 1) rotate(0) translate(4 115)">
<title>THBuilder::getNEvals</title>
<!-- Node1 -->
<g id="node1" class="node"><title>Node1</title>
<polygon fill="#bfbfbf" stroke="black" points="0,-51.5 0,-71.5 121,-71.5 121,-51.5 0,-51.5"/>
<text text-anchor="middle" x="60.5" y="-58.7" font-family="Helvetica,sans-Serif" font-size="11.00">THBuilder::getNEvals</text>
</g>
<!-- Node2 -->
<g id="node2" class="node"><title>Node2</title>
<g id="a_node2"><a xlink:href="classTHBuilder_1_1SearchGroup.xhtml#ac8c33d89ddd52e38fb23d7102d9086e0" target="_top" xlink:title="Perform a complete execution of the search group. ">
<polygon fill="none" stroke="black" points="157,-90.5 157,-110.5 315,-110.5 315,-90.5 157,-90.5"/>
<text text-anchor="middle" x="236" y="-97.7" font-family="Helvetica,sans-Serif" font-size="11.00">THBuilder::SearchGroup::run</text>
</a>
</g>
</g>
<!-- Node1&#45;&gt;Node2 -->
<g id="edge1" class="edge"><title>Node1&#45;&gt;Node2</title>
<path fill="none" stroke="midnightblue" d="M116.178,-73.7908C140.108,-79.1698 167.827,-85.4006 190.471,-90.4906"/>
<polygon fill="midnightblue" stroke="midnightblue" points="116.705,-70.3219 106.181,-71.5435 115.169,-77.1515 116.705,-70.3219"/>
</g>
<!-- Node3 -->
<g id="node3" class="node"><title>Node3</title>
<g id="a_node3"><a xlink:href="classTHBuilder_1_1THImpl.xhtml#a943301db5154fd7b672119b5c9917303" target="_top" xlink:title="Starts the Treasure Hunt mechanisms. ">
<polygon fill="none" stroke="black" points="351,-70.5 351,-90.5 479,-90.5 479,-70.5 351,-70.5"/>
<text text-anchor="middle" x="415" y="-77.7" font-family="Helvetica,sans-Serif" font-size="11.00">THBuilder::THImpl::run</text>
</a>
</g>
</g>
<!-- Node1&#45;&gt;Node3 -->
<g id="edge3" class="edge"><title>Node1&#45;&gt;Node3</title>
<path fill="none" stroke="midnightblue" d="M131.298,-65.2622C195.274,-68.7105 289.171,-73.7716 350.932,-77.1006"/>
<polygon fill="midnightblue" stroke="midnightblue" points="131.471,-61.7665 121.297,-64.7231 131.094,-68.7563 131.471,-61.7665"/>
</g>
<!-- Node4 -->
<g id="node4" class="node"><title>Node4</title>
<g id="a_node4"><a xlink:href="classTHBuilder_1_1THImpl.xhtml#ae959cfedd62e1026015c28b4ffd65b29" target="_top" xlink:title="Get the total number of fitness function evaluations. ">
<polygon fill="none" stroke="black" points="179.5,-0.5 179.5,-32.5 292.5,-32.5 292.5,-0.5 179.5,-0.5"/>
<text text-anchor="start" x="187.5" y="-19.7" font-family="Helvetica,sans-Serif" font-size="11.00">THBuilder::THImpl::</text>
<text text-anchor="middle" x="236" y="-7.7" font-family="Helvetica,sans-Serif" font-size="11.00">getNEvals</text>
</a>
</g>
</g>
<!-- Node1&#45;&gt;Node4 -->
<g id="edge4" class="edge"><title>Node1&#45;&gt;Node4</title>
<path fill="none" stroke="midnightblue" d="M110.331,-48.8348C131.829,-43.2591 157.194,-36.6804 179.413,-30.9174"/>
<polygon fill="midnightblue" stroke="midnightblue" points="109.238,-45.5026 100.437,-51.4011 110.995,-52.2784 109.238,-45.5026"/>
</g>
<!-- Node2&#45;&gt;Node3 -->
<g id="edge2" class="edge"><title>Node2&#45;&gt;Node3</title>
<path fill="none" stroke="midnightblue" d="M325.271,-90.5259C333.91,-89.5497 342.552,-88.5732 350.868,-87.6336"/>
<polygon fill="midnightblue" stroke="midnightblue" points="324.694,-87.0687 315.15,-91.6695 325.48,-94.0245 324.694,-87.0687"/>
</g>
</g>
</svg>
