<?xml version="1.0" encoding="UTF-8" standalone="no"?>
<!DOCTYPE svg PUBLIC "-//W3C//DTD SVG 1.1//EN"
 "http://www.w3.org/Graphics/SVG/1.1/DTD/svg11.dtd">
<!-- Generated by graphviz version 2.38.0 (20140413.2041)
 -->
<!-- Title: BestList::BestList Pages: 1 -->
<svg width="283pt" height="68pt"
 viewBox="0.00 0.00 283.00 68.00" xmlns="http://www.w3.org/2000/svg" xmlns:xlink="http://www.w3.org/1999/xlink">
<g id="graph0" class="graph" transform="scale(1 1) rotate(0) translate(4 64)">
<title>BestList::BestList</title>
<!-- Node1 -->
<g id="node1" class="node"><title>Node1</title>
<polygon fill="#bfbfbf" stroke="black" points="0,-19.5 0,-39.5 99,-39.5 99,-19.5 0,-19.5"/>
<text text-anchor="middle" x="49.5" y="-26.7" font-family="Helvetica,sans-Serif" font-size="11.00">BestList::BestList</text>
</g>
<!-- Node2 -->
<g id="node2" class="node"><title>Node2</title>
<g id="a_node2"><a xlink:href="classBestList.xhtml#ac627a3267d2b7cf8f579cc7e5b77d2e3" target="_top" xlink:title="BestList::getListSize">
<polygon fill="none" stroke="black" points="148.5,-39.5 148.5,-59.5 261.5,-59.5 261.5,-39.5 148.5,-39.5"/>
<text text-anchor="middle" x="205" y="-46.7" font-family="Helvetica,sans-Serif" font-size="11.00">BestList::getListSize</text>
</a>
</g>
</g>
<!-- Node1&#45;&gt;Node2 -->
<g id="edge1" class="edge"><title>Node1&#45;&gt;Node2</title>
<path fill="none" stroke="midnightblue" d="M99.0684,-35.8281C111.527,-37.4514 125.136,-39.2246 138.302,-40.94"/>
<polygon fill="midnightblue" stroke="midnightblue" points="137.889,-44.4157 148.257,-42.2371 138.793,-37.4744 137.889,-44.4157"/>
</g>
<!-- Node3 -->
<g id="node3" class="node"><title>Node3</title>
<g id="a_node3"><a xlink:href="classBestList.xhtml#adaf365728d0834a5f2b7f3c47dd76788" target="_top" xlink:title="BestList::getNDimensions">
<polygon fill="none" stroke="black" points="135,-0.5 135,-20.5 275,-20.5 275,-0.5 135,-0.5"/>
<text text-anchor="middle" x="205" y="-7.7" font-family="Helvetica,sans-Serif" font-size="11.00">BestList::getNDimensions</text>
</a>
</g>
</g>
<!-- Node1&#45;&gt;Node3 -->
<g id="edge2" class="edge"><title>Node1&#45;&gt;Node3</title>
<path fill="none" stroke="midnightblue" d="M99.0684,-23.4883C107.364,-22.4614 116.171,-21.3714 125.017,-20.2764"/>
<polygon fill="midnightblue" stroke="midnightblue" points="125.501,-23.7432 134.996,-19.0412 124.641,-16.7963 125.501,-23.7432"/>
</g>
</g>
</svg>
