<?xml version="1.0" encoding="UTF-8" standalone="no"?>
<!DOCTYPE svg PUBLIC "-//W3C//DTD SVG 1.1//EN"
 "http://www.w3.org/Graphics/SVG/1.1/DTD/svg11.dtd">
<!-- Generated by graphviz version 2.38.0 (20140413.2041)
 -->
<!-- Title: Solution::getNDimensions Pages: 1 -->
<svg width="545pt" height="221pt"
 viewBox="0.00 0.00 545.00 221.00" xmlns="http://www.w3.org/2000/svg" xmlns:xlink="http://www.w3.org/1999/xlink">
<g id="graph0" class="graph" transform="scale(1 1) rotate(0) translate(4 217)">
<title>Solution::getNDimensions</title>
<!-- Node1 -->
<g id="node1" class="node"><title>Node1</title>
<polygon fill="#bfbfbf" stroke="black" points="0,-84.5 0,-104.5 141,-104.5 141,-84.5 0,-84.5"/>
<text text-anchor="middle" x="70.5" y="-91.7" font-family="Helvetica,sans-Serif" font-size="11.00">Solution::getNDimensions</text>
</g>
<!-- Node2 -->
<g id="node2" class="node"><title>Node2</title>
<g id="a_node2"><a xlink:href="classRosenbrockFitnessPolicy.xhtml#af93be349121f72b580d64243d2daf5f2" target="_top" xlink:title="RosenbrockFitnessPolicy\l::apply">
<polygon fill="none" stroke="black" points="188,-180.5 188,-212.5 325,-212.5 325,-180.5 188,-180.5"/>
<text text-anchor="start" x="196" y="-199.7" font-family="Helvetica,sans-Serif" font-size="11.00">RosenbrockFitnessPolicy</text>
<text text-anchor="middle" x="256.5" y="-187.7" font-family="Helvetica,sans-Serif" font-size="11.00">::apply</text>
</a>
</g>
</g>
<!-- Node1&#45;&gt;Node2 -->
<g id="edge1" class="edge"><title>Node1&#45;&gt;Node2</title>
<path fill="none" stroke="midnightblue" d="M90.5223,-111.339C110.745,-128.503 144.264,-154.896 177,-171.5 183.506,-174.8 190.534,-177.777 197.62,-180.429"/>
<polygon fill="midnightblue" stroke="midnightblue" points="92.5697,-108.483 82.7105,-104.604 87.9987,-113.785 92.5697,-108.483"/>
</g>
<!-- Node4 -->
<g id="node4" class="node"><title>Node4</title>
<g id="a_node4"><a xlink:href="classBestListUpdatePolicy.xhtml#a6987f90d6d9e5fec813f5aa53fe47ce3" target="_top" xlink:title="Convenience method that calculates the Euclidean distance between two solutions. ">
<polygon fill="none" stroke="black" points="197,-129.5 197,-161.5 316,-161.5 316,-129.5 197,-129.5"/>
<text text-anchor="start" x="205" y="-148.7" font-family="Helvetica,sans-Serif" font-size="11.00">BestListUpdatePolicy</text>
<text text-anchor="middle" x="256.5" y="-136.7" font-family="Helvetica,sans-Serif" font-size="11.00">::euclideanDistance</text>
</a>
</g>
</g>
<!-- Node1&#45;&gt;Node4 -->
<g id="edge3" class="edge"><title>Node1&#45;&gt;Node4</title>
<path fill="none" stroke="midnightblue" d="M117.514,-107.254C141.74,-113.969 171.693,-122.271 197.494,-129.422"/>
<polygon fill="midnightblue" stroke="midnightblue" points="118.424,-103.874 107.852,-104.576 116.554,-110.62 118.424,-103.874"/>
</g>
<!-- Node7 -->
<g id="node7" class="node"><title>Node7</title>
<g id="a_node7"><a xlink:href="classBetaRelocationStrategyPolicy.xhtml#aeadaa254d012725ab1a67419d9cb37ef" target="_top" xlink:title="This method implements the policy to relocate TH instance&#39;s population at every TH instance&#39;s iterati...">
<polygon fill="none" stroke="black" points="177,-78.5 177,-110.5 336,-110.5 336,-78.5 177,-78.5"/>
<text text-anchor="start" x="185" y="-97.7" font-family="Helvetica,sans-Serif" font-size="11.00">BetaRelocationStrategyPolicy</text>
<text text-anchor="middle" x="256.5" y="-85.7" font-family="Helvetica,sans-Serif" font-size="11.00">::apply</text>
</a>
</g>
</g>
<!-- Node1&#45;&gt;Node7 -->
<g id="edge6" class="edge"><title>Node1&#45;&gt;Node7</title>
<path fill="none" stroke="midnightblue" d="M151.321,-94.5C159.805,-94.5 168.429,-94.5 176.898,-94.5"/>
<polygon fill="midnightblue" stroke="midnightblue" points="151.063,-91.0001 141.063,-94.5 151.062,-98.0001 151.063,-91.0001"/>
</g>
<!-- Node8 -->
<g id="node8" class="node"><title>Node8</title>
<g id="a_node8"><a xlink:href="structIterationData.xhtml#a7e10e80f912a2b18a17fd176c16bf2f9" target="_top" xlink:title="Constructor that creates an IterationData instance. ">
<polygon fill="none" stroke="black" points="183,-39.5 183,-59.5 330,-59.5 330,-39.5 183,-39.5"/>
<text text-anchor="middle" x="256.5" y="-46.7" font-family="Helvetica,sans-Serif" font-size="11.00">IterationData::IterationData</text>
</a>
</g>
</g>
<!-- Node1&#45;&gt;Node8 -->
<g id="edge7" class="edge"><title>Node1&#45;&gt;Node8</title>
<path fill="none" stroke="midnightblue" d="M122.712,-81.9752C151.621,-74.9052 187.266,-66.1876 214.345,-59.5652"/>
<polygon fill="midnightblue" stroke="midnightblue" points="121.675,-78.6256 112.793,-84.4011 123.338,-85.4252 121.675,-78.6256"/>
</g>
<!-- Node9 -->
<g id="node9" class="node"><title>Node9</title>
<g id="a_node9"><a xlink:href="classSolution.xhtml#a763a8e70b722bb0679046d8c8b8223e5" target="_top" xlink:title="This constructor creates a Solution instance by copying all contents of another Solution instance...">
<polygon fill="none" stroke="black" points="206,-0.5 206,-20.5 307,-20.5 307,-0.5 206,-0.5"/>
<text text-anchor="middle" x="256.5" y="-7.7" font-family="Helvetica,sans-Serif" font-size="11.00">Solution::Solution</text>
</a>
</g>
</g>
<!-- Node1&#45;&gt;Node9 -->
<g id="edge8" class="edge"><title>Node1&#45;&gt;Node9</title>
<path fill="none" stroke="midnightblue" d="M93.4878,-78.4907C114.142,-64.1164 146.371,-43.355 177,-30.5 186.337,-26.5812 196.631,-23.2848 206.606,-20.5705"/>
<polygon fill="midnightblue" stroke="midnightblue" points="91.2659,-75.7752 85.1214,-84.4063 95.3072,-81.4908 91.2659,-75.7752"/>
</g>
<!-- Node3 -->
<g id="node3" class="node"><title>Node3</title>
<g id="a_node3"><a xlink:href="classRosenbrockFitnessPolicy.xhtml#aaabda48891e8fb971d24d84a8dc5da31" target="_top" xlink:title="RosenbrockFitnessPolicy\l::~RosenbrockFitnessPolicy">
<polygon fill="none" stroke="black" points="379.5,-180.5 379.5,-212.5 529.5,-212.5 529.5,-180.5 379.5,-180.5"/>
<text text-anchor="start" x="387.5" y="-199.7" font-family="Helvetica,sans-Serif" font-size="11.00">RosenbrockFitnessPolicy</text>
<text text-anchor="middle" x="454.5" y="-187.7" font-family="Helvetica,sans-Serif" font-size="11.00">::~RosenbrockFitnessPolicy</text>
</a>
</g>
</g>
<!-- Node2&#45;&gt;Node3 -->
<g id="edge2" class="edge"><title>Node2&#45;&gt;Node3</title>
<path fill="none" stroke="midnightblue" d="M335.614,-196.5C350.053,-196.5 365.092,-196.5 379.406,-196.5"/>
<polygon fill="midnightblue" stroke="midnightblue" points="335.227,-193 325.227,-196.5 335.226,-200 335.227,-193"/>
</g>
<!-- Node5 -->
<g id="node5" class="node"><title>Node5</title>
<g id="a_node5"><a xlink:href="classConvergentBestListUpdatePolicy.xhtml#a6382937d32ac8bab7169f216fcd3048f" target="_top" xlink:title="This method implements a behavior that focus on convergence speed when updating the solutions from th...">
<polygon fill="none" stroke="black" points="381.5,-129.5 381.5,-161.5 527.5,-161.5 527.5,-129.5 381.5,-129.5"/>
<text text-anchor="start" x="389.5" y="-148.7" font-family="Helvetica,sans-Serif" font-size="11.00">ConvergentBestListUpdate</text>
<text text-anchor="middle" x="454.5" y="-136.7" font-family="Helvetica,sans-Serif" font-size="11.00">Policy::apply</text>
</a>
</g>
</g>
<!-- Node4&#45;&gt;Node5 -->
<g id="edge4" class="edge"><title>Node4&#45;&gt;Node5</title>
<path fill="none" stroke="midnightblue" d="M326.349,-145.5C344.169,-145.5 363.404,-145.5 381.386,-145.5"/>
<polygon fill="midnightblue" stroke="midnightblue" points="326.041,-142 316.041,-145.5 326.041,-149 326.041,-142"/>
</g>
<!-- Node6 -->
<g id="node6" class="node"><title>Node6</title>
<g id="a_node6"><a xlink:href="classDivergentBestListUpdatePolicy.xhtml#a793d47a0c458eef94b27fbee73e5df0e" target="_top" xlink:title="This method implements a behavior that promotes diversity when updating the solutions from the BestLi...">
<polygon fill="none" stroke="black" points="372,-78.5 372,-110.5 537,-110.5 537,-78.5 372,-78.5"/>
<text text-anchor="start" x="380" y="-97.7" font-family="Helvetica,sans-Serif" font-size="11.00">DivergentBestListUpdatePolicy</text>
<text text-anchor="middle" x="454.5" y="-85.7" font-family="Helvetica,sans-Serif" font-size="11.00">::apply</text>
</a>
</g>
</g>
<!-- Node4&#45;&gt;Node6 -->
<g id="edge5" class="edge"><title>Node4&#45;&gt;Node6</title>
<path fill="none" stroke="midnightblue" d="M325.751,-127.741C347.246,-122.148 370.85,-116.006 391.856,-110.54"/>
<polygon fill="midnightblue" stroke="midnightblue" points="324.837,-124.362 316.041,-130.267 326.6,-131.136 324.837,-124.362"/>
</g>
</g>
</svg>
