<?xml version="1.0" encoding="UTF-8" standalone="no"?>
<!DOCTYPE svg PUBLIC "-//W3C//DTD SVG 1.1//EN"
 "http://www.w3.org/Graphics/SVG/1.1/DTD/svg11.dtd">
<!-- Generated by graphviz version 2.38.0 (20140413.2041)
 -->
<!-- Title: THUtil::getRandomSeed Pages: 1 -->
<svg width="503pt" height="221pt"
 viewBox="0.00 0.00 503.00 221.00" xmlns="http://www.w3.org/2000/svg" xmlns:xlink="http://www.w3.org/1999/xlink">
<g id="graph0" class="graph" transform="scale(1 1) rotate(0) translate(4 217)">
<title>THUtil::getRandomSeed</title>
<!-- Node1 -->
<g id="node1" class="node"><title>Node1</title>
<polygon fill="#bfbfbf" stroke="black" points="0,-108.5 0,-128.5 135,-128.5 135,-108.5 0,-108.5"/>
<text text-anchor="middle" x="67.5" y="-115.7" font-family="Helvetica,sans-Serif" font-size="11.00">THUtil::getRandomSeed</text>
</g>
<!-- Node2 -->
<g id="node2" class="node"><title>Node2</title>
<g id="a_node2"><a xlink:href="classHillClimbing.xhtml#a845d2e4cac39582bf1218a90431c2f3c" target="_top" xlink:title="Initialize the algorithm for a new optimization. ">
<polygon fill="none" stroke="black" points="202,-192.5 202,-212.5 315,-212.5 315,-192.5 202,-192.5"/>
<text text-anchor="middle" x="258.5" y="-199.7" font-family="Helvetica,sans-Serif" font-size="11.00">HillClimbing::startup</text>
</a>
</g>
</g>
<!-- Node1&#45;&gt;Node2 -->
<g id="edge1" class="edge"><title>Node1&#45;&gt;Node2</title>
<path fill="none" stroke="midnightblue" d="M89.3166,-134.797C109.222,-149.604 140.62,-170.988 171,-183.5 180.667,-187.482 191.302,-190.689 201.708,-193.251"/>
<polygon fill="midnightblue" stroke="midnightblue" points="91.36,-131.954 81.2753,-128.706 87.1332,-137.534 91.36,-131.954"/>
</g>
<!-- Node3 -->
<g id="node3" class="node"><title>Node3</title>
<g id="a_node3"><a xlink:href="classPSO.xhtml#a8fb3e9a46396074cbbdc2d04a83783a5" target="_top" xlink:title="Initialize the algorithm for a new optimization. ">
<polygon fill="none" stroke="black" points="219,-153.5 219,-173.5 298,-173.5 298,-153.5 219,-153.5"/>
<text text-anchor="middle" x="258.5" y="-160.7" font-family="Helvetica,sans-Serif" font-size="11.00">PSO::startup</text>
</a>
</g>
</g>
<!-- Node1&#45;&gt;Node3 -->
<g id="edge2" class="edge"><title>Node1&#45;&gt;Node3</title>
<path fill="none" stroke="midnightblue" d="M116.666,-131.058C133.791,-135.432 153.228,-140.295 171,-144.5 186.561,-148.182 203.754,-152.008 218.686,-155.253"/>
<polygon fill="midnightblue" stroke="midnightblue" points="117.436,-127.642 106.88,-128.547 115.697,-134.423 117.436,-127.642"/>
</g>
<!-- Node4 -->
<g id="node4" class="node"><title>Node4</title>
<g id="a_node4"><a xlink:href="classBetaRelocationStrategyPolicy.xhtml#a3787cd91ed77d150601350420ca218a6" target="_top" xlink:title="BetaRelocationStrategyPolicy\l::BetaRelocationStrategyPolicy">
<polygon fill="none" stroke="black" points="176,-102.5 176,-134.5 341,-134.5 341,-102.5 176,-102.5"/>
<text text-anchor="start" x="184" y="-121.7" font-family="Helvetica,sans-Serif" font-size="11.00">BetaRelocationStrategyPolicy</text>
<text text-anchor="middle" x="258.5" y="-109.7" font-family="Helvetica,sans-Serif" font-size="11.00">::BetaRelocationStrategyPolicy</text>
</a>
</g>
</g>
<!-- Node1&#45;&gt;Node4 -->
<g id="edge3" class="edge"><title>Node1&#45;&gt;Node4</title>
<path fill="none" stroke="midnightblue" d="M145.149,-118.5C155.276,-118.5 165.687,-118.5 175.894,-118.5"/>
<polygon fill="midnightblue" stroke="midnightblue" points="145.134,-115 135.134,-118.5 145.134,-122 145.134,-115"/>
</g>
<!-- Node5 -->
<g id="node5" class="node"><title>Node5</title>
<g id="a_node5"><a xlink:href="classRandomBestListSelectionPolicy.xhtml#abc1f4bb2b43625f4161cf7adc3d9dec8" target="_top" xlink:title="RandomBestListSelectionPolicy\l::RandomBestListSelectionPolicy">
<polygon fill="none" stroke="black" points="171,-51.5 171,-83.5 346,-83.5 346,-51.5 171,-51.5"/>
<text text-anchor="start" x="179" y="-70.7" font-family="Helvetica,sans-Serif" font-size="11.00">RandomBestListSelectionPolicy</text>
<text text-anchor="middle" x="258.5" y="-58.7" font-family="Helvetica,sans-Serif" font-size="11.00">::RandomBestListSelectionPolicy</text>
</a>
</g>
</g>
<!-- Node1&#45;&gt;Node5 -->
<g id="edge4" class="edge"><title>Node1&#45;&gt;Node5</title>
<path fill="none" stroke="midnightblue" d="M115.764,-105.746C140.648,-99.0314 171.415,-90.7292 197.918,-83.5777"/>
<polygon fill="midnightblue" stroke="midnightblue" points="114.583,-102.44 105.84,-108.424 116.407,-109.198 114.583,-102.44"/>
</g>
<!-- Node6 -->
<g id="node6" class="node"><title>Node6</title>
<g id="a_node6"><a xlink:href="classTHBuilder_1_1SearchGroup.xhtml#aafebb836a1ec681213319a024a254ca8" target="_top" xlink:title="Reset the location of the population individuals and calculate the fitness. ">
<polygon fill="none" stroke="black" points="190.5,-0.5 190.5,-32.5 326.5,-32.5 326.5,-0.5 190.5,-0.5"/>
<text text-anchor="start" x="198.5" y="-19.7" font-family="Helvetica,sans-Serif" font-size="11.00">THBuilder::SearchGroup</text>
<text text-anchor="middle" x="258.5" y="-7.7" font-family="Helvetica,sans-Serif" font-size="11.00">::resetPopulation</text>
</a>
</g>
</g>
<!-- Node1&#45;&gt;Node6 -->
<g id="edge5" class="edge"><title>Node1&#45;&gt;Node6</title>
<path fill="none" stroke="midnightblue" d="M86.8809,-101.754C106.447,-84.7123 138.947,-58.5806 171,-42.5 178.429,-38.7732 186.489,-35.4751 194.601,-32.5879"/>
<polygon fill="midnightblue" stroke="midnightblue" points="84.4915,-99.1953 79.3264,-108.446 89.1328,-104.435 84.4915,-99.1953"/>
</g>
<!-- Node7 -->
<g id="node7" class="node"><title>Node7</title>
<g id="a_node7"><a xlink:href="classTHBuilder_1_1THImpl.xhtml#a0d6e2fd43f50755ff2738e924f66690d" target="_top" xlink:title="THBuilder::THImpl::\lTHImpl">
<polygon fill="none" stroke="black" points="382,-0.5 382,-32.5 495,-32.5 495,-0.5 382,-0.5"/>
<text text-anchor="start" x="390" y="-19.7" font-family="Helvetica,sans-Serif" font-size="11.00">THBuilder::THImpl::</text>
<text text-anchor="middle" x="438.5" y="-7.7" font-family="Helvetica,sans-Serif" font-size="11.00">THImpl</text>
</a>
</g>
</g>
<!-- Node6&#45;&gt;Node7 -->
<g id="edge6" class="edge"><title>Node6&#45;&gt;Node7</title>
<path fill="none" stroke="midnightblue" d="M336.912,-16.5C352.03,-16.5 367.602,-16.5 381.842,-16.5"/>
<polygon fill="midnightblue" stroke="midnightblue" points="336.541,-13.0001 326.541,-16.5 336.54,-20.0001 336.541,-13.0001"/>
</g>
</g>
</svg>
