<?xml version="1.0" encoding="UTF-8" standalone="no"?>
<!DOCTYPE svg PUBLIC "-//W3C//DTD SVG 1.1//EN"
 "http://www.w3.org/Graphics/SVG/1.1/DTD/svg11.dtd">
<!-- Generated by graphviz version 2.38.0 (20140413.2041)
 -->
<!-- Title: THBuilder::SearchGroup::SearchGroup Pages: 1 -->
<!--zoomable 640 -->
<svg id="main" version="1.1" xmlns="http://www.w3.org/2000/svg" xmlns:xlink="http://www.w3.org/1999/xlink" xml:space="preserve" onload="init(evt)">
<style type="text/css"><![CDATA[
.edge:hover path { stroke: red; }
.edge:hover polygon { stroke: red; fill: red; }
]]></style>
<script type="text/javascript"><![CDATA[
var edges = document.getElementsByTagName('g');
if (edges && edges.length) {
  for (var i=0;i<edges.length;i++) {
    if (edges[i].id.substr(0,4)=='edge') {
      edges[i].setAttribute('class','edge');
    }
  }
}
]]></script>
        <defs>
                <circle id="rim" cx="0" cy="0" r="7"/>
                <circle id="rim2" cx="0" cy="0" r="3.5"/>
                <g id="zoomPlus">
                        <use xlink:href="#rim" fill="#404040">
                                <set attributeName="fill" to="#808080" begin="zoomplus.mouseover" end="zoomplus.mouseout"/>
                        </use>
                        <path d="M-4,0h8M0,-4v8" fill="none" stroke="white" stroke-width="1.5" pointer-events="none"/>
                </g>
                <g id="zoomMin">
                        <use xlink:href="#rim" fill="#404040">
                                <set attributeName="fill" to="#808080" begin="zoomminus.mouseover" end="zoomminus.mouseout"/>
                        </use>
                        <path d="M-4,0h8" fill="none" stroke="white" stroke-width="1.5" pointer-events="none"/>
                </g>
                <g id="dirArrow">
                        <path fill="none" stroke="white" stroke-width="1.5" d="M0,-3.0v7 M-2.5,-0.5L0,-3.0L2.5,-0.5"/>
                </g>
               <g id="resetDef">
                       <use xlink:href="#rim2" fill="#404040">
                               <set attributeName="fill" to="#808080" begin="reset.mouseover" end="reset.mouseout"/>
                       </use>
               </g>
        </defs>

<script type="text/javascript">
var viewWidth = 585;
var viewHeight = 640;
var sectionId = 'dynsection-1';
</script>
<script xlink:href="svgpan.js"/>
<svg id="graph" class="graph">
<g id="viewport">
<title>THBuilder::SearchGroup::SearchGroup</title>
<!-- Node1 -->
<g id="node1" class="node"><title>Node1</title>
<polygon fill="#bfbfbf" stroke="black" points="0,-303.5 0,-335.5 136,-335.5 136,-303.5 0,-303.5"/>
<text text-anchor="start" x="8" y="-322.7" font-family="Helvetica,sans-Serif" font-size="11.00">THBuilder::SearchGroup</text>
<text text-anchor="middle" x="68" y="-310.7" font-family="Helvetica,sans-Serif" font-size="11.00">::SearchGroup</text>
</g>
<!-- Node2 -->
<g id="node2" class="node"><title>Node2</title>
<g id="a_node2"><a xlink:href="classTHBuilder.xhtml#a25aa4f49bfb82628b5add5aaa83d3802" target="_top" xlink:title="THBuilder::getId">
<polygon fill="none" stroke="black" points="214,-611.5 214,-631.5 309,-631.5 309,-611.5 214,-611.5"/>
<text text-anchor="middle" x="261.5" y="-618.7" font-family="Helvetica,sans-Serif" font-size="11.00">THBuilder::getId</text>
</a>
</g>
</g>
<!-- Node1&#45;&gt;Node2 -->
<g id="edge1" class="edge"><title>Node1&#45;&gt;Node2</title>
<path fill="none" stroke="midnightblue" d="M69.6962,-335.596C72.7076,-384.084 88.6167,-529.866 172,-602.5 180.89,-610.244 192.17,-615.081 203.676,-618.049"/>
<polygon fill="midnightblue" stroke="midnightblue" points="203.281,-621.544 213.791,-620.203 204.739,-614.697 203.281,-621.544"/>
</g>
<!-- Node3 -->
<g id="node3" class="node"><title>Node3</title>
<g id="a_node3"><a xlink:href="classTHBuilder.xhtml#a6ad815c9e35b81b9b8f6507b6bdac5bf" target="_top" xlink:title="THBuilder::getTHTree">
<polygon fill="none" stroke="black" points="199.5,-572.5 199.5,-592.5 323.5,-592.5 323.5,-572.5 199.5,-572.5"/>
<text text-anchor="middle" x="261.5" y="-579.7" font-family="Helvetica,sans-Serif" font-size="11.00">THBuilder::getTHTree</text>
</a>
</g>
</g>
<!-- Node1&#45;&gt;Node3 -->
<g id="edge2" class="edge"><title>Node1&#45;&gt;Node3</title>
<path fill="none" stroke="midnightblue" d="M70.7349,-335.586C76.3756,-379.553 98.3245,-502.517 172,-563.5 177.287,-567.876 183.345,-571.312 189.758,-574.001"/>
<polygon fill="midnightblue" stroke="midnightblue" points="188.765,-577.363 199.36,-577.429 191.119,-570.77 188.765,-577.363"/>
</g>
<!-- Node4 -->
<g id="node4" class="node"><title>Node4</title>
<g id="a_node4"><a xlink:href="classTHTree.xhtml#a4f17fef67dc2141d2fec2493e3856bf8" target="_top" xlink:title="THTree::getNode">
<polygon fill="none" stroke="black" points="211,-533.5 211,-553.5 312,-553.5 312,-533.5 211,-533.5"/>
<text text-anchor="middle" x="261.5" y="-540.7" font-family="Helvetica,sans-Serif" font-size="11.00">THTree::getNode</text>
</a>
</g>
</g>
<!-- Node1&#45;&gt;Node4 -->
<g id="edge3" class="edge"><title>Node1&#45;&gt;Node4</title>
<path fill="none" stroke="midnightblue" d="M72.1295,-335.572C80.6172,-374.621 107.885,-474.911 172,-524.5 180.384,-530.984 190.493,-535.371 200.836,-538.315"/>
<polygon fill="midnightblue" stroke="midnightblue" points="200.234,-541.77 210.776,-540.717 201.878,-534.966 200.234,-541.77"/>
</g>
<!-- Node5 -->
<g id="node5" class="node"><title>Node5</title>
<g id="a_node5"><a xlink:href="structt__node.xhtml#a37f4377e664f4b4a8b541df91e35d27b" target="_top" xlink:title="t_node::getLevel">
<polygon fill="none" stroke="black" points="213.5,-494.5 213.5,-514.5 309.5,-514.5 309.5,-494.5 213.5,-494.5"/>
<text text-anchor="middle" x="261.5" y="-501.7" font-family="Helvetica,sans-Serif" font-size="11.00">t_node::getLevel</text>
</a>
</g>
</g>
<!-- Node1&#45;&gt;Node5 -->
<g id="edge4" class="edge"><title>Node1&#45;&gt;Node5</title>
<path fill="none" stroke="midnightblue" d="M74.0973,-335.502C85.6637,-369.074 117.229,-446.936 172,-485.5 181.149,-491.942 192.055,-496.27 203.033,-499.162"/>
<polygon fill="midnightblue" stroke="midnightblue" points="202.561,-502.644 213.087,-501.434 204.104,-495.816 202.561,-502.644"/>
</g>
<!-- Node6 -->
<g id="node6" class="node"><title>Node6</title>
<g id="a_node6"><a xlink:href="classTHBuilder.xhtml#a611f5596ed334d38c1d77d57845676ed" target="_top" xlink:title="Get the SearchSpace configured. ">
<polygon fill="none" stroke="black" points="185.5,-455.5 185.5,-475.5 337.5,-475.5 337.5,-455.5 185.5,-455.5"/>
<text text-anchor="middle" x="261.5" y="-462.7" font-family="Helvetica,sans-Serif" font-size="11.00">THBuilder::getSearchSpace</text>
</a>
</g>
</g>
<!-- Node1&#45;&gt;Node6 -->
<g id="edge5" class="edge"><title>Node1&#45;&gt;Node6</title>
<path fill="none" stroke="midnightblue" d="M77.3129,-335.713C92.2861,-363.178 126.512,-418.585 172,-446.5 175.039,-448.365 178.234,-450.048 181.534,-451.568"/>
<polygon fill="midnightblue" stroke="midnightblue" points="180.487,-454.92 191.069,-455.432 183.115,-448.432 180.487,-454.92"/>
</g>
<!-- Node7 -->
<g id="node7" class="node"><title>Node7</title>
<g id="a_node7"><a xlink:href="classTHBuilder.xhtml#a965c2231b9dd21a606a5de11d4682a33" target="_top" xlink:title="Get the search algorithms configured. ">
<polygon fill="none" stroke="black" points="175.5,-416.5 175.5,-436.5 347.5,-436.5 347.5,-416.5 175.5,-416.5"/>
<text text-anchor="middle" x="261.5" y="-423.7" font-family="Helvetica,sans-Serif" font-size="11.00">THBuilder::getSearchAlgorithms</text>
</a>
</g>
</g>
<!-- Node1&#45;&gt;Node7 -->
<g id="edge6" class="edge"><title>Node1&#45;&gt;Node7</title>
<path fill="none" stroke="midnightblue" d="M82.9588,-335.565C101.311,-355.617 135.527,-389.463 172,-407.5 176.349,-409.651 180.937,-411.559 185.641,-413.252"/>
<polygon fill="midnightblue" stroke="midnightblue" points="184.833,-416.67 195.425,-416.434 186.998,-410.013 184.833,-416.67"/>
</g>
<!-- Node8 -->
<g id="node8" class="node"><title>Node8</title>
<g id="a_node8"><a xlink:href="classTHBuilder.xhtml#a876380ef9e0647b90bd80bcc04cbcd58" target="_top" xlink:title="The largest &#39;preferred population size&#39; from all search algorithms configured. ">
<polygon fill="none" stroke="black" points="172,-377.5 172,-397.5 351,-397.5 351,-377.5 172,-377.5"/>
<text text-anchor="middle" x="261.5" y="-384.7" font-family="Helvetica,sans-Serif" font-size="11.00">THBuilder::getMaxPopulationSize</text>
</a>
</g>
</g>
<!-- Node1&#45;&gt;Node8 -->
<g id="edge7" class="edge"><title>Node1&#45;&gt;Node8</title>
<path fill="none" stroke="midnightblue" d="M97.9863,-335.527C118.218,-346.151 146.128,-359.703 172,-368.5 179.138,-370.927 186.709,-373.112 194.3,-375.06"/>
<polygon fill="midnightblue" stroke="midnightblue" points="193.711,-378.519 204.255,-377.485 195.368,-371.717 193.711,-378.519"/>
</g>
<!-- Node10 -->
<g id="node10" class="node"><title>Node10</title>
<g id="a_node10"><a xlink:href="classTHBuilder.xhtml#af3eb76a92cb3c0caf8452cdd9e26bac7" target="_top" xlink:title="Get the ConvergenceControlPolicy configured. ">
<polygon fill="none" stroke="black" points="186,-326.5 186,-358.5 337,-358.5 337,-326.5 186,-326.5"/>
<text text-anchor="start" x="194" y="-345.7" font-family="Helvetica,sans-Serif" font-size="11.00">THBuilder::getConvergence</text>
<text text-anchor="middle" x="261.5" y="-333.7" font-family="Helvetica,sans-Serif" font-size="11.00">ControlPolicy</text>
</a>
</g>
</g>
<!-- Node1&#45;&gt;Node10 -->
<g id="edge9" class="edge"><title>Node1&#45;&gt;Node10</title>
<path fill="none" stroke="midnightblue" d="M136.246,-327.577C149.043,-329.113 162.586,-330.74 175.842,-332.332"/>
<polygon fill="midnightblue" stroke="midnightblue" points="175.56,-335.823 185.906,-333.541 176.395,-328.873 175.56,-335.823"/>
</g>
<!-- Node11 -->
<g id="node11" class="node"><title>Node11</title>
<g id="a_node11"><a xlink:href="classTHBuilder.xhtml#a17045426d43ae6798b10b552e6743f6d" target="_top" xlink:title="Get the FitnessPolicy configured. ">
<polygon fill="none" stroke="black" points="407.5,-351.5 407.5,-371.5 556.5,-371.5 556.5,-351.5 407.5,-351.5"/>
<text text-anchor="middle" x="482" y="-358.7" font-family="Helvetica,sans-Serif" font-size="11.00">THBuilder::getFitnessPolicy</text>
</a>
</g>
</g>
<!-- Node1&#45;&gt;Node11 -->
<g id="edge11" class="edge"><title>Node1&#45;&gt;Node11</title>
<path fill="none" stroke="midnightblue" d="M136.038,-318.01C148.013,-317.797 160.375,-317.613 172,-317.5 251.552,-316.728 275.08,-293.724 351,-317.5 369.589,-323.322 369.083,-334.857 387,-342.5 392.396,-344.802 398.087,-346.83 403.89,-348.616"/>
<polygon fill="midnightblue" stroke="midnightblue" points="403.154,-352.045 413.729,-351.399 405.06,-345.309 403.154,-352.045"/>
</g>
<!-- Node12 -->
<g id="node12" class="node"><title>Node12</title>
<g id="a_node12"><a xlink:href="classSearch.xhtml#a8caad8e1c1da6ce9c85285fbf1c3b6d1" target="_top" xlink:title="Set the fitness policy to evaluate the current problem under optimization. ">
<polygon fill="none" stroke="black" points="194.5,-248.5 194.5,-268.5 328.5,-268.5 328.5,-248.5 194.5,-248.5"/>
<text text-anchor="middle" x="261.5" y="-255.7" font-family="Helvetica,sans-Serif" font-size="11.00">Search::setFitnessPolicy</text>
</a>
</g>
</g>
<!-- Node1&#45;&gt;Node12 -->
<g id="edge12" class="edge"><title>Node1&#45;&gt;Node12</title>
<path fill="none" stroke="midnightblue" d="M112.911,-303.491C131.111,-297.028 152.491,-289.659 172,-283.5 185.225,-279.325 199.663,-275.105 212.97,-271.352"/>
<polygon fill="midnightblue" stroke="midnightblue" points="214.197,-274.643 222.886,-268.581 212.313,-267.901 214.197,-274.643"/>
</g>
<!-- Node13 -->
<g id="node13" class="node"><title>Node13</title>
<g id="a_node13"><a xlink:href="classSearch.xhtml#af9f46406f1f1f7f89ab294c155738ca6" target="_top" xlink:title="Set the full search space. ">
<polygon fill="none" stroke="black" points="193,-209.5 193,-229.5 330,-229.5 330,-209.5 193,-209.5"/>
<text text-anchor="middle" x="261.5" y="-216.7" font-family="Helvetica,sans-Serif" font-size="11.00">Search::setSearchSpace</text>
</a>
</g>
</g>
<!-- Node1&#45;&gt;Node13 -->
<g id="edge13" class="edge"><title>Node1&#45;&gt;Node13</title>
<path fill="none" stroke="midnightblue" d="M84.9527,-303.399C103.996,-285.123 137.606,-255.747 172,-239.5 177.608,-236.851 183.585,-234.543 189.684,-232.535"/>
<polygon fill="midnightblue" stroke="midnightblue" points="190.773,-235.863 199.334,-229.62 188.749,-229.162 190.773,-235.863"/>
</g>
<!-- Node22 -->
<g id="node22" class="node"><title>Node22</title>
<g id="a_node22"><a xlink:href="structt__node.xhtml#a8f72af855ca7d42a9680aca399524499" target="_top" xlink:title="t_node::isRoot">
<polygon fill="none" stroke="black" points="218.5,-170.5 218.5,-190.5 304.5,-190.5 304.5,-170.5 218.5,-170.5"/>
<text text-anchor="middle" x="261.5" y="-177.7" font-family="Helvetica,sans-Serif" font-size="11.00">t_node::isRoot</text>
</a>
</g>
</g>
<!-- Node1&#45;&gt;Node22 -->
<g id="edge22" class="edge"><title>Node1&#45;&gt;Node22</title>
<path fill="none" stroke="midnightblue" d="M78.3675,-303.112C94.158,-277.057 128.639,-226.48 172,-200.5 182.982,-193.92 195.911,-189.502 208.444,-186.537"/>
<polygon fill="midnightblue" stroke="midnightblue" points="209.296,-189.934 218.365,-184.457 207.859,-183.083 209.296,-189.934"/>
</g>
<!-- Node24 -->
<g id="node24" class="node"><title>Node24</title>
<g id="a_node24"><a xlink:href="classTHBuilder.xhtml#a2039c208430cd418c4d452ef300fe086" target="_top" xlink:title="THBuilder::getBias">
<polygon fill="none" stroke="black" points="208,-131.5 208,-151.5 315,-151.5 315,-131.5 208,-131.5"/>
<text text-anchor="middle" x="261.5" y="-138.7" font-family="Helvetica,sans-Serif" font-size="11.00">THBuilder::getBias</text>
</a>
</g>
</g>
<!-- Node1&#45;&gt;Node24 -->
<g id="edge24" class="edge"><title>Node1&#45;&gt;Node24</title>
<path fill="none" stroke="midnightblue" d="M74.7331,-303.322C87.0903,-270.92 119.445,-198.05 172,-161.5 179.774,-156.093 188.778,-152.123 198.005,-149.213"/>
<polygon fill="midnightblue" stroke="midnightblue" points="198.95,-152.582 207.658,-146.548 197.087,-145.835 198.95,-152.582"/>
</g>
<!-- Node25 -->
<g id="node25" class="node"><title>Node25</title>
<g id="a_node25"><a xlink:href="classFitnessPolicy.xhtml#a069122b137e7a1b9d66e1d026c4e7f1b" target="_top" xlink:title="This method calculates the fitness for the Solution instance provided. ">
<polygon fill="none" stroke="black" points="206,-92.5 206,-112.5 317,-112.5 317,-92.5 206,-92.5"/>
<text text-anchor="middle" x="261.5" y="-99.7" font-family="Helvetica,sans-Serif" font-size="11.00">FitnessPolicy::apply</text>
</a>
</g>
</g>
<!-- Node1&#45;&gt;Node25 -->
<g id="edge25" class="edge"><title>Node1&#45;&gt;Node25</title>
<path fill="none" stroke="midnightblue" d="M72.5668,-303.246C81.8004,-265.208 110.205,-170.03 172,-122.5 179.076,-117.057 187.356,-113.044 195.961,-110.095"/>
<polygon fill="midnightblue" stroke="midnightblue" points="197.168,-113.388 205.766,-107.197 195.184,-106.675 197.168,-113.388"/>
</g>
<!-- Node26 -->
<g id="node26" class="node"><title>Node26</title>
<g id="a_node26"><a xlink:href="classTHBuilder.xhtml#aca895af8d67060f0f66176aa18f00f98" target="_top" xlink:title="Get the BestListUpdatePolicy configured. ">
<polygon fill="none" stroke="black" points="181.5,-41.5 181.5,-73.5 341.5,-73.5 341.5,-41.5 181.5,-41.5"/>
<text text-anchor="start" x="189.5" y="-60.7" font-family="Helvetica,sans-Serif" font-size="11.00">THBuilder::getBestListUpdate</text>
<text text-anchor="middle" x="261.5" y="-48.7" font-family="Helvetica,sans-Serif" font-size="11.00">Policy</text>
</a>
</g>
</g>
<!-- Node1&#45;&gt;Node26 -->
<g id="edge26" class="edge"><title>Node1&#45;&gt;Node26</title>
<path fill="none" stroke="midnightblue" d="M71.1894,-303.491C77.8835,-260.846 102.063,-143.601 172,-82.5 173.323,-81.3445 174.695,-80.2422 176.11,-79.1905"/>
<polygon fill="midnightblue" stroke="midnightblue" points="178.122,-82.0579 184.64,-73.705 174.336,-76.1703 178.122,-82.0579"/>
</g>
<!-- Node27 -->
<g id="node27" class="node"><title>Node27</title>
<g id="a_node27"><a xlink:href="classSolution.xhtml#ae7720fedccf4ae8ff24170e159fd266f" target="_top" xlink:title="Get a pointer to the actual Fitness instance. ">
<polygon fill="none" stroke="black" points="206,-2.5 206,-22.5 317,-22.5 317,-2.5 206,-2.5"/>
<text text-anchor="middle" x="261.5" y="-9.7" font-family="Helvetica,sans-Serif" font-size="11.00">Solution::getFitness</text>
</a>
</g>
</g>
<!-- Node1&#45;&gt;Node27 -->
<g id="edge27" class="edge"><title>Node1&#45;&gt;Node27</title>
<path fill="none" stroke="midnightblue" d="M69.5778,-303.475C72.2552,-254.507 87.3213,-105.68 172,-31.5 178.945,-25.4164 187.363,-21.1245 196.212,-18.1222"/>
<polygon fill="midnightblue" stroke="midnightblue" points="197.28,-21.4573 205.935,-15.3468 195.358,-14.7262 197.28,-21.4573"/>
</g>
<!-- Node9 -->
<g id="node9" class="node"><title>Node9</title>
<g id="a_node9"><a xlink:href="classSearch.xhtml#abba88e2201e9558aee21e574af9991f5" target="_top" xlink:title="Search::getPreferredPopulationSize">
<polygon fill="none" stroke="black" points="387,-390.5 387,-410.5 577,-410.5 577,-390.5 387,-390.5"/>
<text text-anchor="middle" x="482" y="-397.7" font-family="Helvetica,sans-Serif" font-size="11.00">Search::getPreferredPopulationSize</text>
</a>
</g>
</g>
<!-- Node8&#45;&gt;Node9 -->
<g id="edge8" class="edge"><title>Node8&#45;&gt;Node9</title>
<path fill="none" stroke="midnightblue" d="M351.057,-392.769C359.56,-393.275 368.236,-393.791 376.869,-394.305"/>
<polygon fill="midnightblue" stroke="midnightblue" points="376.781,-397.805 386.972,-394.906 377.197,-390.818 376.781,-397.805"/>
</g>
<!-- Node10&#45;&gt;Node11 -->
<g id="edge10" class="edge"><title>Node10&#45;&gt;Node11</title>
<path fill="none" stroke="midnightblue" d="M337.084,-348.986C356.544,-350.678 377.641,-352.512 397.529,-354.242"/>
<polygon fill="midnightblue" stroke="midnightblue" points="397.227,-357.728 407.492,-355.108 397.833,-350.755 397.227,-357.728"/>
</g>
<!-- Node14 -->
<g id="node14" class="node"><title>Node14</title>
<g id="a_node14"><a xlink:href="classSearch.xhtml#afe8c2a6dd96ad12f77de7c8226a76028" target="_top" xlink:title="Method responsible for setting up all the optimization algorithm for the next optimization. ">
<polygon fill="none" stroke="black" points="437,-312.5 437,-332.5 527,-332.5 527,-312.5 437,-312.5"/>
<text text-anchor="middle" x="482" y="-319.7" font-family="Helvetica,sans-Serif" font-size="11.00">Search::startup</text>
</a>
</g>
</g>
<!-- Node13&#45;&gt;Node14 -->
<g id="edge14" class="edge"><title>Node13&#45;&gt;Node14</title>
<path fill="none" stroke="midnightblue" d="M330.374,-228.537C337.748,-231.31 344.811,-234.888 351,-239.5 377.17,-258.999 360.609,-284.301 387,-303.5 398.484,-311.854 412.751,-316.751 426.671,-319.566"/>
<polygon fill="midnightblue" stroke="midnightblue" points="426.257,-323.046 436.701,-321.268 427.428,-316.145 426.257,-323.046"/>
</g>
<!-- Node15 -->
<g id="node15" class="node"><title>Node15</title>
<g id="a_node15"><a xlink:href="classSearch.xhtml#afa7022c6b9be775211d8a9be85b880f3" target="_top" xlink:title="Method responsible for all post&#45;processing after the optimization has completed. ">
<polygon fill="none" stroke="black" points="437,-273.5 437,-293.5 527,-293.5 527,-273.5 437,-273.5"/>
<text text-anchor="middle" x="482" y="-280.7" font-family="Helvetica,sans-Serif" font-size="11.00">Search::finalize</text>
</a>
</g>
</g>
<!-- Node13&#45;&gt;Node15 -->
<g id="edge15" class="edge"><title>Node13&#45;&gt;Node15</title>
<path fill="none" stroke="midnightblue" d="M321.601,-229.522C331.628,-232.158 341.773,-235.439 351,-239.5 368.829,-247.347 369.083,-256.857 387,-264.5 399.448,-269.81 413.467,-273.663 426.805,-276.45"/>
<polygon fill="midnightblue" stroke="midnightblue" points="426.354,-279.927 436.835,-278.379 427.676,-273.053 426.354,-279.927"/>
</g>
<!-- Node16 -->
<g id="node16" class="node"><title>Node16</title>
<g id="a_node16"><a xlink:href="classSearch.xhtml#ae2ea32c6a6ab958e714f19dc71fae9db" target="_top" xlink:title="Method responsible for executing the actual optimization to obtain the next best result. ">
<polygon fill="none" stroke="black" points="443.5,-234.5 443.5,-254.5 520.5,-254.5 520.5,-234.5 443.5,-234.5"/>
<text text-anchor="middle" x="482" y="-241.7" font-family="Helvetica,sans-Serif" font-size="11.00">Search::next</text>
</a>
</g>
</g>
<!-- Node13&#45;&gt;Node16 -->
<g id="edge16" class="edge"><title>Node13&#45;&gt;Node16</title>
<path fill="none" stroke="midnightblue" d="M330.138,-227.239C363.437,-231.049 402.798,-235.552 432.965,-239.004"/>
<polygon fill="midnightblue" stroke="midnightblue" points="432.894,-242.519 443.227,-240.178 433.69,-235.564 432.894,-242.519"/>
</g>
<!-- Node17 -->
<g id="node17" class="node"><title>Node17</title>
<g id="a_node17"><a xlink:href="classSearch.xhtml#aa64dbfe1bd713c36cc8785178a81325e" target="_top" xlink:title="Inform the ConvergenceControlPolicy that no next improvement could be found in reasonable time...">
<polygon fill="none" stroke="black" points="436,-195.5 436,-215.5 528,-215.5 528,-195.5 436,-195.5"/>
<text text-anchor="middle" x="482" y="-202.7" font-family="Helvetica,sans-Serif" font-size="11.00">Search::isStuck</text>
</a>
</g>
</g>
<!-- Node13&#45;&gt;Node17 -->
<g id="edge17" class="edge"><title>Node13&#45;&gt;Node17</title>
<path fill="none" stroke="midnightblue" d="M330.138,-215.166C360.724,-213.206 396.425,-210.919 425.417,-209.061"/>
<polygon fill="midnightblue" stroke="midnightblue" points="426.018,-212.53 435.773,-208.398 425.57,-205.544 426.018,-212.53"/>
</g>
<!-- Node18 -->
<g id="node18" class="node"><title>Node18</title>
<g id="a_node18"><a xlink:href="classSearch.xhtml#a6b275ce5596bb50216cc9fc827f44912" target="_top" xlink:title="Get the best Solution found since the last time the method startup() was called. ">
<polygon fill="none" stroke="black" points="412.5,-156.5 412.5,-176.5 551.5,-176.5 551.5,-156.5 412.5,-156.5"/>
<text text-anchor="middle" x="482" y="-163.7" font-family="Helvetica,sans-Serif" font-size="11.00">Search::getBestIndividual</text>
</a>
</g>
</g>
<!-- Node13&#45;&gt;Node18 -->
<g id="edge18" class="edge"><title>Node13&#45;&gt;Node18</title>
<path fill="none" stroke="midnightblue" d="M316.2,-209.407C327.766,-206.835 339.861,-203.839 351,-200.5 367.445,-195.571 370.551,-191.413 387,-186.5 396.472,-183.671 406.595,-181.08 416.56,-178.768"/>
<polygon fill="midnightblue" stroke="midnightblue" points="417.451,-182.155 426.442,-176.551 415.919,-175.325 417.451,-182.155"/>
</g>
<!-- Node19 -->
<g id="node19" class="node"><title>Node19</title>
<g id="a_node19"><a xlink:href="classSearch.xhtml#a134eb5da3918998d5a3d1e049f7b585e" target="_top" xlink:title="Get the number of FitnessPolicy evaluations performed since the last time the method startup() was ca...">
<polygon fill="none" stroke="black" points="410.5,-117.5 410.5,-137.5 553.5,-137.5 553.5,-117.5 410.5,-117.5"/>
<text text-anchor="middle" x="482" y="-124.7" font-family="Helvetica,sans-Serif" font-size="11.00">Search::getCurrentNEvals</text>
</a>
</g>
</g>
<!-- Node13&#45;&gt;Node19 -->
<g id="edge19" class="edge"><title>Node13&#45;&gt;Node19</title>
<path fill="none" stroke="midnightblue" d="M330.443,-210.6C337.723,-208.016 344.744,-204.714 351,-200.5 374.617,-184.591 363.368,-163.387 387,-147.5 391.303,-144.607 395.947,-142.122 400.785,-139.988"/>
<polygon fill="midnightblue" stroke="midnightblue" points="402.232,-143.18 410.291,-136.302 399.702,-136.654 402.232,-143.18"/>
</g>
<!-- Node20 -->
<g id="node20" class="node"><title>Node20</title>
<g id="a_node20"><a xlink:href="classSearch.xhtml#a6f167beec8fc582b2d993a4bd76e241c" target="_top" xlink:title="Get the Fitness for the current best Solution. ">
<polygon fill="none" stroke="black" points="418,-78.5 418,-98.5 546,-98.5 546,-78.5 418,-78.5"/>
<text text-anchor="middle" x="482" y="-85.7" font-family="Helvetica,sans-Serif" font-size="11.00">Search::getBestFitness</text>
</a>
</g>
</g>
<!-- Node13&#45;&gt;Node20 -->
<g id="edge20" class="edge"><title>Node13&#45;&gt;Node20</title>
<path fill="none" stroke="midnightblue" d="M330.135,-212.47C337.724,-209.586 344.904,-205.703 351,-200.5 384.714,-171.728 353.114,-136.068 387,-107.5 393.244,-102.236 400.547,-98.2911 408.273,-95.354"/>
<polygon fill="midnightblue" stroke="midnightblue" points="409.429,-98.6589 417.865,-92.2499 407.273,-91.999 409.429,-98.6589"/>
</g>
<!-- Node21 -->
<g id="node21" class="node"><title>Node21</title>
<g id="a_node21"><a xlink:href="classSearch.xhtml#afbc425366989c9fc8aa7c88b70812b97" target="_top" xlink:title="Get the name of the optimization method implemented. ">
<polygon fill="none" stroke="black" points="431.5,-39.5 431.5,-59.5 532.5,-59.5 532.5,-39.5 431.5,-39.5"/>
<text text-anchor="middle" x="482" y="-46.7" font-family="Helvetica,sans-Serif" font-size="11.00">Search::getName</text>
</a>
</g>
</g>
<!-- Node13&#45;&gt;Node21 -->
<g id="edge21" class="edge"><title>Node13&#45;&gt;Node21</title>
<path fill="none" stroke="midnightblue" d="M330.224,-213.235C337.891,-210.237 345.066,-206.118 351,-200.5 395.16,-158.695 342.589,-110.039 387,-68.5 396.403,-59.7053 408.702,-54.4902 421.29,-51.4944"/>
<polygon fill="midnightblue" stroke="midnightblue" points="422.242,-54.8752 431.397,-49.5418 420.914,-48.0023 422.242,-54.8752"/>
</g>
<!-- Node23 -->
<g id="node23" class="node"><title>Node23</title>
<g id="a_node23"><a xlink:href="structt__node.xhtml#a92a900c7452cca30f4974b4b15326c2c" target="_top" xlink:title="t_node::hasParent">
<polygon fill="none" stroke="black" points="429.5,-0.5 429.5,-20.5 534.5,-20.5 534.5,-0.5 429.5,-0.5"/>
<text text-anchor="middle" x="482" y="-7.7" font-family="Helvetica,sans-Serif" font-size="11.00">t_node::hasParent</text>
</a>
</g>
</g>
<!-- Node22&#45;&gt;Node23 -->
<g id="edge23" class="edge"><title>Node22&#45;&gt;Node23</title>
<path fill="none" stroke="midnightblue" d="M304.679,-180.491C320.998,-178.372 338.675,-173.168 351,-161.5 395.16,-119.695 342.589,-71.0386 387,-29.5 395.93,-21.1478 407.472,-16.024 419.392,-12.9636"/>
<polygon fill="midnightblue" stroke="midnightblue" points="420.378,-16.333 429.445,-10.8527 418.94,-9.48242 420.378,-16.333"/>
</g>
</g>
</svg>
        <g id="navigator" transform="translate(0 0)" fill="#404254">
                <rect fill="#f2f5e9" fill-opacity="0.5" stroke="#606060" stroke-width=".5" x="0" y="0" width="60" height="60"/>
                <use id="zoomplus" xlink:href="#zoomPlus" x="17" y="9" onmousedown="handleZoom(evt,'in')"/>
                <use id="zoomminus" xlink:href="#zoomMin" x="42" y="9" onmousedown="handleZoom(evt,'out')"/>
                <use id="reset" xlink:href="#resetDef" x="30" y="36" onmousedown="handleReset()"/>
                <g id="arrowUp" xlink:href="#dirArrow" transform="translate(30 24)" onmousedown="handlePan(0,-1)">
                  <use xlink:href="#rim" fill="#404040">
                        <set attributeName="fill" to="#808080" begin="arrowUp.mouseover" end="arrowUp.mouseout"/>
                  </use>
                  <path fill="none" stroke="white" stroke-width="1.5" d="M0,-3.0v7 M-2.5,-0.5L0,-3.0L2.5,-0.5"/>
                </g>
                <g id="arrowRight" xlink:href="#dirArrow" transform="rotate(90) translate(36 -43)" onmousedown="handlePan(1,0)">
                  <use xlink:href="#rim" fill="#404040">
                        <set attributeName="fill" to="#808080" begin="arrowRight.mouseover" end="arrowRight.mouseout"/>
                  </use>
                  <path fill="none" stroke="white" stroke-width="1.5" d="M0,-3.0v7 M-2.5,-0.5L0,-3.0L2.5,-0.5"/>
                </g>
                <g id="arrowDown" xlink:href="#dirArrow" transform="rotate(180) translate(-30 -48)" onmousedown="handlePan(0,1)">
                  <use xlink:href="#rim" fill="#404040">
                        <set attributeName="fill" to="#808080" begin="arrowDown.mouseover" end="arrowDown.mouseout"/>
                  </use>
                  <path fill="none" stroke="white" stroke-width="1.5" d="M0,-3.0v7 M-2.5,-0.5L0,-3.0L2.5,-0.5"/>
                </g>
                <g id="arrowLeft" xlink:href="#dirArrow" transform="rotate(270) translate(-36 17)" onmousedown="handlePan(-1,0)">
                  <use xlink:href="#rim" fill="#404040">
                        <set attributeName="fill" to="#808080" begin="arrowLeft.mouseover" end="arrowLeft.mouseout"/>
                  </use>
                  <path fill="none" stroke="white" stroke-width="1.5" d="M0,-3.0v7 M-2.5,-0.5L0,-3.0L2.5,-0.5"/>
                </g>
        </g>
        <svg viewBox="0 0 15 15" width="100%" height="30px" preserveAspectRatio="xMaxYMin meet">
         <g id="arrow_out" transform="scale(0.3 0.3)">
          <a xlink:href="classTHBuilder_1_1SearchGroup_a794cf5448380674b51022b5d65a240e2_cgraph_org.svg" target="_base">
           <rect id="button" ry="5" rx="5" y="6" x="6" height="38" width="38"
                fill="#f2f5e9" fill-opacity="0.5" stroke="#606060" stroke-width="1.0"/>
           <path id="arrow"
             d="M 11.500037,31.436501 C 11.940474,20.09759 22.043105,11.32322 32.158766,21.979434 L 37.068811,17.246167 C 37.068811,17.246167 37.088388,32 37.088388,32 L 22.160133,31.978069 C 22.160133,31.978069 26.997745,27.140456 26.997745,27.140456 C 18.528582,18.264221 13.291696,25.230495 11.500037,31.436501 z"
             style="fill:#404040;"/>
          </a>
         </g>
        </svg>
</svg>
