<?xml version="1.0" encoding="UTF-8" standalone="no"?>
<!DOCTYPE svg PUBLIC "-//W3C//DTD SVG 1.1//EN"
 "http://www.w3.org/Graphics/SVG/1.1/DTD/svg11.dtd">
<!-- Generated by graphviz version 2.38.0 (20140413.2041)
 -->
<!-- Title: THBuilder::getBestListUpdatePolicy Pages: 1 -->
<!--zoomable 148 -->
<svg id="main" version="1.1" xmlns="http://www.w3.org/2000/svg" xmlns:xlink="http://www.w3.org/1999/xlink" xml:space="preserve" onload="init(evt)">
<style type="text/css"><![CDATA[
.edge:hover path { stroke: red; }
.edge:hover polygon { stroke: red; fill: red; }
]]></style>
<script type="text/javascript"><![CDATA[
var edges = document.getElementsByTagName('g');
if (edges && edges.length) {
  for (var i=0;i<edges.length;i++) {
    if (edges[i].id.substr(0,4)=='edge') {
      edges[i].setAttribute('class','edge');
    }
  }
}
]]></script>
        <defs>
                <circle id="rim" cx="0" cy="0" r="7"/>
                <circle id="rim2" cx="0" cy="0" r="3.5"/>
                <g id="zoomPlus">
                        <use xlink:href="#rim" fill="#404040">
                                <set attributeName="fill" to="#808080" begin="zoomplus.mouseover" end="zoomplus.mouseout"/>
                        </use>
                        <path d="M-4,0h8M0,-4v8" fill="none" stroke="white" stroke-width="1.5" pointer-events="none"/>
                </g>
                <g id="zoomMin">
                        <use xlink:href="#rim" fill="#404040">
                                <set attributeName="fill" to="#808080" begin="zoomminus.mouseover" end="zoomminus.mouseout"/>
                        </use>
                        <path d="M-4,0h8" fill="none" stroke="white" stroke-width="1.5" pointer-events="none"/>
                </g>
                <g id="dirArrow">
                        <path fill="none" stroke="white" stroke-width="1.5" d="M0,-3.0v7 M-2.5,-0.5L0,-3.0L2.5,-0.5"/>
                </g>
               <g id="resetDef">
                       <use xlink:href="#rim2" fill="#404040">
                               <set attributeName="fill" to="#808080" begin="reset.mouseover" end="reset.mouseout"/>
                       </use>
               </g>
        </defs>

<script type="text/javascript">
var viewWidth = 526;
var viewHeight = 148;
var sectionId = 'dynsection-4';
</script>
<script xlink:href="svgpan.js"/>
<svg id="graph" class="graph">
<g id="viewport">
<title>THBuilder::getBestListUpdatePolicy</title>
<!-- Node1 -->
<g id="node1" class="node"><title>Node1</title>
<polygon fill="#bfbfbf" stroke="black" points="0,-33.029 0,-65.029 160,-65.029 160,-33.029 0,-33.029"/>
<text text-anchor="start" x="8" y="-52.229" font-family="Helvetica,sans-Serif" font-size="11.00">THBuilder::getBestListUpdate</text>
<text text-anchor="middle" x="80" y="-40.229" font-family="Helvetica,sans-Serif" font-size="11.00">Policy</text>
</g>
<!-- Node2 -->
<g id="node2" class="node"><title>Node2</title>
<g id="a_node2"><a xlink:href="classTHBuilder_1_1SearchGroup.xhtml#a794cf5448380674b51022b5d65a240e2" target="_top" xlink:title="Constructor to create the internal Search Group. ">
<polygon fill="none" stroke="black" points="207,-107.029 207,-139.029 343,-139.029 343,-107.029 207,-107.029"/>
<text text-anchor="start" x="215" y="-126.229" font-family="Helvetica,sans-Serif" font-size="11.00">THBuilder::SearchGroup</text>
<text text-anchor="middle" x="275" y="-114.229" font-family="Helvetica,sans-Serif" font-size="11.00">::SearchGroup</text>
</a>
</g>
</g>
<!-- Node1&#45;&gt;Node2 -->
<g id="edge1" class="edge"><title>Node1&#45;&gt;Node2</title>
<path fill="none" stroke="midnightblue" d="M125.76,-69.2414C146.88,-78.4838 172.543,-89.294 196,-98.029 204.262,-101.106 213.098,-104.159 221.744,-107.019"/>
<polygon fill="midnightblue" stroke="midnightblue" points="126.962,-65.9465 116.4,-65.1182 124.14,-72.3525 126.962,-65.9465"/>
</g>
<!-- Node4 -->
<g id="node4" class="node"><title>Node4</title>
<g id="a_node4"><a xlink:href="classTHBuilder_1_1SearchGroup.xhtml#ac8c33d89ddd52e38fb23d7102d9086e0" target="_top" xlink:title="Perform a complete execution of the search group. ">
<polygon fill="none" stroke="black" points="196,-17.029 196,-37.029 354,-37.029 354,-17.029 196,-17.029"/>
<text text-anchor="middle" x="275" y="-24.229" font-family="Helvetica,sans-Serif" font-size="11.00">THBuilder::SearchGroup::run</text>
</a>
</g>
</g>
<!-- Node1&#45;&gt;Node4 -->
<g id="edge3" class="edge"><title>Node1&#45;&gt;Node4</title>
<path fill="none" stroke="midnightblue" d="M170.051,-38.878C178.609,-37.9025 187.246,-36.918 195.69,-35.9555"/>
<polygon fill="midnightblue" stroke="midnightblue" points="169.597,-35.4071 160.057,-40.0172 170.389,-42.3621 169.597,-35.4071"/>
</g>
<!-- Node5 -->
<g id="node5" class="node"><title>Node5</title>
<g id="a_node5"><a xlink:href="classTHBuilder_1_1THImpl.xhtml#a943301db5154fd7b672119b5c9917303" target="_top" xlink:title="Starts the Treasure Hunt mechanisms. ">
<polygon fill="none" stroke="black" points="390,-7.02897 390,-27.029 518,-27.029 518,-7.02897 390,-7.02897"/>
<text text-anchor="middle" x="454" y="-14.229" font-family="Helvetica,sans-Serif" font-size="11.00">THBuilder::THImpl::run</text>
</a>
</g>
</g>
<!-- Node1&#45;&gt;Node5 -->
<g id="edge7" class="edge"><title>Node1&#45;&gt;Node5</title>
<path fill="none" stroke="midnightblue" d="M124.432,-29.0793C145.549,-20.4492 171.588,-11.3474 196,-7.02897 261.404,4.54067 337.571,-0.711121 389.911,-7.1422"/>
<polygon fill="midnightblue" stroke="midnightblue" points="122.969,-25.8976 115.1,-32.9923 125.676,-32.353 122.969,-25.8976"/>
</g>
<!-- Node6 -->
<g id="node6" class="node"><title>Node6</title>
<g id="a_node6"><a xlink:href="classTHBuilder_1_1SearchGroup.xhtml#aafebb836a1ec681213319a024a254ca8" target="_top" xlink:title="Reset the location of the population individuals and calculate the fitness. ">
<polygon fill="none" stroke="black" points="207,-56.029 207,-88.029 343,-88.029 343,-56.029 207,-56.029"/>
<text text-anchor="start" x="215" y="-75.229" font-family="Helvetica,sans-Serif" font-size="11.00">THBuilder::SearchGroup</text>
<text text-anchor="middle" x="275" y="-63.229" font-family="Helvetica,sans-Serif" font-size="11.00">::resetPopulation</text>
</a>
</g>
</g>
<!-- Node1&#45;&gt;Node6 -->
<g id="edge5" class="edge"><title>Node1&#45;&gt;Node6</title>
<path fill="none" stroke="midnightblue" d="M170.308,-59.6719C182.576,-61.1339 195,-62.6144 206.781,-64.0184"/>
<polygon fill="midnightblue" stroke="midnightblue" points="170.401,-56.1583 160.057,-58.4503 169.573,-63.1091 170.401,-56.1583"/>
</g>
<!-- Node3 -->
<g id="node3" class="node"><title>Node3</title>
<g id="a_node3"><a xlink:href="classTHBuilder_1_1THImpl.xhtml#a0d6e2fd43f50755ff2738e924f66690d" target="_top" xlink:title="THBuilder::THImpl::\lTHImpl">
<polygon fill="none" stroke="black" points="397.5,-65.029 397.5,-97.029 510.5,-97.029 510.5,-65.029 397.5,-65.029"/>
<text text-anchor="start" x="405.5" y="-84.229" font-family="Helvetica,sans-Serif" font-size="11.00">THBuilder::THImpl::</text>
<text text-anchor="middle" x="454" y="-72.229" font-family="Helvetica,sans-Serif" font-size="11.00">THImpl</text>
</a>
</g>
</g>
<!-- Node2&#45;&gt;Node3 -->
<g id="edge2" class="edge"><title>Node2&#45;&gt;Node3</title>
<path fill="none" stroke="midnightblue" d="M352.917,-104.777C367.879,-101.227 383.291,-97.5702 397.401,-94.222"/>
<polygon fill="midnightblue" stroke="midnightblue" points="352.09,-101.376 343.168,-107.091 353.706,-108.187 352.09,-101.376"/>
</g>
<!-- Node4&#45;&gt;Node5 -->
<g id="edge4" class="edge"><title>Node4&#45;&gt;Node5</title>
<path fill="none" stroke="midnightblue" d="M364.271,-22.0419C372.91,-21.5538 381.552,-21.0656 389.868,-20.5957"/>
<polygon fill="midnightblue" stroke="midnightblue" points="363.937,-18.5551 354.15,-22.6137 364.332,-25.544 363.937,-18.5551"/>
</g>
<!-- Node6&#45;&gt;Node3 -->
<g id="edge6" class="edge"><title>Node6&#45;&gt;Node3</title>
<path fill="none" stroke="midnightblue" d="M353.345,-75.9618C368.173,-76.7157 383.425,-77.4913 397.401,-78.2019"/>
<polygon fill="midnightblue" stroke="midnightblue" points="353.333,-72.4567 343.168,-75.4443 352.978,-79.4477 353.333,-72.4567"/>
</g>
</g>
</svg>
        <g id="navigator" transform="translate(0 0)" fill="#404254">
                <rect fill="#f2f5e9" fill-opacity="0.5" stroke="#606060" stroke-width=".5" x="0" y="0" width="60" height="60"/>
                <use id="zoomplus" xlink:href="#zoomPlus" x="17" y="9" onmousedown="handleZoom(evt,'in')"/>
                <use id="zoomminus" xlink:href="#zoomMin" x="42" y="9" onmousedown="handleZoom(evt,'out')"/>
                <use id="reset" xlink:href="#resetDef" x="30" y="36" onmousedown="handleReset()"/>
                <g id="arrowUp" xlink:href="#dirArrow" transform="translate(30 24)" onmousedown="handlePan(0,-1)">
                  <use xlink:href="#rim" fill="#404040">
                        <set attributeName="fill" to="#808080" begin="arrowUp.mouseover" end="arrowUp.mouseout"/>
                  </use>
                  <path fill="none" stroke="white" stroke-width="1.5" d="M0,-3.0v7 M-2.5,-0.5L0,-3.0L2.5,-0.5"/>
                </g>
                <g id="arrowRight" xlink:href="#dirArrow" transform="rotate(90) translate(36 -43)" onmousedown="handlePan(1,0)">
                  <use xlink:href="#rim" fill="#404040">
                        <set attributeName="fill" to="#808080" begin="arrowRight.mouseover" end="arrowRight.mouseout"/>
                  </use>
                  <path fill="none" stroke="white" stroke-width="1.5" d="M0,-3.0v7 M-2.5,-0.5L0,-3.0L2.5,-0.5"/>
                </g>
                <g id="arrowDown" xlink:href="#dirArrow" transform="rotate(180) translate(-30 -48)" onmousedown="handlePan(0,1)">
                  <use xlink:href="#rim" fill="#404040">
                        <set attributeName="fill" to="#808080" begin="arrowDown.mouseover" end="arrowDown.mouseout"/>
                  </use>
                  <path fill="none" stroke="white" stroke-width="1.5" d="M0,-3.0v7 M-2.5,-0.5L0,-3.0L2.5,-0.5"/>
                </g>
                <g id="arrowLeft" xlink:href="#dirArrow" transform="rotate(270) translate(-36 17)" onmousedown="handlePan(-1,0)">
                  <use xlink:href="#rim" fill="#404040">
                        <set attributeName="fill" to="#808080" begin="arrowLeft.mouseover" end="arrowLeft.mouseout"/>
                  </use>
                  <path fill="none" stroke="white" stroke-width="1.5" d="M0,-3.0v7 M-2.5,-0.5L0,-3.0L2.5,-0.5"/>
                </g>
        </g>
        <svg viewBox="0 0 15 15" width="100%" height="30px" preserveAspectRatio="xMaxYMin meet">
         <g id="arrow_out" transform="scale(0.3 0.3)">
          <a xlink:href="classTHBuilder_aca895af8d67060f0f66176aa18f00f98_icgraph_org.svg" target="_base">
           <rect id="button" ry="5" rx="5" y="6" x="6" height="38" width="38"
                fill="#f2f5e9" fill-opacity="0.5" stroke="#606060" stroke-width="1.0"/>
           <path id="arrow"
             d="M 11.500037,31.436501 C 11.940474,20.09759 22.043105,11.32322 32.158766,21.979434 L 37.068811,17.246167 C 37.068811,17.246167 37.088388,32 37.088388,32 L 22.160133,31.978069 C 22.160133,31.978069 26.997745,27.140456 26.997745,27.140456 C 18.528582,18.264221 13.291696,25.230495 11.500037,31.436501 z"
             style="fill:#404040;"/>
          </a>
         </g>
        </svg>
</svg>
