<?xml version="1.0" encoding="UTF-8" standalone="no"?>
<!DOCTYPE svg PUBLIC "-//W3C//DTD SVG 1.1//EN"
 "http://www.w3.org/Graphics/SVG/1.1/DTD/svg11.dtd">
<!-- Generated by graphviz version 2.38.0 (20140413.2041)
 -->
<!-- Title: BestListUpdatePolicy::euclideanDistance Pages: 1 -->
<svg width="430pt" height="107pt"
 viewBox="0.00 0.00 430.00 107.00" xmlns="http://www.w3.org/2000/svg" xmlns:xlink="http://www.w3.org/1999/xlink">
<g id="graph0" class="graph" transform="scale(1 1) rotate(0) translate(4 103)">
<title>BestListUpdatePolicy::euclideanDistance</title>
<!-- Node1 -->
<g id="node1" class="node"><title>Node1</title>
<polygon fill="#bfbfbf" stroke="black" points="0,-33.5 0,-65.5 119,-65.5 119,-33.5 0,-33.5"/>
<text text-anchor="start" x="8" y="-52.7" font-family="Helvetica,sans-Serif" font-size="11.00">BestListUpdatePolicy</text>
<text text-anchor="middle" x="59.5" y="-40.7" font-family="Helvetica,sans-Serif" font-size="11.00">::euclideanDistance</text>
</g>
<!-- Node2 -->
<g id="node2" class="node"><title>Node2</title>
<g id="a_node2"><a xlink:href="classSolution.xhtml#ad5b8c8ce272efaada80e93b0e097d1cd" target="_top" xlink:title="Get the number of dimensions of this Solution instance. ">
<polygon fill="none" stroke="black" points="159.5,-78.5 159.5,-98.5 300.5,-98.5 300.5,-78.5 159.5,-78.5"/>
<text text-anchor="middle" x="230" y="-85.7" font-family="Helvetica,sans-Serif" font-size="11.00">Solution::getNDimensions</text>
</a>
</g>
</g>
<!-- Node1&#45;&gt;Node2 -->
<g id="edge1" class="edge"><title>Node1&#45;&gt;Node2</title>
<path fill="none" stroke="midnightblue" d="M119.433,-63.1403C137.765,-67.3833 157.86,-72.0343 175.778,-76.1816"/>
<polygon fill="midnightblue" stroke="midnightblue" points="175.233,-79.6478 185.764,-78.4929 176.811,-72.8281 175.233,-79.6478"/>
</g>
<!-- Node3 -->
<g id="node3" class="node"><title>Node3</title>
<g id="a_node3"><a xlink:href="structPosition.xhtml#a4099812c9395b6dbe03ca8d25f7ae7fc" target="_top" xlink:title="Math method that subtracts the value received from each value in the list that represents the Positio...">
<polygon fill="none" stroke="black" points="191,-39.5 191,-59.5 269,-59.5 269,-39.5 191,-39.5"/>
<text text-anchor="middle" x="230" y="-46.7" font-family="Helvetica,sans-Serif" font-size="11.00">Position::sub</text>
</a>
</g>
</g>
<!-- Node1&#45;&gt;Node3 -->
<g id="edge2" class="edge"><title>Node1&#45;&gt;Node3</title>
<path fill="none" stroke="midnightblue" d="M119.433,-49.5C139.452,-49.5 161.573,-49.5 180.666,-49.5"/>
<polygon fill="midnightblue" stroke="midnightblue" points="180.929,-53.0001 190.929,-49.5 180.929,-46.0001 180.929,-53.0001"/>
</g>
<!-- Node4 -->
<g id="node4" class="node"><title>Node4</title>
<g id="a_node4"><a xlink:href="structPosition.xhtml#a8f9b5812209642cb31de38d3745cfc16" target="_top" xlink:title="Get the sum of values from the list that represents the Position. ">
<polygon fill="none" stroke="black" points="155,-0.5 155,-20.5 305,-20.5 305,-0.5 155,-0.5"/>
<text text-anchor="middle" x="230" y="-7.7" font-family="Helvetica,sans-Serif" font-size="11.00">Position::sumInternalValues</text>
</a>
</g>
</g>
<!-- Node1&#45;&gt;Node4 -->
<g id="edge3" class="edge"><title>Node1&#45;&gt;Node4</title>
<path fill="none" stroke="midnightblue" d="M119.433,-35.8597C137.765,-31.6167 157.86,-26.9657 175.778,-22.8184"/>
<polygon fill="midnightblue" stroke="midnightblue" points="176.811,-26.1719 185.764,-20.5071 175.233,-19.3522 176.811,-26.1719"/>
</g>
<!-- Node5 -->
<g id="node5" class="node"><title>Node5</title>
<g id="a_node5"><a xlink:href="structPosition.xhtml#a11256d014f2958d21a1198676208df33" target="_top" xlink:title="Math method that sums (individually) each value in the list that represents the Position with the val...">
<polygon fill="none" stroke="black" points="341,-0.5 341,-20.5 422,-20.5 422,-0.5 341,-0.5"/>
<text text-anchor="middle" x="381.5" y="-7.7" font-family="Helvetica,sans-Serif" font-size="11.00">Position::sum</text>
</a>
</g>
</g>
<!-- Node4&#45;&gt;Node5 -->
<g id="edge4" class="edge"><title>Node4&#45;&gt;Node5</title>
<path fill="none" stroke="midnightblue" d="M305.312,-10.5C313.968,-10.5 322.633,-10.5 330.84,-10.5"/>
<polygon fill="midnightblue" stroke="midnightblue" points="330.958,-14.0001 340.958,-10.5 330.958,-7.0001 330.958,-14.0001"/>
</g>
</g>
</svg>
