<?xml version="1.0" encoding="UTF-8" standalone="no"?>
<!DOCTYPE svg PUBLIC "-//W3C//DTD SVG 1.1//EN"
 "http://www.w3.org/Graphics/SVG/1.1/DTD/svg11.dtd">
<!-- Generated by graphviz version 2.38.0 (20140413.2041)
 -->
<!-- Title: Solution::equals Pages: 1 -->
<svg width="253pt" height="68pt"
 viewBox="0.00 0.00 253.00 68.00" xmlns="http://www.w3.org/2000/svg" xmlns:xlink="http://www.w3.org/1999/xlink">
<g id="graph0" class="graph" transform="scale(1 1) rotate(0) translate(4 64)">
<title>Solution::equals</title>
<!-- Node1 -->
<g id="node1" class="node"><title>Node1</title>
<polygon fill="#bfbfbf" stroke="black" points="0,-19.5 0,-39.5 93,-39.5 93,-19.5 0,-19.5"/>
<text text-anchor="middle" x="46.5" y="-26.7" font-family="Helvetica,sans-Serif" font-size="11.00">Solution::equals</text>
</g>
<!-- Node2 -->
<g id="node2" class="node"><title>Node2</title>
<g id="a_node2"><a xlink:href="classSolution.xhtml#a7681f8c7d0c20381203276c7b9a26374" target="_top" xlink:title="Solution::operator==">
<polygon fill="none" stroke="black" points="129,-39.5 129,-59.5 245,-59.5 245,-39.5 129,-39.5"/>
<text text-anchor="middle" x="187" y="-46.7" font-family="Helvetica,sans-Serif" font-size="11.00">Solution::operator==</text>
</a>
</g>
</g>
<!-- Node1&#45;&gt;Node2 -->
<g id="edge1" class="edge"><title>Node1&#45;&gt;Node2</title>
<path fill="none" stroke="midnightblue" d="M103.278,-37.5546C111.652,-38.7638 120.299,-40.0126 128.705,-41.2263"/>
<polygon fill="midnightblue" stroke="midnightblue" points="103.632,-34.0694 93.2339,-36.1042 102.631,-40.9975 103.632,-34.0694"/>
</g>
<!-- Node3 -->
<g id="node3" class="node"><title>Node3</title>
<g id="a_node3"><a xlink:href="classSolution.xhtml#a4f0ac3c5f908538e65e4498d1061d156" target="_top" xlink:title="Solution::operator!=">
<polygon fill="none" stroke="black" points="131,-0.5 131,-20.5 243,-20.5 243,-0.5 131,-0.5"/>
<text text-anchor="middle" x="187" y="-7.7" font-family="Helvetica,sans-Serif" font-size="11.00">Solution::operator!=</text>
</a>
</g>
</g>
<!-- Node1&#45;&gt;Node3 -->
<g id="edge2" class="edge"><title>Node1&#45;&gt;Node3</title>
<path fill="none" stroke="midnightblue" d="M103.263,-21.8502C112.296,-20.611 121.647,-19.3281 130.67,-18.0904"/>
<polygon fill="midnightblue" stroke="midnightblue" points="102.665,-18.3993 93.2339,-23.226 103.617,-25.3344 102.665,-18.3993"/>
</g>
</g>
</svg>
