<?xml version="1.0" encoding="UTF-8" standalone="no"?>
<!DOCTYPE svg PUBLIC "-//W3C//DTD SVG 1.1//EN"
 "http://www.w3.org/Graphics/SVG/1.1/DTD/svg11.dtd">
<!-- Generated by graphviz version 2.38.0 (20140413.2041)
 -->
<!-- Title: FitnessPolicy::firstIsBetter Pages: 1 -->
<svg width="513pt" height="428pt"
 viewBox="0.00 0.00 513.00 428.00" xmlns="http://www.w3.org/2000/svg" xmlns:xlink="http://www.w3.org/1999/xlink">
<g id="graph0" class="graph" transform="scale(1 1) rotate(0) translate(4 424)">
<title>FitnessPolicy::firstIsBetter</title>
<!-- Node1 -->
<g id="node1" class="node"><title>Node1</title>
<polygon fill="#bfbfbf" stroke="black" points="0,-211.5 0,-231.5 140,-231.5 140,-211.5 0,-211.5"/>
<text text-anchor="middle" x="70" y="-218.7" font-family="Helvetica,sans-Serif" font-size="11.00">FitnessPolicy::firstIsBetter</text>
</g>
<!-- Node2 -->
<g id="node2" class="node"><title>Node2</title>
<g id="a_node2"><a xlink:href="classHillClimbing.xhtml#a845d2e4cac39582bf1218a90431c2f3c" target="_top" xlink:title="Initialize the algorithm for a new optimization. ">
<polygon fill="none" stroke="black" points="202,-399.5 202,-419.5 315,-419.5 315,-399.5 202,-399.5"/>
<text text-anchor="middle" x="258.5" y="-406.7" font-family="Helvetica,sans-Serif" font-size="11.00">HillClimbing::startup</text>
</a>
</g>
</g>
<!-- Node1&#45;&gt;Node2 -->
<g id="edge1" class="edge"><title>Node1&#45;&gt;Node2</title>
<path fill="none" stroke="midnightblue" d="M77.6387,-241.605C90.5527,-277.446 122.572,-352.2 176,-390.5 183.675,-396.002 192.707,-399.935 201.912,-402.741"/>
<polygon fill="midnightblue" stroke="midnightblue" points="80.8264,-240.115 74.2417,-231.815 74.2132,-242.41 80.8264,-240.115"/>
</g>
<!-- Node3 -->
<g id="node3" class="node"><title>Node3</title>
<g id="a_node3"><a xlink:href="classHillClimbing.xhtml#a7c67b745880b93be26eb4fa113f0e37f" target="_top" xlink:title="Perform the actual optimization only until the next improvement. ">
<polygon fill="none" stroke="black" points="208.5,-360.5 208.5,-380.5 308.5,-380.5 308.5,-360.5 208.5,-360.5"/>
<text text-anchor="middle" x="258.5" y="-367.7" font-family="Helvetica,sans-Serif" font-size="11.00">HillClimbing::next</text>
</a>
</g>
</g>
<!-- Node1&#45;&gt;Node3 -->
<g id="edge2" class="edge"><title>Node1&#45;&gt;Node3</title>
<path fill="none" stroke="midnightblue" d="M80.9081,-240.545C96.8879,-269.287 131.151,-323.369 176,-351.5 185.723,-357.599 197.207,-361.743 208.438,-364.558"/>
<polygon fill="midnightblue" stroke="midnightblue" points="83.8642,-238.653 76.0309,-231.52 77.7059,-241.981 83.8642,-238.653"/>
</g>
<!-- Node4 -->
<g id="node4" class="node"><title>Node4</title>
<g id="a_node4"><a xlink:href="classPSO.xhtml#a8fb3e9a46396074cbbdc2d04a83783a5" target="_top" xlink:title="Initialize the algorithm for a new optimization. ">
<polygon fill="none" stroke="black" points="219,-321.5 219,-341.5 298,-341.5 298,-321.5 219,-321.5"/>
<text text-anchor="middle" x="258.5" y="-328.7" font-family="Helvetica,sans-Serif" font-size="11.00">PSO::startup</text>
</a>
</g>
</g>
<!-- Node1&#45;&gt;Node4 -->
<g id="edge3" class="edge"><title>Node1&#45;&gt;Node4</title>
<path fill="none" stroke="midnightblue" d="M86.3864,-239.285C105.354,-260.054 139.575,-293.925 176,-312.5 189.202,-319.232 204.822,-323.616 218.837,-326.454"/>
<polygon fill="midnightblue" stroke="midnightblue" points="88.9445,-236.895 79.6699,-231.774 83.7263,-241.561 88.9445,-236.895"/>
</g>
<!-- Node5 -->
<g id="node5" class="node"><title>Node5</title>
<g id="a_node5"><a xlink:href="classPSO.xhtml#a25e15ab34186e7c52a4789108ae24ece" target="_top" xlink:title="Perform the actual optimization only until the next improvement. ">
<polygon fill="none" stroke="black" points="225.5,-282.5 225.5,-302.5 291.5,-302.5 291.5,-282.5 225.5,-282.5"/>
<text text-anchor="middle" x="258.5" y="-289.7" font-family="Helvetica,sans-Serif" font-size="11.00">PSO::next</text>
</a>
</g>
</g>
<!-- Node1&#45;&gt;Node5 -->
<g id="edge4" class="edge"><title>Node1&#45;&gt;Node5</title>
<path fill="none" stroke="midnightblue" d="M97.1483,-236.571C117.953,-248.035 148.105,-263.493 176,-273.5 191.863,-279.191 210.084,-283.625 225.269,-286.774"/>
<polygon fill="midnightblue" stroke="midnightblue" points="98.7252,-233.443 88.2885,-231.619 95.3098,-239.553 98.7252,-233.443"/>
</g>
<!-- Node6 -->
<g id="node6" class="node"><title>Node6</title>
<g id="a_node6"><a xlink:href="classConvergentBestListUpdatePolicy.xhtml#a6382937d32ac8bab7169f216fcd3048f" target="_top" xlink:title="This method implements a behavior that focus on convergence speed when updating the solutions from th...">
<polygon fill="none" stroke="black" points="185.5,-231.5 185.5,-263.5 331.5,-263.5 331.5,-231.5 185.5,-231.5"/>
<text text-anchor="start" x="193.5" y="-250.7" font-family="Helvetica,sans-Serif" font-size="11.00">ConvergentBestListUpdate</text>
<text text-anchor="middle" x="258.5" y="-238.7" font-family="Helvetica,sans-Serif" font-size="11.00">Policy::apply</text>
</a>
</g>
</g>
<!-- Node1&#45;&gt;Node6 -->
<g id="edge5" class="edge"><title>Node1&#45;&gt;Node6</title>
<path fill="none" stroke="midnightblue" d="M150.299,-232.555C161.922,-234.175 173.84,-235.837 185.31,-237.436"/>
<polygon fill="midnightblue" stroke="midnightblue" points="150.568,-229.059 140.181,-231.144 149.602,-235.992 150.568,-229.059"/>
</g>
<!-- Node7 -->
<g id="node7" class="node"><title>Node7</title>
<g id="a_node7"><a xlink:href="classDivergentBestListUpdatePolicy.xhtml#a793d47a0c458eef94b27fbee73e5df0e" target="_top" xlink:title="This method implements a behavior that promotes diversity when updating the solutions from the BestLi...">
<polygon fill="none" stroke="black" points="176,-180.5 176,-212.5 341,-212.5 341,-180.5 176,-180.5"/>
<text text-anchor="start" x="184" y="-199.7" font-family="Helvetica,sans-Serif" font-size="11.00">DivergentBestListUpdatePolicy</text>
<text text-anchor="middle" x="258.5" y="-187.7" font-family="Helvetica,sans-Serif" font-size="11.00">::apply</text>
</a>
</g>
</g>
<!-- Node1&#45;&gt;Node7 -->
<g id="edge6" class="edge"><title>Node1&#45;&gt;Node7</title>
<path fill="none" stroke="midnightblue" d="M150.364,-210.861C158.791,-209.732 167.373,-208.581 175.826,-207.448"/>
<polygon fill="midnightblue" stroke="midnightblue" points="149.627,-207.429 140.181,-212.226 150.557,-214.367 149.627,-207.429"/>
</g>
<!-- Node8 -->
<g id="node8" class="node"><title>Node8</title>
<g id="a_node8"><a xlink:href="classFitnessPolicy.xhtml#adfac4092c631ea82aa5cd0ea03526d1e" target="_top" xlink:title="FitnessPolicy\&lt;\&gt;::~Fitness\lPolicy">
<polygon fill="none" stroke="black" points="188.5,-129.5 188.5,-161.5 328.5,-161.5 328.5,-129.5 188.5,-129.5"/>
<text text-anchor="start" x="196.5" y="-148.7" font-family="Helvetica,sans-Serif" font-size="11.00">FitnessPolicy&lt;&gt;::~Fitness</text>
<text text-anchor="middle" x="258.5" y="-136.7" font-family="Helvetica,sans-Serif" font-size="11.00">Policy</text>
</a>
</g>
</g>
<!-- Node1&#45;&gt;Node8 -->
<g id="edge7" class="edge"><title>Node1&#45;&gt;Node8</title>
<path fill="none" stroke="midnightblue" d="M98.9637,-206.907C119.858,-196.319 149.298,-182.061 176,-171.5 184.839,-168.004 194.352,-164.631 203.65,-161.538"/>
<polygon fill="midnightblue" stroke="midnightblue" points="97.3158,-203.819 90.0053,-211.487 100.502,-210.051 97.3158,-203.819"/>
</g>
<!-- Node9 -->
<g id="node9" class="node"><title>Node9</title>
<g id="a_node9"><a xlink:href="classTHBuilder_1_1SearchGroup.xhtml#ac8c33d89ddd52e38fb23d7102d9086e0" target="_top" xlink:title="Perform a complete execution of the search group. ">
<polygon fill="none" stroke="black" points="179.5,-90.5 179.5,-110.5 337.5,-110.5 337.5,-90.5 179.5,-90.5"/>
<text text-anchor="middle" x="258.5" y="-97.7" font-family="Helvetica,sans-Serif" font-size="11.00">THBuilder::SearchGroup::run</text>
</a>
</g>
</g>
<!-- Node1&#45;&gt;Node9 -->
<g id="edge8" class="edge"><title>Node1&#45;&gt;Node9</title>
<path fill="none" stroke="midnightblue" d="M84.6149,-203.505C102.875,-180.667 137.492,-141.703 176,-120.5 183.402,-116.424 191.634,-113.169 199.939,-110.571"/>
<polygon fill="midnightblue" stroke="midnightblue" points="81.8462,-201.363 78.4431,-211.397 87.3604,-205.676 81.8462,-201.363"/>
</g>
<!-- Node10 -->
<g id="node10" class="node"><title>Node10</title>
<g id="a_node10"><a xlink:href="classTHBuilder_1_1THImpl.xhtml#a943301db5154fd7b672119b5c9917303" target="_top" xlink:title="Starts the Treasure Hunt mechanisms. ">
<polygon fill="none" stroke="black" points="377,-70.5 377,-90.5 505,-90.5 505,-70.5 377,-70.5"/>
<text text-anchor="middle" x="441" y="-77.7" font-family="Helvetica,sans-Serif" font-size="11.00">THBuilder::THImpl::run</text>
</a>
</g>
</g>
<!-- Node1&#45;&gt;Node10 -->
<g id="edge12" class="edge"><title>Node1&#45;&gt;Node10</title>
<path fill="none" stroke="midnightblue" d="M78.7554,-201.919C92.6815,-169.806 125.29,-106.975 176,-81.5 248.697,-44.9793 347.501,-58.6218 401.26,-70.4225"/>
<polygon fill="midnightblue" stroke="midnightblue" points="75.5121,-200.603 74.8912,-211.179 81.9723,-203.298 75.5121,-200.603"/>
</g>
<!-- Node11 -->
<g id="node11" class="node"><title>Node11</title>
<g id="a_node11"><a xlink:href="classTHBuilder_1_1SearchGroup.xhtml#aafebb836a1ec681213319a024a254ca8" target="_top" xlink:title="Reset the location of the population individuals and calculate the fitness. ">
<polygon fill="none" stroke="black" points="190.5,-0.5 190.5,-32.5 326.5,-32.5 326.5,-0.5 190.5,-0.5"/>
<text text-anchor="start" x="198.5" y="-19.7" font-family="Helvetica,sans-Serif" font-size="11.00">THBuilder::SearchGroup</text>
<text text-anchor="middle" x="258.5" y="-7.7" font-family="Helvetica,sans-Serif" font-size="11.00">::resetPopulation</text>
</a>
</g>
</g>
<!-- Node1&#45;&gt;Node11 -->
<g id="edge10" class="edge"><title>Node1&#45;&gt;Node11</title>
<path fill="none" stroke="midnightblue" d="M78.0108,-201.511C91.5196,-165.746 124.456,-90.5337 176,-47.5 183.205,-41.4848 191.7,-36.5649 200.438,-32.5626"/>
<polygon fill="midnightblue" stroke="midnightblue" points="74.5914,-200.671 74.4431,-211.264 81.1654,-203.075 74.5914,-200.671"/>
</g>
<!-- Node9&#45;&gt;Node10 -->
<g id="edge9" class="edge"><title>Node9&#45;&gt;Node10</title>
<path fill="none" stroke="midnightblue" d="M347.84,-90.7117C357.676,-89.6218 367.542,-88.5286 376.971,-87.4838"/>
<polygon fill="midnightblue" stroke="midnightblue" points="347.174,-87.2639 337.62,-91.844 347.945,-94.2214 347.174,-87.2639"/>
</g>
<!-- Node12 -->
<g id="node12" class="node"><title>Node12</title>
<g id="a_node12"><a xlink:href="classTHBuilder_1_1THImpl.xhtml#a0d6e2fd43f50755ff2738e924f66690d" target="_top" xlink:title="THBuilder::THImpl::\lTHImpl">
<polygon fill="none" stroke="black" points="384.5,-0.5 384.5,-32.5 497.5,-32.5 497.5,-0.5 384.5,-0.5"/>
<text text-anchor="start" x="392.5" y="-19.7" font-family="Helvetica,sans-Serif" font-size="11.00">THBuilder::THImpl::</text>
<text text-anchor="middle" x="441" y="-7.7" font-family="Helvetica,sans-Serif" font-size="11.00">THImpl</text>
</a>
</g>
</g>
<!-- Node11&#45;&gt;Node12 -->
<g id="edge11" class="edge"><title>Node11&#45;&gt;Node12</title>
<path fill="none" stroke="midnightblue" d="M337.043,-16.5C352.914,-16.5 369.32,-16.5 384.244,-16.5"/>
<polygon fill="midnightblue" stroke="midnightblue" points="336.712,-13.0001 326.712,-16.5 336.712,-20.0001 336.712,-13.0001"/>
</g>
</g>
</svg>
