<?xml version="1.0" encoding="UTF-8" standalone="no"?>
<!DOCTYPE svg PUBLIC "-//W3C//DTD SVG 1.1//EN"
 "http://www.w3.org/Graphics/SVG/1.1/DTD/svg11.dtd">
<!-- Generated by graphviz version 2.38.0 (20140413.2041)
 -->
<!-- Title: Search::getName Pages: 1 -->
<svg width="630pt" height="86pt"
 viewBox="0.00 0.00 630.00 86.00" xmlns="http://www.w3.org/2000/svg" xmlns:xlink="http://www.w3.org/1999/xlink">
<g id="graph0" class="graph" transform="scale(1 1) rotate(0) translate(4 82)">
<title>Search::getName</title>
<!-- Node1 -->
<g id="node1" class="node"><title>Node1</title>
<polygon fill="#bfbfbf" stroke="black" points="0,-28.5 0,-48.5 101,-48.5 101,-28.5 0,-28.5"/>
<text text-anchor="middle" x="50.5" y="-35.7" font-family="Helvetica,sans-Serif" font-size="11.00">Search::getName</text>
</g>
<!-- Node2 -->
<g id="node2" class="node"><title>Node2</title>
<g id="a_node2"><a xlink:href="classReinforcementLearningSearchAlgorithmSelectionPolicy.xhtml#a90a40b83202cab6aee7c547d51f40105" target="_top" xlink:title="Rank the performance of the Search instance previously executed. ">
<polygon fill="none" stroke="black" points="137,-45.5 137,-77.5 301,-77.5 301,-45.5 137,-45.5"/>
<text text-anchor="start" x="145" y="-64.7" font-family="Helvetica,sans-Serif" font-size="11.00">ReinforcementLearningSearch</text>
<text text-anchor="middle" x="219" y="-52.7" font-family="Helvetica,sans-Serif" font-size="11.00">AlgorithmSelectionPolicy::rank</text>
</a>
</g>
</g>
<!-- Node1&#45;&gt;Node2 -->
<g id="edge1" class="edge"><title>Node1&#45;&gt;Node2</title>
<path fill="none" stroke="midnightblue" d="M111.039,-46.7246C119.429,-47.8835 128.169,-49.0909 136.878,-50.294"/>
<polygon fill="midnightblue" stroke="midnightblue" points="111.39,-43.2399 101.005,-45.3385 110.432,-50.174 111.39,-43.2399"/>
</g>
<!-- Node3 -->
<g id="node3" class="node"><title>Node3</title>
<g id="a_node3"><a xlink:href="classSearch.xhtml#af9f46406f1f1f7f89ab294c155738ca6" target="_top" xlink:title="Set the full search space. ">
<polygon fill="none" stroke="black" points="150.5,-6.5 150.5,-26.5 287.5,-26.5 287.5,-6.5 150.5,-6.5"/>
<text text-anchor="middle" x="219" y="-13.7" font-family="Helvetica,sans-Serif" font-size="11.00">Search::setSearchSpace</text>
</a>
</g>
</g>
<!-- Node1&#45;&gt;Node3 -->
<g id="edge2" class="edge"><title>Node1&#45;&gt;Node3</title>
<path fill="none" stroke="midnightblue" d="M110.994,-30.6389C123.697,-28.9604 137.206,-27.1755 150.195,-25.4593"/>
<polygon fill="midnightblue" stroke="midnightblue" points="110.46,-27.179 101.005,-31.9588 111.377,-34.1187 110.46,-27.179"/>
</g>
<!-- Node4 -->
<g id="node4" class="node"><title>Node4</title>
<g id="a_node4"><a xlink:href="classTHBuilder_1_1SearchGroup.xhtml#a794cf5448380674b51022b5d65a240e2" target="_top" xlink:title="Constructor to create the internal Search Group. ">
<polygon fill="none" stroke="black" points="337,-23.5 337,-55.5 473,-55.5 473,-23.5 337,-23.5"/>
<text text-anchor="start" x="345" y="-42.7" font-family="Helvetica,sans-Serif" font-size="11.00">THBuilder::SearchGroup</text>
<text text-anchor="middle" x="405" y="-30.7" font-family="Helvetica,sans-Serif" font-size="11.00">::SearchGroup</text>
</a>
</g>
</g>
<!-- Node3&#45;&gt;Node4 -->
<g id="edge3" class="edge"><title>Node3&#45;&gt;Node4</title>
<path fill="none" stroke="midnightblue" d="M297.967,-26.2459C310.856,-27.857 324.122,-29.5152 336.719,-31.0899"/>
<polygon fill="midnightblue" stroke="midnightblue" points="298.088,-22.7338 287.731,-24.9664 297.22,-29.6798 298.088,-22.7338"/>
</g>
<!-- Node5 -->
<g id="node5" class="node"><title>Node5</title>
<g id="a_node5"><a xlink:href="classTHBuilder_1_1THImpl.xhtml#a0d6e2fd43f50755ff2738e924f66690d" target="_top" xlink:title="THBuilder::THImpl::\lTHImpl">
<polygon fill="none" stroke="black" points="509,-0.5 509,-32.5 622,-32.5 622,-0.5 509,-0.5"/>
<text text-anchor="start" x="517" y="-19.7" font-family="Helvetica,sans-Serif" font-size="11.00">THBuilder::THImpl::</text>
<text text-anchor="middle" x="565.5" y="-7.7" font-family="Helvetica,sans-Serif" font-size="11.00">THImpl</text>
</a>
</g>
</g>
<!-- Node3&#45;&gt;Node5 -->
<g id="edge5" class="edge"><title>Node3&#45;&gt;Node5</title>
<path fill="none" stroke="midnightblue" d="M298.074,-14.98C311.073,-14.7801 324.417,-14.6075 337,-14.5 397.442,-13.9834 412.559,-13.8395 473,-14.5 484.598,-14.6267 497.022,-14.8438 508.858,-15.0894"/>
<polygon fill="midnightblue" stroke="midnightblue" points="297.686,-11.4857 287.743,-15.1454 297.798,-18.4848 297.686,-11.4857"/>
</g>
<!-- Node4&#45;&gt;Node5 -->
<g id="edge4" class="edge"><title>Node4&#45;&gt;Node5</title>
<path fill="none" stroke="midnightblue" d="M483.247,-28.2906C491.824,-27.0461 500.431,-25.7971 508.668,-24.6019"/>
<polygon fill="midnightblue" stroke="midnightblue" points="482.612,-24.8461 473.218,-29.7459 483.617,-31.7735 482.612,-24.8461"/>
</g>
</g>
</svg>
