<?xml version="1.0" encoding="UTF-8" standalone="no"?>
<!DOCTYPE svg PUBLIC "-//W3C//DTD SVG 1.1//EN"
 "http://www.w3.org/Graphics/SVG/1.1/DTD/svg11.dtd">
<!-- Generated by graphviz version 2.38.0 (20140413.2041)
 -->
<!-- Title: GroupRegionSelectionPolicy&lt; P, pSize, F, fSize, V, vSize &gt; Pages: 1 -->
<svg width="186pt" height="274pt"
 viewBox="0.00 0.00 186.00 274.00" xmlns="http://www.w3.org/2000/svg" xmlns:xlink="http://www.w3.org/1999/xlink">
<g id="graph0" class="graph" transform="scale(1 1) rotate(0) translate(4 270)">
<title>GroupRegionSelectionPolicy&lt; P, pSize, F, fSize, V, vSize &gt;</title>
<!-- Node1 -->
<g id="node1" class="node"><title>Node1</title>
<polygon fill="#bfbfbf" stroke="black" points="-1.42109e-14,-0.5 -1.42109e-14,-108.5 178,-108.5 178,-0.5 -1.42109e-14,-0.5"/>
<text text-anchor="start" x="8" y="-95.7" font-family="Helvetica,sans-Serif" font-size="11.00">GroupRegionSelectionPolicy</text>
<text text-anchor="start" x="8" y="-83.7" font-family="Helvetica,sans-Serif" font-size="11.00">&lt; P, pSize, F, fSize, V,</text>
<text text-anchor="middle" x="89" y="-71.7" font-family="Helvetica,sans-Serif" font-size="11.00"> vSize &gt;</text>
<polyline fill="none" stroke="black" points="-1.42109e-14,-64.5 178,-64.5 "/>
<text text-anchor="middle" x="89" y="-51.7" font-family="Helvetica,sans-Serif" font-size="11.00"> </text>
<polyline fill="none" stroke="black" points="-1.42109e-14,-44.5 178,-44.5 "/>
<text text-anchor="start" x="8" y="-31.7" font-family="Helvetica,sans-Serif" font-size="11.00">+ GroupRegionSelectionPolicy()</text>
<text text-anchor="start" x="8" y="-19.7" font-family="Helvetica,sans-Serif" font-size="11.00">+ ~GroupRegionSelectionPolicy()</text>
<text text-anchor="start" x="8" y="-7.7" font-family="Helvetica,sans-Serif" font-size="11.00">+ apply()</text>
</g>
<!-- Node2 -->
<g id="node2" class="node"><title>Node2</title>
<g id="a_node2"><a xlink:href="classRegionSelectionPolicy.xhtml" target="_top" xlink:title="Template for the policy that implements the sub&#45;region selection criteria. ">
<polygon fill="none" stroke="black" points="15,-145.5 15,-265.5 163,-265.5 163,-145.5 15,-145.5"/>
<text text-anchor="start" x="23" y="-252.7" font-family="Helvetica,sans-Serif" font-size="11.00">RegionSelectionPolicy</text>
<text text-anchor="start" x="23" y="-240.7" font-family="Helvetica,sans-Serif" font-size="11.00">&lt; P, pSize, F, fSize,</text>
<text text-anchor="middle" x="89" y="-228.7" font-family="Helvetica,sans-Serif" font-size="11.00"> V, vSize &gt;</text>
<polyline fill="none" stroke="black" points="15,-221.5 163,-221.5 "/>
<text text-anchor="middle" x="89" y="-208.7" font-family="Helvetica,sans-Serif" font-size="11.00"> </text>
<polyline fill="none" stroke="black" points="15,-201.5 163,-201.5 "/>
<text text-anchor="start" x="23" y="-188.7" font-family="Helvetica,sans-Serif" font-size="11.00">+ RegionSelectionPolicy()</text>
<text text-anchor="start" x="23" y="-176.7" font-family="Helvetica,sans-Serif" font-size="11.00">+ ~RegionSelectionPolicy()</text>
<text text-anchor="start" x="23" y="-164.7" font-family="Helvetica,sans-Serif" font-size="11.00">+ apply()</text>
<text text-anchor="start" x="23" y="-152.7" font-family="Helvetica,sans-Serif" font-size="11.00">+ recalculate()</text>
</a>
</g>
</g>
<!-- Node2&#45;&gt;Node1 -->
<g id="edge1" class="edge"><title>Node2&#45;&gt;Node1</title>
<path fill="none" stroke="midnightblue" d="M89,-134.948C89,-126.168 89,-117.296 89,-108.822"/>
<polygon fill="none" stroke="midnightblue" points="85.5001,-135.183 89,-145.183 92.5001,-135.183 85.5001,-135.183"/>
</g>
</g>
</svg>
