<?xml version="1.0" encoding="UTF-8" standalone="no"?>
<!DOCTYPE svg PUBLIC "-//W3C//DTD SVG 1.1//EN"
 "http://www.w3.org/Graphics/SVG/1.1/DTD/svg11.dtd">
<!-- Generated by graphviz version 2.38.0 (20140413.2041)
 -->
<!-- Title: DivergentBestListUpdatePolicy::apply Pages: 1 -->
<svg width="652pt" height="158pt"
 viewBox="0.00 0.00 652.00 158.00" xmlns="http://www.w3.org/2000/svg" xmlns:xlink="http://www.w3.org/1999/xlink">
<g id="graph0" class="graph" transform="scale(1 1) rotate(0) translate(4 154)">
<title>DivergentBestListUpdatePolicy::apply</title>
<!-- Node1 -->
<g id="node1" class="node"><title>Node1</title>
<polygon fill="#bfbfbf" stroke="black" points="0,-61.5 0,-93.5 165,-93.5 165,-61.5 0,-61.5"/>
<text text-anchor="start" x="8" y="-80.7" font-family="Helvetica,sans-Serif" font-size="11.00">DivergentBestListUpdatePolicy</text>
<text text-anchor="middle" x="82.5" y="-68.7" font-family="Helvetica,sans-Serif" font-size="11.00">::apply</text>
</g>
<!-- Node2 -->
<g id="node2" class="node"><title>Node2</title>
<g id="a_node2"><a xlink:href="classBestList.xhtml#ac627a3267d2b7cf8f579cc7e5b77d2e3" target="_top" xlink:title="BestList::getListSize">
<polygon fill="none" stroke="black" points="214.5,-129.5 214.5,-149.5 327.5,-149.5 327.5,-129.5 214.5,-129.5"/>
<text text-anchor="middle" x="271" y="-136.7" font-family="Helvetica,sans-Serif" font-size="11.00">BestList::getListSize</text>
</a>
</g>
</g>
<!-- Node1&#45;&gt;Node2 -->
<g id="edge1" class="edge"><title>Node1&#45;&gt;Node2</title>
<path fill="none" stroke="midnightblue" d="M124.813,-93.5612C147.206,-102.027 175.45,-112.322 201,-120.5 207.52,-122.587 214.429,-124.655 221.258,-126.617"/>
<polygon fill="midnightblue" stroke="midnightblue" points="220.577,-130.061 231.151,-129.404 222.475,-123.323 220.577,-130.061"/>
</g>
<!-- Node3 -->
<g id="node3" class="node"><title>Node3</title>
<g id="a_node3"><a xlink:href="classFitnessPolicy.xhtml#acaf9a99792b12c78eaabc0acadd1de9f" target="_top" xlink:title="Check if the first Solution is better than the second Solution. ">
<polygon fill="none" stroke="black" points="201,-90.5 201,-110.5 341,-110.5 341,-90.5 201,-90.5"/>
<text text-anchor="middle" x="271" y="-97.7" font-family="Helvetica,sans-Serif" font-size="11.00">FitnessPolicy::firstIsBetter</text>
</a>
</g>
</g>
<!-- Node1&#45;&gt;Node3 -->
<g id="edge2" class="edge"><title>Node1&#45;&gt;Node3</title>
<path fill="none" stroke="midnightblue" d="M165.03,-87.5547C173.625,-88.6146 182.355,-89.6912 190.921,-90.7477"/>
<polygon fill="midnightblue" stroke="midnightblue" points="190.531,-94.226 200.885,-91.9764 191.388,-87.2786 190.531,-94.226"/>
</g>
<!-- Node4 -->
<g id="node4" class="node"><title>Node4</title>
<g id="a_node4"><a xlink:href="classBestListUpdatePolicy.xhtml#a6987f90d6d9e5fec813f5aa53fe47ce3" target="_top" xlink:title="Convenience method that calculates the Euclidean distance between two solutions. ">
<polygon fill="none" stroke="black" points="211.5,-39.5 211.5,-71.5 330.5,-71.5 330.5,-39.5 211.5,-39.5"/>
<text text-anchor="start" x="219.5" y="-58.7" font-family="Helvetica,sans-Serif" font-size="11.00">BestListUpdatePolicy</text>
<text text-anchor="middle" x="271" y="-46.7" font-family="Helvetica,sans-Serif" font-size="11.00">::euclideanDistance</text>
</a>
</g>
</g>
<!-- Node1&#45;&gt;Node4 -->
<g id="edge3" class="edge"><title>Node1&#45;&gt;Node4</title>
<path fill="none" stroke="midnightblue" d="M165.03,-67.8825C177.084,-66.4606 189.403,-65.0074 201.165,-63.62"/>
<polygon fill="midnightblue" stroke="midnightblue" points="201.816,-67.0676 211.337,-62.4201 200.995,-60.1158 201.816,-67.0676"/>
</g>
<!-- Node9 -->
<g id="node9" class="node"><title>Node9</title>
<g id="a_node9"><a xlink:href="classBestList.xhtml#a4a5650fb72c71d6027540daa96de0d39" target="_top" xlink:title="Operator to set an element in the list. ">
<polygon fill="none" stroke="black" points="233.5,-0.5 233.5,-20.5 308.5,-20.5 308.5,-0.5 233.5,-0.5"/>
<text text-anchor="middle" x="271" y="-7.7" font-family="Helvetica,sans-Serif" font-size="11.00">BestList::set</text>
</a>
</g>
</g>
<!-- Node1&#45;&gt;Node9 -->
<g id="edge8" class="edge"><title>Node1&#45;&gt;Node9</title>
<path fill="none" stroke="midnightblue" d="M120.981,-61.4127C143.883,-51.8579 173.888,-39.8266 201,-30.5 208.216,-28.0176 215.925,-25.5793 223.478,-23.3058"/>
<polygon fill="midnightblue" stroke="midnightblue" points="224.661,-26.6062 233.264,-20.4222 222.682,-19.8917 224.661,-26.6062"/>
</g>
<!-- Node5 -->
<g id="node5" class="node"><title>Node5</title>
<g id="a_node5"><a xlink:href="classSolution.xhtml#ad5b8c8ce272efaada80e93b0e097d1cd" target="_top" xlink:title="Get the number of dimensions of this Solution instance. ">
<polygon fill="none" stroke="black" points="381.5,-84.5 381.5,-104.5 522.5,-104.5 522.5,-84.5 381.5,-84.5"/>
<text text-anchor="middle" x="452" y="-91.7" font-family="Helvetica,sans-Serif" font-size="11.00">Solution::getNDimensions</text>
</a>
</g>
</g>
<!-- Node4&#45;&gt;Node5 -->
<g id="edge4" class="edge"><title>Node4&#45;&gt;Node5</title>
<path fill="none" stroke="midnightblue" d="M330.611,-68.2701C351.378,-72.7946 374.673,-77.8701 395.199,-82.3423"/>
<polygon fill="midnightblue" stroke="midnightblue" points="394.514,-85.7751 405.03,-84.4842 396.005,-78.9356 394.514,-85.7751"/>
</g>
<!-- Node6 -->
<g id="node6" class="node"><title>Node6</title>
<g id="a_node6"><a xlink:href="structPosition.xhtml#a4099812c9395b6dbe03ca8d25f7ae7fc" target="_top" xlink:title="Math method that subtracts the value received from each value in the list that represents the Positio...">
<polygon fill="none" stroke="black" points="413,-45.5 413,-65.5 491,-65.5 491,-45.5 413,-45.5"/>
<text text-anchor="middle" x="452" y="-52.7" font-family="Helvetica,sans-Serif" font-size="11.00">Position::sub</text>
</a>
</g>
</g>
<!-- Node4&#45;&gt;Node6 -->
<g id="edge5" class="edge"><title>Node4&#45;&gt;Node6</title>
<path fill="none" stroke="midnightblue" d="M330.611,-55.5C353.937,-55.5 380.453,-55.5 402.651,-55.5"/>
<polygon fill="midnightblue" stroke="midnightblue" points="402.844,-59.0001 412.844,-55.5 402.844,-52.0001 402.844,-59.0001"/>
</g>
<!-- Node7 -->
<g id="node7" class="node"><title>Node7</title>
<g id="a_node7"><a xlink:href="structPosition.xhtml#a8f9b5812209642cb31de38d3745cfc16" target="_top" xlink:title="Get the sum of values from the list that represents the Position. ">
<polygon fill="none" stroke="black" points="377,-6.5 377,-26.5 527,-26.5 527,-6.5 377,-6.5"/>
<text text-anchor="middle" x="452" y="-13.7" font-family="Helvetica,sans-Serif" font-size="11.00">Position::sumInternalValues</text>
</a>
</g>
</g>
<!-- Node4&#45;&gt;Node7 -->
<g id="edge6" class="edge"><title>Node4&#45;&gt;Node7</title>
<path fill="none" stroke="midnightblue" d="M330.611,-42.7299C351.378,-38.2054 374.673,-33.1299 395.199,-28.6577"/>
<polygon fill="midnightblue" stroke="midnightblue" points="396.005,-32.0644 405.03,-26.5158 394.514,-25.2249 396.005,-32.0644"/>
</g>
<!-- Node8 -->
<g id="node8" class="node"><title>Node8</title>
<g id="a_node8"><a xlink:href="structPosition.xhtml#a11256d014f2958d21a1198676208df33" target="_top" xlink:title="Math method that sums (individually) each value in the list that represents the Position with the val...">
<polygon fill="none" stroke="black" points="563,-6.5 563,-26.5 644,-26.5 644,-6.5 563,-6.5"/>
<text text-anchor="middle" x="603.5" y="-13.7" font-family="Helvetica,sans-Serif" font-size="11.00">Position::sum</text>
</a>
</g>
</g>
<!-- Node7&#45;&gt;Node8 -->
<g id="edge7" class="edge"><title>Node7&#45;&gt;Node8</title>
<path fill="none" stroke="midnightblue" d="M527.312,-16.5C535.968,-16.5 544.633,-16.5 552.84,-16.5"/>
<polygon fill="midnightblue" stroke="midnightblue" points="552.958,-20.0001 562.958,-16.5 552.958,-13.0001 552.958,-20.0001"/>
</g>
</g>
</svg>
