<?xml version="1.0" encoding="UTF-8" standalone="no"?>
<!DOCTYPE svg PUBLIC "-//W3C//DTD SVG 1.1//EN"
 "http://www.w3.org/Graphics/SVG/1.1/DTD/svg11.dtd">
<!-- Generated by graphviz version 2.38.0 (20140413.2041)
 -->
<!-- Title: src/TH/config.h Pages: 1 -->
<svg width="1977pt" height="521pt"
 viewBox="0.00 0.00 1976.50 521.00" xmlns="http://www.w3.org/2000/svg" xmlns:xlink="http://www.w3.org/1999/xlink">
<g id="graph0" class="graph" transform="scale(1 1) rotate(0) translate(4 517)">
<title>src/TH/config.h</title>
<!-- Node1 -->
<g id="node1" class="node"><title>Node1</title>
<polygon fill="#bfbfbf" stroke="black" points="1879.5,-492.5 1879.5,-512.5 1968.5,-512.5 1968.5,-492.5 1879.5,-492.5"/>
<text text-anchor="middle" x="1924" y="-499.7" font-family="Helvetica,sans-Serif" font-size="11.00">src/TH/config.h</text>
</g>
<!-- Node2 -->
<g id="node2" class="node"><title>Node2</title>
<g id="a_node2"><a xlink:href="THUtil_8h.xhtml" target="_top" xlink:title="src/TH/THUtil.h">
<polygon fill="none" stroke="black" points="1841,-435.5 1841,-455.5 1933,-455.5 1933,-435.5 1841,-435.5"/>
<text text-anchor="middle" x="1887" y="-442.7" font-family="Helvetica,sans-Serif" font-size="11.00">src/TH/THUtil.h</text>
</a>
</g>
</g>
<!-- Node1&#45;&gt;Node2 -->
<g id="edge1" class="edge"><title>Node1&#45;&gt;Node2</title>
<path fill="none" stroke="midnightblue" d="M1912.13,-483.855C1905.85,-474.519 1898.39,-463.436 1893.24,-455.779"/>
<polygon fill="midnightblue" stroke="midnightblue" points="1909.4,-486.074 1917.89,-492.418 1915.21,-482.167 1909.4,-486.074"/>
</g>
<!-- Node7 -->
<g id="node7" class="node"><title>Node7</title>
<g id="a_node7"><a xlink:href="THBuilder_8h.xhtml" target="_top" xlink:title="src/TH/THBuilder.h">
<polygon fill="none" stroke="black" points="1141,-0.5 1141,-20.5 1251,-20.5 1251,-0.5 1141,-0.5"/>
<text text-anchor="middle" x="1196" y="-7.7" font-family="Helvetica,sans-Serif" font-size="11.00">src/TH/THBuilder.h</text>
</a>
</g>
</g>
<!-- Node1&#45;&gt;Node7 -->
<g id="edge51" class="edge"><title>Node1&#45;&gt;Node7</title>
<path fill="none" stroke="midnightblue" d="M1934.04,-483.223C1945,-461.538 1961,-423.973 1961,-389.5 1961,-389.5 1961,-389.5 1961,-141.5 1961,-89.7833 1927.8,-79.0065 1881,-57 1824.64,-30.5009 1403.74,-16.9433 1251.09,-12.8582"/>
<polygon fill="midnightblue" stroke="midnightblue" points="1930.85,-481.774 1929.3,-492.255 1937.05,-485.028 1930.85,-481.774"/>
</g>
<!-- Node3 -->
<g id="node3" class="node"><title>Node3</title>
<g id="a_node3"><a xlink:href="Solution_8h.xhtml" target="_top" xlink:title="src/TH/Solution.h">
<polygon fill="none" stroke="black" points="1503,-378.5 1503,-398.5 1603,-398.5 1603,-378.5 1503,-378.5"/>
<text text-anchor="middle" x="1553" y="-385.7" font-family="Helvetica,sans-Serif" font-size="11.00">src/TH/Solution.h</text>
</a>
</g>
</g>
<!-- Node2&#45;&gt;Node3 -->
<g id="edge2" class="edge"><title>Node2&#45;&gt;Node3</title>
<path fill="none" stroke="midnightblue" d="M1830.65,-435.221C1766.98,-424.736 1664.29,-407.826 1603.25,-397.774"/>
<polygon fill="midnightblue" stroke="midnightblue" points="1830.47,-438.739 1840.91,-436.91 1831.61,-431.832 1830.47,-438.739"/>
</g>
<!-- Node2&#45;&gt;Node7 -->
<g id="edge50" class="edge"><title>Node2&#45;&gt;Node7</title>
<path fill="none" stroke="midnightblue" d="M1896.77,-426.191C1907.43,-404.476 1923,-366.882 1923,-332.5 1923,-332.5 1923,-332.5 1923,-141.5 1923,-86.6327 1883.26,-79.0013 1833,-57 1729.4,-11.6521 1386.41,-9.68447 1251.35,-10.7562"/>
<polygon fill="midnightblue" stroke="midnightblue" points="1893.58,-424.739 1892.16,-435.237 1899.82,-427.92 1893.58,-424.739"/>
</g>
<!-- Node4 -->
<g id="node4" class="node"><title>Node4</title>
<g id="a_node4"><a xlink:href="BestList_8h.xhtml" target="_top" xlink:title="src/TH/BestList.h">
<polygon fill="none" stroke="black" points="186.5,-201.5 186.5,-221.5 285.5,-221.5 285.5,-201.5 186.5,-201.5"/>
<text text-anchor="middle" x="236" y="-208.7" font-family="Helvetica,sans-Serif" font-size="11.00">src/TH/BestList.h</text>
</a>
</g>
</g>
<!-- Node3&#45;&gt;Node4 -->
<g id="edge3" class="edge"><title>Node3&#45;&gt;Node4</title>
<path fill="none" stroke="midnightblue" d="M1492.77,-379.496C1269.38,-349.813 490.626,-246.334 285.718,-219.106"/>
<polygon fill="midnightblue" stroke="midnightblue" points="1492.61,-383.006 1502.98,-380.853 1493.53,-376.067 1492.61,-383.006"/>
</g>
<!-- Node3&#45;&gt;Node7 -->
<g id="edge48" class="edge"><title>Node3&#45;&gt;Node7</title>
<path fill="none" stroke="midnightblue" d="M1613.19,-379.75C1708.88,-365.726 1885,-332.211 1885,-275.5 1885,-275.5 1885,-275.5 1885,-141.5 1885,-80.554 1833.8,-79.098 1777,-57 1682.12,-20.0857 1377.36,-13.0913 1251.34,-11.7879"/>
<polygon fill="midnightblue" stroke="midnightblue" points="1612.46,-376.319 1603.06,-381.206 1613.46,-383.247 1612.46,-376.319"/>
</g>
<!-- Node11 -->
<g id="node11" class="node"><title>Node11</title>
<g id="a_node11"><a xlink:href="TH_8h.xhtml" target="_top" xlink:title="src/TH/TH.h">
<polygon fill="none" stroke="black" points="0,-132.5 0,-152.5 76,-152.5 76,-132.5 0,-132.5"/>
<text text-anchor="middle" x="38" y="-139.7" font-family="Helvetica,sans-Serif" font-size="11.00">src/TH/TH.h</text>
</a>
</g>
</g>
<!-- Node3&#45;&gt;Node11 -->
<g id="edge47" class="edge"><title>Node3&#45;&gt;Node11</title>
<path fill="none" stroke="midnightblue" d="M1492.72,-382.665C1399.59,-375.034 1215.15,-359.277 1059,-342 666.136,-298.533 549.978,-358.837 177,-228 125.034,-209.771 71.5851,-170.285 49.0638,-152.502"/>
<polygon fill="midnightblue" stroke="midnightblue" points="1492.55,-386.163 1502.8,-383.489 1493.12,-379.186 1492.55,-386.163"/>
</g>
<!-- Node12 -->
<g id="node12" class="node"><title>Node12</title>
<g id="a_node12"><a xlink:href="FitnessPolicy_8h.xhtml" target="_top" xlink:title="src/TH/FitnessPolicy.h">
<polygon fill="none" stroke="black" points="1363,-321.5 1363,-341.5 1487,-341.5 1487,-321.5 1363,-321.5"/>
<text text-anchor="middle" x="1425" y="-328.7" font-family="Helvetica,sans-Serif" font-size="11.00">src/TH/FitnessPolicy.h</text>
</a>
</g>
</g>
<!-- Node3&#45;&gt;Node12 -->
<g id="edge16" class="edge"><title>Node3&#45;&gt;Node12</title>
<path fill="none" stroke="midnightblue" d="M1522.66,-374.463C1499.1,-364.338 1467.02,-350.557 1446.17,-341.596"/>
<polygon fill="midnightblue" stroke="midnightblue" points="1521.29,-377.686 1531.86,-378.418 1524.06,-371.254 1521.29,-377.686"/>
</g>
<!-- Node22 -->
<g id="node22" class="node"><title>Node22</title>
<g id="a_node22"><a xlink:href="RosenbrockFitnessPolicy_8h.xhtml" target="_top" xlink:title="src/RosenbrockFitnessPolicy.h">
<polygon fill="none" stroke="black" points="1633,-264.5 1633,-284.5 1797,-284.5 1797,-264.5 1633,-264.5"/>
<text text-anchor="middle" x="1715" y="-271.7" font-family="Helvetica,sans-Serif" font-size="11.00">src/RosenbrockFitnessPolicy.h</text>
</a>
</g>
</g>
<!-- Node3&#45;&gt;Node22 -->
<g id="edge49" class="edge"><title>Node3&#45;&gt;Node22</title>
<path fill="none" stroke="midnightblue" d="M1574.57,-372.586C1608.54,-349.101 1673.51,-304.183 1701.56,-284.792"/>
<polygon fill="midnightblue" stroke="midnightblue" points="1572.49,-369.769 1566.26,-378.335 1576.47,-375.527 1572.49,-369.769"/>
</g>
<!-- Node24 -->
<g id="node24" class="node"><title>Node24</title>
<g id="a_node24"><a xlink:href="IterationData_8h.xhtml" target="_top" xlink:title="src/TH/IterationData.h">
<polygon fill="none" stroke="black" points="1491.5,-264.5 1491.5,-284.5 1614.5,-284.5 1614.5,-264.5 1491.5,-264.5"/>
<text text-anchor="middle" x="1553" y="-271.7" font-family="Helvetica,sans-Serif" font-size="11.00">src/TH/IterationData.h</text>
</a>
</g>
</g>
<!-- Node3&#45;&gt;Node24 -->
<g id="edge37" class="edge"><title>Node3&#45;&gt;Node24</title>
<path fill="none" stroke="midnightblue" d="M1553,-368.17C1553,-343.839 1553,-303.028 1553,-284.792"/>
<polygon fill="midnightblue" stroke="midnightblue" points="1549.5,-368.335 1553,-378.335 1556.5,-368.335 1549.5,-368.335"/>
</g>
<!-- Node5 -->
<g id="node5" class="node"><title>Node5</title>
<g id="a_node5"><a xlink:href="BestListSelectionPolicy_8h.xhtml" target="_top" xlink:title="src/TH/BestListSelection\lPolicy.h">
<polygon fill="none" stroke="black" points="169,-126.5 169,-158.5 303,-158.5 303,-126.5 169,-126.5"/>
<text text-anchor="start" x="177" y="-145.7" font-family="Helvetica,sans-Serif" font-size="11.00">src/TH/BestListSelection</text>
<text text-anchor="middle" x="236" y="-133.7" font-family="Helvetica,sans-Serif" font-size="11.00">Policy.h</text>
</a>
</g>
</g>
<!-- Node4&#45;&gt;Node5 -->
<g id="edge4" class="edge"><title>Node4&#45;&gt;Node5</title>
<path fill="none" stroke="midnightblue" d="M236,-191.308C236,-180.898 236,-168.218 236,-158.533"/>
<polygon fill="midnightblue" stroke="midnightblue" points="232.5,-191.464 236,-201.464 239.5,-191.464 232.5,-191.464"/>
</g>
<!-- Node4&#45;&gt;Node7 -->
<g id="edge15" class="edge"><title>Node4&#45;&gt;Node7</title>
<path fill="none" stroke="midnightblue" d="M205.67,-196.83C189.774,-188.168 171.31,-175.477 160,-159 134.031,-121.167 112.261,-90.1411 144,-57 178.732,-20.7332 929,-13.2026 1140.78,-11.797"/>
<polygon fill="midnightblue" stroke="midnightblue" points="204.167,-199.992 214.659,-201.461 207.373,-193.77 204.167,-199.992"/>
</g>
<!-- Node8 -->
<g id="node8" class="node"><title>Node8</title>
<g id="a_node8"><a xlink:href="BestListUpdatePolicy_8h.xhtml" target="_top" xlink:title="src/TH/BestListUpdatePolicy.h">
<polygon fill="none" stroke="black" points="449.5,-132.5 449.5,-152.5 612.5,-152.5 612.5,-132.5 449.5,-132.5"/>
<text text-anchor="middle" x="531" y="-139.7" font-family="Helvetica,sans-Serif" font-size="11.00">src/TH/BestListUpdatePolicy.h</text>
</a>
</g>
</g>
<!-- Node4&#45;&gt;Node8 -->
<g id="edge8" class="edge"><title>Node4&#45;&gt;Node8</title>
<path fill="none" stroke="midnightblue" d="M285.778,-199.194C343.534,-186.077 437.63,-164.706 490.903,-152.607"/>
<polygon fill="midnightblue" stroke="midnightblue" points="284.761,-195.836 275.785,-201.464 286.312,-202.662 284.761,-195.836"/>
</g>
<!-- Node4&#45;&gt;Node11 -->
<g id="edge13" class="edge"><title>Node4&#45;&gt;Node11</title>
<path fill="none" stroke="midnightblue" d="M199.407,-198.118C160.445,-184.933 99.7065,-164.38 64.9124,-152.607"/>
<polygon fill="midnightblue" stroke="midnightblue" points="198.703,-201.574 209.297,-201.464 200.946,-194.943 198.703,-201.574"/>
</g>
<!-- Node6 -->
<g id="node6" class="node"><title>Node6</title>
<g id="a_node6"><a xlink:href="RandomBestListSelectionPolicy_8h.xhtml" target="_top" xlink:title="src/TH/RandomBestListSelection\lPolicy.h">
<polygon fill="none" stroke="black" points="163,-57.5 163,-89.5 339,-89.5 339,-57.5 163,-57.5"/>
<text text-anchor="start" x="171" y="-76.7" font-family="Helvetica,sans-Serif" font-size="11.00">src/TH/RandomBestListSelection</text>
<text text-anchor="middle" x="251" y="-64.7" font-family="Helvetica,sans-Serif" font-size="11.00">Policy.h</text>
</a>
</g>
</g>
<!-- Node5&#45;&gt;Node6 -->
<g id="edge5" class="edge"><title>Node5&#45;&gt;Node6</title>
<path fill="none" stroke="midnightblue" d="M241.638,-116.318C243.647,-107.341 245.848,-97.5143 247.61,-89.6432"/>
<polygon fill="midnightblue" stroke="midnightblue" points="238.173,-115.774 239.404,-126.297 245.004,-117.303 238.173,-115.774"/>
</g>
<!-- Node5&#45;&gt;Node7 -->
<g id="edge7" class="edge"><title>Node5&#45;&gt;Node7</title>
<path fill="none" stroke="midnightblue" d="M186.593,-121.371C173.679,-113.58 161.335,-103.269 154,-90 146.904,-77.1641 143.858,-67.5947 154,-57 188.376,-21.0906 930.691,-13.3068 1140.95,-11.8198"/>
<polygon fill="midnightblue" stroke="midnightblue" points="185.129,-124.562 195.569,-126.368 188.534,-118.446 185.129,-124.562"/>
</g>
<!-- Node6&#45;&gt;Node7 -->
<g id="edge6" class="edge"><title>Node6&#45;&gt;Node7</title>
<path fill="none" stroke="midnightblue" d="M349.589,-56.9047C654.02,-25.0623 1006.86,-15.2185 1140.78,-12.46"/>
<polygon fill="midnightblue" stroke="midnightblue" points="348.812,-53.4672 339.235,-57.9982 349.548,-60.4285 348.812,-53.4672"/>
</g>
<!-- Node8&#45;&gt;Node7 -->
<g id="edge12" class="edge"><title>Node8&#45;&gt;Node7</title>
<path fill="none" stroke="midnightblue" d="M529.333,-122.173C528.819,-102.561 531.507,-72.8943 550,-57 594.311,-18.9155 992.609,-12.6801 1140.79,-11.6816"/>
<polygon fill="midnightblue" stroke="midnightblue" points="525.851,-122.591 529.911,-132.377 532.84,-122.196 525.851,-122.591"/>
</g>
<!-- Node9 -->
<g id="node9" class="node"><title>Node9</title>
<g id="a_node9"><a xlink:href="ConvergentBestListUpdatePolicy_8h.xhtml" target="_top" xlink:title="src/TH/ConvergentBestList\lUpdatePolicy.h">
<polygon fill="none" stroke="black" points="357,-57.5 357,-89.5 503,-89.5 503,-57.5 357,-57.5"/>
<text text-anchor="start" x="365" y="-76.7" font-family="Helvetica,sans-Serif" font-size="11.00">src/TH/ConvergentBestList</text>
<text text-anchor="middle" x="430" y="-64.7" font-family="Helvetica,sans-Serif" font-size="11.00">UpdatePolicy.h</text>
</a>
</g>
</g>
<!-- Node8&#45;&gt;Node9 -->
<g id="edge9" class="edge"><title>Node8&#45;&gt;Node9</title>
<path fill="none" stroke="midnightblue" d="M508.827,-126.791C492.17,-115.742 469.436,-100.661 452.662,-89.5335"/>
<polygon fill="midnightblue" stroke="midnightblue" points="507.111,-129.853 517.379,-132.464 510.98,-124.019 507.111,-129.853"/>
</g>
<!-- Node10 -->
<g id="node10" class="node"><title>Node10</title>
<g id="a_node10"><a xlink:href="DivergentBestListUpdatePolicy_8h.xhtml" target="_top" xlink:title="src/TH/DivergentBestList\lUpdatePolicy.h">
<polygon fill="none" stroke="black" points="559.5,-57.5 559.5,-89.5 696.5,-89.5 696.5,-57.5 559.5,-57.5"/>
<text text-anchor="start" x="567.5" y="-76.7" font-family="Helvetica,sans-Serif" font-size="11.00">src/TH/DivergentBestList</text>
<text text-anchor="middle" x="628" y="-64.7" font-family="Helvetica,sans-Serif" font-size="11.00">UpdatePolicy.h</text>
</a>
</g>
</g>
<!-- Node8&#45;&gt;Node10 -->
<g id="edge11" class="edge"><title>Node8&#45;&gt;Node10</title>
<path fill="none" stroke="midnightblue" d="M552.741,-126.483C568.696,-115.463 590.275,-100.558 606.235,-89.5335"/>
<polygon fill="midnightblue" stroke="midnightblue" points="550.321,-123.901 544.082,-132.464 554.299,-129.661 550.321,-123.901"/>
</g>
<!-- Node9&#45;&gt;Node7 -->
<g id="edge10" class="edge"><title>Node9&#45;&gt;Node7</title>
<path fill="none" stroke="midnightblue" d="M513.118,-57.49C514.42,-57.3206 515.715,-57.157 517,-57 747.736,-28.8009 1024.87,-17.0711 1140.8,-13.1521"/>
<polygon fill="midnightblue" stroke="midnightblue" points="512.437,-54.0509 503.014,-58.8941 513.401,-60.9842 512.437,-54.0509"/>
</g>
<!-- Node11&#45;&gt;Node7 -->
<g id="edge14" class="edge"><title>Node11&#45;&gt;Node7</title>
<path fill="none" stroke="midnightblue" d="M42.2621,-122.42C47.8674,-102.303 59.8475,-71.5527 83,-57 128.154,-28.6178 922.135,-15.362 1140.7,-12.2405"/>
<polygon fill="midnightblue" stroke="midnightblue" points="38.8142,-121.78 39.7734,-132.331 45.6035,-123.485 38.8142,-121.78"/>
</g>
<!-- Node12&#45;&gt;Node7 -->
<g id="edge34" class="edge"><title>Node12&#45;&gt;Node7</title>
<path fill="none" stroke="midnightblue" d="M1425,-311.033C1425,-287.64 1425,-247.2 1425,-212.5 1425,-212.5 1425,-212.5 1425,-141.5 1425,-98.087 1410.65,-83.15 1376,-57 1339.98,-29.8181 1289.52,-18.7587 1251.19,-14.317"/>
<polygon fill="midnightblue" stroke="midnightblue" points="1421.5,-311.32 1425,-321.32 1428.5,-311.32 1421.5,-311.32"/>
</g>
<!-- Node12&#45;&gt;Node8 -->
<g id="edge17" class="edge"><title>Node12&#45;&gt;Node8</title>
<path fill="none" stroke="midnightblue" d="M1362.35,-319.717C1261.06,-302.05 1055.21,-265.173 882,-228 765.715,-203.044 628.976,-168.659 565.991,-152.534"/>
<polygon fill="midnightblue" stroke="midnightblue" points="1361.96,-323.201 1372.41,-321.468 1363.16,-316.305 1361.96,-323.201"/>
</g>
<!-- Node13 -->
<g id="node13" class="node"><title>Node13</title>
<g id="a_node13"><a xlink:href="Search_8h.xhtml" target="_top" xlink:title="src/TH/Search.h">
<polygon fill="none" stroke="black" points="1228.5,-264.5 1228.5,-284.5 1323.5,-284.5 1323.5,-264.5 1228.5,-264.5"/>
<text text-anchor="middle" x="1276" y="-271.7" font-family="Helvetica,sans-Serif" font-size="11.00">src/TH/Search.h</text>
</a>
</g>
</g>
<!-- Node12&#45;&gt;Node13 -->
<g id="edge18" class="edge"><title>Node12&#45;&gt;Node13</title>
<path fill="none" stroke="midnightblue" d="M1390.77,-317.866C1363.25,-307.707 1325.24,-293.677 1300.64,-284.596"/>
<polygon fill="midnightblue" stroke="midnightblue" points="1389.8,-321.238 1400.4,-321.418 1392.23,-314.671 1389.8,-321.238"/>
</g>
<!-- Node12&#45;&gt;Node22 -->
<g id="edge35" class="edge"><title>Node12&#45;&gt;Node22</title>
<path fill="none" stroke="midnightblue" d="M1482.69,-319.558C1536.83,-309.291 1616.83,-294.118 1667.41,-284.525"/>
<polygon fill="midnightblue" stroke="midnightblue" points="1481.74,-316.177 1472.56,-321.479 1483.04,-323.055 1481.74,-316.177"/>
</g>
<!-- Node13&#45;&gt;Node7 -->
<g id="edge30" class="edge"><title>Node13&#45;&gt;Node7</title>
<path fill="none" stroke="midnightblue" d="M1325.02,-260.841C1341.59,-253.966 1358.33,-243.564 1368,-228 1391.93,-189.461 1422.7,-142.87 1349,-57 1324.91,-28.9265 1284.33,-17.7592 1251.02,-13.5"/>
<polygon fill="midnightblue" stroke="midnightblue" points="1323.45,-257.69 1315.33,-264.494 1325.92,-264.24 1323.45,-257.69"/>
</g>
<!-- Node14 -->
<g id="node14" class="node"><title>Node14</title>
<g id="a_node14"><a xlink:href="ConvergenceControlPolicy_8h.xhtml" target="_top" xlink:title="src/TH/ConvergenceControl\lPolicy.h">
<polygon fill="none" stroke="black" points="701,-126.5 701,-158.5 853,-158.5 853,-126.5 701,-126.5"/>
<text text-anchor="start" x="709" y="-145.7" font-family="Helvetica,sans-Serif" font-size="11.00">src/TH/ConvergenceControl</text>
<text text-anchor="middle" x="777" y="-133.7" font-family="Helvetica,sans-Serif" font-size="11.00">Policy.h</text>
</a>
</g>
</g>
<!-- Node13&#45;&gt;Node14 -->
<g id="edge19" class="edge"><title>Node13&#45;&gt;Node14</title>
<path fill="none" stroke="midnightblue" d="M1218.18,-269.278C1156.5,-263.747 1056.41,-251.809 973,-228 911,-210.303 842.734,-177.626 805.362,-158.508"/>
<polygon fill="midnightblue" stroke="midnightblue" points="1218.22,-272.795 1228.48,-270.174 1218.82,-265.821 1218.22,-272.795"/>
</g>
<!-- Node16 -->
<g id="node16" class="node"><title>Node16</title>
<g id="a_node16"><a xlink:href="SearchScore_8h.xhtml" target="_top" xlink:title="src/TH/SearchScore.h">
<polygon fill="none" stroke="black" points="982,-201.5 982,-221.5 1106,-221.5 1106,-201.5 982,-201.5"/>
<text text-anchor="middle" x="1044" y="-208.7" font-family="Helvetica,sans-Serif" font-size="11.00">src/TH/SearchScore.h</text>
</a>
</g>
</g>
<!-- Node13&#45;&gt;Node16 -->
<g id="edge23" class="edge"><title>Node13&#45;&gt;Node16</title>
<path fill="none" stroke="midnightblue" d="M1232.07,-261.949C1187.43,-250.212 1119.21,-232.276 1078.37,-221.538"/>
<polygon fill="midnightblue" stroke="midnightblue" points="1231.21,-265.341 1241.77,-264.499 1232.99,-258.571 1231.21,-265.341"/>
</g>
<!-- Node20 -->
<g id="node20" class="node"><title>Node20</title>
<g id="a_node20"><a xlink:href="PSO_8h.xhtml" target="_top" xlink:title="src/PSO.h">
<polygon fill="none" stroke="black" points="1293,-201.5 1293,-221.5 1359,-221.5 1359,-201.5 1293,-201.5"/>
<text text-anchor="middle" x="1326" y="-208.7" font-family="Helvetica,sans-Serif" font-size="11.00">src/PSO.h</text>
</a>
</g>
</g>
<!-- Node13&#45;&gt;Node20 -->
<g id="edge31" class="edge"><title>Node13&#45;&gt;Node20</title>
<path fill="none" stroke="midnightblue" d="M1289.87,-256.578C1299.17,-245.234 1311.05,-230.742 1318.59,-221.538"/>
<polygon fill="midnightblue" stroke="midnightblue" points="1287.01,-254.547 1283.38,-264.499 1292.42,-258.984 1287.01,-254.547"/>
</g>
<!-- Node21 -->
<g id="node21" class="node"><title>Node21</title>
<g id="a_node21"><a xlink:href="HillClimbing_8h.xhtml" target="_top" xlink:title="src/HillClimbing.h">
<polygon fill="none" stroke="black" points="1175,-201.5 1175,-221.5 1275,-221.5 1275,-201.5 1175,-201.5"/>
<text text-anchor="middle" x="1225" y="-208.7" font-family="Helvetica,sans-Serif" font-size="11.00">src/HillClimbing.h</text>
</a>
</g>
</g>
<!-- Node13&#45;&gt;Node21 -->
<g id="edge32" class="edge"><title>Node13&#45;&gt;Node21</title>
<path fill="none" stroke="midnightblue" d="M1261.85,-256.578C1252.37,-245.234 1240.25,-230.742 1232.56,-221.538"/>
<polygon fill="midnightblue" stroke="midnightblue" points="1259.38,-259.072 1268.47,-264.499 1264.75,-254.582 1259.38,-259.072"/>
</g>
<!-- Node14&#45;&gt;Node7 -->
<g id="edge22" class="edge"><title>Node14&#45;&gt;Node7</title>
<path fill="none" stroke="midnightblue" d="M798.191,-118.678C819.491,-96.2983 851.344,-64.4791 867,-57 914.282,-34.4129 1060.26,-20.9637 1140.96,-15.0622"/>
<polygon fill="midnightblue" stroke="midnightblue" points="795.462,-116.47 791.141,-126.144 800.552,-121.276 795.462,-116.47"/>
</g>
<!-- Node15 -->
<g id="node15" class="node"><title>Node15</title>
<g id="a_node15"><a xlink:href="CSMOn_8h.xhtml" target="_top" xlink:title="src/TH/CSMOn.h">
<polygon fill="none" stroke="black" points="715,-63.5 715,-83.5 815,-83.5 815,-63.5 715,-63.5"/>
<text text-anchor="middle" x="765" y="-70.7" font-family="Helvetica,sans-Serif" font-size="11.00">src/TH/CSMOn.h</text>
</a>
</g>
</g>
<!-- Node14&#45;&gt;Node15 -->
<g id="edge20" class="edge"><title>Node14&#45;&gt;Node15</title>
<path fill="none" stroke="midnightblue" d="M772.494,-116.343C770.444,-104.897 768.146,-92.0643 766.641,-83.6646"/>
<polygon fill="midnightblue" stroke="midnightblue" points="769.069,-117.07 774.277,-126.297 775.959,-115.836 769.069,-117.07"/>
</g>
<!-- Node15&#45;&gt;Node7 -->
<g id="edge21" class="edge"><title>Node15&#45;&gt;Node7</title>
<path fill="none" stroke="midnightblue" d="M809.241,-61.0909C815.839,-59.5916 822.579,-58.1716 829,-57 938.899,-36.9472 1068.95,-23.1338 1140.99,-16.342"/>
<polygon fill="midnightblue" stroke="midnightblue" points="807.989,-57.7899 799.057,-63.4879 809.593,-64.6037 807.989,-57.7899"/>
</g>
<!-- Node16&#45;&gt;Node7 -->
<g id="edge29" class="edge"><title>Node16&#45;&gt;Node7</title>
<path fill="none" stroke="midnightblue" d="M1003.65,-197.692C983.953,-189.526 961.45,-177.027 947,-159 918.159,-123.02 898.247,-92.2303 928,-57 954.682,-25.4062 1070.43,-15.7458 1140.79,-12.7949"/>
<polygon fill="midnightblue" stroke="midnightblue" points="1002.45,-200.984 1013.04,-201.358 1005,-194.463 1002.45,-200.984"/>
</g>
<!-- Node17 -->
<g id="node17" class="node"><title>Node17</title>
<g id="a_node17"><a xlink:href="SearchAlgorithmSelectionPolicy_8h.xhtml" target="_top" xlink:title="src/TH/SearchAlgorithmSelection\lPolicy.h">
<polygon fill="none" stroke="black" points="956,-126.5 956,-158.5 1132,-158.5 1132,-126.5 956,-126.5"/>
<text text-anchor="start" x="964" y="-145.7" font-family="Helvetica,sans-Serif" font-size="11.00">src/TH/SearchAlgorithmSelection</text>
<text text-anchor="middle" x="1044" y="-133.7" font-family="Helvetica,sans-Serif" font-size="11.00">Policy.h</text>
</a>
</g>
</g>
<!-- Node16&#45;&gt;Node17 -->
<g id="edge24" class="edge"><title>Node16&#45;&gt;Node17</title>
<path fill="none" stroke="midnightblue" d="M1044,-191.308C1044,-180.898 1044,-168.218 1044,-158.533"/>
<polygon fill="midnightblue" stroke="midnightblue" points="1040.5,-191.464 1044,-201.464 1047.5,-191.464 1040.5,-191.464"/>
</g>
<!-- Node17&#45;&gt;Node7 -->
<g id="edge28" class="edge"><title>Node17&#45;&gt;Node7</title>
<path fill="none" stroke="midnightblue" d="M975.76,-122.057C960.828,-114.506 946.855,-104.146 938,-90 930.218,-77.5679 928.573,-68.2355 938,-57 963.362,-26.7743 1072.85,-16.6193 1140.79,-13.2133"/>
<polygon fill="midnightblue" stroke="midnightblue" points="974.599,-125.376 985.144,-126.404 977.541,-119.025 974.599,-125.376"/>
</g>
<!-- Node18 -->
<g id="node18" class="node"><title>Node18</title>
<g id="a_node18"><a xlink:href="RoundRobinSearchAlgorithmSelectionPolicy_8h.xhtml" target="_top" xlink:title="src/TH/RoundRobinSearchAlgorithm\lSelectionPolicy.h">
<polygon fill="none" stroke="black" points="947.5,-57.5 947.5,-89.5 1140.5,-89.5 1140.5,-57.5 947.5,-57.5"/>
<text text-anchor="start" x="955.5" y="-76.7" font-family="Helvetica,sans-Serif" font-size="11.00">src/TH/RoundRobinSearchAlgorithm</text>
<text text-anchor="middle" x="1044" y="-64.7" font-family="Helvetica,sans-Serif" font-size="11.00">SelectionPolicy.h</text>
</a>
</g>
</g>
<!-- Node17&#45;&gt;Node18 -->
<g id="edge25" class="edge"><title>Node17&#45;&gt;Node18</title>
<path fill="none" stroke="midnightblue" d="M1044,-116.025C1044,-107.128 1044,-97.4287 1044,-89.6432"/>
<polygon fill="midnightblue" stroke="midnightblue" points="1040.5,-116.297 1044,-126.297 1047.5,-116.297 1040.5,-116.297"/>
</g>
<!-- Node19 -->
<g id="node19" class="node"><title>Node19</title>
<g id="a_node19"><a xlink:href="SingleSearchAlgorithmSelectionPolicy_8h.xhtml" target="_top" xlink:title="src/TH/SingleSearchAlgorithm\lSelectionPolicy.h">
<polygon fill="none" stroke="black" points="1159,-57.5 1159,-89.5 1321,-89.5 1321,-57.5 1159,-57.5"/>
<text text-anchor="start" x="1167" y="-76.7" font-family="Helvetica,sans-Serif" font-size="11.00">src/TH/SingleSearchAlgorithm</text>
<text text-anchor="middle" x="1240" y="-64.7" font-family="Helvetica,sans-Serif" font-size="11.00">SelectionPolicy.h</text>
</a>
</g>
</g>
<!-- Node17&#45;&gt;Node19 -->
<g id="edge27" class="edge"><title>Node17&#45;&gt;Node19</title>
<path fill="none" stroke="midnightblue" d="M1097.71,-123.139C1128.53,-112.603 1166.76,-99.5375 1195.82,-89.6017"/>
<polygon fill="midnightblue" stroke="midnightblue" points="1096.32,-119.917 1087.99,-126.464 1098.58,-126.541 1096.32,-119.917"/>
</g>
<!-- Node18&#45;&gt;Node7 -->
<g id="edge26" class="edge"><title>Node18&#45;&gt;Node7</title>
<path fill="none" stroke="midnightblue" d="M1091,-53.6373C1118.44,-42.6258 1151.81,-29.2334 1173.46,-20.5459"/>
<polygon fill="midnightblue" stroke="midnightblue" points="1089.55,-50.4487 1081.57,-57.4213 1092.16,-56.945 1089.55,-50.4487"/>
</g>
<!-- Node21&#45;&gt;Node7 -->
<g id="edge33" class="edge"><title>Node21&#45;&gt;Node7</title>
<path fill="none" stroke="midnightblue" d="M1248.49,-195.756C1289.38,-168.231 1366.02,-107.265 1330,-57 1312.11,-32.0363 1279.75,-20.6031 1251.3,-15.4389"/>
<polygon fill="midnightblue" stroke="midnightblue" points="1246.32,-192.991 1239.89,-201.408 1250.16,-198.841 1246.32,-192.991"/>
</g>
<!-- Node23 -->
<g id="node23" class="node"><title>Node23</title>
<g id="a_node23"><a xlink:href="RosenbrockFitnessPolicy_8cpp.xhtml" target="_top" xlink:title="src/RosenbrockFitnessPolicy.cpp">
<polygon fill="none" stroke="black" points="1681.5,-201.5 1681.5,-221.5 1856.5,-221.5 1856.5,-201.5 1681.5,-201.5"/>
<text text-anchor="middle" x="1769" y="-208.7" font-family="Helvetica,sans-Serif" font-size="11.00">src/RosenbrockFitnessPolicy.cpp</text>
</a>
</g>
</g>
<!-- Node22&#45;&gt;Node23 -->
<g id="edge36" class="edge"><title>Node22&#45;&gt;Node23</title>
<path fill="none" stroke="midnightblue" d="M1729.69,-256.911C1739.77,-245.519 1752.77,-230.833 1761,-221.538"/>
<polygon fill="midnightblue" stroke="midnightblue" points="1726.98,-254.692 1722.97,-264.499 1732.22,-259.332 1726.98,-254.692"/>
</g>
<!-- Node24&#45;&gt;Node7 -->
<g id="edge46" class="edge"><title>Node24&#45;&gt;Node7</title>
<path fill="none" stroke="midnightblue" d="M1580.29,-259.604C1596.12,-251.15 1616.19,-239.744 1633,-228 1651.61,-214.998 1651.7,-205.172 1672,-195 1735.62,-163.122 1783.7,-214.685 1828,-159 1837.13,-147.522 1834.91,-138.939 1828,-126 1802.05,-77.3904 1776.98,-75.2724 1725,-57 1638.69,-26.6608 1368.18,-16.0151 1251.01,-12.7634"/>
<polygon fill="midnightblue" stroke="midnightblue" points="1578.27,-256.712 1571.05,-264.464 1581.53,-262.907 1578.27,-256.712"/>
</g>
<!-- Node25 -->
<g id="node25" class="node"><title>Node25</title>
<g id="a_node25"><a xlink:href="RelocationStrategyData_8h.xhtml" target="_top" xlink:title="src/TH/RelocationStrategy\lData.h">
<polygon fill="none" stroke="black" points="1481.5,-195.5 1481.5,-227.5 1624.5,-227.5 1624.5,-195.5 1481.5,-195.5"/>
<text text-anchor="start" x="1489.5" y="-214.7" font-family="Helvetica,sans-Serif" font-size="11.00">src/TH/RelocationStrategy</text>
<text text-anchor="middle" x="1553" y="-202.7" font-family="Helvetica,sans-Serif" font-size="11.00">Data.h</text>
</a>
</g>
</g>
<!-- Node24&#45;&gt;Node25 -->
<g id="edge38" class="edge"><title>Node24&#45;&gt;Node25</title>
<path fill="none" stroke="midnightblue" d="M1553,-254.296C1553,-245.714 1553,-235.742 1553,-227.691"/>
<polygon fill="midnightblue" stroke="midnightblue" points="1549.5,-254.499 1553,-264.499 1556.5,-254.499 1549.5,-254.499"/>
</g>
<!-- Node25&#45;&gt;Node7 -->
<g id="edge45" class="edge"><title>Node25&#45;&gt;Node7</title>
<path fill="none" stroke="midnightblue" d="M1582.55,-189.043C1622.23,-157.712 1683.65,-98.6482 1646,-57 1619.97,-28.2025 1365.64,-16.7452 1251.25,-13.0222"/>
<polygon fill="midnightblue" stroke="midnightblue" points="1580.23,-186.411 1574.45,-195.292 1584.51,-191.952 1580.23,-186.411"/>
</g>
<!-- Node26 -->
<g id="node26" class="node"><title>Node26</title>
<g id="a_node26"><a xlink:href="BetaRelocationStrategyData_8h.xhtml" target="_top" xlink:title="src/TH/BetaRelocationStrategy\lData.h">
<polygon fill="none" stroke="black" points="1653,-126.5 1653,-158.5 1819,-158.5 1819,-126.5 1653,-126.5"/>
<text text-anchor="start" x="1661" y="-145.7" font-family="Helvetica,sans-Serif" font-size="11.00">src/TH/BetaRelocationStrategy</text>
<text text-anchor="middle" x="1736" y="-133.7" font-family="Helvetica,sans-Serif" font-size="11.00">Data.h</text>
</a>
</g>
</g>
<!-- Node25&#45;&gt;Node26 -->
<g id="edge39" class="edge"><title>Node25&#45;&gt;Node26</title>
<path fill="none" stroke="midnightblue" d="M1603.52,-192.002C1632.24,-181.49 1667.73,-168.494 1694.75,-158.602"/>
<polygon fill="midnightblue" stroke="midnightblue" points="1602.26,-188.739 1594.07,-195.464 1604.66,-195.312 1602.26,-188.739"/>
</g>
<!-- Node27 -->
<g id="node27" class="node"><title>Node27</title>
<g id="a_node27"><a xlink:href="RelocationStrategyPolicy_8h.xhtml" target="_top" xlink:title="src/TH/RelocationStrategy\lPolicy.h">
<polygon fill="none" stroke="black" points="1453.5,-126.5 1453.5,-158.5 1596.5,-158.5 1596.5,-126.5 1453.5,-126.5"/>
<text text-anchor="start" x="1461.5" y="-145.7" font-family="Helvetica,sans-Serif" font-size="11.00">src/TH/RelocationStrategy</text>
<text text-anchor="middle" x="1525" y="-133.7" font-family="Helvetica,sans-Serif" font-size="11.00">Policy.h</text>
</a>
</g>
</g>
<!-- Node25&#45;&gt;Node27 -->
<g id="edge41" class="edge"><title>Node25&#45;&gt;Node27</title>
<path fill="none" stroke="midnightblue" d="M1542.72,-185.902C1538.9,-176.77 1534.69,-166.685 1531.33,-158.643"/>
<polygon fill="midnightblue" stroke="midnightblue" points="1539.56,-187.42 1546.65,-195.297 1546.02,-184.72 1539.56,-187.42"/>
</g>
<!-- Node26&#45;&gt;Node7 -->
<g id="edge40" class="edge"><title>Node26&#45;&gt;Node7</title>
<path fill="none" stroke="midnightblue" d="M1732.04,-116.331C1727.55,-96.8084 1718.19,-70.8193 1699,-57 1663.29,-31.2829 1374.27,-17.9198 1251.18,-13.3496"/>
<polygon fill="midnightblue" stroke="midnightblue" points="1728.66,-117.28 1734.06,-126.394 1735.52,-115.9 1728.66,-117.28"/>
</g>
<!-- Node27&#45;&gt;Node7 -->
<g id="edge44" class="edge"><title>Node27&#45;&gt;Node7</title>
<path fill="none" stroke="midnightblue" d="M1590.47,-122.131C1605.31,-114.548 1619.25,-104.154 1628,-90 1635.71,-77.5238 1637.81,-67.9005 1628,-57 1603.21,-29.4656 1361.95,-17.3933 1251.15,-13.269"/>
<polygon fill="midnightblue" stroke="midnightblue" points="1588.72,-119.085 1581.15,-126.498 1591.69,-125.423 1588.72,-119.085"/>
</g>
<!-- Node28 -->
<g id="node28" class="node"><title>Node28</title>
<g id="a_node28"><a xlink:href="BetaRelocationStrategyPolicy_8h.xhtml" target="_top" xlink:title="src/TH/BetaRelocationStrategy\lPolicy.h">
<polygon fill="none" stroke="black" points="1453,-57.5 1453,-89.5 1619,-89.5 1619,-57.5 1453,-57.5"/>
<text text-anchor="start" x="1461" y="-76.7" font-family="Helvetica,sans-Serif" font-size="11.00">src/TH/BetaRelocationStrategy</text>
<text text-anchor="middle" x="1536" y="-64.7" font-family="Helvetica,sans-Serif" font-size="11.00">Policy.h</text>
</a>
</g>
</g>
<!-- Node27&#45;&gt;Node28 -->
<g id="edge42" class="edge"><title>Node27&#45;&gt;Node28</title>
<path fill="none" stroke="midnightblue" d="M1529.13,-116.318C1530.61,-107.341 1532.22,-97.5143 1533.51,-89.6432"/>
<polygon fill="midnightblue" stroke="midnightblue" points="1525.66,-115.862 1527.5,-126.297 1532.57,-116.996 1525.66,-115.862"/>
</g>
<!-- Node28&#45;&gt;Node7 -->
<g id="edge43" class="edge"><title>Node28&#45;&gt;Node7</title>
<path fill="none" stroke="midnightblue" d="M1442.8,-55.7794C1379.34,-44.3926 1297.78,-29.7614 1246.19,-20.5041"/>
<polygon fill="midnightblue" stroke="midnightblue" points="1442.37,-59.2567 1452.83,-57.5777 1443.6,-52.3667 1442.37,-59.2567"/>
</g>
</g>
</svg>
