<?xml version="1.0" encoding="UTF-8" standalone="no"?>
<!DOCTYPE svg PUBLIC "-//W3C//DTD SVG 1.1//EN"
 "http://www.w3.org/Graphics/SVG/1.1/DTD/svg11.dtd">
<!-- Generated by graphviz version 2.38.0 (20140413.2041)
 -->
<!-- Title: src/TH/ConvergenceControlPolicy.h Pages: 1 -->
<!--zoomable 440 -->
<svg id="main" version="1.1" xmlns="http://www.w3.org/2000/svg" xmlns:xlink="http://www.w3.org/1999/xlink" xml:space="preserve" onload="init(evt)">
<style type="text/css"><![CDATA[
.edge:hover path { stroke: red; }
.edge:hover polygon { stroke: red; fill: red; }
]]></style>
<script type="text/javascript"><![CDATA[
var edges = document.getElementsByTagName('g');
if (edges && edges.length) {
  for (var i=0;i<edges.length;i++) {
    if (edges[i].id.substr(0,4)=='edge') {
      edges[i].setAttribute('class','edge');
    }
  }
}
]]></script>
        <defs>
                <circle id="rim" cx="0" cy="0" r="7"/>
                <circle id="rim2" cx="0" cy="0" r="3.5"/>
                <g id="zoomPlus">
                        <use xlink:href="#rim" fill="#404040">
                                <set attributeName="fill" to="#808080" begin="zoomplus.mouseover" end="zoomplus.mouseout"/>
                        </use>
                        <path d="M-4,0h8M0,-4v8" fill="none" stroke="white" stroke-width="1.5" pointer-events="none"/>
                </g>
                <g id="zoomMin">
                        <use xlink:href="#rim" fill="#404040">
                                <set attributeName="fill" to="#808080" begin="zoomminus.mouseover" end="zoomminus.mouseout"/>
                        </use>
                        <path d="M-4,0h8" fill="none" stroke="white" stroke-width="1.5" pointer-events="none"/>
                </g>
                <g id="dirArrow">
                        <path fill="none" stroke="white" stroke-width="1.5" d="M0,-3.0v7 M-2.5,-0.5L0,-3.0L2.5,-0.5"/>
                </g>
               <g id="resetDef">
                       <use xlink:href="#rim2" fill="#404040">
                               <set attributeName="fill" to="#808080" begin="reset.mouseover" end="reset.mouseout"/>
                       </use>
               </g>
        </defs>

<script type="text/javascript">
var viewWidth = 1303;
var viewHeight = 440;
var sectionId = 'dynsection-0';
</script>
<script xlink:href="svgpan.js"/>
<svg id="graph" class="graph">
<g id="viewport">
<title>src/TH/ConvergenceControlPolicy.h</title>
<!-- Node1 -->
<g id="node1" class="node"><title>Node1</title>
<polygon fill="#bfbfbf" stroke="black" points="756,-399.5 756,-431.5 908,-431.5 908,-399.5 756,-399.5"/>
<text text-anchor="start" x="764" y="-418.7" font-family="Helvetica,sans-Serif" font-size="11.00">src/TH/ConvergenceControl</text>
<text text-anchor="middle" x="832" y="-406.7" font-family="Helvetica,sans-Serif" font-size="11.00">Policy.h</text>
</g>
<!-- Node2 -->
<g id="node2" class="node"><title>Node2</title>
<g id="a_node2"><a xlink:href="Search_8h.xhtml" target="_top" xlink:title="Search.h">
<polygon fill="none" stroke="black" points="802,-342.5 802,-362.5 862,-362.5 862,-342.5 802,-342.5"/>
<text text-anchor="middle" x="832" y="-349.7" font-family="Helvetica,sans-Serif" font-size="11.00">Search.h</text>
</a>
</g>
</g>
<!-- Node1&#45;&gt;Node2 -->
<g id="edge1" class="edge"><title>Node1&#45;&gt;Node2</title>
<path fill="none" stroke="midnightblue" d="M832,-399.421C832,-391.375 832,-381.386 832,-372.781"/>
<polygon fill="midnightblue" stroke="midnightblue" points="835.5,-372.546 832,-362.546 828.5,-372.546 835.5,-372.546"/>
</g>
<!-- Node3 -->
<g id="node3" class="node"><title>Node3</title>
<g id="a_node3"><a xlink:href="FitnessPolicy_8h.xhtml" target="_top" xlink:title="FitnessPolicy.h">
<polygon fill="none" stroke="black" points="714.5,-285.5 714.5,-305.5 803.5,-305.5 803.5,-285.5 714.5,-285.5"/>
<text text-anchor="middle" x="759" y="-292.7" font-family="Helvetica,sans-Serif" font-size="11.00">FitnessPolicy.h</text>
</a>
</g>
</g>
<!-- Node2&#45;&gt;Node3 -->
<g id="edge2" class="edge"><title>Node2&#45;&gt;Node3</title>
<path fill="none" stroke="midnightblue" d="M819.946,-342.418C808.917,-334.108 792.377,-321.647 779.309,-311.802"/>
<polygon fill="midnightblue" stroke="midnightblue" points="781.409,-309.002 771.316,-305.779 777.197,-314.592 781.409,-309.002"/>
</g>
<!-- Node28 -->
<g id="node28" class="node"><title>Node28</title>
<polygon fill="none" stroke="#bfbfbf" points="1251.5,-171.5 1251.5,-191.5 1294.5,-191.5 1294.5,-171.5 1251.5,-171.5"/>
<text text-anchor="middle" x="1273" y="-178.7" font-family="Helvetica,sans-Serif" font-size="11.00">mpi.h</text>
</g>
<!-- Node2&#45;&gt;Node28 -->
<g id="edge43" class="edge"><title>Node2&#45;&gt;Node28</title>
<path fill="none" stroke="midnightblue" d="M855.71,-342.414C929.979,-313.953 1158.13,-226.519 1241.81,-194.452"/>
<polygon fill="midnightblue" stroke="midnightblue" points="1243.2,-197.67 1251.28,-190.823 1240.69,-191.133 1243.2,-197.67"/>
</g>
<!-- Node32 -->
<g id="node32" class="node"><title>Node32</title>
<g id="a_node32"><a xlink:href="SearchSpace_8h.xhtml" target="_top" xlink:title="SearchSpace.h">
<polygon fill="none" stroke="black" points="630.5,-228.5 630.5,-248.5 721.5,-248.5 721.5,-228.5 630.5,-228.5"/>
<text text-anchor="middle" x="676" y="-235.7" font-family="Helvetica,sans-Serif" font-size="11.00">SearchSpace.h</text>
</a>
</g>
</g>
<!-- Node2&#45;&gt;Node32 -->
<g id="edge41" class="edge"><title>Node2&#45;&gt;Node32</title>
<path fill="none" stroke="midnightblue" d="M831.809,-342.457C831.019,-328.312 827.443,-300.925 812,-285 790.928,-263.271 759.2,-251.919 731.688,-245.988"/>
<polygon fill="midnightblue" stroke="midnightblue" points="732.258,-242.533 721.77,-244.039 730.908,-249.402 732.258,-242.533"/>
</g>
<!-- Node4 -->
<g id="node4" class="node"><title>Node4</title>
<g id="a_node4"><a xlink:href="Solution_8h.xhtml" target="_top" xlink:title="Solution.h">
<polygon fill="none" stroke="black" points="883.5,-228.5 883.5,-248.5 948.5,-248.5 948.5,-228.5 883.5,-228.5"/>
<text text-anchor="middle" x="916" y="-235.7" font-family="Helvetica,sans-Serif" font-size="11.00">Solution.h</text>
</a>
</g>
</g>
<!-- Node3&#45;&gt;Node4 -->
<g id="edge3" class="edge"><title>Node3&#45;&gt;Node4</title>
<path fill="none" stroke="midnightblue" d="M784.925,-285.418C811.025,-276.275 851.474,-262.105 880.535,-251.924"/>
<polygon fill="midnightblue" stroke="midnightblue" points="882.017,-255.114 890.297,-248.504 879.702,-248.507 882.017,-255.114"/>
</g>
<!-- Node30 -->
<g id="node30" class="node"><title>Node30</title>
<g id="a_node30"><a xlink:href="THTree_8h.xhtml" target="_top" xlink:title="THTree.h">
<polygon fill="none" stroke="black" points="66.5,-171.5 66.5,-191.5 129.5,-191.5 129.5,-171.5 66.5,-171.5"/>
<text text-anchor="middle" x="98" y="-178.7" font-family="Helvetica,sans-Serif" font-size="11.00">THTree.h</text>
</a>
</g>
</g>
<!-- Node3&#45;&gt;Node30 -->
<g id="edge37" class="edge"><title>Node3&#45;&gt;Node30</title>
<path fill="none" stroke="midnightblue" d="M714.345,-286.934C592.869,-266.351 257.653,-209.552 139.71,-189.567"/>
<polygon fill="midnightblue" stroke="midnightblue" points="140.081,-186.08 129.637,-187.861 138.912,-192.982 140.081,-186.08"/>
</g>
<!-- Node5 -->
<g id="node5" class="node"><title>Node5</title>
<g id="a_node5"><a xlink:href="ConstraintViolation_8h.xhtml" target="_top" xlink:title="ConstraintViolation.h">
<polygon fill="none" stroke="black" points="1001,-171.5 1001,-191.5 1117,-191.5 1117,-171.5 1001,-171.5"/>
<text text-anchor="middle" x="1059" y="-178.7" font-family="Helvetica,sans-Serif" font-size="11.00">ConstraintViolation.h</text>
</a>
</g>
</g>
<!-- Node4&#45;&gt;Node5 -->
<g id="edge4" class="edge"><title>Node4&#45;&gt;Node5</title>
<path fill="none" stroke="midnightblue" d="M939.614,-228.418C963.108,-219.382 999.368,-205.435 1025.76,-195.283"/>
<polygon fill="midnightblue" stroke="midnightblue" points="1027.27,-198.452 1035.35,-191.596 1024.76,-191.919 1027.27,-198.452"/>
</g>
<!-- Node6 -->
<g id="node6" class="node"><title>Node6</title>
<polygon fill="none" stroke="#bfbfbf" points="1127,-114.5 1127,-134.5 1189,-134.5 1189,-114.5 1127,-114.5"/>
<text text-anchor="middle" x="1158" y="-121.7" font-family="Helvetica,sans-Serif" font-size="11.00">stdexcept</text>
</g>
<!-- Node4&#45;&gt;Node6 -->
<g id="edge35" class="edge"><title>Node4&#45;&gt;Node6</title>
<path fill="none" stroke="midnightblue" d="M948.638,-237.419C1016.97,-236.483 1171.45,-230.101 1204,-192 1218.11,-175.49 1198.37,-154.652 1180.54,-140.745"/>
<polygon fill="midnightblue" stroke="midnightblue" points="1182.22,-137.638 1172.1,-134.523 1178.07,-143.273 1182.22,-137.638"/>
</g>
<!-- Node7 -->
<g id="node7" class="node"><title>Node7</title>
<g id="a_node7"><a xlink:href="Position_8h.xhtml" target="_top" xlink:title="Position.h">
<polygon fill="none" stroke="black" points="845,-171.5 845,-191.5 909,-191.5 909,-171.5 845,-171.5"/>
<text text-anchor="middle" x="877" y="-178.7" font-family="Helvetica,sans-Serif" font-size="11.00">Position.h</text>
</a>
</g>
</g>
<!-- Node4&#45;&gt;Node7 -->
<g id="edge6" class="edge"><title>Node4&#45;&gt;Node7</title>
<path fill="none" stroke="midnightblue" d="M909.56,-228.418C904.117,-220.742 896.161,-209.522 889.476,-200.094"/>
<polygon fill="midnightblue" stroke="midnightblue" points="892.219,-197.912 883.58,-191.779 886.509,-201.961 892.219,-197.912"/>
</g>
<!-- Node8 -->
<g id="node8" class="node"><title>Node8</title>
<polygon fill="none" stroke="#bfbfbf" points="1061.5,-114.5 1061.5,-134.5 1104.5,-134.5 1104.5,-114.5 1061.5,-114.5"/>
<text text-anchor="middle" x="1083" y="-121.7" font-family="Helvetica,sans-Serif" font-size="11.00">string</text>
</g>
<!-- Node4&#45;&gt;Node8 -->
<g id="edge36" class="edge"><title>Node4&#45;&gt;Node8</title>
<path fill="none" stroke="midnightblue" d="M889.606,-228.49C859.217,-216.727 815.908,-194.81 836,-171 866.676,-134.647 1000.51,-145.078 1047,-135 1048.46,-134.683 1049.95,-134.346 1051.45,-133.995"/>
<polygon fill="midnightblue" stroke="midnightblue" points="1052.51,-137.34 1061.37,-131.541 1050.83,-130.545 1052.51,-137.34"/>
</g>
<!-- Node9 -->
<g id="node9" class="node"><title>Node9</title>
<g id="a_node9"><a xlink:href="Fitness_8h.xhtml" target="_top" xlink:title="Fitness.h">
<polygon fill="none" stroke="black" points="1135,-171.5 1135,-191.5 1195,-191.5 1195,-171.5 1135,-171.5"/>
<text text-anchor="middle" x="1165" y="-178.7" font-family="Helvetica,sans-Serif" font-size="11.00">Fitness.h</text>
</a>
</g>
</g>
<!-- Node4&#45;&gt;Node9 -->
<g id="edge9" class="edge"><title>Node4&#45;&gt;Node9</title>
<path fill="none" stroke="midnightblue" d="M948.795,-230.666C988.228,-222.388 1056.67,-207.834 1124.75,-192.247"/>
<polygon fill="midnightblue" stroke="midnightblue" points="1125.82,-195.592 1134.78,-189.941 1124.25,-188.769 1125.82,-195.592"/>
</g>
<!-- Node10 -->
<g id="node10" class="node"><title>Node10</title>
<g id="a_node10"><a xlink:href="Region_8h.xhtml" target="_top" xlink:title="Region.h">
<polygon fill="none" stroke="black" points="320,-171.5 320,-191.5 380,-191.5 380,-171.5 320,-171.5"/>
<text text-anchor="middle" x="350" y="-178.7" font-family="Helvetica,sans-Serif" font-size="11.00">Region.h</text>
</a>
</g>
</g>
<!-- Node4&#45;&gt;Node10 -->
<g id="edge11" class="edge"><title>Node4&#45;&gt;Node10</title>
<path fill="none" stroke="midnightblue" d="M883.123,-234.305C785.397,-224.809 496.874,-196.772 390.222,-186.409"/>
<polygon fill="midnightblue" stroke="midnightblue" points="390.478,-182.917 380.187,-185.433 389.801,-189.884 390.478,-182.917"/>
</g>
<!-- Node17 -->
<g id="node17" class="node"><title>Node17</title>
<g id="a_node17"><a xlink:href="THUtil_8h.xhtml" target="_top" xlink:title="THUtil.h">
<polygon fill="none" stroke="black" points="733,-171.5 733,-191.5 789,-191.5 789,-171.5 733,-171.5"/>
<text text-anchor="middle" x="761" y="-178.7" font-family="Helvetica,sans-Serif" font-size="11.00">THUtil.h</text>
</a>
</g>
</g>
<!-- Node4&#45;&gt;Node17 -->
<g id="edge20" class="edge"><title>Node4&#45;&gt;Node17</title>
<path fill="none" stroke="midnightblue" d="M890.405,-228.418C864.638,-219.275 824.704,-205.105 796.013,-194.924"/>
<polygon fill="midnightblue" stroke="midnightblue" points="796.97,-191.55 786.376,-191.504 794.629,-198.147 796.97,-191.55"/>
</g>
<!-- Node4&#45;&gt;Node28 -->
<g id="edge33" class="edge"><title>Node4&#45;&gt;Node28</title>
<path fill="none" stroke="midnightblue" d="M948.564,-234.161C1006.79,-227.909 1132.45,-213.129 1237,-192 1238.47,-191.704 1239.96,-191.384 1241.47,-191.046"/>
<polygon fill="midnightblue" stroke="midnightblue" points="1242.5,-194.397 1251.39,-188.641 1240.85,-187.594 1242.5,-194.397"/>
</g>
<!-- Node29 -->
<g id="node29" class="node"><title>Node29</title>
<polygon fill="none" stroke="#bfbfbf" points="927.5,-171.5 927.5,-191.5 982.5,-191.5 982.5,-171.5 927.5,-171.5"/>
<text text-anchor="middle" x="955" y="-178.7" font-family="Helvetica,sans-Serif" font-size="11.00">stddef.h</text>
</g>
<!-- Node4&#45;&gt;Node29 -->
<g id="edge34" class="edge"><title>Node4&#45;&gt;Node29</title>
<path fill="none" stroke="midnightblue" d="M922.44,-228.418C927.883,-220.742 935.839,-209.522 942.524,-200.094"/>
<polygon fill="midnightblue" stroke="midnightblue" points="945.491,-201.961 948.42,-191.779 939.781,-197.912 945.491,-201.961"/>
</g>
<!-- Node5&#45;&gt;Node6 -->
<g id="edge5" class="edge"><title>Node5&#45;&gt;Node6</title>
<path fill="none" stroke="midnightblue" d="M1075.35,-171.418C1090.97,-162.74 1114.74,-149.533 1132.79,-139.508"/>
<polygon fill="midnightblue" stroke="midnightblue" points="1134.59,-142.512 1141.63,-134.596 1131.19,-136.393 1134.59,-142.512"/>
</g>
<!-- Node7&#45;&gt;Node6 -->
<g id="edge7" class="edge"><title>Node7&#45;&gt;Node6</title>
<path fill="none" stroke="midnightblue" d="M909.199,-172.895C912.17,-172.237 915.139,-171.595 918,-171 1004.28,-153.049 1026.54,-152.104 1113,-135 1114.23,-134.756 1115.49,-134.506 1116.75,-134.252"/>
<polygon fill="midnightblue" stroke="midnightblue" points="1117.45,-137.68 1126.55,-132.246 1116.05,-130.822 1117.45,-137.68"/>
</g>
<!-- Node7&#45;&gt;Node8 -->
<g id="edge8" class="edge"><title>Node7&#45;&gt;Node8</title>
<path fill="none" stroke="midnightblue" d="M909.188,-171.906C947.975,-161.55 1012.73,-144.261 1051.3,-133.964"/>
<polygon fill="midnightblue" stroke="midnightblue" points="1052.68,-137.217 1061.44,-131.256 1050.88,-130.454 1052.68,-137.217"/>
</g>
<!-- Node9&#45;&gt;Node6 -->
<g id="edge10" class="edge"><title>Node9&#45;&gt;Node6</title>
<path fill="none" stroke="midnightblue" d="M1163.84,-171.418C1162.93,-164.216 1161.61,-153.896 1160.46,-144.863"/>
<polygon fill="midnightblue" stroke="midnightblue" points="1163.92,-144.258 1159.18,-134.779 1156.97,-145.141 1163.92,-144.258"/>
</g>
<!-- Node11 -->
<g id="node11" class="node"><title>Node11</title>
<g id="a_node11"><a xlink:href="Dimension_8h.xhtml" target="_top" xlink:title="Dimension.h">
<polygon fill="none" stroke="black" points="196.5,-114.5 196.5,-134.5 273.5,-134.5 273.5,-114.5 196.5,-114.5"/>
<text text-anchor="middle" x="235" y="-121.7" font-family="Helvetica,sans-Serif" font-size="11.00">Dimension.h</text>
</a>
</g>
</g>
<!-- Node10&#45;&gt;Node11 -->
<g id="edge12" class="edge"><title>Node10&#45;&gt;Node11</title>
<path fill="none" stroke="midnightblue" d="M331.01,-171.418C312.532,-162.581 284.235,-149.047 263.142,-138.959"/>
<polygon fill="midnightblue" stroke="midnightblue" points="264.55,-135.753 254.018,-134.596 261.529,-142.068 264.55,-135.753"/>
</g>
<!-- Node12 -->
<g id="node12" class="node"><title>Node12</title>
<g id="a_node12"><a xlink:href="Partition_8h.xhtml" target="_top" xlink:title="Partition.h">
<polygon fill="none" stroke="black" points="202.5,-57.5 202.5,-77.5 267.5,-77.5 267.5,-57.5 202.5,-57.5"/>
<text text-anchor="middle" x="235" y="-64.7" font-family="Helvetica,sans-Serif" font-size="11.00">Partition.h</text>
</a>
</g>
</g>
<!-- Node10&#45;&gt;Node12 -->
<g id="edge15" class="edge"><title>Node10&#45;&gt;Node12</title>
<path fill="none" stroke="midnightblue" d="M319.659,-176.419C277.077,-170 202.988,-156.062 187,-135 173.831,-117.652 193.538,-97.2921 211.534,-83.7142"/>
<polygon fill="midnightblue" stroke="midnightblue" points="213.959,-86.2845 220.079,-77.6363 209.902,-80.5801 213.959,-86.2845"/>
</g>
<!-- Node13 -->
<g id="node13" class="node"><title>Node13</title>
<polygon fill="none" stroke="#bfbfbf" points="282.5,-0.5 282.5,-20.5 329.5,-20.5 329.5,-0.5 282.5,-0.5"/>
<text text-anchor="middle" x="306" y="-7.7" font-family="Helvetica,sans-Serif" font-size="11.00">cstdlib</text>
</g>
<!-- Node10&#45;&gt;Node13 -->
<g id="edge17" class="edge"><title>Node10&#45;&gt;Node13</title>
<path fill="none" stroke="midnightblue" d="M353.362,-171.353C357.636,-158.429 363.901,-134.15 359,-114 351.188,-81.8816 331.429,-48.5852 318.368,-28.972"/>
<polygon fill="midnightblue" stroke="midnightblue" points="321.112,-26.7844 312.577,-20.508 315.335,-30.7374 321.112,-26.7844"/>
</g>
<!-- Node14 -->
<g id="node14" class="node"><title>Node14</title>
<polygon fill="none" stroke="#bfbfbf" points="102,-114.5 102,-134.5 140,-134.5 140,-114.5 102,-114.5"/>
<text text-anchor="middle" x="121" y="-121.7" font-family="Helvetica,sans-Serif" font-size="11.00">map</text>
</g>
<!-- Node10&#45;&gt;Node14 -->
<g id="edge16" class="edge"><title>Node10&#45;&gt;Node14</title>
<path fill="none" stroke="midnightblue" d="M319.996,-174.045C281.437,-165.633 212.491,-150.197 154,-135 152.734,-134.671 151.443,-134.329 150.14,-133.978"/>
<polygon fill="midnightblue" stroke="midnightblue" points="150.721,-130.506 140.148,-131.196 148.843,-137.25 150.721,-130.506"/>
</g>
<!-- Node15 -->
<g id="node15" class="node"><title>Node15</title>
<polygon fill="none" stroke="#bfbfbf" points="603.5,-57.5 603.5,-77.5 658.5,-77.5 658.5,-57.5 603.5,-57.5"/>
<text text-anchor="middle" x="631" y="-64.7" font-family="Helvetica,sans-Serif" font-size="11.00">sstream</text>
</g>
<!-- Node10&#45;&gt;Node15 -->
<g id="edge18" class="edge"><title>Node10&#45;&gt;Node15</title>
<path fill="none" stroke="midnightblue" d="M359.008,-171.207C373.593,-156.719 403.897,-128.871 435,-114 486.751,-89.2568 552.753,-77.5355 593.433,-72.311"/>
<polygon fill="midnightblue" stroke="midnightblue" points="593.951,-75.7738 603.454,-71.09 593.104,-68.8252 593.951,-75.7738"/>
</g>
<!-- Node16 -->
<g id="node16" class="node"><title>Node16</title>
<polygon fill="none" stroke="#bfbfbf" points="292,-114.5 292,-134.5 350,-134.5 350,-114.5 292,-114.5"/>
<text text-anchor="middle" x="321" y="-121.7" font-family="Helvetica,sans-Serif" font-size="11.00">iostream</text>
</g>
<!-- Node10&#45;&gt;Node16 -->
<g id="edge19" class="edge"><title>Node10&#45;&gt;Node16</title>
<path fill="none" stroke="midnightblue" d="M345.211,-171.418C341.247,-163.9 335.491,-152.983 330.586,-143.68"/>
<polygon fill="midnightblue" stroke="midnightblue" points="333.653,-141.993 325.893,-134.779 327.461,-145.258 333.653,-141.993"/>
</g>
<!-- Node11&#45;&gt;Node12 -->
<g id="edge13" class="edge"><title>Node11&#45;&gt;Node12</title>
<path fill="none" stroke="midnightblue" d="M235,-114.418C235,-107.216 235,-96.8962 235,-87.8632"/>
<polygon fill="midnightblue" stroke="midnightblue" points="238.5,-87.7794 235,-77.7795 231.5,-87.7795 238.5,-87.7794"/>
</g>
<!-- Node12&#45;&gt;Node13 -->
<g id="edge14" class="edge"><title>Node12&#45;&gt;Node13</title>
<path fill="none" stroke="midnightblue" d="M246.724,-57.4179C257.349,-49.1876 273.232,-36.8839 285.883,-27.0836"/>
<polygon fill="midnightblue" stroke="midnightblue" points="288.259,-29.6704 294.021,-20.7795 283.972,-24.1365 288.259,-29.6704"/>
</g>
<!-- Node17&#45;&gt;Node13 -->
<g id="edge24" class="edge"><title>Node17&#45;&gt;Node13</title>
<path fill="none" stroke="midnightblue" d="M789.425,-176.36C853.818,-166.848 1005.82,-143.593 1013,-135 1035.23,-108.398 1036.71,-82.2879 1013,-57 989.731,-32.1855 478.558,-16.2765 340.243,-12.4155"/>
<polygon fill="midnightblue" stroke="midnightblue" points="339.937,-8.90576 329.844,-12.1284 339.743,-15.9031 339.937,-8.90576"/>
</g>
<!-- Node18 -->
<g id="node18" class="node"><title>Node18</title>
<polygon fill="none" stroke="#bfbfbf" points="596,-114.5 596,-134.5 648,-134.5 648,-114.5 596,-114.5"/>
<text text-anchor="middle" x="622" y="-121.7" font-family="Helvetica,sans-Serif" font-size="11.00">string.h</text>
</g>
<!-- Node17&#45;&gt;Node18 -->
<g id="edge21" class="edge"><title>Node17&#45;&gt;Node18</title>
<path fill="none" stroke="midnightblue" d="M738.047,-171.418C715.21,-162.382 679.964,-148.435 654.306,-138.283"/>
<polygon fill="midnightblue" stroke="midnightblue" points="655.573,-135.02 644.987,-134.596 652.998,-141.529 655.573,-135.02"/>
</g>
<!-- Node19 -->
<g id="node19" class="node"><title>Node19</title>
<polygon fill="none" stroke="#bfbfbf" points="738.5,-114.5 738.5,-134.5 791.5,-134.5 791.5,-114.5 738.5,-114.5"/>
<text text-anchor="middle" x="765" y="-121.7" font-family="Helvetica,sans-Serif" font-size="11.00">random</text>
</g>
<!-- Node17&#45;&gt;Node19 -->
<g id="edge22" class="edge"><title>Node17&#45;&gt;Node19</title>
<path fill="none" stroke="midnightblue" d="M761.661,-171.418C762.184,-164.216 762.935,-153.896 763.592,-144.863"/>
<polygon fill="midnightblue" stroke="midnightblue" points="767.09,-145.007 764.325,-134.779 760.109,-144.499 767.09,-145.007"/>
</g>
<!-- Node20 -->
<g id="node20" class="node"><title>Node20</title>
<polygon fill="none" stroke="#bfbfbf" points="810,-114.5 810,-134.5 854,-134.5 854,-114.5 810,-114.5"/>
<text text-anchor="middle" x="832" y="-121.7" font-family="Helvetica,sans-Serif" font-size="11.00">cstdio</text>
</g>
<!-- Node17&#45;&gt;Node20 -->
<g id="edge23" class="edge"><title>Node17&#45;&gt;Node20</title>
<path fill="none" stroke="midnightblue" d="M772.724,-171.418C783.349,-163.188 799.232,-150.884 811.883,-141.084"/>
<polygon fill="midnightblue" stroke="midnightblue" points="814.259,-143.67 820.021,-134.779 809.972,-138.137 814.259,-143.67"/>
</g>
<!-- Node21 -->
<g id="node21" class="node"><title>Node21</title>
<polygon fill="none" stroke="#bfbfbf" points="872.5,-114.5 872.5,-134.5 925.5,-134.5 925.5,-114.5 872.5,-114.5"/>
<text text-anchor="middle" x="899" y="-121.7" font-family="Helvetica,sans-Serif" font-size="11.00">fstream</text>
</g>
<!-- Node17&#45;&gt;Node21 -->
<g id="edge25" class="edge"><title>Node17&#45;&gt;Node21</title>
<path fill="none" stroke="midnightblue" d="M783.788,-171.418C806.361,-162.421 841.145,-148.558 866.59,-138.417"/>
<polygon fill="midnightblue" stroke="midnightblue" points="868.185,-141.549 876.178,-134.596 865.593,-135.047 868.185,-141.549"/>
</g>
<!-- Node22 -->
<g id="node22" class="node"><title>Node22</title>
<polygon fill="none" stroke="#bfbfbf" points="444,-114.5 444,-134.5 506,-134.5 506,-114.5 444,-114.5"/>
<text text-anchor="middle" x="475" y="-121.7" font-family="Helvetica,sans-Serif" font-size="11.00">sys/stat.h</text>
</g>
<!-- Node17&#45;&gt;Node22 -->
<g id="edge26" class="edge"><title>Node17&#45;&gt;Node22</title>
<path fill="none" stroke="midnightblue" d="M732.871,-175.771C688.822,-168.264 600.668,-152.83 516.398,-135.219"/>
<polygon fill="midnightblue" stroke="midnightblue" points="516.916,-131.751 506.409,-133.117 515.474,-138.601 516.916,-131.751"/>
</g>
<!-- Node23 -->
<g id="node23" class="node"><title>Node23</title>
<polygon fill="none" stroke="#bfbfbf" points="524,-114.5 524,-134.5 578,-134.5 578,-114.5 524,-114.5"/>
<text text-anchor="middle" x="551" y="-121.7" font-family="Helvetica,sans-Serif" font-size="11.00">libgen.h</text>
</g>
<!-- Node17&#45;&gt;Node23 -->
<g id="edge27" class="edge"><title>Node17&#45;&gt;Node23</title>
<path fill="none" stroke="midnightblue" d="M732.968,-173.19C700.457,-164.708 644.985,-150.222 588.022,-135.265"/>
<polygon fill="midnightblue" stroke="midnightblue" points="588.686,-131.82 578.125,-132.665 586.908,-138.591 588.686,-131.82"/>
</g>
<!-- Node24 -->
<g id="node24" class="node"><title>Node24</title>
<g id="a_node24"><a xlink:href="macros_8h.xhtml" target="_top" xlink:title="macros.h">
<polygon fill="none" stroke="black" points="943.5,-114.5 943.5,-134.5 1004.5,-134.5 1004.5,-114.5 943.5,-114.5"/>
<text text-anchor="middle" x="974" y="-121.7" font-family="Helvetica,sans-Serif" font-size="11.00">macros.h</text>
</a>
</g>
</g>
<!-- Node17&#45;&gt;Node24 -->
<g id="edge28" class="edge"><title>Node17&#45;&gt;Node24</title>
<path fill="none" stroke="midnightblue" d="M789.285,-173.196C826.267,-163.647 891.293,-146.856 933.496,-135.959"/>
<polygon fill="midnightblue" stroke="midnightblue" points="934.373,-139.347 943.18,-133.458 932.622,-132.57 934.373,-139.347"/>
</g>
<!-- Node27 -->
<g id="node27" class="node"><title>Node27</title>
<g id="a_node27"><a xlink:href="config_8h.xhtml" target="_top" xlink:title="Global configurations must be set in this file. ">
<polygon fill="none" stroke="black" points="666,-114.5 666,-134.5 720,-134.5 720,-114.5 666,-114.5"/>
<text text-anchor="middle" x="693" y="-121.7" font-family="Helvetica,sans-Serif" font-size="11.00">config.h</text>
</a>
</g>
</g>
<!-- Node17&#45;&gt;Node27 -->
<g id="edge32" class="edge"><title>Node17&#45;&gt;Node27</title>
<path fill="none" stroke="midnightblue" d="M749.771,-171.418C739.596,-163.188 724.384,-150.884 712.267,-141.084"/>
<polygon fill="midnightblue" stroke="midnightblue" points="714.449,-138.347 704.473,-134.779 710.047,-143.789 714.449,-138.347"/>
</g>
<!-- Node24&#45;&gt;Node15 -->
<g id="edge31" class="edge"><title>Node24&#45;&gt;Node15</title>
<path fill="none" stroke="midnightblue" d="M943.482,-115.973C940.288,-115.269 937.083,-114.597 934,-114 839.111,-95.6411 726.286,-80.4228 668.783,-73.1348"/>
<polygon fill="midnightblue" stroke="midnightblue" points="669.065,-69.6428 658.706,-71.8673 668.191,-76.5881 669.065,-69.6428"/>
</g>
<!-- Node25 -->
<g id="node25" class="node"><title>Node25</title>
<polygon fill="none" stroke="#bfbfbf" points="873,-57.5 873,-77.5 921,-77.5 921,-57.5 873,-57.5"/>
<text text-anchor="middle" x="897" y="-64.7" font-family="Helvetica,sans-Serif" font-size="11.00">stdio.h</text>
</g>
<!-- Node24&#45;&gt;Node25 -->
<g id="edge29" class="edge"><title>Node24&#45;&gt;Node25</title>
<path fill="none" stroke="midnightblue" d="M961.285,-114.418C949.582,-106.058 931.995,-93.4966 918.173,-83.6239"/>
<polygon fill="midnightblue" stroke="midnightblue" points="919.906,-80.56 909.734,-77.5956 915.837,-86.2561 919.906,-80.56"/>
</g>
<!-- Node26 -->
<g id="node26" class="node"><title>Node26</title>
<polygon fill="none" stroke="#bfbfbf" points="939.5,-57.5 939.5,-77.5 1004.5,-77.5 1004.5,-57.5 939.5,-57.5"/>
<text text-anchor="middle" x="972" y="-64.7" font-family="Helvetica,sans-Serif" font-size="11.00">sys/time.h</text>
</g>
<!-- Node24&#45;&gt;Node26 -->
<g id="edge30" class="edge"><title>Node24&#45;&gt;Node26</title>
<path fill="none" stroke="midnightblue" d="M973.67,-114.418C973.408,-107.216 973.033,-96.8962 972.704,-87.8632"/>
<polygon fill="midnightblue" stroke="midnightblue" points="976.199,-87.6456 972.337,-77.7795 969.203,-87.9001 976.199,-87.6456"/>
</g>
<!-- Node30&#45;&gt;Node13 -->
<g id="edge40" class="edge"><title>Node30&#45;&gt;Node13</title>
<path fill="none" stroke="midnightblue" d="M94.1714,-171.161C89.2555,-157.575 82.5302,-132.019 93,-114 130.534,-49.4026 222.401,-24.8446 272.344,-16.0468"/>
<polygon fill="midnightblue" stroke="midnightblue" points="273.033,-19.4806 282.33,-14.4 271.894,-12.5739 273.033,-19.4806"/>
</g>
<!-- Node30&#45;&gt;Node14 -->
<g id="edge38" class="edge"><title>Node30&#45;&gt;Node14</title>
<path fill="none" stroke="midnightblue" d="M101.798,-171.418C104.876,-164.058 109.316,-153.441 113.151,-144.27"/>
<polygon fill="midnightblue" stroke="midnightblue" points="116.49,-145.356 117.12,-134.779 110.032,-142.655 116.49,-145.356"/>
</g>
<!-- Node31 -->
<g id="node31" class="node"><title>Node31</title>
<polygon fill="none" stroke="#bfbfbf" points="0,-114.5 0,-134.5 46,-134.5 46,-114.5 0,-114.5"/>
<text text-anchor="middle" x="23" y="-121.7" font-family="Helvetica,sans-Serif" font-size="11.00">vector</text>
</g>
<!-- Node30&#45;&gt;Node31 -->
<g id="edge39" class="edge"><title>Node30&#45;&gt;Node31</title>
<path fill="none" stroke="midnightblue" d="M85.6153,-171.418C74.216,-163.058 57.0863,-150.497 43.6235,-140.624"/>
<polygon fill="midnightblue" stroke="midnightblue" points="45.537,-137.687 35.4031,-134.596 41.3974,-143.332 45.537,-137.687"/>
</g>
<!-- Node32&#45;&gt;Node10 -->
<g id="edge42" class="edge"><title>Node32&#45;&gt;Node10</title>
<path fill="none" stroke="midnightblue" d="M630.328,-229.795C566.387,-219.007 451.203,-199.574 390.292,-189.298"/>
<polygon fill="midnightblue" stroke="midnightblue" points="390.729,-185.822 380.286,-187.61 389.565,-192.725 390.729,-185.822"/>
</g>
</g>
</svg>
        <g id="navigator" transform="translate(0 0)" fill="#404254">
                <rect fill="#f2f5e9" fill-opacity="0.5" stroke="#606060" stroke-width=".5" x="0" y="0" width="60" height="60"/>
                <use id="zoomplus" xlink:href="#zoomPlus" x="17" y="9" onmousedown="handleZoom(evt,'in')"/>
                <use id="zoomminus" xlink:href="#zoomMin" x="42" y="9" onmousedown="handleZoom(evt,'out')"/>
                <use id="reset" xlink:href="#resetDef" x="30" y="36" onmousedown="handleReset()"/>
                <g id="arrowUp" xlink:href="#dirArrow" transform="translate(30 24)" onmousedown="handlePan(0,-1)">
                  <use xlink:href="#rim" fill="#404040">
                        <set attributeName="fill" to="#808080" begin="arrowUp.mouseover" end="arrowUp.mouseout"/>
                  </use>
                  <path fill="none" stroke="white" stroke-width="1.5" d="M0,-3.0v7 M-2.5,-0.5L0,-3.0L2.5,-0.5"/>
                </g>
                <g id="arrowRight" xlink:href="#dirArrow" transform="rotate(90) translate(36 -43)" onmousedown="handlePan(1,0)">
                  <use xlink:href="#rim" fill="#404040">
                        <set attributeName="fill" to="#808080" begin="arrowRight.mouseover" end="arrowRight.mouseout"/>
                  </use>
                  <path fill="none" stroke="white" stroke-width="1.5" d="M0,-3.0v7 M-2.5,-0.5L0,-3.0L2.5,-0.5"/>
                </g>
                <g id="arrowDown" xlink:href="#dirArrow" transform="rotate(180) translate(-30 -48)" onmousedown="handlePan(0,1)">
                  <use xlink:href="#rim" fill="#404040">
                        <set attributeName="fill" to="#808080" begin="arrowDown.mouseover" end="arrowDown.mouseout"/>
                  </use>
                  <path fill="none" stroke="white" stroke-width="1.5" d="M0,-3.0v7 M-2.5,-0.5L0,-3.0L2.5,-0.5"/>
                </g>
                <g id="arrowLeft" xlink:href="#dirArrow" transform="rotate(270) translate(-36 17)" onmousedown="handlePan(-1,0)">
                  <use xlink:href="#rim" fill="#404040">
                        <set attributeName="fill" to="#808080" begin="arrowLeft.mouseover" end="arrowLeft.mouseout"/>
                  </use>
                  <path fill="none" stroke="white" stroke-width="1.5" d="M0,-3.0v7 M-2.5,-0.5L0,-3.0L2.5,-0.5"/>
                </g>
        </g>
        <svg viewBox="0 0 15 15" width="100%" height="30px" preserveAspectRatio="xMaxYMin meet">
         <g id="arrow_out" transform="scale(0.3 0.3)">
          <a xlink:href="ConvergenceControlPolicy_8h__incl_org.svg" target="_base">
           <rect id="button" ry="5" rx="5" y="6" x="6" height="38" width="38"
                fill="#f2f5e9" fill-opacity="0.5" stroke="#606060" stroke-width="1.0"/>
           <path id="arrow"
             d="M 11.500037,31.436501 C 11.940474,20.09759 22.043105,11.32322 32.158766,21.979434 L 37.068811,17.246167 C 37.068811,17.246167 37.088388,32 37.088388,32 L 22.160133,31.978069 C 22.160133,31.978069 26.997745,27.140456 26.997745,27.140456 C 18.528582,18.264221 13.291696,25.230495 11.500037,31.436501 z"
             style="fill:#404040;"/>
          </a>
         </g>
        </svg>
</svg>
