<?xml version="1.0" encoding="UTF-8" standalone="no"?>
<!DOCTYPE svg PUBLIC "-//W3C//DTD SVG 1.1//EN"
 "http://www.w3.org/Graphics/SVG/1.1/DTD/svg11.dtd">
<!-- Generated by graphviz version 2.38.0 (20140413.2041)
 -->
<!-- Title: src/TH/CSMOn.h Pages: 1 -->
<svg width="1274pt" height="485pt"
 viewBox="0.00 0.00 1274.29 485.00" xmlns="http://www.w3.org/2000/svg" xmlns:xlink="http://www.w3.org/1999/xlink">
<g id="graph0" class="graph" transform="scale(1 1) rotate(0) translate(4 481)">
<title>src/TH/CSMOn.h</title>
<!-- Node1 -->
<g id="node1" class="node"><title>Node1</title>
<polygon fill="#bfbfbf" stroke="black" points="1043,-456.5 1043,-476.5 1143,-476.5 1143,-456.5 1043,-456.5"/>
<text text-anchor="middle" x="1093" y="-463.7" font-family="Helvetica,sans-Serif" font-size="11.00">src/TH/CSMOn.h</text>
</g>
<!-- Node2 -->
<g id="node2" class="node"><title>Node2</title>
<g id="a_node2"><a xlink:href="ConvergenceControlPolicy_8h.xhtml" target="_top" xlink:title="ConvergenceControlPolicy.h">
<polygon fill="none" stroke="black" points="877,-399.5 877,-419.5 1031,-419.5 1031,-399.5 877,-399.5"/>
<text text-anchor="middle" x="954" y="-406.7" font-family="Helvetica,sans-Serif" font-size="11.00">ConvergenceControlPolicy.h</text>
</a>
</g>
</g>
<!-- Node1&#45;&gt;Node2 -->
<g id="edge1" class="edge"><title>Node1&#45;&gt;Node2</title>
<path fill="none" stroke="midnightblue" d="M1070.05,-456.418C1047.21,-447.382 1011.96,-433.435 986.306,-423.283"/>
<polygon fill="midnightblue" stroke="midnightblue" points="987.573,-420.02 976.987,-419.596 984.998,-426.529 987.573,-420.02"/>
</g>
<!-- Node32 -->
<g id="node32" class="node"><title>Node32</title>
<polygon fill="none" stroke="#bfbfbf" points="1087,-171.5 1087,-191.5 1133,-191.5 1133,-171.5 1087,-171.5"/>
<text text-anchor="middle" x="1110" y="-178.7" font-family="Helvetica,sans-Serif" font-size="11.00">vector</text>
</g>
<!-- Node1&#45;&gt;Node32 -->
<g id="edge45" class="edge"><title>Node1&#45;&gt;Node32</title>
<path fill="none" stroke="midnightblue" d="M1093,-456.499C1093,-437.48 1093,-391.806 1093,-353.5 1093,-353.5 1093,-353.5 1093,-294.5 1093,-261.524 1100.29,-223.698 1105.33,-201.522"/>
<polygon fill="midnightblue" stroke="midnightblue" points="1108.75,-202.257 1107.64,-191.721 1101.93,-200.65 1108.75,-202.257"/>
</g>
<!-- Node34 -->
<g id="node34" class="node"><title>Node34</title>
<polygon fill="none" stroke="#bfbfbf" points="1121,-399.5 1121,-419.5 1167,-419.5 1167,-399.5 1121,-399.5"/>
<text text-anchor="middle" x="1144" y="-406.7" font-family="Helvetica,sans-Serif" font-size="11.00">cmath</text>
</g>
<!-- Node1&#45;&gt;Node34 -->
<g id="edge46" class="edge"><title>Node1&#45;&gt;Node34</title>
<path fill="none" stroke="midnightblue" d="M1101.42,-456.418C1108.76,-448.504 1119.59,-436.824 1128.49,-427.225"/>
<polygon fill="midnightblue" stroke="midnightblue" points="1131.16,-429.492 1135.4,-419.779 1126.03,-424.732 1131.16,-429.492"/>
</g>
<!-- Node3 -->
<g id="node3" class="node"><title>Node3</title>
<g id="a_node3"><a xlink:href="Search_8h.xhtml" target="_top" xlink:title="Search.h">
<polygon fill="none" stroke="black" points="906,-342.5 906,-362.5 966,-362.5 966,-342.5 906,-342.5"/>
<text text-anchor="middle" x="936" y="-349.7" font-family="Helvetica,sans-Serif" font-size="11.00">Search.h</text>
</a>
</g>
</g>
<!-- Node2&#45;&gt;Node3 -->
<g id="edge2" class="edge"><title>Node2&#45;&gt;Node3</title>
<path fill="none" stroke="midnightblue" d="M951.028,-399.418C948.645,-392.137 945.219,-381.669 942.24,-372.566"/>
<polygon fill="midnightblue" stroke="midnightblue" points="945.474,-371.195 939.037,-362.779 938.821,-373.372 945.474,-371.195"/>
</g>
<!-- Node4 -->
<g id="node4" class="node"><title>Node4</title>
<g id="a_node4"><a xlink:href="FitnessPolicy_8h.xhtml" target="_top" xlink:title="FitnessPolicy.h">
<polygon fill="none" stroke="black" points="801.5,-285.5 801.5,-305.5 890.5,-305.5 890.5,-285.5 801.5,-285.5"/>
<text text-anchor="middle" x="846" y="-292.7" font-family="Helvetica,sans-Serif" font-size="11.00">FitnessPolicy.h</text>
</a>
</g>
</g>
<!-- Node3&#45;&gt;Node4 -->
<g id="edge3" class="edge"><title>Node3&#45;&gt;Node4</title>
<path fill="none" stroke="midnightblue" d="M921.138,-342.418C907.199,-333.899 886.118,-321.017 869.83,-311.063"/>
<polygon fill="midnightblue" stroke="midnightblue" points="871.242,-307.824 860.884,-305.596 867.591,-313.797 871.242,-307.824"/>
</g>
<!-- Node29 -->
<g id="node29" class="node"><title>Node29</title>
<polygon fill="none" stroke="#bfbfbf" points="871.5,-171.5 871.5,-191.5 914.5,-191.5 914.5,-171.5 871.5,-171.5"/>
<text text-anchor="middle" x="893" y="-178.7" font-family="Helvetica,sans-Serif" font-size="11.00">mpi.h</text>
</g>
<!-- Node3&#45;&gt;Node29 -->
<g id="edge44" class="edge"><title>Node3&#45;&gt;Node29</title>
<path fill="none" stroke="midnightblue" d="M933.688,-342.414C926.922,-315.821 907.056,-237.744 897.822,-201.45"/>
<polygon fill="midnightblue" stroke="midnightblue" points="901.181,-200.459 895.323,-191.631 894.397,-202.185 901.181,-200.459"/>
</g>
<!-- Node33 -->
<g id="node33" class="node"><title>Node33</title>
<g id="a_node33"><a xlink:href="SearchSpace_8h.xhtml" target="_top" xlink:title="SearchSpace.h">
<polygon fill="none" stroke="black" points="960.5,-285.5 960.5,-305.5 1051.5,-305.5 1051.5,-285.5 960.5,-285.5"/>
<text text-anchor="middle" x="1006" y="-292.7" font-family="Helvetica,sans-Serif" font-size="11.00">SearchSpace.h</text>
</a>
</g>
</g>
<!-- Node3&#45;&gt;Node33 -->
<g id="edge42" class="edge"><title>Node3&#45;&gt;Node33</title>
<path fill="none" stroke="midnightblue" d="M947.559,-342.418C958.034,-334.188 973.693,-321.884 986.166,-312.084"/>
<polygon fill="midnightblue" stroke="midnightblue" points="988.489,-314.71 994.19,-305.779 984.164,-309.206 988.489,-314.71"/>
</g>
<!-- Node5 -->
<g id="node5" class="node"><title>Node5</title>
<g id="a_node5"><a xlink:href="Solution_8h.xhtml" target="_top" xlink:title="Solution.h">
<polygon fill="none" stroke="black" points="716.5,-228.5 716.5,-248.5 781.5,-248.5 781.5,-228.5 716.5,-228.5"/>
<text text-anchor="middle" x="749" y="-235.7" font-family="Helvetica,sans-Serif" font-size="11.00">Solution.h</text>
</a>
</g>
</g>
<!-- Node4&#45;&gt;Node5 -->
<g id="edge4" class="edge"><title>Node4&#45;&gt;Node5</title>
<path fill="none" stroke="midnightblue" d="M829.982,-285.418C814.818,-276.82 791.813,-263.775 774.193,-253.784"/>
<polygon fill="midnightblue" stroke="midnightblue" points="775.467,-250.483 765.041,-248.596 772.014,-256.573 775.467,-250.483"/>
</g>
<!-- Node31 -->
<g id="node31" class="node"><title>Node31</title>
<g id="a_node31"><a xlink:href="THTree_8h.xhtml" target="_top" xlink:title="THTree.h">
<polygon fill="none" stroke="black" points="947.5,-228.5 947.5,-248.5 1010.5,-248.5 1010.5,-228.5 947.5,-228.5"/>
<text text-anchor="middle" x="979" y="-235.7" font-family="Helvetica,sans-Serif" font-size="11.00">THTree.h</text>
</a>
</g>
</g>
<!-- Node4&#45;&gt;Node31 -->
<g id="edge38" class="edge"><title>Node4&#45;&gt;Node31</title>
<path fill="none" stroke="midnightblue" d="M867.962,-285.418C889.717,-276.421 923.241,-262.558 947.764,-252.417"/>
<polygon fill="midnightblue" stroke="midnightblue" points="949.102,-255.652 957.005,-248.596 946.427,-249.183 949.102,-255.652"/>
</g>
<!-- Node6 -->
<g id="node6" class="node"><title>Node6</title>
<g id="a_node6"><a xlink:href="ConstraintViolation_8h.xhtml" target="_top" xlink:title="ConstraintViolation.h">
<polygon fill="none" stroke="black" points="547,-171.5 547,-191.5 663,-191.5 663,-171.5 547,-171.5"/>
<text text-anchor="middle" x="605" y="-178.7" font-family="Helvetica,sans-Serif" font-size="11.00">ConstraintViolation.h</text>
</a>
</g>
</g>
<!-- Node5&#45;&gt;Node6 -->
<g id="edge5" class="edge"><title>Node5&#45;&gt;Node6</title>
<path fill="none" stroke="midnightblue" d="M725.221,-228.418C701.563,-219.382 665.049,-205.435 638.468,-195.283"/>
<polygon fill="midnightblue" stroke="midnightblue" points="639.405,-191.894 628.814,-191.596 636.907,-198.433 639.405,-191.894"/>
</g>
<!-- Node7 -->
<g id="node7" class="node"><title>Node7</title>
<polygon fill="none" stroke="#bfbfbf" points="680,-114.5 680,-134.5 742,-134.5 742,-114.5 680,-114.5"/>
<text text-anchor="middle" x="711" y="-121.7" font-family="Helvetica,sans-Serif" font-size="11.00">stdexcept</text>
</g>
<!-- Node5&#45;&gt;Node7 -->
<g id="edge36" class="edge"><title>Node5&#45;&gt;Node7</title>
<path fill="none" stroke="midnightblue" d="M773.512,-228.478C800.935,-216.942 839.493,-195.502 823,-171 807.24,-147.587 777.134,-136.217 752.101,-130.697"/>
<polygon fill="midnightblue" stroke="midnightblue" points="752.581,-127.225 742.094,-128.733 751.233,-134.094 752.581,-127.225"/>
</g>
<!-- Node8 -->
<g id="node8" class="node"><title>Node8</title>
<g id="a_node8"><a xlink:href="Position_8h.xhtml" target="_top" xlink:title="Position.h">
<polygon fill="none" stroke="black" points="465,-171.5 465,-191.5 529,-191.5 529,-171.5 465,-171.5"/>
<text text-anchor="middle" x="497" y="-178.7" font-family="Helvetica,sans-Serif" font-size="11.00">Position.h</text>
</a>
</g>
</g>
<!-- Node5&#45;&gt;Node8 -->
<g id="edge7" class="edge"><title>Node5&#45;&gt;Node8</title>
<path fill="none" stroke="midnightblue" d="M716.434,-230.639C676.9,-222.275 607.938,-207.571 539.334,-192.275"/>
<polygon fill="midnightblue" stroke="midnightblue" points="539.741,-188.779 529.218,-190.014 538.214,-195.611 539.741,-188.779"/>
</g>
<!-- Node9 -->
<g id="node9" class="node"><title>Node9</title>
<polygon fill="none" stroke="#bfbfbf" points="618.5,-114.5 618.5,-134.5 661.5,-134.5 661.5,-114.5 618.5,-114.5"/>
<text text-anchor="middle" x="640" y="-121.7" font-family="Helvetica,sans-Serif" font-size="11.00">string</text>
</g>
<!-- Node5&#45;&gt;Node9 -->
<g id="edge37" class="edge"><title>Node5&#45;&gt;Node9</title>
<path fill="none" stroke="midnightblue" d="M716.326,-237.517C647.093,-236.786 489.24,-230.8 456,-192 388.441,-113.14 320.39,-206.907 604,-135 605.449,-134.633 606.93,-134.254 608.425,-133.869"/>
<polygon fill="midnightblue" stroke="midnightblue" points="609.52,-137.201 618.316,-131.295 607.756,-130.427 609.52,-137.201"/>
</g>
<!-- Node10 -->
<g id="node10" class="node"><title>Node10</title>
<g id="a_node10"><a xlink:href="Fitness_8h.xhtml" target="_top" xlink:title="Fitness.h">
<polygon fill="none" stroke="black" points="681,-171.5 681,-191.5 741,-191.5 741,-171.5 681,-171.5"/>
<text text-anchor="middle" x="711" y="-178.7" font-family="Helvetica,sans-Serif" font-size="11.00">Fitness.h</text>
</a>
</g>
</g>
<!-- Node5&#45;&gt;Node10 -->
<g id="edge10" class="edge"><title>Node5&#45;&gt;Node10</title>
<path fill="none" stroke="midnightblue" d="M742.725,-228.418C737.421,-220.742 729.67,-209.522 723.156,-200.094"/>
<polygon fill="midnightblue" stroke="midnightblue" points="725.975,-198.017 717.411,-191.779 720.216,-201.996 725.975,-198.017"/>
</g>
<!-- Node11 -->
<g id="node11" class="node"><title>Node11</title>
<g id="a_node11"><a xlink:href="Region_8h.xhtml" target="_top" xlink:title="Region.h">
<polygon fill="none" stroke="black" points="1009,-171.5 1009,-191.5 1069,-191.5 1069,-171.5 1009,-171.5"/>
<text text-anchor="middle" x="1039" y="-178.7" font-family="Helvetica,sans-Serif" font-size="11.00">Region.h</text>
</a>
</g>
</g>
<!-- Node5&#45;&gt;Node11 -->
<g id="edge12" class="edge"><title>Node5&#45;&gt;Node11</title>
<path fill="none" stroke="midnightblue" d="M781.703,-231.298C835.083,-221.174 940.782,-201.127 998.709,-190.141"/>
<polygon fill="midnightblue" stroke="midnightblue" points="999.432,-193.567 1008.6,-188.265 998.128,-186.689 999.432,-193.567"/>
</g>
<!-- Node18 -->
<g id="node18" class="node"><title>Node18</title>
<g id="a_node18"><a xlink:href="THUtil_8h.xhtml" target="_top" xlink:title="THUtil.h">
<polygon fill="none" stroke="black" points="316,-171.5 316,-191.5 372,-191.5 372,-171.5 316,-171.5"/>
<text text-anchor="middle" x="344" y="-178.7" font-family="Helvetica,sans-Serif" font-size="11.00">THUtil.h</text>
</a>
</g>
</g>
<!-- Node5&#45;&gt;Node18 -->
<g id="edge21" class="edge"><title>Node5&#45;&gt;Node18</title>
<path fill="none" stroke="midnightblue" d="M716.2,-233.046C641.949,-222.962 461.32,-198.432 382.195,-187.687"/>
<polygon fill="midnightblue" stroke="midnightblue" points="382.55,-184.203 372.17,-186.326 381.608,-191.139 382.55,-184.203"/>
</g>
<!-- Node5&#45;&gt;Node29 -->
<g id="edge34" class="edge"><title>Node5&#45;&gt;Node29</title>
<path fill="none" stroke="midnightblue" d="M772.779,-228.418C797.004,-219.165 834.708,-204.764 861.425,-194.56"/>
<polygon fill="midnightblue" stroke="midnightblue" points="862.983,-197.712 871.076,-190.874 860.485,-191.172 862.983,-197.712"/>
</g>
<!-- Node30 -->
<g id="node30" class="node"><title>Node30</title>
<polygon fill="none" stroke="#bfbfbf" points="759.5,-171.5 759.5,-191.5 814.5,-191.5 814.5,-171.5 759.5,-171.5"/>
<text text-anchor="middle" x="787" y="-178.7" font-family="Helvetica,sans-Serif" font-size="11.00">stddef.h</text>
</g>
<!-- Node5&#45;&gt;Node30 -->
<g id="edge35" class="edge"><title>Node5&#45;&gt;Node30</title>
<path fill="none" stroke="midnightblue" d="M755.275,-228.418C760.579,-220.742 768.33,-209.522 774.844,-200.094"/>
<polygon fill="midnightblue" stroke="midnightblue" points="777.784,-201.996 780.589,-191.779 772.025,-198.017 777.784,-201.996"/>
</g>
<!-- Node6&#45;&gt;Node7 -->
<g id="edge6" class="edge"><title>Node6&#45;&gt;Node7</title>
<path fill="none" stroke="midnightblue" d="M622.504,-171.418C639.382,-162.66 665.149,-149.291 684.534,-139.233"/>
<polygon fill="midnightblue" stroke="midnightblue" points="686.206,-142.308 693.47,-134.596 682.982,-136.095 686.206,-142.308"/>
</g>
<!-- Node8&#45;&gt;Node7 -->
<g id="edge8" class="edge"><title>Node8&#45;&gt;Node7</title>
<path fill="none" stroke="midnightblue" d="M529.038,-172.266C566.631,-162.604 629.035,-146.566 670.094,-136.013"/>
<polygon fill="midnightblue" stroke="midnightblue" points="670.975,-139.401 679.789,-133.522 669.232,-132.621 670.975,-139.401"/>
</g>
<!-- Node8&#45;&gt;Node9 -->
<g id="edge9" class="edge"><title>Node8&#45;&gt;Node9</title>
<path fill="none" stroke="midnightblue" d="M520.614,-171.418C544.67,-162.165 582.113,-147.764 608.644,-137.56"/>
<polygon fill="midnightblue" stroke="midnightblue" points="610.151,-140.73 618.228,-133.874 607.638,-134.197 610.151,-140.73"/>
</g>
<!-- Node10&#45;&gt;Node7 -->
<g id="edge11" class="edge"><title>Node10&#45;&gt;Node7</title>
<path fill="none" stroke="midnightblue" d="M711,-171.418C711,-164.216 711,-153.896 711,-144.863"/>
<polygon fill="midnightblue" stroke="midnightblue" points="714.5,-144.779 711,-134.779 707.5,-144.779 714.5,-144.779"/>
</g>
<!-- Node12 -->
<g id="node12" class="node"><title>Node12</title>
<g id="a_node12"><a xlink:href="Dimension_8h.xhtml" target="_top" xlink:title="Dimension.h">
<polygon fill="none" stroke="black" points="1094.5,-114.5 1094.5,-134.5 1171.5,-134.5 1171.5,-114.5 1094.5,-114.5"/>
<text text-anchor="middle" x="1133" y="-121.7" font-family="Helvetica,sans-Serif" font-size="11.00">Dimension.h</text>
</a>
</g>
</g>
<!-- Node11&#45;&gt;Node12 -->
<g id="edge13" class="edge"><title>Node11&#45;&gt;Node12</title>
<path fill="none" stroke="midnightblue" d="M1054.52,-171.418C1069.22,-162.82 1091.51,-149.775 1108.59,-139.784"/>
<polygon fill="midnightblue" stroke="midnightblue" points="1110.59,-142.667 1117.45,-134.596 1107.06,-136.625 1110.59,-142.667"/>
</g>
<!-- Node13 -->
<g id="node13" class="node"><title>Node13</title>
<g id="a_node13"><a xlink:href="Partition_8h.xhtml" target="_top" xlink:title="Partition.h">
<polygon fill="none" stroke="black" points="1033.5,-57.5 1033.5,-77.5 1098.5,-77.5 1098.5,-57.5 1033.5,-57.5"/>
<text text-anchor="middle" x="1066" y="-64.7" font-family="Helvetica,sans-Serif" font-size="11.00">Partition.h</text>
</a>
</g>
</g>
<!-- Node11&#45;&gt;Node13 -->
<g id="edge16" class="edge"><title>Node11&#45;&gt;Node13</title>
<path fill="none" stroke="midnightblue" d="M1041.21,-171.335C1045.6,-153.122 1055.5,-112.037 1061.38,-87.6694"/>
<polygon fill="midnightblue" stroke="midnightblue" points="1064.82,-88.3339 1063.76,-77.7921 1058.01,-86.6933 1064.82,-88.3339"/>
</g>
<!-- Node14 -->
<g id="node14" class="node"><title>Node14</title>
<polygon fill="none" stroke="#bfbfbf" points="976.5,-0.5 976.5,-20.5 1023.5,-20.5 1023.5,-0.5 976.5,-0.5"/>
<text text-anchor="middle" x="1000" y="-7.7" font-family="Helvetica,sans-Serif" font-size="11.00">cstdlib</text>
</g>
<!-- Node11&#45;&gt;Node14 -->
<g id="edge18" class="edge"><title>Node11&#45;&gt;Node14</title>
<path fill="none" stroke="midnightblue" d="M1069.21,-173.014C1072.17,-172.317 1075.14,-171.635 1078,-171 1159.5,-152.885 1303.84,-183.113 1257,-114 1206.26,-39.1331 1091.14,-18.947 1033.78,-13.5063"/>
<polygon fill="midnightblue" stroke="midnightblue" points="1034.04,-10.0152 1023.78,-12.6521 1033.44,-16.9899 1034.04,-10.0152"/>
</g>
<!-- Node15 -->
<g id="node15" class="node"><title>Node15</title>
<polygon fill="none" stroke="#bfbfbf" points="962,-114.5 962,-134.5 1000,-134.5 1000,-114.5 962,-114.5"/>
<text text-anchor="middle" x="981" y="-121.7" font-family="Helvetica,sans-Serif" font-size="11.00">map</text>
</g>
<!-- Node11&#45;&gt;Node15 -->
<g id="edge17" class="edge"><title>Node11&#45;&gt;Node15</title>
<path fill="none" stroke="midnightblue" d="M1029.42,-171.418C1020.99,-163.425 1008.51,-151.59 998.334,-141.938"/>
<polygon fill="midnightblue" stroke="midnightblue" points="1000.45,-139.121 990.786,-134.779 995.634,-144.2 1000.45,-139.121"/>
</g>
<!-- Node16 -->
<g id="node16" class="node"><title>Node16</title>
<polygon fill="none" stroke="#bfbfbf" points="734.5,-57.5 734.5,-77.5 789.5,-77.5 789.5,-57.5 734.5,-57.5"/>
<text text-anchor="middle" x="762" y="-64.7" font-family="Helvetica,sans-Serif" font-size="11.00">sstream</text>
</g>
<!-- Node11&#45;&gt;Node16 -->
<g id="edge19" class="edge"><title>Node11&#45;&gt;Node16</title>
<path fill="none" stroke="midnightblue" d="M1037.57,-171.089C1034.82,-156.439 1027.34,-128.373 1009,-114 977.04,-88.9602 860.871,-76.273 799.921,-71.2172"/>
<polygon fill="midnightblue" stroke="midnightblue" points="800.172,-67.7262 789.924,-70.4155 799.612,-74.7038 800.172,-67.7262"/>
</g>
<!-- Node17 -->
<g id="node17" class="node"><title>Node17</title>
<polygon fill="none" stroke="#bfbfbf" points="1190,-114.5 1190,-134.5 1248,-134.5 1248,-114.5 1190,-114.5"/>
<text text-anchor="middle" x="1219" y="-121.7" font-family="Helvetica,sans-Serif" font-size="11.00">iostream</text>
</g>
<!-- Node11&#45;&gt;Node17 -->
<g id="edge20" class="edge"><title>Node11&#45;&gt;Node17</title>
<path fill="none" stroke="midnightblue" d="M1068.72,-171.418C1099.13,-162.127 1146.52,-147.646 1179.94,-137.435"/>
<polygon fill="midnightblue" stroke="midnightblue" points="1181.29,-140.683 1189.83,-134.413 1179.24,-133.988 1181.29,-140.683"/>
</g>
<!-- Node12&#45;&gt;Node13 -->
<g id="edge14" class="edge"><title>Node12&#45;&gt;Node13</title>
<path fill="none" stroke="midnightblue" d="M1121.94,-114.418C1112.01,-106.267 1097.21,-94.1201 1085.33,-84.3669"/>
<polygon fill="midnightblue" stroke="midnightblue" points="1087.25,-81.4192 1077.3,-77.7795 1082.81,-86.8297 1087.25,-81.4192"/>
</g>
<!-- Node13&#45;&gt;Node14 -->
<g id="edge15" class="edge"><title>Node13&#45;&gt;Node14</title>
<path fill="none" stroke="midnightblue" d="M1055.1,-57.4179C1045.32,-49.2667 1030.74,-37.1201 1019.04,-27.3669"/>
<polygon fill="midnightblue" stroke="midnightblue" points="1021.06,-24.4926 1011.14,-20.7795 1016.58,-29.8701 1021.06,-24.4926"/>
</g>
<!-- Node18&#45;&gt;Node14 -->
<g id="edge25" class="edge"><title>Node18&#45;&gt;Node14</title>
<path fill="none" stroke="midnightblue" d="M372.201,-177.533C415.691,-172.36 501.294,-159.793 570,-135 588.518,-128.318 591.496,-123.009 609,-114 660.075,-87.7118 670.301,-74.5427 725,-57 809.281,-29.9702 913.504,-18.3383 966.153,-13.8993"/>
<polygon fill="midnightblue" stroke="midnightblue" points="966.591,-17.3754 976.277,-13.0816 966.027,-10.3982 966.591,-17.3754"/>
</g>
<!-- Node19 -->
<g id="node19" class="node"><title>Node19</title>
<polygon fill="none" stroke="#bfbfbf" points="0,-114.5 0,-134.5 52,-134.5 52,-114.5 0,-114.5"/>
<text text-anchor="middle" x="26" y="-121.7" font-family="Helvetica,sans-Serif" font-size="11.00">string.h</text>
</g>
<!-- Node18&#45;&gt;Node19 -->
<g id="edge22" class="edge"><title>Node18&#45;&gt;Node19</title>
<path fill="none" stroke="midnightblue" d="M315.699,-176.958C266.195,-170.546 160.528,-155.9 62.1061,-135.061"/>
<polygon fill="midnightblue" stroke="midnightblue" points="62.8118,-131.633 52.3003,-132.958 61.3443,-138.477 62.8118,-131.633"/>
</g>
<!-- Node20 -->
<g id="node20" class="node"><title>Node20</title>
<polygon fill="none" stroke="#bfbfbf" points="70.5,-114.5 70.5,-134.5 123.5,-134.5 123.5,-114.5 70.5,-114.5"/>
<text text-anchor="middle" x="97" y="-121.7" font-family="Helvetica,sans-Serif" font-size="11.00">random</text>
</g>
<!-- Node18&#45;&gt;Node20 -->
<g id="edge23" class="edge"><title>Node18&#45;&gt;Node20</title>
<path fill="none" stroke="midnightblue" d="M315.921,-174.87C277.22,-167.018 205.091,-152.055 133.759,-135.097"/>
<polygon fill="midnightblue" stroke="midnightblue" points="134.242,-131.614 123.702,-132.691 132.613,-138.422 134.242,-131.614"/>
</g>
<!-- Node21 -->
<g id="node21" class="node"><title>Node21</title>
<polygon fill="none" stroke="#bfbfbf" points="142,-114.5 142,-134.5 186,-134.5 186,-114.5 142,-114.5"/>
<text text-anchor="middle" x="164" y="-121.7" font-family="Helvetica,sans-Serif" font-size="11.00">cstdio</text>
</g>
<!-- Node18&#45;&gt;Node21 -->
<g id="edge24" class="edge"><title>Node18&#45;&gt;Node21</title>
<path fill="none" stroke="midnightblue" d="M315.986,-171.955C287.967,-163.405 243.381,-149.796 195.871,-135.265"/>
<polygon fill="midnightblue" stroke="midnightblue" points="196.601,-131.828 186.015,-132.249 194.553,-138.522 196.601,-131.828"/>
</g>
<!-- Node22 -->
<g id="node22" class="node"><title>Node22</title>
<polygon fill="none" stroke="#bfbfbf" points="204.5,-114.5 204.5,-134.5 257.5,-134.5 257.5,-114.5 204.5,-114.5"/>
<text text-anchor="middle" x="231" y="-121.7" font-family="Helvetica,sans-Serif" font-size="11.00">fstream</text>
</g>
<!-- Node18&#45;&gt;Node22 -->
<g id="edge26" class="edge"><title>Node18&#45;&gt;Node22</title>
<path fill="none" stroke="midnightblue" d="M325.34,-171.418C307.266,-162.621 279.629,-149.169 258.933,-139.096"/>
<polygon fill="midnightblue" stroke="midnightblue" points="260.211,-135.825 249.687,-134.596 257.147,-142.119 260.211,-135.825"/>
</g>
<!-- Node23 -->
<g id="node23" class="node"><title>Node23</title>
<polygon fill="none" stroke="#bfbfbf" points="276,-114.5 276,-134.5 338,-134.5 338,-114.5 276,-114.5"/>
<text text-anchor="middle" x="307" y="-121.7" font-family="Helvetica,sans-Serif" font-size="11.00">sys/stat.h</text>
</g>
<!-- Node18&#45;&gt;Node23 -->
<g id="edge27" class="edge"><title>Node18&#45;&gt;Node23</title>
<path fill="none" stroke="midnightblue" d="M337.89,-171.418C332.726,-163.742 325.178,-152.522 318.836,-143.094"/>
<polygon fill="midnightblue" stroke="midnightblue" points="321.728,-141.123 313.243,-134.779 315.92,-145.03 321.728,-141.123"/>
</g>
<!-- Node24 -->
<g id="node24" class="node"><title>Node24</title>
<polygon fill="none" stroke="#bfbfbf" points="356,-114.5 356,-134.5 410,-134.5 410,-114.5 356,-114.5"/>
<text text-anchor="middle" x="383" y="-121.7" font-family="Helvetica,sans-Serif" font-size="11.00">libgen.h</text>
</g>
<!-- Node18&#45;&gt;Node24 -->
<g id="edge28" class="edge"><title>Node18&#45;&gt;Node24</title>
<path fill="none" stroke="midnightblue" d="M350.44,-171.418C355.883,-163.742 363.839,-152.522 370.524,-143.094"/>
<polygon fill="midnightblue" stroke="midnightblue" points="373.491,-144.961 376.42,-134.779 367.781,-140.912 373.491,-144.961"/>
</g>
<!-- Node25 -->
<g id="node25" class="node"><title>Node25</title>
<g id="a_node25"><a xlink:href="macros_8h.xhtml" target="_top" xlink:title="Macros and constants must defined in this file. ">
<polygon fill="none" stroke="black" points="500.5,-114.5 500.5,-134.5 561.5,-134.5 561.5,-114.5 500.5,-114.5"/>
<text text-anchor="middle" x="531" y="-121.7" font-family="Helvetica,sans-Serif" font-size="11.00">macros.h</text>
</a>
</g>
</g>
<!-- Node18&#45;&gt;Node25 -->
<g id="edge29" class="edge"><title>Node18&#45;&gt;Node25</title>
<path fill="none" stroke="midnightblue" d="M372.401,-172.147C403.968,-162.862 455.188,-147.798 490.848,-137.309"/>
<polygon fill="midnightblue" stroke="midnightblue" points="491.858,-140.661 500.464,-134.481 489.883,-133.945 491.858,-140.661"/>
</g>
<!-- Node28 -->
<g id="node28" class="node"><title>Node28</title>
<g id="a_node28"><a xlink:href="config_8h.xhtml" target="_top" xlink:title="Global configurations must be set in this file. ">
<polygon fill="none" stroke="black" points="428,-114.5 428,-134.5 482,-134.5 482,-114.5 428,-114.5"/>
<text text-anchor="middle" x="455" y="-121.7" font-family="Helvetica,sans-Serif" font-size="11.00">config.h</text>
</a>
</g>
</g>
<!-- Node18&#45;&gt;Node28 -->
<g id="edge33" class="edge"><title>Node18&#45;&gt;Node28</title>
<path fill="none" stroke="midnightblue" d="M362.329,-171.418C380.084,-162.621 407.231,-149.169 427.562,-139.096"/>
<polygon fill="midnightblue" stroke="midnightblue" points="429.237,-142.172 436.643,-134.596 426.129,-135.899 429.237,-142.172"/>
</g>
<!-- Node25&#45;&gt;Node16 -->
<g id="edge32" class="edge"><title>Node25&#45;&gt;Node16</title>
<path fill="none" stroke="midnightblue" d="M561.675,-116.196C603.777,-106.172 679.394,-88.1682 724.712,-77.3781"/>
<polygon fill="midnightblue" stroke="midnightblue" points="725.529,-80.7814 734.447,-75.0603 723.908,-73.9717 725.529,-80.7814"/>
</g>
<!-- Node26 -->
<g id="node26" class="node"><title>Node26</title>
<polygon fill="none" stroke="#bfbfbf" points="430,-57.5 430,-77.5 478,-77.5 478,-57.5 430,-57.5"/>
<text text-anchor="middle" x="454" y="-64.7" font-family="Helvetica,sans-Serif" font-size="11.00">stdio.h</text>
</g>
<!-- Node25&#45;&gt;Node26 -->
<g id="edge30" class="edge"><title>Node25&#45;&gt;Node26</title>
<path fill="none" stroke="midnightblue" d="M518.285,-114.418C506.582,-106.058 488.995,-93.4966 475.173,-83.6239"/>
<polygon fill="midnightblue" stroke="midnightblue" points="476.906,-80.56 466.734,-77.5956 472.837,-86.2561 476.906,-80.56"/>
</g>
<!-- Node27 -->
<g id="node27" class="node"><title>Node27</title>
<polygon fill="none" stroke="#bfbfbf" points="496.5,-57.5 496.5,-77.5 561.5,-77.5 561.5,-57.5 496.5,-57.5"/>
<text text-anchor="middle" x="529" y="-64.7" font-family="Helvetica,sans-Serif" font-size="11.00">sys/time.h</text>
</g>
<!-- Node25&#45;&gt;Node27 -->
<g id="edge31" class="edge"><title>Node25&#45;&gt;Node27</title>
<path fill="none" stroke="midnightblue" d="M530.67,-114.418C530.408,-107.216 530.033,-96.8962 529.704,-87.8632"/>
<polygon fill="midnightblue" stroke="midnightblue" points="533.199,-87.6456 529.337,-77.7795 526.203,-87.9001 533.199,-87.6456"/>
</g>
<!-- Node31&#45;&gt;Node14 -->
<g id="edge41" class="edge"><title>Node31&#45;&gt;Node14</title>
<path fill="none" stroke="midnightblue" d="M974.324,-228.194C964.569,-207.596 943.699,-156.599 953,-114 959.859,-82.5853 977.264,-49.2877 988.859,-29.4552"/>
<polygon fill="midnightblue" stroke="midnightblue" points="992.011,-31.0049 994.16,-20.6302 986.01,-27.4007 992.011,-31.0049"/>
</g>
<!-- Node31&#45;&gt;Node15 -->
<g id="edge39" class="edge"><title>Node31&#45;&gt;Node15</title>
<path fill="none" stroke="midnightblue" d="M979.164,-228.335C979.487,-210.204 980.216,-169.407 980.652,-145"/>
<polygon fill="midnightblue" stroke="midnightblue" points="984.155,-144.853 980.834,-134.792 977.156,-144.728 984.155,-144.853"/>
</g>
<!-- Node31&#45;&gt;Node32 -->
<g id="edge40" class="edge"><title>Node31&#45;&gt;Node32</title>
<path fill="none" stroke="midnightblue" d="M1000.63,-228.418C1021.96,-219.461 1054.79,-205.681 1078.91,-195.552"/>
<polygon fill="midnightblue" stroke="midnightblue" points="1080.47,-198.694 1088.34,-191.596 1077.76,-192.24 1080.47,-198.694"/>
</g>
<!-- Node33&#45;&gt;Node11 -->
<g id="edge43" class="edge"><title>Node33&#45;&gt;Node11</title>
<path fill="none" stroke="midnightblue" d="M1008.7,-285.335C1014.07,-267.122 1026.17,-226.037 1033.35,-201.669"/>
<polygon fill="midnightblue" stroke="midnightblue" points="1036.79,-202.374 1036.26,-191.792 1030.08,-200.395 1036.79,-202.374"/>
</g>
</g>
</svg>
