<?xml version="1.0" encoding="UTF-8" standalone="no"?>
<!DOCTYPE svg PUBLIC "-//W3C//DTD SVG 1.1//EN"
 "http://www.w3.org/Graphics/SVG/1.1/DTD/svg11.dtd">
<!-- Generated by graphviz version 2.38.0 (20140413.2041)
 -->
<!-- Title: src/TH/Dimension.h Pages: 1 -->
<svg width="120pt" height="143pt"
 viewBox="0.00 0.00 120.00 143.00" xmlns="http://www.w3.org/2000/svg" xmlns:xlink="http://www.w3.org/1999/xlink">
<g id="graph0" class="graph" transform="scale(1 1) rotate(0) translate(4 139)">
<title>src/TH/Dimension.h</title>
<!-- Node1 -->
<g id="node1" class="node"><title>Node1</title>
<polygon fill="#bfbfbf" stroke="black" points="-7.10543e-15,-114.5 -7.10543e-15,-134.5 112,-134.5 112,-114.5 -7.10543e-15,-114.5"/>
<text text-anchor="middle" x="56" y="-121.7" font-family="Helvetica,sans-Serif" font-size="11.00">src/TH/Dimension.h</text>
</g>
<!-- Node2 -->
<g id="node2" class="node"><title>Node2</title>
<g id="a_node2"><a xlink:href="Partition_8h.xhtml" target="_top" xlink:title="Partition.h">
<polygon fill="none" stroke="black" points="23.5,-57.5 23.5,-77.5 88.5,-77.5 88.5,-57.5 23.5,-57.5"/>
<text text-anchor="middle" x="56" y="-64.7" font-family="Helvetica,sans-Serif" font-size="11.00">Partition.h</text>
</a>
</g>
</g>
<!-- Node1&#45;&gt;Node2 -->
<g id="edge1" class="edge"><title>Node1&#45;&gt;Node2</title>
<path fill="none" stroke="midnightblue" d="M56,-114.418C56,-107.216 56,-96.8962 56,-87.8632"/>
<polygon fill="midnightblue" stroke="midnightblue" points="59.5001,-87.7794 56,-77.7795 52.5001,-87.7795 59.5001,-87.7794"/>
</g>
<!-- Node3 -->
<g id="node3" class="node"><title>Node3</title>
<polygon fill="none" stroke="#bfbfbf" points="32.5,-0.5 32.5,-20.5 79.5,-20.5 79.5,-0.5 32.5,-0.5"/>
<text text-anchor="middle" x="56" y="-7.7" font-family="Helvetica,sans-Serif" font-size="11.00">cstdlib</text>
</g>
<!-- Node2&#45;&gt;Node3 -->
<g id="edge2" class="edge"><title>Node2&#45;&gt;Node3</title>
<path fill="none" stroke="midnightblue" d="M56,-57.4179C56,-50.2164 56,-39.8962 56,-30.8632"/>
<polygon fill="midnightblue" stroke="midnightblue" points="59.5001,-30.7794 56,-20.7795 52.5001,-30.7795 59.5001,-30.7794"/>
</g>
</g>
</svg>
