<?xml version="1.0" encoding="UTF-8" standalone="no"?>
<!DOCTYPE svg PUBLIC "-//W3C//DTD SVG 1.1//EN"
 "http://www.w3.org/Graphics/SVG/1.1/DTD/svg11.dtd">
<!-- Generated by graphviz version 2.38.0 (20140413.2041)
 -->
<!-- Title: src/TH/DivergentBestListUpdatePolicy.h Pages: 1 -->
<!--zoomable 440 -->
<svg id="main" version="1.1" xmlns="http://www.w3.org/2000/svg" xmlns:xlink="http://www.w3.org/1999/xlink" xml:space="preserve" onload="init(evt)">
<style type="text/css"><![CDATA[
.edge:hover path { stroke: red; }
.edge:hover polygon { stroke: red; fill: red; }
]]></style>
<script type="text/javascript"><![CDATA[
var edges = document.getElementsByTagName('g');
if (edges && edges.length) {
  for (var i=0;i<edges.length;i++) {
    if (edges[i].id.substr(0,4)=='edge') {
      edges[i].setAttribute('class','edge');
    }
  }
}
]]></script>
        <defs>
                <circle id="rim" cx="0" cy="0" r="7"/>
                <circle id="rim2" cx="0" cy="0" r="3.5"/>
                <g id="zoomPlus">
                        <use xlink:href="#rim" fill="#404040">
                                <set attributeName="fill" to="#808080" begin="zoomplus.mouseover" end="zoomplus.mouseout"/>
                        </use>
                        <path d="M-4,0h8M0,-4v8" fill="none" stroke="white" stroke-width="1.5" pointer-events="none"/>
                </g>
                <g id="zoomMin">
                        <use xlink:href="#rim" fill="#404040">
                                <set attributeName="fill" to="#808080" begin="zoomminus.mouseover" end="zoomminus.mouseout"/>
                        </use>
                        <path d="M-4,0h8" fill="none" stroke="white" stroke-width="1.5" pointer-events="none"/>
                </g>
                <g id="dirArrow">
                        <path fill="none" stroke="white" stroke-width="1.5" d="M0,-3.0v7 M-2.5,-0.5L0,-3.0L2.5,-0.5"/>
                </g>
               <g id="resetDef">
                       <use xlink:href="#rim2" fill="#404040">
                               <set attributeName="fill" to="#808080" begin="reset.mouseover" end="reset.mouseout"/>
                       </use>
               </g>
        </defs>

<script type="text/javascript">
var viewWidth = 1370;
var viewHeight = 440;
var sectionId = 'dynsection-0';
</script>
<script xlink:href="svgpan.js"/>
<svg id="graph" class="graph">
<g id="viewport">
<title>src/TH/DivergentBestListUpdatePolicy.h</title>
<!-- Node1 -->
<g id="node1" class="node"><title>Node1</title>
<polygon fill="#bfbfbf" stroke="black" points="413.5,-399.5 413.5,-431.5 550.5,-431.5 550.5,-399.5 413.5,-399.5"/>
<text text-anchor="start" x="421.5" y="-418.7" font-family="Helvetica,sans-Serif" font-size="11.00">src/TH/DivergentBestList</text>
<text text-anchor="middle" x="482" y="-406.7" font-family="Helvetica,sans-Serif" font-size="11.00">UpdatePolicy.h</text>
</g>
<!-- Node2 -->
<g id="node2" class="node"><title>Node2</title>
<g id="a_node2"><a xlink:href="BestListUpdatePolicy_8h.xhtml" target="_top" xlink:title="BestListUpdatePolicy.h">
<polygon fill="none" stroke="black" points="418,-342.5 418,-362.5 546,-362.5 546,-342.5 418,-342.5"/>
<text text-anchor="middle" x="482" y="-349.7" font-family="Helvetica,sans-Serif" font-size="11.00">BestListUpdatePolicy.h</text>
</a>
</g>
</g>
<!-- Node1&#45;&gt;Node2 -->
<g id="edge1" class="edge"><title>Node1&#45;&gt;Node2</title>
<path fill="none" stroke="midnightblue" d="M482,-399.421C482,-391.375 482,-381.386 482,-372.781"/>
<polygon fill="midnightblue" stroke="midnightblue" points="485.5,-372.546 482,-362.546 478.5,-372.546 485.5,-372.546"/>
</g>
<!-- Node3 -->
<g id="node3" class="node"><title>Node3</title>
<g id="a_node3"><a xlink:href="BestList_8h.xhtml" target="_top" xlink:title="BestList.h">
<polygon fill="none" stroke="black" points="355,-285.5 355,-305.5 419,-305.5 419,-285.5 355,-285.5"/>
<text text-anchor="middle" x="387" y="-292.7" font-family="Helvetica,sans-Serif" font-size="11.00">BestList.h</text>
</a>
</g>
</g>
<!-- Node2&#45;&gt;Node3 -->
<g id="edge2" class="edge"><title>Node2&#45;&gt;Node3</title>
<path fill="none" stroke="midnightblue" d="M466.313,-342.418C451.461,-333.82 428.93,-320.775 411.673,-310.784"/>
<polygon fill="midnightblue" stroke="midnightblue" points="413.119,-307.577 402.711,-305.596 409.611,-313.635 413.119,-307.577"/>
</g>
<!-- Node30 -->
<g id="node30" class="node"><title>Node30</title>
<g id="a_node30"><a xlink:href="FitnessPolicy_8h.xhtml" target="_top" xlink:title="FitnessPolicy.h">
<polygon fill="none" stroke="black" points="437.5,-285.5 437.5,-305.5 526.5,-305.5 526.5,-285.5 437.5,-285.5"/>
<text text-anchor="middle" x="482" y="-292.7" font-family="Helvetica,sans-Serif" font-size="11.00">FitnessPolicy.h</text>
</a>
</g>
</g>
<!-- Node2&#45;&gt;Node30 -->
<g id="edge37" class="edge"><title>Node2&#45;&gt;Node30</title>
<path fill="none" stroke="midnightblue" d="M482,-342.418C482,-335.216 482,-324.896 482,-315.863"/>
<polygon fill="midnightblue" stroke="midnightblue" points="485.5,-315.779 482,-305.779 478.5,-315.779 485.5,-315.779"/>
</g>
<!-- Node33 -->
<g id="node33" class="node"><title>Node33</title>
<polygon fill="none" stroke="#bfbfbf" points="545,-285.5 545,-305.5 591,-305.5 591,-285.5 545,-285.5"/>
<text text-anchor="middle" x="568" y="-292.7" font-family="Helvetica,sans-Serif" font-size="11.00">cmath</text>
</g>
<!-- Node2&#45;&gt;Node33 -->
<g id="edge43" class="edge"><title>Node2&#45;&gt;Node33</title>
<path fill="none" stroke="midnightblue" d="M496.201,-342.418C509.521,-333.899 529.665,-321.017 545.229,-311.063"/>
<polygon fill="midnightblue" stroke="midnightblue" points="547.239,-313.932 553.778,-305.596 543.468,-308.035 547.239,-313.932"/>
</g>
<!-- Node4 -->
<g id="node4" class="node"><title>Node4</title>
<g id="a_node4"><a xlink:href="Solution_8h.xhtml" target="_top" xlink:title="Solution.h">
<polygon fill="none" stroke="black" points="354.5,-228.5 354.5,-248.5 419.5,-248.5 419.5,-228.5 354.5,-228.5"/>
<text text-anchor="middle" x="387" y="-235.7" font-family="Helvetica,sans-Serif" font-size="11.00">Solution.h</text>
</a>
</g>
</g>
<!-- Node3&#45;&gt;Node4 -->
<g id="edge3" class="edge"><title>Node3&#45;&gt;Node4</title>
<path fill="none" stroke="midnightblue" d="M387,-285.418C387,-278.216 387,-267.896 387,-258.863"/>
<polygon fill="midnightblue" stroke="midnightblue" points="390.5,-258.779 387,-248.779 383.5,-258.779 390.5,-258.779"/>
</g>
<!-- Node5 -->
<g id="node5" class="node"><title>Node5</title>
<g id="a_node5"><a xlink:href="ConstraintViolation_8h.xhtml" target="_top" xlink:title="ConstraintViolation.h">
<polygon fill="none" stroke="black" points="116,-171.5 116,-191.5 232,-191.5 232,-171.5 116,-171.5"/>
<text text-anchor="middle" x="174" y="-178.7" font-family="Helvetica,sans-Serif" font-size="11.00">ConstraintViolation.h</text>
</a>
</g>
</g>
<!-- Node4&#45;&gt;Node5 -->
<g id="edge4" class="edge"><title>Node4&#45;&gt;Node5</title>
<path fill="none" stroke="midnightblue" d="M354.186,-229.027C317.931,-219.665 259.333,-204.534 218.854,-194.082"/>
<polygon fill="midnightblue" stroke="midnightblue" points="219.535,-190.643 208.978,-191.532 217.785,-197.421 219.535,-190.643"/>
</g>
<!-- Node6 -->
<g id="node6" class="node"><title>Node6</title>
<polygon fill="none" stroke="#bfbfbf" points="100,-114.5 100,-134.5 162,-134.5 162,-114.5 100,-114.5"/>
<text text-anchor="middle" x="131" y="-121.7" font-family="Helvetica,sans-Serif" font-size="11.00">stdexcept</text>
</g>
<!-- Node4&#45;&gt;Node6 -->
<g id="edge35" class="edge"><title>Node4&#45;&gt;Node6</title>
<path fill="none" stroke="midnightblue" d="M354.246,-237.252C287.298,-235.976 138.431,-228.95 107,-192 95.014,-177.909 105.46,-157.36 116.08,-142.841"/>
<polygon fill="midnightblue" stroke="midnightblue" points="119.064,-144.709 122.515,-134.692 113.571,-140.371 119.064,-144.709"/>
</g>
<!-- Node7 -->
<g id="node7" class="node"><title>Node7</title>
<g id="a_node7"><a xlink:href="Position_8h.xhtml" target="_top" xlink:title="Position.h">
<polygon fill="none" stroke="black" points="250,-171.5 250,-191.5 314,-191.5 314,-171.5 250,-171.5"/>
<text text-anchor="middle" x="282" y="-178.7" font-family="Helvetica,sans-Serif" font-size="11.00">Position.h</text>
</a>
</g>
</g>
<!-- Node4&#45;&gt;Node7 -->
<g id="edge6" class="edge"><title>Node4&#45;&gt;Node7</title>
<path fill="none" stroke="midnightblue" d="M369.661,-228.418C353.018,-219.7 327.651,-206.412 308.479,-196.37"/>
<polygon fill="midnightblue" stroke="midnightblue" points="309.847,-193.135 299.364,-191.596 306.599,-199.336 309.847,-193.135"/>
</g>
<!-- Node8 -->
<g id="node8" class="node"><title>Node8</title>
<polygon fill="none" stroke="#bfbfbf" points="256.5,-114.5 256.5,-134.5 299.5,-134.5 299.5,-114.5 256.5,-114.5"/>
<text text-anchor="middle" x="278" y="-121.7" font-family="Helvetica,sans-Serif" font-size="11.00">string</text>
</g>
<!-- Node4&#45;&gt;Node8 -->
<g id="edge36" class="edge"><title>Node4&#45;&gt;Node8</title>
<path fill="none" stroke="midnightblue" d="M409.492,-228.461C436.208,-216.412 475.023,-193.932 457,-171 417.049,-120.166 377.955,-149.946 309.491,-134.761"/>
<polygon fill="midnightblue" stroke="midnightblue" points="310.182,-131.326 299.633,-132.307 308.491,-138.119 310.182,-131.326"/>
</g>
<!-- Node9 -->
<g id="node9" class="node"><title>Node9</title>
<g id="a_node9"><a xlink:href="Fitness_8h.xhtml" target="_top" xlink:title="Fitness.h">
<polygon fill="none" stroke="black" points="0,-171.5 0,-191.5 60,-191.5 60,-171.5 0,-171.5"/>
<text text-anchor="middle" x="30" y="-178.7" font-family="Helvetica,sans-Serif" font-size="11.00">Fitness.h</text>
</a>
</g>
</g>
<!-- Node4&#45;&gt;Node9 -->
<g id="edge9" class="edge"><title>Node4&#45;&gt;Node9</title>
<path fill="none" stroke="midnightblue" d="M354.439,-233.511C297.419,-226.361 175.863,-210.378 74,-192 72.7454,-191.774 71.4721,-191.538 70.1875,-191.294"/>
<polygon fill="midnightblue" stroke="midnightblue" points="70.7336,-187.834 60.2426,-189.314 69.3666,-194.699 70.7336,-187.834"/>
</g>
<!-- Node10 -->
<g id="node10" class="node"><title>Node10</title>
<g id="a_node10"><a xlink:href="Region_8h.xhtml" target="_top" xlink:title="Region.h">
<polygon fill="none" stroke="black" points="505,-171.5 505,-191.5 565,-191.5 565,-171.5 505,-171.5"/>
<text text-anchor="middle" x="535" y="-178.7" font-family="Helvetica,sans-Serif" font-size="11.00">Region.h</text>
</a>
</g>
</g>
<!-- Node4&#45;&gt;Node10 -->
<g id="edge11" class="edge"><title>Node4&#45;&gt;Node10</title>
<path fill="none" stroke="midnightblue" d="M411.439,-228.418C435.862,-219.342 473.614,-205.312 500.963,-195.149"/>
<polygon fill="midnightblue" stroke="midnightblue" points="502.37,-198.36 510.525,-191.596 499.932,-191.798 502.37,-198.36"/>
</g>
<!-- Node17 -->
<g id="node17" class="node"><title>Node17</title>
<g id="a_node17"><a xlink:href="THUtil_8h.xhtml" target="_top" xlink:title="THUtil.h">
<polygon fill="none" stroke="black" points="855,-171.5 855,-191.5 911,-191.5 911,-171.5 855,-171.5"/>
<text text-anchor="middle" x="883" y="-178.7" font-family="Helvetica,sans-Serif" font-size="11.00">THUtil.h</text>
</a>
</g>
</g>
<!-- Node4&#45;&gt;Node17 -->
<g id="edge20" class="edge"><title>Node4&#45;&gt;Node17</title>
<path fill="none" stroke="midnightblue" d="M419.544,-233.891C507.623,-224.124 750.373,-197.207 844.758,-186.74"/>
<polygon fill="midnightblue" stroke="midnightblue" points="845.179,-190.215 854.732,-185.635 844.407,-183.258 845.179,-190.215"/>
</g>
<!-- Node28 -->
<g id="node28" class="node"><title>Node28</title>
<polygon fill="none" stroke="#bfbfbf" points="332.5,-171.5 332.5,-191.5 375.5,-191.5 375.5,-171.5 332.5,-171.5"/>
<text text-anchor="middle" x="354" y="-178.7" font-family="Helvetica,sans-Serif" font-size="11.00">mpi.h</text>
</g>
<!-- Node4&#45;&gt;Node28 -->
<g id="edge33" class="edge"><title>Node4&#45;&gt;Node28</title>
<path fill="none" stroke="midnightblue" d="M381.551,-228.418C376.992,-220.821 370.352,-209.753 364.732,-200.387"/>
<polygon fill="midnightblue" stroke="midnightblue" points="367.714,-198.554 359.568,-191.779 361.711,-202.155 367.714,-198.554"/>
</g>
<!-- Node29 -->
<g id="node29" class="node"><title>Node29</title>
<polygon fill="none" stroke="#bfbfbf" points="393.5,-171.5 393.5,-191.5 448.5,-191.5 448.5,-171.5 393.5,-171.5"/>
<text text-anchor="middle" x="421" y="-178.7" font-family="Helvetica,sans-Serif" font-size="11.00">stddef.h</text>
</g>
<!-- Node4&#45;&gt;Node29 -->
<g id="edge34" class="edge"><title>Node4&#45;&gt;Node29</title>
<path fill="none" stroke="midnightblue" d="M392.614,-228.418C397.311,-220.821 404.153,-209.753 409.943,-200.387"/>
<polygon fill="midnightblue" stroke="midnightblue" points="412.982,-202.126 415.264,-191.779 407.028,-198.445 412.982,-202.126"/>
</g>
<!-- Node5&#45;&gt;Node6 -->
<g id="edge5" class="edge"><title>Node5&#45;&gt;Node6</title>
<path fill="none" stroke="midnightblue" d="M166.899,-171.418C160.836,-163.662 151.945,-152.29 144.528,-142.803"/>
<polygon fill="midnightblue" stroke="midnightblue" points="147.171,-140.502 138.255,-134.779 141.657,-144.813 147.171,-140.502"/>
</g>
<!-- Node7&#45;&gt;Node6 -->
<g id="edge7" class="edge"><title>Node7&#45;&gt;Node6</title>
<path fill="none" stroke="midnightblue" d="M257.065,-171.418C232.073,-162.315 193.399,-148.228 165.476,-138.058"/>
<polygon fill="midnightblue" stroke="midnightblue" points="166.315,-134.638 155.721,-134.504 163.919,-141.215 166.315,-134.638"/>
</g>
<!-- Node7&#45;&gt;Node8 -->
<g id="edge8" class="edge"><title>Node7&#45;&gt;Node8</title>
<path fill="none" stroke="midnightblue" d="M281.339,-171.418C280.816,-164.216 280.065,-153.896 279.408,-144.863"/>
<polygon fill="midnightblue" stroke="midnightblue" points="282.891,-144.499 278.675,-134.779 275.91,-145.007 282.891,-144.499"/>
</g>
<!-- Node9&#45;&gt;Node6 -->
<g id="edge10" class="edge"><title>Node9&#45;&gt;Node6</title>
<path fill="none" stroke="midnightblue" d="M46.6781,-171.418C62.614,-162.74 86.8659,-149.533 105.277,-139.508"/>
<polygon fill="midnightblue" stroke="midnightblue" points="107.189,-142.452 114.297,-134.596 103.841,-136.304 107.189,-142.452"/>
</g>
<!-- Node11 -->
<g id="node11" class="node"><title>Node11</title>
<g id="a_node11"><a xlink:href="Dimension_8h.xhtml" target="_top" xlink:title="Dimension.h">
<polygon fill="none" stroke="black" points="432.5,-114.5 432.5,-134.5 509.5,-134.5 509.5,-114.5 432.5,-114.5"/>
<text text-anchor="middle" x="471" y="-121.7" font-family="Helvetica,sans-Serif" font-size="11.00">Dimension.h</text>
</a>
</g>
</g>
<!-- Node10&#45;&gt;Node11 -->
<g id="edge12" class="edge"><title>Node10&#45;&gt;Node11</title>
<path fill="none" stroke="midnightblue" d="M524.432,-171.418C514.947,-163.267 500.813,-151.12 489.463,-141.367"/>
<polygon fill="midnightblue" stroke="midnightblue" points="491.663,-138.643 481.798,-134.779 487.101,-143.952 491.663,-138.643"/>
</g>
<!-- Node12 -->
<g id="node12" class="node"><title>Node12</title>
<g id="a_node12"><a xlink:href="Partition_8h.xhtml" target="_top" xlink:title="Partition.h">
<polygon fill="none" stroke="black" points="438.5,-57.5 438.5,-77.5 503.5,-77.5 503.5,-57.5 438.5,-57.5"/>
<text text-anchor="middle" x="471" y="-64.7" font-family="Helvetica,sans-Serif" font-size="11.00">Partition.h</text>
</a>
</g>
</g>
<!-- Node10&#45;&gt;Node12 -->
<g id="edge15" class="edge"><title>Node10&#45;&gt;Node12</title>
<path fill="none" stroke="midnightblue" d="M504.903,-172.386C475.084,-163.667 432.522,-149.146 423,-135 410.906,-117.033 430.13,-96.9396 447.725,-83.5899"/>
<polygon fill="midnightblue" stroke="midnightblue" points="449.984,-86.2774 456.088,-77.617 445.916,-80.5812 449.984,-86.2774"/>
</g>
<!-- Node13 -->
<g id="node13" class="node"><title>Node13</title>
<polygon fill="none" stroke="#bfbfbf" points="870.5,-0.5 870.5,-20.5 917.5,-20.5 917.5,-0.5 870.5,-0.5"/>
<text text-anchor="middle" x="894" y="-7.7" font-family="Helvetica,sans-Serif" font-size="11.00">cstdlib</text>
</g>
<!-- Node10&#45;&gt;Node13 -->
<g id="edge17" class="edge"><title>Node10&#45;&gt;Node13</title>
<path fill="none" stroke="midnightblue" d="M537.374,-171.207C541.366,-157.216 550.637,-130.613 567,-114 648.072,-31.69 794.306,-15.2742 860.195,-12.1455"/>
<polygon fill="midnightblue" stroke="midnightblue" points="860.575,-15.6333 870.427,-11.7375 860.296,-8.63884 860.575,-15.6333"/>
</g>
<!-- Node14 -->
<g id="node14" class="node"><title>Node14</title>
<polygon fill="none" stroke="#bfbfbf" points="970,-114.5 970,-134.5 1008,-134.5 1008,-114.5 970,-114.5"/>
<text text-anchor="middle" x="989" y="-121.7" font-family="Helvetica,sans-Serif" font-size="11.00">map</text>
</g>
<!-- Node10&#45;&gt;Node14 -->
<g id="edge16" class="edge"><title>Node10&#45;&gt;Node14</title>
<path fill="none" stroke="midnightblue" d="M565.061,-179.564C633.695,-176.946 807.148,-167.605 959.852,-134.804"/>
<polygon fill="midnightblue" stroke="midnightblue" points="960.858,-138.166 969.879,-132.609 959.361,-131.328 960.858,-138.166"/>
</g>
<!-- Node15 -->
<g id="node15" class="node"><title>Node15</title>
<polygon fill="none" stroke="#bfbfbf" points="690.5,-57.5 690.5,-77.5 745.5,-77.5 745.5,-57.5 690.5,-57.5"/>
<text text-anchor="middle" x="718" y="-64.7" font-family="Helvetica,sans-Serif" font-size="11.00">sstream</text>
</g>
<!-- Node10&#45;&gt;Node15 -->
<g id="edge18" class="edge"><title>Node10&#45;&gt;Node15</title>
<path fill="none" stroke="midnightblue" d="M540.948,-171.487C550.68,-157.382 571.314,-130.049 595,-114 621.125,-96.2982 655.016,-84.427 680.606,-77.2619"/>
<polygon fill="midnightblue" stroke="midnightblue" points="681.569,-80.6273 690.32,-74.6546 679.754,-73.8665 681.569,-80.6273"/>
</g>
<!-- Node16 -->
<g id="node16" class="node"><title>Node16</title>
<polygon fill="none" stroke="#bfbfbf" points="318,-114.5 318,-134.5 376,-134.5 376,-114.5 318,-114.5"/>
<text text-anchor="middle" x="347" y="-121.7" font-family="Helvetica,sans-Serif" font-size="11.00">iostream</text>
</g>
<!-- Node10&#45;&gt;Node16 -->
<g id="edge19" class="edge"><title>Node10&#45;&gt;Node16</title>
<path fill="none" stroke="midnightblue" d="M504.795,-171.663C472.58,-162.239 421.439,-147.277 386.155,-136.955"/>
<polygon fill="midnightblue" stroke="midnightblue" points="386.783,-133.492 376.203,-134.043 384.817,-140.21 386.783,-133.492"/>
</g>
<!-- Node11&#45;&gt;Node12 -->
<g id="edge13" class="edge"><title>Node11&#45;&gt;Node12</title>
<path fill="none" stroke="midnightblue" d="M471,-114.418C471,-107.216 471,-96.8962 471,-87.8632"/>
<polygon fill="midnightblue" stroke="midnightblue" points="474.5,-87.7794 471,-77.7795 467.5,-87.7795 474.5,-87.7794"/>
</g>
<!-- Node12&#45;&gt;Node13 -->
<g id="edge14" class="edge"><title>Node12&#45;&gt;Node13</title>
<path fill="none" stroke="midnightblue" d="M503.749,-60.3393C510.438,-59.1629 517.437,-57.9909 524,-57 647.361,-38.3734 794.735,-21.9995 860.01,-15.0472"/>
<polygon fill="midnightblue" stroke="midnightblue" points="860.555,-18.5092 870.13,-13.9749 859.817,-11.5482 860.555,-18.5092"/>
</g>
<!-- Node17&#45;&gt;Node13 -->
<g id="edge24" class="edge"><title>Node17&#45;&gt;Node13</title>
<path fill="none" stroke="midnightblue" d="M911.19,-178.916C990.292,-174.185 1209.95,-158.984 1231,-135 1318.24,-35.6078 1029.19,-16.1333 927.824,-12.3796"/>
<polygon fill="midnightblue" stroke="midnightblue" points="927.905,-8.88042 917.792,-12.0373 927.666,-15.8763 927.905,-8.88042"/>
</g>
<!-- Node18 -->
<g id="node18" class="node"><title>Node18</title>
<polygon fill="none" stroke="#bfbfbf" points="1170,-114.5 1170,-134.5 1222,-134.5 1222,-114.5 1170,-114.5"/>
<text text-anchor="middle" x="1196" y="-121.7" font-family="Helvetica,sans-Serif" font-size="11.00">string.h</text>
</g>
<!-- Node17&#45;&gt;Node18 -->
<g id="edge21" class="edge"><title>Node17&#45;&gt;Node18</title>
<path fill="none" stroke="midnightblue" d="M911.196,-176.862C959.943,-170.363 1063.27,-155.668 1159.78,-135.091"/>
<polygon fill="midnightblue" stroke="midnightblue" points="1160.66,-138.482 1169.7,-132.95 1159.18,-131.639 1160.66,-138.482"/>
</g>
<!-- Node19 -->
<g id="node19" class="node"><title>Node19</title>
<polygon fill="none" stroke="#bfbfbf" points="1098.5,-114.5 1098.5,-134.5 1151.5,-134.5 1151.5,-114.5 1098.5,-114.5"/>
<text text-anchor="middle" x="1125" y="-121.7" font-family="Helvetica,sans-Serif" font-size="11.00">random</text>
</g>
<!-- Node17&#45;&gt;Node19 -->
<g id="edge22" class="edge"><title>Node17&#45;&gt;Node19</title>
<path fill="none" stroke="midnightblue" d="M911.072,-174.677C949.012,-166.726 1018.99,-151.773 1088.49,-135.048"/>
<polygon fill="midnightblue" stroke="midnightblue" points="1089.4,-138.43 1098.29,-132.676 1087.75,-131.626 1089.4,-138.43"/>
</g>
<!-- Node20 -->
<g id="node20" class="node"><title>Node20</title>
<polygon fill="none" stroke="#bfbfbf" points="604,-114.5 604,-134.5 648,-134.5 648,-114.5 604,-114.5"/>
<text text-anchor="middle" x="626" y="-121.7" font-family="Helvetica,sans-Serif" font-size="11.00">cstdio</text>
</g>
<!-- Node17&#45;&gt;Node20 -->
<g id="edge23" class="edge"><title>Node17&#45;&gt;Node20</title>
<path fill="none" stroke="midnightblue" d="M854.966,-175.775C813.811,-168.64 734.47,-154.136 658.062,-135.084"/>
<polygon fill="midnightblue" stroke="midnightblue" points="658.829,-131.668 648.277,-132.614 657.116,-138.455 658.829,-131.668"/>
</g>
<!-- Node21 -->
<g id="node21" class="node"><title>Node21</title>
<polygon fill="none" stroke="#bfbfbf" points="666.5,-114.5 666.5,-134.5 719.5,-134.5 719.5,-114.5 666.5,-114.5"/>
<text text-anchor="middle" x="693" y="-121.7" font-family="Helvetica,sans-Serif" font-size="11.00">fstream</text>
</g>
<!-- Node17&#45;&gt;Node21 -->
<g id="edge25" class="edge"><title>Node17&#45;&gt;Node21</title>
<path fill="none" stroke="midnightblue" d="M854.965,-172.385C821.658,-162.743 766.006,-146.633 729.401,-136.037"/>
<polygon fill="midnightblue" stroke="midnightblue" points="730.194,-132.623 719.616,-133.205 728.248,-139.347 730.194,-132.623"/>
</g>
<!-- Node22 -->
<g id="node22" class="node"><title>Node22</title>
<polygon fill="none" stroke="#bfbfbf" points="738,-114.5 738,-134.5 800,-134.5 800,-114.5 738,-114.5"/>
<text text-anchor="middle" x="769" y="-121.7" font-family="Helvetica,sans-Serif" font-size="11.00">sys/stat.h</text>
</g>
<!-- Node17&#45;&gt;Node22 -->
<g id="edge26" class="edge"><title>Node17&#45;&gt;Node22</title>
<path fill="none" stroke="midnightblue" d="M864.175,-171.418C845.858,-162.581 817.807,-149.047 796.897,-138.959"/>
<polygon fill="midnightblue" stroke="midnightblue" points="798.38,-135.789 787.853,-134.596 795.338,-142.093 798.38,-135.789"/>
</g>
<!-- Node23 -->
<g id="node23" class="node"><title>Node23</title>
<polygon fill="none" stroke="#bfbfbf" points="818,-114.5 818,-134.5 872,-134.5 872,-114.5 818,-114.5"/>
<text text-anchor="middle" x="845" y="-121.7" font-family="Helvetica,sans-Serif" font-size="11.00">libgen.h</text>
</g>
<!-- Node17&#45;&gt;Node23 -->
<g id="edge27" class="edge"><title>Node17&#45;&gt;Node23</title>
<path fill="none" stroke="midnightblue" d="M876.725,-171.418C871.421,-163.742 863.67,-152.522 857.156,-143.094"/>
<polygon fill="midnightblue" stroke="midnightblue" points="859.975,-141.017 851.411,-134.779 854.216,-144.996 859.975,-141.017"/>
</g>
<!-- Node24 -->
<g id="node24" class="node"><title>Node24</title>
<g id="a_node24"><a xlink:href="macros_8h.xhtml" target="_top" xlink:title="Macros and constants must defined in this file. ">
<polygon fill="none" stroke="black" points="890.5,-114.5 890.5,-134.5 951.5,-134.5 951.5,-114.5 890.5,-114.5"/>
<text text-anchor="middle" x="921" y="-121.7" font-family="Helvetica,sans-Serif" font-size="11.00">macros.h</text>
</a>
</g>
</g>
<!-- Node17&#45;&gt;Node24 -->
<g id="edge28" class="edge"><title>Node17&#45;&gt;Node24</title>
<path fill="none" stroke="midnightblue" d="M889.275,-171.418C894.579,-163.742 902.33,-152.522 908.844,-143.094"/>
<polygon fill="midnightblue" stroke="midnightblue" points="911.784,-144.996 914.589,-134.779 906.025,-141.017 911.784,-144.996"/>
</g>
<!-- Node27 -->
<g id="node27" class="node"><title>Node27</title>
<g id="a_node27"><a xlink:href="config_8h.xhtml" target="_top" xlink:title="Global configurations must be set in this file. ">
<polygon fill="none" stroke="black" points="1026,-114.5 1026,-134.5 1080,-134.5 1080,-114.5 1026,-114.5"/>
<text text-anchor="middle" x="1053" y="-121.7" font-family="Helvetica,sans-Serif" font-size="11.00">config.h</text>
</a>
</g>
</g>
<!-- Node17&#45;&gt;Node27 -->
<g id="edge32" class="edge"><title>Node17&#45;&gt;Node27</title>
<path fill="none" stroke="midnightblue" d="M911.072,-171.418C939.75,-162.14 984.427,-147.685 1015.98,-137.476"/>
<polygon fill="midnightblue" stroke="midnightblue" points="1017.29,-140.731 1025.73,-134.322 1015.14,-134.071 1017.29,-140.731"/>
</g>
<!-- Node24&#45;&gt;Node15 -->
<g id="edge31" class="edge"><title>Node24&#45;&gt;Node15</title>
<path fill="none" stroke="midnightblue" d="M890.169,-115.147C854.024,-105.354 794.143,-89.1298 755.384,-78.6286"/>
<polygon fill="midnightblue" stroke="midnightblue" points="756.098,-75.1961 745.531,-75.9591 754.268,-81.9525 756.098,-75.1961"/>
</g>
<!-- Node25 -->
<g id="node25" class="node"><title>Node25</title>
<polygon fill="none" stroke="#bfbfbf" points="934,-57.5 934,-77.5 982,-77.5 982,-57.5 934,-57.5"/>
<text text-anchor="middle" x="958" y="-64.7" font-family="Helvetica,sans-Serif" font-size="11.00">stdio.h</text>
</g>
<!-- Node24&#45;&gt;Node25 -->
<g id="edge29" class="edge"><title>Node24&#45;&gt;Node25</title>
<path fill="none" stroke="midnightblue" d="M927.11,-114.418C932.274,-106.742 939.822,-95.5217 946.164,-86.0945"/>
<polygon fill="midnightblue" stroke="midnightblue" points="949.08,-88.0303 951.757,-77.7795 943.272,-84.1231 949.08,-88.0303"/>
</g>
<!-- Node26 -->
<g id="node26" class="node"><title>Node26</title>
<polygon fill="none" stroke="#bfbfbf" points="850.5,-57.5 850.5,-77.5 915.5,-77.5 915.5,-57.5 850.5,-57.5"/>
<text text-anchor="middle" x="883" y="-64.7" font-family="Helvetica,sans-Serif" font-size="11.00">sys/time.h</text>
</g>
<!-- Node24&#45;&gt;Node26 -->
<g id="edge30" class="edge"><title>Node24&#45;&gt;Node26</title>
<path fill="none" stroke="midnightblue" d="M914.725,-114.418C909.421,-106.742 901.67,-95.5217 895.156,-86.0945"/>
<polygon fill="midnightblue" stroke="midnightblue" points="897.975,-84.0173 889.411,-77.7795 892.216,-87.9963 897.975,-84.0173"/>
</g>
<!-- Node30&#45;&gt;Node4 -->
<g id="edge38" class="edge"><title>Node30&#45;&gt;Node4</title>
<path fill="none" stroke="midnightblue" d="M466.313,-285.418C451.461,-276.82 428.93,-263.775 411.673,-253.784"/>
<polygon fill="midnightblue" stroke="midnightblue" points="413.119,-250.577 402.711,-248.596 409.611,-256.635 413.119,-250.577"/>
</g>
<!-- Node31 -->
<g id="node31" class="node"><title>Node31</title>
<g id="a_node31"><a xlink:href="THTree_8h.xhtml" target="_top" xlink:title="THTree.h">
<polygon fill="none" stroke="black" points="1106.5,-171.5 1106.5,-191.5 1169.5,-191.5 1169.5,-171.5 1106.5,-171.5"/>
<text text-anchor="middle" x="1138" y="-178.7" font-family="Helvetica,sans-Serif" font-size="11.00">THTree.h</text>
</a>
</g>
</g>
<!-- Node30&#45;&gt;Node31 -->
<g id="edge39" class="edge"><title>Node30&#45;&gt;Node31</title>
<path fill="none" stroke="midnightblue" d="M526.786,-286.602C529.904,-286.058 532.999,-285.52 536,-285 746.403,-248.58 998.367,-206.021 1096.26,-189.526"/>
<polygon fill="midnightblue" stroke="midnightblue" points="1097.05,-192.941 1106.33,-187.829 1095.89,-186.039 1097.05,-192.941"/>
</g>
<!-- Node31&#45;&gt;Node13 -->
<g id="edge42" class="edge"><title>Node31&#45;&gt;Node13</title>
<path fill="none" stroke="midnightblue" d="M1169.62,-177.308C1196.3,-172.758 1232.95,-161.727 1251,-135 1263.77,-116.094 1251.79,-70.264 1237,-57 1191.93,-16.5949 1005.27,-11.6079 927.866,-11.3152"/>
<polygon fill="midnightblue" stroke="midnightblue" points="927.7,-7.81508 917.695,-11.3019 927.69,-14.8151 927.7,-7.81508"/>
</g>
<!-- Node31&#45;&gt;Node14 -->
<g id="edge40" class="edge"><title>Node31&#45;&gt;Node14</title>
<path fill="none" stroke="midnightblue" d="M1113.4,-171.418C1087.19,-161.744 1045.74,-146.443 1017.97,-136.193"/>
<polygon fill="midnightblue" stroke="midnightblue" points="1019.01,-132.845 1008.41,-132.666 1016.58,-139.412 1019.01,-132.845"/>
</g>
<!-- Node32 -->
<g id="node32" class="node"><title>Node32</title>
<polygon fill="none" stroke="#bfbfbf" points="1316,-114.5 1316,-134.5 1362,-134.5 1362,-114.5 1316,-114.5"/>
<text text-anchor="middle" x="1339" y="-121.7" font-family="Helvetica,sans-Serif" font-size="11.00">vector</text>
</g>
<!-- Node31&#45;&gt;Node32 -->
<g id="edge41" class="edge"><title>Node31&#45;&gt;Node32</title>
<path fill="none" stroke="midnightblue" d="M1169.85,-171.785C1206.98,-161.624 1268.07,-144.908 1305.78,-134.589"/>
<polygon fill="midnightblue" stroke="midnightblue" points="1307.04,-137.875 1315.76,-131.859 1305.19,-131.123 1307.04,-137.875"/>
</g>
</g>
</svg>
        <g id="navigator" transform="translate(0 0)" fill="#404254">
                <rect fill="#f2f5e9" fill-opacity="0.5" stroke="#606060" stroke-width=".5" x="0" y="0" width="60" height="60"/>
                <use id="zoomplus" xlink:href="#zoomPlus" x="17" y="9" onmousedown="handleZoom(evt,'in')"/>
                <use id="zoomminus" xlink:href="#zoomMin" x="42" y="9" onmousedown="handleZoom(evt,'out')"/>
                <use id="reset" xlink:href="#resetDef" x="30" y="36" onmousedown="handleReset()"/>
                <g id="arrowUp" xlink:href="#dirArrow" transform="translate(30 24)" onmousedown="handlePan(0,-1)">
                  <use xlink:href="#rim" fill="#404040">
                        <set attributeName="fill" to="#808080" begin="arrowUp.mouseover" end="arrowUp.mouseout"/>
                  </use>
                  <path fill="none" stroke="white" stroke-width="1.5" d="M0,-3.0v7 M-2.5,-0.5L0,-3.0L2.5,-0.5"/>
                </g>
                <g id="arrowRight" xlink:href="#dirArrow" transform="rotate(90) translate(36 -43)" onmousedown="handlePan(1,0)">
                  <use xlink:href="#rim" fill="#404040">
                        <set attributeName="fill" to="#808080" begin="arrowRight.mouseover" end="arrowRight.mouseout"/>
                  </use>
                  <path fill="none" stroke="white" stroke-width="1.5" d="M0,-3.0v7 M-2.5,-0.5L0,-3.0L2.5,-0.5"/>
                </g>
                <g id="arrowDown" xlink:href="#dirArrow" transform="rotate(180) translate(-30 -48)" onmousedown="handlePan(0,1)">
                  <use xlink:href="#rim" fill="#404040">
                        <set attributeName="fill" to="#808080" begin="arrowDown.mouseover" end="arrowDown.mouseout"/>
                  </use>
                  <path fill="none" stroke="white" stroke-width="1.5" d="M0,-3.0v7 M-2.5,-0.5L0,-3.0L2.5,-0.5"/>
                </g>
                <g id="arrowLeft" xlink:href="#dirArrow" transform="rotate(270) translate(-36 17)" onmousedown="handlePan(-1,0)">
                  <use xlink:href="#rim" fill="#404040">
                        <set attributeName="fill" to="#808080" begin="arrowLeft.mouseover" end="arrowLeft.mouseout"/>
                  </use>
                  <path fill="none" stroke="white" stroke-width="1.5" d="M0,-3.0v7 M-2.5,-0.5L0,-3.0L2.5,-0.5"/>
                </g>
        </g>
        <svg viewBox="0 0 15 15" width="100%" height="30px" preserveAspectRatio="xMaxYMin meet">
         <g id="arrow_out" transform="scale(0.3 0.3)">
          <a xlink:href="DivergentBestListUpdatePolicy_8h__incl_org.svg" target="_base">
           <rect id="button" ry="5" rx="5" y="6" x="6" height="38" width="38"
                fill="#f2f5e9" fill-opacity="0.5" stroke="#606060" stroke-width="1.0"/>
           <path id="arrow"
             d="M 11.500037,31.436501 C 11.940474,20.09759 22.043105,11.32322 32.158766,21.979434 L 37.068811,17.246167 C 37.068811,17.246167 37.088388,32 37.088388,32 L 22.160133,31.978069 C 22.160133,31.978069 26.997745,27.140456 26.997745,27.140456 C 18.528582,18.264221 13.291696,25.230495 11.500037,31.436501 z"
             style="fill:#404040;"/>
          </a>
         </g>
        </svg>
</svg>
