<?xml version="1.0" encoding="UTF-8" standalone="no"?>
<!DOCTYPE svg PUBLIC "-//W3C//DTD SVG 1.1//EN"
 "http://www.w3.org/Graphics/SVG/1.1/DTD/svg11.dtd">
<!-- Generated by graphviz version 2.38.0 (20140413.2041)
 -->
<!-- Title: src/TH/FitnessPolicy.h Pages: 1 -->
<svg width="1263pt" height="338pt"
 viewBox="0.00 0.00 1263.42 338.00" xmlns="http://www.w3.org/2000/svg" xmlns:xlink="http://www.w3.org/1999/xlink">
<g id="graph0" class="graph" transform="scale(1 1) rotate(0) translate(4 334)">
<title>src/TH/FitnessPolicy.h</title>
<!-- Node1 -->
<g id="node1" class="node"><title>Node1</title>
<polygon fill="#bfbfbf" stroke="black" points="377,-309.5 377,-329.5 501,-329.5 501,-309.5 377,-309.5"/>
<text text-anchor="middle" x="439" y="-316.7" font-family="Helvetica,sans-Serif" font-size="11.00">src/TH/FitnessPolicy.h</text>
</g>
<!-- Node2 -->
<g id="node2" class="node"><title>Node2</title>
<g id="a_node2"><a xlink:href="BestListUpdatePolicy_8h.xhtml" target="_top" xlink:title="src/TH/BestListUpdatePolicy.h">
<polygon fill="none" stroke="black" points="134.5,-132.5 134.5,-152.5 297.5,-152.5 297.5,-132.5 134.5,-132.5"/>
<text text-anchor="middle" x="216" y="-139.7" font-family="Helvetica,sans-Serif" font-size="11.00">src/TH/BestListUpdatePolicy.h</text>
</a>
</g>
</g>
<!-- Node1&#45;&gt;Node2 -->
<g id="edge1" class="edge"><title>Node1&#45;&gt;Node2</title>
<path fill="none" stroke="midnightblue" d="M409.182,-304.938C392.344,-296.701 371.278,-285.402 354,-273 299.55,-233.917 244.248,-174.889 224.029,-152.521"/>
<polygon fill="midnightblue" stroke="midnightblue" points="408.015,-308.26 418.547,-309.419 411.037,-301.945 408.015,-308.26"/>
</g>
<!-- Node4 -->
<g id="node4" class="node"><title>Node4</title>
<g id="a_node4"><a xlink:href="THBuilder_8h.xhtml" target="_top" xlink:title="src/TH/THBuilder.h">
<polygon fill="none" stroke="black" points="428,-0.5 428,-20.5 538,-20.5 538,-0.5 428,-0.5"/>
<text text-anchor="middle" x="483" y="-7.7" font-family="Helvetica,sans-Serif" font-size="11.00">src/TH/THBuilder.h</text>
</a>
</g>
</g>
<!-- Node1&#45;&gt;Node4 -->
<g id="edge23" class="edge"><title>Node1&#45;&gt;Node4</title>
<path fill="none" stroke="midnightblue" d="M420.438,-302.413C399.402,-282.293 368,-245.695 368,-206.5 368,-206.5 368,-206.5 368,-141.5 368,-83.3435 433.363,-38.9874 465.534,-20.678"/>
<polygon fill="midnightblue" stroke="midnightblue" points="418.179,-305.09 427.906,-309.288 422.92,-299.94 418.179,-305.09"/>
</g>
<!-- Node6 -->
<g id="node6" class="node"><title>Node6</title>
<g id="a_node6"><a xlink:href="Search_8h.xhtml" target="_top" xlink:title="src/TH/Search.h">
<polygon fill="none" stroke="black" points="507.5,-252.5 507.5,-272.5 602.5,-272.5 602.5,-252.5 507.5,-252.5"/>
<text text-anchor="middle" x="555" y="-259.7" font-family="Helvetica,sans-Serif" font-size="11.00">src/TH/Search.h</text>
</a>
</g>
</g>
<!-- Node1&#45;&gt;Node6 -->
<g id="edge6" class="edge"><title>Node1&#45;&gt;Node6</title>
<path fill="none" stroke="midnightblue" d="M467.354,-305.056C488.623,-294.972 517.168,-281.438 535.817,-272.596"/>
<polygon fill="midnightblue" stroke="midnightblue" points="465.691,-301.971 458.155,-309.418 468.69,-308.296 465.691,-301.971"/>
</g>
<!-- Node16 -->
<g id="node16" class="node"><title>Node16</title>
<g id="a_node16"><a xlink:href="RosenbrockFitnessPolicy_8h.xhtml" target="_top" xlink:title="src/RosenbrockFitnessPolicy.h">
<polygon fill="none" stroke="black" points="737,-252.5 737,-272.5 901,-272.5 901,-252.5 737,-252.5"/>
<text text-anchor="middle" x="819" y="-259.7" font-family="Helvetica,sans-Serif" font-size="11.00">src/RosenbrockFitnessPolicy.h</text>
</a>
</g>
</g>
<!-- Node1&#45;&gt;Node16 -->
<g id="edge24" class="edge"><title>Node1&#45;&gt;Node16</title>
<path fill="none" stroke="midnightblue" d="M511.522,-308.003C582.473,-297.734 689.399,-282.258 756.642,-272.525"/>
<polygon fill="midnightblue" stroke="midnightblue" points="510.719,-304.583 501.324,-309.479 511.722,-311.511 510.719,-304.583"/>
</g>
<!-- Node3 -->
<g id="node3" class="node"><title>Node3</title>
<g id="a_node3"><a xlink:href="ConvergentBestListUpdatePolicy_8h.xhtml" target="_top" xlink:title="src/TH/ConvergentBestList\lUpdatePolicy.h">
<polygon fill="none" stroke="black" points="0,-57.5 0,-89.5 146,-89.5 146,-57.5 0,-57.5"/>
<text text-anchor="start" x="8" y="-76.7" font-family="Helvetica,sans-Serif" font-size="11.00">src/TH/ConvergentBestList</text>
<text text-anchor="middle" x="73" y="-64.7" font-family="Helvetica,sans-Serif" font-size="11.00">UpdatePolicy.h</text>
</a>
</g>
</g>
<!-- Node2&#45;&gt;Node3 -->
<g id="edge2" class="edge"><title>Node2&#45;&gt;Node3</title>
<path fill="none" stroke="midnightblue" d="M187.508,-128.151C163.72,-117.005 129.825,-101.124 105.086,-89.5335"/>
<polygon fill="midnightblue" stroke="midnightblue" points="186.174,-131.391 196.714,-132.464 189.144,-125.052 186.174,-131.391"/>
</g>
<!-- Node2&#45;&gt;Node4 -->
<g id="edge5" class="edge"><title>Node2&#45;&gt;Node4</title>
<path fill="none" stroke="midnightblue" d="M203,-124.031C190.833,-105.388 176.768,-75.9773 193,-57 222.606,-22.3863 352.255,-13.9269 427.804,-11.9734"/>
<polygon fill="midnightblue" stroke="midnightblue" points="200.271,-126.238 208.849,-132.456 206.021,-122.246 200.271,-126.238"/>
</g>
<!-- Node5 -->
<g id="node5" class="node"><title>Node5</title>
<g id="a_node5"><a xlink:href="DivergentBestListUpdatePolicy_8h.xhtml" target="_top" xlink:title="src/TH/DivergentBestList\lUpdatePolicy.h">
<polygon fill="none" stroke="black" points="202.5,-57.5 202.5,-89.5 339.5,-89.5 339.5,-57.5 202.5,-57.5"/>
<text text-anchor="start" x="210.5" y="-76.7" font-family="Helvetica,sans-Serif" font-size="11.00">src/TH/DivergentBestList</text>
<text text-anchor="middle" x="271" y="-64.7" font-family="Helvetica,sans-Serif" font-size="11.00">UpdatePolicy.h</text>
</a>
</g>
</g>
<!-- Node2&#45;&gt;Node5 -->
<g id="edge4" class="edge"><title>Node2&#45;&gt;Node5</title>
<path fill="none" stroke="midnightblue" d="M229.878,-124.594C238.736,-113.803 250.117,-99.9396 258.659,-89.5335"/>
<polygon fill="midnightblue" stroke="midnightblue" points="227.057,-122.514 223.418,-132.464 232.468,-126.956 227.057,-122.514"/>
</g>
<!-- Node3&#45;&gt;Node4 -->
<g id="edge3" class="edge"><title>Node3&#45;&gt;Node4</title>
<path fill="none" stroke="midnightblue" d="M156.136,-57.6213C157.433,-57.4111 158.722,-57.2038 160,-57 253.812,-42.0408 363.37,-27.1494 427.756,-18.6602"/>
<polygon fill="midnightblue" stroke="midnightblue" points="155.365,-54.2011 146.069,-59.2833 156.505,-61.1077 155.365,-54.2011"/>
</g>
<!-- Node6&#45;&gt;Node4 -->
<g id="edge19" class="edge"><title>Node6&#45;&gt;Node4</title>
<path fill="none" stroke="midnightblue" d="M524.947,-247.876C493.417,-231.727 445.629,-201.536 425,-159 400.385,-108.246 452.385,-44.1931 474.081,-20.6865"/>
<polygon fill="midnightblue" stroke="midnightblue" points="523.647,-251.138 534.162,-252.435 526.751,-244.864 523.647,-251.138"/>
</g>
<!-- Node7 -->
<g id="node7" class="node"><title>Node7</title>
<g id="a_node7"><a xlink:href="ConvergenceControlPolicy_8h.xhtml" target="_top" xlink:title="src/TH/ConvergenceControl\lPolicy.h">
<polygon fill="none" stroke="black" points="434,-126.5 434,-158.5 586,-158.5 586,-126.5 434,-126.5"/>
<text text-anchor="start" x="442" y="-145.7" font-family="Helvetica,sans-Serif" font-size="11.00">src/TH/ConvergenceControl</text>
<text text-anchor="middle" x="510" y="-133.7" font-family="Helvetica,sans-Serif" font-size="11.00">Policy.h</text>
</a>
</g>
</g>
<!-- Node6&#45;&gt;Node7 -->
<g id="edge7" class="edge"><title>Node6&#45;&gt;Node7</title>
<path fill="none" stroke="midnightblue" d="M543.438,-243.801C538.463,-235.598 532.906,-225.565 529,-216 521.178,-196.847 515.743,-173.518 512.747,-158.589"/>
<polygon fill="midnightblue" stroke="midnightblue" points="540.591,-245.848 548.876,-252.452 546.517,-242.123 540.591,-245.848"/>
</g>
<!-- Node9 -->
<g id="node9" class="node"><title>Node9</title>
<g id="a_node9"><a xlink:href="SearchScore_8h.xhtml" target="_top" xlink:title="src/TH/SearchScore.h">
<polygon fill="none" stroke="black" points="538,-195.5 538,-215.5 662,-215.5 662,-195.5 538,-195.5"/>
<text text-anchor="middle" x="600" y="-202.7" font-family="Helvetica,sans-Serif" font-size="11.00">src/TH/SearchScore.h</text>
</a>
</g>
</g>
<!-- Node6&#45;&gt;Node9 -->
<g id="edge11" class="edge"><title>Node6&#45;&gt;Node9</title>
<path fill="none" stroke="midnightblue" d="M568.961,-244.437C576.696,-234.982 586.013,-223.596 592.408,-215.779"/>
<polygon fill="midnightblue" stroke="midnightblue" points="566.054,-242.462 562.431,-252.418 571.472,-246.895 566.054,-242.462"/>
</g>
<!-- Node14 -->
<g id="node14" class="node"><title>Node14</title>
<g id="a_node14"><a xlink:href="PSO_8h.xhtml" target="_top" xlink:title="src/PSO.h">
<polygon fill="none" stroke="black" points="680,-195.5 680,-215.5 746,-215.5 746,-195.5 680,-195.5"/>
<text text-anchor="middle" x="713" y="-202.7" font-family="Helvetica,sans-Serif" font-size="11.00">src/PSO.h</text>
</a>
</g>
</g>
<!-- Node6&#45;&gt;Node14 -->
<g id="edge20" class="edge"><title>Node6&#45;&gt;Node14</title>
<path fill="none" stroke="midnightblue" d="M590.557,-249.122C619.896,-238.91 660.836,-224.658 687.133,-215.504"/>
<polygon fill="midnightblue" stroke="midnightblue" points="589.384,-245.825 581.09,-252.418 591.685,-252.436 589.384,-245.825"/>
</g>
<!-- Node15 -->
<g id="node15" class="node"><title>Node15</title>
<g id="a_node15"><a xlink:href="HillClimbing_8h.xhtml" target="_top" xlink:title="src/HillClimbing.h">
<polygon fill="none" stroke="black" points="1038,-132.5 1038,-152.5 1138,-152.5 1138,-132.5 1038,-132.5"/>
<text text-anchor="middle" x="1088" y="-139.7" font-family="Helvetica,sans-Serif" font-size="11.00">src/HillClimbing.h</text>
</a>
</g>
</g>
<!-- Node6&#45;&gt;Node15 -->
<g id="edge21" class="edge"><title>Node6&#45;&gt;Node15</title>
<path fill="none" stroke="midnightblue" d="M612.579,-252.829C653.237,-245.647 708.53,-233.719 755,-216 773.03,-209.125 774.801,-201.414 793,-195 875.989,-165.751 978.188,-152.667 1037.92,-147.157"/>
<polygon fill="midnightblue" stroke="midnightblue" points="611.832,-249.406 602.572,-254.553 613.021,-256.304 611.832,-249.406"/>
</g>
<!-- Node7&#45;&gt;Node4 -->
<g id="edge10" class="edge"><title>Node7&#45;&gt;Node4</title>
<path fill="none" stroke="midnightblue" d="M482.91,-119.112C474.935,-110.883 467.221,-100.887 463,-90 453.645,-65.8725 468.07,-35.8751 476.924,-20.91"/>
<polygon fill="midnightblue" stroke="midnightblue" points="480.584,-121.731 490.215,-126.148 485.44,-116.689 480.584,-121.731"/>
</g>
<!-- Node8 -->
<g id="node8" class="node"><title>Node8</title>
<g id="a_node8"><a xlink:href="CSMOn_8h.xhtml" target="_top" xlink:title="src/TH/CSMOn.h">
<polygon fill="none" stroke="black" points="472,-63.5 472,-83.5 572,-83.5 572,-63.5 472,-63.5"/>
<text text-anchor="middle" x="522" y="-70.7" font-family="Helvetica,sans-Serif" font-size="11.00">src/TH/CSMOn.h</text>
</a>
</g>
</g>
<!-- Node7&#45;&gt;Node8 -->
<g id="edge8" class="edge"><title>Node7&#45;&gt;Node8</title>
<path fill="none" stroke="midnightblue" d="M514.506,-116.343C516.556,-104.897 518.854,-92.0643 520.359,-83.6646"/>
<polygon fill="midnightblue" stroke="midnightblue" points="511.041,-115.836 512.723,-126.297 517.931,-117.07 511.041,-115.836"/>
</g>
<!-- Node8&#45;&gt;Node4 -->
<g id="edge9" class="edge"><title>Node8&#45;&gt;Node4</title>
<path fill="none" stroke="midnightblue" d="M510.752,-54.9073C503.567,-43.6682 494.548,-29.5618 488.778,-20.5377"/>
<polygon fill="midnightblue" stroke="midnightblue" points="507.91,-56.9593 516.245,-63.4992 513.808,-53.1887 507.91,-56.9593"/>
</g>
<!-- Node9&#45;&gt;Node4 -->
<g id="edge18" class="edge"><title>Node9&#45;&gt;Node4</title>
<path fill="none" stroke="midnightblue" d="M603.292,-185.129C607.357,-154.46 610.503,-94.3804 581,-57 566.473,-38.5943 542.768,-27.3148 522.311,-20.5907"/>
<polygon fill="midnightblue" stroke="midnightblue" points="599.784,-184.924 601.756,-195.334 606.706,-185.967 599.784,-184.924"/>
</g>
<!-- Node10 -->
<g id="node10" class="node"><title>Node10</title>
<g id="a_node10"><a xlink:href="SearchAlgorithmSelectionPolicy_8h.xhtml" target="_top" xlink:title="src/TH/SearchAlgorithmSelection\lPolicy.h">
<polygon fill="none" stroke="black" points="668,-126.5 668,-158.5 844,-158.5 844,-126.5 668,-126.5"/>
<text text-anchor="start" x="676" y="-145.7" font-family="Helvetica,sans-Serif" font-size="11.00">src/TH/SearchAlgorithmSelection</text>
<text text-anchor="middle" x="756" y="-133.7" font-family="Helvetica,sans-Serif" font-size="11.00">Policy.h</text>
</a>
</g>
</g>
<!-- Node9&#45;&gt;Node10 -->
<g id="edge12" class="edge"><title>Node9&#45;&gt;Node10</title>
<path fill="none" stroke="midnightblue" d="M632.66,-191.729C657.378,-182.064 691.401,-168.76 717.454,-158.573"/>
<polygon fill="midnightblue" stroke="midnightblue" points="631.057,-188.598 623.018,-195.499 633.606,-195.117 631.057,-188.598"/>
</g>
<!-- Node10&#45;&gt;Node4 -->
<g id="edge17" class="edge"><title>Node10&#45;&gt;Node4</title>
<path fill="none" stroke="midnightblue" d="M714.424,-121.904C696.37,-112.881 675.229,-101.61 657,-90 636.681,-77.0584 635.205,-68.4316 614,-57 583.483,-40.5484 545.848,-28.2083 518.759,-20.5598"/>
<polygon fill="midnightblue" stroke="midnightblue" points="713.035,-125.121 723.551,-126.407 716.132,-118.844 713.035,-125.121"/>
</g>
<!-- Node11 -->
<g id="node11" class="node"><title>Node11</title>
<g id="a_node11"><a xlink:href="ReinforcementLearningSearchAlgorithmSelectionPolicy_8h.xhtml" target="_top" xlink:title="src/TH/ReinforcementLearning\lSearchAlgorithmSelectionPolicy.h">
<polygon fill="none" stroke="black" points="666.5,-57.5 666.5,-89.5 845.5,-89.5 845.5,-57.5 666.5,-57.5"/>
<text text-anchor="start" x="674.5" y="-76.7" font-family="Helvetica,sans-Serif" font-size="11.00">src/TH/ReinforcementLearning</text>
<text text-anchor="middle" x="756" y="-64.7" font-family="Helvetica,sans-Serif" font-size="11.00">SearchAlgorithmSelectionPolicy.h</text>
</a>
</g>
</g>
<!-- Node10&#45;&gt;Node11 -->
<g id="edge13" class="edge"><title>Node10&#45;&gt;Node11</title>
<path fill="none" stroke="midnightblue" d="M756,-116.025C756,-107.128 756,-97.4287 756,-89.6432"/>
<polygon fill="midnightblue" stroke="midnightblue" points="752.5,-116.297 756,-126.297 759.5,-116.297 752.5,-116.297"/>
</g>
<!-- Node12 -->
<g id="node12" class="node"><title>Node12</title>
<g id="a_node12"><a xlink:href="RoundRobinSearchAlgorithmSelectionPolicy_8h.xhtml" target="_top" xlink:title="src/TH/RoundRobinSearchAlgorithm\lSelectionPolicy.h">
<polygon fill="none" stroke="black" points="863.5,-57.5 863.5,-89.5 1056.5,-89.5 1056.5,-57.5 863.5,-57.5"/>
<text text-anchor="start" x="871.5" y="-76.7" font-family="Helvetica,sans-Serif" font-size="11.00">src/TH/RoundRobinSearchAlgorithm</text>
<text text-anchor="middle" x="960" y="-64.7" font-family="Helvetica,sans-Serif" font-size="11.00">SelectionPolicy.h</text>
</a>
</g>
</g>
<!-- Node10&#45;&gt;Node12 -->
<g id="edge14" class="edge"><title>Node10&#45;&gt;Node12</title>
<path fill="none" stroke="midnightblue" d="M811.488,-123.276C843.639,-112.717 883.636,-99.5805 914.019,-89.6017"/>
<polygon fill="midnightblue" stroke="midnightblue" points="810.19,-120.018 801.782,-126.464 812.374,-126.669 810.19,-120.018"/>
</g>
<!-- Node13 -->
<g id="node13" class="node"><title>Node13</title>
<g id="a_node13"><a xlink:href="SingleSearchAlgorithmSelectionPolicy_8h.xhtml" target="_top" xlink:title="src/TH/SingleSearchAlgorithm\lSelectionPolicy.h">
<polygon fill="none" stroke="black" points="1075,-57.5 1075,-89.5 1237,-89.5 1237,-57.5 1075,-57.5"/>
<text text-anchor="start" x="1083" y="-76.7" font-family="Helvetica,sans-Serif" font-size="11.00">src/TH/SingleSearchAlgorithm</text>
<text text-anchor="middle" x="1156" y="-64.7" font-family="Helvetica,sans-Serif" font-size="11.00">SelectionPolicy.h</text>
</a>
</g>
</g>
<!-- Node10&#45;&gt;Node13 -->
<g id="edge16" class="edge"><title>Node10&#45;&gt;Node13</title>
<path fill="none" stroke="midnightblue" d="M854.218,-125.222C914.954,-115.133 994.513,-101.877 1065,-90 1068.16,-89.4674 1071.38,-88.9235 1074.64,-88.3732"/>
<polygon fill="midnightblue" stroke="midnightblue" points="853.546,-121.786 844.254,-126.877 854.693,-128.691 853.546,-121.786"/>
</g>
<!-- Node12&#45;&gt;Node4 -->
<g id="edge15" class="edge"><title>Node12&#45;&gt;Node4</title>
<path fill="none" stroke="midnightblue" d="M853.277,-56.9211C734.792,-41.0866 608.558,-26.0679 538.052,-17.8479"/>
<polygon fill="midnightblue" stroke="midnightblue" points="852.874,-60.3982 863.25,-58.2583 853.804,-53.4603 852.874,-60.3982"/>
</g>
<!-- Node15&#45;&gt;Node4 -->
<g id="edge22" class="edge"><title>Node15&#45;&gt;Node4</title>
<path fill="none" stroke="midnightblue" d="M1148.09,-130.994C1206.29,-118.371 1280.99,-94.1343 1246,-57 1221.77,-31.284 709.654,-16.8625 538.298,-12.7433"/>
<polygon fill="midnightblue" stroke="midnightblue" points="1147.25,-127.593 1138.18,-133.068 1148.69,-134.445 1147.25,-127.593"/>
</g>
<!-- Node17 -->
<g id="node17" class="node"><title>Node17</title>
<g id="a_node17"><a xlink:href="RosenbrockFitnessPolicy_8cpp.xhtml" target="_top" xlink:title="src/RosenbrockFitnessPolicy.cpp">
<polygon fill="none" stroke="black" points="802.5,-195.5 802.5,-215.5 977.5,-215.5 977.5,-195.5 802.5,-195.5"/>
<text text-anchor="middle" x="890" y="-202.7" font-family="Helvetica,sans-Serif" font-size="11.00">src/RosenbrockFitnessPolicy.cpp</text>
</a>
</g>
</g>
<!-- Node16&#45;&gt;Node17 -->
<g id="edge25" class="edge"><title>Node16&#45;&gt;Node17</title>
<path fill="none" stroke="midnightblue" d="M838.815,-246.15C851.415,-236.39 867.313,-224.074 878.021,-215.779"/>
<polygon fill="midnightblue" stroke="midnightblue" points="836.486,-243.527 830.724,-252.418 840.773,-249.061 836.486,-243.527"/>
</g>
</g>
</svg>
