<?xml version="1.0" encoding="UTF-8" standalone="no"?>
<!DOCTYPE svg PUBLIC "-//W3C//DTD SVG 1.1//EN"
 "http://www.w3.org/Graphics/SVG/1.1/DTD/svg11.dtd">
<!-- Generated by graphviz version 2.38.0 (20140413.2041)
 -->
<!-- Title: Graph Legend Pages: 1 -->
<svg width="543pt" height="164pt"
 viewBox="0.00 0.00 542.50 164.00" xmlns="http://www.w3.org/2000/svg" xmlns:xlink="http://www.w3.org/1999/xlink">
<g id="graph0" class="graph" transform="scale(1 1) rotate(0) translate(4 160)">
<title>Graph Legend</title>
<!-- Node9 -->
<g id="node1" class="node"><title>Node9</title>
<polygon fill="#bfbfbf" stroke="black" points="312,-20 253,-20 253,-0 312,-0 312,-20"/>
<text text-anchor="middle" x="282.5" y="-7.2" font-family="Helvetica,sans-Serif" font-size="11.00">Inherited</text>
</g>
<!-- Node10 -->
<g id="node2" class="node"><title>Node10</title>
<g id="a_node2"><a xlink:href="$classPublicBase.xhtml" xlink:title="PublicBase">
<polygon fill="none" stroke="black" points="71,-88 0,-88 0,-68 71,-68 71,-88"/>
<text text-anchor="middle" x="35.5" y="-75.2" font-family="Helvetica,sans-Serif" font-size="11.00">PublicBase</text>
</a>
</g>
</g>
<!-- Node10&#45;&gt;Node9 -->
<g id="edge1" class="edge"><title>Node10&#45;&gt;Node9</title>
<path fill="none" stroke="midnightblue" d="M79.207,-65.3212C129.224,-51.9563 209.775,-30.4325 252.936,-18.8997"/>
<polygon fill="midnightblue" stroke="midnightblue" points="78.0839,-61.9984 69.3264,-67.9614 79.891,-68.7612 78.0839,-61.9984"/>
</g>
<!-- Node11 -->
<g id="node3" class="node"><title>Node11</title>
<g id="a_node3"><a xlink:href="$classTruncated.xhtml" xlink:title="Truncated">
<polygon fill="none" stroke="red" points="68,-156 3,-156 3,-136 68,-136 68,-156"/>
<text text-anchor="middle" x="35.5" y="-143.2" font-family="Helvetica,sans-Serif" font-size="11.00">Truncated</text>
</a>
</g>
</g>
<!-- Node11&#45;&gt;Node10 -->
<g id="edge2" class="edge"><title>Node11&#45;&gt;Node10</title>
<path fill="none" stroke="midnightblue" d="M35.5,-125.576C35.5,-113.193 35.5,-97.7217 35.5,-88.0991"/>
<polygon fill="midnightblue" stroke="midnightblue" points="32.0001,-125.823 35.5,-135.823 39.0001,-125.823 32.0001,-125.823"/>
</g>
<!-- Node13 -->
<g id="node4" class="node"><title>Node13</title>
<g id="a_node4"><a xlink:href="$classProtectedBase.xhtml" xlink:title="ProtectedBase">
<polygon fill="none" stroke="black" points="177.5,-88 89.5,-88 89.5,-68 177.5,-68 177.5,-88"/>
<text text-anchor="middle" x="133.5" y="-75.2" font-family="Helvetica,sans-Serif" font-size="11.00">ProtectedBase</text>
</a>
</g>
</g>
<!-- Node13&#45;&gt;Node9 -->
<g id="edge3" class="edge"><title>Node13&#45;&gt;Node9</title>
<path fill="none" stroke="darkgreen" d="M163.206,-63.8417C192.423,-50.8998 236.26,-31.4821 261.863,-20.1413"/>
<polygon fill="darkgreen" stroke="darkgreen" points="161.631,-60.7112 153.905,-67.9614 164.466,-67.1114 161.631,-60.7112"/>
</g>
<!-- Node14 -->
<g id="node5" class="node"><title>Node14</title>
<g id="a_node5"><a xlink:href="$classPrivateBase.xhtml" xlink:title="PrivateBase">
<polygon fill="none" stroke="black" points="270,-88 195,-88 195,-68 270,-68 270,-88"/>
<text text-anchor="middle" x="232.5" y="-75.2" font-family="Helvetica,sans-Serif" font-size="11.00">PrivateBase</text>
</a>
</g>
</g>
<!-- Node14&#45;&gt;Node9 -->
<g id="edge4" class="edge"><title>Node14&#45;&gt;Node9</title>
<path fill="none" stroke="#8b1a1a" d="M245.52,-59.8134C255.144,-47.1095 267.871,-30.3109 275.607,-20.0991"/>
<polygon fill="#8b1a1a" stroke="#8b1a1a" points="242.701,-57.7385 239.452,-67.823 248.281,-61.9656 242.701,-57.7385"/>
</g>
<!-- Node15 -->
<g id="node6" class="node"><title>Node15</title>
<polygon fill="none" stroke="#bfbfbf" points="378.5,-88 288.5,-88 288.5,-68 378.5,-68 378.5,-88"/>
<text text-anchor="middle" x="333.5" y="-75.2" font-family="Helvetica,sans-Serif" font-size="11.00">Undocumented</text>
</g>
<!-- Node15&#45;&gt;Node9 -->
<g id="edge5" class="edge"><title>Node15&#45;&gt;Node9</title>
<path fill="none" stroke="midnightblue" d="M320.219,-59.8134C310.403,-47.1095 297.422,-30.3109 289.531,-20.0991"/>
<polygon fill="midnightblue" stroke="midnightblue" points="317.525,-62.0502 326.409,-67.823 323.064,-57.77 317.525,-62.0502"/>
</g>
<!-- Node16 -->
<g id="node7" class="node"><title>Node16</title>
<g id="a_node7"><a xlink:href="$classTempl.xhtml" xlink:title="Templ&lt; int &gt;">
<polygon fill="none" stroke="black" points="474,-88 397,-88 397,-68 474,-68 474,-88"/>
<text text-anchor="middle" x="435.5" y="-75.2" font-family="Helvetica,sans-Serif" font-size="11.00">Templ&lt; int &gt;</text>
</a>
</g>
</g>
<!-- Node16&#45;&gt;Node9 -->
<g id="edge6" class="edge"><title>Node16&#45;&gt;Node9</title>
<path fill="none" stroke="midnightblue" d="M404.997,-63.8417C374.995,-50.8998 329.981,-31.4821 303.691,-20.1413"/>
<polygon fill="midnightblue" stroke="midnightblue" points="403.978,-67.2141 414.547,-67.9614 406.751,-60.7867 403.978,-67.2141"/>
</g>
<!-- Node17 -->
<g id="node8" class="node"><title>Node17</title>
<g id="a_node8"><a xlink:href="$classTempl.xhtml" xlink:title="Templ&lt; T &gt;">
<polygon fill="none" stroke="black" points="472,-156 399,-156 399,-136 472,-136 472,-156"/>
<text text-anchor="middle" x="435.5" y="-143.2" font-family="Helvetica,sans-Serif" font-size="11.00">Templ&lt; T &gt;</text>
</a>
</g>
</g>
<!-- Node17&#45;&gt;Node16 -->
<g id="edge7" class="edge"><title>Node17&#45;&gt;Node16</title>
<path fill="none" stroke="orange" stroke-dasharray="5,2" d="M435.5,-125.576C435.5,-113.193 435.5,-97.7217 435.5,-88.0991"/>
<polygon fill="orange" stroke="orange" points="432,-125.823 435.5,-135.823 439,-125.823 432,-125.823"/>
<text text-anchor="middle" x="451" y="-109.2" font-family="Helvetica,sans-Serif" font-size="11.00">&lt; int &gt;</text>
</g>
<!-- Node18 -->
<g id="node9" class="node"><title>Node18</title>
<g id="a_node9"><a xlink:href="$classUsed.xhtml" xlink:title="Used">
<polygon fill="none" stroke="black" points="534.5,-88 492.5,-88 492.5,-68 534.5,-68 534.5,-88"/>
<text text-anchor="middle" x="513.5" y="-75.2" font-family="Helvetica,sans-Serif" font-size="11.00">Used</text>
</a>
</g>
</g>
<!-- Node18&#45;&gt;Node9 -->
<g id="edge8" class="edge"><title>Node18&#45;&gt;Node9</title>
<path fill="none" stroke="#9a32cd" stroke-dasharray="5,2" d="M482.803,-68.0873C482.702,-68.0582 482.601,-68.029 482.5,-68 422.126,-50.6328 351.428,-30.5416 312.331,-19.4525"/>
<polygon fill="#9a32cd" stroke="#9a32cd" points="481.915,-71.4736 492.493,-70.8861 483.857,-64.7485 481.915,-71.4736"/>
<text text-anchor="middle" x="450.5" y="-41.2" font-family="Helvetica,sans-Serif" font-size="11.00">m_usedClass</text>
</g>
</g>
</svg>
