<?xml version="1.0" encoding="UTF-8" standalone="no"?>
<!DOCTYPE svg PUBLIC "-//W3C//DTD SVG 1.1//EN"
 "http://www.w3.org/Graphics/SVG/1.1/DTD/svg11.dtd">
<!-- Generated by graphviz version 2.38.0 (20140413.2041)
 -->
<!-- Title: src/TH/GroupRegionSelectionPolicy.h Pages: 1 -->
<svg width="421pt" height="383pt"
 viewBox="0.00 0.00 421.07 383.00" xmlns="http://www.w3.org/2000/svg" xmlns:xlink="http://www.w3.org/1999/xlink">
<g id="graph0" class="graph" transform="scale(1 1) rotate(0) translate(4 379)">
<title>src/TH/GroupRegionSelectionPolicy.h</title>
<!-- Node1 -->
<g id="node1" class="node"><title>Node1</title>
<polygon fill="#bfbfbf" stroke="black" points="123.995,-342.5 123.995,-374.5 284.995,-374.5 284.995,-342.5 123.995,-342.5"/>
<text text-anchor="start" x="131.995" y="-361.7" font-family="Helvetica,sans-Serif" font-size="11.00">src/TH/GroupRegionSelection</text>
<text text-anchor="middle" x="204.495" y="-349.7" font-family="Helvetica,sans-Serif" font-size="11.00">Policy.h</text>
</g>
<!-- Node2 -->
<g id="node2" class="node"><title>Node2</title>
<g id="a_node2"><a xlink:href="RegionSelectionPolicy_8h.xhtml" target="_top" xlink:title="RegionSelectionPolicy.h">
<polygon fill="none" stroke="black" points="29.9946,-285.5 29.9946,-305.5 162.995,-305.5 162.995,-285.5 29.9946,-285.5"/>
<text text-anchor="middle" x="96.4946" y="-292.7" font-family="Helvetica,sans-Serif" font-size="11.00">RegionSelectionPolicy.h</text>
</a>
</g>
</g>
<!-- Node1&#45;&gt;Node2 -->
<g id="edge1" class="edge"><title>Node1&#45;&gt;Node2</title>
<path fill="none" stroke="midnightblue" d="M177.798,-342.421C160.511,-332.657 138.158,-320.032 121.266,-310.491"/>
<polygon fill="midnightblue" stroke="midnightblue" points="122.939,-307.416 112.51,-305.546 119.496,-313.511 122.939,-307.416"/>
</g>
<!-- Node13 -->
<g id="node13" class="node"><title>Node13</title>
<polygon fill="none" stroke="#bfbfbf" points="181.495,-285.5 181.495,-305.5 227.495,-305.5 227.495,-285.5 181.495,-285.5"/>
<text text-anchor="middle" x="204.495" y="-292.7" font-family="Helvetica,sans-Serif" font-size="11.00">cmath</text>
</g>
<!-- Node1&#45;&gt;Node13 -->
<g id="edge17" class="edge"><title>Node1&#45;&gt;Node13</title>
<path fill="none" stroke="midnightblue" d="M204.495,-342.421C204.495,-334.375 204.495,-324.386 204.495,-315.781"/>
<polygon fill="midnightblue" stroke="midnightblue" points="207.995,-315.546 204.495,-305.546 200.995,-315.546 207.995,-315.546"/>
</g>
<!-- Node14 -->
<g id="node14" class="node"><title>Node14</title>
<polygon fill="none" stroke="#bfbfbf" points="245.495,-285.5 245.495,-305.5 293.495,-305.5 293.495,-285.5 245.495,-285.5"/>
<text text-anchor="middle" x="269.495" y="-292.7" font-family="Helvetica,sans-Serif" font-size="11.00">cstring</text>
</g>
<!-- Node1&#45;&gt;Node14 -->
<g id="edge18" class="edge"><title>Node1&#45;&gt;Node14</title>
<path fill="none" stroke="midnightblue" d="M220.562,-342.421C230.196,-333.381 242.443,-321.887 252.275,-312.66"/>
<polygon fill="midnightblue" stroke="midnightblue" points="254.959,-314.941 259.855,-305.546 250.168,-309.837 254.959,-314.941"/>
</g>
<!-- Node3 -->
<g id="node3" class="node"><title>Node3</title>
<g id="a_node3"><a xlink:href="THTree_8h.xhtml" target="_top" xlink:title="THTree.h">
<polygon fill="none" stroke="black" points="4.99457,-171.5 4.99457,-191.5 67.9946,-191.5 67.9946,-171.5 4.99457,-171.5"/>
<text text-anchor="middle" x="36.4946" y="-178.7" font-family="Helvetica,sans-Serif" font-size="11.00">THTree.h</text>
</a>
</g>
</g>
<!-- Node2&#45;&gt;Node3 -->
<g id="edge2" class="edge"><title>Node2&#45;&gt;Node3</title>
<path fill="none" stroke="midnightblue" d="M91.5845,-285.335C81.6959,-266.876 59.2208,-224.922 46.2396,-200.691"/>
<polygon fill="midnightblue" stroke="midnightblue" points="49.2799,-198.954 41.4725,-191.792 43.1096,-202.26 49.2799,-198.954"/>
</g>
<!-- Node4 -->
<g id="node4" class="node"><title>Node4</title>
<polygon fill="none" stroke="#bfbfbf" points="77.4946,-114.5 77.4946,-134.5 115.495,-134.5 115.495,-114.5 77.4946,-114.5"/>
<text text-anchor="middle" x="96.4946" y="-121.7" font-family="Helvetica,sans-Serif" font-size="11.00">map</text>
</g>
<!-- Node2&#45;&gt;Node4 -->
<g id="edge16" class="edge"><title>Node2&#45;&gt;Node4</title>
<path fill="none" stroke="midnightblue" d="M96.4946,-285.414C96.4946,-258.936 96.4946,-181.416 96.4946,-144.922"/>
<polygon fill="midnightblue" stroke="midnightblue" points="99.9947,-144.631 96.4946,-134.631 92.9947,-144.631 99.9947,-144.631"/>
</g>
<!-- Node7 -->
<g id="node7" class="node"><title>Node7</title>
<g id="a_node7"><a xlink:href="SearchSpace_8h.xhtml" target="_top" xlink:title="SearchSpace.h">
<polygon fill="none" stroke="black" points="157.995,-228.5 157.995,-248.5 248.995,-248.5 248.995,-228.5 157.995,-228.5"/>
<text text-anchor="middle" x="203.495" y="-235.7" font-family="Helvetica,sans-Serif" font-size="11.00">SearchSpace.h</text>
</a>
</g>
</g>
<!-- Node2&#45;&gt;Node7 -->
<g id="edge6" class="edge"><title>Node2&#45;&gt;Node7</title>
<path fill="none" stroke="midnightblue" d="M114.163,-285.418C131.201,-276.66 157.211,-263.291 176.779,-253.233"/>
<polygon fill="midnightblue" stroke="midnightblue" points="178.506,-256.28 185.799,-248.596 175.306,-250.054 178.506,-256.28"/>
</g>
<!-- Node3&#45;&gt;Node4 -->
<g id="edge3" class="edge"><title>Node3&#45;&gt;Node4</title>
<path fill="none" stroke="midnightblue" d="M46.4024,-171.418C55.2082,-163.346 68.2885,-151.356 78.8746,-141.652"/>
<polygon fill="midnightblue" stroke="midnightblue" points="81.365,-144.117 86.3715,-134.779 76.6349,-138.957 81.365,-144.117"/>
</g>
<!-- Node5 -->
<g id="node5" class="node"><title>Node5</title>
<polygon fill="none" stroke="#bfbfbf" points="13.4946,-114.5 13.4946,-134.5 59.4946,-134.5 59.4946,-114.5 13.4946,-114.5"/>
<text text-anchor="middle" x="36.4946" y="-121.7" font-family="Helvetica,sans-Serif" font-size="11.00">vector</text>
</g>
<!-- Node3&#45;&gt;Node5 -->
<g id="edge4" class="edge"><title>Node3&#45;&gt;Node5</title>
<path fill="none" stroke="midnightblue" d="M36.4946,-171.418C36.4946,-164.216 36.4946,-153.896 36.4946,-144.863"/>
<polygon fill="midnightblue" stroke="midnightblue" points="39.9947,-144.779 36.4946,-134.779 32.9947,-144.779 39.9947,-144.779"/>
</g>
<!-- Node6 -->
<g id="node6" class="node"><title>Node6</title>
<polygon fill="none" stroke="#bfbfbf" points="269.995,-0.5 269.995,-20.5 316.995,-20.5 316.995,-0.5 269.995,-0.5"/>
<text text-anchor="middle" x="293.495" y="-7.7" font-family="Helvetica,sans-Serif" font-size="11.00">cstdlib</text>
</g>
<!-- Node3&#45;&gt;Node6 -->
<g id="edge5" class="edge"><title>Node3&#45;&gt;Node6</title>
<path fill="none" stroke="midnightblue" d="M26.1902,-171.378C12.4147,-158.061 -8.81098,-132.837 4.49457,-114 63.5797,-30.3529 197.057,-14.5396 259.759,-11.8463"/>
<polygon fill="midnightblue" stroke="midnightblue" points="260.028,-15.3393 269.902,-11.5 259.789,-8.34335 260.028,-15.3393"/>
</g>
<!-- Node8 -->
<g id="node8" class="node"><title>Node8</title>
<g id="a_node8"><a xlink:href="Region_8h.xhtml" target="_top" xlink:title="Region.h">
<polygon fill="none" stroke="black" points="206.495,-171.5 206.495,-191.5 266.495,-191.5 266.495,-171.5 206.495,-171.5"/>
<text text-anchor="middle" x="236.495" y="-178.7" font-family="Helvetica,sans-Serif" font-size="11.00">Region.h</text>
</a>
</g>
</g>
<!-- Node7&#45;&gt;Node8 -->
<g id="edge7" class="edge"><title>Node7&#45;&gt;Node8</title>
<path fill="none" stroke="midnightblue" d="M208.944,-228.418C213.502,-220.821 220.143,-209.753 225.763,-200.387"/>
<polygon fill="midnightblue" stroke="midnightblue" points="228.783,-202.155 230.927,-191.779 222.781,-198.554 228.783,-202.155"/>
</g>
<!-- Node8&#45;&gt;Node4 -->
<g id="edge12" class="edge"><title>Node8&#45;&gt;Node4</title>
<path fill="none" stroke="midnightblue" d="M213.376,-171.418C189.136,-161.895 151.013,-146.918 124.942,-136.676"/>
<polygon fill="midnightblue" stroke="midnightblue" points="126.182,-133.402 115.594,-133.003 123.622,-139.918 126.182,-133.402"/>
</g>
<!-- Node8&#45;&gt;Node6 -->
<g id="edge13" class="edge"><title>Node8&#45;&gt;Node6</title>
<path fill="none" stroke="midnightblue" d="M246.678,-171.466C255.544,-162.976 267.971,-149.444 274.495,-135 290.059,-100.54 293.237,-55.7519 293.68,-30.6758"/>
<polygon fill="midnightblue" stroke="midnightblue" points="297.18,-30.6653 293.726,-20.6494 290.18,-30.6332 297.18,-30.6653"/>
</g>
<!-- Node9 -->
<g id="node9" class="node"><title>Node9</title>
<g id="a_node9"><a xlink:href="Dimension_8h.xhtml" target="_top" xlink:title="Dimension.h">
<polygon fill="none" stroke="black" points="321.995,-114.5 321.995,-134.5 398.995,-134.5 398.995,-114.5 321.995,-114.5"/>
<text text-anchor="middle" x="360.495" y="-121.7" font-family="Helvetica,sans-Serif" font-size="11.00">Dimension.h</text>
</a>
</g>
</g>
<!-- Node8&#45;&gt;Node9 -->
<g id="edge8" class="edge"><title>Node8&#45;&gt;Node9</title>
<path fill="none" stroke="midnightblue" d="M256.971,-171.418C277.074,-162.501 307.957,-148.803 330.763,-138.687"/>
<polygon fill="midnightblue" stroke="midnightblue" points="332.266,-141.85 339.988,-134.596 329.428,-135.451 332.266,-141.85"/>
</g>
<!-- Node10 -->
<g id="node10" class="node"><title>Node10</title>
<g id="a_node10"><a xlink:href="Partition_8h.xhtml" target="_top" xlink:title="Partition.h">
<polygon fill="none" stroke="black" points="327.995,-57.5 327.995,-77.5 392.995,-77.5 392.995,-57.5 327.995,-57.5"/>
<text text-anchor="middle" x="360.495" y="-64.7" font-family="Helvetica,sans-Serif" font-size="11.00">Partition.h</text>
</a>
</g>
</g>
<!-- Node8&#45;&gt;Node10 -->
<g id="edge11" class="edge"><title>Node8&#45;&gt;Node10</title>
<path fill="none" stroke="midnightblue" d="M266.636,-176.925C311.209,-170.948 391.301,-157.334 408.495,-135 421.781,-117.742 402.051,-97.3645 384.018,-83.7579"/>
<polygon fill="midnightblue" stroke="midnightblue" points="385.631,-80.6101 375.453,-77.6655 381.573,-86.3141 385.631,-80.6101"/>
</g>
<!-- Node11 -->
<g id="node11" class="node"><title>Node11</title>
<polygon fill="none" stroke="#bfbfbf" points="133.995,-114.5 133.995,-134.5 188.995,-134.5 188.995,-114.5 133.995,-114.5"/>
<text text-anchor="middle" x="161.495" y="-121.7" font-family="Helvetica,sans-Serif" font-size="11.00">sstream</text>
</g>
<!-- Node8&#45;&gt;Node11 -->
<g id="edge14" class="edge"><title>Node8&#45;&gt;Node11</title>
<path fill="none" stroke="midnightblue" d="M224.11,-171.418C212.711,-163.058 195.581,-150.497 182.118,-140.624"/>
<polygon fill="midnightblue" stroke="midnightblue" points="184.032,-137.687 173.898,-134.596 179.892,-143.332 184.032,-137.687"/>
</g>
<!-- Node12 -->
<g id="node12" class="node"><title>Node12</title>
<polygon fill="none" stroke="#bfbfbf" points="207.495,-114.5 207.495,-134.5 265.495,-134.5 265.495,-114.5 207.495,-114.5"/>
<text text-anchor="middle" x="236.495" y="-121.7" font-family="Helvetica,sans-Serif" font-size="11.00">iostream</text>
</g>
<!-- Node8&#45;&gt;Node12 -->
<g id="edge15" class="edge"><title>Node8&#45;&gt;Node12</title>
<path fill="none" stroke="midnightblue" d="M236.495,-171.418C236.495,-164.216 236.495,-153.896 236.495,-144.863"/>
<polygon fill="midnightblue" stroke="midnightblue" points="239.995,-144.779 236.495,-134.779 232.995,-144.779 239.995,-144.779"/>
</g>
<!-- Node9&#45;&gt;Node10 -->
<g id="edge9" class="edge"><title>Node9&#45;&gt;Node10</title>
<path fill="none" stroke="midnightblue" d="M360.495,-114.418C360.495,-107.216 360.495,-96.8962 360.495,-87.8632"/>
<polygon fill="midnightblue" stroke="midnightblue" points="363.995,-87.7794 360.495,-77.7795 356.995,-87.7795 363.995,-87.7794"/>
</g>
<!-- Node10&#45;&gt;Node6 -->
<g id="edge10" class="edge"><title>Node10&#45;&gt;Node6</title>
<path fill="none" stroke="midnightblue" d="M349.431,-57.4179C339.501,-49.2667 324.705,-37.1201 312.823,-27.3669"/>
<polygon fill="midnightblue" stroke="midnightblue" points="314.749,-24.4192 304.799,-20.7795 310.307,-29.8297 314.749,-24.4192"/>
</g>
</g>
</svg>
