<?xml version="1.0" encoding="UTF-8" standalone="no"?>
<!DOCTYPE svg PUBLIC "-//W3C//DTD SVG 1.1//EN"
 "http://www.w3.org/Graphics/SVG/1.1/DTD/svg11.dtd">
<!-- Generated by graphviz version 2.38.0 (20140413.2041)
 -->
<!-- Title: Graphical Class Hierarchy Pages: 1 -->
<svg width="356pt" height="191pt"
 viewBox="0.00 0.00 356.00 191.00" xmlns="http://www.w3.org/2000/svg" xmlns:xlink="http://www.w3.org/1999/xlink">
<g id="graph0" class="graph" transform="scale(1 1) rotate(0) translate(4 187)">
<title>Graphical Class Hierarchy</title>
<!-- Node1 -->
<g id="node1" class="node"><title>Node1</title>
<g id="a_node1"><a xlink:href="classSearchAlgorithmSelectionPolicy.xhtml" target="_top" xlink:title="Template to select the next optimization method to be executed and rank it after execution. ">
<polygon fill="none" stroke="black" points="0,-63.5 0,-107.5 141,-107.5 141,-63.5 0,-63.5"/>
<text text-anchor="start" x="8" y="-94.7" font-family="Helvetica,sans-Serif" font-size="11.00">SearchAlgorithmSelection</text>
<text text-anchor="start" x="8" y="-82.7" font-family="Helvetica,sans-Serif" font-size="11.00">Policy&lt; P, pSize, F, fSize,</text>
<text text-anchor="middle" x="70.5" y="-70.7" font-family="Helvetica,sans-Serif" font-size="11.00"> V, vSize &gt;</text>
</a>
</g>
</g>
<!-- Node2 -->
<g id="node2" class="node"><title>Node2</title>
<g id="a_node2"><a xlink:href="classReinforcementLearningSearchAlgorithmSelectionPolicy.xhtml" target="_top" xlink:title="This class implements the algorithm selection policy through reinforcement learning. ">
<polygon fill="none" stroke="black" points="180.5,-126.5 180.5,-182.5 344.5,-182.5 344.5,-126.5 180.5,-126.5"/>
<text text-anchor="start" x="188.5" y="-169.7" font-family="Helvetica,sans-Serif" font-size="11.00">ReinforcementLearningSearch</text>
<text text-anchor="start" x="188.5" y="-157.7" font-family="Helvetica,sans-Serif" font-size="11.00">AlgorithmSelectionPolicy</text>
<text text-anchor="start" x="188.5" y="-145.7" font-family="Helvetica,sans-Serif" font-size="11.00">&lt; P, pSize, F, fSize, V,</text>
<text text-anchor="middle" x="262.5" y="-133.7" font-family="Helvetica,sans-Serif" font-size="11.00"> vSize &gt;</text>
</a>
</g>
</g>
<!-- Node1&#45;&gt;Node2 -->
<g id="edge1" class="edge"><title>Node1&#45;&gt;Node2</title>
<path fill="none" stroke="midnightblue" d="M141.641,-110.972C155.566,-116.029 170.256,-121.364 184.398,-126.5"/>
<polygon fill="midnightblue" stroke="midnightblue" points="142.734,-107.645 132.14,-107.522 140.344,-114.225 142.734,-107.645"/>
</g>
<!-- Node3 -->
<g id="node3" class="node"><title>Node3</title>
<g id="a_node3"><a xlink:href="classRoundRobinSearchAlgorithmSelectionPolicy.xhtml" target="_top" xlink:title="This class executes Search instances in round&#45;robin. ">
<polygon fill="none" stroke="black" points="183.5,-63.5 183.5,-107.5 341.5,-107.5 341.5,-63.5 183.5,-63.5"/>
<text text-anchor="start" x="191.5" y="-94.7" font-family="Helvetica,sans-Serif" font-size="11.00">RoundRobinSearchAlgorithm</text>
<text text-anchor="start" x="191.5" y="-82.7" font-family="Helvetica,sans-Serif" font-size="11.00">SelectionPolicy&lt; P, pSize,</text>
<text text-anchor="middle" x="262.5" y="-70.7" font-family="Helvetica,sans-Serif" font-size="11.00"> F, fSize, V, vSize &gt;</text>
</a>
</g>
</g>
<!-- Node1&#45;&gt;Node3 -->
<g id="edge2" class="edge"><title>Node1&#45;&gt;Node3</title>
<path fill="none" stroke="midnightblue" d="M151.29,-85.5C161.948,-85.5 172.869,-85.5 183.496,-85.5"/>
<polygon fill="midnightblue" stroke="midnightblue" points="151.17,-82.0001 141.17,-85.5 151.17,-89.0001 151.17,-82.0001"/>
</g>
<!-- Node4 -->
<g id="node4" class="node"><title>Node4</title>
<g id="a_node4"><a xlink:href="classSingleSearchAlgorithmSelectionPolicy.xhtml" target="_top" xlink:title="This class executes always the first Search instance available. ">
<polygon fill="none" stroke="black" points="177,-0.5 177,-44.5 348,-44.5 348,-0.5 177,-0.5"/>
<text text-anchor="start" x="185" y="-31.7" font-family="Helvetica,sans-Serif" font-size="11.00">SingleSearchAlgorithmSelection</text>
<text text-anchor="start" x="185" y="-19.7" font-family="Helvetica,sans-Serif" font-size="11.00">Policy&lt; P, pSize, F, fSize,</text>
<text text-anchor="middle" x="262.5" y="-7.7" font-family="Helvetica,sans-Serif" font-size="11.00"> V, vSize &gt;</text>
</a>
</g>
</g>
<!-- Node1&#45;&gt;Node4 -->
<g id="edge3" class="edge"><title>Node1&#45;&gt;Node4</title>
<path fill="none" stroke="midnightblue" d="M147.624,-60.259C163.331,-55.0508 179.755,-49.6048 195.085,-44.5219"/>
<polygon fill="midnightblue" stroke="midnightblue" points="146.343,-56.9962 137.953,-63.4657 148.546,-63.6404 146.343,-56.9962"/>
</g>
</g>
</svg>
