<?xml version="1.0" encoding="UTF-8" standalone="no"?>
<!DOCTYPE svg PUBLIC "-//W3C//DTD SVG 1.1//EN"
 "http://www.w3.org/Graphics/SVG/1.1/DTD/svg11.dtd">
<!-- Generated by graphviz version 2.38.0 (20140413.2041)
 -->
<!-- Title: Graphical Class Hierarchy Pages: 1 -->
<svg width="356pt" height="116pt"
 viewBox="0.00 0.00 356.00 116.00" xmlns="http://www.w3.org/2000/svg" xmlns:xlink="http://www.w3.org/1999/xlink">
<g id="graph0" class="graph" transform="scale(1 1) rotate(0) translate(4 112)">
<title>Graphical Class Hierarchy</title>
<!-- Node1 -->
<g id="node1" class="node"><title>Node1</title>
<g id="a_node1"><a xlink:href="classSearchAlgorithmSelectionPolicy.xhtml" target="_top" xlink:title="Template to select the next optimization method to be executed and rank it after execution. ">
<polygon fill="none" stroke="black" points="0,-31.5 0,-75.5 141,-75.5 141,-31.5 0,-31.5"/>
<text text-anchor="start" x="8" y="-62.7" font-family="Helvetica,sans-Serif" font-size="11.00">SearchAlgorithmSelection</text>
<text text-anchor="start" x="8" y="-50.7" font-family="Helvetica,sans-Serif" font-size="11.00">Policy&lt; P, pSize, F, fSize,</text>
<text text-anchor="middle" x="70.5" y="-38.7" font-family="Helvetica,sans-Serif" font-size="11.00"> V, vSize &gt;</text>
</a>
</g>
</g>
<!-- Node2 -->
<g id="node2" class="node"><title>Node2</title>
<g id="a_node2"><a xlink:href="classRoundRobinSearchAlgorithmSelectionPolicy.xhtml" target="_top" xlink:title="This class executes Search instances in round&#45;robin. ">
<polygon fill="none" stroke="black" points="183.5,-63.5 183.5,-107.5 341.5,-107.5 341.5,-63.5 183.5,-63.5"/>
<text text-anchor="start" x="191.5" y="-94.7" font-family="Helvetica,sans-Serif" font-size="11.00">RoundRobinSearchAlgorithm</text>
<text text-anchor="start" x="191.5" y="-82.7" font-family="Helvetica,sans-Serif" font-size="11.00">SelectionPolicy&lt; P, pSize,</text>
<text text-anchor="middle" x="262.5" y="-70.7" font-family="Helvetica,sans-Serif" font-size="11.00"> F, fSize, V, vSize &gt;</text>
</a>
</g>
</g>
<!-- Node1&#45;&gt;Node2 -->
<g id="edge1" class="edge"><title>Node1&#45;&gt;Node2</title>
<path fill="none" stroke="midnightblue" d="M151.29,-66.9384C161.948,-68.7334 172.869,-70.5726 183.496,-72.3625"/>
<polygon fill="midnightblue" stroke="midnightblue" points="151.613,-63.4434 141.17,-65.2339 150.45,-70.3462 151.613,-63.4434"/>
</g>
<!-- Node3 -->
<g id="node3" class="node"><title>Node3</title>
<g id="a_node3"><a xlink:href="classSingleSearchAlgorithmSelectionPolicy.xhtml" target="_top" xlink:title="This class executes always the first Search instance available. ">
<polygon fill="none" stroke="black" points="177,-0.5 177,-44.5 348,-44.5 348,-0.5 177,-0.5"/>
<text text-anchor="start" x="185" y="-31.7" font-family="Helvetica,sans-Serif" font-size="11.00">SingleSearchAlgorithmSelection</text>
<text text-anchor="start" x="185" y="-19.7" font-family="Helvetica,sans-Serif" font-size="11.00">Policy&lt; P, pSize, F, fSize,</text>
<text text-anchor="middle" x="262.5" y="-7.7" font-family="Helvetica,sans-Serif" font-size="11.00"> V, vSize &gt;</text>
</a>
</g>
</g>
<!-- Node1&#45;&gt;Node3 -->
<g id="edge2" class="edge"><title>Node1&#45;&gt;Node3</title>
<path fill="none" stroke="midnightblue" d="M151.113,-40.5105C159.664,-39.1153 168.386,-37.6923 176.992,-36.2882"/>
<polygon fill="midnightblue" stroke="midnightblue" points="150.476,-37.0681 141.17,-42.1328 151.603,-43.9767 150.476,-37.0681"/>
</g>
</g>
</svg>
