<?xml version="1.0" encoding="UTF-8" standalone="no"?>
<!DOCTYPE svg PUBLIC "-//W3C//DTD SVG 1.1//EN"
 "http://www.w3.org/Graphics/SVG/1.1/DTD/svg11.dtd">
<!-- Generated by graphviz version 2.38.0 (20140413.2041)
 -->
<!-- Title: Graphical Class Hierarchy Pages: 1 -->
<svg width="297pt" height="92pt"
 viewBox="0.00 0.00 297.00 92.00" xmlns="http://www.w3.org/2000/svg" xmlns:xlink="http://www.w3.org/1999/xlink">
<g id="graph0" class="graph" transform="scale(1 1) rotate(0) translate(4 88)">
<title>Graphical Class Hierarchy</title>
<!-- Node1 -->
<g id="node1" class="node"><title>Node1</title>
<g id="a_node1"><a xlink:href="classSearch.xhtml" target="_top" xlink:title="Template for optimization methods. ">
<polygon fill="none" stroke="black" points="0,-25.5 0,-57.5 117,-57.5 117,-25.5 0,-25.5"/>
<text text-anchor="start" x="8" y="-44.7" font-family="Helvetica,sans-Serif" font-size="11.00">Search&lt; P, pSize, F,</text>
<text text-anchor="middle" x="58.5" y="-32.7" font-family="Helvetica,sans-Serif" font-size="11.00"> fSize, V, vSize &gt;</text>
</a>
</g>
</g>
<!-- Node2 -->
<g id="node2" class="node"><title>Node2</title>
<g id="a_node2"><a xlink:href="classHillClimbing.xhtml" target="_top" xlink:title="Implementation of the classic Hill Climbing optimization algorithm for TH. ">
<polygon fill="none" stroke="black" points="157.5,-51.5 157.5,-83.5 284.5,-83.5 284.5,-51.5 157.5,-51.5"/>
<text text-anchor="start" x="165.5" y="-70.7" font-family="Helvetica,sans-Serif" font-size="11.00">HillClimbing&lt; P, pSize,</text>
<text text-anchor="middle" x="221" y="-58.7" font-family="Helvetica,sans-Serif" font-size="11.00"> F, fSize, V, vSize &gt;</text>
</a>
</g>
</g>
<!-- Node1&#45;&gt;Node2 -->
<g id="edge1" class="edge"><title>Node1&#45;&gt;Node2</title>
<path fill="none" stroke="midnightblue" d="M127.586,-52.5296C137.43,-54.1242 147.524,-55.7594 157.257,-57.336"/>
<polygon fill="midnightblue" stroke="midnightblue" points="127.875,-49.0308 117.444,-50.8866 126.756,-55.9407 127.875,-49.0308"/>
</g>
<!-- Node3 -->
<g id="node3" class="node"><title>Node3</title>
<g id="a_node3"><a xlink:href="classPSO.xhtml" target="_top" xlink:title="Implementation of the classic Particle Swarm Optimization algorithm for TH. ">
<polygon fill="none" stroke="black" points="153,-0.5 153,-32.5 289,-32.5 289,-0.5 153,-0.5"/>
<text text-anchor="start" x="161" y="-19.7" font-family="Helvetica,sans-Serif" font-size="11.00">PSO&lt; P, pSize, F, fSize,</text>
<text text-anchor="middle" x="221" y="-7.7" font-family="Helvetica,sans-Serif" font-size="11.00"> V, vSize &gt;</text>
</a>
</g>
</g>
<!-- Node1&#45;&gt;Node3 -->
<g id="edge2" class="edge"><title>Node1&#45;&gt;Node3</title>
<path fill="none" stroke="midnightblue" d="M127.552,-30.9C135.933,-29.5945 144.496,-28.2607 152.864,-26.9574"/>
<polygon fill="midnightblue" stroke="midnightblue" points="126.786,-27.477 117.444,-32.4744 127.864,-34.3936 126.786,-27.477"/>
</g>
</g>
</svg>
