<?xml version="1.0" encoding="UTF-8" standalone="no"?>
<!DOCTYPE svg PUBLIC "-//W3C//DTD SVG 1.1//EN"
 "http://www.w3.org/Graphics/SVG/1.1/DTD/svg11.dtd">
<!-- Generated by graphviz version 2.38.0 (20140413.2041)
 -->
<!-- Title: src/TH/IterationData.h Pages: 1 -->
<svg width="461pt" height="293pt"
 viewBox="0.00 0.00 460.78 293.00" xmlns="http://www.w3.org/2000/svg" xmlns:xlink="http://www.w3.org/1999/xlink">
<g id="graph0" class="graph" transform="scale(1 1) rotate(0) translate(4 289)">
<title>src/TH/IterationData.h</title>
<!-- Node1 -->
<g id="node1" class="node"><title>Node1</title>
<polygon fill="#bfbfbf" stroke="black" points="312.5,-264.5 312.5,-284.5 435.5,-284.5 435.5,-264.5 312.5,-264.5"/>
<text text-anchor="middle" x="374" y="-271.7" font-family="Helvetica,sans-Serif" font-size="11.00">src/TH/IterationData.h</text>
</g>
<!-- Node2 -->
<g id="node2" class="node"><title>Node2</title>
<g id="a_node2"><a xlink:href="RelocationStrategyData_8h.xhtml" target="_top" xlink:title="src/TH/RelocationStrategy\lData.h">
<polygon fill="none" stroke="black" points="172.5,-195.5 172.5,-227.5 315.5,-227.5 315.5,-195.5 172.5,-195.5"/>
<text text-anchor="start" x="180.5" y="-214.7" font-family="Helvetica,sans-Serif" font-size="11.00">src/TH/RelocationStrategy</text>
<text text-anchor="middle" x="244" y="-202.7" font-family="Helvetica,sans-Serif" font-size="11.00">Data.h</text>
</a>
</g>
</g>
<!-- Node1&#45;&gt;Node2 -->
<g id="edge1" class="edge"><title>Node1&#45;&gt;Node2</title>
<path fill="none" stroke="midnightblue" d="M345.678,-260.21C325.179,-250.592 297.446,-237.579 276.122,-227.573"/>
<polygon fill="midnightblue" stroke="midnightblue" points="344.278,-263.42 354.818,-264.499 347.252,-257.083 344.278,-263.42"/>
</g>
<!-- Node4 -->
<g id="node4" class="node"><title>Node4</title>
<g id="a_node4"><a xlink:href="THBuilder_8h.xhtml" target="_top" xlink:title="src/TH/THBuilder.h">
<polygon fill="none" stroke="black" points="177,-0.5 177,-20.5 287,-20.5 287,-0.5 177,-0.5"/>
<text text-anchor="middle" x="232" y="-7.7" font-family="Helvetica,sans-Serif" font-size="11.00">src/TH/THBuilder.h</text>
</a>
</g>
</g>
<!-- Node1&#45;&gt;Node4 -->
<g id="edge9" class="edge"><title>Node1&#45;&gt;Node4</title>
<path fill="none" stroke="midnightblue" d="M388.116,-256.188C418.597,-216.609 484.012,-118.214 435,-57 416.772,-34.2335 340.752,-22.0837 287.111,-16.216"/>
<polygon fill="midnightblue" stroke="midnightblue" points="385.307,-254.098 381.864,-264.117 390.804,-258.432 385.307,-254.098"/>
</g>
<!-- Node3 -->
<g id="node3" class="node"><title>Node3</title>
<g id="a_node3"><a xlink:href="BetaRelocationStrategyData_8h.xhtml" target="_top" xlink:title="src/TH/BetaRelocationStrategy\lData.h">
<polygon fill="none" stroke="black" points="0,-57.5 0,-89.5 166,-89.5 166,-57.5 0,-57.5"/>
<text text-anchor="start" x="8" y="-76.7" font-family="Helvetica,sans-Serif" font-size="11.00">src/TH/BetaRelocationStrategy</text>
<text text-anchor="middle" x="83" y="-64.7" font-family="Helvetica,sans-Serif" font-size="11.00">Data.h</text>
</a>
</g>
</g>
<!-- Node2&#45;&gt;Node3 -->
<g id="edge2" class="edge"><title>Node2&#45;&gt;Node3</title>
<path fill="none" stroke="midnightblue" d="M216.854,-189.041C205.398,-179.885 191.966,-169.02 180,-159 151.575,-135.198 119.228,-106.734 99.9972,-89.6627"/>
<polygon fill="midnightblue" stroke="midnightblue" points="214.796,-191.876 224.799,-195.369 219.158,-186.401 214.796,-191.876"/>
</g>
<!-- Node2&#45;&gt;Node4 -->
<g id="edge8" class="edge"><title>Node2&#45;&gt;Node4</title>
<path fill="none" stroke="midnightblue" d="M226.104,-186.85C220.809,-178.497 215.707,-168.747 213,-159 198.835,-108.001 219.54,-44.0957 228.352,-20.6574"/>
<polygon fill="midnightblue" stroke="midnightblue" points="223.318,-188.978 231.821,-195.299 229.116,-185.055 223.318,-188.978"/>
</g>
<!-- Node5 -->
<g id="node5" class="node"><title>Node5</title>
<g id="a_node5"><a xlink:href="RelocationStrategyPolicy_8h.xhtml" target="_top" xlink:title="src/TH/RelocationStrategy\lPolicy.h">
<polygon fill="none" stroke="black" points="222.5,-126.5 222.5,-158.5 365.5,-158.5 365.5,-126.5 222.5,-126.5"/>
<text text-anchor="start" x="230.5" y="-145.7" font-family="Helvetica,sans-Serif" font-size="11.00">src/TH/RelocationStrategy</text>
<text text-anchor="middle" x="294" y="-133.7" font-family="Helvetica,sans-Serif" font-size="11.00">Policy.h</text>
</a>
</g>
</g>
<!-- Node2&#45;&gt;Node5 -->
<g id="edge4" class="edge"><title>Node2&#45;&gt;Node5</title>
<path fill="none" stroke="midnightblue" d="M261.491,-187.063C268.529,-177.632 276.442,-167.028 282.699,-158.643"/>
<polygon fill="midnightblue" stroke="midnightblue" points="258.522,-185.189 255.346,-195.297 264.132,-189.376 258.522,-185.189"/>
</g>
<!-- Node3&#45;&gt;Node4 -->
<g id="edge3" class="edge"><title>Node3&#45;&gt;Node4</title>
<path fill="none" stroke="midnightblue" d="M129.427,-53.4929C156.257,-42.5089 188.777,-29.1955 209.904,-20.5459"/>
<polygon fill="midnightblue" stroke="midnightblue" points="127.76,-50.3935 119.831,-57.4213 130.412,-56.8716 127.76,-50.3935"/>
</g>
<!-- Node5&#45;&gt;Node4 -->
<g id="edge7" class="edge"><title>Node5&#45;&gt;Node4</title>
<path fill="none" stroke="midnightblue" d="M271.063,-118.645C263.719,-110.236 256.162,-100.248 251,-90 239.268,-66.7069 234.554,-35.822 232.853,-20.6734"/>
<polygon fill="midnightblue" stroke="midnightblue" points="268.623,-121.164 277.954,-126.182 273.789,-116.44 268.623,-121.164"/>
</g>
<!-- Node6 -->
<g id="node6" class="node"><title>Node6</title>
<g id="a_node6"><a xlink:href="BetaRelocationStrategyPolicy_8h.xhtml" target="_top" xlink:title="src/TH/BetaRelocationStrategy\lPolicy.h">
<polygon fill="none" stroke="black" points="260,-57.5 260,-89.5 426,-89.5 426,-57.5 260,-57.5"/>
<text text-anchor="start" x="268" y="-76.7" font-family="Helvetica,sans-Serif" font-size="11.00">src/TH/BetaRelocationStrategy</text>
<text text-anchor="middle" x="343" y="-64.7" font-family="Helvetica,sans-Serif" font-size="11.00">Policy.h</text>
</a>
</g>
</g>
<!-- Node5&#45;&gt;Node6 -->
<g id="edge5" class="edge"><title>Node5&#45;&gt;Node6</title>
<path fill="none" stroke="midnightblue" d="M311.141,-118.063C318.038,-108.632 325.793,-98.0276 331.925,-89.6432"/>
<polygon fill="midnightblue" stroke="midnightblue" points="308.197,-116.159 305.119,-126.297 313.847,-120.291 308.197,-116.159"/>
</g>
<!-- Node6&#45;&gt;Node4 -->
<g id="edge6" class="edge"><title>Node6&#45;&gt;Node4</title>
<path fill="none" stroke="midnightblue" d="M306.561,-52.4749C286.946,-41.6958 263.717,-28.9299 248.461,-20.5459"/>
<polygon fill="midnightblue" stroke="midnightblue" points="305.112,-55.6725 315.562,-57.4213 308.484,-49.5378 305.112,-55.6725"/>
</g>
</g>
</svg>
