<?xml version="1.0" encoding="UTF-8" standalone="no"?>
<!DOCTYPE svg PUBLIC "-//W3C//DTD SVG 1.1//EN"
 "http://www.w3.org/Graphics/SVG/1.1/DTD/svg11.dtd">
<!-- Generated by graphviz version 2.38.0 (20140413.2041)
 -->
<!-- Title: src/TH/macros.h Pages: 1 -->
<svg width="213pt" height="86pt"
 viewBox="0.00 0.00 212.50 86.00" xmlns="http://www.w3.org/2000/svg" xmlns:xlink="http://www.w3.org/1999/xlink">
<g id="graph0" class="graph" transform="scale(1 1) rotate(0) translate(4 82)">
<title>src/TH/macros.h</title>
<!-- Node1 -->
<g id="node1" class="node"><title>Node1</title>
<polygon fill="#bfbfbf" stroke="black" points="51,-57.5 51,-77.5 147,-77.5 147,-57.5 51,-57.5"/>
<text text-anchor="middle" x="99" y="-64.7" font-family="Helvetica,sans-Serif" font-size="11.00">src/TH/macros.h</text>
</g>
<!-- Node2 -->
<g id="node2" class="node"><title>Node2</title>
<polygon fill="none" stroke="#bfbfbf" points="0,-0.5 0,-20.5 48,-20.5 48,-0.5 0,-0.5"/>
<text text-anchor="middle" x="24" y="-7.7" font-family="Helvetica,sans-Serif" font-size="11.00">stdio.h</text>
</g>
<!-- Node1&#45;&gt;Node2 -->
<g id="edge1" class="edge"><title>Node1&#45;&gt;Node2</title>
<path fill="none" stroke="midnightblue" d="M86.6153,-57.4179C75.216,-49.0584 58.0863,-36.4966 44.6235,-26.6239"/>
<polygon fill="midnightblue" stroke="midnightblue" points="46.537,-23.6869 36.4031,-20.5956 42.3974,-29.3317 46.537,-23.6869"/>
</g>
<!-- Node3 -->
<g id="node3" class="node"><title>Node3</title>
<polygon fill="none" stroke="#bfbfbf" points="66.5,-0.5 66.5,-20.5 131.5,-20.5 131.5,-0.5 66.5,-0.5"/>
<text text-anchor="middle" x="99" y="-7.7" font-family="Helvetica,sans-Serif" font-size="11.00">sys/time.h</text>
</g>
<!-- Node1&#45;&gt;Node3 -->
<g id="edge2" class="edge"><title>Node1&#45;&gt;Node3</title>
<path fill="none" stroke="midnightblue" d="M99,-57.4179C99,-50.2164 99,-39.8962 99,-30.8632"/>
<polygon fill="midnightblue" stroke="midnightblue" points="102.5,-30.7794 99,-20.7795 95.5001,-30.7795 102.5,-30.7794"/>
</g>
<!-- Node4 -->
<g id="node4" class="node"><title>Node4</title>
<polygon fill="none" stroke="#bfbfbf" points="149.5,-0.5 149.5,-20.5 204.5,-20.5 204.5,-0.5 149.5,-0.5"/>
<text text-anchor="middle" x="177" y="-7.7" font-family="Helvetica,sans-Serif" font-size="11.00">sstream</text>
</g>
<!-- Node1&#45;&gt;Node4 -->
<g id="edge3" class="edge"><title>Node1&#45;&gt;Node4</title>
<path fill="none" stroke="midnightblue" d="M111.88,-57.4179C123.735,-49.0584 141.55,-36.4966 155.552,-26.6239"/>
<polygon fill="midnightblue" stroke="midnightblue" points="157.945,-29.2188 164.101,-20.5956 153.911,-23.498 157.945,-29.2188"/>
</g>
</g>
</svg>
