<?xml version="1.0" encoding="UTF-8" standalone="no"?>
<!DOCTYPE svg PUBLIC "-//W3C//DTD SVG 1.1//EN"
 "http://www.w3.org/Graphics/SVG/1.1/DTD/svg11.dtd">
<!-- Generated by graphviz version 2.38.0 (20140413.2041)
 -->
<!-- Title: src/TH/Partition.h Pages: 1 -->
<svg width="2367pt" height="578pt"
 viewBox="0.00 0.00 2366.76 578.00" xmlns="http://www.w3.org/2000/svg" xmlns:xlink="http://www.w3.org/1999/xlink">
<g id="graph0" class="graph" transform="scale(1 1) rotate(0) translate(4 574)">
<title>src/TH/Partition.h</title>
<!-- Node1 -->
<g id="node1" class="node"><title>Node1</title>
<polygon fill="#bfbfbf" stroke="black" points="2105.26,-549.5 2105.26,-569.5 2206.26,-569.5 2206.26,-549.5 2105.26,-549.5"/>
<text text-anchor="middle" x="2155.76" y="-556.7" font-family="Helvetica,sans-Serif" font-size="11.00">src/TH/Partition.h</text>
</g>
<!-- Node2 -->
<g id="node2" class="node"><title>Node2</title>
<g id="a_node2"><a xlink:href="Dimension_8h.xhtml" target="_top" xlink:title="src/TH/Dimension.h">
<polygon fill="none" stroke="black" points="2141.76,-492.5 2141.76,-512.5 2253.76,-512.5 2253.76,-492.5 2141.76,-492.5"/>
<text text-anchor="middle" x="2197.76" y="-499.7" font-family="Helvetica,sans-Serif" font-size="11.00">src/TH/Dimension.h</text>
</a>
</g>
</g>
<!-- Node1&#45;&gt;Node2 -->
<g id="edge1" class="edge"><title>Node1&#45;&gt;Node2</title>
<path fill="none" stroke="midnightblue" d="M2168.79,-541.437C2176.01,-531.982 2184.71,-520.596 2190.67,-512.779"/>
<polygon fill="midnightblue" stroke="midnightblue" points="2165.98,-539.346 2162.7,-549.418 2171.55,-543.594 2165.98,-539.346"/>
</g>
<!-- Node3 -->
<g id="node3" class="node"><title>Node3</title>
<g id="a_node3"><a xlink:href="Region_8h.xhtml" target="_top" xlink:title="src/TH/Region.h">
<polygon fill="none" stroke="black" points="2108.26,-435.5 2108.26,-455.5 2203.26,-455.5 2203.26,-435.5 2108.26,-435.5"/>
<text text-anchor="middle" x="2155.76" y="-442.7" font-family="Helvetica,sans-Serif" font-size="11.00">src/TH/Region.h</text>
</a>
</g>
</g>
<!-- Node1&#45;&gt;Node3 -->
<g id="edge60" class="edge"><title>Node1&#45;&gt;Node3</title>
<path fill="none" stroke="midnightblue" d="M2144.16,-540.422C2139.66,-532.364 2135.04,-522.549 2132.76,-513 2130.6,-503.921 2130.6,-501.079 2132.76,-492 2135.96,-478.569 2143.8,-464.611 2149.44,-455.756"/>
<polygon fill="midnightblue" stroke="midnightblue" points="2141.3,-542.458 2149.44,-549.244 2147.31,-538.865 2141.3,-542.458"/>
</g>
<!-- Node2&#45;&gt;Node3 -->
<g id="edge2" class="edge"><title>Node2&#45;&gt;Node3</title>
<path fill="none" stroke="midnightblue" d="M2184.73,-484.437C2177.51,-474.982 2168.82,-463.596 2162.85,-455.779"/>
<polygon fill="midnightblue" stroke="midnightblue" points="2181.97,-486.594 2190.83,-492.418 2187.54,-482.346 2181.97,-486.594"/>
</g>
<!-- Node4 -->
<g id="node4" class="node"><title>Node4</title>
<g id="a_node4"><a xlink:href="Solution_8h.xhtml" target="_top" xlink:title="src/TH/Solution.h">
<polygon fill="none" stroke="black" points="696.761,-378.5 696.761,-398.5 796.761,-398.5 796.761,-378.5 696.761,-378.5"/>
<text text-anchor="middle" x="746.761" y="-385.7" font-family="Helvetica,sans-Serif" font-size="11.00">src/TH/Solution.h</text>
</a>
</g>
</g>
<!-- Node3&#45;&gt;Node4 -->
<g id="edge3" class="edge"><title>Node3&#45;&gt;Node4</title>
<path fill="none" stroke="midnightblue" d="M2097.87,-442.24C1866.93,-433.226 1013.56,-399.914 796.99,-391.461"/>
<polygon fill="midnightblue" stroke="midnightblue" points="2097.94,-445.746 2108.07,-442.639 2098.22,-438.751 2097.94,-445.746"/>
</g>
<!-- Node8 -->
<g id="node8" class="node"><title>Node8</title>
<g id="a_node8"><a xlink:href="THBuilder_8h.xhtml" target="_top" xlink:title="src/TH/THBuilder.h">
<polygon fill="none" stroke="black" points="1054.76,-0.5 1054.76,-20.5 1164.76,-20.5 1164.76,-0.5 1054.76,-0.5"/>
<text text-anchor="middle" x="1109.76" y="-7.7" font-family="Helvetica,sans-Serif" font-size="11.00">src/TH/THBuilder.h</text>
</a>
</g>
</g>
<!-- Node3&#45;&gt;Node8 -->
<g id="edge59" class="edge"><title>Node3&#45;&gt;Node8</title>
<path fill="none" stroke="midnightblue" d="M2213.5,-437.461C2273.51,-426.541 2358.76,-399.278 2358.76,-332.5 2358.76,-332.5 2358.76,-332.5 2358.76,-141.5 2358.76,-101.182 2358.62,-80.3584 2325.76,-57 2277.92,-22.9974 1396.64,-13.7407 1165.1,-11.891"/>
<polygon fill="midnightblue" stroke="midnightblue" points="2212.62,-434.059 2203.36,-439.196 2213.8,-440.959 2212.62,-434.059"/>
</g>
<!-- Node31 -->
<g id="node31" class="node"><title>Node31</title>
<g id="a_node31"><a xlink:href="SearchSpace_8h.xhtml" target="_top" xlink:title="src/TH/SearchSpace.h">
<polygon fill="none" stroke="black" points="2092.76,-321.5 2092.76,-341.5 2218.76,-341.5 2218.76,-321.5 2092.76,-321.5"/>
<text text-anchor="middle" x="2155.76" y="-328.7" font-family="Helvetica,sans-Serif" font-size="11.00">src/TH/SearchSpace.h</text>
</a>
</g>
</g>
<!-- Node3&#45;&gt;Node31 -->
<g id="edge52" class="edge"><title>Node3&#45;&gt;Node31</title>
<path fill="none" stroke="midnightblue" d="M2155.76,-425.17C2155.76,-400.839 2155.76,-360.028 2155.76,-341.792"/>
<polygon fill="midnightblue" stroke="midnightblue" points="2152.26,-425.335 2155.76,-435.335 2159.26,-425.335 2152.26,-425.335"/>
</g>
<!-- Node5 -->
<g id="node5" class="node"><title>Node5</title>
<g id="a_node5"><a xlink:href="BestList_8h.xhtml" target="_top" xlink:title="src/TH/BestList.h">
<polygon fill="none" stroke="black" points="926.261,-201.5 926.261,-221.5 1025.26,-221.5 1025.26,-201.5 926.261,-201.5"/>
<text text-anchor="middle" x="975.761" y="-208.7" font-family="Helvetica,sans-Serif" font-size="11.00">src/TH/BestList.h</text>
</a>
</g>
</g>
<!-- Node4&#45;&gt;Node5 -->
<g id="edge4" class="edge"><title>Node4&#45;&gt;Node5</title>
<path fill="none" stroke="midnightblue" d="M807.023,-386.879C846.708,-383.357 897.322,-372.495 930.761,-342 966.989,-308.961 974.051,-245.24 975.427,-221.609"/>
<polygon fill="midnightblue" stroke="midnightblue" points="806.635,-383.398 796.926,-387.64 807.161,-390.378 806.635,-383.398"/>
</g>
<!-- Node4&#45;&gt;Node8 -->
<g id="edge50" class="edge"><title>Node4&#45;&gt;Node8</title>
<path fill="none" stroke="midnightblue" d="M687.319,-376.441C604.319,-359.274 463.761,-323.166 463.761,-275.5 463.761,-275.5 463.761,-275.5 463.761,-141.5 463.761,-91.5791 493.151,-79.4063 537.761,-57 627.338,-12.0078 929.575,-9.63607 1054.75,-10.6795"/>
<polygon fill="midnightblue" stroke="midnightblue" points="686.645,-379.875 697.142,-378.44 688.041,-373.016 686.645,-379.875"/>
</g>
<!-- Node12 -->
<g id="node12" class="node"><title>Node12</title>
<g id="a_node12"><a xlink:href="TH_8h.xhtml" target="_top" xlink:title="src/TH/TH.h">
<polygon fill="none" stroke="black" points="589.761,-132.5 589.761,-152.5 665.761,-152.5 665.761,-132.5 589.761,-132.5"/>
<text text-anchor="middle" x="627.761" y="-139.7" font-family="Helvetica,sans-Serif" font-size="11.00">src/TH/TH.h</text>
</a>
</g>
</g>
<!-- Node4&#45;&gt;Node12 -->
<g id="edge49" class="edge"><title>Node4&#45;&gt;Node12</title>
<path fill="none" stroke="midnightblue" d="M727.762,-371.806C706.711,-353.312 673.412,-320.565 655.761,-285 632.938,-239.015 628.712,-175.941 627.934,-152.635"/>
<polygon fill="midnightblue" stroke="midnightblue" points="725.565,-374.533 735.433,-378.391 730.125,-369.221 725.565,-374.533"/>
</g>
<!-- Node13 -->
<g id="node13" class="node"><title>Node13</title>
<g id="a_node13"><a xlink:href="FitnessPolicy_8h.xhtml" target="_top" xlink:title="src/TH/FitnessPolicy.h">
<polygon fill="none" stroke="black" points="797.761,-321.5 797.761,-341.5 921.761,-341.5 921.761,-321.5 797.761,-321.5"/>
<text text-anchor="middle" x="859.761" y="-328.7" font-family="Helvetica,sans-Serif" font-size="11.00">src/TH/FitnessPolicy.h</text>
</a>
</g>
</g>
<!-- Node4&#45;&gt;Node13 -->
<g id="edge17" class="edge"><title>Node4&#45;&gt;Node13</title>
<path fill="none" stroke="midnightblue" d="M774.662,-373.92C795.351,-363.85 822.989,-350.398 841.073,-341.596"/>
<polygon fill="midnightblue" stroke="midnightblue" points="772.88,-370.894 765.42,-378.418 775.944,-377.188 772.88,-370.894"/>
</g>
<!-- Node24 -->
<g id="node24" class="node"><title>Node24</title>
<g id="a_node24"><a xlink:href="RosenbrockFitnessPolicy_8h.xhtml" target="_top" xlink:title="src/RosenbrockFitnessPolicy.h">
<polygon fill="none" stroke="black" points="664.761,-264.5 664.761,-284.5 828.761,-284.5 828.761,-264.5 664.761,-264.5"/>
<text text-anchor="middle" x="746.761" y="-271.7" font-family="Helvetica,sans-Serif" font-size="11.00">src/RosenbrockFitnessPolicy.h</text>
</a>
</g>
</g>
<!-- Node4&#45;&gt;Node24 -->
<g id="edge51" class="edge"><title>Node4&#45;&gt;Node24</title>
<path fill="none" stroke="midnightblue" d="M746.761,-368.17C746.761,-343.839 746.761,-303.028 746.761,-284.792"/>
<polygon fill="midnightblue" stroke="midnightblue" points="743.261,-368.335 746.761,-378.335 750.261,-368.335 743.261,-368.335"/>
</g>
<!-- Node26 -->
<g id="node26" class="node"><title>Node26</title>
<g id="a_node26"><a xlink:href="IterationData_8h.xhtml" target="_top" xlink:title="src/TH/IterationData.h">
<polygon fill="none" stroke="black" points="312.261,-264.5 312.261,-284.5 435.261,-284.5 435.261,-264.5 312.261,-264.5"/>
<text text-anchor="middle" x="373.761" y="-271.7" font-family="Helvetica,sans-Serif" font-size="11.00">src/TH/IterationData.h</text>
</a>
</g>
</g>
<!-- Node4&#45;&gt;Node26 -->
<g id="edge39" class="edge"><title>Node4&#45;&gt;Node26</title>
<path fill="none" stroke="midnightblue" d="M686.736,-388.011C624.654,-386.369 526.261,-377.588 449.761,-342 420.193,-328.245 393.471,-299.373 381.068,-284.612"/>
<polygon fill="midnightblue" stroke="midnightblue" points="686.685,-391.51 696.757,-388.222 686.833,-384.512 686.685,-391.51"/>
</g>
<!-- Node6 -->
<g id="node6" class="node"><title>Node6</title>
<g id="a_node6"><a xlink:href="BestListSelectionPolicy_8h.xhtml" target="_top" xlink:title="src/TH/BestListSelection\lPolicy.h">
<polygon fill="none" stroke="black" points="984.761,-126.5 984.761,-158.5 1118.76,-158.5 1118.76,-126.5 984.761,-126.5"/>
<text text-anchor="start" x="992.761" y="-145.7" font-family="Helvetica,sans-Serif" font-size="11.00">src/TH/BestListSelection</text>
<text text-anchor="middle" x="1051.76" y="-133.7" font-family="Helvetica,sans-Serif" font-size="11.00">Policy.h</text>
</a>
</g>
</g>
<!-- Node5&#45;&gt;Node6 -->
<g id="edge5" class="edge"><title>Node5&#45;&gt;Node6</title>
<path fill="none" stroke="midnightblue" d="M993.857,-194.547C1006.24,-183.63 1022.55,-169.249 1034.71,-158.533"/>
<polygon fill="midnightblue" stroke="midnightblue" points="991.197,-192.226 986.01,-201.464 995.826,-197.477 991.197,-192.226"/>
</g>
<!-- Node5&#45;&gt;Node8 -->
<g id="edge16" class="edge"><title>Node5&#45;&gt;Node8</title>
<path fill="none" stroke="midnightblue" d="M965.631,-192.218C949.925,-161.135 924.492,-97.4314 954.761,-57 966.946,-40.7232 1015.05,-28.2879 1054.48,-20.5641"/>
<polygon fill="midnightblue" stroke="midnightblue" points="962.728,-194.217 970.49,-201.428 968.92,-190.951 962.728,-194.217"/>
</g>
<!-- Node9 -->
<g id="node9" class="node"><title>Node9</title>
<g id="a_node9"><a xlink:href="BestListUpdatePolicy_8h.xhtml" target="_top" xlink:title="src/TH/BestListUpdatePolicy.h">
<polygon fill="none" stroke="black" points="706.261,-132.5 706.261,-152.5 869.261,-152.5 869.261,-132.5 706.261,-132.5"/>
<text text-anchor="middle" x="787.761" y="-139.7" font-family="Helvetica,sans-Serif" font-size="11.00">src/TH/BestListUpdatePolicy.h</text>
</a>
</g>
</g>
<!-- Node5&#45;&gt;Node9 -->
<g id="edge9" class="edge"><title>Node5&#45;&gt;Node9</title>
<path fill="none" stroke="midnightblue" d="M940.543,-197.949C903.531,-184.759 846.21,-164.33 813.314,-152.607"/>
<polygon fill="midnightblue" stroke="midnightblue" points="939.812,-201.404 950.406,-201.464 942.162,-194.81 939.812,-201.404"/>
</g>
<!-- Node5&#45;&gt;Node12 -->
<g id="edge14" class="edge"><title>Node5&#45;&gt;Node12</title>
<path fill="none" stroke="midnightblue" d="M916.062,-200.165C859.482,-190.208 772.173,-174.424 696.761,-159 686.777,-156.958 676.014,-154.611 666.026,-152.371"/>
<polygon fill="midnightblue" stroke="midnightblue" points="915.805,-203.673 926.259,-201.955 917.015,-196.779 915.805,-203.673"/>
</g>
<!-- Node7 -->
<g id="node7" class="node"><title>Node7</title>
<g id="a_node7"><a xlink:href="RandomBestListSelectionPolicy_8h.xhtml" target="_top" xlink:title="src/TH/RandomBestListSelection\lPolicy.h">
<polygon fill="none" stroke="black" points="963.761,-57.5 963.761,-89.5 1139.76,-89.5 1139.76,-57.5 963.761,-57.5"/>
<text text-anchor="start" x="971.761" y="-76.7" font-family="Helvetica,sans-Serif" font-size="11.00">src/TH/RandomBestListSelection</text>
<text text-anchor="middle" x="1051.76" y="-64.7" font-family="Helvetica,sans-Serif" font-size="11.00">Policy.h</text>
</a>
</g>
</g>
<!-- Node6&#45;&gt;Node7 -->
<g id="edge6" class="edge"><title>Node6&#45;&gt;Node7</title>
<path fill="none" stroke="midnightblue" d="M1051.76,-116.025C1051.76,-107.128 1051.76,-97.4287 1051.76,-89.6432"/>
<polygon fill="midnightblue" stroke="midnightblue" points="1048.26,-116.297 1051.76,-126.297 1055.26,-116.297 1048.26,-116.297"/>
</g>
<!-- Node6&#45;&gt;Node8 -->
<g id="edge8" class="edge"><title>Node6&#45;&gt;Node8</title>
<path fill="none" stroke="midnightblue" d="M1112.24,-122.045C1126.68,-114.406 1140.34,-104.005 1148.76,-90 1156.32,-77.4305 1153.85,-70.7556 1148.76,-57 1143.27,-42.1682 1130.55,-28.9086 1121.12,-20.5831"/>
<polygon fill="midnightblue" stroke="midnightblue" points="1110.65,-118.928 1103.19,-126.452 1113.71,-125.222 1110.65,-118.928"/>
</g>
<!-- Node7&#45;&gt;Node8 -->
<g id="edge7" class="edge"><title>Node7&#45;&gt;Node8</title>
<path fill="none" stroke="midnightblue" d="M1073.2,-49.955C1082.89,-39.7578 1093.8,-28.285 1101.16,-20.5459"/>
<polygon fill="midnightblue" stroke="midnightblue" points="1070.45,-47.7626 1066.1,-57.4213 1075.52,-52.586 1070.45,-47.7626"/>
</g>
<!-- Node9&#45;&gt;Node8 -->
<g id="edge13" class="edge"><title>Node9&#45;&gt;Node8</title>
<path fill="none" stroke="midnightblue" d="M720.947,-130.805C657.083,-119.902 569.016,-102.817 558.761,-90 549.598,-78.5477 548.826,-67.7892 558.761,-57 591.88,-21.0333 921.313,-13.4961 1054.41,-11.9177"/>
<polygon fill="midnightblue" stroke="midnightblue" points="720.53,-134.284 730.973,-132.5 721.697,-127.382 720.53,-134.284"/>
</g>
<!-- Node10 -->
<g id="node10" class="node"><title>Node10</title>
<g id="a_node10"><a xlink:href="ConvergentBestListUpdatePolicy_8h.xhtml" target="_top" xlink:title="src/TH/ConvergentBestList\lUpdatePolicy.h">
<polygon fill="none" stroke="black" points="567.761,-57.5 567.761,-89.5 713.761,-89.5 713.761,-57.5 567.761,-57.5"/>
<text text-anchor="start" x="575.761" y="-76.7" font-family="Helvetica,sans-Serif" font-size="11.00">src/TH/ConvergentBestList</text>
<text text-anchor="middle" x="640.761" y="-64.7" font-family="Helvetica,sans-Serif" font-size="11.00">UpdatePolicy.h</text>
</a>
</g>
</g>
<!-- Node9&#45;&gt;Node10 -->
<g id="edge10" class="edge"><title>Node9&#45;&gt;Node10</title>
<path fill="none" stroke="midnightblue" d="M758.797,-128.299C734.328,-117.146 699.289,-101.176 673.745,-89.5335"/>
<polygon fill="midnightblue" stroke="midnightblue" points="757.385,-131.501 767.936,-132.464 760.288,-125.132 757.385,-131.501"/>
</g>
<!-- Node11 -->
<g id="node11" class="node"><title>Node11</title>
<g id="a_node11"><a xlink:href="DivergentBestListUpdatePolicy_8h.xhtml" target="_top" xlink:title="src/TH/DivergentBestList\lUpdatePolicy.h">
<polygon fill="none" stroke="black" points="732.261,-57.5 732.261,-89.5 869.261,-89.5 869.261,-57.5 732.261,-57.5"/>
<text text-anchor="start" x="740.261" y="-76.7" font-family="Helvetica,sans-Serif" font-size="11.00">src/TH/DivergentBestList</text>
<text text-anchor="middle" x="800.761" y="-64.7" font-family="Helvetica,sans-Serif" font-size="11.00">UpdatePolicy.h</text>
</a>
</g>
</g>
<!-- Node9&#45;&gt;Node11 -->
<g id="edge12" class="edge"><title>Node9&#45;&gt;Node11</title>
<path fill="none" stroke="midnightblue" d="M791.42,-122.64C793.452,-112.168 795.945,-99.3214 797.844,-89.5335"/>
<polygon fill="midnightblue" stroke="midnightblue" points="787.983,-121.98 789.514,-132.464 794.855,-123.314 787.983,-121.98"/>
</g>
<!-- Node10&#45;&gt;Node8 -->
<g id="edge11" class="edge"><title>Node10&#45;&gt;Node8</title>
<path fill="none" stroke="midnightblue" d="M724.059,-56.8618C847.728,-38.2077 981.221,-24.0352 1054.48,-16.7738"/>
<polygon fill="midnightblue" stroke="midnightblue" points="723.395,-53.4225 714.035,-58.3871 724.448,-60.3429 723.395,-53.4225"/>
</g>
<!-- Node12&#45;&gt;Node8 -->
<g id="edge15" class="edge"><title>Node12&#45;&gt;Node8</title>
<path fill="none" stroke="midnightblue" d="M591.861,-127.976C575.285,-119.709 557.217,-107.334 547.761,-90 540.737,-77.1247 537.817,-67.7812 547.761,-57 581.649,-20.2573 919.212,-13.1812 1054.3,-11.8219"/>
<polygon fill="midnightblue" stroke="midnightblue" points="590.827,-131.354 601.372,-132.376 593.766,-125.001 590.827,-131.354"/>
</g>
<!-- Node13&#45;&gt;Node8 -->
<g id="edge36" class="edge"><title>Node13&#45;&gt;Node8</title>
<path fill="none" stroke="midnightblue" d="M869.579,-312.219C880.838,-289.512 897.761,-249.268 897.761,-212.5 897.761,-212.5 897.761,-212.5 897.761,-141.5 897.761,-99.7571 906.555,-83.5566 938.761,-57 971.351,-30.1268 1018.26,-18.9951 1054.71,-14.4477"/>
<polygon fill="midnightblue" stroke="midnightblue" points="866.348,-310.849 864.886,-321.342 872.573,-314.051 866.348,-310.849"/>
</g>
<!-- Node13&#45;&gt;Node9 -->
<g id="edge18" class="edge"><title>Node13&#45;&gt;Node9</title>
<path fill="none" stroke="midnightblue" d="M860.64,-311.177C861.086,-283.809 858.923,-232.874 839.761,-195 830.812,-177.313 813.46,-162.059 801.269,-152.839"/>
<polygon fill="midnightblue" stroke="midnightblue" points="857.136,-311.255 860.331,-321.357 864.133,-311.468 857.136,-311.255"/>
</g>
<!-- Node14 -->
<g id="node14" class="node"><title>Node14</title>
<g id="a_node14"><a xlink:href="Search_8h.xhtml" target="_top" xlink:title="src/TH/Search.h">
<polygon fill="none" stroke="black" points="1326.26,-264.5 1326.26,-284.5 1421.26,-284.5 1421.26,-264.5 1326.26,-264.5"/>
<text text-anchor="middle" x="1373.76" y="-271.7" font-family="Helvetica,sans-Serif" font-size="11.00">src/TH/Search.h</text>
</a>
</g>
</g>
<!-- Node13&#45;&gt;Node14 -->
<g id="edge19" class="edge"><title>Node13&#45;&gt;Node14</title>
<path fill="none" stroke="midnightblue" d="M931.794,-322.792C1038.45,-311.379 1235.5,-290.294 1326.02,-280.609"/>
<polygon fill="midnightblue" stroke="midnightblue" points="931.332,-319.322 921.761,-323.866 932.077,-326.282 931.332,-319.322"/>
</g>
<!-- Node13&#45;&gt;Node24 -->
<g id="edge37" class="edge"><title>Node13&#45;&gt;Node24</title>
<path fill="none" stroke="midnightblue" d="M831.86,-316.92C811.17,-306.85 783.532,-293.398 765.448,-284.596"/>
<polygon fill="midnightblue" stroke="midnightblue" points="830.578,-320.188 841.101,-321.418 833.641,-313.894 830.578,-320.188"/>
</g>
<!-- Node14&#45;&gt;Node8 -->
<g id="edge32" class="edge"><title>Node14&#45;&gt;Node8</title>
<path fill="none" stroke="midnightblue" d="M1348.32,-259.385C1333.3,-250.782 1314.1,-239.299 1297.76,-228 1257.17,-199.931 1240.94,-198.051 1210.76,-159 1180.46,-119.792 1195.83,-96.3856 1165.76,-57 1154.36,-42.064 1137.09,-29.01 1124.75,-20.7603"/>
<polygon fill="midnightblue" stroke="midnightblue" points="1346.64,-262.455 1357.06,-264.342 1350.09,-256.365 1346.64,-262.455"/>
</g>
<!-- Node15 -->
<g id="node15" class="node"><title>Node15</title>
<g id="a_node15"><a xlink:href="ConvergenceControlPolicy_8h.xhtml" target="_top" xlink:title="src/TH/ConvergenceControl\lPolicy.h">
<polygon fill="none" stroke="black" points="1219.76,-126.5 1219.76,-158.5 1371.76,-158.5 1371.76,-126.5 1219.76,-126.5"/>
<text text-anchor="start" x="1227.76" y="-145.7" font-family="Helvetica,sans-Serif" font-size="11.00">src/TH/ConvergenceControl</text>
<text text-anchor="middle" x="1295.76" y="-133.7" font-family="Helvetica,sans-Serif" font-size="11.00">Policy.h</text>
</a>
</g>
</g>
<!-- Node14&#45;&gt;Node15 -->
<g id="edge20" class="edge"><title>Node14&#45;&gt;Node15</title>
<path fill="none" stroke="midnightblue" d="M1347.7,-259.14C1335.95,-251.388 1322.91,-240.777 1314.76,-228 1301.1,-206.572 1297.2,-176.61 1296.12,-158.72"/>
<polygon fill="midnightblue" stroke="midnightblue" points="1346,-262.199 1356.34,-264.499 1349.69,-256.251 1346,-262.199"/>
</g>
<!-- Node17 -->
<g id="node17" class="node"><title>Node17</title>
<g id="a_node17"><a xlink:href="SearchScore_8h.xhtml" target="_top" xlink:title="src/TH/SearchScore.h">
<polygon fill="none" stroke="black" points="1441.76,-201.5 1441.76,-221.5 1565.76,-221.5 1565.76,-201.5 1441.76,-201.5"/>
<text text-anchor="middle" x="1503.76" y="-208.7" font-family="Helvetica,sans-Serif" font-size="11.00">src/TH/SearchScore.h</text>
</a>
</g>
</g>
<!-- Node14&#45;&gt;Node17 -->
<g id="edge24" class="edge"><title>Node14&#45;&gt;Node17</title>
<path fill="none" stroke="midnightblue" d="M1402.26,-260.128C1427.21,-248.422 1462.77,-231.735 1484.5,-221.538"/>
<polygon fill="midnightblue" stroke="midnightblue" points="1400.51,-257.083 1392.94,-264.499 1403.48,-263.42 1400.51,-257.083"/>
</g>
<!-- Node22 -->
<g id="node22" class="node"><title>Node22</title>
<g id="a_node22"><a xlink:href="PSO_8h.xhtml" target="_top" xlink:title="src/PSO.h">
<polygon fill="none" stroke="black" points="1583.76,-201.5 1583.76,-221.5 1649.76,-221.5 1649.76,-201.5 1583.76,-201.5"/>
<text text-anchor="middle" x="1616.76" y="-208.7" font-family="Helvetica,sans-Serif" font-size="11.00">src/PSO.h</text>
</a>
</g>
</g>
<!-- Node14&#45;&gt;Node22 -->
<g id="edge33" class="edge"><title>Node14&#45;&gt;Node22</title>
<path fill="none" stroke="midnightblue" d="M1431.28,-262.565C1471.76,-254.365 1527.01,-242.15 1574.76,-228 1581.02,-226.145 1587.69,-223.839 1593.84,-221.577"/>
<polygon fill="midnightblue" stroke="midnightblue" points="1430.44,-259.164 1421.32,-264.562 1431.81,-266.028 1430.44,-259.164"/>
</g>
<!-- Node23 -->
<g id="node23" class="node"><title>Node23</title>
<g id="a_node23"><a xlink:href="HillClimbing_8h.xhtml" target="_top" xlink:title="src/HillClimbing.h">
<polygon fill="none" stroke="black" points="1323.76,-201.5 1323.76,-221.5 1423.76,-221.5 1423.76,-201.5 1323.76,-201.5"/>
<text text-anchor="middle" x="1373.76" y="-208.7" font-family="Helvetica,sans-Serif" font-size="11.00">src/HillClimbing.h</text>
</a>
</g>
</g>
<!-- Node14&#45;&gt;Node23 -->
<g id="edge34" class="edge"><title>Node14&#45;&gt;Node23</title>
<path fill="none" stroke="midnightblue" d="M1373.76,-254.201C1373.76,-243.27 1373.76,-230.111 1373.76,-221.538"/>
<polygon fill="midnightblue" stroke="midnightblue" points="1370.26,-254.499 1373.76,-264.499 1377.26,-254.499 1370.26,-254.499"/>
</g>
<!-- Node15&#45;&gt;Node8 -->
<g id="edge23" class="edge"><title>Node15&#45;&gt;Node8</title>
<path fill="none" stroke="midnightblue" d="M1279.22,-117.928C1265.17,-99.332 1243.55,-73.8111 1219.76,-57 1195.96,-40.1815 1165.01,-28.0867 1142,-20.6143"/>
<polygon fill="midnightblue" stroke="midnightblue" points="1276.55,-120.207 1285.3,-126.18 1282.19,-116.053 1276.55,-120.207"/>
</g>
<!-- Node16 -->
<g id="node16" class="node"><title>Node16</title>
<g id="a_node16"><a xlink:href="CSMOn_8h.xhtml" target="_top" xlink:title="src/TH/CSMOn.h">
<polygon fill="none" stroke="black" points="1271.76,-63.5 1271.76,-83.5 1371.76,-83.5 1371.76,-63.5 1271.76,-63.5"/>
<text text-anchor="middle" x="1321.76" y="-70.7" font-family="Helvetica,sans-Serif" font-size="11.00">src/TH/CSMOn.h</text>
</a>
</g>
</g>
<!-- Node15&#45;&gt;Node16 -->
<g id="edge21" class="edge"><title>Node15&#45;&gt;Node16</title>
<path fill="none" stroke="midnightblue" d="M1305.39,-116.693C1309.86,-105.16 1314.91,-92.1501 1318.2,-83.6646"/>
<polygon fill="midnightblue" stroke="midnightblue" points="1302.02,-115.708 1301.66,-126.297 1308.54,-118.24 1302.02,-115.708"/>
</g>
<!-- Node16&#45;&gt;Node8 -->
<g id="edge22" class="edge"><title>Node16&#45;&gt;Node8</title>
<path fill="none" stroke="midnightblue" d="M1280.84,-60.7259C1240.04,-48.9863 1178.26,-31.2087 1141.17,-20.5377"/>
<polygon fill="midnightblue" stroke="midnightblue" points="1279.9,-64.0975 1290.48,-63.4992 1281.84,-57.3705 1279.9,-64.0975"/>
</g>
<!-- Node17&#45;&gt;Node8 -->
<g id="edge31" class="edge"><title>Node17&#45;&gt;Node8</title>
<path fill="none" stroke="midnightblue" d="M1497.33,-191.896C1484.81,-158.743 1453.85,-89.8496 1402.76,-57 1364.39,-32.3253 1238.69,-20.0069 1164.99,-14.7631"/>
<polygon fill="midnightblue" stroke="midnightblue" points="1494.04,-193.107 1500.74,-201.313 1500.62,-190.719 1494.04,-193.107"/>
</g>
<!-- Node18 -->
<g id="node18" class="node"><title>Node18</title>
<g id="a_node18"><a xlink:href="SearchAlgorithmSelectionPolicy_8h.xhtml" target="_top" xlink:title="src/TH/SearchAlgorithmSelection\lPolicy.h">
<polygon fill="none" stroke="black" points="1512.76,-126.5 1512.76,-158.5 1688.76,-158.5 1688.76,-126.5 1512.76,-126.5"/>
<text text-anchor="start" x="1520.76" y="-145.7" font-family="Helvetica,sans-Serif" font-size="11.00">src/TH/SearchAlgorithmSelection</text>
<text text-anchor="middle" x="1600.76" y="-133.7" font-family="Helvetica,sans-Serif" font-size="11.00">Policy.h</text>
</a>
</g>
</g>
<!-- Node17&#45;&gt;Node18 -->
<g id="edge25" class="edge"><title>Node17&#45;&gt;Node18</title>
<path fill="none" stroke="midnightblue" d="M1525.5,-195.483C1541.46,-184.463 1563.04,-169.558 1579,-158.533"/>
<polygon fill="midnightblue" stroke="midnightblue" points="1523.08,-192.901 1516.84,-201.464 1527.06,-198.661 1523.08,-192.901"/>
</g>
<!-- Node18&#45;&gt;Node8 -->
<g id="edge30" class="edge"><title>Node18&#45;&gt;Node8</title>
<path fill="none" stroke="midnightblue" d="M1555.79,-122.105C1536.52,-113.175 1514.06,-101.921 1494.76,-90 1474.27,-77.3382 1474.01,-66.235 1451.76,-57 1401.14,-35.99 1248.13,-21.7671 1164.98,-15.3641"/>
<polygon fill="midnightblue" stroke="midnightblue" points="1554.41,-125.324 1564.96,-126.294 1557.32,-118.956 1554.41,-125.324"/>
</g>
<!-- Node19 -->
<g id="node19" class="node"><title>Node19</title>
<g id="a_node19"><a xlink:href="ReinforcementLearningSearchAlgorithmSelectionPolicy_8h.xhtml" target="_top" xlink:title="src/TH/ReinforcementLearning\lSearchAlgorithmSelectionPolicy.h">
<polygon fill="none" stroke="black" points="1715.26,-57.5 1715.26,-89.5 1894.26,-89.5 1894.26,-57.5 1715.26,-57.5"/>
<text text-anchor="start" x="1723.26" y="-76.7" font-family="Helvetica,sans-Serif" font-size="11.00">src/TH/ReinforcementLearning</text>
<text text-anchor="middle" x="1804.76" y="-64.7" font-family="Helvetica,sans-Serif" font-size="11.00">SearchAlgorithmSelectionPolicy.h</text>
</a>
</g>
</g>
<!-- Node18&#45;&gt;Node19 -->
<g id="edge26" class="edge"><title>Node18&#45;&gt;Node19</title>
<path fill="none" stroke="midnightblue" d="M1656.25,-123.276C1688.4,-112.717 1728.4,-99.5805 1758.78,-89.6017"/>
<polygon fill="midnightblue" stroke="midnightblue" points="1654.95,-120.018 1646.54,-126.464 1657.14,-126.669 1654.95,-120.018"/>
</g>
<!-- Node20 -->
<g id="node20" class="node"><title>Node20</title>
<g id="a_node20"><a xlink:href="RoundRobinSearchAlgorithmSelectionPolicy_8h.xhtml" target="_top" xlink:title="src/TH/RoundRobinSearchAlgorithm\lSelectionPolicy.h">
<polygon fill="none" stroke="black" points="1504.26,-57.5 1504.26,-89.5 1697.26,-89.5 1697.26,-57.5 1504.26,-57.5"/>
<text text-anchor="start" x="1512.26" y="-76.7" font-family="Helvetica,sans-Serif" font-size="11.00">src/TH/RoundRobinSearchAlgorithm</text>
<text text-anchor="middle" x="1600.76" y="-64.7" font-family="Helvetica,sans-Serif" font-size="11.00">SelectionPolicy.h</text>
</a>
</g>
</g>
<!-- Node18&#45;&gt;Node20 -->
<g id="edge27" class="edge"><title>Node18&#45;&gt;Node20</title>
<path fill="none" stroke="midnightblue" d="M1600.76,-116.025C1600.76,-107.128 1600.76,-97.4287 1600.76,-89.6432"/>
<polygon fill="midnightblue" stroke="midnightblue" points="1597.26,-116.297 1600.76,-126.297 1604.26,-116.297 1597.26,-116.297"/>
</g>
<!-- Node21 -->
<g id="node21" class="node"><title>Node21</title>
<g id="a_node21"><a xlink:href="SingleSearchAlgorithmSelectionPolicy_8h.xhtml" target="_top" xlink:title="src/TH/SingleSearchAlgorithm\lSelectionPolicy.h">
<polygon fill="none" stroke="black" points="1912.76,-57.5 1912.76,-89.5 2074.76,-89.5 2074.76,-57.5 1912.76,-57.5"/>
<text text-anchor="start" x="1920.76" y="-76.7" font-family="Helvetica,sans-Serif" font-size="11.00">src/TH/SingleSearchAlgorithm</text>
<text text-anchor="middle" x="1993.76" y="-64.7" font-family="Helvetica,sans-Serif" font-size="11.00">SelectionPolicy.h</text>
</a>
</g>
</g>
<!-- Node18&#45;&gt;Node21 -->
<g id="edge29" class="edge"><title>Node18&#45;&gt;Node21</title>
<path fill="none" stroke="midnightblue" d="M1698.94,-124.762C1764.81,-113.533 1850.54,-98.9175 1912.55,-88.3443"/>
<polygon fill="midnightblue" stroke="midnightblue" points="1698.23,-121.333 1688.96,-126.464 1699.4,-128.233 1698.23,-121.333"/>
</g>
<!-- Node20&#45;&gt;Node8 -->
<g id="edge28" class="edge"><title>Node20&#45;&gt;Node8</title>
<path fill="none" stroke="midnightblue" d="M1494.22,-57.5816C1492.73,-57.3856 1491.24,-57.1916 1489.76,-57 1374.29,-42.0257 1238.83,-26.2303 1164.87,-17.7556"/>
<polygon fill="midnightblue" stroke="midnightblue" points="1493.84,-61.0615 1504.21,-58.9027 1494.76,-54.1219 1493.84,-61.0615"/>
</g>
<!-- Node23&#45;&gt;Node8 -->
<g id="edge35" class="edge"><title>Node23&#45;&gt;Node8</title>
<path fill="none" stroke="midnightblue" d="M1381.88,-191.752C1394.24,-159.967 1413.12,-95.2408 1380.76,-57 1353.68,-24.996 1236.06,-15.4902 1164.97,-12.6754"/>
<polygon fill="midnightblue" stroke="midnightblue" points="1378.57,-190.601 1378.02,-201.182 1385.05,-193.252 1378.57,-190.601"/>
</g>
<!-- Node25 -->
<g id="node25" class="node"><title>Node25</title>
<g id="a_node25"><a xlink:href="RosenbrockFitnessPolicy_8cpp.xhtml" target="_top" xlink:title="src/RosenbrockFitnessPolicy.cpp">
<polygon fill="none" stroke="black" points="656.261,-201.5 656.261,-221.5 831.261,-221.5 831.261,-201.5 656.261,-201.5"/>
<text text-anchor="middle" x="743.761" y="-208.7" font-family="Helvetica,sans-Serif" font-size="11.00">src/RosenbrockFitnessPolicy.cpp</text>
</a>
</g>
</g>
<!-- Node24&#45;&gt;Node25 -->
<g id="edge38" class="edge"><title>Node24&#45;&gt;Node25</title>
<path fill="none" stroke="midnightblue" d="M745.812,-254.201C745.274,-243.27 744.627,-230.111 744.205,-221.538"/>
<polygon fill="midnightblue" stroke="midnightblue" points="742.331,-254.683 746.318,-264.499 749.323,-254.339 742.331,-254.683"/>
</g>
<!-- Node26&#45;&gt;Node8 -->
<g id="edge48" class="edge"><title>Node26&#45;&gt;Node8</title>
<path fill="none" stroke="midnightblue" d="M379.087,-254.667C393.503,-204.314 433.302,-69.5381 449.761,-57 497.356,-20.742 904.745,-13.364 1054.68,-11.8737"/>
<polygon fill="midnightblue" stroke="midnightblue" points="375.715,-253.73 376.343,-264.306 382.448,-255.646 375.715,-253.73"/>
</g>
<!-- Node27 -->
<g id="node27" class="node"><title>Node27</title>
<g id="a_node27"><a xlink:href="RelocationStrategyData_8h.xhtml" target="_top" xlink:title="src/TH/RelocationStrategy\lData.h">
<polygon fill="none" stroke="black" points="187.261,-195.5 187.261,-227.5 330.261,-227.5 330.261,-195.5 187.261,-195.5"/>
<text text-anchor="start" x="195.261" y="-214.7" font-family="Helvetica,sans-Serif" font-size="11.00">src/TH/RelocationStrategy</text>
<text text-anchor="middle" x="258.761" y="-202.7" font-family="Helvetica,sans-Serif" font-size="11.00">Data.h</text>
</a>
</g>
</g>
<!-- Node26&#45;&gt;Node27 -->
<g id="edge40" class="edge"><title>Node26&#45;&gt;Node27</title>
<path fill="none" stroke="midnightblue" d="M347.5,-259.57C329.569,-250.059 305.818,-237.461 287.4,-227.691"/>
<polygon fill="midnightblue" stroke="midnightblue" points="346.318,-262.905 356.792,-264.499 349.598,-256.721 346.318,-262.905"/>
</g>
<!-- Node27&#45;&gt;Node8 -->
<g id="edge47" class="edge"><title>Node27&#45;&gt;Node8</title>
<path fill="none" stroke="midnightblue" d="M237.082,-187.19C223.552,-169.695 210.787,-145.502 222.761,-126 258.225,-68.2396 293.348,-74.7527 358.761,-57 489.943,-21.3977 904.199,-13.6107 1054.55,-11.9433"/>
<polygon fill="midnightblue" stroke="midnightblue" points="234.618,-189.703 243.68,-195.191 240.018,-185.249 234.618,-189.703"/>
</g>
<!-- Node28 -->
<g id="node28" class="node"><title>Node28</title>
<g id="a_node28"><a xlink:href="BetaRelocationStrategyData_8h.xhtml" target="_top" xlink:title="src/TH/BetaRelocationStrategy\lData.h">
<polygon fill="none" stroke="black" points="231.761,-126.5 231.761,-158.5 397.761,-158.5 397.761,-126.5 231.761,-126.5"/>
<text text-anchor="start" x="239.761" y="-145.7" font-family="Helvetica,sans-Serif" font-size="11.00">src/TH/BetaRelocationStrategy</text>
<text text-anchor="middle" x="314.761" y="-133.7" font-family="Helvetica,sans-Serif" font-size="11.00">Data.h</text>
</a>
</g>
</g>
<!-- Node27&#45;&gt;Node28 -->
<g id="edge41" class="edge"><title>Node27&#45;&gt;Node28</title>
<path fill="none" stroke="midnightblue" d="M278.109,-187.351C286.052,-177.848 295.024,-167.113 302.104,-158.643"/>
<polygon fill="midnightblue" stroke="midnightblue" points="275.196,-185.379 271.468,-195.297 280.567,-189.868 275.196,-185.379"/>
</g>
<!-- Node29 -->
<g id="node29" class="node"><title>Node29</title>
<g id="a_node29"><a xlink:href="RelocationStrategyPolicy_8h.xhtml" target="_top" xlink:title="src/TH/RelocationStrategy\lPolicy.h">
<polygon fill="none" stroke="black" points="27.2607,-126.5 27.2607,-158.5 170.261,-158.5 170.261,-126.5 27.2607,-126.5"/>
<text text-anchor="start" x="35.2607" y="-145.7" font-family="Helvetica,sans-Serif" font-size="11.00">src/TH/RelocationStrategy</text>
<text text-anchor="middle" x="98.7607" y="-133.7" font-family="Helvetica,sans-Serif" font-size="11.00">Policy.h</text>
</a>
</g>
</g>
<!-- Node27&#45;&gt;Node29 -->
<g id="edge43" class="edge"><title>Node27&#45;&gt;Node29</title>
<path fill="none" stroke="midnightblue" d="M213.602,-191.59C188.675,-181.152 158.141,-168.365 134.824,-158.602"/>
<polygon fill="midnightblue" stroke="midnightblue" points="212.278,-194.83 222.854,-195.464 214.982,-188.373 212.278,-194.83"/>
</g>
<!-- Node28&#45;&gt;Node8 -->
<g id="edge42" class="edge"><title>Node28&#45;&gt;Node8</title>
<path fill="none" stroke="midnightblue" d="M333.304,-118.456C351.062,-98.2703 379.818,-70.1624 411.761,-57 470.532,-32.7824 900.07,-17.743 1054.58,-13.0681"/>
<polygon fill="midnightblue" stroke="midnightblue" points="330.446,-116.413 326.611,-126.289 335.768,-120.96 330.446,-116.413"/>
</g>
<!-- Node29&#45;&gt;Node8 -->
<g id="edge46" class="edge"><title>Node29&#45;&gt;Node8</title>
<path fill="none" stroke="midnightblue" d="M41.9222,-121.75C28.0055,-114.075 14.8102,-103.731 6.76074,-90 -0.65674,-77.3473 -3.39418,-67.5825 6.76074,-57 43.3566,-18.8634 836.103,-12.6662 1054.49,-11.6817"/>
<polygon fill="midnightblue" stroke="midnightblue" points="40.6231,-125.016 51.1249,-126.417 43.789,-118.772 40.6231,-125.016"/>
</g>
<!-- Node30 -->
<g id="node30" class="node"><title>Node30</title>
<g id="a_node30"><a xlink:href="BetaRelocationStrategyPolicy_8h.xhtml" target="_top" xlink:title="src/TH/BetaRelocationStrategy\lPolicy.h">
<polygon fill="none" stroke="black" points="15.7607,-57.5 15.7607,-89.5 181.761,-89.5 181.761,-57.5 15.7607,-57.5"/>
<text text-anchor="start" x="23.7607" y="-76.7" font-family="Helvetica,sans-Serif" font-size="11.00">src/TH/BetaRelocationStrategy</text>
<text text-anchor="middle" x="98.7607" y="-64.7" font-family="Helvetica,sans-Serif" font-size="11.00">Policy.h</text>
</a>
</g>
</g>
<!-- Node29&#45;&gt;Node30 -->
<g id="edge44" class="edge"><title>Node29&#45;&gt;Node30</title>
<path fill="none" stroke="midnightblue" d="M98.7607,-116.025C98.7607,-107.128 98.7607,-97.4287 98.7607,-89.6432"/>
<polygon fill="midnightblue" stroke="midnightblue" points="95.2608,-116.297 98.7607,-126.297 102.261,-116.297 95.2608,-116.297"/>
</g>
<!-- Node30&#45;&gt;Node8 -->
<g id="edge45" class="edge"><title>Node30&#45;&gt;Node8</title>
<path fill="none" stroke="midnightblue" d="M192.37,-57.3648C193.507,-57.2391 194.637,-57.1174 195.761,-57 520.288,-23.0951 912.363,-14.3066 1054.74,-12.1566"/>
<polygon fill="midnightblue" stroke="midnightblue" points="191.537,-53.9392 182.02,-58.5961 192.364,-60.8902 191.537,-53.9392"/>
</g>
<!-- Node31&#45;&gt;Node8 -->
<g id="edge58" class="edge"><title>Node31&#45;&gt;Node8</title>
<path fill="none" stroke="midnightblue" d="M2203.38,-318.432C2252.11,-302.88 2320.76,-270.652 2320.76,-212.5 2320.76,-212.5 2320.76,-212.5 2320.76,-141.5 2320.76,-102.907 2330.57,-81.5149 2300.76,-57 2256.41,-20.5255 1393.33,-13.0948 1164.86,-11.7644"/>
<polygon fill="midnightblue" stroke="midnightblue" points="2202.16,-315.145 2193.62,-321.412 2204.2,-321.839 2202.16,-315.145"/>
</g>
<!-- Node31&#45;&gt;Node14 -->
<g id="edge53" class="edge"><title>Node31&#45;&gt;Node14</title>
<path fill="none" stroke="midnightblue" d="M2082.65,-325.358C1924.45,-314.231 1553.99,-288.176 1421.74,-278.874"/>
<polygon fill="midnightblue" stroke="midnightblue" points="2082.54,-328.859 2092.76,-326.069 2083.03,-321.876 2082.54,-328.859"/>
</g>
<!-- Node32 -->
<g id="node32" class="node"><title>Node32</title>
<g id="a_node32"><a xlink:href="RegionSelectionPolicy_8h.xhtml" target="_top" xlink:title="src/TH/RegionSelectionPolicy.h">
<polygon fill="none" stroke="black" points="2071.76,-132.5 2071.76,-152.5 2239.76,-152.5 2239.76,-132.5 2071.76,-132.5"/>
<text text-anchor="middle" x="2155.76" y="-139.7" font-family="Helvetica,sans-Serif" font-size="11.00">src/TH/RegionSelectionPolicy.h</text>
</a>
</g>
</g>
<!-- Node31&#45;&gt;Node32 -->
<g id="edge54" class="edge"><title>Node31&#45;&gt;Node32</title>
<path fill="none" stroke="midnightblue" d="M2155.76,-311.312C2155.76,-271.678 2155.76,-182.045 2155.76,-152.869"/>
<polygon fill="midnightblue" stroke="midnightblue" points="2152.26,-311.481 2155.76,-321.481 2159.26,-311.481 2152.26,-311.481"/>
</g>
<!-- Node32&#45;&gt;Node8 -->
<g id="edge57" class="edge"><title>Node32&#45;&gt;Node8</title>
<path fill="none" stroke="midnightblue" d="M2143.46,-124.005C2127.24,-101.514 2098.97,-64.4578 2083.76,-57 2001.3,-16.5684 1358.8,-11.9883 1164.95,-11.5311"/>
<polygon fill="midnightblue" stroke="midnightblue" points="2140.76,-126.246 2149.42,-132.357 2146.46,-122.182 2140.76,-126.246"/>
</g>
<!-- Node33 -->
<g id="node33" class="node"><title>Node33</title>
<g id="a_node33"><a xlink:href="GroupRegionSelectionPolicy_8h.xhtml" target="_top" xlink:title="src/TH/GroupRegionSelection\lPolicy.h">
<polygon fill="none" stroke="black" points="2131.26,-57.5 2131.26,-89.5 2292.26,-89.5 2292.26,-57.5 2131.26,-57.5"/>
<text text-anchor="start" x="2139.26" y="-76.7" font-family="Helvetica,sans-Serif" font-size="11.00">src/TH/GroupRegionSelection</text>
<text text-anchor="middle" x="2211.76" y="-64.7" font-family="Helvetica,sans-Serif" font-size="11.00">Policy.h</text>
</a>
</g>
</g>
<!-- Node32&#45;&gt;Node33 -->
<g id="edge55" class="edge"><title>Node32&#45;&gt;Node33</title>
<path fill="none" stroke="midnightblue" d="M2169.89,-124.594C2178.91,-113.803 2190.5,-99.9396 2199.2,-89.5335"/>
<polygon fill="midnightblue" stroke="midnightblue" points="2167.04,-122.547 2163.31,-132.464 2172.41,-127.036 2167.04,-122.547"/>
</g>
<!-- Node33&#45;&gt;Node8 -->
<g id="edge56" class="edge"><title>Node33&#45;&gt;Node8</title>
<path fill="none" stroke="midnightblue" d="M2121.24,-57.4845C2119.73,-57.3154 2118.24,-57.1537 2116.76,-57 1754.91,-19.4355 1316.74,-12.8756 1164.78,-11.7368"/>
<polygon fill="midnightblue" stroke="midnightblue" points="2120.91,-60.9701 2131.25,-58.6987 2121.75,-54.021 2120.91,-60.9701"/>
</g>
</g>
</svg>
