<?xml version="1.0" encoding="UTF-8" standalone="no"?>
<!DOCTYPE svg PUBLIC "-//W3C//DTD SVG 1.1//EN"
 "http://www.w3.org/Graphics/SVG/1.1/DTD/svg11.dtd">
<!-- Generated by graphviz version 2.38.0 (20140413.2041)
 -->
<!-- Title: src/TH/Partition.h Pages: 1 -->
<svg width="2162pt" height="578pt"
 viewBox="0.00 0.00 2161.50 578.00" xmlns="http://www.w3.org/2000/svg" xmlns:xlink="http://www.w3.org/1999/xlink">
<g id="graph0" class="graph" transform="scale(1 1) rotate(0) translate(4 574)">
<title>src/TH/Partition.h</title>
<!-- Node1 -->
<g id="node1" class="node"><title>Node1</title>
<polygon fill="#bfbfbf" stroke="black" points="1837.5,-549.5 1837.5,-569.5 1938.5,-569.5 1938.5,-549.5 1837.5,-549.5"/>
<text text-anchor="middle" x="1888" y="-556.7" font-family="Helvetica,sans-Serif" font-size="11.00">src/TH/Partition.h</text>
</g>
<!-- Node2 -->
<g id="node2" class="node"><title>Node2</title>
<g id="a_node2"><a xlink:href="Dimension_8h.xhtml" target="_top" xlink:title="src/TH/Dimension.h">
<polygon fill="none" stroke="black" points="1790,-492.5 1790,-512.5 1902,-512.5 1902,-492.5 1790,-492.5"/>
<text text-anchor="middle" x="1846" y="-499.7" font-family="Helvetica,sans-Serif" font-size="11.00">src/TH/Dimension.h</text>
</a>
</g>
</g>
<!-- Node1&#45;&gt;Node2 -->
<g id="edge1" class="edge"><title>Node1&#45;&gt;Node2</title>
<path fill="none" stroke="midnightblue" d="M1874.97,-541.437C1867.75,-531.982 1859.05,-520.596 1853.09,-512.779"/>
<polygon fill="midnightblue" stroke="midnightblue" points="1872.21,-543.594 1881.06,-549.418 1877.78,-539.346 1872.21,-543.594"/>
</g>
<!-- Node3 -->
<g id="node3" class="node"><title>Node3</title>
<g id="a_node3"><a xlink:href="Region_8h.xhtml" target="_top" xlink:title="src/TH/Region.h">
<polygon fill="none" stroke="black" points="1840.5,-435.5 1840.5,-455.5 1935.5,-455.5 1935.5,-435.5 1840.5,-435.5"/>
<text text-anchor="middle" x="1888" y="-442.7" font-family="Helvetica,sans-Serif" font-size="11.00">src/TH/Region.h</text>
</a>
</g>
</g>
<!-- Node1&#45;&gt;Node3 -->
<g id="edge59" class="edge"><title>Node1&#45;&gt;Node3</title>
<path fill="none" stroke="midnightblue" d="M1899.6,-540.422C1904.1,-532.364 1908.72,-522.549 1911,-513 1913.16,-503.921 1913.16,-501.079 1911,-492 1907.8,-478.569 1899.96,-464.611 1894.32,-455.756"/>
<polygon fill="midnightblue" stroke="midnightblue" points="1896.45,-538.865 1894.32,-549.244 1902.46,-542.458 1896.45,-538.865"/>
</g>
<!-- Node2&#45;&gt;Node3 -->
<g id="edge2" class="edge"><title>Node2&#45;&gt;Node3</title>
<path fill="none" stroke="midnightblue" d="M1859.03,-484.437C1866.25,-474.982 1874.95,-463.596 1880.91,-455.779"/>
<polygon fill="midnightblue" stroke="midnightblue" points="1856.22,-482.346 1852.94,-492.418 1861.79,-486.594 1856.22,-482.346"/>
</g>
<!-- Node4 -->
<g id="node4" class="node"><title>Node4</title>
<g id="a_node4"><a xlink:href="Solution_8h.xhtml" target="_top" xlink:title="src/TH/Solution.h">
<polygon fill="none" stroke="black" points="574,-378.5 574,-398.5 674,-398.5 674,-378.5 574,-378.5"/>
<text text-anchor="middle" x="624" y="-385.7" font-family="Helvetica,sans-Serif" font-size="11.00">src/TH/Solution.h</text>
</a>
</g>
</g>
<!-- Node3&#45;&gt;Node4 -->
<g id="edge3" class="edge"><title>Node3&#45;&gt;Node4</title>
<path fill="none" stroke="midnightblue" d="M1830.32,-441.99C1616.98,-432.707 874.526,-400.401 674.157,-391.682"/>
<polygon fill="midnightblue" stroke="midnightblue" points="1830.23,-445.49 1840.38,-442.428 1830.54,-438.496 1830.23,-445.49"/>
</g>
<!-- Node8 -->
<g id="node8" class="node"><title>Node8</title>
<g id="a_node8"><a xlink:href="THBuilder_8h.xhtml" target="_top" xlink:title="src/TH/THBuilder.h">
<polygon fill="none" stroke="black" points="1184,-0.5 1184,-20.5 1294,-20.5 1294,-0.5 1184,-0.5"/>
<text text-anchor="middle" x="1239" y="-7.7" font-family="Helvetica,sans-Serif" font-size="11.00">src/TH/THBuilder.h</text>
</a>
</g>
</g>
<!-- Node3&#45;&gt;Node8 -->
<g id="edge58" class="edge"><title>Node3&#45;&gt;Node8</title>
<path fill="none" stroke="midnightblue" d="M1888,-425.379C1888,-403.083 1888,-365.12 1888,-332.5 1888,-332.5 1888,-332.5 1888,-141.5 1888,-20.7708 1450.76,-10.648 1294.05,-10.8969"/>
<polygon fill="midnightblue" stroke="midnightblue" points="1884.5,-425.499 1888,-435.499 1891.5,-425.499 1884.5,-425.499"/>
</g>
<!-- Node30 -->
<g id="node30" class="node"><title>Node30</title>
<g id="a_node30"><a xlink:href="SearchSpace_8h.xhtml" target="_top" xlink:title="src/TH/SearchSpace.h">
<polygon fill="none" stroke="black" points="1916,-321.5 1916,-341.5 2042,-341.5 2042,-321.5 1916,-321.5"/>
<text text-anchor="middle" x="1979" y="-328.7" font-family="Helvetica,sans-Serif" font-size="11.00">src/TH/SearchSpace.h</text>
</a>
</g>
</g>
<!-- Node3&#45;&gt;Node30 -->
<g id="edge51" class="edge"><title>Node3&#45;&gt;Node30</title>
<path fill="none" stroke="midnightblue" d="M1901.87,-427.431C1921.36,-403.448 1956.16,-360.605 1971.45,-341.792"/>
<polygon fill="midnightblue" stroke="midnightblue" points="1899.04,-425.366 1895.45,-435.335 1904.47,-429.78 1899.04,-425.366"/>
</g>
<!-- Node5 -->
<g id="node5" class="node"><title>Node5</title>
<g id="a_node5"><a xlink:href="BestList_8h.xhtml" target="_top" xlink:title="src/TH/BestList.h">
<polygon fill="none" stroke="black" points="265.5,-201.5 265.5,-221.5 364.5,-221.5 364.5,-201.5 265.5,-201.5"/>
<text text-anchor="middle" x="315" y="-208.7" font-family="Helvetica,sans-Serif" font-size="11.00">src/TH/BestList.h</text>
</a>
</g>
</g>
<!-- Node4&#45;&gt;Node5 -->
<g id="edge4" class="edge"><title>Node4&#45;&gt;Node5</title>
<path fill="none" stroke="midnightblue" d="M563.724,-382.393C501.094,-376.032 408.338,-363.319 380,-342 338.589,-310.846 321.735,-245.976 316.731,-221.825"/>
<polygon fill="midnightblue" stroke="midnightblue" points="563.591,-385.897 573.887,-383.397 564.279,-378.931 563.591,-385.897"/>
</g>
<!-- Node4&#45;&gt;Node8 -->
<g id="edge49" class="edge"><title>Node4&#45;&gt;Node8</title>
<path fill="none" stroke="midnightblue" d="M655.609,-373.663C669.503,-366.131 684.918,-355.553 695,-342 713.347,-317.337 714,-306.238 714,-275.5 714,-275.5 714,-275.5 714,-141.5 714,-99.1581 722.876,-80.6459 758,-57 792.66,-33.6665 1064.75,-19.0918 1183.68,-13.7766"/>
<polygon fill="midnightblue" stroke="midnightblue" points="653.643,-370.737 646.317,-378.391 656.817,-376.976 653.643,-370.737"/>
</g>
<!-- Node12 -->
<g id="node12" class="node"><title>Node12</title>
<g id="a_node12"><a xlink:href="TH_8h.xhtml" target="_top" xlink:title="src/TH/TH.h">
<polygon fill="none" stroke="black" points="277,-132.5 277,-152.5 353,-152.5 353,-132.5 277,-132.5"/>
<text text-anchor="middle" x="315" y="-139.7" font-family="Helvetica,sans-Serif" font-size="11.00">src/TH/TH.h</text>
</a>
</g>
</g>
<!-- Node4&#45;&gt;Node12 -->
<g id="edge48" class="edge"><title>Node4&#45;&gt;Node12</title>
<path fill="none" stroke="midnightblue" d="M596.734,-373.711C579.088,-364.749 555.639,-352.772 535,-342 487.232,-317.069 467.209,-321.959 428,-285 393.888,-252.846 403.078,-230.956 373,-195 359.176,-178.474 339.976,-162.488 327.519,-152.823"/>
<polygon fill="midnightblue" stroke="midnightblue" points="595.384,-376.95 605.885,-378.352 598.55,-370.707 595.384,-376.95"/>
</g>
<!-- Node13 -->
<g id="node13" class="node"><title>Node13</title>
<g id="a_node13"><a xlink:href="FitnessPolicy_8h.xhtml" target="_top" xlink:title="src/TH/FitnessPolicy.h">
<polygon fill="none" stroke="black" points="562,-321.5 562,-341.5 686,-341.5 686,-321.5 562,-321.5"/>
<text text-anchor="middle" x="624" y="-328.7" font-family="Helvetica,sans-Serif" font-size="11.00">src/TH/FitnessPolicy.h</text>
</a>
</g>
</g>
<!-- Node4&#45;&gt;Node13 -->
<g id="edge17" class="edge"><title>Node4&#45;&gt;Node13</title>
<path fill="none" stroke="midnightblue" d="M624,-368.383C624,-359.374 624,-349.037 624,-341.779"/>
<polygon fill="midnightblue" stroke="midnightblue" points="620.5,-368.418 624,-378.418 627.5,-368.418 620.5,-368.418"/>
</g>
<!-- Node23 -->
<g id="node23" class="node"><title>Node23</title>
<g id="a_node23"><a xlink:href="RosenbrockFitnessPolicy_8h.xhtml" target="_top" xlink:title="src/RosenbrockFitnessPolicy.h">
<polygon fill="none" stroke="black" points="437,-264.5 437,-284.5 601,-284.5 601,-264.5 437,-264.5"/>
<text text-anchor="middle" x="519" y="-271.7" font-family="Helvetica,sans-Serif" font-size="11.00">src/RosenbrockFitnessPolicy.h</text>
</a>
</g>
</g>
<!-- Node4&#45;&gt;Node23 -->
<g id="edge50" class="edge"><title>Node4&#45;&gt;Node23</title>
<path fill="none" stroke="midnightblue" d="M595.376,-373.751C581.302,-365.928 564.862,-355.076 553,-342 537.144,-324.521 526.649,-298.284 521.906,-284.576"/>
<polygon fill="midnightblue" stroke="midnightblue" points="593.738,-376.844 604.211,-378.447 597.023,-370.663 593.738,-376.844"/>
</g>
<!-- Node25 -->
<g id="node25" class="node"><title>Node25</title>
<g id="a_node25"><a xlink:href="IterationData_8h.xhtml" target="_top" xlink:title="src/TH/IterationData.h">
<polygon fill="none" stroke="black" points="1566.5,-264.5 1566.5,-284.5 1689.5,-284.5 1689.5,-264.5 1566.5,-264.5"/>
<text text-anchor="middle" x="1628" y="-271.7" font-family="Helvetica,sans-Serif" font-size="11.00">src/TH/IterationData.h</text>
</a>
</g>
</g>
<!-- Node4&#45;&gt;Node25 -->
<g id="edge38" class="edge"><title>Node4&#45;&gt;Node25</title>
<path fill="none" stroke="midnightblue" d="M684.113,-380.794C862.299,-360.917 1386.39,-302.452 1566.44,-282.367"/>
<polygon fill="midnightblue" stroke="midnightblue" points="683.682,-377.32 674.132,-381.908 684.458,-384.277 683.682,-377.32"/>
</g>
<!-- Node6 -->
<g id="node6" class="node"><title>Node6</title>
<g id="a_node6"><a xlink:href="BestListSelectionPolicy_8h.xhtml" target="_top" xlink:title="src/TH/BestListSelection\lPolicy.h">
<polygon fill="none" stroke="black" points="80,-126.5 80,-158.5 214,-158.5 214,-126.5 80,-126.5"/>
<text text-anchor="start" x="88" y="-145.7" font-family="Helvetica,sans-Serif" font-size="11.00">src/TH/BestListSelection</text>
<text text-anchor="middle" x="147" y="-133.7" font-family="Helvetica,sans-Serif" font-size="11.00">Policy.h</text>
</a>
</g>
</g>
<!-- Node5&#45;&gt;Node6 -->
<g id="edge5" class="edge"><title>Node5&#45;&gt;Node6</title>
<path fill="none" stroke="midnightblue" d="M283.006,-197.74C254.999,-186.571 214.276,-170.33 184.696,-158.533"/>
<polygon fill="midnightblue" stroke="midnightblue" points="281.758,-201.011 292.343,-201.464 284.351,-194.509 281.758,-201.011"/>
</g>
<!-- Node5&#45;&gt;Node8 -->
<g id="edge16" class="edge"><title>Node5&#45;&gt;Node8</title>
<path fill="none" stroke="midnightblue" d="M294.891,-194.855C284.744,-185.651 273.455,-173.071 268,-159 251.33,-116.005 250.997,-85.8133 287,-57 322.163,-28.8586 986.276,-15.6715 1183.95,-12.359"/>
<polygon fill="midnightblue" stroke="midnightblue" points="292.771,-197.647 302.65,-201.477 297.315,-192.323 292.771,-197.647"/>
</g>
<!-- Node9 -->
<g id="node9" class="node"><title>Node9</title>
<g id="a_node9"><a xlink:href="BestListUpdatePolicy_8h.xhtml" target="_top" xlink:title="src/TH/BestListUpdatePolicy.h">
<polygon fill="none" stroke="black" points="459.5,-132.5 459.5,-152.5 622.5,-152.5 622.5,-132.5 459.5,-132.5"/>
<text text-anchor="middle" x="541" y="-139.7" font-family="Helvetica,sans-Serif" font-size="11.00">src/TH/BestListUpdatePolicy.h</text>
</a>
</g>
</g>
<!-- Node5&#45;&gt;Node9 -->
<g id="edge9" class="edge"><title>Node5&#45;&gt;Node9</title>
<path fill="none" stroke="midnightblue" d="M355.077,-198.619C399.465,-185.459 470.06,-164.531 510.282,-152.607"/>
<polygon fill="midnightblue" stroke="midnightblue" points="354.072,-195.266 345.479,-201.464 356.062,-201.977 354.072,-195.266"/>
</g>
<!-- Node5&#45;&gt;Node12 -->
<g id="edge14" class="edge"><title>Node5&#45;&gt;Node12</title>
<path fill="none" stroke="midnightblue" d="M315,-191.083C315,-178.5 315,-162.676 315,-152.823"/>
<polygon fill="midnightblue" stroke="midnightblue" points="311.5,-191.464 315,-201.464 318.5,-191.464 311.5,-191.464"/>
</g>
<!-- Node7 -->
<g id="node7" class="node"><title>Node7</title>
<g id="a_node7"><a xlink:href="RandomBestListSelectionPolicy_8h.xhtml" target="_top" xlink:title="src/TH/RandomBestListSelection\lPolicy.h">
<polygon fill="none" stroke="black" points="0,-57.5 0,-89.5 176,-89.5 176,-57.5 0,-57.5"/>
<text text-anchor="start" x="8" y="-76.7" font-family="Helvetica,sans-Serif" font-size="11.00">src/TH/RandomBestListSelection</text>
<text text-anchor="middle" x="88" y="-64.7" font-family="Helvetica,sans-Serif" font-size="11.00">Policy.h</text>
</a>
</g>
</g>
<!-- Node6&#45;&gt;Node7 -->
<g id="edge6" class="edge"><title>Node6&#45;&gt;Node7</title>
<path fill="none" stroke="midnightblue" d="M126.868,-118.638C118.438,-109.065 108.869,-98.1987 101.335,-89.6432"/>
<polygon fill="midnightblue" stroke="midnightblue" points="124.376,-121.105 133.612,-126.297 129.63,-116.479 124.376,-121.105"/>
</g>
<!-- Node6&#45;&gt;Node8 -->
<g id="edge8" class="edge"><title>Node6&#45;&gt;Node8</title>
<path fill="none" stroke="midnightblue" d="M165.646,-118.477C184.521,-95.8678 213,-63.8023 228,-57 315.107,-17.4971 985.485,-12.2763 1183.87,-11.5981"/>
<polygon fill="midnightblue" stroke="midnightblue" points="162.842,-116.377 159.17,-126.315 168.238,-120.836 162.842,-116.377"/>
</g>
<!-- Node7&#45;&gt;Node8 -->
<g id="edge7" class="edge"><title>Node7&#45;&gt;Node8</title>
<path fill="none" stroke="midnightblue" d="M186.141,-57.3887C187.434,-57.2542 188.721,-57.1245 190,-57 568.964,-20.0952 1027.86,-13.1226 1183.97,-11.8061"/>
<polygon fill="midnightblue" stroke="midnightblue" points="185.66,-53.9206 176.109,-58.5074 186.436,-60.8774 185.66,-53.9206"/>
</g>
<!-- Node9&#45;&gt;Node8 -->
<g id="edge13" class="edge"><title>Node9&#45;&gt;Node8</title>
<path fill="none" stroke="midnightblue" d="M563.479,-126.925C578.953,-116.781 599.901,-102.826 618,-90 637.944,-75.8666 639.132,-65.6362 662,-57 756.474,-21.3212 1058.3,-13.6199 1183.63,-11.9576"/>
<polygon fill="midnightblue" stroke="midnightblue" points="561.523,-124.022 555.064,-132.42 565.351,-129.883 561.523,-124.022"/>
</g>
<!-- Node10 -->
<g id="node10" class="node"><title>Node10</title>
<g id="a_node10"><a xlink:href="ConvergentBestListUpdatePolicy_8h.xhtml" target="_top" xlink:title="src/TH/ConvergentBestList\lUpdatePolicy.h">
<polygon fill="none" stroke="black" points="308,-57.5 308,-89.5 454,-89.5 454,-57.5 308,-57.5"/>
<text text-anchor="start" x="316" y="-76.7" font-family="Helvetica,sans-Serif" font-size="11.00">src/TH/ConvergentBestList</text>
<text text-anchor="middle" x="381" y="-64.7" font-family="Helvetica,sans-Serif" font-size="11.00">UpdatePolicy.h</text>
</a>
</g>
</g>
<!-- Node9&#45;&gt;Node10 -->
<g id="edge10" class="edge"><title>Node9&#45;&gt;Node10</title>
<path fill="none" stroke="midnightblue" d="M510.179,-128.594C483.518,-117.429 444.95,-101.279 416.901,-89.5335"/>
<polygon fill="midnightblue" stroke="midnightblue" points="508.846,-131.83 519.422,-132.464 511.55,-125.373 508.846,-131.83"/>
</g>
<!-- Node11 -->
<g id="node11" class="node"><title>Node11</title>
<g id="a_node11"><a xlink:href="DivergentBestListUpdatePolicy_8h.xhtml" target="_top" xlink:title="src/TH/DivergentBestList\lUpdatePolicy.h">
<polygon fill="none" stroke="black" points="472.5,-57.5 472.5,-89.5 609.5,-89.5 609.5,-57.5 472.5,-57.5"/>
<text text-anchor="start" x="480.5" y="-76.7" font-family="Helvetica,sans-Serif" font-size="11.00">src/TH/DivergentBestList</text>
<text text-anchor="middle" x="541" y="-64.7" font-family="Helvetica,sans-Serif" font-size="11.00">UpdatePolicy.h</text>
</a>
</g>
</g>
<!-- Node9&#45;&gt;Node11 -->
<g id="edge12" class="edge"><title>Node9&#45;&gt;Node11</title>
<path fill="none" stroke="midnightblue" d="M541,-122.308C541,-111.898 541,-99.2184 541,-89.5335"/>
<polygon fill="midnightblue" stroke="midnightblue" points="537.5,-122.464 541,-132.464 544.5,-122.464 537.5,-122.464"/>
</g>
<!-- Node10&#45;&gt;Node8 -->
<g id="edge11" class="edge"><title>Node10&#45;&gt;Node8</title>
<path fill="none" stroke="midnightblue" d="M464.432,-56.9272C739.773,-23.6213 1057.81,-14.6793 1183.74,-12.31"/>
<polygon fill="midnightblue" stroke="midnightblue" points="463.746,-53.485 454.245,-58.1732 464.596,-60.4333 463.746,-53.485"/>
</g>
<!-- Node12&#45;&gt;Node8 -->
<g id="edge15" class="edge"><title>Node12&#45;&gt;Node8</title>
<path fill="none" stroke="midnightblue" d="M303.808,-123.595C293.475,-104.548 282.073,-74.7662 299,-57 329.641,-24.8397 986.742,-14.4832 1183.69,-12.0956"/>
<polygon fill="midnightblue" stroke="midnightblue" points="300.907,-125.57 308.958,-132.457 306.959,-122.052 300.907,-125.57"/>
</g>
<!-- Node13&#45;&gt;Node8 -->
<g id="edge35" class="edge"><title>Node13&#45;&gt;Node8</title>
<path fill="none" stroke="midnightblue" d="M637.256,-312.968C652.663,-290.804 676,-250.894 676,-212.5 676,-212.5 676,-212.5 676,-141.5 676,-102.459 669.868,-81.8251 700,-57 736.783,-26.695 1054.15,-15.8415 1183.99,-12.6464"/>
<polygon fill="midnightblue" stroke="midnightblue" points="634.241,-311.165 631.23,-321.324 639.918,-315.26 634.241,-311.165"/>
</g>
<!-- Node13&#45;&gt;Node9 -->
<g id="edge18" class="edge"><title>Node13&#45;&gt;Node9</title>
<path fill="none" stroke="midnightblue" d="M626.41,-311.235C628.914,-283.58 629.954,-231.902 609,-195 597.958,-175.554 576.284,-161.131 560.362,-152.57"/>
<polygon fill="midnightblue" stroke="midnightblue" points="622.928,-310.881 625.346,-321.196 629.889,-311.625 622.928,-310.881"/>
</g>
<!-- Node14 -->
<g id="node14" class="node"><title>Node14</title>
<g id="a_node14"><a xlink:href="Search_8h.xhtml" target="_top" xlink:title="src/TH/Search.h">
<polygon fill="none" stroke="black" points="1210.5,-264.5 1210.5,-284.5 1305.5,-284.5 1305.5,-264.5 1210.5,-264.5"/>
<text text-anchor="middle" x="1258" y="-271.7" font-family="Helvetica,sans-Serif" font-size="11.00">src/TH/Search.h</text>
</a>
</g>
</g>
<!-- Node13&#45;&gt;Node14 -->
<g id="edge19" class="edge"><title>Node13&#45;&gt;Node14</title>
<path fill="none" stroke="midnightblue" d="M696.566,-324.205C827.645,-312.834 1100.49,-289.164 1210.5,-279.621"/>
<polygon fill="midnightblue" stroke="midnightblue" points="695.895,-320.75 686.235,-325.101 696.5,-327.724 695.895,-320.75"/>
</g>
<!-- Node13&#45;&gt;Node23 -->
<g id="edge36" class="edge"><title>Node13&#45;&gt;Node23</title>
<path fill="none" stroke="midnightblue" d="M597.551,-316.646C578.386,-306.607 553.016,-293.318 536.364,-284.596"/>
<polygon fill="midnightblue" stroke="midnightblue" points="596.179,-319.878 606.661,-321.418 599.427,-313.677 596.179,-319.878"/>
</g>
<!-- Node14&#45;&gt;Node8 -->
<g id="edge31" class="edge"><title>Node14&#45;&gt;Node8</title>
<path fill="none" stroke="midnightblue" d="M1256.61,-254.264C1252.81,-201.968 1242.41,-58.5826 1239.67,-20.752"/>
<polygon fill="midnightblue" stroke="midnightblue" points="1253.13,-254.761 1257.35,-264.481 1260.11,-254.254 1253.13,-254.761"/>
</g>
<!-- Node15 -->
<g id="node15" class="node"><title>Node15</title>
<g id="a_node15"><a xlink:href="ConvergenceControlPolicy_8h.xhtml" target="_top" xlink:title="src/TH/ConvergenceControl\lPolicy.h">
<polygon fill="none" stroke="black" points="1286,-126.5 1286,-158.5 1438,-158.5 1438,-126.5 1286,-126.5"/>
<text text-anchor="start" x="1294" y="-145.7" font-family="Helvetica,sans-Serif" font-size="11.00">src/TH/ConvergenceControl</text>
<text text-anchor="middle" x="1362" y="-133.7" font-family="Helvetica,sans-Serif" font-size="11.00">Policy.h</text>
</a>
</g>
</g>
<!-- Node14&#45;&gt;Node15 -->
<g id="edge20" class="edge"><title>Node14&#45;&gt;Node15</title>
<path fill="none" stroke="midnightblue" d="M1270.17,-255.56C1281.36,-239.369 1298.63,-215.08 1315,-195 1325.25,-182.427 1337.65,-168.906 1347.13,-158.875"/>
<polygon fill="midnightblue" stroke="midnightblue" points="1267.11,-253.837 1264.34,-264.065 1272.88,-257.794 1267.11,-253.837"/>
</g>
<!-- Node17 -->
<g id="node17" class="node"><title>Node17</title>
<g id="a_node17"><a xlink:href="SearchScore_8h.xhtml" target="_top" xlink:title="src/TH/SearchScore.h">
<polygon fill="none" stroke="black" points="988,-201.5 988,-221.5 1112,-221.5 1112,-201.5 988,-201.5"/>
<text text-anchor="middle" x="1050" y="-208.7" font-family="Helvetica,sans-Serif" font-size="11.00">src/TH/SearchScore.h</text>
</a>
</g>
</g>
<!-- Node14&#45;&gt;Node17 -->
<g id="edge24" class="edge"><title>Node14&#45;&gt;Node17</title>
<path fill="none" stroke="midnightblue" d="M1217.6,-261.651C1177.57,-249.911 1117.13,-232.186 1080.82,-221.538"/>
<polygon fill="midnightblue" stroke="midnightblue" points="1216.73,-265.044 1227.31,-264.499 1218.7,-258.326 1216.73,-265.044"/>
</g>
<!-- Node21 -->
<g id="node21" class="node"><title>Node21</title>
<g id="a_node21"><a xlink:href="PSO_8h.xhtml" target="_top" xlink:title="src/PSO.h">
<polygon fill="none" stroke="black" points="1324,-201.5 1324,-221.5 1390,-221.5 1390,-201.5 1324,-201.5"/>
<text text-anchor="middle" x="1357" y="-208.7" font-family="Helvetica,sans-Serif" font-size="11.00">src/PSO.h</text>
</a>
</g>
</g>
<!-- Node14&#45;&gt;Node21 -->
<g id="edge32" class="edge"><title>Node14&#45;&gt;Node21</title>
<path fill="none" stroke="midnightblue" d="M1281.23,-259.185C1300.13,-247.54 1326.22,-231.464 1342.33,-221.538"/>
<polygon fill="midnightblue" stroke="midnightblue" points="1279.29,-256.274 1272.61,-264.499 1282.96,-262.233 1279.29,-256.274"/>
</g>
<!-- Node22 -->
<g id="node22" class="node"><title>Node22</title>
<g id="a_node22"><a xlink:href="HillClimbing_8h.xhtml" target="_top" xlink:title="src/HillClimbing.h">
<polygon fill="none" stroke="black" points="1130,-201.5 1130,-221.5 1230,-221.5 1230,-201.5 1130,-201.5"/>
<text text-anchor="middle" x="1180" y="-208.7" font-family="Helvetica,sans-Serif" font-size="11.00">src/HillClimbing.h</text>
</a>
</g>
</g>
<!-- Node14&#45;&gt;Node22 -->
<g id="edge33" class="edge"><title>Node14&#45;&gt;Node22</title>
<path fill="none" stroke="midnightblue" d="M1238.46,-258.223C1223.69,-246.668 1203.9,-231.193 1191.56,-221.538"/>
<polygon fill="midnightblue" stroke="midnightblue" points="1236.46,-261.096 1246.49,-264.499 1240.77,-255.582 1236.46,-261.096"/>
</g>
<!-- Node15&#45;&gt;Node8 -->
<g id="edge23" class="edge"><title>Node15&#45;&gt;Node8</title>
<path fill="none" stroke="midnightblue" d="M1340.44,-118.718C1313.01,-89.7201 1266.88,-40.9642 1247.73,-20.7313"/>
<polygon fill="midnightblue" stroke="midnightblue" points="1338.23,-121.474 1347.65,-126.333 1343.32,-116.663 1338.23,-121.474"/>
</g>
<!-- Node16 -->
<g id="node16" class="node"><title>Node16</title>
<g id="a_node16"><a xlink:href="CSMOn_8h.xhtml" target="_top" xlink:title="src/TH/CSMOn.h">
<polygon fill="none" stroke="black" points="1324,-63.5 1324,-83.5 1424,-83.5 1424,-63.5 1324,-63.5"/>
<text text-anchor="middle" x="1374" y="-70.7" font-family="Helvetica,sans-Serif" font-size="11.00">src/TH/CSMOn.h</text>
</a>
</g>
</g>
<!-- Node15&#45;&gt;Node16 -->
<g id="edge21" class="edge"><title>Node15&#45;&gt;Node16</title>
<path fill="none" stroke="midnightblue" d="M1366.51,-116.343C1368.56,-104.897 1370.85,-92.0643 1372.36,-83.6646"/>
<polygon fill="midnightblue" stroke="midnightblue" points="1363.04,-115.836 1364.72,-126.297 1369.93,-117.07 1363.04,-115.836"/>
</g>
<!-- Node16&#45;&gt;Node8 -->
<g id="edge22" class="edge"><title>Node16&#45;&gt;Node8</title>
<path fill="none" stroke="midnightblue" d="M1344.75,-59.2828C1318.83,-47.5695 1281.67,-30.78 1259,-20.5377"/>
<polygon fill="midnightblue" stroke="midnightblue" points="1343.53,-62.571 1354.08,-63.4992 1346.41,-56.192 1343.53,-62.571"/>
</g>
<!-- Node17&#45;&gt;Node8 -->
<g id="edge30" class="edge"><title>Node17&#45;&gt;Node8</title>
<path fill="none" stroke="midnightblue" d="M1065.62,-194.053C1103.79,-153.868 1200.8,-51.7171 1230.34,-20.621"/>
<polygon fill="midnightblue" stroke="midnightblue" points="1062.96,-191.771 1058.61,-201.432 1068.04,-196.592 1062.96,-191.771"/>
</g>
<!-- Node18 -->
<g id="node18" class="node"><title>Node18</title>
<g id="a_node18"><a xlink:href="SearchAlgorithmSelectionPolicy_8h.xhtml" target="_top" xlink:title="src/TH/SearchAlgorithmSelection\lPolicy.h">
<polygon fill="none" stroke="black" points="875,-126.5 875,-158.5 1051,-158.5 1051,-126.5 875,-126.5"/>
<text text-anchor="start" x="883" y="-145.7" font-family="Helvetica,sans-Serif" font-size="11.00">src/TH/SearchAlgorithmSelection</text>
<text text-anchor="middle" x="963" y="-133.7" font-family="Helvetica,sans-Serif" font-size="11.00">Policy.h</text>
</a>
</g>
</g>
<!-- Node17&#45;&gt;Node18 -->
<g id="edge25" class="edge"><title>Node17&#45;&gt;Node18</title>
<path fill="none" stroke="midnightblue" d="M1030.1,-195.173C1015.83,-184.184 996.702,-169.455 982.521,-158.533"/>
<polygon fill="midnightblue" stroke="midnightblue" points="1028.21,-198.136 1038.27,-201.464 1032.48,-192.59 1028.21,-198.136"/>
</g>
<!-- Node18&#45;&gt;Node8 -->
<g id="edge29" class="edge"><title>Node18&#45;&gt;Node8</title>
<path fill="none" stroke="midnightblue" d="M864.727,-129.441C800.952,-117.731 735.746,-95.8474 771,-57 798.293,-26.9253 1065.95,-16.1134 1183.79,-12.7897"/>
<polygon fill="midnightblue" stroke="midnightblue" points="864.48,-132.952 874.935,-131.235 865.692,-126.057 864.48,-132.952"/>
</g>
<!-- Node19 -->
<g id="node19" class="node"><title>Node19</title>
<g id="a_node19"><a xlink:href="RoundRobinSearchAlgorithmSelectionPolicy_8h.xhtml" target="_top" xlink:title="src/TH/RoundRobinSearchAlgorithm\lSelectionPolicy.h">
<polygon fill="none" stroke="black" points="780.5,-57.5 780.5,-89.5 973.5,-89.5 973.5,-57.5 780.5,-57.5"/>
<text text-anchor="start" x="788.5" y="-76.7" font-family="Helvetica,sans-Serif" font-size="11.00">src/TH/RoundRobinSearchAlgorithm</text>
<text text-anchor="middle" x="877" y="-64.7" font-family="Helvetica,sans-Serif" font-size="11.00">SelectionPolicy.h</text>
</a>
</g>
</g>
<!-- Node18&#45;&gt;Node19 -->
<g id="edge26" class="edge"><title>Node18&#45;&gt;Node19</title>
<path fill="none" stroke="midnightblue" d="M935.486,-120.064C922.77,-110.158 907.968,-98.6265 896.438,-89.6432"/>
<polygon fill="midnightblue" stroke="midnightblue" points="933.446,-122.912 943.485,-126.297 937.748,-117.39 933.446,-122.912"/>
</g>
<!-- Node20 -->
<g id="node20" class="node"><title>Node20</title>
<g id="a_node20"><a xlink:href="SingleSearchAlgorithmSelectionPolicy_8h.xhtml" target="_top" xlink:title="src/TH/SingleSearchAlgorithm\lSelectionPolicy.h">
<polygon fill="none" stroke="black" points="992,-57.5 992,-89.5 1154,-89.5 1154,-57.5 992,-57.5"/>
<text text-anchor="start" x="1000" y="-76.7" font-family="Helvetica,sans-Serif" font-size="11.00">src/TH/SingleSearchAlgorithm</text>
<text text-anchor="middle" x="1073" y="-64.7" font-family="Helvetica,sans-Serif" font-size="11.00">SelectionPolicy.h</text>
</a>
</g>
</g>
<!-- Node18&#45;&gt;Node20 -->
<g id="edge28" class="edge"><title>Node18&#45;&gt;Node20</title>
<path fill="none" stroke="midnightblue" d="M996.532,-121.076C1013.11,-110.977 1032.78,-98.9983 1048.02,-89.7177"/>
<polygon fill="midnightblue" stroke="midnightblue" points="994.406,-118.273 987.686,-126.464 998.047,-124.251 994.406,-118.273"/>
</g>
<!-- Node19&#45;&gt;Node8 -->
<g id="edge27" class="edge"><title>Node19&#45;&gt;Node8</title>
<path fill="none" stroke="midnightblue" d="M976.258,-55.7742C1043.78,-44.3967 1130.51,-29.7821 1185.44,-20.5251"/>
<polygon fill="midnightblue" stroke="midnightblue" points="975.298,-52.3865 966.019,-57.4996 976.461,-59.2892 975.298,-52.3865"/>
</g>
<!-- Node22&#45;&gt;Node8 -->
<g id="edge34" class="edge"><title>Node22&#45;&gt;Node8</title>
<path fill="none" stroke="midnightblue" d="M1185.96,-191.595C1189.01,-181.868 1192.74,-169.813 1196,-159 1211.69,-106.896 1229.68,-44.1689 1236.34,-20.8357"/>
<polygon fill="midnightblue" stroke="midnightblue" points="1182.54,-190.809 1182.88,-201.398 1189.22,-192.907 1182.54,-190.809"/>
</g>
<!-- Node24 -->
<g id="node24" class="node"><title>Node24</title>
<g id="a_node24"><a xlink:href="RosenbrockFitnessPolicy_8cpp.xhtml" target="_top" xlink:title="src/RosenbrockFitnessPolicy.cpp">
<polygon fill="none" stroke="black" points="425.5,-201.5 425.5,-221.5 600.5,-221.5 600.5,-201.5 425.5,-201.5"/>
<text text-anchor="middle" x="513" y="-208.7" font-family="Helvetica,sans-Serif" font-size="11.00">src/RosenbrockFitnessPolicy.cpp</text>
</a>
</g>
</g>
<!-- Node23&#45;&gt;Node24 -->
<g id="edge37" class="edge"><title>Node23&#45;&gt;Node24</title>
<path fill="none" stroke="midnightblue" d="M517.136,-254.545C516.054,-243.548 514.741,-230.201 513.889,-221.538"/>
<polygon fill="midnightblue" stroke="midnightblue" points="513.653,-254.89 518.115,-264.499 520.619,-254.205 513.653,-254.89"/>
</g>
<!-- Node25&#45;&gt;Node8 -->
<g id="edge47" class="edge"><title>Node25&#45;&gt;Node8</title>
<path fill="none" stroke="midnightblue" d="M1675.82,-261.818C1747.51,-241.76 1870.48,-196.045 1831,-126 1801.92,-74.4065 1773.23,-75.6071 1717,-57 1639.84,-31.4644 1402.88,-18.4309 1294.34,-13.6695"/>
<polygon fill="midnightblue" stroke="midnightblue" points="1674.79,-258.47 1666.06,-264.477 1676.63,-265.223 1674.79,-258.47"/>
</g>
<!-- Node26 -->
<g id="node26" class="node"><title>Node26</title>
<g id="a_node26"><a xlink:href="RelocationStrategyData_8h.xhtml" target="_top" xlink:title="src/TH/RelocationStrategy\lData.h">
<polygon fill="none" stroke="black" points="1556.5,-195.5 1556.5,-227.5 1699.5,-227.5 1699.5,-195.5 1556.5,-195.5"/>
<text text-anchor="start" x="1564.5" y="-214.7" font-family="Helvetica,sans-Serif" font-size="11.00">src/TH/RelocationStrategy</text>
<text text-anchor="middle" x="1628" y="-202.7" font-family="Helvetica,sans-Serif" font-size="11.00">Data.h</text>
</a>
</g>
</g>
<!-- Node25&#45;&gt;Node26 -->
<g id="edge39" class="edge"><title>Node25&#45;&gt;Node26</title>
<path fill="none" stroke="midnightblue" d="M1628,-254.296C1628,-245.714 1628,-235.742 1628,-227.691"/>
<polygon fill="midnightblue" stroke="midnightblue" points="1624.5,-254.499 1628,-264.499 1631.5,-254.499 1624.5,-254.499"/>
</g>
<!-- Node26&#45;&gt;Node8 -->
<g id="edge46" class="edge"><title>Node26&#45;&gt;Node8</title>
<path fill="none" stroke="midnightblue" d="M1633.66,-185.305C1641.56,-150.156 1654.93,-90.6005 1655,-90 1656.61,-75.4223 1664.79,-67.9202 1655,-57 1631.33,-30.5953 1401.78,-18.0005 1294.16,-13.5099"/>
<polygon fill="midnightblue" stroke="midnightblue" points="1630.19,-184.813 1631.41,-195.337 1637.02,-186.348 1630.19,-184.813"/>
</g>
<!-- Node27 -->
<g id="node27" class="node"><title>Node27</title>
<g id="a_node27"><a xlink:href="BetaRelocationStrategyData_8h.xhtml" target="_top" xlink:title="src/TH/BetaRelocationStrategy\lData.h">
<polygon fill="none" stroke="black" points="1656,-126.5 1656,-158.5 1822,-158.5 1822,-126.5 1656,-126.5"/>
<text text-anchor="start" x="1664" y="-145.7" font-family="Helvetica,sans-Serif" font-size="11.00">src/TH/BetaRelocationStrategy</text>
<text text-anchor="middle" x="1739" y="-133.7" font-family="Helvetica,sans-Serif" font-size="11.00">Data.h</text>
</a>
</g>
</g>
<!-- Node26&#45;&gt;Node27 -->
<g id="edge40" class="edge"><title>Node26&#45;&gt;Node27</title>
<path fill="none" stroke="midnightblue" d="M1661.84,-190.076C1678.57,-179.977 1698.41,-167.998 1713.79,-158.718"/>
<polygon fill="midnightblue" stroke="midnightblue" points="1659.66,-187.3 1652.91,-195.464 1663.28,-193.293 1659.66,-187.3"/>
</g>
<!-- Node28 -->
<g id="node28" class="node"><title>Node28</title>
<g id="a_node28"><a xlink:href="RelocationStrategyPolicy_8h.xhtml" target="_top" xlink:title="src/TH/RelocationStrategy\lPolicy.h">
<polygon fill="none" stroke="black" points="1456.5,-126.5 1456.5,-158.5 1599.5,-158.5 1599.5,-126.5 1456.5,-126.5"/>
<text text-anchor="start" x="1464.5" y="-145.7" font-family="Helvetica,sans-Serif" font-size="11.00">src/TH/RelocationStrategy</text>
<text text-anchor="middle" x="1528" y="-133.7" font-family="Helvetica,sans-Serif" font-size="11.00">Policy.h</text>
</a>
</g>
</g>
<!-- Node26&#45;&gt;Node28 -->
<g id="edge42" class="edge"><title>Node26&#45;&gt;Node28</title>
<path fill="none" stroke="midnightblue" d="M1596.85,-189.629C1581.88,-179.598 1564.27,-167.798 1550.6,-158.643"/>
<polygon fill="midnightblue" stroke="midnightblue" points="1595.05,-192.638 1605.31,-195.297 1598.95,-186.823 1595.05,-192.638"/>
</g>
<!-- Node27&#45;&gt;Node8 -->
<g id="edge41" class="edge"><title>Node27&#45;&gt;Node8</title>
<path fill="none" stroke="midnightblue" d="M1731.03,-116.721C1723.31,-97.0495 1709.58,-70.6586 1688,-57 1623.87,-16.4005 1399.62,-11.1929 1294.36,-11.0609"/>
<polygon fill="midnightblue" stroke="midnightblue" points="1727.81,-118.099 1734.52,-126.292 1734.38,-115.698 1727.81,-118.099"/>
</g>
<!-- Node28&#45;&gt;Node8 -->
<g id="edge45" class="edge"><title>Node28&#45;&gt;Node8</title>
<path fill="none" stroke="midnightblue" d="M1503.4,-119.354C1475.95,-94.6804 1435.07,-58.0757 1433,-57 1389.4,-34.3734 1334.48,-22.8488 1294.21,-17.0717"/>
<polygon fill="midnightblue" stroke="midnightblue" points="1501.31,-122.182 1511.09,-126.267 1505.99,-116.977 1501.31,-122.182"/>
</g>
<!-- Node29 -->
<g id="node29" class="node"><title>Node29</title>
<g id="a_node29"><a xlink:href="BetaRelocationStrategyPolicy_8h.xhtml" target="_top" xlink:title="src/TH/BetaRelocationStrategy\lPolicy.h">
<polygon fill="none" stroke="black" points="1480,-57.5 1480,-89.5 1646,-89.5 1646,-57.5 1480,-57.5"/>
<text text-anchor="start" x="1488" y="-76.7" font-family="Helvetica,sans-Serif" font-size="11.00">src/TH/BetaRelocationStrategy</text>
<text text-anchor="middle" x="1563" y="-64.7" font-family="Helvetica,sans-Serif" font-size="11.00">Policy.h</text>
</a>
</g>
</g>
<!-- Node28&#45;&gt;Node29 -->
<g id="edge43" class="edge"><title>Node28&#45;&gt;Node29</title>
<path fill="none" stroke="midnightblue" d="M1540.7,-117.193C1545.51,-107.984 1550.84,-97.771 1555.09,-89.6432"/>
<polygon fill="midnightblue" stroke="midnightblue" points="1537.47,-115.813 1535.94,-126.297 1543.67,-119.054 1537.47,-115.813"/>
</g>
<!-- Node29&#45;&gt;Node8 -->
<g id="edge44" class="edge"><title>Node29&#45;&gt;Node8</title>
<path fill="none" stroke="midnightblue" d="M1473.43,-55.6367C1413.2,-44.2975 1336.16,-29.7915 1287.17,-20.5695"/>
<polygon fill="midnightblue" stroke="midnightblue" points="1472.85,-59.0889 1483.33,-57.4996 1474.15,-52.2097 1472.85,-59.0889"/>
</g>
<!-- Node30&#45;&gt;Node8 -->
<g id="edge57" class="edge"><title>Node30&#45;&gt;Node8</title>
<path fill="none" stroke="midnightblue" d="M1965.49,-313.007C1949.79,-290.884 1926,-251.015 1926,-212.5 1926,-212.5 1926,-212.5 1926,-141.5 1926,-102.459 1932.33,-81.5878 1902,-57 1855.29,-19.1246 1444.87,-12.763 1294.18,-11.7062"/>
<polygon fill="midnightblue" stroke="midnightblue" points="1962.88,-315.37 1971.63,-321.346 1968.52,-311.219 1962.88,-315.37"/>
</g>
<!-- Node30&#45;&gt;Node14 -->
<g id="edge52" class="edge"><title>Node30&#45;&gt;Node14</title>
<path fill="none" stroke="midnightblue" d="M1905.66,-324.906C1758.18,-313.655 1429.26,-288.564 1305.93,-279.156"/>
<polygon fill="midnightblue" stroke="midnightblue" points="1905.73,-328.42 1915.96,-325.691 1906.26,-321.441 1905.73,-328.42"/>
</g>
<!-- Node31 -->
<g id="node31" class="node"><title>Node31</title>
<g id="a_node31"><a xlink:href="RegionSelectionPolicy_8h.xhtml" target="_top" xlink:title="src/TH/RegionSelectionPolicy.h">
<polygon fill="none" stroke="black" points="1954,-132.5 1954,-152.5 2122,-152.5 2122,-132.5 1954,-132.5"/>
<text text-anchor="middle" x="2038" y="-139.7" font-family="Helvetica,sans-Serif" font-size="11.00">src/TH/RegionSelectionPolicy.h</text>
</a>
</g>
</g>
<!-- Node30&#45;&gt;Node31 -->
<g id="edge53" class="edge"><title>Node30&#45;&gt;Node31</title>
<path fill="none" stroke="midnightblue" d="M1984.89,-311.819C1997.32,-272.449 2025.8,-182.17 2035.04,-152.869"/>
<polygon fill="midnightblue" stroke="midnightblue" points="1981.52,-310.891 1981.85,-321.481 1988.19,-312.997 1981.52,-310.891"/>
</g>
<!-- Node31&#45;&gt;Node8 -->
<g id="edge56" class="edge"><title>Node31&#45;&gt;Node8</title>
<path fill="none" stroke="midnightblue" d="M2020.65,-125.475C1995.14,-102.069 1949.48,-60.8748 1940,-57 1880.88,-32.8225 1449.05,-17.7449 1294.13,-13.0651"/>
<polygon fill="midnightblue" stroke="midnightblue" points="2018.43,-128.185 2028.16,-132.38 2023.17,-123.034 2018.43,-128.185"/>
</g>
<!-- Node32 -->
<g id="node32" class="node"><title>Node32</title>
<g id="a_node32"><a xlink:href="GroupRegionSelectionPolicy_8h.xhtml" target="_top" xlink:title="src/TH/GroupRegionSelection\lPolicy.h">
<polygon fill="none" stroke="black" points="1992.5,-57.5 1992.5,-89.5 2153.5,-89.5 2153.5,-57.5 1992.5,-57.5"/>
<text text-anchor="start" x="2000.5" y="-76.7" font-family="Helvetica,sans-Serif" font-size="11.00">src/TH/GroupRegionSelection</text>
<text text-anchor="middle" x="2073" y="-64.7" font-family="Helvetica,sans-Serif" font-size="11.00">Policy.h</text>
</a>
</g>
</g>
<!-- Node31&#45;&gt;Node32 -->
<g id="edge54" class="edge"><title>Node31&#45;&gt;Node32</title>
<path fill="none" stroke="midnightblue" d="M2047.51,-123.298C2053.04,-112.711 2059.93,-99.5275 2065.15,-89.5335"/>
<polygon fill="midnightblue" stroke="midnightblue" points="2044.25,-121.98 2042.72,-132.464 2050.45,-125.221 2044.25,-121.98"/>
</g>
<!-- Node32&#45;&gt;Node8 -->
<g id="edge55" class="edge"><title>Node32&#45;&gt;Node8</title>
<path fill="none" stroke="midnightblue" d="M1982.47,-57.5183C1980.97,-57.3388 1979.48,-57.1658 1978,-57 1723.47,-28.4732 1417.48,-16.7893 1294.32,-13.011"/>
<polygon fill="midnightblue" stroke="midnightblue" points="1982.12,-61.0021 1992.48,-58.7903 1983,-54.0579 1982.12,-61.0021"/>
</g>
</g>
</svg>
