<?xml version="1.0" encoding="UTF-8" standalone="no"?>
<!DOCTYPE svg PUBLIC "-//W3C//DTD SVG 1.1//EN"
 "http://www.w3.org/Graphics/SVG/1.1/DTD/svg11.dtd">
<!-- Generated by graphviz version 2.38.0 (20140413.2041)
 -->
<!-- Title: src/TH/Position.h Pages: 1 -->
<!--zoomable 464 -->
<svg id="main" version="1.1" xmlns="http://www.w3.org/2000/svg" xmlns:xlink="http://www.w3.org/1999/xlink" xml:space="preserve" onload="init(evt)">
<style type="text/css"><![CDATA[
.edge:hover path { stroke: red; }
.edge:hover polygon { stroke: red; fill: red; }
]]></style>
<script type="text/javascript"><![CDATA[
var edges = document.getElementsByTagName('g');
if (edges && edges.length) {
  for (var i=0;i<edges.length;i++) {
    if (edges[i].id.substr(0,4)=='edge') {
      edges[i].setAttribute('class','edge');
    }
  }
}
]]></script>
        <defs>
                <circle id="rim" cx="0" cy="0" r="7"/>
                <circle id="rim2" cx="0" cy="0" r="3.5"/>
                <g id="zoomPlus">
                        <use xlink:href="#rim" fill="#404040">
                                <set attributeName="fill" to="#808080" begin="zoomplus.mouseover" end="zoomplus.mouseout"/>
                        </use>
                        <path d="M-4,0h8M0,-4v8" fill="none" stroke="white" stroke-width="1.5" pointer-events="none"/>
                </g>
                <g id="zoomMin">
                        <use xlink:href="#rim" fill="#404040">
                                <set attributeName="fill" to="#808080" begin="zoomminus.mouseover" end="zoomminus.mouseout"/>
                        </use>
                        <path d="M-4,0h8" fill="none" stroke="white" stroke-width="1.5" pointer-events="none"/>
                </g>
                <g id="dirArrow">
                        <path fill="none" stroke="white" stroke-width="1.5" d="M0,-3.0v7 M-2.5,-0.5L0,-3.0L2.5,-0.5"/>
                </g>
               <g id="resetDef">
                       <use xlink:href="#rim2" fill="#404040">
                               <set attributeName="fill" to="#808080" begin="reset.mouseover" end="reset.mouseout"/>
                       </use>
               </g>
        </defs>

<script type="text/javascript">
var viewWidth = 1931;
var viewHeight = 464;
var sectionId = 'dynsection-1';
</script>
<script xlink:href="svgpan.js"/>
<svg id="graph" class="graph">
<g id="viewport">
<title>src/TH/Position.h</title>
<!-- Node1 -->
<g id="node1" class="node"><title>Node1</title>
<polygon fill="#bfbfbf" stroke="black" points="1429.5,-435.5 1429.5,-455.5 1528.5,-455.5 1528.5,-435.5 1429.5,-435.5"/>
<text text-anchor="middle" x="1479" y="-442.7" font-family="Helvetica,sans-Serif" font-size="11.00">src/TH/Position.h</text>
</g>
<!-- Node2 -->
<g id="node2" class="node"><title>Node2</title>
<g id="a_node2"><a xlink:href="Solution_8h.xhtml" target="_top" xlink:title="src/TH/Solution.h">
<polygon fill="none" stroke="black" points="1429,-378.5 1429,-398.5 1529,-398.5 1529,-378.5 1429,-378.5"/>
<text text-anchor="middle" x="1479" y="-385.7" font-family="Helvetica,sans-Serif" font-size="11.00">src/TH/Solution.h</text>
</a>
</g>
</g>
<!-- Node1&#45;&gt;Node2 -->
<g id="edge1" class="edge"><title>Node1&#45;&gt;Node2</title>
<path fill="none" stroke="midnightblue" d="M1479,-425.383C1479,-416.374 1479,-406.037 1479,-398.779"/>
<polygon fill="midnightblue" stroke="midnightblue" points="1475.5,-425.418 1479,-435.418 1482.5,-425.418 1475.5,-425.418"/>
</g>
<!-- Node3 -->
<g id="node3" class="node"><title>Node3</title>
<g id="a_node3"><a xlink:href="BestList_8h.xhtml" target="_top" xlink:title="src/TH/BestList.h">
<polygon fill="none" stroke="black" points="186.5,-201.5 186.5,-221.5 285.5,-221.5 285.5,-201.5 186.5,-201.5"/>
<text text-anchor="middle" x="236" y="-208.7" font-family="Helvetica,sans-Serif" font-size="11.00">src/TH/BestList.h</text>
</a>
</g>
</g>
<!-- Node2&#45;&gt;Node3 -->
<g id="edge2" class="edge"><title>Node2&#45;&gt;Node3</title>
<path fill="none" stroke="midnightblue" d="M1418.61,-378.998C1204.18,-348.808 481.737,-247.097 285.53,-219.473"/>
<polygon fill="midnightblue" stroke="midnightblue" points="1418.34,-382.495 1428.73,-380.423 1419.32,-375.563 1418.34,-382.495"/>
</g>
<!-- Node6 -->
<g id="node6" class="node"><title>Node6</title>
<g id="a_node6"><a xlink:href="THBuilder_8h.xhtml" target="_top" xlink:title="src/TH/THBuilder.h">
<polygon fill="none" stroke="black" points="926,-0.5 926,-20.5 1036,-20.5 1036,-0.5 926,-0.5"/>
<text text-anchor="middle" x="981" y="-7.7" font-family="Helvetica,sans-Serif" font-size="11.00">src/TH/THBuilder.h</text>
</a>
</g>
</g>
<!-- Node2&#45;&gt;Node6 -->
<g id="edge47" class="edge"><title>Node2&#45;&gt;Node6</title>
<path fill="none" stroke="midnightblue" d="M1539.31,-384.848C1660.7,-377.86 1923,-353.712 1923,-275.5 1923,-275.5 1923,-275.5 1923,-141.5 1923,-66.5268 1848.82,-78.502 1777,-57 1638.01,-15.3913 1192.92,-11.4167 1036.22,-11.3421"/>
<polygon fill="midnightblue" stroke="midnightblue" points="1538.86,-381.368 1529.07,-385.416 1539.25,-388.357 1538.86,-381.368"/>
</g>
<!-- Node10 -->
<g id="node10" class="node"><title>Node10</title>
<g id="a_node10"><a xlink:href="TH_8h.xhtml" target="_top" xlink:title="src/TH/TH.h">
<polygon fill="none" stroke="black" points="0,-132.5 0,-152.5 76,-152.5 76,-132.5 0,-132.5"/>
<text text-anchor="middle" x="38" y="-139.7" font-family="Helvetica,sans-Serif" font-size="11.00">src/TH/TH.h</text>
</a>
</g>
</g>
<!-- Node2&#45;&gt;Node10 -->
<g id="edge46" class="edge"><title>Node2&#45;&gt;Node10</title>
<path fill="none" stroke="midnightblue" d="M1418.64,-382.369C1329.58,-374.627 1157.73,-359.041 1012,-342 639.981,-298.498 529.993,-353.245 177,-228 125.366,-209.68 72.1649,-170.599 49.4242,-152.745"/>
<polygon fill="midnightblue" stroke="midnightblue" points="1418.56,-385.875 1428.83,-383.251 1419.17,-378.901 1418.56,-385.875"/>
</g>
<!-- Node11 -->
<g id="node11" class="node"><title>Node11</title>
<g id="a_node11"><a xlink:href="FitnessPolicy_8h.xhtml" target="_top" xlink:title="src/TH/FitnessPolicy.h">
<polygon fill="none" stroke="black" points="1363,-321.5 1363,-341.5 1487,-341.5 1487,-321.5 1363,-321.5"/>
<text text-anchor="middle" x="1425" y="-328.7" font-family="Helvetica,sans-Serif" font-size="11.00">src/TH/FitnessPolicy.h</text>
</a>
</g>
</g>
<!-- Node2&#45;&gt;Node11 -->
<g id="edge15" class="edge"><title>Node2&#45;&gt;Node11</title>
<path fill="none" stroke="midnightblue" d="M1462.81,-371.013C1453.42,-361.449 1441.94,-349.755 1434.11,-341.779"/>
<polygon fill="midnightblue" stroke="midnightblue" points="1460.58,-373.734 1470.08,-378.418 1465.57,-368.83 1460.58,-373.734"/>
</g>
<!-- Node21 -->
<g id="node21" class="node"><title>Node21</title>
<g id="a_node21"><a xlink:href="RosenbrockFitnessPolicy_8h.xhtml" target="_top" xlink:title="src/RosenbrockFitnessPolicy.h">
<polygon fill="none" stroke="black" points="1657,-264.5 1657,-284.5 1821,-284.5 1821,-264.5 1657,-264.5"/>
<text text-anchor="middle" x="1739" y="-271.7" font-family="Helvetica,sans-Serif" font-size="11.00">src/RosenbrockFitnessPolicy.h</text>
</a>
</g>
</g>
<!-- Node2&#45;&gt;Node21 -->
<g id="edge48" class="edge"><title>Node2&#45;&gt;Node21</title>
<path fill="none" stroke="midnightblue" d="M1509.57,-374.331C1562.95,-351.336 1671.85,-304.428 1717.79,-284.635"/>
<polygon fill="midnightblue" stroke="midnightblue" points="1508.08,-371.164 1500.28,-378.335 1510.85,-377.593 1508.08,-371.164"/>
</g>
<!-- Node23 -->
<g id="node23" class="node"><title>Node23</title>
<g id="a_node23"><a xlink:href="IterationData_8h.xhtml" target="_top" xlink:title="src/TH/IterationData.h">
<polygon fill="none" stroke="black" points="1515.5,-264.5 1515.5,-284.5 1638.5,-284.5 1638.5,-264.5 1515.5,-264.5"/>
<text text-anchor="middle" x="1577" y="-271.7" font-family="Helvetica,sans-Serif" font-size="11.00">src/TH/IterationData.h</text>
</a>
</g>
</g>
<!-- Node2&#45;&gt;Node23 -->
<g id="edge36" class="edge"><title>Node2&#45;&gt;Node23</title>
<path fill="none" stroke="midnightblue" d="M1493.66,-370.746C1514.59,-346.824 1552.34,-303.688 1568.87,-284.792"/>
<polygon fill="midnightblue" stroke="midnightblue" points="1490.97,-368.504 1487.02,-378.335 1496.24,-373.114 1490.97,-368.504"/>
</g>
<!-- Node4 -->
<g id="node4" class="node"><title>Node4</title>
<g id="a_node4"><a xlink:href="BestListSelectionPolicy_8h.xhtml" target="_top" xlink:title="src/TH/BestListSelection\lPolicy.h">
<polygon fill="none" stroke="black" points="169,-126.5 169,-158.5 303,-158.5 303,-126.5 169,-126.5"/>
<text text-anchor="start" x="177" y="-145.7" font-family="Helvetica,sans-Serif" font-size="11.00">src/TH/BestListSelection</text>
<text text-anchor="middle" x="236" y="-133.7" font-family="Helvetica,sans-Serif" font-size="11.00">Policy.h</text>
</a>
</g>
</g>
<!-- Node3&#45;&gt;Node4 -->
<g id="edge3" class="edge"><title>Node3&#45;&gt;Node4</title>
<path fill="none" stroke="midnightblue" d="M236,-191.308C236,-180.898 236,-168.218 236,-158.533"/>
<polygon fill="midnightblue" stroke="midnightblue" points="232.5,-191.464 236,-201.464 239.5,-191.464 232.5,-191.464"/>
</g>
<!-- Node3&#45;&gt;Node6 -->
<g id="edge14" class="edge"><title>Node3&#45;&gt;Node6</title>
<path fill="none" stroke="midnightblue" d="M205.67,-196.83C189.774,-188.168 171.31,-175.477 160,-159 134.031,-121.167 112.445,-90.3165 144,-57 170.91,-28.5876 743.647,-15.7967 925.857,-12.4365"/>
<polygon fill="midnightblue" stroke="midnightblue" points="204.167,-199.992 214.659,-201.461 207.373,-193.77 204.167,-199.992"/>
</g>
<!-- Node7 -->
<g id="node7" class="node"><title>Node7</title>
<g id="a_node7"><a xlink:href="BestListUpdatePolicy_8h.xhtml" target="_top" xlink:title="src/TH/BestListUpdatePolicy.h">
<polygon fill="none" stroke="black" points="449.5,-132.5 449.5,-152.5 612.5,-152.5 612.5,-132.5 449.5,-132.5"/>
<text text-anchor="middle" x="531" y="-139.7" font-family="Helvetica,sans-Serif" font-size="11.00">src/TH/BestListUpdatePolicy.h</text>
</a>
</g>
</g>
<!-- Node3&#45;&gt;Node7 -->
<g id="edge7" class="edge"><title>Node3&#45;&gt;Node7</title>
<path fill="none" stroke="midnightblue" d="M285.778,-199.194C343.534,-186.077 437.63,-164.706 490.903,-152.607"/>
<polygon fill="midnightblue" stroke="midnightblue" points="284.761,-195.836 275.785,-201.464 286.312,-202.662 284.761,-195.836"/>
</g>
<!-- Node3&#45;&gt;Node10 -->
<g id="edge12" class="edge"><title>Node3&#45;&gt;Node10</title>
<path fill="none" stroke="midnightblue" d="M199.407,-198.118C160.445,-184.933 99.7065,-164.38 64.9124,-152.607"/>
<polygon fill="midnightblue" stroke="midnightblue" points="198.703,-201.574 209.297,-201.464 200.946,-194.943 198.703,-201.574"/>
</g>
<!-- Node5 -->
<g id="node5" class="node"><title>Node5</title>
<g id="a_node5"><a xlink:href="RandomBestListSelectionPolicy_8h.xhtml" target="_top" xlink:title="src/TH/RandomBestListSelection\lPolicy.h">
<polygon fill="none" stroke="black" points="163,-57.5 163,-89.5 339,-89.5 339,-57.5 163,-57.5"/>
<text text-anchor="start" x="171" y="-76.7" font-family="Helvetica,sans-Serif" font-size="11.00">src/TH/RandomBestListSelection</text>
<text text-anchor="middle" x="251" y="-64.7" font-family="Helvetica,sans-Serif" font-size="11.00">Policy.h</text>
</a>
</g>
</g>
<!-- Node4&#45;&gt;Node5 -->
<g id="edge4" class="edge"><title>Node4&#45;&gt;Node5</title>
<path fill="none" stroke="midnightblue" d="M241.638,-116.318C243.647,-107.341 245.848,-97.5143 247.61,-89.6432"/>
<polygon fill="midnightblue" stroke="midnightblue" points="238.173,-115.774 239.404,-126.297 245.004,-117.303 238.173,-115.774"/>
</g>
<!-- Node4&#45;&gt;Node6 -->
<g id="edge6" class="edge"><title>Node4&#45;&gt;Node6</title>
<path fill="none" stroke="midnightblue" d="M186.593,-121.371C173.679,-113.58 161.335,-103.269 154,-90 146.904,-77.1641 143.918,-67.652 154,-57 180.549,-28.95 745.166,-15.9323 925.886,-12.4737"/>
<polygon fill="midnightblue" stroke="midnightblue" points="185.129,-124.562 195.569,-126.368 188.534,-118.446 185.129,-124.562"/>
</g>
<!-- Node5&#45;&gt;Node6 -->
<g id="edge5" class="edge"><title>Node5&#45;&gt;Node6</title>
<path fill="none" stroke="midnightblue" d="M349.33,-56.9089C568.561,-31.9814 817.345,-18.8333 925.814,-13.8547"/>
<polygon fill="midnightblue" stroke="midnightblue" points="348.779,-53.4491 339.243,-58.0666 349.577,-60.4034 348.779,-53.4491"/>
</g>
<!-- Node7&#45;&gt;Node6 -->
<g id="edge11" class="edge"><title>Node7&#45;&gt;Node6</title>
<path fill="none" stroke="midnightblue" d="M529.446,-122.301C529.024,-102.796 531.787,-73.2142 550,-57 577.537,-32.4849 815.552,-18.8373 925.609,-13.7866"/>
<polygon fill="midnightblue" stroke="midnightblue" points="525.959,-122.639 529.97,-132.445 532.949,-122.278 525.959,-122.639"/>
</g>
<!-- Node8 -->
<g id="node8" class="node"><title>Node8</title>
<g id="a_node8"><a xlink:href="ConvergentBestListUpdatePolicy_8h.xhtml" target="_top" xlink:title="src/TH/ConvergentBestList\lUpdatePolicy.h">
<polygon fill="none" stroke="black" points="357,-57.5 357,-89.5 503,-89.5 503,-57.5 357,-57.5"/>
<text text-anchor="start" x="365" y="-76.7" font-family="Helvetica,sans-Serif" font-size="11.00">src/TH/ConvergentBestList</text>
<text text-anchor="middle" x="430" y="-64.7" font-family="Helvetica,sans-Serif" font-size="11.00">UpdatePolicy.h</text>
</a>
</g>
</g>
<!-- Node7&#45;&gt;Node8 -->
<g id="edge8" class="edge"><title>Node7&#45;&gt;Node8</title>
<path fill="none" stroke="midnightblue" d="M508.827,-126.791C492.17,-115.742 469.436,-100.661 452.662,-89.5335"/>
<polygon fill="midnightblue" stroke="midnightblue" points="507.111,-129.853 517.379,-132.464 510.98,-124.019 507.111,-129.853"/>
</g>
<!-- Node9 -->
<g id="node9" class="node"><title>Node9</title>
<g id="a_node9"><a xlink:href="DivergentBestListUpdatePolicy_8h.xhtml" target="_top" xlink:title="src/TH/DivergentBestList\lUpdatePolicy.h">
<polygon fill="none" stroke="black" points="559.5,-57.5 559.5,-89.5 696.5,-89.5 696.5,-57.5 559.5,-57.5"/>
<text text-anchor="start" x="567.5" y="-76.7" font-family="Helvetica,sans-Serif" font-size="11.00">src/TH/DivergentBestList</text>
<text text-anchor="middle" x="628" y="-64.7" font-family="Helvetica,sans-Serif" font-size="11.00">UpdatePolicy.h</text>
</a>
</g>
</g>
<!-- Node7&#45;&gt;Node9 -->
<g id="edge10" class="edge"><title>Node7&#45;&gt;Node9</title>
<path fill="none" stroke="midnightblue" d="M552.741,-126.483C568.696,-115.463 590.275,-100.558 606.235,-89.5335"/>
<polygon fill="midnightblue" stroke="midnightblue" points="550.321,-123.901 544.082,-132.464 554.299,-129.661 550.321,-123.901"/>
</g>
<!-- Node8&#45;&gt;Node6 -->
<g id="edge9" class="edge"><title>Node8&#45;&gt;Node6</title>
<path fill="none" stroke="midnightblue" d="M513.125,-57.5455C514.425,-57.3588 515.718,-57.1768 517,-57 664.136,-36.7109 838.741,-22.1303 925.837,-15.4991"/>
<polygon fill="midnightblue" stroke="midnightblue" points="512.406,-54.1142 503.035,-59.0587 513.444,-61.0367 512.406,-54.1142"/>
</g>
<!-- Node10&#45;&gt;Node6 -->
<g id="edge13" class="edge"><title>Node10&#45;&gt;Node6</title>
<path fill="none" stroke="midnightblue" d="M42.2894,-122.463C47.9184,-102.384 59.9189,-71.6656 83,-57 153.942,-11.9237 741.12,-10.4887 925.694,-11.1683"/>
<polygon fill="midnightblue" stroke="midnightblue" points="38.8467,-121.801 39.7879,-132.354 45.633,-123.517 38.8467,-121.801"/>
</g>
<!-- Node11&#45;&gt;Node6 -->
<g id="edge33" class="edge"><title>Node11&#45;&gt;Node6</title>
<path fill="none" stroke="midnightblue" d="M1425,-311.033C1425,-287.64 1425,-247.2 1425,-212.5 1425,-212.5 1425,-212.5 1425,-141.5 1425,-98.526 1413.74,-80.861 1378,-57 1323.26,-20.4544 1131.56,-13.0874 1036,-11.7219"/>
<polygon fill="midnightblue" stroke="midnightblue" points="1421.5,-311.32 1425,-321.32 1428.5,-311.32 1421.5,-311.32"/>
</g>
<!-- Node11&#45;&gt;Node7 -->
<g id="edge16" class="edge"><title>Node11&#45;&gt;Node7</title>
<path fill="none" stroke="midnightblue" d="M1362.35,-319.717C1261.06,-302.05 1055.21,-265.173 882,-228 765.715,-203.044 628.976,-168.659 565.991,-152.534"/>
<polygon fill="midnightblue" stroke="midnightblue" points="1361.96,-323.201 1372.41,-321.468 1363.16,-316.305 1361.96,-323.201"/>
</g>
<!-- Node12 -->
<g id="node12" class="node"><title>Node12</title>
<g id="a_node12"><a xlink:href="Search_8h.xhtml" target="_top" xlink:title="src/TH/Search.h">
<polygon fill="none" stroke="black" points="1228.5,-264.5 1228.5,-284.5 1323.5,-284.5 1323.5,-264.5 1228.5,-264.5"/>
<text text-anchor="middle" x="1276" y="-271.7" font-family="Helvetica,sans-Serif" font-size="11.00">src/TH/Search.h</text>
</a>
</g>
</g>
<!-- Node11&#45;&gt;Node12 -->
<g id="edge17" class="edge"><title>Node11&#45;&gt;Node12</title>
<path fill="none" stroke="midnightblue" d="M1390.77,-317.866C1363.25,-307.707 1325.24,-293.677 1300.64,-284.596"/>
<polygon fill="midnightblue" stroke="midnightblue" points="1389.8,-321.238 1400.4,-321.418 1392.23,-314.671 1389.8,-321.238"/>
</g>
<!-- Node11&#45;&gt;Node21 -->
<g id="edge34" class="edge"><title>Node11&#45;&gt;Node21</title>
<path fill="none" stroke="midnightblue" d="M1486.37,-319.75C1545,-309.481 1632.36,-294.178 1687.47,-284.525"/>
<polygon fill="midnightblue" stroke="midnightblue" points="1485.75,-316.307 1476.5,-321.479 1486.95,-323.202 1485.75,-316.307"/>
</g>
<!-- Node12&#45;&gt;Node6 -->
<g id="edge29" class="edge"><title>Node12&#45;&gt;Node6</title>
<path fill="none" stroke="midnightblue" d="M1325.02,-260.841C1341.59,-253.966 1358.33,-243.564 1368,-228 1392.92,-187.874 1429.2,-135.643 1350,-57 1328.13,-35.2825 1133.49,-20.6437 1036.06,-14.6101"/>
<polygon fill="midnightblue" stroke="midnightblue" points="1323.45,-257.69 1315.33,-264.494 1325.92,-264.24 1323.45,-257.69"/>
</g>
<!-- Node13 -->
<g id="node13" class="node"><title>Node13</title>
<g id="a_node13"><a xlink:href="ConvergenceControlPolicy_8h.xhtml" target="_top" xlink:title="src/TH/ConvergenceControl\lPolicy.h">
<polygon fill="none" stroke="black" points="701,-126.5 701,-158.5 853,-158.5 853,-126.5 701,-126.5"/>
<text text-anchor="start" x="709" y="-145.7" font-family="Helvetica,sans-Serif" font-size="11.00">src/TH/ConvergenceControl</text>
<text text-anchor="middle" x="777" y="-133.7" font-family="Helvetica,sans-Serif" font-size="11.00">Policy.h</text>
</a>
</g>
</g>
<!-- Node12&#45;&gt;Node13 -->
<g id="edge18" class="edge"><title>Node12&#45;&gt;Node13</title>
<path fill="none" stroke="midnightblue" d="M1218.18,-269.278C1156.5,-263.747 1056.41,-251.809 973,-228 911,-210.303 842.734,-177.626 805.362,-158.508"/>
<polygon fill="midnightblue" stroke="midnightblue" points="1218.22,-272.795 1228.48,-270.174 1218.82,-265.821 1218.22,-272.795"/>
</g>
<!-- Node15 -->
<g id="node15" class="node"><title>Node15</title>
<g id="a_node15"><a xlink:href="SearchScore_8h.xhtml" target="_top" xlink:title="src/TH/SearchScore.h">
<polygon fill="none" stroke="black" points="982,-201.5 982,-221.5 1106,-221.5 1106,-201.5 982,-201.5"/>
<text text-anchor="middle" x="1044" y="-208.7" font-family="Helvetica,sans-Serif" font-size="11.00">src/TH/SearchScore.h</text>
</a>
</g>
</g>
<!-- Node12&#45;&gt;Node15 -->
<g id="edge22" class="edge"><title>Node12&#45;&gt;Node15</title>
<path fill="none" stroke="midnightblue" d="M1232.07,-261.949C1187.43,-250.212 1119.21,-232.276 1078.37,-221.538"/>
<polygon fill="midnightblue" stroke="midnightblue" points="1231.21,-265.341 1241.77,-264.499 1232.99,-258.571 1231.21,-265.341"/>
</g>
<!-- Node19 -->
<g id="node19" class="node"><title>Node19</title>
<g id="a_node19"><a xlink:href="PSO_8h.xhtml" target="_top" xlink:title="src/PSO.h">
<polygon fill="none" stroke="black" points="1293,-201.5 1293,-221.5 1359,-221.5 1359,-201.5 1293,-201.5"/>
<text text-anchor="middle" x="1326" y="-208.7" font-family="Helvetica,sans-Serif" font-size="11.00">src/PSO.h</text>
</a>
</g>
</g>
<!-- Node12&#45;&gt;Node19 -->
<g id="edge30" class="edge"><title>Node12&#45;&gt;Node19</title>
<path fill="none" stroke="midnightblue" d="M1289.87,-256.578C1299.17,-245.234 1311.05,-230.742 1318.59,-221.538"/>
<polygon fill="midnightblue" stroke="midnightblue" points="1287.01,-254.547 1283.38,-264.499 1292.42,-258.984 1287.01,-254.547"/>
</g>
<!-- Node20 -->
<g id="node20" class="node"><title>Node20</title>
<g id="a_node20"><a xlink:href="HillClimbing_8h.xhtml" target="_top" xlink:title="src/HillClimbing.h">
<polygon fill="none" stroke="black" points="1175,-201.5 1175,-221.5 1275,-221.5 1275,-201.5 1175,-201.5"/>
<text text-anchor="middle" x="1225" y="-208.7" font-family="Helvetica,sans-Serif" font-size="11.00">src/HillClimbing.h</text>
</a>
</g>
</g>
<!-- Node12&#45;&gt;Node20 -->
<g id="edge31" class="edge"><title>Node12&#45;&gt;Node20</title>
<path fill="none" stroke="midnightblue" d="M1261.85,-256.578C1252.37,-245.234 1240.25,-230.742 1232.56,-221.538"/>
<polygon fill="midnightblue" stroke="midnightblue" points="1259.38,-259.072 1268.47,-264.499 1264.75,-254.582 1259.38,-259.072"/>
</g>
<!-- Node13&#45;&gt;Node6 -->
<g id="edge21" class="edge"><title>Node13&#45;&gt;Node6</title>
<path fill="none" stroke="midnightblue" d="M796.691,-118.774C813.772,-100.176 839.947,-74.2192 867,-57 892.887,-40.523 925.722,-28.1861 949.497,-20.5452"/>
<polygon fill="midnightblue" stroke="midnightblue" points="794.05,-116.478 789.952,-126.248 799.248,-121.166 794.05,-116.478"/>
</g>
<!-- Node14 -->
<g id="node14" class="node"><title>Node14</title>
<g id="a_node14"><a xlink:href="CSMOn_8h.xhtml" target="_top" xlink:title="src/TH/CSMOn.h">
<polygon fill="none" stroke="black" points="715,-63.5 715,-83.5 815,-83.5 815,-63.5 715,-63.5"/>
<text text-anchor="middle" x="765" y="-70.7" font-family="Helvetica,sans-Serif" font-size="11.00">src/TH/CSMOn.h</text>
</a>
</g>
</g>
<!-- Node13&#45;&gt;Node14 -->
<g id="edge19" class="edge"><title>Node13&#45;&gt;Node14</title>
<path fill="none" stroke="midnightblue" d="M772.494,-116.343C770.444,-104.897 768.146,-92.0643 766.641,-83.6646"/>
<polygon fill="midnightblue" stroke="midnightblue" points="769.069,-117.07 774.277,-126.297 775.959,-115.836 769.069,-117.07"/>
</g>
<!-- Node14&#45;&gt;Node6 -->
<g id="edge20" class="edge"><title>Node14&#45;&gt;Node6</title>
<path fill="none" stroke="midnightblue" d="M806.692,-60.7259C848.262,-48.9863 911.212,-31.2087 948.998,-20.5377"/>
<polygon fill="midnightblue" stroke="midnightblue" points="805.544,-57.4131 796.872,-63.4992 807.446,-64.1497 805.544,-57.4131"/>
</g>
<!-- Node15&#45;&gt;Node6 -->
<g id="edge28" class="edge"><title>Node15&#45;&gt;Node6</title>
<path fill="none" stroke="midnightblue" d="M1003.44,-197.854C983.694,-189.731 961.204,-177.221 947,-159 918.744,-122.753 911.211,-98.9425 930,-57 937.082,-41.1899 952.675,-28.6141 964.766,-20.7257"/>
<polygon fill="midnightblue" stroke="midnightblue" points="1002.28,-201.157 1012.87,-201.495 1004.8,-194.627 1002.28,-201.157"/>
</g>
<!-- Node16 -->
<g id="node16" class="node"><title>Node16</title>
<g id="a_node16"><a xlink:href="SearchAlgorithmSelectionPolicy_8h.xhtml" target="_top" xlink:title="src/TH/SearchAlgorithmSelection\lPolicy.h">
<polygon fill="none" stroke="black" points="956,-126.5 956,-158.5 1132,-158.5 1132,-126.5 956,-126.5"/>
<text text-anchor="start" x="964" y="-145.7" font-family="Helvetica,sans-Serif" font-size="11.00">src/TH/SearchAlgorithmSelection</text>
<text text-anchor="middle" x="1044" y="-133.7" font-family="Helvetica,sans-Serif" font-size="11.00">Policy.h</text>
</a>
</g>
</g>
<!-- Node15&#45;&gt;Node16 -->
<g id="edge23" class="edge"><title>Node15&#45;&gt;Node16</title>
<path fill="none" stroke="midnightblue" d="M1044,-191.308C1044,-180.898 1044,-168.218 1044,-158.533"/>
<polygon fill="midnightblue" stroke="midnightblue" points="1040.5,-191.464 1044,-201.464 1047.5,-191.464 1040.5,-191.464"/>
</g>
<!-- Node16&#45;&gt;Node6 -->
<g id="edge27" class="edge"><title>Node16&#45;&gt;Node6</title>
<path fill="none" stroke="midnightblue" d="M975.76,-122.057C960.828,-114.506 946.855,-104.146 938,-90 930.218,-77.5679 932.579,-70.6281 938,-57 944.026,-41.8513 957.753,-28.8338 968.088,-20.6509"/>
<polygon fill="midnightblue" stroke="midnightblue" points="974.599,-125.376 985.144,-126.404 977.541,-119.025 974.599,-125.376"/>
</g>
<!-- Node17 -->
<g id="node17" class="node"><title>Node17</title>
<g id="a_node17"><a xlink:href="RoundRobinSearchAlgorithmSelectionPolicy_8h.xhtml" target="_top" xlink:title="src/TH/RoundRobinSearchAlgorithm\lSelectionPolicy.h">
<polygon fill="none" stroke="black" points="947.5,-57.5 947.5,-89.5 1140.5,-89.5 1140.5,-57.5 947.5,-57.5"/>
<text text-anchor="start" x="955.5" y="-76.7" font-family="Helvetica,sans-Serif" font-size="11.00">src/TH/RoundRobinSearchAlgorithm</text>
<text text-anchor="middle" x="1044" y="-64.7" font-family="Helvetica,sans-Serif" font-size="11.00">SelectionPolicy.h</text>
</a>
</g>
</g>
<!-- Node16&#45;&gt;Node17 -->
<g id="edge24" class="edge"><title>Node16&#45;&gt;Node17</title>
<path fill="none" stroke="midnightblue" d="M1044,-116.025C1044,-107.128 1044,-97.4287 1044,-89.6432"/>
<polygon fill="midnightblue" stroke="midnightblue" points="1040.5,-116.297 1044,-126.297 1047.5,-116.297 1040.5,-116.297"/>
</g>
<!-- Node18 -->
<g id="node18" class="node"><title>Node18</title>
<g id="a_node18"><a xlink:href="SingleSearchAlgorithmSelectionPolicy_8h.xhtml" target="_top" xlink:title="src/TH/SingleSearchAlgorithm\lSelectionPolicy.h">
<polygon fill="none" stroke="black" points="1159,-57.5 1159,-89.5 1321,-89.5 1321,-57.5 1159,-57.5"/>
<text text-anchor="start" x="1167" y="-76.7" font-family="Helvetica,sans-Serif" font-size="11.00">src/TH/SingleSearchAlgorithm</text>
<text text-anchor="middle" x="1240" y="-64.7" font-family="Helvetica,sans-Serif" font-size="11.00">SelectionPolicy.h</text>
</a>
</g>
</g>
<!-- Node16&#45;&gt;Node18 -->
<g id="edge26" class="edge"><title>Node16&#45;&gt;Node18</title>
<path fill="none" stroke="midnightblue" d="M1097.71,-123.139C1128.53,-112.603 1166.76,-99.5375 1195.82,-89.6017"/>
<polygon fill="midnightblue" stroke="midnightblue" points="1096.32,-119.917 1087.99,-126.464 1098.58,-126.541 1096.32,-119.917"/>
</g>
<!-- Node17&#45;&gt;Node6 -->
<g id="edge25" class="edge"><title>Node17&#45;&gt;Node6</title>
<path fill="none" stroke="midnightblue" d="M1021.03,-50.2546C1010.42,-39.9831 998.414,-28.3609 990.342,-20.5459"/>
<polygon fill="midnightblue" stroke="midnightblue" points="1018.81,-52.9797 1028.43,-57.4213 1023.68,-47.9507 1018.81,-52.9797"/>
</g>
<!-- Node20&#45;&gt;Node6 -->
<g id="edge32" class="edge"><title>Node20&#45;&gt;Node6</title>
<path fill="none" stroke="midnightblue" d="M1248.21,-195.833C1290.29,-167.5 1371.18,-103.902 1330,-57 1310.95,-35.3055 1129.8,-20.8441 1036.29,-14.7604"/>
<polygon fill="midnightblue" stroke="midnightblue" points="1246.06,-193.056 1239.64,-201.48 1249.91,-198.902 1246.06,-193.056"/>
</g>
<!-- Node22 -->
<g id="node22" class="node"><title>Node22</title>
<g id="a_node22"><a xlink:href="RosenbrockFitnessPolicy_8cpp.xhtml" target="_top" xlink:title="src/RosenbrockFitnessPolicy.cpp">
<polygon fill="none" stroke="black" points="1719.5,-201.5 1719.5,-221.5 1894.5,-221.5 1894.5,-201.5 1719.5,-201.5"/>
<text text-anchor="middle" x="1807" y="-208.7" font-family="Helvetica,sans-Serif" font-size="11.00">src/RosenbrockFitnessPolicy.cpp</text>
</a>
</g>
</g>
<!-- Node21&#45;&gt;Node22 -->
<g id="edge35" class="edge"><title>Node21&#45;&gt;Node22</title>
<path fill="none" stroke="midnightblue" d="M1756.76,-257.571C1769.55,-246.092 1786.36,-231.013 1796.93,-221.538"/>
<polygon fill="midnightblue" stroke="midnightblue" points="1754.14,-255.216 1749.03,-264.499 1758.81,-260.427 1754.14,-255.216"/>
</g>
<!-- Node23&#45;&gt;Node6 -->
<g id="edge45" class="edge"><title>Node23&#45;&gt;Node6</title>
<path fill="none" stroke="midnightblue" d="M1606.23,-260.117C1623.94,-251.631 1646.75,-240.018 1666,-228 1686.74,-215.056 1688.2,-206.066 1710,-195 1758.89,-170.177 1795.37,-203.067 1828,-159 1836.73,-147.213 1834.91,-138.939 1828,-126 1802.05,-77.3904 1777.2,-74.6285 1725,-57 1597.49,-13.9419 1186.03,-10.8161 1036.21,-11.1577"/>
<polygon fill="midnightblue" stroke="midnightblue" points="1604.52,-257.055 1596.97,-264.493 1607.51,-263.384 1604.52,-257.055"/>
</g>
<!-- Node24 -->
<g id="node24" class="node"><title>Node24</title>
<g id="a_node24"><a xlink:href="RelocationStrategyData_8h.xhtml" target="_top" xlink:title="src/TH/RelocationStrategy\lData.h">
<polygon fill="none" stroke="black" points="1514.5,-195.5 1514.5,-227.5 1657.5,-227.5 1657.5,-195.5 1514.5,-195.5"/>
<text text-anchor="start" x="1522.5" y="-214.7" font-family="Helvetica,sans-Serif" font-size="11.00">src/TH/RelocationStrategy</text>
<text text-anchor="middle" x="1586" y="-202.7" font-family="Helvetica,sans-Serif" font-size="11.00">Data.h</text>
</a>
</g>
</g>
<!-- Node23&#45;&gt;Node24 -->
<g id="edge37" class="edge"><title>Node23&#45;&gt;Node24</title>
<path fill="none" stroke="midnightblue" d="M1579.79,-254.585C1581.07,-245.938 1582.56,-235.832 1583.76,-227.691"/>
<polygon fill="midnightblue" stroke="midnightblue" points="1576.33,-254.095 1578.33,-264.499 1583.25,-255.117 1576.33,-254.095"/>
</g>
<!-- Node24&#45;&gt;Node6 -->
<g id="edge44" class="edge"><title>Node24&#45;&gt;Node6</title>
<path fill="none" stroke="midnightblue" d="M1601.17,-186.559C1624.36,-148.479 1664.14,-76.4223 1646,-57 1604.75,-12.8365 1188.11,-10.4502 1036.11,-11.0682"/>
<polygon fill="midnightblue" stroke="midnightblue" points="1597.95,-185.108 1595.68,-195.456 1603.91,-188.786 1597.95,-185.108"/>
</g>
<!-- Node25 -->
<g id="node25" class="node"><title>Node25</title>
<g id="a_node25"><a xlink:href="BetaRelocationStrategyData_8h.xhtml" target="_top" xlink:title="src/TH/BetaRelocationStrategy\lData.h">
<polygon fill="none" stroke="black" points="1653,-126.5 1653,-158.5 1819,-158.5 1819,-126.5 1653,-126.5"/>
<text text-anchor="start" x="1661" y="-145.7" font-family="Helvetica,sans-Serif" font-size="11.00">src/TH/BetaRelocationStrategy</text>
<text text-anchor="middle" x="1736" y="-133.7" font-family="Helvetica,sans-Serif" font-size="11.00">Data.h</text>
</a>
</g>
</g>
<!-- Node24&#45;&gt;Node25 -->
<g id="edge38" class="edge"><title>Node24&#45;&gt;Node25</title>
<path fill="none" stroke="midnightblue" d="M1628.96,-191.313C1652.21,-180.927 1680.52,-168.279 1702.19,-158.602"/>
<polygon fill="midnightblue" stroke="midnightblue" points="1627.37,-188.19 1619.66,-195.464 1630.22,-194.581 1627.37,-188.19"/>
</g>
<!-- Node26 -->
<g id="node26" class="node"><title>Node26</title>
<g id="a_node26"><a xlink:href="RelocationStrategyPolicy_8h.xhtml" target="_top" xlink:title="src/TH/RelocationStrategy\lPolicy.h">
<polygon fill="none" stroke="black" points="1453.5,-126.5 1453.5,-158.5 1596.5,-158.5 1596.5,-126.5 1453.5,-126.5"/>
<text text-anchor="start" x="1461.5" y="-145.7" font-family="Helvetica,sans-Serif" font-size="11.00">src/TH/RelocationStrategy</text>
<text text-anchor="middle" x="1525" y="-133.7" font-family="Helvetica,sans-Serif" font-size="11.00">Policy.h</text>
</a>
</g>
</g>
<!-- Node24&#45;&gt;Node26 -->
<g id="edge40" class="edge"><title>Node24&#45;&gt;Node26</title>
<path fill="none" stroke="midnightblue" d="M1565.19,-187.638C1556.47,-178.065 1546.58,-167.199 1538.79,-158.643"/>
<polygon fill="midnightblue" stroke="midnightblue" points="1562.84,-190.259 1572.16,-195.297 1568.01,-185.546 1562.84,-190.259"/>
</g>
<!-- Node25&#45;&gt;Node6 -->
<g id="edge39" class="edge"><title>Node25&#45;&gt;Node6</title>
<path fill="none" stroke="midnightblue" d="M1732.2,-116.464C1727.79,-96.83 1718.46,-70.6225 1699,-57 1645.18,-19.3311 1194.94,-12.8461 1036.16,-11.7311"/>
<polygon fill="midnightblue" stroke="midnightblue" points="1728.77,-117.161 1734.13,-126.301 1735.64,-115.815 1728.77,-117.161"/>
</g>
<!-- Node26&#45;&gt;Node6 -->
<g id="edge43" class="edge"><title>Node26&#45;&gt;Node6</title>
<path fill="none" stroke="midnightblue" d="M1590.47,-122.131C1605.31,-114.548 1619.25,-104.154 1628,-90 1635.71,-77.5238 1638,-67.7285 1628,-57 1588.05,-14.1427 1185.42,-10.8971 1036.23,-11.1821"/>
<polygon fill="midnightblue" stroke="midnightblue" points="1588.72,-119.085 1581.15,-126.498 1591.69,-125.423 1588.72,-119.085"/>
</g>
<!-- Node27 -->
<g id="node27" class="node"><title>Node27</title>
<g id="a_node27"><a xlink:href="BetaRelocationStrategyPolicy_8h.xhtml" target="_top" xlink:title="src/TH/BetaRelocationStrategy\lPolicy.h">
<polygon fill="none" stroke="black" points="1453,-57.5 1453,-89.5 1619,-89.5 1619,-57.5 1453,-57.5"/>
<text text-anchor="start" x="1461" y="-76.7" font-family="Helvetica,sans-Serif" font-size="11.00">src/TH/BetaRelocationStrategy</text>
<text text-anchor="middle" x="1536" y="-64.7" font-family="Helvetica,sans-Serif" font-size="11.00">Policy.h</text>
</a>
</g>
</g>
<!-- Node26&#45;&gt;Node27 -->
<g id="edge41" class="edge"><title>Node26&#45;&gt;Node27</title>
<path fill="none" stroke="midnightblue" d="M1529.13,-116.318C1530.61,-107.341 1532.22,-97.5143 1533.51,-89.6432"/>
<polygon fill="midnightblue" stroke="midnightblue" points="1525.66,-115.862 1527.5,-126.297 1532.57,-116.996 1525.66,-115.862"/>
</g>
<!-- Node27&#45;&gt;Node6 -->
<g id="edge42" class="edge"><title>Node27&#45;&gt;Node6</title>
<path fill="none" stroke="midnightblue" d="M1442.88,-57.5097C1441.58,-57.3363 1440.28,-57.1663 1439,-57 1293.98,-38.2271 1122.26,-23.043 1036.11,-15.9098"/>
<polygon fill="midnightblue" stroke="midnightblue" points="1442.59,-61.0026 1452.97,-58.9 1443.54,-54.068 1442.59,-61.0026"/>
</g>
</g>
</svg>
        <g id="navigator" transform="translate(0 0)" fill="#404254">
                <rect fill="#f2f5e9" fill-opacity="0.5" stroke="#606060" stroke-width=".5" x="0" y="0" width="60" height="60"/>
                <use id="zoomplus" xlink:href="#zoomPlus" x="17" y="9" onmousedown="handleZoom(evt,'in')"/>
                <use id="zoomminus" xlink:href="#zoomMin" x="42" y="9" onmousedown="handleZoom(evt,'out')"/>
                <use id="reset" xlink:href="#resetDef" x="30" y="36" onmousedown="handleReset()"/>
                <g id="arrowUp" xlink:href="#dirArrow" transform="translate(30 24)" onmousedown="handlePan(0,-1)">
                  <use xlink:href="#rim" fill="#404040">
                        <set attributeName="fill" to="#808080" begin="arrowUp.mouseover" end="arrowUp.mouseout"/>
                  </use>
                  <path fill="none" stroke="white" stroke-width="1.5" d="M0,-3.0v7 M-2.5,-0.5L0,-3.0L2.5,-0.5"/>
                </g>
                <g id="arrowRight" xlink:href="#dirArrow" transform="rotate(90) translate(36 -43)" onmousedown="handlePan(1,0)">
                  <use xlink:href="#rim" fill="#404040">
                        <set attributeName="fill" to="#808080" begin="arrowRight.mouseover" end="arrowRight.mouseout"/>
                  </use>
                  <path fill="none" stroke="white" stroke-width="1.5" d="M0,-3.0v7 M-2.5,-0.5L0,-3.0L2.5,-0.5"/>
                </g>
                <g id="arrowDown" xlink:href="#dirArrow" transform="rotate(180) translate(-30 -48)" onmousedown="handlePan(0,1)">
                  <use xlink:href="#rim" fill="#404040">
                        <set attributeName="fill" to="#808080" begin="arrowDown.mouseover" end="arrowDown.mouseout"/>
                  </use>
                  <path fill="none" stroke="white" stroke-width="1.5" d="M0,-3.0v7 M-2.5,-0.5L0,-3.0L2.5,-0.5"/>
                </g>
                <g id="arrowLeft" xlink:href="#dirArrow" transform="rotate(270) translate(-36 17)" onmousedown="handlePan(-1,0)">
                  <use xlink:href="#rim" fill="#404040">
                        <set attributeName="fill" to="#808080" begin="arrowLeft.mouseover" end="arrowLeft.mouseout"/>
                  </use>
                  <path fill="none" stroke="white" stroke-width="1.5" d="M0,-3.0v7 M-2.5,-0.5L0,-3.0L2.5,-0.5"/>
                </g>
        </g>
        <svg viewBox="0 0 15 15" width="100%" height="30px" preserveAspectRatio="xMaxYMin meet">
         <g id="arrow_out" transform="scale(0.3 0.3)">
          <a xlink:href="Position_8h__dep__incl_org.svg" target="_base">
           <rect id="button" ry="5" rx="5" y="6" x="6" height="38" width="38"
                fill="#f2f5e9" fill-opacity="0.5" stroke="#606060" stroke-width="1.0"/>
           <path id="arrow"
             d="M 11.500037,31.436501 C 11.940474,20.09759 22.043105,11.32322 32.158766,21.979434 L 37.068811,17.246167 C 37.068811,17.246167 37.088388,32 37.088388,32 L 22.160133,31.978069 C 22.160133,31.978069 26.997745,27.140456 26.997745,27.140456 C 18.528582,18.264221 13.291696,25.230495 11.500037,31.436501 z"
             style="fill:#404040;"/>
          </a>
         </g>
        </svg>
</svg>
