<?xml version="1.0" encoding="UTF-8" standalone="no"?>
<!DOCTYPE svg PUBLIC "-//W3C//DTD SVG 1.1//EN"
 "http://www.w3.org/Graphics/SVG/1.1/DTD/svg11.dtd">
<!-- Generated by graphviz version 2.38.0 (20140413.2041)
 -->
<!-- Title: src/TH/RelocationStrategyPolicy.h Pages: 1 -->
<svg width="218pt" height="167pt"
 viewBox="0.00 0.00 217.50 167.00" xmlns="http://www.w3.org/2000/svg" xmlns:xlink="http://www.w3.org/1999/xlink">
<g id="graph0" class="graph" transform="scale(1 1) rotate(0) translate(4 163)">
<title>src/TH/RelocationStrategyPolicy.h</title>
<!-- Node1 -->
<g id="node1" class="node"><title>Node1</title>
<polygon fill="#bfbfbf" stroke="black" points="66.5,-126.5 66.5,-158.5 209.5,-158.5 209.5,-126.5 66.5,-126.5"/>
<text text-anchor="start" x="74.5" y="-145.7" font-family="Helvetica,sans-Serif" font-size="11.00">src/TH/RelocationStrategy</text>
<text text-anchor="middle" x="138" y="-133.7" font-family="Helvetica,sans-Serif" font-size="11.00">Policy.h</text>
</g>
<!-- Node2 -->
<g id="node2" class="node"><title>Node2</title>
<g id="a_node2"><a xlink:href="BetaRelocationStrategyPolicy_8h.xhtml" target="_top" xlink:title="src/TH/BetaRelocationStrategy\lPolicy.h">
<polygon fill="none" stroke="black" points="0,-57.5 0,-89.5 166,-89.5 166,-57.5 0,-57.5"/>
<text text-anchor="start" x="8" y="-76.7" font-family="Helvetica,sans-Serif" font-size="11.00">src/TH/BetaRelocationStrategy</text>
<text text-anchor="middle" x="83" y="-64.7" font-family="Helvetica,sans-Serif" font-size="11.00">Policy.h</text>
</a>
</g>
</g>
<!-- Node1&#45;&gt;Node2 -->
<g id="edge1" class="edge"><title>Node1&#45;&gt;Node2</title>
<path fill="none" stroke="midnightblue" d="M118.997,-118.351C111.196,-108.848 102.384,-98.1132 95.431,-89.6432"/>
<polygon fill="midnightblue" stroke="midnightblue" points="116.469,-120.788 125.52,-126.297 121.88,-116.347 116.469,-120.788"/>
</g>
<!-- Node3 -->
<g id="node3" class="node"><title>Node3</title>
<g id="a_node3"><a xlink:href="THBuilder_8h.xhtml" target="_top" xlink:title="src/TH/THBuilder.h">
<polygon fill="none" stroke="black" points="83,-0.5 83,-20.5 193,-20.5 193,-0.5 83,-0.5"/>
<text text-anchor="middle" x="138" y="-7.7" font-family="Helvetica,sans-Serif" font-size="11.00">src/TH/THBuilder.h</text>
</a>
</g>
</g>
<!-- Node1&#45;&gt;Node3 -->
<g id="edge3" class="edge"><title>Node1&#45;&gt;Node3</title>
<path fill="none" stroke="midnightblue" d="M159.204,-118.471C165.559,-110.122 171.71,-100.217 175,-90 179.495,-76.0392 179.91,-70.8204 175,-57 169.819,-42.4172 157.747,-29.1109 148.793,-20.7063"/>
<polygon fill="midnightblue" stroke="midnightblue" points="156.469,-116.286 152.879,-126.254 161.901,-120.701 156.469,-116.286"/>
</g>
<!-- Node2&#45;&gt;Node3 -->
<g id="edge2" class="edge"><title>Node2&#45;&gt;Node3</title>
<path fill="none" stroke="midnightblue" d="M103.327,-49.955C112.522,-39.7578 122.866,-28.285 129.844,-20.5459"/>
<polygon fill="midnightblue" stroke="midnightblue" points="100.692,-47.6507 96.5955,-57.4213 105.891,-52.3382 100.692,-47.6507"/>
</g>
</g>
</svg>
