<?xml version="1.0" encoding="UTF-8" standalone="no"?>
<!DOCTYPE svg PUBLIC "-//W3C//DTD SVG 1.1//EN"
 "http://www.w3.org/Graphics/SVG/1.1/DTD/svg11.dtd">
<!-- Generated by graphviz version 2.38.0 (20140413.2041)
 -->
<!-- Title: src/RosenbrockFitnessPolicy.cpp Pages: 1 -->
<svg width="1270pt" height="428pt"
 viewBox="0.00 0.00 1270.00 428.00" xmlns="http://www.w3.org/2000/svg" xmlns:xlink="http://www.w3.org/1999/xlink">
<g id="graph0" class="graph" transform="scale(1 1) rotate(0) translate(4 424)">
<title>src/RosenbrockFitnessPolicy.cpp</title>
<!-- Node1 -->
<g id="node1" class="node"><title>Node1</title>
<polygon fill="#bfbfbf" stroke="black" points="639.5,-399.5 639.5,-419.5 814.5,-419.5 814.5,-399.5 639.5,-399.5"/>
<text text-anchor="middle" x="727" y="-406.7" font-family="Helvetica,sans-Serif" font-size="11.00">src/RosenbrockFitnessPolicy.cpp</text>
</g>
<!-- Node2 -->
<g id="node2" class="node"><title>Node2</title>
<g id="a_node2"><a xlink:href="RosenbrockFitnessPolicy_8h.xhtml" target="_top" xlink:title="RosenbrockFitnessPolicy.h">
<polygon fill="none" stroke="black" points="654,-342.5 654,-362.5 800,-362.5 800,-342.5 654,-342.5"/>
<text text-anchor="middle" x="727" y="-349.7" font-family="Helvetica,sans-Serif" font-size="11.00">RosenbrockFitnessPolicy.h</text>
</a>
</g>
</g>
<!-- Node1&#45;&gt;Node2 -->
<g id="edge1" class="edge"><title>Node1&#45;&gt;Node2</title>
<path fill="none" stroke="midnightblue" d="M727,-399.418C727,-392.216 727,-381.896 727,-372.863"/>
<polygon fill="midnightblue" stroke="midnightblue" points="730.5,-372.779 727,-362.779 723.5,-372.779 730.5,-372.779"/>
</g>
<!-- Node3 -->
<g id="node3" class="node"><title>Node3</title>
<g id="a_node3"><a xlink:href="FitnessPolicy_8h.xhtml" target="_top" xlink:title="TH/FitnessPolicy.h">
<polygon fill="none" stroke="black" points="632.5,-285.5 632.5,-305.5 739.5,-305.5 739.5,-285.5 632.5,-285.5"/>
<text text-anchor="middle" x="686" y="-292.7" font-family="Helvetica,sans-Serif" font-size="11.00">TH/FitnessPolicy.h</text>
</a>
</g>
</g>
<!-- Node2&#45;&gt;Node3 -->
<g id="edge2" class="edge"><title>Node2&#45;&gt;Node3</title>
<path fill="none" stroke="midnightblue" d="M720.23,-342.418C714.448,-334.662 705.971,-323.29 698.899,-313.803"/>
<polygon fill="midnightblue" stroke="midnightblue" points="701.7,-311.705 692.917,-305.779 696.088,-315.889 701.7,-311.705"/>
</g>
<!-- Node4 -->
<g id="node4" class="node"><title>Node4</title>
<g id="a_node4"><a xlink:href="Solution_8h.xhtml" target="_top" xlink:title="Solution.h">
<polygon fill="none" stroke="black" points="367.5,-228.5 367.5,-248.5 432.5,-248.5 432.5,-228.5 367.5,-228.5"/>
<text text-anchor="middle" x="400" y="-235.7" font-family="Helvetica,sans-Serif" font-size="11.00">Solution.h</text>
</a>
</g>
</g>
<!-- Node2&#45;&gt;Node4 -->
<g id="edge41" class="edge"><title>Node2&#45;&gt;Node4</title>
<path fill="none" stroke="midnightblue" d="M700.517,-342.429C642.235,-322.467 502.777,-274.702 436.36,-251.954"/>
<polygon fill="midnightblue" stroke="midnightblue" points="437.325,-248.584 426.73,-248.655 435.056,-255.207 437.325,-248.584"/>
</g>
<!-- Node28 -->
<g id="node28" class="node"><title>Node28</title>
<polygon fill="none" stroke="#bfbfbf" points="814.5,-171.5 814.5,-191.5 857.5,-191.5 857.5,-171.5 814.5,-171.5"/>
<text text-anchor="middle" x="836" y="-178.7" font-family="Helvetica,sans-Serif" font-size="11.00">mpi.h</text>
</g>
<!-- Node2&#45;&gt;Node28 -->
<g id="edge42" class="edge"><title>Node2&#45;&gt;Node28</title>
<path fill="none" stroke="midnightblue" d="M732.86,-342.414C750.234,-315.477 801.677,-235.716 824.672,-200.063"/>
<polygon fill="midnightblue" stroke="midnightblue" points="827.632,-201.932 830.111,-191.631 821.749,-198.138 827.632,-201.932"/>
</g>
<!-- Node32 -->
<g id="node32" class="node"><title>Node32</title>
<polygon fill="none" stroke="#bfbfbf" points="796,-285.5 796,-305.5 838,-305.5 838,-285.5 796,-285.5"/>
<text text-anchor="middle" x="817" y="-292.7" font-family="Helvetica,sans-Serif" font-size="11.00">cfloat</text>
</g>
<!-- Node2&#45;&gt;Node32 -->
<g id="edge43" class="edge"><title>Node2&#45;&gt;Node32</title>
<path fill="none" stroke="midnightblue" d="M741.862,-342.418C755.801,-333.899 776.882,-321.017 793.17,-311.063"/>
<polygon fill="midnightblue" stroke="midnightblue" points="795.409,-313.797 802.116,-305.596 791.758,-307.824 795.409,-313.797"/>
</g>
<!-- Node3&#45;&gt;Node4 -->
<g id="edge3" class="edge"><title>Node3&#45;&gt;Node4</title>
<path fill="none" stroke="midnightblue" d="M639.093,-285.479C584.569,-274.994 495.355,-257.838 442.697,-247.711"/>
<polygon fill="midnightblue" stroke="midnightblue" points="443.154,-244.235 432.673,-245.783 441.832,-251.109 443.154,-244.235"/>
</g>
<!-- Node30 -->
<g id="node30" class="node"><title>Node30</title>
<g id="a_node30"><a xlink:href="THTree_8h.xhtml" target="_top" xlink:title="THTree.h">
<polygon fill="none" stroke="black" points="1015.5,-171.5 1015.5,-191.5 1078.5,-191.5 1078.5,-171.5 1015.5,-171.5"/>
<text text-anchor="middle" x="1047" y="-178.7" font-family="Helvetica,sans-Serif" font-size="11.00">THTree.h</text>
</a>
</g>
</g>
<!-- Node3&#45;&gt;Node30 -->
<g id="edge37" class="edge"><title>Node3&#45;&gt;Node30</title>
<path fill="none" stroke="midnightblue" d="M715.236,-285.429C779.923,-265.36 935.188,-217.19 1008.03,-194.59"/>
<polygon fill="midnightblue" stroke="midnightblue" points="1009.23,-197.883 1017.74,-191.577 1007.16,-191.197 1009.23,-197.883"/>
</g>
<!-- Node5 -->
<g id="node5" class="node"><title>Node5</title>
<g id="a_node5"><a xlink:href="ConstraintViolation_8h.xhtml" target="_top" xlink:title="ConstraintViolation.h">
<polygon fill="none" stroke="black" points="0,-171.5 0,-191.5 116,-191.5 116,-171.5 0,-171.5"/>
<text text-anchor="middle" x="58" y="-178.7" font-family="Helvetica,sans-Serif" font-size="11.00">ConstraintViolation.h</text>
</a>
</g>
</g>
<!-- Node4&#45;&gt;Node5 -->
<g id="edge4" class="edge"><title>Node4&#45;&gt;Node5</title>
<path fill="none" stroke="midnightblue" d="M367.208,-232.226C311.401,-223.252 196.934,-204.843 124.015,-193.116"/>
<polygon fill="midnightblue" stroke="midnightblue" points="124.441,-189.64 114.012,-191.508 123.33,-196.551 124.441,-189.64"/>
</g>
<!-- Node6 -->
<g id="node6" class="node"><title>Node6</title>
<polygon fill="none" stroke="#bfbfbf" points="77,-114.5 77,-134.5 139,-134.5 139,-114.5 77,-114.5"/>
<text text-anchor="middle" x="108" y="-121.7" font-family="Helvetica,sans-Serif" font-size="11.00">stdexcept</text>
</g>
<!-- Node4&#45;&gt;Node6 -->
<g id="edge35" class="edge"><title>Node4&#45;&gt;Node6</title>
<path fill="none" stroke="midnightblue" d="M367.296,-238.018C319.201,-237.351 228.068,-230.538 163,-192 143.144,-180.24 127.271,-158.557 117.776,-143.149"/>
<polygon fill="midnightblue" stroke="midnightblue" points="120.788,-141.367 112.71,-134.512 114.75,-144.908 120.788,-141.367"/>
</g>
<!-- Node7 -->
<g id="node7" class="node"><title>Node7</title>
<g id="a_node7"><a xlink:href="Position_8h.xhtml" target="_top" xlink:title="Position.h">
<polygon fill="none" stroke="black" points="250,-171.5 250,-191.5 314,-191.5 314,-171.5 250,-171.5"/>
<text text-anchor="middle" x="282" y="-178.7" font-family="Helvetica,sans-Serif" font-size="11.00">Position.h</text>
</a>
</g>
</g>
<!-- Node4&#45;&gt;Node7 -->
<g id="edge6" class="edge"><title>Node4&#45;&gt;Node7</title>
<path fill="none" stroke="midnightblue" d="M380.515,-228.418C361.47,-219.541 332.258,-205.925 310.584,-195.823"/>
<polygon fill="midnightblue" stroke="midnightblue" points="312.057,-192.648 301.514,-191.596 309.099,-198.993 312.057,-192.648"/>
</g>
<!-- Node8 -->
<g id="node8" class="node"><title>Node8</title>
<polygon fill="none" stroke="#bfbfbf" points="157.5,-114.5 157.5,-134.5 200.5,-134.5 200.5,-114.5 157.5,-114.5"/>
<text text-anchor="middle" x="179" y="-121.7" font-family="Helvetica,sans-Serif" font-size="11.00">string</text>
</g>
<!-- Node4&#45;&gt;Node8 -->
<g id="edge36" class="edge"><title>Node4&#45;&gt;Node8</title>
<path fill="none" stroke="midnightblue" d="M391.888,-228.437C378.741,-214.265 351.379,-186.841 323,-171 279.233,-146.569 261.674,-150.452 210.268,-135.297"/>
<polygon fill="midnightblue" stroke="midnightblue" points="211.216,-131.927 200.629,-132.352 209.17,-138.622 211.216,-131.927"/>
</g>
<!-- Node9 -->
<g id="node9" class="node"><title>Node9</title>
<g id="a_node9"><a xlink:href="Fitness_8h.xhtml" target="_top" xlink:title="Fitness.h">
<polygon fill="none" stroke="black" points="172,-171.5 172,-191.5 232,-191.5 232,-171.5 172,-171.5"/>
<text text-anchor="middle" x="202" y="-178.7" font-family="Helvetica,sans-Serif" font-size="11.00">Fitness.h</text>
</a>
</g>
</g>
<!-- Node4&#45;&gt;Node9 -->
<g id="edge9" class="edge"><title>Node4&#45;&gt;Node9</title>
<path fill="none" stroke="midnightblue" d="M367.304,-228.418C332.968,-218.88 278.937,-203.871 242.061,-193.628"/>
<polygon fill="midnightblue" stroke="midnightblue" points="242.718,-190.178 232.146,-190.874 240.844,-196.923 242.718,-190.178"/>
</g>
<!-- Node10 -->
<g id="node10" class="node"><title>Node10</title>
<g id="a_node10"><a xlink:href="Region_8h.xhtml" target="_top" xlink:title="Region.h">
<polygon fill="none" stroke="black" points="370,-171.5 370,-191.5 430,-191.5 430,-171.5 370,-171.5"/>
<text text-anchor="middle" x="400" y="-178.7" font-family="Helvetica,sans-Serif" font-size="11.00">Region.h</text>
</a>
</g>
</g>
<!-- Node4&#45;&gt;Node10 -->
<g id="edge11" class="edge"><title>Node4&#45;&gt;Node10</title>
<path fill="none" stroke="midnightblue" d="M400,-228.418C400,-221.216 400,-210.896 400,-201.863"/>
<polygon fill="midnightblue" stroke="midnightblue" points="403.5,-201.779 400,-191.779 396.5,-201.779 403.5,-201.779"/>
</g>
<!-- Node17 -->
<g id="node17" class="node"><title>Node17</title>
<g id="a_node17"><a xlink:href="THUtil_8h.xhtml" target="_top" xlink:title="THUtil.h">
<polygon fill="none" stroke="black" points="667,-171.5 667,-191.5 723,-191.5 723,-171.5 667,-171.5"/>
<text text-anchor="middle" x="695" y="-178.7" font-family="Helvetica,sans-Serif" font-size="11.00">THUtil.h</text>
</a>
</g>
</g>
<!-- Node4&#45;&gt;Node17 -->
<g id="edge20" class="edge"><title>Node4&#45;&gt;Node17</title>
<path fill="none" stroke="midnightblue" d="M432.697,-231.404C487.747,-221.14 598.631,-200.467 657.034,-189.578"/>
<polygon fill="midnightblue" stroke="midnightblue" points="657.773,-193.001 666.962,-187.727 656.49,-186.12 657.773,-193.001"/>
</g>
<!-- Node4&#45;&gt;Node28 -->
<g id="edge33" class="edge"><title>Node4&#45;&gt;Node28</title>
<path fill="none" stroke="midnightblue" d="M432.609,-235.892C500.282,-232.116 660.917,-220.879 804.578,-191.702"/>
<polygon fill="midnightblue" stroke="midnightblue" points="805.368,-195.113 814.453,-189.662 803.951,-188.258 805.368,-195.113"/>
</g>
<!-- Node29 -->
<g id="node29" class="node"><title>Node29</title>
<polygon fill="none" stroke="#bfbfbf" points="741.5,-171.5 741.5,-191.5 796.5,-191.5 796.5,-171.5 741.5,-171.5"/>
<text text-anchor="middle" x="769" y="-178.7" font-family="Helvetica,sans-Serif" font-size="11.00">stddef.h</text>
</g>
<!-- Node4&#45;&gt;Node29 -->
<g id="edge34" class="edge"><title>Node4&#45;&gt;Node29</title>
<path fill="none" stroke="midnightblue" d="M432.722,-234.279C490.812,-228.29 615.897,-214.17 731.148,-191.966"/>
<polygon fill="midnightblue" stroke="midnightblue" points="732.054,-195.356 741.198,-190.004 730.713,-188.485 732.054,-195.356"/>
</g>
<!-- Node5&#45;&gt;Node6 -->
<g id="edge5" class="edge"><title>Node5&#45;&gt;Node6</title>
<path fill="none" stroke="midnightblue" d="M66.2565,-171.418C73.4508,-163.504 84.0688,-151.824 92.7954,-142.225"/>
<polygon fill="midnightblue" stroke="midnightblue" points="95.4272,-144.533 99.5641,-134.779 90.2476,-139.825 95.4272,-144.533"/>
</g>
<!-- Node7&#45;&gt;Node6 -->
<g id="edge7" class="edge"><title>Node7&#45;&gt;Node6</title>
<path fill="none" stroke="midnightblue" d="M253.267,-171.418C223.963,-162.155 178.335,-147.732 146.046,-137.526"/>
<polygon fill="midnightblue" stroke="midnightblue" points="147.076,-134.181 136.486,-134.504 144.966,-140.855 147.076,-134.181"/>
</g>
<!-- Node7&#45;&gt;Node8 -->
<g id="edge8" class="edge"><title>Node7&#45;&gt;Node8</title>
<path fill="none" stroke="midnightblue" d="M264.992,-171.418C248.666,-162.7 223.781,-149.412 204.975,-139.37"/>
<polygon fill="midnightblue" stroke="midnightblue" points="206.503,-136.219 196.034,-134.596 203.206,-142.393 206.503,-136.219"/>
</g>
<!-- Node9&#45;&gt;Node6 -->
<g id="edge10" class="edge"><title>Node9&#45;&gt;Node6</title>
<path fill="none" stroke="midnightblue" d="M186.478,-171.418C171.782,-162.82 149.489,-149.775 132.413,-139.784"/>
<polygon fill="midnightblue" stroke="midnightblue" points="133.944,-136.625 123.545,-134.596 130.409,-142.667 133.944,-136.625"/>
</g>
<!-- Node11 -->
<g id="node11" class="node"><title>Node11</title>
<g id="a_node11"><a xlink:href="Dimension_8h.xhtml" target="_top" xlink:title="Dimension.h">
<polygon fill="none" stroke="black" points="218.5,-114.5 218.5,-134.5 295.5,-134.5 295.5,-114.5 218.5,-114.5"/>
<text text-anchor="middle" x="257" y="-121.7" font-family="Helvetica,sans-Serif" font-size="11.00">Dimension.h</text>
</a>
</g>
</g>
<!-- Node10&#45;&gt;Node11 -->
<g id="edge12" class="edge"><title>Node10&#45;&gt;Node11</title>
<path fill="none" stroke="midnightblue" d="M376.386,-171.418C352.892,-162.382 316.632,-148.435 290.235,-138.283"/>
<polygon fill="midnightblue" stroke="midnightblue" points="291.239,-134.919 280.649,-134.596 288.726,-141.452 291.239,-134.919"/>
</g>
<!-- Node12 -->
<g id="node12" class="node"><title>Node12</title>
<g id="a_node12"><a xlink:href="Partition_8h.xhtml" target="_top" xlink:title="Partition.h">
<polygon fill="none" stroke="black" points="268.5,-57.5 268.5,-77.5 333.5,-77.5 333.5,-57.5 268.5,-57.5"/>
<text text-anchor="middle" x="301" y="-64.7" font-family="Helvetica,sans-Serif" font-size="11.00">Partition.h</text>
</a>
</g>
</g>
<!-- Node10&#45;&gt;Node12 -->
<g id="edge15" class="edge"><title>Node10&#45;&gt;Node12</title>
<path fill="none" stroke="midnightblue" d="M388.131,-171.459C377.098,-162.755 360.53,-148.9 348,-135 334.156,-119.642 320.791,-100.128 311.875,-86.2193"/>
<polygon fill="midnightblue" stroke="midnightblue" points="314.746,-84.2104 306.462,-77.6053 308.819,-87.9347 314.746,-84.2104"/>
</g>
<!-- Node13 -->
<g id="node13" class="node"><title>Node13</title>
<polygon fill="none" stroke="#bfbfbf" points="442.5,-0.5 442.5,-20.5 489.5,-20.5 489.5,-0.5 442.5,-0.5"/>
<text text-anchor="middle" x="466" y="-7.7" font-family="Helvetica,sans-Serif" font-size="11.00">cstdlib</text>
</g>
<!-- Node10&#45;&gt;Node13 -->
<g id="edge17" class="edge"><title>Node10&#45;&gt;Node13</title>
<path fill="none" stroke="midnightblue" d="M399.984,-171.328C400.15,-158.373 401.16,-134.058 406,-114 412.407,-87.4441 415.116,-80.5268 429,-57 435.054,-46.7409 443.303,-36.3553 450.476,-28.1018"/>
<polygon fill="midnightblue" stroke="midnightblue" points="453.095,-30.4231 457.169,-20.6426 447.885,-25.7481 453.095,-30.4231"/>
</g>
<!-- Node14 -->
<g id="node14" class="node"><title>Node14</title>
<polygon fill="none" stroke="#bfbfbf" points="504,-114.5 504,-134.5 542,-134.5 542,-114.5 504,-114.5"/>
<text text-anchor="middle" x="523" y="-121.7" font-family="Helvetica,sans-Serif" font-size="11.00">map</text>
</g>
<!-- Node10&#45;&gt;Node14 -->
<g id="edge16" class="edge"><title>Node10&#45;&gt;Node14</title>
<path fill="none" stroke="midnightblue" d="M420.311,-171.418C440.61,-162.341 471.99,-148.309 494.72,-138.146"/>
<polygon fill="midnightblue" stroke="midnightblue" points="496.174,-141.329 503.874,-134.052 493.316,-134.939 496.174,-141.329"/>
</g>
<!-- Node15 -->
<g id="node15" class="node"><title>Node15</title>
<polygon fill="none" stroke="#bfbfbf" points="438.5,-57.5 438.5,-77.5 493.5,-77.5 493.5,-57.5 438.5,-57.5"/>
<text text-anchor="middle" x="466" y="-64.7" font-family="Helvetica,sans-Serif" font-size="11.00">sstream</text>
</g>
<!-- Node10&#45;&gt;Node15 -->
<g id="edge18" class="edge"><title>Node10&#45;&gt;Node15</title>
<path fill="none" stroke="midnightblue" d="M401.092,-171.299C403.009,-157.884 407.889,-132.538 419,-114 425.864,-102.548 436.336,-92.0186 445.654,-83.9796"/>
<polygon fill="midnightblue" stroke="midnightblue" points="447.92,-86.6474 453.426,-77.5955 443.477,-81.2383 447.92,-86.6474"/>
</g>
<!-- Node16 -->
<g id="node16" class="node"><title>Node16</title>
<polygon fill="none" stroke="#bfbfbf" points="428,-114.5 428,-134.5 486,-134.5 486,-114.5 428,-114.5"/>
<text text-anchor="middle" x="457" y="-121.7" font-family="Helvetica,sans-Serif" font-size="11.00">iostream</text>
</g>
<!-- Node10&#45;&gt;Node16 -->
<g id="edge19" class="edge"><title>Node10&#45;&gt;Node16</title>
<path fill="none" stroke="midnightblue" d="M409.412,-171.418C417.696,-163.425 429.961,-151.59 439.965,-141.938"/>
<polygon fill="midnightblue" stroke="midnightblue" points="442.617,-144.242 447.383,-134.779 437.757,-139.205 442.617,-144.242"/>
</g>
<!-- Node11&#45;&gt;Node12 -->
<g id="edge13" class="edge"><title>Node11&#45;&gt;Node12</title>
<path fill="none" stroke="midnightblue" d="M264.266,-114.418C270.47,-106.662 279.568,-95.29 287.157,-85.8035"/>
<polygon fill="midnightblue" stroke="midnightblue" points="290.062,-87.7746 293.576,-77.7795 284.596,-83.4017 290.062,-87.7746"/>
</g>
<!-- Node12&#45;&gt;Node13 -->
<g id="edge14" class="edge"><title>Node12&#45;&gt;Node13</title>
<path fill="none" stroke="midnightblue" d="M328.246,-57.4179C356.865,-47.8785 401.9,-32.8668 432.629,-22.6235"/>
<polygon fill="midnightblue" stroke="midnightblue" points="434.078,-25.83 442.458,-19.3473 431.864,-19.1892 434.078,-25.83"/>
</g>
<!-- Node17&#45;&gt;Node13 -->
<g id="edge24" class="edge"><title>Node17&#45;&gt;Node13</title>
<path fill="none" stroke="midnightblue" d="M666.961,-171.772C644.692,-164.084 613.356,-151.536 589,-135 543.339,-103.999 500.309,-54.4867 479.337,-28.5739"/>
<polygon fill="midnightblue" stroke="midnightblue" points="482.07,-26.3874 473.098,-20.7517 476.597,-30.7521 482.07,-26.3874"/>
</g>
<!-- Node18 -->
<g id="node18" class="node"><title>Node18</title>
<polygon fill="none" stroke="#bfbfbf" points="598,-114.5 598,-134.5 650,-134.5 650,-114.5 598,-114.5"/>
<text text-anchor="middle" x="624" y="-121.7" font-family="Helvetica,sans-Serif" font-size="11.00">string.h</text>
</g>
<!-- Node17&#45;&gt;Node18 -->
<g id="edge21" class="edge"><title>Node17&#45;&gt;Node18</title>
<path fill="none" stroke="midnightblue" d="M683.276,-171.418C672.651,-163.188 656.768,-150.884 644.117,-141.084"/>
<polygon fill="midnightblue" stroke="midnightblue" points="646.028,-138.137 635.979,-134.779 641.741,-143.67 646.028,-138.137"/>
</g>
<!-- Node19 -->
<g id="node19" class="node"><title>Node19</title>
<polygon fill="none" stroke="#bfbfbf" points="668.5,-114.5 668.5,-134.5 721.5,-134.5 721.5,-114.5 668.5,-114.5"/>
<text text-anchor="middle" x="695" y="-121.7" font-family="Helvetica,sans-Serif" font-size="11.00">random</text>
</g>
<!-- Node17&#45;&gt;Node19 -->
<g id="edge22" class="edge"><title>Node17&#45;&gt;Node19</title>
<path fill="none" stroke="midnightblue" d="M695,-171.418C695,-164.216 695,-153.896 695,-144.863"/>
<polygon fill="midnightblue" stroke="midnightblue" points="698.5,-144.779 695,-134.779 691.5,-144.779 698.5,-144.779"/>
</g>
<!-- Node20 -->
<g id="node20" class="node"><title>Node20</title>
<polygon fill="none" stroke="#bfbfbf" points="740,-114.5 740,-134.5 784,-134.5 784,-114.5 740,-114.5"/>
<text text-anchor="middle" x="762" y="-121.7" font-family="Helvetica,sans-Serif" font-size="11.00">cstdio</text>
</g>
<!-- Node17&#45;&gt;Node20 -->
<g id="edge23" class="edge"><title>Node17&#45;&gt;Node20</title>
<path fill="none" stroke="midnightblue" d="M706.064,-171.418C715.993,-163.267 730.79,-151.12 742.671,-141.367"/>
<polygon fill="midnightblue" stroke="midnightblue" points="745.187,-143.83 750.696,-134.779 740.746,-138.419 745.187,-143.83"/>
</g>
<!-- Node21 -->
<g id="node21" class="node"><title>Node21</title>
<polygon fill="none" stroke="#bfbfbf" points="802.5,-114.5 802.5,-134.5 855.5,-134.5 855.5,-114.5 802.5,-114.5"/>
<text text-anchor="middle" x="829" y="-121.7" font-family="Helvetica,sans-Serif" font-size="11.00">fstream</text>
</g>
<!-- Node17&#45;&gt;Node21 -->
<g id="edge25" class="edge"><title>Node17&#45;&gt;Node21</title>
<path fill="none" stroke="midnightblue" d="M717.127,-171.418C739.046,-162.421 772.822,-148.558 797.529,-138.417"/>
<polygon fill="midnightblue" stroke="midnightblue" points="798.918,-141.631 806.84,-134.596 796.26,-135.155 798.918,-141.631"/>
</g>
<!-- Node22 -->
<g id="node22" class="node"><title>Node22</title>
<polygon fill="none" stroke="#bfbfbf" points="874,-114.5 874,-134.5 936,-134.5 936,-114.5 874,-114.5"/>
<text text-anchor="middle" x="905" y="-121.7" font-family="Helvetica,sans-Serif" font-size="11.00">sys/stat.h</text>
</g>
<!-- Node17&#45;&gt;Node22 -->
<g id="edge26" class="edge"><title>Node17&#45;&gt;Node22</title>
<path fill="none" stroke="midnightblue" d="M723.322,-173.082C759.521,-163.602 822.456,-147.119 863.921,-136.259"/>
<polygon fill="midnightblue" stroke="midnightblue" points="864.926,-139.614 873.713,-133.694 863.153,-132.842 864.926,-139.614"/>
</g>
<!-- Node23 -->
<g id="node23" class="node"><title>Node23</title>
<polygon fill="none" stroke="#bfbfbf" points="954,-114.5 954,-134.5 1008,-134.5 1008,-114.5 954,-114.5"/>
<text text-anchor="middle" x="981" y="-121.7" font-family="Helvetica,sans-Serif" font-size="11.00">libgen.h</text>
</g>
<!-- Node17&#45;&gt;Node23 -->
<g id="edge27" class="edge"><title>Node17&#45;&gt;Node23</title>
<path fill="none" stroke="midnightblue" d="M723.224,-172.993C726.179,-172.285 729.146,-171.607 732,-171 822.794,-151.707 849.403,-155.015 943.95,-135.063"/>
<polygon fill="midnightblue" stroke="midnightblue" points="944.892,-138.44 953.937,-132.923 943.425,-131.596 944.892,-138.44"/>
</g>
<!-- Node24 -->
<g id="node24" class="node"><title>Node24</title>
<g id="a_node24"><a xlink:href="macros_8h.xhtml" target="_top" xlink:title="Macros and constants must defined in this file. ">
<polygon fill="none" stroke="black" points="1026.5,-114.5 1026.5,-134.5 1087.5,-134.5 1087.5,-114.5 1026.5,-114.5"/>
<text text-anchor="middle" x="1057" y="-121.7" font-family="Helvetica,sans-Serif" font-size="11.00">macros.h</text>
</a>
</g>
</g>
<!-- Node17&#45;&gt;Node24 -->
<g id="edge28" class="edge"><title>Node17&#45;&gt;Node24</title>
<path fill="none" stroke="midnightblue" d="M723.199,-172.87C726.16,-172.186 729.134,-171.547 732,-171 854.228,-147.685 889.592,-157.262 1016.4,-134.914"/>
<polygon fill="midnightblue" stroke="midnightblue" points="1017.27,-138.313 1026.5,-133.102 1016.04,-131.423 1017.27,-138.313"/>
</g>
<!-- Node27 -->
<g id="node27" class="node"><title>Node27</title>
<g id="a_node27"><a xlink:href="config_8h.xhtml" target="_top" xlink:title="Global configurations must be set in this file. ">
<polygon fill="none" stroke="black" points="1106,-114.5 1106,-134.5 1160,-134.5 1160,-114.5 1106,-114.5"/>
<text text-anchor="middle" x="1133" y="-121.7" font-family="Helvetica,sans-Serif" font-size="11.00">config.h</text>
</a>
</g>
</g>
<!-- Node17&#45;&gt;Node27 -->
<g id="edge32" class="edge"><title>Node17&#45;&gt;Node27</title>
<path fill="none" stroke="midnightblue" d="M723.185,-172.79C726.148,-172.121 729.126,-171.508 732,-171 889.233,-143.229 934.715,-163.038 1095.71,-134.954"/>
<polygon fill="midnightblue" stroke="midnightblue" points="1096.75,-138.325 1105.98,-133.126 1095.52,-131.433 1096.75,-138.325"/>
</g>
<!-- Node24&#45;&gt;Node15 -->
<g id="edge31" class="edge"><title>Node24&#45;&gt;Node15</title>
<path fill="none" stroke="midnightblue" d="M1026.08,-115.671C1023.03,-115.043 1019.96,-114.471 1017,-114 825.711,-83.5644 593.622,-72.8394 503.917,-69.6623"/>
<polygon fill="midnightblue" stroke="midnightblue" points="503.81,-66.1566 493.696,-69.3114 503.57,-73.1525 503.81,-66.1566"/>
</g>
<!-- Node25 -->
<g id="node25" class="node"><title>Node25</title>
<polygon fill="none" stroke="#bfbfbf" points="993,-57.5 993,-77.5 1041,-77.5 1041,-57.5 993,-57.5"/>
<text text-anchor="middle" x="1017" y="-64.7" font-family="Helvetica,sans-Serif" font-size="11.00">stdio.h</text>
</g>
<!-- Node24&#45;&gt;Node25 -->
<g id="edge29" class="edge"><title>Node24&#45;&gt;Node25</title>
<path fill="none" stroke="midnightblue" d="M1050.39,-114.418C1044.81,-106.742 1036.65,-95.5217 1029.8,-86.0945"/>
<polygon fill="midnightblue" stroke="midnightblue" points="1032.46,-83.8082 1023.75,-77.7795 1026.8,-87.9255 1032.46,-83.8082"/>
</g>
<!-- Node26 -->
<g id="node26" class="node"><title>Node26</title>
<polygon fill="none" stroke="#bfbfbf" points="1059.5,-57.5 1059.5,-77.5 1124.5,-77.5 1124.5,-57.5 1059.5,-57.5"/>
<text text-anchor="middle" x="1092" y="-64.7" font-family="Helvetica,sans-Serif" font-size="11.00">sys/time.h</text>
</g>
<!-- Node24&#45;&gt;Node26 -->
<g id="edge30" class="edge"><title>Node24&#45;&gt;Node26</title>
<path fill="none" stroke="midnightblue" d="M1062.78,-114.418C1067.61,-106.821 1074.66,-95.7527 1080.62,-86.3866"/>
<polygon fill="midnightblue" stroke="midnightblue" points="1083.68,-88.0952 1086.09,-77.7795 1077.77,-84.337 1083.68,-88.0952"/>
</g>
<!-- Node30&#45;&gt;Node13 -->
<g id="edge40" class="edge"><title>Node30&#45;&gt;Node13</title>
<path fill="none" stroke="midnightblue" d="M1078.54,-178.429C1107.46,-174.661 1148.76,-164.153 1169,-135 1189.13,-106.014 1146.55,-64.5942 1134,-57 1079.46,-24.0076 628.026,-14.1494 499.828,-12.0024"/>
<polygon fill="midnightblue" stroke="midnightblue" points="499.854,-8.50243 489.799,-11.8392 499.741,-15.5015 499.854,-8.50243"/>
</g>
<!-- Node30&#45;&gt;Node14 -->
<g id="edge38" class="edge"><title>Node30&#45;&gt;Node14</title>
<path fill="none" stroke="midnightblue" d="M1015.3,-177.834C940.803,-171.463 748.832,-154.433 589,-135 576.858,-133.524 563.496,-131.648 551.99,-129.954"/>
<polygon fill="midnightblue" stroke="midnightblue" points="552.44,-126.482 542.033,-128.466 551.405,-133.405 552.44,-126.482"/>
</g>
<!-- Node31 -->
<g id="node31" class="node"><title>Node31</title>
<polygon fill="none" stroke="#bfbfbf" points="1216,-114.5 1216,-134.5 1262,-134.5 1262,-114.5 1216,-114.5"/>
<text text-anchor="middle" x="1239" y="-121.7" font-family="Helvetica,sans-Serif" font-size="11.00">vector</text>
</g>
<!-- Node30&#45;&gt;Node31 -->
<g id="edge39" class="edge"><title>Node30&#45;&gt;Node31</title>
<path fill="none" stroke="midnightblue" d="M1078.7,-171.418C1113.89,-161.337 1170.42,-145.147 1206.09,-134.929"/>
<polygon fill="midnightblue" stroke="midnightblue" points="1207.35,-138.208 1216,-132.089 1205.42,-131.478 1207.35,-138.208"/>
</g>
</g>
</svg>
