<?xml version="1.0" encoding="UTF-8" standalone="no"?>
<!DOCTYPE svg PUBLIC "-//W3C//DTD SVG 1.1//EN"
 "http://www.w3.org/Graphics/SVG/1.1/DTD/svg11.dtd">
<!-- Generated by graphviz version 2.38.0 (20140413.2041)
 -->
<!-- Title: src/TH/Search.h Pages: 1 -->
<!--zoomable 281 -->
<svg id="main" version="1.1" xmlns="http://www.w3.org/2000/svg" xmlns:xlink="http://www.w3.org/1999/xlink" xml:space="preserve" onload="init(evt)">
<style type="text/css"><![CDATA[
.edge:hover path { stroke: red; }
.edge:hover polygon { stroke: red; fill: red; }
]]></style>
<script type="text/javascript"><![CDATA[
var edges = document.getElementsByTagName('g');
if (edges && edges.length) {
  for (var i=0;i<edges.length;i++) {
    if (edges[i].id.substr(0,4)=='edge') {
      edges[i].setAttribute('class','edge');
    }
  }
}
]]></script>
        <defs>
                <circle id="rim" cx="0" cy="0" r="7"/>
                <circle id="rim2" cx="0" cy="0" r="3.5"/>
                <g id="zoomPlus">
                        <use xlink:href="#rim" fill="#404040">
                                <set attributeName="fill" to="#808080" begin="zoomplus.mouseover" end="zoomplus.mouseout"/>
                        </use>
                        <path d="M-4,0h8M0,-4v8" fill="none" stroke="white" stroke-width="1.5" pointer-events="none"/>
                </g>
                <g id="zoomMin">
                        <use xlink:href="#rim" fill="#404040">
                                <set attributeName="fill" to="#808080" begin="zoomminus.mouseover" end="zoomminus.mouseout"/>
                        </use>
                        <path d="M-4,0h8" fill="none" stroke="white" stroke-width="1.5" pointer-events="none"/>
                </g>
                <g id="dirArrow">
                        <path fill="none" stroke="white" stroke-width="1.5" d="M0,-3.0v7 M-2.5,-0.5L0,-3.0L2.5,-0.5"/>
                </g>
               <g id="resetDef">
                       <use xlink:href="#rim2" fill="#404040">
                               <set attributeName="fill" to="#808080" begin="reset.mouseover" end="reset.mouseout"/>
                       </use>
               </g>
        </defs>

<script type="text/javascript">
var viewWidth = 881;
var viewHeight = 281;
var sectionId = 'dynsection-1';
</script>
<script xlink:href="svgpan.js"/>
<svg id="graph" class="graph">
<g id="viewport">
<title>src/TH/Search.h</title>
<!-- Node1 -->
<g id="node1" class="node"><title>Node1</title>
<polygon fill="#bfbfbf" stroke="black" points="222.5,-252.5 222.5,-272.5 317.5,-272.5 317.5,-252.5 222.5,-252.5"/>
<text text-anchor="middle" x="270" y="-259.7" font-family="Helvetica,sans-Serif" font-size="11.00">src/TH/Search.h</text>
</g>
<!-- Node2 -->
<g id="node2" class="node"><title>Node2</title>
<g id="a_node2"><a xlink:href="ConvergenceControlPolicy_8h.xhtml" target="_top" xlink:title="src/TH/ConvergenceControl\lPolicy.h">
<polygon fill="none" stroke="black" points="0,-126.5 0,-158.5 152,-158.5 152,-126.5 0,-126.5"/>
<text text-anchor="start" x="8" y="-145.7" font-family="Helvetica,sans-Serif" font-size="11.00">src/TH/ConvergenceControl</text>
<text text-anchor="middle" x="76" y="-133.7" font-family="Helvetica,sans-Serif" font-size="11.00">Policy.h</text>
</a>
</g>
</g>
<!-- Node1&#45;&gt;Node2 -->
<g id="edge1" class="edge"><title>Node1&#45;&gt;Node2</title>
<path fill="none" stroke="midnightblue" d="M234.895,-248.845C214.175,-240.723 187.82,-229.236 166,-216 138.038,-199.038 109.197,-174.284 91.9323,-158.537"/>
<polygon fill="midnightblue" stroke="midnightblue" points="233.684,-252.129 244.274,-252.443 236.192,-245.593 233.684,-252.129"/>
</g>
<!-- Node4 -->
<g id="node4" class="node"><title>Node4</title>
<g id="a_node4"><a xlink:href="THBuilder_8h.xhtml" target="_top" xlink:title="src/TH/THBuilder.h">
<polygon fill="none" stroke="black" points="163,-0.5 163,-20.5 273,-20.5 273,-0.5 163,-0.5"/>
<text text-anchor="middle" x="218" y="-7.7" font-family="Helvetica,sans-Serif" font-size="11.00">src/TH/THBuilder.h</text>
</a>
</g>
</g>
<!-- Node1&#45;&gt;Node4 -->
<g id="edge13" class="edge"><title>Node1&#45;&gt;Node4</title>
<path fill="none" stroke="midnightblue" d="M234.787,-247.869C221.052,-240.612 206.762,-230.194 199,-216 162.388,-149.053 200.264,-51.13 213.677,-20.8012"/>
<polygon fill="midnightblue" stroke="midnightblue" points="233.596,-251.181 244.121,-252.395 236.651,-244.882 233.596,-251.181"/>
</g>
<!-- Node5 -->
<g id="node5" class="node"><title>Node5</title>
<g id="a_node5"><a xlink:href="SearchScore_8h.xhtml" target="_top" xlink:title="src/TH/SearchScore.h">
<polygon fill="none" stroke="black" points="208,-195.5 208,-215.5 332,-215.5 332,-195.5 208,-195.5"/>
<text text-anchor="middle" x="270" y="-202.7" font-family="Helvetica,sans-Serif" font-size="11.00">src/TH/SearchScore.h</text>
</a>
</g>
</g>
<!-- Node1&#45;&gt;Node5 -->
<g id="edge5" class="edge"><title>Node1&#45;&gt;Node5</title>
<path fill="none" stroke="midnightblue" d="M270,-242.383C270,-233.374 270,-223.037 270,-215.779"/>
<polygon fill="midnightblue" stroke="midnightblue" points="266.5,-242.418 270,-252.418 273.5,-242.418 266.5,-242.418"/>
</g>
<!-- Node10 -->
<g id="node10" class="node"><title>Node10</title>
<g id="a_node10"><a xlink:href="PSO_8h.xhtml" target="_top" xlink:title="src/PSO.h">
<polygon fill="none" stroke="black" points="350,-195.5 350,-215.5 416,-215.5 416,-195.5 350,-195.5"/>
<text text-anchor="middle" x="383" y="-202.7" font-family="Helvetica,sans-Serif" font-size="11.00">src/PSO.h</text>
</a>
</g>
</g>
<!-- Node1&#45;&gt;Node10 -->
<g id="edge14" class="edge"><title>Node1&#45;&gt;Node10</title>
<path fill="none" stroke="midnightblue" d="M297.901,-247.92C318.59,-237.85 346.228,-224.398 364.313,-215.596"/>
<polygon fill="midnightblue" stroke="midnightblue" points="296.119,-244.894 288.66,-252.418 299.183,-251.188 296.119,-244.894"/>
</g>
<!-- Node11 -->
<g id="node11" class="node"><title>Node11</title>
<g id="a_node11"><a xlink:href="HillClimbing_8h.xhtml" target="_top" xlink:title="src/HillClimbing.h">
<polygon fill="none" stroke="black" points="656,-132.5 656,-152.5 756,-152.5 756,-132.5 656,-132.5"/>
<text text-anchor="middle" x="706" y="-139.7" font-family="Helvetica,sans-Serif" font-size="11.00">src/HillClimbing.h</text>
</a>
</g>
</g>
<!-- Node1&#45;&gt;Node11 -->
<g id="edge15" class="edge"><title>Node1&#45;&gt;Node11</title>
<path fill="none" stroke="midnightblue" d="M313.305,-249.78C400.322,-226.229 594.718,-173.618 672.697,-152.513"/>
<polygon fill="midnightblue" stroke="midnightblue" points="312.227,-246.446 303.488,-252.437 314.055,-253.203 312.227,-246.446"/>
</g>
<!-- Node3 -->
<g id="node3" class="node"><title>Node3</title>
<g id="a_node3"><a xlink:href="CSMOn_8h.xhtml" target="_top" xlink:title="src/TH/CSMOn.h">
<polygon fill="none" stroke="black" points="14,-63.5 14,-83.5 114,-83.5 114,-63.5 14,-63.5"/>
<text text-anchor="middle" x="64" y="-70.7" font-family="Helvetica,sans-Serif" font-size="11.00">src/TH/CSMOn.h</text>
</a>
</g>
</g>
<!-- Node2&#45;&gt;Node3 -->
<g id="edge2" class="edge"><title>Node2&#45;&gt;Node3</title>
<path fill="none" stroke="midnightblue" d="M71.4942,-116.343C69.4443,-104.897 67.1459,-92.0643 65.6414,-83.6646"/>
<polygon fill="midnightblue" stroke="midnightblue" points="68.0688,-117.07 73.277,-126.297 74.9591,-115.836 68.0688,-117.07"/>
</g>
<!-- Node2&#45;&gt;Node4 -->
<g id="edge4" class="edge"><title>Node2&#45;&gt;Node4</title>
<path fill="none" stroke="midnightblue" d="M99.4935,-119.016C117.532,-101.857 143.141,-77.7206 166,-57 180.043,-44.271 196.559,-29.9225 207.147,-20.8023"/>
<polygon fill="midnightblue" stroke="midnightblue" points="96.5999,-116.939 91.7755,-126.371 101.429,-122.006 96.5999,-116.939"/>
</g>
<!-- Node3&#45;&gt;Node4 -->
<g id="edge3" class="edge"><title>Node3&#45;&gt;Node4</title>
<path fill="none" stroke="midnightblue" d="M96.2024,-59.7445C125.816,-48.0144 168.984,-30.9154 195.184,-20.5377"/>
<polygon fill="midnightblue" stroke="midnightblue" points="94.7315,-56.5625 86.7232,-63.4992 97.3094,-63.0705 94.7315,-56.5625"/>
</g>
<!-- Node5&#45;&gt;Node4 -->
<g id="edge12" class="edge"><title>Node5&#45;&gt;Node4</title>
<path fill="none" stroke="midnightblue" d="M264.95,-185.756C254.03,-145.226 228.556,-50.6797 220.494,-20.7549"/>
<polygon fill="midnightblue" stroke="midnightblue" points="261.581,-186.705 267.562,-195.45 268.34,-184.884 261.581,-186.705"/>
</g>
<!-- Node6 -->
<g id="node6" class="node"><title>Node6</title>
<g id="a_node6"><a xlink:href="SearchAlgorithmSelectionPolicy_8h.xhtml" target="_top" xlink:title="src/TH/SearchAlgorithmSelection\lPolicy.h">
<polygon fill="none" stroke="black" points="286,-126.5 286,-158.5 462,-158.5 462,-126.5 286,-126.5"/>
<text text-anchor="start" x="294" y="-145.7" font-family="Helvetica,sans-Serif" font-size="11.00">src/TH/SearchAlgorithmSelection</text>
<text text-anchor="middle" x="374" y="-133.7" font-family="Helvetica,sans-Serif" font-size="11.00">Policy.h</text>
</a>
</g>
</g>
<!-- Node5&#45;&gt;Node6 -->
<g id="edge6" class="edge"><title>Node5&#45;&gt;Node6</title>
<path fill="none" stroke="midnightblue" d="M294.201,-190.305C310.362,-180.826 331.598,-168.37 348.1,-158.691"/>
<polygon fill="midnightblue" stroke="midnightblue" points="292.201,-187.421 285.346,-195.499 295.742,-193.459 292.201,-187.421"/>
</g>
<!-- Node6&#45;&gt;Node4 -->
<g id="edge11" class="edge"><title>Node6&#45;&gt;Node4</title>
<path fill="none" stroke="midnightblue" d="M325.925,-122.039C308.763,-113.715 289.984,-102.911 275,-90 250.885,-69.2215 231.309,-36.3366 222.714,-20.5467"/>
<polygon fill="midnightblue" stroke="midnightblue" points="324.719,-125.339 335.26,-126.406 327.685,-118.998 324.719,-125.339"/>
</g>
<!-- Node7 -->
<g id="node7" class="node"><title>Node7</title>
<g id="a_node7"><a xlink:href="ReinforcementLearningSearchAlgorithmSelectionPolicy_8h.xhtml" target="_top" xlink:title="src/TH/ReinforcementLearning\lSearchAlgorithmSelectionPolicy.h">
<polygon fill="none" stroke="black" points="284.5,-57.5 284.5,-89.5 463.5,-89.5 463.5,-57.5 284.5,-57.5"/>
<text text-anchor="start" x="292.5" y="-76.7" font-family="Helvetica,sans-Serif" font-size="11.00">src/TH/ReinforcementLearning</text>
<text text-anchor="middle" x="374" y="-64.7" font-family="Helvetica,sans-Serif" font-size="11.00">SearchAlgorithmSelectionPolicy.h</text>
</a>
</g>
</g>
<!-- Node6&#45;&gt;Node7 -->
<g id="edge7" class="edge"><title>Node6&#45;&gt;Node7</title>
<path fill="none" stroke="midnightblue" d="M374,-116.025C374,-107.128 374,-97.4287 374,-89.6432"/>
<polygon fill="midnightblue" stroke="midnightblue" points="370.5,-116.297 374,-126.297 377.5,-116.297 370.5,-116.297"/>
</g>
<!-- Node8 -->
<g id="node8" class="node"><title>Node8</title>
<g id="a_node8"><a xlink:href="RoundRobinSearchAlgorithmSelectionPolicy_8h.xhtml" target="_top" xlink:title="src/TH/RoundRobinSearchAlgorithm\lSelectionPolicy.h">
<polygon fill="none" stroke="black" points="481.5,-57.5 481.5,-89.5 674.5,-89.5 674.5,-57.5 481.5,-57.5"/>
<text text-anchor="start" x="489.5" y="-76.7" font-family="Helvetica,sans-Serif" font-size="11.00">src/TH/RoundRobinSearchAlgorithm</text>
<text text-anchor="middle" x="578" y="-64.7" font-family="Helvetica,sans-Serif" font-size="11.00">SelectionPolicy.h</text>
</a>
</g>
</g>
<!-- Node6&#45;&gt;Node8 -->
<g id="edge8" class="edge"><title>Node6&#45;&gt;Node8</title>
<path fill="none" stroke="midnightblue" d="M429.488,-123.276C461.639,-112.717 501.636,-99.5805 532.019,-89.6017"/>
<polygon fill="midnightblue" stroke="midnightblue" points="428.19,-120.018 419.782,-126.464 430.374,-126.669 428.19,-120.018"/>
</g>
<!-- Node9 -->
<g id="node9" class="node"><title>Node9</title>
<g id="a_node9"><a xlink:href="SingleSearchAlgorithmSelectionPolicy_8h.xhtml" target="_top" xlink:title="src/TH/SingleSearchAlgorithm\lSelectionPolicy.h">
<polygon fill="none" stroke="black" points="693,-57.5 693,-89.5 855,-89.5 855,-57.5 693,-57.5"/>
<text text-anchor="start" x="701" y="-76.7" font-family="Helvetica,sans-Serif" font-size="11.00">src/TH/SingleSearchAlgorithm</text>
<text text-anchor="middle" x="774" y="-64.7" font-family="Helvetica,sans-Serif" font-size="11.00">SelectionPolicy.h</text>
</a>
</g>
</g>
<!-- Node6&#45;&gt;Node9 -->
<g id="edge10" class="edge"><title>Node6&#45;&gt;Node9</title>
<path fill="none" stroke="midnightblue" d="M472.217,-125.336C533.194,-115.263 613.171,-101.982 684,-90 686.814,-89.524 689.677,-89.0382 692.569,-88.5465"/>
<polygon fill="midnightblue" stroke="midnightblue" points="471.51,-121.905 462.214,-126.988 472.651,-128.812 471.51,-121.905"/>
</g>
<!-- Node8&#45;&gt;Node4 -->
<g id="edge9" class="edge"><title>Node8&#45;&gt;Node4</title>
<path fill="none" stroke="midnightblue" d="M479.29,-55.7742C412.144,-44.3967 325.894,-29.7821 271.263,-20.5251"/>
<polygon fill="midnightblue" stroke="midnightblue" points="479.029,-59.2797 489.473,-57.4996 480.198,-52.3781 479.029,-59.2797"/>
</g>
<!-- Node11&#45;&gt;Node4 -->
<g id="edge16" class="edge"><title>Node11&#45;&gt;Node4</title>
<path fill="none" stroke="midnightblue" d="M766.015,-131.066C824.146,-118.505 898.786,-94.3219 864,-57 824.115,-14.2064 422.108,-10.921 273.143,-11.1888"/>
<polygon fill="midnightblue" stroke="midnightblue" points="765.191,-127.663 756.116,-133.13 766.62,-134.515 765.191,-127.663"/>
</g>
</g>
</svg>
        <g id="navigator" transform="translate(0 0)" fill="#404254">
                <rect fill="#f2f5e9" fill-opacity="0.5" stroke="#606060" stroke-width=".5" x="0" y="0" width="60" height="60"/>
                <use id="zoomplus" xlink:href="#zoomPlus" x="17" y="9" onmousedown="handleZoom(evt,'in')"/>
                <use id="zoomminus" xlink:href="#zoomMin" x="42" y="9" onmousedown="handleZoom(evt,'out')"/>
                <use id="reset" xlink:href="#resetDef" x="30" y="36" onmousedown="handleReset()"/>
                <g id="arrowUp" xlink:href="#dirArrow" transform="translate(30 24)" onmousedown="handlePan(0,-1)">
                  <use xlink:href="#rim" fill="#404040">
                        <set attributeName="fill" to="#808080" begin="arrowUp.mouseover" end="arrowUp.mouseout"/>
                  </use>
                  <path fill="none" stroke="white" stroke-width="1.5" d="M0,-3.0v7 M-2.5,-0.5L0,-3.0L2.5,-0.5"/>
                </g>
                <g id="arrowRight" xlink:href="#dirArrow" transform="rotate(90) translate(36 -43)" onmousedown="handlePan(1,0)">
                  <use xlink:href="#rim" fill="#404040">
                        <set attributeName="fill" to="#808080" begin="arrowRight.mouseover" end="arrowRight.mouseout"/>
                  </use>
                  <path fill="none" stroke="white" stroke-width="1.5" d="M0,-3.0v7 M-2.5,-0.5L0,-3.0L2.5,-0.5"/>
                </g>
                <g id="arrowDown" xlink:href="#dirArrow" transform="rotate(180) translate(-30 -48)" onmousedown="handlePan(0,1)">
                  <use xlink:href="#rim" fill="#404040">
                        <set attributeName="fill" to="#808080" begin="arrowDown.mouseover" end="arrowDown.mouseout"/>
                  </use>
                  <path fill="none" stroke="white" stroke-width="1.5" d="M0,-3.0v7 M-2.5,-0.5L0,-3.0L2.5,-0.5"/>
                </g>
                <g id="arrowLeft" xlink:href="#dirArrow" transform="rotate(270) translate(-36 17)" onmousedown="handlePan(-1,0)">
                  <use xlink:href="#rim" fill="#404040">
                        <set attributeName="fill" to="#808080" begin="arrowLeft.mouseover" end="arrowLeft.mouseout"/>
                  </use>
                  <path fill="none" stroke="white" stroke-width="1.5" d="M0,-3.0v7 M-2.5,-0.5L0,-3.0L2.5,-0.5"/>
                </g>
        </g>
        <svg viewBox="0 0 15 15" width="100%" height="30px" preserveAspectRatio="xMaxYMin meet">
         <g id="arrow_out" transform="scale(0.3 0.3)">
          <a xlink:href="Search_8h__dep__incl_org.svg" target="_base">
           <rect id="button" ry="5" rx="5" y="6" x="6" height="38" width="38"
                fill="#f2f5e9" fill-opacity="0.5" stroke="#606060" stroke-width="1.0"/>
           <path id="arrow"
             d="M 11.500037,31.436501 C 11.940474,20.09759 22.043105,11.32322 32.158766,21.979434 L 37.068811,17.246167 C 37.068811,17.246167 37.088388,32 37.088388,32 L 22.160133,31.978069 C 22.160133,31.978069 26.997745,27.140456 26.997745,27.140456 C 18.528582,18.264221 13.291696,25.230495 11.500037,31.436501 z"
             style="fill:#404040;"/>
          </a>
         </g>
        </svg>
</svg>
