<?xml version="1.0" encoding="UTF-8" standalone="no"?>
<!DOCTYPE svg PUBLIC "-//W3C//DTD SVG 1.1//EN"
 "http://www.w3.org/Graphics/SVG/1.1/DTD/svg11.dtd">
<!-- Generated by graphviz version 2.38.0 (20140413.2041)
 -->
<!-- Title: src/TH/SearchScore.h Pages: 1 -->
<svg width="636pt" height="224pt"
 viewBox="0.00 0.00 635.95 224.00" xmlns="http://www.w3.org/2000/svg" xmlns:xlink="http://www.w3.org/1999/xlink">
<g id="graph0" class="graph" transform="scale(1 1) rotate(0) translate(4 220)">
<title>src/TH/SearchScore.h</title>
<!-- Node1 -->
<g id="node1" class="node"><title>Node1</title>
<polygon fill="#bfbfbf" stroke="black" points="465.5,-195.5 465.5,-215.5 589.5,-215.5 589.5,-195.5 465.5,-195.5"/>
<text text-anchor="middle" x="527.5" y="-202.7" font-family="Helvetica,sans-Serif" font-size="11.00">src/TH/SearchScore.h</text>
</g>
<!-- Node2 -->
<g id="node2" class="node"><title>Node2</title>
<g id="a_node2"><a xlink:href="SearchAlgorithmSelectionPolicy_8h.xhtml" target="_top" xlink:title="src/TH/SearchAlgorithmSelection\lPolicy.h">
<polygon fill="none" stroke="black" points="330.5,-126.5 330.5,-158.5 506.5,-158.5 506.5,-126.5 330.5,-126.5"/>
<text text-anchor="start" x="338.5" y="-145.7" font-family="Helvetica,sans-Serif" font-size="11.00">src/TH/SearchAlgorithmSelection</text>
<text text-anchor="middle" x="418.5" y="-133.7" font-family="Helvetica,sans-Serif" font-size="11.00">Policy.h</text>
</a>
</g>
</g>
<!-- Node1&#45;&gt;Node2 -->
<g id="edge1" class="edge"><title>Node1&#45;&gt;Node2</title>
<path fill="none" stroke="midnightblue" d="M502.609,-190.57C485.614,-181.059 463.102,-168.461 445.645,-158.691"/>
<polygon fill="midnightblue" stroke="midnightblue" points="500.981,-193.67 511.417,-195.499 504.4,-187.561 500.981,-193.67"/>
</g>
<!-- Node5 -->
<g id="node5" class="node"><title>Node5</title>
<g id="a_node5"><a xlink:href="THBuilder_8h.xhtml" target="_top" xlink:title="src/TH/THBuilder.h">
<polygon fill="none" stroke="black" points="363.5,-0.5 363.5,-20.5 473.5,-20.5 473.5,-0.5 363.5,-0.5"/>
<text text-anchor="middle" x="418.5" y="-7.7" font-family="Helvetica,sans-Serif" font-size="11.00">src/TH/THBuilder.h</text>
</a>
</g>
</g>
<!-- Node1&#45;&gt;Node5 -->
<g id="edge7" class="edge"><title>Node1&#45;&gt;Node5</title>
<path fill="none" stroke="midnightblue" d="M549.034,-189.341C585.742,-161.677 653.161,-101.735 617.5,-57 599.772,-34.7608 526.052,-22.5228 473.517,-16.4869"/>
<polygon fill="midnightblue" stroke="midnightblue" points="546.849,-186.604 540.867,-195.348 550.996,-192.243 546.849,-186.604"/>
</g>
<!-- Node3 -->
<g id="node3" class="node"><title>Node3</title>
<g id="a_node3"><a xlink:href="ReinforcementLearningSearchAlgorithmSelectionPolicy_8h.xhtml" target="_top" xlink:title="src/TH/ReinforcementLearning\lSearchAlgorithmSelectionPolicy.h">
<polygon fill="none" stroke="black" points="0,-57.5 0,-89.5 179,-89.5 179,-57.5 0,-57.5"/>
<text text-anchor="start" x="8" y="-76.7" font-family="Helvetica,sans-Serif" font-size="11.00">src/TH/ReinforcementLearning</text>
<text text-anchor="middle" x="89.5" y="-64.7" font-family="Helvetica,sans-Serif" font-size="11.00">SearchAlgorithmSelectionPolicy.h</text>
</a>
</g>
</g>
<!-- Node2&#45;&gt;Node3 -->
<g id="edge2" class="edge"><title>Node2&#45;&gt;Node3</title>
<path fill="none" stroke="midnightblue" d="M334.641,-124.422C281.794,-113.66 214.194,-99.8936 163.372,-89.5438"/>
<polygon fill="midnightblue" stroke="midnightblue" points="334.169,-127.898 344.666,-126.464 335.566,-121.039 334.169,-127.898"/>
</g>
<!-- Node4 -->
<g id="node4" class="node"><title>Node4</title>
<g id="a_node4"><a xlink:href="RoundRobinSearchAlgorithmSelectionPolicy_8h.xhtml" target="_top" xlink:title="src/TH/RoundRobinSearchAlgorithm\lSelectionPolicy.h">
<polygon fill="none" stroke="black" points="197,-57.5 197,-89.5 390,-89.5 390,-57.5 197,-57.5"/>
<text text-anchor="start" x="205" y="-76.7" font-family="Helvetica,sans-Serif" font-size="11.00">src/TH/RoundRobinSearchAlgorithm</text>
<text text-anchor="middle" x="293.5" y="-64.7" font-family="Helvetica,sans-Serif" font-size="11.00">SelectionPolicy.h</text>
</a>
</g>
</g>
<!-- Node2&#45;&gt;Node4 -->
<g id="edge3" class="edge"><title>Node2&#45;&gt;Node4</title>
<path fill="none" stroke="midnightblue" d="M381.439,-121.635C362.384,-111.422 339.527,-99.1702 321.891,-89.7177"/>
<polygon fill="midnightblue" stroke="midnightblue" points="379.98,-124.824 390.448,-126.464 383.287,-118.655 379.98,-124.824"/>
</g>
<!-- Node2&#45;&gt;Node5 -->
<g id="edge6" class="edge"><title>Node2&#45;&gt;Node5</title>
<path fill="none" stroke="midnightblue" d="M418.5,-116.064C418.5,-86.8286 418.5,-40.359 418.5,-20.7313"/>
<polygon fill="midnightblue" stroke="midnightblue" points="415,-116.333 418.5,-126.333 422,-116.333 415,-116.333"/>
</g>
<!-- Node6 -->
<g id="node6" class="node"><title>Node6</title>
<g id="a_node6"><a xlink:href="SingleSearchAlgorithmSelectionPolicy_8h.xhtml" target="_top" xlink:title="src/TH/SingleSearchAlgorithm\lSelectionPolicy.h">
<polygon fill="none" stroke="black" points="446.5,-57.5 446.5,-89.5 608.5,-89.5 608.5,-57.5 446.5,-57.5"/>
<text text-anchor="start" x="454.5" y="-76.7" font-family="Helvetica,sans-Serif" font-size="11.00">src/TH/SingleSearchAlgorithm</text>
<text text-anchor="middle" x="527.5" y="-64.7" font-family="Helvetica,sans-Serif" font-size="11.00">SelectionPolicy.h</text>
</a>
</g>
</g>
<!-- Node2&#45;&gt;Node6 -->
<g id="edge5" class="edge"><title>Node2&#45;&gt;Node6</title>
<path fill="none" stroke="midnightblue" d="M451.727,-121.076C468.156,-110.977 487.644,-98.9983 502.743,-89.7177"/>
<polygon fill="midnightblue" stroke="midnightblue" points="449.648,-118.245 442.962,-126.464 453.314,-124.209 449.648,-118.245"/>
</g>
<!-- Node4&#45;&gt;Node5 -->
<g id="edge4" class="edge"><title>Node4&#45;&gt;Node5</title>
<path fill="none" stroke="midnightblue" d="M333.638,-52.9127C355.911,-42.0432 382.55,-29.0437 399.963,-20.5459"/>
<polygon fill="midnightblue" stroke="midnightblue" points="331.851,-49.8902 324.399,-57.4213 334.921,-56.1811 331.851,-49.8902"/>
</g>
</g>
</svg>
