<?xml version="1.0" encoding="UTF-8" standalone="no"?>
<!DOCTYPE svg PUBLIC "-//W3C//DTD SVG 1.1//EN"
 "http://www.w3.org/Graphics/SVG/1.1/DTD/svg11.dtd">
<!-- Generated by graphviz version 2.38.0 (20140413.2041)
 -->
<!-- Title: src/TH/SearchAlgorithmSelectionPolicy.h Pages: 1 -->
<!--zoomable 167 -->
<svg id="main" version="1.1" xmlns="http://www.w3.org/2000/svg" xmlns:xlink="http://www.w3.org/1999/xlink" xml:space="preserve" onload="init(evt)">
<style type="text/css"><![CDATA[
.edge:hover path { stroke: red; }
.edge:hover polygon { stroke: red; fill: red; }
]]></style>
<script type="text/javascript"><![CDATA[
var edges = document.getElementsByTagName('g');
if (edges && edges.length) {
  for (var i=0;i<edges.length;i++) {
    if (edges[i].id.substr(0,4)=='edge') {
      edges[i].setAttribute('class','edge');
    }
  }
}
]]></script>
        <defs>
                <circle id="rim" cx="0" cy="0" r="7"/>
                <circle id="rim2" cx="0" cy="0" r="3.5"/>
                <g id="zoomPlus">
                        <use xlink:href="#rim" fill="#404040">
                                <set attributeName="fill" to="#808080" begin="zoomplus.mouseover" end="zoomplus.mouseout"/>
                        </use>
                        <path d="M-4,0h8M0,-4v8" fill="none" stroke="white" stroke-width="1.5" pointer-events="none"/>
                </g>
                <g id="zoomMin">
                        <use xlink:href="#rim" fill="#404040">
                                <set attributeName="fill" to="#808080" begin="zoomminus.mouseover" end="zoomminus.mouseout"/>
                        </use>
                        <path d="M-4,0h8" fill="none" stroke="white" stroke-width="1.5" pointer-events="none"/>
                </g>
                <g id="dirArrow">
                        <path fill="none" stroke="white" stroke-width="1.5" d="M0,-3.0v7 M-2.5,-0.5L0,-3.0L2.5,-0.5"/>
                </g>
               <g id="resetDef">
                       <use xlink:href="#rim2" fill="#404040">
                               <set attributeName="fill" to="#808080" begin="reset.mouseover" end="reset.mouseout"/>
                       </use>
               </g>
        </defs>

<script type="text/javascript">
var viewWidth = 617;
var viewHeight = 167;
var sectionId = 'dynsection-1';
</script>
<script xlink:href="svgpan.js"/>
<svg id="graph" class="graph">
<g id="viewport">
<title>src/TH/SearchAlgorithmSelectionPolicy.h</title>
<!-- Node1 -->
<g id="node1" class="node"><title>Node1</title>
<polygon fill="#bfbfbf" stroke="black" points="267.5,-126.5 267.5,-158.5 443.5,-158.5 443.5,-126.5 267.5,-126.5"/>
<text text-anchor="start" x="275.5" y="-145.7" font-family="Helvetica,sans-Serif" font-size="11.00">src/TH/SearchAlgorithmSelection</text>
<text text-anchor="middle" x="355.5" y="-133.7" font-family="Helvetica,sans-Serif" font-size="11.00">Policy.h</text>
</g>
<!-- Node2 -->
<g id="node2" class="node"><title>Node2</title>
<g id="a_node2"><a xlink:href="ReinforcementLearningSearchAlgorithmSelectionPolicy_8h.xhtml" target="_top" xlink:title="src/TH/ReinforcementLearning\lSearchAlgorithmSelectionPolicy.h">
<polygon fill="none" stroke="black" points="0,-57.5 0,-89.5 179,-89.5 179,-57.5 0,-57.5"/>
<text text-anchor="start" x="8" y="-76.7" font-family="Helvetica,sans-Serif" font-size="11.00">src/TH/ReinforcementLearning</text>
<text text-anchor="middle" x="89.5" y="-64.7" font-family="Helvetica,sans-Serif" font-size="11.00">SearchAlgorithmSelectionPolicy.h</text>
</a>
</g>
</g>
<!-- Node1&#45;&gt;Node2 -->
<g id="edge1" class="edge"><title>Node1&#45;&gt;Node2</title>
<path fill="none" stroke="midnightblue" d="M285.844,-123.955C243.479,-113.284 189.927,-99.7955 149.456,-89.6017"/>
<polygon fill="midnightblue" stroke="midnightblue" points="285.252,-127.415 295.804,-126.464 286.962,-120.627 285.252,-127.415"/>
</g>
<!-- Node3 -->
<g id="node3" class="node"><title>Node3</title>
<g id="a_node3"><a xlink:href="RoundRobinSearchAlgorithmSelectionPolicy_8h.xhtml" target="_top" xlink:title="src/TH/RoundRobinSearchAlgorithm\lSelectionPolicy.h">
<polygon fill="none" stroke="black" points="197,-57.5 197,-89.5 390,-89.5 390,-57.5 197,-57.5"/>
<text text-anchor="start" x="205" y="-76.7" font-family="Helvetica,sans-Serif" font-size="11.00">src/TH/RoundRobinSearchAlgorithm</text>
<text text-anchor="middle" x="293.5" y="-64.7" font-family="Helvetica,sans-Serif" font-size="11.00">SelectionPolicy.h</text>
</a>
</g>
</g>
<!-- Node1&#45;&gt;Node3 -->
<g id="edge2" class="edge"><title>Node1&#45;&gt;Node3</title>
<path fill="none" stroke="midnightblue" d="M334.61,-118.925C325.687,-109.283 315.509,-98.2843 307.513,-89.6432"/>
<polygon fill="midnightblue" stroke="midnightblue" points="332.07,-121.334 341.431,-126.297 337.208,-116.58 332.07,-121.334"/>
</g>
<!-- Node4 -->
<g id="node4" class="node"><title>Node4</title>
<g id="a_node4"><a xlink:href="THBuilder_8h.xhtml" target="_top" xlink:title="src/TH/THBuilder.h">
<polygon fill="none" stroke="black" points="300.5,-0.5 300.5,-20.5 410.5,-20.5 410.5,-0.5 300.5,-0.5"/>
<text text-anchor="middle" x="355.5" y="-7.7" font-family="Helvetica,sans-Serif" font-size="11.00">src/TH/THBuilder.h</text>
</a>
</g>
</g>
<!-- Node1&#45;&gt;Node4 -->
<g id="edge5" class="edge"><title>Node1&#45;&gt;Node4</title>
<path fill="none" stroke="midnightblue" d="M380.766,-118.963C388.277,-110.687 395.551,-100.702 399.5,-90 404.578,-76.2403 404.999,-70.5968 399.5,-57 393.32,-41.7193 379.276,-28.7245 368.705,-20.583"/>
<polygon fill="midnightblue" stroke="midnightblue" points="378.054,-116.732 373.592,-126.341 383.072,-121.612 378.054,-116.732"/>
</g>
<!-- Node5 -->
<g id="node5" class="node"><title>Node5</title>
<g id="a_node5"><a xlink:href="SingleSearchAlgorithmSelectionPolicy_8h.xhtml" target="_top" xlink:title="src/TH/SingleSearchAlgorithm\lSelectionPolicy.h">
<polygon fill="none" stroke="black" points="446.5,-57.5 446.5,-89.5 608.5,-89.5 608.5,-57.5 446.5,-57.5"/>
<text text-anchor="start" x="454.5" y="-76.7" font-family="Helvetica,sans-Serif" font-size="11.00">src/TH/SingleSearchAlgorithm</text>
<text text-anchor="middle" x="527.5" y="-64.7" font-family="Helvetica,sans-Serif" font-size="11.00">SelectionPolicy.h</text>
</a>
</g>
</g>
<!-- Node1&#45;&gt;Node5 -->
<g id="edge4" class="edge"><title>Node1&#45;&gt;Node5</title>
<path fill="none" stroke="midnightblue" d="M403.692,-122.727C430.552,-112.264 463.556,-99.4084 488.731,-89.6017"/>
<polygon fill="midnightblue" stroke="midnightblue" points="402.148,-119.573 394.1,-126.464 404.689,-126.095 402.148,-119.573"/>
</g>
<!-- Node3&#45;&gt;Node4 -->
<g id="edge3" class="edge"><title>Node3&#45;&gt;Node4</title>
<path fill="none" stroke="midnightblue" d="M316.11,-50.2546C326.55,-39.9831 338.363,-28.3609 346.306,-20.5459"/>
<polygon fill="midnightblue" stroke="midnightblue" points="313.5,-47.913 308.826,-57.4213 318.409,-52.9029 313.5,-47.913"/>
</g>
</g>
</svg>
        <g id="navigator" transform="translate(0 0)" fill="#404254">
                <rect fill="#f2f5e9" fill-opacity="0.5" stroke="#606060" stroke-width=".5" x="0" y="0" width="60" height="60"/>
                <use id="zoomplus" xlink:href="#zoomPlus" x="17" y="9" onmousedown="handleZoom(evt,'in')"/>
                <use id="zoomminus" xlink:href="#zoomMin" x="42" y="9" onmousedown="handleZoom(evt,'out')"/>
                <use id="reset" xlink:href="#resetDef" x="30" y="36" onmousedown="handleReset()"/>
                <g id="arrowUp" xlink:href="#dirArrow" transform="translate(30 24)" onmousedown="handlePan(0,-1)">
                  <use xlink:href="#rim" fill="#404040">
                        <set attributeName="fill" to="#808080" begin="arrowUp.mouseover" end="arrowUp.mouseout"/>
                  </use>
                  <path fill="none" stroke="white" stroke-width="1.5" d="M0,-3.0v7 M-2.5,-0.5L0,-3.0L2.5,-0.5"/>
                </g>
                <g id="arrowRight" xlink:href="#dirArrow" transform="rotate(90) translate(36 -43)" onmousedown="handlePan(1,0)">
                  <use xlink:href="#rim" fill="#404040">
                        <set attributeName="fill" to="#808080" begin="arrowRight.mouseover" end="arrowRight.mouseout"/>
                  </use>
                  <path fill="none" stroke="white" stroke-width="1.5" d="M0,-3.0v7 M-2.5,-0.5L0,-3.0L2.5,-0.5"/>
                </g>
                <g id="arrowDown" xlink:href="#dirArrow" transform="rotate(180) translate(-30 -48)" onmousedown="handlePan(0,1)">
                  <use xlink:href="#rim" fill="#404040">
                        <set attributeName="fill" to="#808080" begin="arrowDown.mouseover" end="arrowDown.mouseout"/>
                  </use>
                  <path fill="none" stroke="white" stroke-width="1.5" d="M0,-3.0v7 M-2.5,-0.5L0,-3.0L2.5,-0.5"/>
                </g>
                <g id="arrowLeft" xlink:href="#dirArrow" transform="rotate(270) translate(-36 17)" onmousedown="handlePan(-1,0)">
                  <use xlink:href="#rim" fill="#404040">
                        <set attributeName="fill" to="#808080" begin="arrowLeft.mouseover" end="arrowLeft.mouseout"/>
                  </use>
                  <path fill="none" stroke="white" stroke-width="1.5" d="M0,-3.0v7 M-2.5,-0.5L0,-3.0L2.5,-0.5"/>
                </g>
        </g>
        <svg viewBox="0 0 15 15" width="100%" height="30px" preserveAspectRatio="xMaxYMin meet">
         <g id="arrow_out" transform="scale(0.3 0.3)">
          <a xlink:href="SearchAlgorithmSelectionPolicy_8h__dep__incl_org.svg" target="_base">
           <rect id="button" ry="5" rx="5" y="6" x="6" height="38" width="38"
                fill="#f2f5e9" fill-opacity="0.5" stroke="#606060" stroke-width="1.0"/>
           <path id="arrow"
             d="M 11.500037,31.436501 C 11.940474,20.09759 22.043105,11.32322 32.158766,21.979434 L 37.068811,17.246167 C 37.068811,17.246167 37.088388,32 37.088388,32 L 22.160133,31.978069 C 22.160133,31.978069 26.997745,27.140456 26.997745,27.140456 C 18.528582,18.264221 13.291696,25.230495 11.500037,31.436501 z"
             style="fill:#404040;"/>
          </a>
         </g>
        </svg>
</svg>
