<?xml version="1.0" encoding="UTF-8" standalone="no"?>
<!DOCTYPE svg PUBLIC "-//W3C//DTD SVG 1.1//EN"
 "http://www.w3.org/Graphics/SVG/1.1/DTD/svg11.dtd">
<!-- Generated by graphviz version 2.38.0 (20140413.2041)
 -->
<!-- Title: src/TH/Search.h Pages: 1 -->
<svg width="682pt" height="281pt"
 viewBox="0.00 0.00 681.63 281.00" xmlns="http://www.w3.org/2000/svg" xmlns:xlink="http://www.w3.org/1999/xlink">
<g id="graph0" class="graph" transform="scale(1 1) rotate(0) translate(4 277)">
<title>src/TH/Search.h</title>
<!-- Node1 -->
<g id="node1" class="node"><title>Node1</title>
<polygon fill="#bfbfbf" stroke="black" points="222.5,-252.5 222.5,-272.5 317.5,-272.5 317.5,-252.5 222.5,-252.5"/>
<text text-anchor="middle" x="270" y="-259.7" font-family="Helvetica,sans-Serif" font-size="11.00">src/TH/Search.h</text>
</g>
<!-- Node2 -->
<g id="node2" class="node"><title>Node2</title>
<g id="a_node2"><a xlink:href="ConvergenceControlPolicy_8h.xhtml" target="_top" xlink:title="src/TH/ConvergenceControl\lPolicy.h">
<polygon fill="none" stroke="black" points="0,-126.5 0,-158.5 152,-158.5 152,-126.5 0,-126.5"/>
<text text-anchor="start" x="8" y="-145.7" font-family="Helvetica,sans-Serif" font-size="11.00">src/TH/ConvergenceControl</text>
<text text-anchor="middle" x="76" y="-133.7" font-family="Helvetica,sans-Serif" font-size="11.00">Policy.h</text>
</a>
</g>
</g>
<!-- Node1&#45;&gt;Node2 -->
<g id="edge1" class="edge"><title>Node1&#45;&gt;Node2</title>
<path fill="none" stroke="midnightblue" d="M234.895,-248.845C214.175,-240.723 187.82,-229.236 166,-216 138.038,-199.038 109.197,-174.284 91.9323,-158.537"/>
<polygon fill="midnightblue" stroke="midnightblue" points="233.684,-252.129 244.274,-252.443 236.192,-245.593 233.684,-252.129"/>
</g>
<!-- Node4 -->
<g id="node4" class="node"><title>Node4</title>
<g id="a_node4"><a xlink:href="THBuilder_8h.xhtml" target="_top" xlink:title="src/TH/THBuilder.h">
<polygon fill="none" stroke="black" points="163,-0.5 163,-20.5 273,-20.5 273,-0.5 163,-0.5"/>
<text text-anchor="middle" x="218" y="-7.7" font-family="Helvetica,sans-Serif" font-size="11.00">src/TH/THBuilder.h</text>
</a>
</g>
</g>
<!-- Node1&#45;&gt;Node4 -->
<g id="edge12" class="edge"><title>Node1&#45;&gt;Node4</title>
<path fill="none" stroke="midnightblue" d="M234.787,-247.869C221.052,-240.612 206.762,-230.194 199,-216 162.388,-149.053 200.264,-51.13 213.677,-20.8012"/>
<polygon fill="midnightblue" stroke="midnightblue" points="233.596,-251.181 244.121,-252.395 236.651,-244.882 233.596,-251.181"/>
</g>
<!-- Node5 -->
<g id="node5" class="node"><title>Node5</title>
<g id="a_node5"><a xlink:href="SearchScore_8h.xhtml" target="_top" xlink:title="src/TH/SearchScore.h">
<polygon fill="none" stroke="black" points="208,-195.5 208,-215.5 332,-215.5 332,-195.5 208,-195.5"/>
<text text-anchor="middle" x="270" y="-202.7" font-family="Helvetica,sans-Serif" font-size="11.00">src/TH/SearchScore.h</text>
</a>
</g>
</g>
<!-- Node1&#45;&gt;Node5 -->
<g id="edge5" class="edge"><title>Node1&#45;&gt;Node5</title>
<path fill="none" stroke="midnightblue" d="M270,-242.383C270,-233.374 270,-223.037 270,-215.779"/>
<polygon fill="midnightblue" stroke="midnightblue" points="266.5,-242.418 270,-252.418 273.5,-242.418 266.5,-242.418"/>
</g>
<!-- Node9 -->
<g id="node9" class="node"><title>Node9</title>
<g id="a_node9"><a xlink:href="PSO_8h.xhtml" target="_top" xlink:title="src/PSO.h">
<polygon fill="none" stroke="black" points="350,-195.5 350,-215.5 416,-215.5 416,-195.5 350,-195.5"/>
<text text-anchor="middle" x="383" y="-202.7" font-family="Helvetica,sans-Serif" font-size="11.00">src/PSO.h</text>
</a>
</g>
</g>
<!-- Node1&#45;&gt;Node9 -->
<g id="edge13" class="edge"><title>Node1&#45;&gt;Node9</title>
<path fill="none" stroke="midnightblue" d="M297.901,-247.92C318.59,-237.85 346.228,-224.398 364.313,-215.596"/>
<polygon fill="midnightblue" stroke="midnightblue" points="296.119,-244.894 288.66,-252.418 299.183,-251.188 296.119,-244.894"/>
</g>
<!-- Node10 -->
<g id="node10" class="node"><title>Node10</title>
<g id="a_node10"><a xlink:href="HillClimbing_8h.xhtml" target="_top" xlink:title="src/HillClimbing.h">
<polygon fill="none" stroke="black" points="549,-132.5 549,-152.5 649,-152.5 649,-132.5 549,-132.5"/>
<text text-anchor="middle" x="599" y="-139.7" font-family="Helvetica,sans-Serif" font-size="11.00">src/HillClimbing.h</text>
</a>
</g>
</g>
<!-- Node1&#45;&gt;Node10 -->
<g id="edge14" class="edge"><title>Node1&#45;&gt;Node10</title>
<path fill="none" stroke="midnightblue" d="M314.532,-249.818C345.737,-241.296 388.261,-229.002 425,-216 481.919,-195.855 547.173,-167.09 579.183,-152.593"/>
<polygon fill="midnightblue" stroke="midnightblue" points="313.558,-246.456 304.821,-252.449 315.388,-253.213 313.558,-246.456"/>
</g>
<!-- Node3 -->
<g id="node3" class="node"><title>Node3</title>
<g id="a_node3"><a xlink:href="CSMOn_8h.xhtml" target="_top" xlink:title="src/TH/CSMOn.h">
<polygon fill="none" stroke="black" points="14,-63.5 14,-83.5 114,-83.5 114,-63.5 14,-63.5"/>
<text text-anchor="middle" x="64" y="-70.7" font-family="Helvetica,sans-Serif" font-size="11.00">src/TH/CSMOn.h</text>
</a>
</g>
</g>
<!-- Node2&#45;&gt;Node3 -->
<g id="edge2" class="edge"><title>Node2&#45;&gt;Node3</title>
<path fill="none" stroke="midnightblue" d="M71.4942,-116.343C69.4443,-104.897 67.1459,-92.0643 65.6414,-83.6646"/>
<polygon fill="midnightblue" stroke="midnightblue" points="68.0688,-117.07 73.277,-126.297 74.9591,-115.836 68.0688,-117.07"/>
</g>
<!-- Node2&#45;&gt;Node4 -->
<g id="edge4" class="edge"><title>Node2&#45;&gt;Node4</title>
<path fill="none" stroke="midnightblue" d="M99.4935,-119.016C117.532,-101.857 143.141,-77.7206 166,-57 180.043,-44.271 196.559,-29.9225 207.147,-20.8023"/>
<polygon fill="midnightblue" stroke="midnightblue" points="96.5999,-116.939 91.7755,-126.371 101.429,-122.006 96.5999,-116.939"/>
</g>
<!-- Node3&#45;&gt;Node4 -->
<g id="edge3" class="edge"><title>Node3&#45;&gt;Node4</title>
<path fill="none" stroke="midnightblue" d="M96.2024,-59.7445C125.816,-48.0144 168.984,-30.9154 195.184,-20.5377"/>
<polygon fill="midnightblue" stroke="midnightblue" points="94.7315,-56.5625 86.7232,-63.4992 97.3094,-63.0705 94.7315,-56.5625"/>
</g>
<!-- Node5&#45;&gt;Node4 -->
<g id="edge11" class="edge"><title>Node5&#45;&gt;Node4</title>
<path fill="none" stroke="midnightblue" d="M264.95,-185.756C254.03,-145.226 228.556,-50.6797 220.494,-20.7549"/>
<polygon fill="midnightblue" stroke="midnightblue" points="261.581,-186.705 267.562,-195.45 268.34,-184.884 261.581,-186.705"/>
</g>
<!-- Node6 -->
<g id="node6" class="node"><title>Node6</title>
<g id="a_node6"><a xlink:href="SearchAlgorithmSelectionPolicy_8h.xhtml" target="_top" xlink:title="src/TH/SearchAlgorithmSelection\lPolicy.h">
<polygon fill="none" stroke="black" points="269,-126.5 269,-158.5 445,-158.5 445,-126.5 269,-126.5"/>
<text text-anchor="start" x="277" y="-145.7" font-family="Helvetica,sans-Serif" font-size="11.00">src/TH/SearchAlgorithmSelection</text>
<text text-anchor="middle" x="357" y="-133.7" font-family="Helvetica,sans-Serif" font-size="11.00">Policy.h</text>
</a>
</g>
</g>
<!-- Node5&#45;&gt;Node6 -->
<g id="edge6" class="edge"><title>Node5&#45;&gt;Node6</title>
<path fill="none" stroke="midnightblue" d="M291.392,-189.501C304.758,-180.13 321.916,-168.099 335.334,-158.691"/>
<polygon fill="midnightblue" stroke="midnightblue" points="289.016,-186.892 282.837,-195.499 293.034,-192.624 289.016,-186.892"/>
</g>
<!-- Node6&#45;&gt;Node4 -->
<g id="edge10" class="edge"><title>Node6&#45;&gt;Node4</title>
<path fill="none" stroke="midnightblue" d="M318.254,-121.305C303.804,-112.749 287.813,-101.979 275,-90 251.87,-68.3759 231.972,-36.1766 223.033,-20.5965"/>
<polygon fill="midnightblue" stroke="midnightblue" points="316.595,-124.389 327.009,-126.338 320.083,-118.32 316.595,-124.389"/>
</g>
<!-- Node7 -->
<g id="node7" class="node"><title>Node7</title>
<g id="a_node7"><a xlink:href="RoundRobinSearchAlgorithmSelectionPolicy_8h.xhtml" target="_top" xlink:title="src/TH/RoundRobinSearchAlgorithm\lSelectionPolicy.h">
<polygon fill="none" stroke="black" points="284.5,-57.5 284.5,-89.5 477.5,-89.5 477.5,-57.5 284.5,-57.5"/>
<text text-anchor="start" x="292.5" y="-76.7" font-family="Helvetica,sans-Serif" font-size="11.00">src/TH/RoundRobinSearchAlgorithm</text>
<text text-anchor="middle" x="381" y="-64.7" font-family="Helvetica,sans-Serif" font-size="11.00">SelectionPolicy.h</text>
</a>
</g>
</g>
<!-- Node6&#45;&gt;Node7 -->
<g id="edge7" class="edge"><title>Node6&#45;&gt;Node7</title>
<path fill="none" stroke="midnightblue" d="M365.916,-116.61C369.159,-107.555 372.725,-97.5998 375.576,-89.6432"/>
<polygon fill="midnightblue" stroke="midnightblue" points="362.523,-115.702 362.446,-126.297 369.113,-118.063 362.523,-115.702"/>
</g>
<!-- Node8 -->
<g id="node8" class="node"><title>Node8</title>
<g id="a_node8"><a xlink:href="SingleSearchAlgorithmSelectionPolicy_8h.xhtml" target="_top" xlink:title="src/TH/SingleSearchAlgorithm\lSelectionPolicy.h">
<polygon fill="none" stroke="black" points="496,-57.5 496,-89.5 658,-89.5 658,-57.5 496,-57.5"/>
<text text-anchor="start" x="504" y="-76.7" font-family="Helvetica,sans-Serif" font-size="11.00">src/TH/SingleSearchAlgorithm</text>
<text text-anchor="middle" x="577" y="-64.7" font-family="Helvetica,sans-Serif" font-size="11.00">SelectionPolicy.h</text>
</a>
</g>
</g>
<!-- Node6&#45;&gt;Node8 -->
<g id="edge9" class="edge"><title>Node6&#45;&gt;Node8</title>
<path fill="none" stroke="midnightblue" d="M415.945,-123.548C450.768,-112.943 494.364,-99.6665 527.412,-89.6017"/>
<polygon fill="midnightblue" stroke="midnightblue" points="414.919,-120.202 406.372,-126.464 416.958,-126.899 414.919,-120.202"/>
</g>
<!-- Node7&#45;&gt;Node4 -->
<g id="edge8" class="edge"><title>Node7&#45;&gt;Node4</title>
<path fill="none" stroke="midnightblue" d="M330.982,-53.7814C301.485,-42.7428 265.487,-29.2714 242.172,-20.5459"/>
<polygon fill="midnightblue" stroke="midnightblue" points="330.115,-57.1943 340.708,-57.4213 332.569,-50.6384 330.115,-57.1943"/>
</g>
<!-- Node10&#45;&gt;Node4 -->
<g id="edge15" class="edge"><title>Node10&#45;&gt;Node4</title>
<path fill="none" stroke="midnightblue" d="M624.661,-127.007C651.909,-109.84 688.326,-80.5965 667,-57 641.028,-28.263 387.264,-16.7727 273.127,-13.0316"/>
<polygon fill="midnightblue" stroke="midnightblue" points="622.604,-124.162 615.869,-132.341 626.234,-130.147 622.604,-124.162"/>
</g>
</g>
</svg>
