<?xml version="1.0" encoding="UTF-8" standalone="no"?>
<!DOCTYPE svg PUBLIC "-//W3C//DTD SVG 1.1//EN"
 "http://www.w3.org/Graphics/SVG/1.1/DTD/svg11.dtd">
<!-- Generated by graphviz version 2.38.0 (20140413.2041)
 -->
<!-- Title: src/TH/SearchAlgorithmSelectionPolicy.h Pages: 1 -->
<svg width="420pt" height="167pt"
 viewBox="0.00 0.00 419.50 167.00" xmlns="http://www.w3.org/2000/svg" xmlns:xlink="http://www.w3.org/1999/xlink">
<g id="graph0" class="graph" transform="scale(1 1) rotate(0) translate(4 163)">
<title>src/TH/SearchAlgorithmSelectionPolicy.h</title>
<!-- Node1 -->
<g id="node1" class="node"><title>Node1</title>
<polygon fill="#bfbfbf" stroke="black" points="133.5,-126.5 133.5,-158.5 309.5,-158.5 309.5,-126.5 133.5,-126.5"/>
<text text-anchor="start" x="141.5" y="-145.7" font-family="Helvetica,sans-Serif" font-size="11.00">src/TH/SearchAlgorithmSelection</text>
<text text-anchor="middle" x="221.5" y="-133.7" font-family="Helvetica,sans-Serif" font-size="11.00">Policy.h</text>
</g>
<!-- Node2 -->
<g id="node2" class="node"><title>Node2</title>
<g id="a_node2"><a xlink:href="RoundRobinSearchAlgorithmSelectionPolicy_8h.xhtml" target="_top" xlink:title="src/TH/RoundRobinSearchAlgorithm\lSelectionPolicy.h">
<polygon fill="none" stroke="black" points="0,-57.5 0,-89.5 193,-89.5 193,-57.5 0,-57.5"/>
<text text-anchor="start" x="8" y="-76.7" font-family="Helvetica,sans-Serif" font-size="11.00">src/TH/RoundRobinSearchAlgorithm</text>
<text text-anchor="middle" x="96.5" y="-64.7" font-family="Helvetica,sans-Serif" font-size="11.00">SelectionPolicy.h</text>
</a>
</g>
</g>
<!-- Node1&#45;&gt;Node2 -->
<g id="edge1" class="edge"><title>Node1&#45;&gt;Node2</title>
<path fill="none" stroke="midnightblue" d="M184.439,-121.635C165.384,-111.422 142.527,-99.1702 124.891,-89.7177"/>
<polygon fill="midnightblue" stroke="midnightblue" points="182.98,-124.824 193.448,-126.464 186.287,-118.655 182.98,-124.824"/>
</g>
<!-- Node3 -->
<g id="node3" class="node"><title>Node3</title>
<g id="a_node3"><a xlink:href="THBuilder_8h.xhtml" target="_top" xlink:title="src/TH/THBuilder.h">
<polygon fill="none" stroke="black" points="103.5,-0.5 103.5,-20.5 213.5,-20.5 213.5,-0.5 103.5,-0.5"/>
<text text-anchor="middle" x="158.5" y="-7.7" font-family="Helvetica,sans-Serif" font-size="11.00">src/TH/THBuilder.h</text>
</a>
</g>
</g>
<!-- Node1&#45;&gt;Node3 -->
<g id="edge4" class="edge"><title>Node1&#45;&gt;Node3</title>
<path fill="none" stroke="midnightblue" d="M219.448,-116.256C217.184,-98.766 212.436,-75.4094 202.5,-57 194.567,-42.3013 180.543,-29.0168 170.457,-20.649"/>
<polygon fill="midnightblue" stroke="midnightblue" points="215.98,-116.737 220.561,-126.29 222.937,-115.965 215.98,-116.737"/>
</g>
<!-- Node4 -->
<g id="node4" class="node"><title>Node4</title>
<g id="a_node4"><a xlink:href="SingleSearchAlgorithmSelectionPolicy_8h.xhtml" target="_top" xlink:title="src/TH/SingleSearchAlgorithm\lSelectionPolicy.h">
<polygon fill="none" stroke="black" points="249.5,-57.5 249.5,-89.5 411.5,-89.5 411.5,-57.5 249.5,-57.5"/>
<text text-anchor="start" x="257.5" y="-76.7" font-family="Helvetica,sans-Serif" font-size="11.00">src/TH/SingleSearchAlgorithm</text>
<text text-anchor="middle" x="330.5" y="-64.7" font-family="Helvetica,sans-Serif" font-size="11.00">SelectionPolicy.h</text>
</a>
</g>
</g>
<!-- Node1&#45;&gt;Node4 -->
<g id="edge3" class="edge"><title>Node1&#45;&gt;Node4</title>
<path fill="none" stroke="midnightblue" d="M254.727,-121.076C271.156,-110.977 290.644,-98.9983 305.743,-89.7177"/>
<polygon fill="midnightblue" stroke="midnightblue" points="252.648,-118.245 245.962,-126.464 256.314,-124.209 252.648,-118.245"/>
</g>
<!-- Node2&#45;&gt;Node3 -->
<g id="edge2" class="edge"><title>Node2&#45;&gt;Node3</title>
<path fill="none" stroke="midnightblue" d="M119.11,-50.2546C129.55,-39.9831 141.363,-28.3609 149.306,-20.5459"/>
<polygon fill="midnightblue" stroke="midnightblue" points="116.5,-47.913 111.826,-57.4213 121.409,-52.9029 116.5,-47.913"/>
</g>
</g>
</svg>
