<?xml version="1.0" encoding="UTF-8" standalone="no"?>
<!DOCTYPE svg PUBLIC "-//W3C//DTD SVG 1.1//EN"
 "http://www.w3.org/Graphics/SVG/1.1/DTD/svg11.dtd">
<!-- Generated by graphviz version 2.38.0 (20140413.2041)
 -->
<!-- Title: src/TH/SearchSpace.h Pages: 1 -->
<!--zoomable 338 -->
<svg id="main" version="1.1" xmlns="http://www.w3.org/2000/svg" xmlns:xlink="http://www.w3.org/1999/xlink" xml:space="preserve" onload="init(evt)">
<style type="text/css"><![CDATA[
.edge:hover path { stroke: red; }
.edge:hover polygon { stroke: red; fill: red; }
]]></style>
<script type="text/javascript"><![CDATA[
var edges = document.getElementsByTagName('g');
if (edges && edges.length) {
  for (var i=0;i<edges.length;i++) {
    if (edges[i].id.substr(0,4)=='edge') {
      edges[i].setAttribute('class','edge');
    }
  }
}
]]></script>
        <defs>
                <circle id="rim" cx="0" cy="0" r="7"/>
                <circle id="rim2" cx="0" cy="0" r="3.5"/>
                <g id="zoomPlus">
                        <use xlink:href="#rim" fill="#404040">
                                <set attributeName="fill" to="#808080" begin="zoomplus.mouseover" end="zoomplus.mouseout"/>
                        </use>
                        <path d="M-4,0h8M0,-4v8" fill="none" stroke="white" stroke-width="1.5" pointer-events="none"/>
                </g>
                <g id="zoomMin">
                        <use xlink:href="#rim" fill="#404040">
                                <set attributeName="fill" to="#808080" begin="zoomminus.mouseover" end="zoomminus.mouseout"/>
                        </use>
                        <path d="M-4,0h8" fill="none" stroke="white" stroke-width="1.5" pointer-events="none"/>
                </g>
                <g id="dirArrow">
                        <path fill="none" stroke="white" stroke-width="1.5" d="M0,-3.0v7 M-2.5,-0.5L0,-3.0L2.5,-0.5"/>
                </g>
               <g id="resetDef">
                       <use xlink:href="#rim2" fill="#404040">
                               <set attributeName="fill" to="#808080" begin="reset.mouseover" end="reset.mouseout"/>
                       </use>
               </g>
        </defs>

<script type="text/javascript">
var viewWidth = 1157;
var viewHeight = 338;
var sectionId = 'dynsection-1';
</script>
<script xlink:href="svgpan.js"/>
<svg id="graph" class="graph">
<g id="viewport">
<title>src/TH/SearchSpace.h</title>
<!-- Node1 -->
<g id="node1" class="node"><title>Node1</title>
<polygon fill="#bfbfbf" stroke="black" points="858,-309.5 858,-329.5 984,-329.5 984,-309.5 858,-309.5"/>
<text text-anchor="middle" x="921" y="-316.7" font-family="Helvetica,sans-Serif" font-size="11.00">src/TH/SearchSpace.h</text>
</g>
<!-- Node2 -->
<g id="node2" class="node"><title>Node2</title>
<g id="a_node2"><a xlink:href="Search_8h.xhtml" target="_top" xlink:title="src/TH/Search.h">
<polygon fill="none" stroke="black" points="331.5,-252.5 331.5,-272.5 426.5,-272.5 426.5,-252.5 331.5,-252.5"/>
<text text-anchor="middle" x="379" y="-259.7" font-family="Helvetica,sans-Serif" font-size="11.00">src/TH/Search.h</text>
</a>
</g>
</g>
<!-- Node1&#45;&gt;Node2 -->
<g id="edge1" class="edge"><title>Node1&#45;&gt;Node2</title>
<path fill="none" stroke="midnightblue" d="M847.492,-311.041C734.614,-299.586 521.711,-277.982 426.781,-268.349"/>
<polygon fill="midnightblue" stroke="midnightblue" points="847.463,-314.556 857.765,-312.083 848.169,-307.591 847.463,-314.556"/>
</g>
<!-- Node5 -->
<g id="node5" class="node"><title>Node5</title>
<g id="a_node5"><a xlink:href="THBuilder_8h.xhtml" target="_top" xlink:title="src/TH/THBuilder.h">
<polygon fill="none" stroke="black" points="362,-0.5 362,-20.5 472,-20.5 472,-0.5 362,-0.5"/>
<text text-anchor="middle" x="417" y="-7.7" font-family="Helvetica,sans-Serif" font-size="11.00">src/TH/THBuilder.h</text>
</a>
</g>
</g>
<!-- Node1&#45;&gt;Node5 -->
<g id="edge22" class="edge"><title>Node1&#45;&gt;Node5</title>
<path fill="none" stroke="midnightblue" d="M921,-299.379C921,-277.083 921,-239.12 921,-206.5 921,-206.5 921,-206.5 921,-141.5 921,-100.678 917.925,-81.1318 885,-57 852.326,-33.0523 588.946,-18.8862 472.28,-13.7307"/>
<polygon fill="midnightblue" stroke="midnightblue" points="917.5,-299.499 921,-309.499 924.5,-299.499 917.5,-299.499"/>
</g>
<!-- Node13 -->
<g id="node13" class="node"><title>Node13</title>
<g id="a_node13"><a xlink:href="RegionSelectionPolicy_8h.xhtml" target="_top" xlink:title="src/TH/RegionSelectionPolicy.h">
<polygon fill="none" stroke="black" points="949,-132.5 949,-152.5 1117,-152.5 1117,-132.5 949,-132.5"/>
<text text-anchor="middle" x="1033" y="-139.7" font-family="Helvetica,sans-Serif" font-size="11.00">src/TH/RegionSelectionPolicy.h</text>
</a>
</g>
</g>
<!-- Node1&#45;&gt;Node13 -->
<g id="edge18" class="edge"><title>Node1&#45;&gt;Node13</title>
<path fill="none" stroke="midnightblue" d="M932.63,-300.329C956.36,-263.25 1009.6,-180.056 1027.22,-152.533"/>
<polygon fill="midnightblue" stroke="midnightblue" points="929.464,-298.782 927.022,-309.091 935.36,-302.555 929.464,-298.782"/>
</g>
<!-- Node3 -->
<g id="node3" class="node"><title>Node3</title>
<g id="a_node3"><a xlink:href="ConvergenceControlPolicy_8h.xhtml" target="_top" xlink:title="src/TH/ConvergenceControl\lPolicy.h">
<polygon fill="none" stroke="black" points="0,-126.5 0,-158.5 152,-158.5 152,-126.5 0,-126.5"/>
<text text-anchor="start" x="8" y="-145.7" font-family="Helvetica,sans-Serif" font-size="11.00">src/TH/ConvergenceControl</text>
<text text-anchor="middle" x="76" y="-133.7" font-family="Helvetica,sans-Serif" font-size="11.00">Policy.h</text>
</a>
</g>
</g>
<!-- Node2&#45;&gt;Node3 -->
<g id="edge2" class="edge"><title>Node2&#45;&gt;Node3</title>
<path fill="none" stroke="midnightblue" d="M321.264,-256.516C277.032,-250.99 215.413,-239.522 166,-216 135.927,-201.684 107.013,-175.45 90.3989,-158.774"/>
<polygon fill="midnightblue" stroke="midnightblue" points="320.927,-260.001 331.269,-257.702 321.751,-253.049 320.927,-260.001"/>
</g>
<!-- Node2&#45;&gt;Node5 -->
<g id="edge14" class="edge"><title>Node2&#45;&gt;Node5</title>
<path fill="none" stroke="midnightblue" d="M321.354,-255.656C295.505,-249.858 267.237,-238.432 251,-216 209.558,-158.745 205.007,-113.099 248,-57 261.908,-38.8519 317.873,-26.3165 361.637,-19.0667"/>
<polygon fill="midnightblue" stroke="midnightblue" points="320.994,-259.153 331.485,-257.68 322.365,-252.289 320.994,-259.153"/>
</g>
<!-- Node6 -->
<g id="node6" class="node"><title>Node6</title>
<g id="a_node6"><a xlink:href="SearchScore_8h.xhtml" target="_top" xlink:title="src/TH/SearchScore.h">
<polygon fill="none" stroke="black" points="260,-195.5 260,-215.5 384,-215.5 384,-195.5 260,-195.5"/>
<text text-anchor="middle" x="322" y="-202.7" font-family="Helvetica,sans-Serif" font-size="11.00">src/TH/SearchScore.h</text>
</a>
</g>
</g>
<!-- Node2&#45;&gt;Node6 -->
<g id="edge6" class="edge"><title>Node2&#45;&gt;Node6</title>
<path fill="none" stroke="midnightblue" d="M362.21,-245.299C352.244,-235.683 339.965,-223.835 331.617,-215.779"/>
<polygon fill="midnightblue" stroke="midnightblue" points="359.961,-247.993 369.588,-252.418 364.822,-242.955 359.961,-247.993"/>
</g>
<!-- Node11 -->
<g id="node11" class="node"><title>Node11</title>
<g id="a_node11"><a xlink:href="PSO_8h.xhtml" target="_top" xlink:title="src/PSO.h">
<polygon fill="none" stroke="black" points="402,-195.5 402,-215.5 468,-215.5 468,-195.5 402,-195.5"/>
<text text-anchor="middle" x="435" y="-202.7" font-family="Helvetica,sans-Serif" font-size="11.00">src/PSO.h</text>
</a>
</g>
</g>
<!-- Node2&#45;&gt;Node11 -->
<g id="edge15" class="edge"><title>Node2&#45;&gt;Node11</title>
<path fill="none" stroke="midnightblue" d="M395.495,-245.299C405.287,-235.683 417.35,-223.835 425.552,-215.779"/>
<polygon fill="midnightblue" stroke="midnightblue" points="392.929,-242.914 388.247,-252.418 397.834,-247.908 392.929,-242.914"/>
</g>
<!-- Node12 -->
<g id="node12" class="node"><title>Node12</title>
<g id="a_node12"><a xlink:href="HillClimbing_8h.xhtml" target="_top" xlink:title="src/HillClimbing.h">
<polygon fill="none" stroke="black" points="640,-195.5 640,-215.5 740,-215.5 740,-195.5 640,-195.5"/>
<text text-anchor="middle" x="690" y="-202.7" font-family="Helvetica,sans-Serif" font-size="11.00">src/HillClimbing.h</text>
</a>
</g>
</g>
<!-- Node2&#45;&gt;Node12 -->
<g id="edge16" class="edge"><title>Node2&#45;&gt;Node12</title>
<path fill="none" stroke="midnightblue" d="M436.737,-251.289C495.098,-240.968 584.369,-225.181 639.855,-215.368"/>
<polygon fill="midnightblue" stroke="midnightblue" points="435.81,-247.899 426.573,-253.087 437.029,-254.792 435.81,-247.899"/>
</g>
<!-- Node4 -->
<g id="node4" class="node"><title>Node4</title>
<g id="a_node4"><a xlink:href="CSMOn_8h.xhtml" target="_top" xlink:title="src/TH/CSMOn.h">
<polygon fill="none" stroke="black" points="14,-63.5 14,-83.5 114,-83.5 114,-63.5 14,-63.5"/>
<text text-anchor="middle" x="64" y="-70.7" font-family="Helvetica,sans-Serif" font-size="11.00">src/TH/CSMOn.h</text>
</a>
</g>
</g>
<!-- Node3&#45;&gt;Node4 -->
<g id="edge3" class="edge"><title>Node3&#45;&gt;Node4</title>
<path fill="none" stroke="midnightblue" d="M71.4942,-116.343C69.4443,-104.897 67.1459,-92.0643 65.6414,-83.6646"/>
<polygon fill="midnightblue" stroke="midnightblue" points="68.0688,-117.07 73.277,-126.297 74.9591,-115.836 68.0688,-117.07"/>
</g>
<!-- Node3&#45;&gt;Node5 -->
<g id="edge5" class="edge"><title>Node3&#45;&gt;Node5</title>
<path fill="none" stroke="midnightblue" d="M97.2563,-118.81C118.609,-96.5382 150.504,-64.8054 166,-57 228.295,-25.6216 308.945,-15.631 361.785,-12.5883"/>
<polygon fill="midnightblue" stroke="midnightblue" points="94.5455,-116.581 90.1875,-126.238 99.6166,-121.407 94.5455,-116.581"/>
</g>
<!-- Node4&#45;&gt;Node5 -->
<g id="edge4" class="edge"><title>Node4&#45;&gt;Node5</title>
<path fill="none" stroke="midnightblue" d="M108.96,-61.1237C115.333,-59.6534 121.82,-58.2328 128,-57 208.942,-40.8546 303.572,-26.8731 361.898,-18.8138"/>
<polygon fill="midnightblue" stroke="midnightblue" points="108.023,-57.7486 99.0963,-63.4553 109.633,-64.5608 108.023,-57.7486"/>
</g>
<!-- Node6&#45;&gt;Node5 -->
<g id="edge13" class="edge"><title>Node6&#45;&gt;Node5</title>
<path fill="none" stroke="midnightblue" d="M301.376,-188.599C292.504,-180.663 282.847,-170.341 277,-159 256.082,-118.429 237.741,-93.6132 265,-57 287.125,-27.2824 327.959,-16.2319 361.735,-12.4366"/>
<polygon fill="midnightblue" stroke="midnightblue" points="299.272,-191.402 309.172,-195.176 303.786,-186.052 299.272,-191.402"/>
</g>
<!-- Node7 -->
<g id="node7" class="node"><title>Node7</title>
<g id="a_node7"><a xlink:href="SearchAlgorithmSelectionPolicy_8h.xhtml" target="_top" xlink:title="src/TH/SearchAlgorithmSelection\lPolicy.h">
<polygon fill="none" stroke="black" points="286,-126.5 286,-158.5 462,-158.5 462,-126.5 286,-126.5"/>
<text text-anchor="start" x="294" y="-145.7" font-family="Helvetica,sans-Serif" font-size="11.00">src/TH/SearchAlgorithmSelection</text>
<text text-anchor="middle" x="374" y="-133.7" font-family="Helvetica,sans-Serif" font-size="11.00">Policy.h</text>
</a>
</g>
</g>
<!-- Node6&#45;&gt;Node7 -->
<g id="edge7" class="edge"><title>Node6&#45;&gt;Node7</title>
<path fill="none" stroke="midnightblue" d="M336.19,-187.854C343.951,-178.75 353.493,-167.556 361.05,-158.691"/>
<polygon fill="midnightblue" stroke="midnightblue" points="333.497,-185.618 329.673,-195.499 338.824,-190.16 333.497,-185.618"/>
</g>
<!-- Node7&#45;&gt;Node5 -->
<g id="edge12" class="edge"><title>Node7&#45;&gt;Node5</title>
<path fill="none" stroke="midnightblue" d="M311.873,-122.074C297.292,-114.455 283.533,-104.058 275,-90 267.39,-77.4624 266.355,-68.848 275,-57 294.76,-29.9185 330.866,-18.5927 361.723,-14.0123"/>
<polygon fill="midnightblue" stroke="midnightblue" points="310.488,-125.292 321.018,-126.467 313.519,-118.982 310.488,-125.292"/>
</g>
<!-- Node8 -->
<g id="node8" class="node"><title>Node8</title>
<g id="a_node8"><a xlink:href="ReinforcementLearningSearchAlgorithmSelectionPolicy_8h.xhtml" target="_top" xlink:title="src/TH/ReinforcementLearning\lSearchAlgorithmSelectionPolicy.h">
<polygon fill="none" stroke="black" points="284.5,-57.5 284.5,-89.5 463.5,-89.5 463.5,-57.5 284.5,-57.5"/>
<text text-anchor="start" x="292.5" y="-76.7" font-family="Helvetica,sans-Serif" font-size="11.00">src/TH/ReinforcementLearning</text>
<text text-anchor="middle" x="374" y="-64.7" font-family="Helvetica,sans-Serif" font-size="11.00">SearchAlgorithmSelectionPolicy.h</text>
</a>
</g>
</g>
<!-- Node7&#45;&gt;Node8 -->
<g id="edge8" class="edge"><title>Node7&#45;&gt;Node8</title>
<path fill="none" stroke="midnightblue" d="M374,-116.025C374,-107.128 374,-97.4287 374,-89.6432"/>
<polygon fill="midnightblue" stroke="midnightblue" points="370.5,-116.297 374,-126.297 377.5,-116.297 370.5,-116.297"/>
</g>
<!-- Node9 -->
<g id="node9" class="node"><title>Node9</title>
<g id="a_node9"><a xlink:href="RoundRobinSearchAlgorithmSelectionPolicy_8h.xhtml" target="_top" xlink:title="src/TH/RoundRobinSearchAlgorithm\lSelectionPolicy.h">
<polygon fill="none" stroke="black" points="481.5,-57.5 481.5,-89.5 674.5,-89.5 674.5,-57.5 481.5,-57.5"/>
<text text-anchor="start" x="489.5" y="-76.7" font-family="Helvetica,sans-Serif" font-size="11.00">src/TH/RoundRobinSearchAlgorithm</text>
<text text-anchor="middle" x="578" y="-64.7" font-family="Helvetica,sans-Serif" font-size="11.00">SelectionPolicy.h</text>
</a>
</g>
</g>
<!-- Node7&#45;&gt;Node9 -->
<g id="edge9" class="edge"><title>Node7&#45;&gt;Node9</title>
<path fill="none" stroke="midnightblue" d="M429.488,-123.276C461.639,-112.717 501.636,-99.5805 532.019,-89.6017"/>
<polygon fill="midnightblue" stroke="midnightblue" points="428.19,-120.018 419.782,-126.464 430.374,-126.669 428.19,-120.018"/>
</g>
<!-- Node10 -->
<g id="node10" class="node"><title>Node10</title>
<g id="a_node10"><a xlink:href="SingleSearchAlgorithmSelectionPolicy_8h.xhtml" target="_top" xlink:title="src/TH/SingleSearchAlgorithm\lSelectionPolicy.h">
<polygon fill="none" stroke="black" points="693,-57.5 693,-89.5 855,-89.5 855,-57.5 693,-57.5"/>
<text text-anchor="start" x="701" y="-76.7" font-family="Helvetica,sans-Serif" font-size="11.00">src/TH/SingleSearchAlgorithm</text>
<text text-anchor="middle" x="774" y="-64.7" font-family="Helvetica,sans-Serif" font-size="11.00">SelectionPolicy.h</text>
</a>
</g>
</g>
<!-- Node7&#45;&gt;Node10 -->
<g id="edge11" class="edge"><title>Node7&#45;&gt;Node10</title>
<path fill="none" stroke="midnightblue" d="M472.218,-125.222C532.954,-115.133 612.513,-101.877 683,-90 686.161,-89.4674 689.383,-88.9235 692.638,-88.3732"/>
<polygon fill="midnightblue" stroke="midnightblue" points="471.546,-121.786 462.254,-126.877 472.693,-128.691 471.546,-121.786"/>
</g>
<!-- Node9&#45;&gt;Node5 -->
<g id="edge10" class="edge"><title>Node9&#45;&gt;Node5</title>
<path fill="none" stroke="midnightblue" d="M528.595,-53.7814C499.461,-42.7428 463.905,-29.2714 440.875,-20.5459"/>
<polygon fill="midnightblue" stroke="midnightblue" points="527.611,-57.1512 538.202,-57.4213 530.091,-50.6053 527.611,-57.1512"/>
</g>
<!-- Node12&#45;&gt;Node5 -->
<g id="edge17" class="edge"><title>Node12&#45;&gt;Node5</title>
<path fill="none" stroke="midnightblue" d="M727.088,-191.906C792.045,-167.986 914.88,-113.322 864,-57 838.182,-28.42 586.151,-16.857 472.313,-13.0648"/>
<polygon fill="midnightblue" stroke="midnightblue" points="725.79,-188.653 717.574,-195.342 728.168,-195.237 725.79,-188.653"/>
</g>
<!-- Node13&#45;&gt;Node5 -->
<g id="edge21" class="edge"><title>Node13&#45;&gt;Node5</title>
<path fill="none" stroke="midnightblue" d="M1015.64,-125.502C990.113,-102.131 944.431,-60.9826 935,-57 852.667,-22.2301 587.822,-14.0266 472.041,-12.0941"/>
<polygon fill="midnightblue" stroke="midnightblue" points="1013.42,-128.212 1023.15,-132.396 1018.15,-123.055 1013.42,-128.212"/>
</g>
<!-- Node14 -->
<g id="node14" class="node"><title>Node14</title>
<g id="a_node14"><a xlink:href="GroupRegionSelectionPolicy_8h.xhtml" target="_top" xlink:title="src/TH/GroupRegionSelection\lPolicy.h">
<polygon fill="none" stroke="black" points="987.5,-57.5 987.5,-89.5 1148.5,-89.5 1148.5,-57.5 987.5,-57.5"/>
<text text-anchor="start" x="995.5" y="-76.7" font-family="Helvetica,sans-Serif" font-size="11.00">src/TH/GroupRegionSelection</text>
<text text-anchor="middle" x="1068" y="-64.7" font-family="Helvetica,sans-Serif" font-size="11.00">Policy.h</text>
</a>
</g>
</g>
<!-- Node13&#45;&gt;Node14 -->
<g id="edge19" class="edge"><title>Node13&#45;&gt;Node14</title>
<path fill="none" stroke="midnightblue" d="M1042.51,-123.298C1048.04,-112.711 1054.93,-99.5275 1060.15,-89.5335"/>
<polygon fill="midnightblue" stroke="midnightblue" points="1039.25,-121.98 1037.72,-132.464 1045.45,-125.221 1039.25,-121.98"/>
</g>
<!-- Node14&#45;&gt;Node5 -->
<g id="edge20" class="edge"><title>Node14&#45;&gt;Node5</title>
<path fill="none" stroke="midnightblue" d="M977.466,-57.5599C975.967,-57.3675 974.477,-57.1807 973,-57 790.345,-34.6618 572.55,-20.4186 472.39,-14.5591"/>
<polygon fill="midnightblue" stroke="midnightblue" points="977.094,-61.0413 987.47,-58.9033 978.025,-54.1035 977.094,-61.0413"/>
</g>
</g>
</svg>
        <g id="navigator" transform="translate(0 0)" fill="#404254">
                <rect fill="#f2f5e9" fill-opacity="0.5" stroke="#606060" stroke-width=".5" x="0" y="0" width="60" height="60"/>
                <use id="zoomplus" xlink:href="#zoomPlus" x="17" y="9" onmousedown="handleZoom(evt,'in')"/>
                <use id="zoomminus" xlink:href="#zoomMin" x="42" y="9" onmousedown="handleZoom(evt,'out')"/>
                <use id="reset" xlink:href="#resetDef" x="30" y="36" onmousedown="handleReset()"/>
                <g id="arrowUp" xlink:href="#dirArrow" transform="translate(30 24)" onmousedown="handlePan(0,-1)">
                  <use xlink:href="#rim" fill="#404040">
                        <set attributeName="fill" to="#808080" begin="arrowUp.mouseover" end="arrowUp.mouseout"/>
                  </use>
                  <path fill="none" stroke="white" stroke-width="1.5" d="M0,-3.0v7 M-2.5,-0.5L0,-3.0L2.5,-0.5"/>
                </g>
                <g id="arrowRight" xlink:href="#dirArrow" transform="rotate(90) translate(36 -43)" onmousedown="handlePan(1,0)">
                  <use xlink:href="#rim" fill="#404040">
                        <set attributeName="fill" to="#808080" begin="arrowRight.mouseover" end="arrowRight.mouseout"/>
                  </use>
                  <path fill="none" stroke="white" stroke-width="1.5" d="M0,-3.0v7 M-2.5,-0.5L0,-3.0L2.5,-0.5"/>
                </g>
                <g id="arrowDown" xlink:href="#dirArrow" transform="rotate(180) translate(-30 -48)" onmousedown="handlePan(0,1)">
                  <use xlink:href="#rim" fill="#404040">
                        <set attributeName="fill" to="#808080" begin="arrowDown.mouseover" end="arrowDown.mouseout"/>
                  </use>
                  <path fill="none" stroke="white" stroke-width="1.5" d="M0,-3.0v7 M-2.5,-0.5L0,-3.0L2.5,-0.5"/>
                </g>
                <g id="arrowLeft" xlink:href="#dirArrow" transform="rotate(270) translate(-36 17)" onmousedown="handlePan(-1,0)">
                  <use xlink:href="#rim" fill="#404040">
                        <set attributeName="fill" to="#808080" begin="arrowLeft.mouseover" end="arrowLeft.mouseout"/>
                  </use>
                  <path fill="none" stroke="white" stroke-width="1.5" d="M0,-3.0v7 M-2.5,-0.5L0,-3.0L2.5,-0.5"/>
                </g>
        </g>
        <svg viewBox="0 0 15 15" width="100%" height="30px" preserveAspectRatio="xMaxYMin meet">
         <g id="arrow_out" transform="scale(0.3 0.3)">
          <a xlink:href="SearchSpace_8h__dep__incl_org.svg" target="_base">
           <rect id="button" ry="5" rx="5" y="6" x="6" height="38" width="38"
                fill="#f2f5e9" fill-opacity="0.5" stroke="#606060" stroke-width="1.0"/>
           <path id="arrow"
             d="M 11.500037,31.436501 C 11.940474,20.09759 22.043105,11.32322 32.158766,21.979434 L 37.068811,17.246167 C 37.068811,17.246167 37.088388,32 37.088388,32 L 22.160133,31.978069 C 22.160133,31.978069 26.997745,27.140456 26.997745,27.140456 C 18.528582,18.264221 13.291696,25.230495 11.500037,31.436501 z"
             style="fill:#404040;"/>
          </a>
         </g>
        </svg>
</svg>
