<?xml version="1.0" encoding="UTF-8" standalone="no"?>
<!DOCTYPE svg PUBLIC "-//W3C//DTD SVG 1.1//EN"
 "http://www.w3.org/Graphics/SVG/1.1/DTD/svg11.dtd">
<!-- Generated by graphviz version 2.38.0 (20140413.2041)
 -->
<!-- Title: src/TH/SearchSpace.h Pages: 1 -->
<svg width="368pt" height="257pt"
 viewBox="0.00 0.00 367.50 257.00" xmlns="http://www.w3.org/2000/svg" xmlns:xlink="http://www.w3.org/1999/xlink">
<g id="graph0" class="graph" transform="scale(1 1) rotate(0) translate(4 253)">
<title>src/TH/SearchSpace.h</title>
<!-- Node1 -->
<g id="node1" class="node"><title>Node1</title>
<polygon fill="#bfbfbf" stroke="black" points="103.5,-228.5 103.5,-248.5 229.5,-248.5 229.5,-228.5 103.5,-228.5"/>
<text text-anchor="middle" x="166.5" y="-235.7" font-family="Helvetica,sans-Serif" font-size="11.00">src/TH/SearchSpace.h</text>
</g>
<!-- Node2 -->
<g id="node2" class="node"><title>Node2</title>
<g id="a_node2"><a xlink:href="Region_8h.xhtml" target="_top" xlink:title="Region.h">
<polygon fill="none" stroke="black" points="136.5,-171.5 136.5,-191.5 196.5,-191.5 196.5,-171.5 136.5,-171.5"/>
<text text-anchor="middle" x="166.5" y="-178.7" font-family="Helvetica,sans-Serif" font-size="11.00">Region.h</text>
</a>
</g>
</g>
<!-- Node1&#45;&gt;Node2 -->
<g id="edge1" class="edge"><title>Node1&#45;&gt;Node2</title>
<path fill="none" stroke="midnightblue" d="M166.5,-228.418C166.5,-221.216 166.5,-210.896 166.5,-201.863"/>
<polygon fill="midnightblue" stroke="midnightblue" points="170,-201.779 166.5,-191.779 163,-201.779 170,-201.779"/>
</g>
<!-- Node3 -->
<g id="node3" class="node"><title>Node3</title>
<g id="a_node3"><a xlink:href="Dimension_8h.xhtml" target="_top" xlink:title="Dimension.h">
<polygon fill="none" stroke="black" points="0,-114.5 0,-134.5 77,-134.5 77,-114.5 0,-114.5"/>
<text text-anchor="middle" x="38.5" y="-121.7" font-family="Helvetica,sans-Serif" font-size="11.00">Dimension.h</text>
</a>
</g>
</g>
<!-- Node2&#45;&gt;Node3 -->
<g id="edge2" class="edge"><title>Node2&#45;&gt;Node3</title>
<path fill="none" stroke="midnightblue" d="M145.363,-171.418C124.519,-162.461 92.4477,-148.681 68.8755,-138.552"/>
<polygon fill="midnightblue" stroke="midnightblue" points="70.2375,-135.328 59.668,-134.596 67.474,-141.759 70.2375,-135.328"/>
</g>
<!-- Node4 -->
<g id="node4" class="node"><title>Node4</title>
<g id="a_node4"><a xlink:href="Partition_8h.xhtml" target="_top" xlink:title="Partition.h">
<polygon fill="none" stroke="black" points="50,-57.5 50,-77.5 115,-77.5 115,-57.5 50,-57.5"/>
<text text-anchor="middle" x="82.5" y="-64.7" font-family="Helvetica,sans-Serif" font-size="11.00">Partition.h</text>
</a>
</g>
</g>
<!-- Node2&#45;&gt;Node4 -->
<g id="edge5" class="edge"><title>Node2&#45;&gt;Node4</title>
<path fill="none" stroke="midnightblue" d="M158.659,-171.236C151.038,-162.144 139.223,-147.816 129.5,-135 117.142,-118.71 103.747,-99.6021 94.4304,-86.0588"/>
<polygon fill="midnightblue" stroke="midnightblue" points="97.23,-83.9522 88.695,-77.6749 91.4525,-87.9046 97.23,-83.9522"/>
</g>
<!-- Node5 -->
<g id="node5" class="node"><title>Node5</title>
<polygon fill="none" stroke="#bfbfbf" points="89,-0.5 89,-20.5 136,-20.5 136,-0.5 89,-0.5"/>
<text text-anchor="middle" x="112.5" y="-7.7" font-family="Helvetica,sans-Serif" font-size="11.00">cstdlib</text>
</g>
<!-- Node2&#45;&gt;Node5 -->
<g id="edge7" class="edge"><title>Node2&#45;&gt;Node5</title>
<path fill="none" stroke="midnightblue" d="M163.597,-171.414C155.1,-144.821 130.152,-66.7438 118.555,-30.45"/>
<polygon fill="midnightblue" stroke="midnightblue" points="121.795,-29.0913 115.418,-20.6311 115.127,-31.222 121.795,-29.0913"/>
</g>
<!-- Node6 -->
<g id="node6" class="node"><title>Node6</title>
<polygon fill="none" stroke="#bfbfbf" points="171.5,-114.5 171.5,-134.5 209.5,-134.5 209.5,-114.5 171.5,-114.5"/>
<text text-anchor="middle" x="190.5" y="-121.7" font-family="Helvetica,sans-Serif" font-size="11.00">map</text>
</g>
<!-- Node2&#45;&gt;Node6 -->
<g id="edge6" class="edge"><title>Node2&#45;&gt;Node6</title>
<path fill="none" stroke="midnightblue" d="M170.463,-171.418C173.709,-163.979 178.407,-153.212 182.439,-143.974"/>
<polygon fill="midnightblue" stroke="midnightblue" points="185.659,-145.345 186.451,-134.779 179.243,-142.545 185.659,-145.345"/>
</g>
<!-- Node7 -->
<g id="node7" class="node"><title>Node7</title>
<polygon fill="none" stroke="#bfbfbf" points="228,-114.5 228,-134.5 283,-134.5 283,-114.5 228,-114.5"/>
<text text-anchor="middle" x="255.5" y="-121.7" font-family="Helvetica,sans-Serif" font-size="11.00">sstream</text>
</g>
<!-- Node2&#45;&gt;Node7 -->
<g id="edge8" class="edge"><title>Node2&#45;&gt;Node7</title>
<path fill="none" stroke="midnightblue" d="M181.197,-171.418C194.981,-162.899 215.828,-150.017 231.935,-140.063"/>
<polygon fill="midnightblue" stroke="midnightblue" points="234.115,-142.83 240.782,-134.596 230.435,-136.875 234.115,-142.83"/>
</g>
<!-- Node8 -->
<g id="node8" class="node"><title>Node8</title>
<polygon fill="none" stroke="#bfbfbf" points="301.5,-114.5 301.5,-134.5 359.5,-134.5 359.5,-114.5 301.5,-114.5"/>
<text text-anchor="middle" x="330.5" y="-121.7" font-family="Helvetica,sans-Serif" font-size="11.00">iostream</text>
</g>
<!-- Node2&#45;&gt;Node8 -->
<g id="edge9" class="edge"><title>Node2&#45;&gt;Node8</title>
<path fill="none" stroke="midnightblue" d="M193.581,-171.418C220.963,-162.235 263.467,-147.981 293.851,-137.791"/>
<polygon fill="midnightblue" stroke="midnightblue" points="295.283,-141.002 303.651,-134.504 293.057,-134.366 295.283,-141.002"/>
</g>
<!-- Node3&#45;&gt;Node4 -->
<g id="edge3" class="edge"><title>Node3&#45;&gt;Node4</title>
<path fill="none" stroke="midnightblue" d="M45.7657,-114.418C51.9701,-106.662 61.068,-95.29 68.6572,-85.8035"/>
<polygon fill="midnightblue" stroke="midnightblue" points="71.5625,-87.7746 75.0764,-77.7795 66.0964,-83.4017 71.5625,-87.7746"/>
</g>
<!-- Node4&#45;&gt;Node5 -->
<g id="edge4" class="edge"><title>Node4&#45;&gt;Node5</title>
<path fill="none" stroke="midnightblue" d="M87.4539,-57.4179C91.5546,-49.8998 97.5093,-38.9829 102.584,-29.6799"/>
<polygon fill="midnightblue" stroke="midnightblue" points="105.723,-31.2344 107.438,-20.7795 99.5773,-27.8824 105.723,-31.2344"/>
</g>
</g>
</svg>
