<?xml version="1.0" encoding="UTF-8" standalone="no"?>
<!DOCTYPE svg PUBLIC "-//W3C//DTD SVG 1.1//EN"
 "http://www.w3.org/Graphics/SVG/1.1/DTD/svg11.dtd">
<!-- Generated by graphviz version 2.38.0 (20140413.2041)
 -->
<!-- Title: src/TH/SearchSpace.h Pages: 1 -->
<svg width="960pt" height="338pt"
 viewBox="0.00 0.00 959.50 338.00" xmlns="http://www.w3.org/2000/svg" xmlns:xlink="http://www.w3.org/1999/xlink">
<g id="graph0" class="graph" transform="scale(1 1) rotate(0) translate(4 334)">
<title>src/TH/SearchSpace.h</title>
<!-- Node1 -->
<g id="node1" class="node"><title>Node1</title>
<polygon fill="#bfbfbf" stroke="black" points="661,-309.5 661,-329.5 787,-329.5 787,-309.5 661,-309.5"/>
<text text-anchor="middle" x="724" y="-316.7" font-family="Helvetica,sans-Serif" font-size="11.00">src/TH/SearchSpace.h</text>
</g>
<!-- Node2 -->
<g id="node2" class="node"><title>Node2</title>
<g id="a_node2"><a xlink:href="Search_8h.xhtml" target="_top" xlink:title="src/TH/Search.h">
<polygon fill="none" stroke="black" points="323.5,-252.5 323.5,-272.5 418.5,-272.5 418.5,-252.5 323.5,-252.5"/>
<text text-anchor="middle" x="371" y="-259.7" font-family="Helvetica,sans-Serif" font-size="11.00">src/TH/Search.h</text>
</a>
</g>
</g>
<!-- Node1&#45;&gt;Node2 -->
<g id="edge1" class="edge"><title>Node1&#45;&gt;Node2</title>
<path fill="none" stroke="midnightblue" d="M656.108,-307.922C586.47,-297.072 479.934,-280.473 418.727,-270.936"/>
<polygon fill="midnightblue" stroke="midnightblue" points="655.685,-311.398 666.105,-309.479 656.763,-304.482 655.685,-311.398"/>
</g>
<!-- Node5 -->
<g id="node5" class="node"><title>Node5</title>
<g id="a_node5"><a xlink:href="THBuilder_8h.xhtml" target="_top" xlink:title="src/TH/THBuilder.h">
<polygon fill="none" stroke="black" points="263,-0.5 263,-20.5 373,-20.5 373,-0.5 263,-0.5"/>
<text text-anchor="middle" x="318" y="-7.7" font-family="Helvetica,sans-Serif" font-size="11.00">src/TH/THBuilder.h</text>
</a>
</g>
</g>
<!-- Node1&#45;&gt;Node5 -->
<g id="edge21" class="edge"><title>Node1&#45;&gt;Node5</title>
<path fill="none" stroke="midnightblue" d="M724,-299.379C724,-277.083 724,-239.12 724,-206.5 724,-206.5 724,-206.5 724,-141.5 724,-100.678 720.616,-81.5487 688,-57 639.587,-20.5611 464.042,-13.0852 373.247,-11.698"/>
<polygon fill="midnightblue" stroke="midnightblue" points="720.5,-299.499 724,-309.499 727.5,-299.499 720.5,-299.499"/>
</g>
<!-- Node12 -->
<g id="node12" class="node"><title>Node12</title>
<g id="a_node12"><a xlink:href="RegionSelectionPolicy_8h.xhtml" target="_top" xlink:title="src/TH/RegionSelectionPolicy.h">
<polygon fill="none" stroke="black" points="752,-132.5 752,-152.5 920,-152.5 920,-132.5 752,-132.5"/>
<text text-anchor="middle" x="836" y="-139.7" font-family="Helvetica,sans-Serif" font-size="11.00">src/TH/RegionSelectionPolicy.h</text>
</a>
</g>
</g>
<!-- Node1&#45;&gt;Node12 -->
<g id="edge17" class="edge"><title>Node1&#45;&gt;Node12</title>
<path fill="none" stroke="midnightblue" d="M735.63,-300.329C759.36,-263.25 812.604,-180.056 830.219,-152.533"/>
<polygon fill="midnightblue" stroke="midnightblue" points="732.464,-298.782 730.022,-309.091 738.36,-302.555 732.464,-298.782"/>
</g>
<!-- Node3 -->
<g id="node3" class="node"><title>Node3</title>
<g id="a_node3"><a xlink:href="ConvergenceControlPolicy_8h.xhtml" target="_top" xlink:title="src/TH/ConvergenceControl\lPolicy.h">
<polygon fill="none" stroke="black" points="0,-126.5 0,-158.5 152,-158.5 152,-126.5 0,-126.5"/>
<text text-anchor="start" x="8" y="-145.7" font-family="Helvetica,sans-Serif" font-size="11.00">src/TH/ConvergenceControl</text>
<text text-anchor="middle" x="76" y="-133.7" font-family="Helvetica,sans-Serif" font-size="11.00">Policy.h</text>
</a>
</g>
</g>
<!-- Node2&#45;&gt;Node3 -->
<g id="edge2" class="edge"><title>Node2&#45;&gt;Node3</title>
<path fill="none" stroke="midnightblue" d="M313.245,-255.848C270.845,-250.026 212.742,-238.479 166,-216 135.984,-201.565 107.053,-175.366 90.4202,-158.729"/>
<polygon fill="midnightblue" stroke="midnightblue" points="313.028,-259.35 323.398,-257.175 313.935,-252.409 313.028,-259.35"/>
</g>
<!-- Node2&#45;&gt;Node5 -->
<g id="edge13" class="edge"><title>Node2&#45;&gt;Node5</title>
<path fill="none" stroke="midnightblue" d="M313.462,-255.901C287.465,-250.167 259.039,-238.724 243,-216 222.504,-186.962 138.924,-263.479 256,-57 265.417,-40.3916 283.659,-28.1406 297.929,-20.5613"/>
<polygon fill="midnightblue" stroke="midnightblue" points="312.788,-259.335 323.275,-257.83 314.138,-252.467 312.788,-259.335"/>
</g>
<!-- Node6 -->
<g id="node6" class="node"><title>Node6</title>
<g id="a_node6"><a xlink:href="SearchScore_8h.xhtml" target="_top" xlink:title="src/TH/SearchScore.h">
<polygon fill="none" stroke="black" points="252,-195.5 252,-215.5 376,-215.5 376,-195.5 252,-195.5"/>
<text text-anchor="middle" x="314" y="-202.7" font-family="Helvetica,sans-Serif" font-size="11.00">src/TH/SearchScore.h</text>
</a>
</g>
</g>
<!-- Node2&#45;&gt;Node6 -->
<g id="edge6" class="edge"><title>Node2&#45;&gt;Node6</title>
<path fill="none" stroke="midnightblue" d="M354.21,-245.299C344.244,-235.683 331.965,-223.835 323.617,-215.779"/>
<polygon fill="midnightblue" stroke="midnightblue" points="351.961,-247.993 361.588,-252.418 356.822,-242.955 351.961,-247.993"/>
</g>
<!-- Node10 -->
<g id="node10" class="node"><title>Node10</title>
<g id="a_node10"><a xlink:href="PSO_8h.xhtml" target="_top" xlink:title="src/PSO.h">
<polygon fill="none" stroke="black" points="394,-195.5 394,-215.5 460,-215.5 460,-195.5 394,-195.5"/>
<text text-anchor="middle" x="427" y="-202.7" font-family="Helvetica,sans-Serif" font-size="11.00">src/PSO.h</text>
</a>
</g>
</g>
<!-- Node2&#45;&gt;Node10 -->
<g id="edge14" class="edge"><title>Node2&#45;&gt;Node10</title>
<path fill="none" stroke="midnightblue" d="M387.495,-245.299C397.287,-235.683 409.35,-223.835 417.552,-215.779"/>
<polygon fill="midnightblue" stroke="midnightblue" points="384.929,-242.914 380.247,-252.418 389.834,-247.908 384.929,-242.914"/>
</g>
<!-- Node11 -->
<g id="node11" class="node"><title>Node11</title>
<g id="a_node11"><a xlink:href="HillClimbing_8h.xhtml" target="_top" xlink:title="src/HillClimbing.h">
<polygon fill="none" stroke="black" points="571,-195.5 571,-215.5 671,-215.5 671,-195.5 571,-195.5"/>
<text text-anchor="middle" x="621" y="-202.7" font-family="Helvetica,sans-Serif" font-size="11.00">src/HillClimbing.h</text>
</a>
</g>
</g>
<!-- Node2&#45;&gt;Node11 -->
<g id="edge15" class="edge"><title>Node2&#45;&gt;Node11</title>
<path fill="none" stroke="midnightblue" d="M421.904,-250.301C468.548,-240.039 536.733,-225.039 579.975,-215.525"/>
<polygon fill="midnightblue" stroke="midnightblue" points="421.017,-246.913 412.002,-252.479 422.521,-253.749 421.017,-246.913"/>
</g>
<!-- Node4 -->
<g id="node4" class="node"><title>Node4</title>
<g id="a_node4"><a xlink:href="CSMOn_8h.xhtml" target="_top" xlink:title="src/TH/CSMOn.h">
<polygon fill="none" stroke="black" points="14,-63.5 14,-83.5 114,-83.5 114,-63.5 14,-63.5"/>
<text text-anchor="middle" x="64" y="-70.7" font-family="Helvetica,sans-Serif" font-size="11.00">src/TH/CSMOn.h</text>
</a>
</g>
</g>
<!-- Node3&#45;&gt;Node4 -->
<g id="edge3" class="edge"><title>Node3&#45;&gt;Node4</title>
<path fill="none" stroke="midnightblue" d="M71.4942,-116.343C69.4443,-104.897 67.1459,-92.0643 65.6414,-83.6646"/>
<polygon fill="midnightblue" stroke="midnightblue" points="68.0688,-117.07 73.277,-126.297 74.9591,-115.836 68.0688,-117.07"/>
</g>
<!-- Node3&#45;&gt;Node5 -->
<g id="edge5" class="edge"><title>Node3&#45;&gt;Node5</title>
<path fill="none" stroke="midnightblue" d="M97.4423,-119.155C118.946,-97.1641 150.963,-65.6569 166,-57 197.273,-38.9958 236.342,-27.5034 267.039,-20.5728"/>
<polygon fill="midnightblue" stroke="midnightblue" points="94.7795,-116.873 90.3197,-126.483 99.7992,-121.752 94.7795,-116.873"/>
</g>
<!-- Node4&#45;&gt;Node5 -->
<g id="edge4" class="edge"><title>Node4&#45;&gt;Node5</title>
<path fill="none" stroke="midnightblue" d="M111.268,-61.0379C116.906,-59.6749 122.582,-58.3049 128,-57 180.762,-44.2934 241.79,-29.6966 280.142,-20.5359"/>
<polygon fill="midnightblue" stroke="midnightblue" points="110.119,-57.7147 101.222,-63.4681 111.765,-64.5185 110.119,-57.7147"/>
</g>
<!-- Node6&#45;&gt;Node5 -->
<g id="edge12" class="edge"><title>Node6&#45;&gt;Node5</title>
<path fill="none" stroke="midnightblue" d="M288.832,-189.87C278.149,-182.178 266.833,-171.695 261,-159 254.877,-145.673 260.364,-140.653 261,-126 262.335,-95.2466 253.209,-84.5204 267,-57 274.868,-41.2997 290.684,-28.5455 302.629,-20.5784"/>
<polygon fill="midnightblue" stroke="midnightblue" points="286.889,-192.781 297.147,-195.429 290.779,-186.961 286.889,-192.781"/>
</g>
<!-- Node7 -->
<g id="node7" class="node"><title>Node7</title>
<g id="a_node7"><a xlink:href="SearchAlgorithmSelectionPolicy_8h.xhtml" target="_top" xlink:title="src/TH/SearchAlgorithmSelection\lPolicy.h">
<polygon fill="none" stroke="black" points="270,-126.5 270,-158.5 446,-158.5 446,-126.5 270,-126.5"/>
<text text-anchor="start" x="278" y="-145.7" font-family="Helvetica,sans-Serif" font-size="11.00">src/TH/SearchAlgorithmSelection</text>
<text text-anchor="middle" x="358" y="-133.7" font-family="Helvetica,sans-Serif" font-size="11.00">Policy.h</text>
</a>
</g>
</g>
<!-- Node6&#45;&gt;Node7 -->
<g id="edge7" class="edge"><title>Node6&#45;&gt;Node7</title>
<path fill="none" stroke="midnightblue" d="M326.411,-187.294C332.902,-178.294 340.779,-167.375 347.042,-158.691"/>
<polygon fill="midnightblue" stroke="midnightblue" points="323.504,-185.341 320.492,-195.499 329.181,-189.436 323.504,-185.341"/>
</g>
<!-- Node7&#45;&gt;Node5 -->
<g id="edge11" class="edge"><title>Node7&#45;&gt;Node5</title>
<path fill="none" stroke="midnightblue" d="M308.004,-121.492C294.934,-113.705 282.436,-103.365 275,-90 267.869,-77.1835 269.579,-70.6281 275,-57 281.026,-41.8513 294.753,-28.8338 305.088,-20.6509"/>
<polygon fill="midnightblue" stroke="midnightblue" points="306.639,-124.736 317.089,-126.482 310.009,-118.6 306.639,-124.736"/>
</g>
<!-- Node8 -->
<g id="node8" class="node"><title>Node8</title>
<g id="a_node8"><a xlink:href="RoundRobinSearchAlgorithmSelectionPolicy_8h.xhtml" target="_top" xlink:title="src/TH/RoundRobinSearchAlgorithm\lSelectionPolicy.h">
<polygon fill="none" stroke="black" points="284.5,-57.5 284.5,-89.5 477.5,-89.5 477.5,-57.5 284.5,-57.5"/>
<text text-anchor="start" x="292.5" y="-76.7" font-family="Helvetica,sans-Serif" font-size="11.00">src/TH/RoundRobinSearchAlgorithm</text>
<text text-anchor="middle" x="381" y="-64.7" font-family="Helvetica,sans-Serif" font-size="11.00">SelectionPolicy.h</text>
</a>
</g>
</g>
<!-- Node7&#45;&gt;Node8 -->
<g id="edge8" class="edge"><title>Node7&#45;&gt;Node8</title>
<path fill="none" stroke="midnightblue" d="M366.544,-116.61C369.653,-107.555 373.07,-97.5998 375.802,-89.6432"/>
<polygon fill="midnightblue" stroke="midnightblue" points="363.156,-115.702 363.219,-126.297 369.776,-117.975 363.156,-115.702"/>
</g>
<!-- Node9 -->
<g id="node9" class="node"><title>Node9</title>
<g id="a_node9"><a xlink:href="SingleSearchAlgorithmSelectionPolicy_8h.xhtml" target="_top" xlink:title="src/TH/SingleSearchAlgorithm\lSelectionPolicy.h">
<polygon fill="none" stroke="black" points="496,-57.5 496,-89.5 658,-89.5 658,-57.5 496,-57.5"/>
<text text-anchor="start" x="504" y="-76.7" font-family="Helvetica,sans-Serif" font-size="11.00">src/TH/SingleSearchAlgorithm</text>
<text text-anchor="middle" x="577" y="-64.7" font-family="Helvetica,sans-Serif" font-size="11.00">SelectionPolicy.h</text>
</a>
</g>
</g>
<!-- Node7&#45;&gt;Node9 -->
<g id="edge10" class="edge"><title>Node7&#45;&gt;Node9</title>
<path fill="none" stroke="midnightblue" d="M417.122,-123.412C451.713,-112.83 494.88,-99.6235 527.638,-89.6017"/>
<polygon fill="midnightblue" stroke="midnightblue" points="415.686,-120.191 407.148,-126.464 417.734,-126.885 415.686,-120.191"/>
</g>
<!-- Node8&#45;&gt;Node5 -->
<g id="edge9" class="edge"><title>Node8&#45;&gt;Node5</title>
<path fill="none" stroke="midnightblue" d="M358.025,-50.2546C347.417,-39.9831 335.414,-28.3609 327.342,-20.5459"/>
<polygon fill="midnightblue" stroke="midnightblue" points="355.808,-52.9797 365.427,-57.4213 360.677,-47.9507 355.808,-52.9797"/>
</g>
<!-- Node11&#45;&gt;Node5 -->
<g id="edge16" class="edge"><title>Node11&#45;&gt;Node5</title>
<path fill="none" stroke="midnightblue" d="M635.559,-187.455C659.301,-157.543 700.506,-95.1583 667,-57 647.95,-35.3055 466.803,-20.8441 373.289,-14.7604"/>
<polygon fill="midnightblue" stroke="midnightblue" points="632.755,-185.355 629.128,-195.31 638.171,-189.79 632.755,-185.355"/>
</g>
<!-- Node12&#45;&gt;Node5 -->
<g id="edge20" class="edge"><title>Node12&#45;&gt;Node5</title>
<path fill="none" stroke="midnightblue" d="M818.634,-125.526C793.09,-102.186 747.39,-61.0781 738,-57 673.755,-29.0972 471.58,-17.5028 373.055,-13.4138"/>
<polygon fill="midnightblue" stroke="midnightblue" points="816.409,-128.235 826.147,-132.41 821.138,-123.074 816.409,-128.235"/>
</g>
<!-- Node13 -->
<g id="node13" class="node"><title>Node13</title>
<g id="a_node13"><a xlink:href="GroupRegionSelectionPolicy_8h.xhtml" target="_top" xlink:title="src/TH/GroupRegionSelection\lPolicy.h">
<polygon fill="none" stroke="black" points="790.5,-57.5 790.5,-89.5 951.5,-89.5 951.5,-57.5 790.5,-57.5"/>
<text text-anchor="start" x="798.5" y="-76.7" font-family="Helvetica,sans-Serif" font-size="11.00">src/TH/GroupRegionSelection</text>
<text text-anchor="middle" x="871" y="-64.7" font-family="Helvetica,sans-Serif" font-size="11.00">Policy.h</text>
</a>
</g>
</g>
<!-- Node12&#45;&gt;Node13 -->
<g id="edge18" class="edge"><title>Node12&#45;&gt;Node13</title>
<path fill="none" stroke="midnightblue" d="M845.509,-123.298C851.039,-112.711 857.926,-99.5275 863.147,-89.5335"/>
<polygon fill="midnightblue" stroke="midnightblue" points="842.248,-121.98 840.72,-132.464 848.453,-125.221 842.248,-121.98"/>
</g>
<!-- Node13&#45;&gt;Node5 -->
<g id="edge19" class="edge"><title>Node13&#45;&gt;Node5</title>
<path fill="none" stroke="midnightblue" d="M780.461,-57.5958C778.964,-57.3923 777.476,-57.1935 776,-57 631.014,-37.9894 459.274,-22.9075 373.118,-15.8519"/>
<polygon fill="midnightblue" stroke="midnightblue" points="780.068,-61.0749 790.458,-59.0005 781.042,-54.143 780.068,-61.0749"/>
</g>
</g>
</svg>
