<?xml version="1.0" encoding="UTF-8" standalone="no"?>
<!DOCTYPE svg PUBLIC "-//W3C//DTD SVG 1.1//EN"
 "http://www.w3.org/Graphics/SVG/1.1/DTD/svg11.dtd">
<!-- Generated by graphviz version 2.38.0 (20140413.2041)
 -->
<!-- Title: src/TH/SearchScore.h Pages: 1 -->
<svg width="452pt" height="224pt"
 viewBox="0.00 0.00 451.50 224.00" xmlns="http://www.w3.org/2000/svg" xmlns:xlink="http://www.w3.org/1999/xlink">
<g id="graph0" class="graph" transform="scale(1 1) rotate(0) translate(4 220)">
<title>src/TH/SearchScore.h</title>
<!-- Node1 -->
<g id="node1" class="node"><title>Node1</title>
<polygon fill="#bfbfbf" stroke="black" points="319.5,-195.5 319.5,-215.5 443.5,-215.5 443.5,-195.5 319.5,-195.5"/>
<text text-anchor="middle" x="381.5" y="-202.7" font-family="Helvetica,sans-Serif" font-size="11.00">src/TH/SearchScore.h</text>
</g>
<!-- Node2 -->
<g id="node2" class="node"><title>Node2</title>
<g id="a_node2"><a xlink:href="SearchAlgorithmSelectionPolicy_8h.xhtml" target="_top" xlink:title="src/TH/SearchAlgorithmSelection\lPolicy.h">
<polygon fill="none" stroke="black" points="184.5,-126.5 184.5,-158.5 360.5,-158.5 360.5,-126.5 184.5,-126.5"/>
<text text-anchor="start" x="192.5" y="-145.7" font-family="Helvetica,sans-Serif" font-size="11.00">src/TH/SearchAlgorithmSelection</text>
<text text-anchor="middle" x="272.5" y="-133.7" font-family="Helvetica,sans-Serif" font-size="11.00">Policy.h</text>
</a>
</g>
</g>
<!-- Node1&#45;&gt;Node2 -->
<g id="edge1" class="edge"><title>Node1&#45;&gt;Node2</title>
<path fill="none" stroke="midnightblue" d="M356.609,-190.57C339.614,-181.059 317.102,-168.461 299.645,-158.691"/>
<polygon fill="midnightblue" stroke="midnightblue" points="354.981,-193.67 365.417,-195.499 358.4,-187.561 354.981,-193.67"/>
</g>
<!-- Node4 -->
<g id="node4" class="node"><title>Node4</title>
<g id="a_node4"><a xlink:href="THBuilder_8h.xhtml" target="_top" xlink:title="src/TH/THBuilder.h">
<polygon fill="none" stroke="black" points="166.5,-0.5 166.5,-20.5 276.5,-20.5 276.5,-0.5 166.5,-0.5"/>
<text text-anchor="middle" x="221.5" y="-7.7" font-family="Helvetica,sans-Serif" font-size="11.00">src/TH/THBuilder.h</text>
</a>
</g>
</g>
<!-- Node1&#45;&gt;Node4 -->
<g id="edge6" class="edge"><title>Node1&#45;&gt;Node4</title>
<path fill="none" stroke="midnightblue" d="M394.696,-187.287C415.768,-157.56 451.623,-96.0421 420.5,-57 402.772,-34.7608 329.052,-22.5228 276.517,-16.4869"/>
<polygon fill="midnightblue" stroke="midnightblue" points="391.814,-185.298 388.721,-195.432 397.458,-189.438 391.814,-185.298"/>
</g>
<!-- Node3 -->
<g id="node3" class="node"><title>Node3</title>
<g id="a_node3"><a xlink:href="RoundRobinSearchAlgorithmSelectionPolicy_8h.xhtml" target="_top" xlink:title="src/TH/RoundRobinSearchAlgorithm\lSelectionPolicy.h">
<polygon fill="none" stroke="black" points="0,-57.5 0,-89.5 193,-89.5 193,-57.5 0,-57.5"/>
<text text-anchor="start" x="8" y="-76.7" font-family="Helvetica,sans-Serif" font-size="11.00">src/TH/RoundRobinSearchAlgorithm</text>
<text text-anchor="middle" x="96.5" y="-64.7" font-family="Helvetica,sans-Serif" font-size="11.00">SelectionPolicy.h</text>
</a>
</g>
</g>
<!-- Node2&#45;&gt;Node3 -->
<g id="edge2" class="edge"><title>Node2&#45;&gt;Node3</title>
<path fill="none" stroke="midnightblue" d="M223.548,-122.865C195.999,-112.377 162.044,-99.4515 136.17,-89.6017"/>
<polygon fill="midnightblue" stroke="midnightblue" points="222.411,-126.177 233.002,-126.464 224.902,-119.635 222.411,-126.177"/>
</g>
<!-- Node2&#45;&gt;Node4 -->
<g id="edge5" class="edge"><title>Node2&#45;&gt;Node4</title>
<path fill="none" stroke="midnightblue" d="M255.774,-118.111C250.277,-109.582 244.545,-99.6557 240.5,-90 230.422,-65.9448 224.959,-35.4052 222.724,-20.5024"/>
<polygon fill="midnightblue" stroke="midnightblue" points="252.867,-120.06 261.338,-126.423 258.684,-116.166 252.867,-120.06"/>
</g>
<!-- Node5 -->
<g id="node5" class="node"><title>Node5</title>
<g id="a_node5"><a xlink:href="SingleSearchAlgorithmSelectionPolicy_8h.xhtml" target="_top" xlink:title="src/TH/SingleSearchAlgorithm\lSelectionPolicy.h">
<polygon fill="none" stroke="black" points="249.5,-57.5 249.5,-89.5 411.5,-89.5 411.5,-57.5 249.5,-57.5"/>
<text text-anchor="start" x="257.5" y="-76.7" font-family="Helvetica,sans-Serif" font-size="11.00">src/TH/SingleSearchAlgorithm</text>
<text text-anchor="middle" x="330.5" y="-64.7" font-family="Helvetica,sans-Serif" font-size="11.00">SelectionPolicy.h</text>
</a>
</g>
</g>
<!-- Node2&#45;&gt;Node5 -->
<g id="edge4" class="edge"><title>Node2&#45;&gt;Node5</title>
<path fill="none" stroke="midnightblue" d="M292.291,-118.638C300.578,-109.065 309.985,-98.1987 317.391,-89.6432"/>
<polygon fill="midnightblue" stroke="midnightblue" points="289.56,-116.445 285.661,-126.297 294.852,-121.027 289.56,-116.445"/>
</g>
<!-- Node3&#45;&gt;Node4 -->
<g id="edge3" class="edge"><title>Node3&#45;&gt;Node4</title>
<path fill="none" stroke="midnightblue" d="M136.638,-52.9127C158.911,-42.0432 185.55,-29.0437 202.963,-20.5459"/>
<polygon fill="midnightblue" stroke="midnightblue" points="134.851,-49.8902 127.399,-57.4213 137.921,-56.1811 134.851,-49.8902"/>
</g>
</g>
</svg>
