<?xml version="1.0" encoding="UTF-8" standalone="no"?>
<!DOCTYPE svg PUBLIC "-//W3C//DTD SVG 1.1//EN"
 "http://www.w3.org/Graphics/SVG/1.1/DTD/svg11.dtd">
<!-- Generated by graphviz version 2.38.0 (20140413.2041)
 -->
<!-- Title: Position::sum Pages: 1 -->
<svg width="631pt" height="138pt"
 viewBox="0.00 0.00 631.00 138.00" xmlns="http://www.w3.org/2000/svg" xmlns:xlink="http://www.w3.org/1999/xlink">
<g id="graph0" class="graph" transform="scale(1 1) rotate(0) translate(4 134)">
<title>Position::sum</title>
<!-- Node1 -->
<g id="node1" class="node"><title>Node1</title>
<polygon fill="#bfbfbf" stroke="black" points="0,-70.5 0,-90.5 81,-90.5 81,-70.5 0,-70.5"/>
<text text-anchor="middle" x="40.5" y="-77.7" font-family="Helvetica,sans-Serif" font-size="11.00">Position::sum</text>
</g>
<!-- Node2 -->
<g id="node2" class="node"><title>Node2</title>
<g id="a_node2"><a xlink:href="classPSO.xhtml#a25e15ab34186e7c52a4789108ae24ece" target="_top" xlink:title="Perform the actual optimization only until the next improvement. ">
<polygon fill="none" stroke="black" points="159,-109.5 159,-129.5 225,-129.5 225,-109.5 159,-109.5"/>
<text text-anchor="middle" x="192" y="-116.7" font-family="Helvetica,sans-Serif" font-size="11.00">PSO::next</text>
</a>
</g>
</g>
<!-- Node1&#45;&gt;Node2 -->
<g id="edge1" class="edge"><title>Node1&#45;&gt;Node2</title>
<path fill="none" stroke="midnightblue" d="M88.9973,-93.1412C98.28,-95.595 107.943,-98.1376 117,-100.5 130.733,-104.082 145.914,-107.989 158.933,-111.323"/>
<polygon fill="midnightblue" stroke="midnightblue" points="89.6831,-89.7022 79.1203,-90.526 87.8914,-96.469 89.6831,-89.7022"/>
</g>
<!-- Node3 -->
<g id="node3" class="node"><title>Node3</title>
<g id="a_node3"><a xlink:href="structPosition.xhtml#a530f7539f8e0673e484f029c53b412b8" target="_top" xlink:title="Math method that sums the list that represents the Position with Position instance received...">
<polygon fill="none" stroke="black" points="151.5,-70.5 151.5,-90.5 232.5,-90.5 232.5,-70.5 151.5,-70.5"/>
<text text-anchor="middle" x="192" y="-77.7" font-family="Helvetica,sans-Serif" font-size="11.00">Position::sum</text>
</a>
</g>
</g>
<!-- Node1&#45;&gt;Node3 -->
<g id="edge2" class="edge"><title>Node1&#45;&gt;Node3</title>
<path fill="none" stroke="midnightblue" d="M91.4135,-80.5C110.936,-80.5 133.009,-80.5 151.403,-80.5"/>
<polygon fill="midnightblue" stroke="midnightblue" points="91.1708,-77.0001 81.1708,-80.5 91.1707,-84.0001 91.1708,-77.0001"/>
</g>
<!-- Node4 -->
<g id="node4" class="node"><title>Node4</title>
<g id="a_node4"><a xlink:href="structPosition.xhtml#a8f9b5812209642cb31de38d3745cfc16" target="_top" xlink:title="Get the sum of values from the list that represents the Position. ">
<polygon fill="none" stroke="black" points="117,-31.5 117,-51.5 267,-51.5 267,-31.5 117,-31.5"/>
<text text-anchor="middle" x="192" y="-38.7" font-family="Helvetica,sans-Serif" font-size="11.00">Position::sumInternalValues</text>
</a>
</g>
</g>
<!-- Node1&#45;&gt;Node4 -->
<g id="edge3" class="edge"><title>Node1&#45;&gt;Node4</title>
<path fill="none" stroke="midnightblue" d="M89.7225,-67.9202C110.086,-62.608 133.468,-56.5085 152.631,-51.5094"/>
<polygon fill="midnightblue" stroke="midnightblue" points="88.7926,-64.5456 80,-70.4565 90.5596,-71.3189 88.7926,-64.5456"/>
</g>
<!-- Node5 -->
<g id="node5" class="node"><title>Node5</title>
<g id="a_node5"><a xlink:href="classBestListUpdatePolicy.xhtml#a6987f90d6d9e5fec813f5aa53fe47ce3" target="_top" xlink:title="Convenience method that calculates the Euclidean distance between two solutions. ">
<polygon fill="none" stroke="black" points="303,-25.5 303,-57.5 422,-57.5 422,-25.5 303,-25.5"/>
<text text-anchor="start" x="311" y="-44.7" font-family="Helvetica,sans-Serif" font-size="11.00">BestListUpdatePolicy</text>
<text text-anchor="middle" x="362.5" y="-32.7" font-family="Helvetica,sans-Serif" font-size="11.00">::euclideanDistance</text>
</a>
</g>
</g>
<!-- Node4&#45;&gt;Node5 -->
<g id="edge4" class="edge"><title>Node4&#45;&gt;Node5</title>
<path fill="none" stroke="midnightblue" d="M277.481,-41.5C286.088,-41.5 294.691,-41.5 302.933,-41.5"/>
<polygon fill="midnightblue" stroke="midnightblue" points="277.397,-38.0001 267.397,-41.5 277.397,-45.0001 277.397,-38.0001"/>
</g>
<!-- Node6 -->
<g id="node6" class="node"><title>Node6</title>
<g id="a_node6"><a xlink:href="classConvergentBestListUpdatePolicy.xhtml#a6382937d32ac8bab7169f216fcd3048f" target="_top" xlink:title="This method implements a behavior that focus on convergence speed when updating the solutions from th...">
<polygon fill="none" stroke="black" points="467.5,-51.5 467.5,-83.5 613.5,-83.5 613.5,-51.5 467.5,-51.5"/>
<text text-anchor="start" x="475.5" y="-70.7" font-family="Helvetica,sans-Serif" font-size="11.00">ConvergentBestListUpdate</text>
<text text-anchor="middle" x="540.5" y="-58.7" font-family="Helvetica,sans-Serif" font-size="11.00">Policy::apply</text>
</a>
</g>
</g>
<!-- Node5&#45;&gt;Node6 -->
<g id="edge5" class="edge"><title>Node5&#45;&gt;Node6</title>
<path fill="none" stroke="midnightblue" d="M432.124,-51.6377C443.687,-53.3458 455.72,-55.1234 467.369,-56.8442"/>
<polygon fill="midnightblue" stroke="midnightblue" points="432.51,-48.1567 422.105,-50.1576 431.487,-55.0815 432.51,-48.1567"/>
</g>
<!-- Node7 -->
<g id="node7" class="node"><title>Node7</title>
<g id="a_node7"><a xlink:href="classDivergentBestListUpdatePolicy.xhtml#a793d47a0c458eef94b27fbee73e5df0e" target="_top" xlink:title="This method implements a behavior that promotes diversity when updating the solutions from the BestLi...">
<polygon fill="none" stroke="black" points="458,-0.5 458,-32.5 623,-32.5 623,-0.5 458,-0.5"/>
<text text-anchor="start" x="466" y="-19.7" font-family="Helvetica,sans-Serif" font-size="11.00">DivergentBestListUpdatePolicy</text>
<text text-anchor="middle" x="540.5" y="-7.7" font-family="Helvetica,sans-Serif" font-size="11.00">::apply</text>
</a>
</g>
</g>
<!-- Node5&#45;&gt;Node7 -->
<g id="edge6" class="edge"><title>Node5&#45;&gt;Node7</title>
<path fill="none" stroke="midnightblue" d="M432.245,-31.735C440.677,-30.5373 449.357,-29.3044 457.954,-28.0832"/>
<polygon fill="midnightblue" stroke="midnightblue" points="431.514,-28.3037 422.105,-33.1754 432.498,-35.2342 431.514,-28.3037"/>
</g>
</g>
</svg>
