<?xml version="1.0" encoding="UTF-8" standalone="no"?>
<!DOCTYPE svg PUBLIC "-//W3C//DTD SVG 1.1//EN"
 "http://www.w3.org/Graphics/SVG/1.1/DTD/svg11.dtd">
<!-- Generated by graphviz version 2.38.0 (20140413.2041)
 -->
<!-- Title: ConstraintViolation::equals Pages: 1 -->
<svg width="258pt" height="143pt"
 viewBox="0.00 0.00 258.00 143.00" xmlns="http://www.w3.org/2000/svg" xmlns:xlink="http://www.w3.org/1999/xlink">
<g id="graph0" class="graph" transform="scale(1 1) rotate(0) translate(4 139)">
<title>ConstraintViolation::equals</title>
<!-- Node1 -->
<g id="node1" class="node"><title>Node1</title>
<polygon fill="#bfbfbf" stroke="black" points="0,-51.5 0,-83.5 107,-83.5 107,-51.5 0,-51.5"/>
<text text-anchor="start" x="8" y="-70.7" font-family="Helvetica,sans-Serif" font-size="11.00">ConstraintViolation</text>
<text text-anchor="middle" x="53.5" y="-58.7" font-family="Helvetica,sans-Serif" font-size="11.00">::equals</text>
</g>
<!-- Node2 -->
<g id="node2" class="node"><title>Node2</title>
<g id="a_node2"><a xlink:href="structConstraintViolation.xhtml#ae3f2f69ecc051cde999037c6c7cce276" target="_top" xlink:title="Compares the current list of constraint violations with the ConstraintViolation instance received...">
<polygon fill="none" stroke="black" points="143,-102.5 143,-134.5 250,-134.5 250,-102.5 143,-102.5"/>
<text text-anchor="start" x="151" y="-121.7" font-family="Helvetica,sans-Serif" font-size="11.00">ConstraintViolation</text>
<text text-anchor="middle" x="196.5" y="-109.7" font-family="Helvetica,sans-Serif" font-size="11.00">::equals</text>
</a>
</g>
</g>
<!-- Node1&#45;&gt;Node2 -->
<g id="edge1" class="edge"><title>Node1&#45;&gt;Node2</title>
<path fill="none" stroke="midnightblue" d="M108.668,-87.0926C122.723,-92.1763 137.694,-97.5915 151.177,-102.468"/>
<polygon fill="midnightblue" stroke="midnightblue" points="109.708,-83.7468 99.1133,-83.6367 107.327,-90.3295 109.708,-83.7468"/>
</g>
<!-- Node3 -->
<g id="node3" class="node"><title>Node3</title>
<g id="a_node3"><a xlink:href="structConstraintViolation.xhtml#a4924e949e9aee8e84cdafea54f2851b9" target="_top" xlink:title="ConstraintViolation\l::operator==">
<polygon fill="none" stroke="black" points="143,-51.5 143,-83.5 250,-83.5 250,-51.5 143,-51.5"/>
<text text-anchor="start" x="151" y="-70.7" font-family="Helvetica,sans-Serif" font-size="11.00">ConstraintViolation</text>
<text text-anchor="middle" x="196.5" y="-58.7" font-family="Helvetica,sans-Serif" font-size="11.00">::operator==</text>
</a>
</g>
</g>
<!-- Node1&#45;&gt;Node3 -->
<g id="edge2" class="edge"><title>Node1&#45;&gt;Node3</title>
<path fill="none" stroke="midnightblue" d="M117.05,-67.5C125.7,-67.5 134.51,-67.5 142.953,-67.5"/>
<polygon fill="midnightblue" stroke="midnightblue" points="117.003,-64.0001 107.003,-67.5 117.003,-71.0001 117.003,-64.0001"/>
</g>
<!-- Node4 -->
<g id="node4" class="node"><title>Node4</title>
<g id="a_node4"><a xlink:href="structConstraintViolation.xhtml#abd1a4af7bc87614609e83b69e43732ff" target="_top" xlink:title="ConstraintViolation\l::operator!=">
<polygon fill="none" stroke="black" points="143,-0.5 143,-32.5 250,-32.5 250,-0.5 143,-0.5"/>
<text text-anchor="start" x="151" y="-19.7" font-family="Helvetica,sans-Serif" font-size="11.00">ConstraintViolation</text>
<text text-anchor="middle" x="196.5" y="-7.7" font-family="Helvetica,sans-Serif" font-size="11.00">::operator!=</text>
</a>
</g>
</g>
<!-- Node1&#45;&gt;Node4 -->
<g id="edge3" class="edge"><title>Node1&#45;&gt;Node4</title>
<path fill="none" stroke="midnightblue" d="M108.668,-47.9074C122.723,-42.8237 137.694,-37.4085 151.177,-32.5317"/>
<polygon fill="midnightblue" stroke="midnightblue" points="107.327,-44.6705 99.1133,-51.3633 109.708,-51.2532 107.327,-44.6705"/>
</g>
</g>
</svg>
