<?xml version="1.0" encoding="UTF-8" standalone="no"?>
<!DOCTYPE svg PUBLIC "-//W3C//DTD SVG 1.1//EN"
 "http://www.w3.org/Graphics/SVG/1.1/DTD/svg11.dtd">
<!-- Generated by graphviz version 2.38.0 (20140413.2041)
 -->
<!-- Title: t_node::setID Pages: 1 -->
<svg width="253pt" height="68pt"
 viewBox="0.00 0.00 253.00 68.00" xmlns="http://www.w3.org/2000/svg" xmlns:xlink="http://www.w3.org/1999/xlink">
<g id="graph0" class="graph" transform="scale(1 1) rotate(0) translate(4 64)">
<title>t_node::setID</title>
<!-- Node1 -->
<g id="node1" class="node"><title>Node1</title>
<polygon fill="#bfbfbf" stroke="black" points="0,-19.5 0,-39.5 81,-39.5 81,-19.5 0,-19.5"/>
<text text-anchor="middle" x="40.5" y="-26.7" font-family="Helvetica,sans-Serif" font-size="11.00">t_node::setID</text>
</g>
<!-- Node2 -->
<g id="node2" class="node"><title>Node2</title>
<g id="a_node2"><a xlink:href="classTHTree.xhtml#afa2f8a119819db01617199497c9327c3" target="_top" xlink:title="Add the Root node to the tree topology. ">
<polygon fill="none" stroke="black" points="117,-39.5 117,-59.5 245,-59.5 245,-39.5 117,-39.5"/>
<text text-anchor="middle" x="181" y="-46.7" font-family="Helvetica,sans-Serif" font-size="11.00">THTree::addRootNode</text>
</a>
</g>
</g>
<!-- Node1&#45;&gt;Node2 -->
<g id="edge1" class="edge"><title>Node1&#45;&gt;Node2</title>
<path fill="none" stroke="midnightblue" d="M91.1009,-36.6626C99.4248,-37.8646 108.162,-39.1262 116.773,-40.3698"/>
<polygon fill="midnightblue" stroke="midnightblue" points="91.5861,-33.1964 81.1885,-35.2312 90.5856,-40.1246 91.5861,-33.1964"/>
</g>
<!-- Node3 -->
<g id="node3" class="node"><title>Node3</title>
<g id="a_node3"><a xlink:href="classTHTree.xhtml#a4dd1e98529fdd21abe3ebbb685184ffd" target="_top" xlink:title="Add a child node to the tree topology. ">
<polygon fill="none" stroke="black" points="129,-0.5 129,-20.5 233,-20.5 233,-0.5 129,-0.5"/>
<text text-anchor="middle" x="181" y="-7.7" font-family="Helvetica,sans-Serif" font-size="11.00">THTree::addNode</text>
</a>
</g>
</g>
<!-- Node1&#45;&gt;Node3 -->
<g id="edge2" class="edge"><title>Node1&#45;&gt;Node3</title>
<path fill="none" stroke="midnightblue" d="M91.2293,-22.6779C103.476,-20.9979 116.609,-19.1963 128.918,-17.5076"/>
<polygon fill="midnightblue" stroke="midnightblue" points="90.62,-19.2286 81.1885,-24.0554 91.5715,-26.1637 90.62,-19.2286"/>
</g>
</g>
</svg>
