<?xml version="1.0" encoding="UTF-8" standalone="no"?>
<!DOCTYPE svg PUBLIC "-//W3C//DTD SVG 1.1//EN"
 "http://www.w3.org/Graphics/SVG/1.1/DTD/svg11.dtd">
<!-- Generated by graphviz version 2.38.0 (20140413.2041)
 -->
<!-- Title: ConstraintViolation::checkCompatibility Pages: 1 -->
<svg width="263pt" height="92pt"
 viewBox="0.00 0.00 263.00 92.00" xmlns="http://www.w3.org/2000/svg" xmlns:xlink="http://www.w3.org/1999/xlink">
<g id="graph0" class="graph" transform="scale(1 1) rotate(0) translate(4 88)">
<title>ConstraintViolation::checkCompatibility</title>
<!-- Node1 -->
<g id="node1" class="node"><title>Node1</title>
<polygon fill="#bfbfbf" stroke="black" points="0,-25.5 0,-57.5 112,-57.5 112,-25.5 0,-25.5"/>
<text text-anchor="start" x="8" y="-44.7" font-family="Helvetica,sans-Serif" font-size="11.00">ConstraintViolation</text>
<text text-anchor="middle" x="56" y="-32.7" font-family="Helvetica,sans-Serif" font-size="11.00">::checkCompatibility</text>
</g>
<!-- Node2 -->
<g id="node2" class="node"><title>Node2</title>
<g id="a_node2"><a xlink:href="structConstraintViolation.xhtml#aab52761d8cbde42604d5539d90990876" target="_top" xlink:title="Operator that overrides the contents of this list of constraint violations with the contents of the C...">
<polygon fill="none" stroke="black" points="148,-51.5 148,-83.5 255,-83.5 255,-51.5 148,-51.5"/>
<text text-anchor="start" x="156" y="-70.7" font-family="Helvetica,sans-Serif" font-size="11.00">ConstraintViolation</text>
<text text-anchor="middle" x="201.5" y="-58.7" font-family="Helvetica,sans-Serif" font-size="11.00">::operator=</text>
</a>
</g>
</g>
<!-- Node1&#45;&gt;Node2 -->
<g id="edge1" class="edge"><title>Node1&#45;&gt;Node2</title>
<path fill="none" stroke="midnightblue" d="M122.059,-53.2877C130.644,-54.8432 139.358,-56.4219 147.703,-57.9339"/>
<polygon fill="midnightblue" stroke="midnightblue" points="122.534,-49.8169 112.07,-51.4779 121.286,-56.7047 122.534,-49.8169"/>
</g>
<!-- Node3 -->
<g id="node3" class="node"><title>Node3</title>
<g id="a_node3"><a xlink:href="structConstraintViolation.xhtml#ae3f2f69ecc051cde999037c6c7cce276" target="_top" xlink:title="Compares the current list of constraint violations with the ConstraintViolation instance received...">
<polygon fill="none" stroke="black" points="148,-0.5 148,-32.5 255,-32.5 255,-0.5 148,-0.5"/>
<text text-anchor="start" x="156" y="-19.7" font-family="Helvetica,sans-Serif" font-size="11.00">ConstraintViolation</text>
<text text-anchor="middle" x="201.5" y="-7.7" font-family="Helvetica,sans-Serif" font-size="11.00">::equals</text>
</a>
</g>
</g>
<!-- Node1&#45;&gt;Node3 -->
<g id="edge2" class="edge"><title>Node1&#45;&gt;Node3</title>
<path fill="none" stroke="midnightblue" d="M122.059,-30.1656C130.644,-28.67 139.358,-27.152 147.703,-25.6981"/>
<polygon fill="midnightblue" stroke="midnightblue" points="121.321,-26.7414 112.07,-31.9058 122.523,-33.6375 121.321,-26.7414"/>
</g>
</g>
</svg>
