<?xml version="1.0" encoding="UTF-8" standalone="no"?>
<!DOCTYPE svg PUBLIC "-//W3C//DTD SVG 1.1//EN"
 "http://www.w3.org/Graphics/SVG/1.1/DTD/svg11.dtd">
<!-- Generated by graphviz version 2.38.0 (20140413.2041)
 -->
<!-- Title: Position::equals Pages: 1 -->
<svg width="251pt" height="107pt"
 viewBox="0.00 0.00 251.00 107.00" xmlns="http://www.w3.org/2000/svg" xmlns:xlink="http://www.w3.org/1999/xlink">
<g id="graph0" class="graph" transform="scale(1 1) rotate(0) translate(4 103)">
<title>Position::equals</title>
<!-- Node1 -->
<g id="node1" class="node"><title>Node1</title>
<polygon fill="#bfbfbf" stroke="black" points="0,-39.5 0,-59.5 92,-59.5 92,-39.5 0,-39.5"/>
<text text-anchor="middle" x="46" y="-46.7" font-family="Helvetica,sans-Serif" font-size="11.00">Position::equals</text>
</g>
<!-- Node2 -->
<g id="node2" class="node"><title>Node2</title>
<g id="a_node2"><a xlink:href="structPosition.xhtml#ae49c33a4d51e79c37e9b8b33125f4857" target="_top" xlink:title="Compares the current position with the position received. ">
<polygon fill="none" stroke="black" points="139.5,-78.5 139.5,-98.5 231.5,-98.5 231.5,-78.5 139.5,-78.5"/>
<text text-anchor="middle" x="185.5" y="-85.7" font-family="Helvetica,sans-Serif" font-size="11.00">Position::equals</text>
</a>
</g>
</g>
<!-- Node1&#45;&gt;Node2 -->
<g id="edge1" class="edge"><title>Node1&#45;&gt;Node2</title>
<path fill="none" stroke="midnightblue" d="M92.1195,-62.2975C110.667,-67.5581 131.826,-73.5597 149.21,-78.4906"/>
<polygon fill="midnightblue" stroke="midnightblue" points="92.9853,-58.9051 82.4097,-59.5435 91.0751,-65.6394 92.9853,-58.9051"/>
</g>
<!-- Node3 -->
<g id="node3" class="node"><title>Node3</title>
<g id="a_node3"><a xlink:href="structPosition.xhtml#a3d032e44c50a27d25753d11218a9c2e2" target="_top" xlink:title="Position::operator==">
<polygon fill="none" stroke="black" points="128,-39.5 128,-59.5 243,-59.5 243,-39.5 128,-39.5"/>
<text text-anchor="middle" x="185.5" y="-46.7" font-family="Helvetica,sans-Serif" font-size="11.00">Position::operator==</text>
</a>
</g>
</g>
<!-- Node1&#45;&gt;Node3 -->
<g id="edge2" class="edge"><title>Node1&#45;&gt;Node3</title>
<path fill="none" stroke="midnightblue" d="M102.153,-49.5C110.604,-49.5 119.34,-49.5 127.823,-49.5"/>
<polygon fill="midnightblue" stroke="midnightblue" points="102.023,-46.0001 92.0226,-49.5 102.023,-53.0001 102.023,-46.0001"/>
</g>
<!-- Node4 -->
<g id="node4" class="node"><title>Node4</title>
<g id="a_node4"><a xlink:href="structPosition.xhtml#a90aa25928069f18dd99d3110bf1904b4" target="_top" xlink:title="Position::operator!=">
<polygon fill="none" stroke="black" points="130,-0.5 130,-20.5 241,-20.5 241,-0.5 130,-0.5"/>
<text text-anchor="middle" x="185.5" y="-7.7" font-family="Helvetica,sans-Serif" font-size="11.00">Position::operator!=</text>
</a>
</g>
</g>
<!-- Node1&#45;&gt;Node4 -->
<g id="edge3" class="edge"><title>Node1&#45;&gt;Node4</title>
<path fill="none" stroke="midnightblue" d="M92.1195,-36.7025C110.667,-31.4419 131.826,-25.4403 149.21,-20.5094"/>
<polygon fill="midnightblue" stroke="midnightblue" points="91.0751,-33.3606 82.4097,-39.4565 92.9853,-40.0949 91.0751,-33.3606"/>
</g>
</g>
</svg>
