<?xml version="1.0" encoding="UTF-8" standalone="no"?>
<!DOCTYPE svg PUBLIC "-//W3C//DTD SVG 1.1//EN"
 "http://www.w3.org/Graphics/SVG/1.1/DTD/svg11.dtd">
<!-- Generated by graphviz version 2.38.0 (20140413.2041)
 -->
<!-- Title: Position::getInternalPosition Pages: 1 -->
<svg width="478pt" height="29pt"
 viewBox="0.00 0.00 478.00 29.00" xmlns="http://www.w3.org/2000/svg" xmlns:xlink="http://www.w3.org/1999/xlink">
<g id="graph0" class="graph" transform="scale(1 1) rotate(0) translate(4 25)">
<title>Position::getInternalPosition</title>
<!-- Node1 -->
<g id="node1" class="node"><title>Node1</title>
<polygon fill="#bfbfbf" stroke="black" points="0,-0.5 0,-20.5 150,-20.5 150,-0.5 0,-0.5"/>
<text text-anchor="middle" x="75" y="-7.7" font-family="Helvetica,sans-Serif" font-size="11.00">Position::getInternalPosition</text>
</g>
<!-- Node2 -->
<g id="node2" class="node"><title>Node2</title>
<g id="a_node2"><a xlink:href="classSolution.xhtml#acaffcea4a5bfc0ad8ef8d655f56533b6" target="_top" xlink:title="This method copies the contents of current Position to the buffer received. ">
<polygon fill="none" stroke="black" points="186,-0.5 186,-20.5 306,-20.5 306,-0.5 186,-0.5"/>
<text text-anchor="middle" x="246" y="-7.7" font-family="Helvetica,sans-Serif" font-size="11.00">Solution::getPositions</text>
</a>
</g>
</g>
<!-- Node1&#45;&gt;Node2 -->
<g id="edge1" class="edge"><title>Node1&#45;&gt;Node2</title>
<path fill="none" stroke="midnightblue" d="M160.273,-10.5C168.937,-10.5 177.604,-10.5 185.91,-10.5"/>
<polygon fill="midnightblue" stroke="midnightblue" points="160.126,-7.0001 150.126,-10.5 160.126,-14.0001 160.126,-7.0001"/>
</g>
<!-- Node3 -->
<g id="node3" class="node"><title>Node3</title>
<g id="a_node3"><a xlink:href="classTHBuilder_1_1THImpl.xhtml#a943301db5154fd7b672119b5c9917303" target="_top" xlink:title="Starts the Treasure Hunt mechanisms. ">
<polygon fill="none" stroke="black" points="342,-0.5 342,-20.5 470,-20.5 470,-0.5 342,-0.5"/>
<text text-anchor="middle" x="406" y="-7.7" font-family="Helvetica,sans-Serif" font-size="11.00">THBuilder::THImpl::run</text>
</a>
</g>
</g>
<!-- Node2&#45;&gt;Node3 -->
<g id="edge2" class="edge"><title>Node2&#45;&gt;Node3</title>
<path fill="none" stroke="midnightblue" d="M316.509,-10.5C324.974,-10.5 333.586,-10.5 341.95,-10.5"/>
<polygon fill="midnightblue" stroke="midnightblue" points="316.283,-7.0001 306.283,-10.5 316.283,-14.0001 316.283,-7.0001"/>
</g>
</g>
</svg>
