<?xml version="1.0" encoding="UTF-8" standalone="no"?>
<!DOCTYPE svg PUBLIC "-//W3C//DTD SVG 1.1//EN"
 "http://www.w3.org/Graphics/SVG/1.1/DTD/svg11.dtd">
<!-- Generated by graphviz version 2.38.0 (20140413.2041)
 -->
<!-- Title: Fitness::equals Pages: 1 -->
<svg width="279pt" height="68pt"
 viewBox="0.00 0.00 279.00 68.00" xmlns="http://www.w3.org/2000/svg" xmlns:xlink="http://www.w3.org/1999/xlink">
<g id="graph0" class="graph" transform="scale(1 1) rotate(0) translate(4 64)">
<title>Fitness::equals</title>
<!-- Node1 -->
<g id="node1" class="node"><title>Node1</title>
<polygon fill="#bfbfbf" stroke="black" points="0,-19.5 0,-39.5 89,-39.5 89,-19.5 0,-19.5"/>
<text text-anchor="middle" x="44.5" y="-26.7" font-family="Helvetica,sans-Serif" font-size="11.00">Fitness::equals</text>
</g>
<!-- Node2 -->
<g id="node2" class="node"><title>Node2</title>
<g id="a_node2"><a xlink:href="structFitness.xhtml#a73ef98fc5780e1e15bbfac6177bd5c5a" target="_top" xlink:title="Fitness::checkCompatibility">
<polygon fill="none" stroke="black" points="125,-39.5 125,-59.5 271,-59.5 271,-39.5 125,-39.5"/>
<text text-anchor="middle" x="198" y="-46.7" font-family="Helvetica,sans-Serif" font-size="11.00">Fitness::checkCompatibility</text>
</a>
</g>
</g>
<!-- Node1&#45;&gt;Node2 -->
<g id="edge1" class="edge"><title>Node1&#45;&gt;Node2</title>
<path fill="none" stroke="midnightblue" d="M89.3201,-35.2848C97.3839,-36.3494 106.039,-37.4919 114.809,-38.6497"/>
<polygon fill="midnightblue" stroke="midnightblue" points="114.363,-42.1212 124.736,-39.9601 115.28,-35.1814 114.363,-42.1212"/>
</g>
<!-- Node3 -->
<g id="node3" class="node"><title>Node3</title>
<g id="a_node3"><a xlink:href="structFitness.xhtml#abd044181ac7240fa59c7a25fbcca5150" target="_top" xlink:title="Compares the current fitness with the buffer received. ">
<polygon fill="none" stroke="black" points="153.5,-0.5 153.5,-20.5 242.5,-20.5 242.5,-0.5 153.5,-0.5"/>
<text text-anchor="middle" x="198" y="-7.7" font-family="Helvetica,sans-Serif" font-size="11.00">Fitness::equals</text>
</a>
</g>
</g>
<!-- Node1&#45;&gt;Node3 -->
<g id="edge2" class="edge"><title>Node1&#45;&gt;Node3</title>
<path fill="none" stroke="midnightblue" d="M89.3201,-24.0044C106.122,-21.8972 125.49,-19.4683 143.127,-17.2564"/>
<polygon fill="midnightblue" stroke="midnightblue" points="143.792,-20.7005 153.278,-15.9832 142.921,-13.7549 143.792,-20.7005"/>
</g>
</g>
</svg>
