<?xml version="1.0" encoding="UTF-8" standalone="no"?>
<!DOCTYPE svg PUBLIC "-//W3C//DTD SVG 1.1//EN"
 "http://www.w3.org/Graphics/SVG/1.1/DTD/svg11.dtd">
<!-- Generated by graphviz version 2.38.0 (20140413.2041)
 -->
<!-- Title: Position::checkCompatibility Pages: 1 -->
<svg width="302pt" height="185pt"
 viewBox="0.00 0.00 302.00 185.00" xmlns="http://www.w3.org/2000/svg" xmlns:xlink="http://www.w3.org/1999/xlink">
<g id="graph0" class="graph" transform="scale(1 1) rotate(0) translate(4 181)">
<title>Position::checkCompatibility</title>
<!-- Node1 -->
<g id="node1" class="node"><title>Node1</title>
<polygon fill="#bfbfbf" stroke="black" points="0,-78.5 0,-98.5 150,-98.5 150,-78.5 0,-78.5"/>
<text text-anchor="middle" x="75" y="-85.7" font-family="Helvetica,sans-Serif" font-size="11.00">Position::checkCompatibility</text>
</g>
<!-- Node2 -->
<g id="node2" class="node"><title>Node2</title>
<g id="a_node2"><a xlink:href="structPosition.xhtml#a591cf87fe7b6708caec26383103d8cfd" target="_top" xlink:title="Operator that overrides the contents of this position with the contents of the Position instance rece...">
<polygon fill="none" stroke="black" points="186,-156.5 186,-176.5 294,-176.5 294,-156.5 186,-156.5"/>
<text text-anchor="middle" x="240" y="-163.7" font-family="Helvetica,sans-Serif" font-size="11.00">Position::operator=</text>
</a>
</g>
</g>
<!-- Node1&#45;&gt;Node2 -->
<g id="edge1" class="edge"><title>Node1&#45;&gt;Node2</title>
<path fill="none" stroke="midnightblue" d="M101.847,-103.773C123.799,-116.4 156.37,-134.33 186,-147.5 193.146,-150.676 201.001,-153.723 208.425,-156.411"/>
<polygon fill="midnightblue" stroke="midnightblue" points="103.534,-100.706 93.1282,-98.7158 100.022,-106.761 103.534,-100.706"/>
</g>
<!-- Node3 -->
<g id="node3" class="node"><title>Node3</title>
<g id="a_node3"><a xlink:href="structPosition.xhtml#ae49c33a4d51e79c37e9b8b33125f4857" target="_top" xlink:title="Compares the current position with the position received. ">
<polygon fill="none" stroke="black" points="194,-117.5 194,-137.5 286,-137.5 286,-117.5 194,-117.5"/>
<text text-anchor="middle" x="240" y="-124.7" font-family="Helvetica,sans-Serif" font-size="11.00">Position::equals</text>
</a>
</g>
</g>
<!-- Node1&#45;&gt;Node3 -->
<g id="edge2" class="edge"><title>Node1&#45;&gt;Node3</title>
<path fill="none" stroke="midnightblue" d="M127.972,-100.935C150.315,-106.281 176.082,-112.446 197.166,-117.491"/>
<polygon fill="midnightblue" stroke="midnightblue" points="128.517,-97.4666 117.977,-98.5435 126.888,-104.274 128.517,-97.4666"/>
</g>
<!-- Node4 -->
<g id="node4" class="node"><title>Node4</title>
<g id="a_node4"><a xlink:href="structPosition.xhtml#a530f7539f8e0673e484f029c53b412b8" target="_top" xlink:title="Math method that sums the list that represents the Position with Position instance received...">
<polygon fill="none" stroke="black" points="199.5,-78.5 199.5,-98.5 280.5,-98.5 280.5,-78.5 199.5,-78.5"/>
<text text-anchor="middle" x="240" y="-85.7" font-family="Helvetica,sans-Serif" font-size="11.00">Position::sum</text>
</a>
</g>
</g>
<!-- Node1&#45;&gt;Node4 -->
<g id="edge3" class="edge"><title>Node1&#45;&gt;Node4</title>
<path fill="none" stroke="midnightblue" d="M160.605,-88.5C174.024,-88.5 187.331,-88.5 199.067,-88.5"/>
<polygon fill="midnightblue" stroke="midnightblue" points="160.345,-85.0001 150.345,-88.5 160.345,-92.0001 160.345,-85.0001"/>
</g>
<!-- Node5 -->
<g id="node5" class="node"><title>Node5</title>
<g id="a_node5"><a xlink:href="structPosition.xhtml#a09bbd5c9bbd247ccd0307a5968a40564" target="_top" xlink:title="Math method that subtracts the list that represents the Position from Position instance received...">
<polygon fill="none" stroke="black" points="201,-39.5 201,-59.5 279,-59.5 279,-39.5 201,-39.5"/>
<text text-anchor="middle" x="240" y="-46.7" font-family="Helvetica,sans-Serif" font-size="11.00">Position::sub</text>
</a>
</g>
</g>
<!-- Node1&#45;&gt;Node5 -->
<g id="edge4" class="edge"><title>Node1&#45;&gt;Node5</title>
<path fill="none" stroke="midnightblue" d="M127.855,-76.0929C151.523,-70.4301 179.052,-63.8433 200.792,-58.6418"/>
<polygon fill="midnightblue" stroke="midnightblue" points="126.888,-72.7256 117.977,-78.4565 128.517,-79.5334 126.888,-72.7256"/>
</g>
<!-- Node6 -->
<g id="node6" class="node"><title>Node6</title>
<g id="a_node6"><a xlink:href="structPosition.xhtml#a8cff5fed8bf343eec2689374cb076de1" target="_top" xlink:title="Math method that multiplies the list that represents the Position with Position instance received...">
<polygon fill="none" stroke="black" points="199.5,-0.5 199.5,-20.5 280.5,-20.5 280.5,-0.5 199.5,-0.5"/>
<text text-anchor="middle" x="240" y="-7.7" font-family="Helvetica,sans-Serif" font-size="11.00">Position::mult</text>
</a>
</g>
</g>
<!-- Node1&#45;&gt;Node6 -->
<g id="edge5" class="edge"><title>Node1&#45;&gt;Node6</title>
<path fill="none" stroke="midnightblue" d="M102.324,-73.4318C124.325,-61.1287 156.717,-43.6837 186,-30.5 193.802,-26.9874 202.422,-23.5525 210.403,-20.548"/>
<polygon fill="midnightblue" stroke="midnightblue" points="100.566,-70.4051 93.5707,-78.3623 104.001,-76.5041 100.566,-70.4051"/>
</g>
</g>
</svg>
