<?xml version="1.0" encoding="UTF-8" standalone="no"?>
<!DOCTYPE svg PUBLIC "-//W3C//DTD SVG 1.1//EN"
 "http://www.w3.org/Graphics/SVG/1.1/DTD/svg11.dtd">
<!-- Generated by graphviz version 2.38.0 (20140413.2041)
 -->
<!-- Title: Position::adjustLowerBound Pages: 1 -->
<svg width="625pt" height="131pt"
 viewBox="0.00 0.00 625.00 131.00" xmlns="http://www.w3.org/2000/svg" xmlns:xlink="http://www.w3.org/1999/xlink">
<g id="graph0" class="graph" transform="scale(1 1) rotate(0) translate(4 127)">
<title>Position::adjustLowerBound</title>
<!-- Node1 -->
<g id="node1" class="node"><title>Node1</title>
<polygon fill="#bfbfbf" stroke="black" points="0,-45.5 0,-65.5 151,-65.5 151,-45.5 0,-45.5"/>
<text text-anchor="middle" x="75.5" y="-52.7" font-family="Helvetica,sans-Serif" font-size="11.00">Position::adjustLowerBound</text>
</g>
<!-- Node2 -->
<g id="node2" class="node"><title>Node2</title>
<g id="a_node2"><a xlink:href="classSolution.xhtml#a84c713b707a570add53e85a28196bb3e" target="_top" xlink:title="Reset the position of the current Solution in the search space. ">
<polygon fill="none" stroke="black" points="187,-45.5 187,-65.5 273,-65.5 273,-45.5 187,-45.5"/>
<text text-anchor="middle" x="230" y="-52.7" font-family="Helvetica,sans-Serif" font-size="11.00">Solution::reset</text>
</a>
</g>
</g>
<!-- Node1&#45;&gt;Node2 -->
<g id="edge1" class="edge"><title>Node1&#45;&gt;Node2</title>
<path fill="none" stroke="midnightblue" d="M161.689,-55.5C170.407,-55.5 178.967,-55.5 186.904,-55.5"/>
<polygon fill="midnightblue" stroke="midnightblue" points="161.41,-52.0001 151.41,-55.5 161.41,-59.0001 161.41,-52.0001"/>
</g>
<!-- Node3 -->
<g id="node3" class="node"><title>Node3</title>
<g id="a_node3"><a xlink:href="classBetaRelocationStrategyPolicy.xhtml#aeadaa254d012725ab1a67419d9cb37ef" target="_top" xlink:title="This method implements the policy to relocate TH instance&#39;s population at every TH instance&#39;s iterati...">
<polygon fill="none" stroke="black" points="309,-90.5 309,-122.5 468,-122.5 468,-90.5 309,-90.5"/>
<text text-anchor="start" x="317" y="-109.7" font-family="Helvetica,sans-Serif" font-size="11.00">BetaRelocationStrategyPolicy</text>
<text text-anchor="middle" x="388.5" y="-97.7" font-family="Helvetica,sans-Serif" font-size="11.00">::apply</text>
</a>
</g>
</g>
<!-- Node2&#45;&gt;Node3 -->
<g id="edge2" class="edge"><title>Node2&#45;&gt;Node3</title>
<path fill="none" stroke="midnightblue" d="M270.518,-68.7872C282.834,-72.8973 296.471,-77.4168 309,-81.5 317.975,-84.4249 327.54,-87.5034 336.795,-90.4618"/>
<polygon fill="midnightblue" stroke="midnightblue" points="271.565,-65.4467 260.971,-65.5949 269.345,-72.0854 271.565,-65.4467"/>
</g>
<!-- Node4 -->
<g id="node4" class="node"><title>Node4</title>
<g id="a_node4"><a xlink:href="classTHBuilder_1_1SearchGroup.xhtml#aafebb836a1ec681213319a024a254ca8" target="_top" xlink:title="Reset the location of the population individuals and calculate the fitness. ">
<polygon fill="none" stroke="black" points="320.5,-39.5 320.5,-71.5 456.5,-71.5 456.5,-39.5 320.5,-39.5"/>
<text text-anchor="start" x="328.5" y="-58.7" font-family="Helvetica,sans-Serif" font-size="11.00">THBuilder::SearchGroup</text>
<text text-anchor="middle" x="388.5" y="-46.7" font-family="Helvetica,sans-Serif" font-size="11.00">::resetPopulation</text>
</a>
</g>
</g>
<!-- Node2&#45;&gt;Node4 -->
<g id="edge3" class="edge"><title>Node2&#45;&gt;Node4</title>
<path fill="none" stroke="midnightblue" d="M283.487,-55.5C295.315,-55.5 308.027,-55.5 320.364,-55.5"/>
<polygon fill="midnightblue" stroke="midnightblue" points="283.351,-52.0001 273.351,-55.5 283.351,-59.0001 283.351,-52.0001"/>
</g>
<!-- Node6 -->
<g id="node6" class="node"><title>Node6</title>
<g id="a_node6"><a xlink:href="classTHBuilder_1_1THImpl.xhtml#a943301db5154fd7b672119b5c9917303" target="_top" xlink:title="Starts the Treasure Hunt mechanisms. ">
<polygon fill="none" stroke="black" points="324.5,-0.5 324.5,-20.5 452.5,-20.5 452.5,-0.5 324.5,-0.5"/>
<text text-anchor="middle" x="388.5" y="-7.7" font-family="Helvetica,sans-Serif" font-size="11.00">THBuilder::THImpl::run</text>
</a>
</g>
</g>
<!-- Node2&#45;&gt;Node6 -->
<g id="edge5" class="edge"><title>Node2&#45;&gt;Node6</title>
<path fill="none" stroke="midnightblue" d="M270.41,-42.3555C282.721,-38.3877 296.382,-34.1258 309,-30.5 321.03,-27.0431 334.183,-23.5725 346.225,-20.5156"/>
<polygon fill="midnightblue" stroke="midnightblue" points="269.3,-39.0361 260.872,-45.4567 271.464,-45.693 269.3,-39.0361"/>
</g>
<!-- Node5 -->
<g id="node5" class="node"><title>Node5</title>
<g id="a_node5"><a xlink:href="classTHBuilder_1_1THImpl.xhtml#a0d6e2fd43f50755ff2738e924f66690d" target="_top" xlink:title="THBuilder::THImpl::\lTHImpl">
<polygon fill="none" stroke="black" points="504,-39.5 504,-71.5 617,-71.5 617,-39.5 504,-39.5"/>
<text text-anchor="start" x="512" y="-58.7" font-family="Helvetica,sans-Serif" font-size="11.00">THBuilder::THImpl::</text>
<text text-anchor="middle" x="560.5" y="-46.7" font-family="Helvetica,sans-Serif" font-size="11.00">THImpl</text>
</a>
</g>
</g>
<!-- Node4&#45;&gt;Node5 -->
<g id="edge4" class="edge"><title>Node4&#45;&gt;Node5</title>
<path fill="none" stroke="midnightblue" d="M467.017,-55.5C479.401,-55.5 491.999,-55.5 503.747,-55.5"/>
<polygon fill="midnightblue" stroke="midnightblue" points="466.689,-52.0001 456.689,-55.5 466.688,-59.0001 466.689,-52.0001"/>
</g>
</g>
</svg>
