<?xml version="1.0" encoding="UTF-8" standalone="no"?>
<!DOCTYPE svg PUBLIC "-//W3C//DTD SVG 1.1//EN"
 "http://www.w3.org/Graphics/SVG/1.1/DTD/svg11.dtd">
<!-- Generated by graphviz version 2.38.0 (20140413.2041)
 -->
<!-- Title: t_node::setLevel Pages: 1 -->
<svg width="267pt" height="68pt"
 viewBox="0.00 0.00 267.00 68.00" xmlns="http://www.w3.org/2000/svg" xmlns:xlink="http://www.w3.org/1999/xlink">
<g id="graph0" class="graph" transform="scale(1 1) rotate(0) translate(4 64)">
<title>t_node::setLevel</title>
<!-- Node1 -->
<g id="node1" class="node"><title>Node1</title>
<polygon fill="#bfbfbf" stroke="black" points="0,-19.5 0,-39.5 95,-39.5 95,-19.5 0,-19.5"/>
<text text-anchor="middle" x="47.5" y="-26.7" font-family="Helvetica,sans-Serif" font-size="11.00">t_node::setLevel</text>
</g>
<!-- Node2 -->
<g id="node2" class="node"><title>Node2</title>
<g id="a_node2"><a xlink:href="classTHTree.xhtml#afa2f8a119819db01617199497c9327c3" target="_top" xlink:title="Add the Root node to the tree topology. ">
<polygon fill="none" stroke="black" points="131,-39.5 131,-59.5 259,-59.5 259,-39.5 131,-39.5"/>
<text text-anchor="middle" x="195" y="-46.7" font-family="Helvetica,sans-Serif" font-size="11.00">THTree::addRootNode</text>
</a>
</g>
</g>
<!-- Node1&#45;&gt;Node2 -->
<g id="edge1" class="edge"><title>Node1&#45;&gt;Node2</title>
<path fill="none" stroke="midnightblue" d="M105.345,-37.3137C113.693,-38.4613 122.336,-39.6493 130.803,-40.8131"/>
<polygon fill="midnightblue" stroke="midnightblue" points="105.722,-33.8327 95.338,-35.9382 104.768,-40.7675 105.722,-33.8327"/>
</g>
<!-- Node3 -->
<g id="node3" class="node"><title>Node3</title>
<g id="a_node3"><a xlink:href="classTHTree.xhtml#a4dd1e98529fdd21abe3ebbb685184ffd" target="_top" xlink:title="Add a child node to the tree topology. ">
<polygon fill="none" stroke="black" points="143,-0.5 143,-20.5 247,-20.5 247,-0.5 143,-0.5"/>
<text text-anchor="middle" x="195" y="-7.7" font-family="Helvetica,sans-Serif" font-size="11.00">THTree::addNode</text>
</a>
</g>
</g>
<!-- Node1&#45;&gt;Node3 -->
<g id="edge2" class="edge"><title>Node1&#45;&gt;Node3</title>
<path fill="none" stroke="midnightblue" d="M105.531,-22.0527C117.882,-20.4398 130.869,-18.7439 142.972,-17.1634"/>
<polygon fill="midnightblue" stroke="midnightblue" points="104.801,-18.6182 95.338,-23.3837 105.707,-25.5593 104.801,-18.6182"/>
</g>
</g>
</svg>
