<?xml version="1.0" encoding="UTF-8" standalone="no"?>
<!DOCTYPE svg PUBLIC "-//W3C//DTD SVG 1.1//EN"
 "http://www.w3.org/Graphics/SVG/1.1/DTD/svg11.dtd">
<!-- Generated by graphviz version 2.38.0 (20140413.2041)
 -->
<!-- Title: t_node::getParent Pages: 1 -->
<svg width="450pt" height="125pt"
 viewBox="0.00 0.00 450.00 125.00" xmlns="http://www.w3.org/2000/svg" xmlns:xlink="http://www.w3.org/1999/xlink">
<g id="graph0" class="graph" transform="scale(1 1) rotate(0) translate(4 121)">
<title>t_node::getParent</title>
<!-- Node1 -->
<g id="node1" class="node"><title>Node1</title>
<polygon fill="#bfbfbf" stroke="black" points="0,-45.5 0,-65.5 103,-65.5 103,-45.5 0,-45.5"/>
<text text-anchor="middle" x="51.5" y="-52.7" font-family="Helvetica,sans-Serif" font-size="11.00">t_node::getParent</text>
</g>
<!-- Node2 -->
<g id="node2" class="node"><title>Node2</title>
<g id="a_node2"><a xlink:href="classGroupRegionSelectionPolicy.xhtml#a28a39331dafaa273d30bef8f0da9e4fb" target="_top" xlink:title="Method responsible for choosing one &quot;anchor&quot; sub&#45;region according to the TH instance&#39;s ID...">
<polygon fill="none" stroke="black" points="139,-84.5 139,-116.5 293,-116.5 293,-84.5 139,-84.5"/>
<text text-anchor="start" x="147" y="-103.7" font-family="Helvetica,sans-Serif" font-size="11.00">GroupRegionSelectionPolicy</text>
<text text-anchor="middle" x="216" y="-91.7" font-family="Helvetica,sans-Serif" font-size="11.00">::apply</text>
</a>
</g>
</g>
<!-- Node1&#45;&gt;Node2 -->
<g id="edge1" class="edge"><title>Node1&#45;&gt;Node2</title>
<path fill="none" stroke="midnightblue" d="M98.7113,-68.297C116.836,-73.3161 137.838,-79.1322 156.966,-84.4292"/>
<polygon fill="midnightblue" stroke="midnightblue" points="99.5396,-64.8947 88.9682,-65.5989 97.6714,-71.6408 99.5396,-64.8947"/>
</g>
<!-- Node3 -->
<g id="node3" class="node"><title>Node3</title>
<g id="a_node3"><a xlink:href="classTHTree.xhtml#a55e0aa391cbe6e293ed811b26fd4f380" target="_top" xlink:title="THTree::getParent">
<polygon fill="none" stroke="black" points="162.5,-45.5 162.5,-65.5 269.5,-65.5 269.5,-45.5 162.5,-45.5"/>
<text text-anchor="middle" x="216" y="-52.7" font-family="Helvetica,sans-Serif" font-size="11.00">THTree::getParent</text>
</a>
</g>
</g>
<!-- Node1&#45;&gt;Node3 -->
<g id="edge2" class="edge"><title>Node1&#45;&gt;Node3</title>
<path fill="none" stroke="midnightblue" d="M113.391,-55.5C129.459,-55.5 146.661,-55.5 162.258,-55.5"/>
<polygon fill="midnightblue" stroke="midnightblue" points="113.025,-52.0001 103.025,-55.5 113.025,-59.0001 113.025,-52.0001"/>
</g>
<!-- Node4 -->
<g id="node4" class="node"><title>Node4</title>
<g id="a_node4"><a xlink:href="classTHTree.xhtml#a6c74633149823f9a6a7ecec871e046d0" target="_top" xlink:title="THTree::getParentID">
<polygon fill="none" stroke="black" points="156.5,-6.5 156.5,-26.5 275.5,-26.5 275.5,-6.5 156.5,-6.5"/>
<text text-anchor="middle" x="216" y="-13.7" font-family="Helvetica,sans-Serif" font-size="11.00">THTree::getParentID</text>
</a>
</g>
</g>
<!-- Node1&#45;&gt;Node4 -->
<g id="edge3" class="edge"><title>Node1&#45;&gt;Node4</title>
<path fill="none" stroke="midnightblue" d="M104.313,-43.0649C126.588,-37.719 152.275,-31.5539 173.294,-26.5094"/>
<polygon fill="midnightblue" stroke="midnightblue" points="103.255,-39.7194 94.3478,-45.4565 104.888,-46.5261 103.255,-39.7194"/>
</g>
<!-- Node5 -->
<g id="node5" class="node"><title>Node5</title>
<g id="a_node5"><a xlink:href="classTHBuilder_1_1THImpl.xhtml#a0d6e2fd43f50755ff2738e924f66690d" target="_top" xlink:title="THBuilder::THImpl::\lTHImpl">
<polygon fill="none" stroke="black" points="329,-0.5 329,-32.5 442,-32.5 442,-0.5 329,-0.5"/>
<text text-anchor="start" x="337" y="-19.7" font-family="Helvetica,sans-Serif" font-size="11.00">THBuilder::THImpl::</text>
<text text-anchor="middle" x="385.5" y="-7.7" font-family="Helvetica,sans-Serif" font-size="11.00">THImpl</text>
</a>
</g>
</g>
<!-- Node4&#45;&gt;Node5 -->
<g id="edge4" class="edge"><title>Node4&#45;&gt;Node5</title>
<path fill="none" stroke="midnightblue" d="M285.854,-16.5C300.139,-16.5 315.021,-16.5 328.765,-16.5"/>
<polygon fill="midnightblue" stroke="midnightblue" points="285.583,-13.0001 275.583,-16.5 285.583,-20.0001 285.583,-13.0001"/>
</g>
</g>
</svg>
