<?xml version="1.0" encoding="UTF-8" standalone="no"?>
<!DOCTYPE svg PUBLIC "-//W3C//DTD SVG 1.1//EN"
 "http://www.w3.org/Graphics/SVG/1.1/DTD/svg11.dtd">
<!-- Generated by graphviz version 2.38.0 (20140413.2041)
 -->
<!-- Title: t_node::isLeaf Pages: 1 -->
<svg width="256pt" height="80pt"
 viewBox="0.00 0.00 256.00 80.00" xmlns="http://www.w3.org/2000/svg" xmlns:xlink="http://www.w3.org/1999/xlink">
<g id="graph0" class="graph" transform="scale(1 1) rotate(0) translate(4 76)">
<title>t_node::isLeaf</title>
<!-- Node1 -->
<g id="node1" class="node"><title>Node1</title>
<polygon fill="#bfbfbf" stroke="black" points="0,-22.5 0,-42.5 84,-42.5 84,-22.5 0,-22.5"/>
<text text-anchor="middle" x="42" y="-29.7" font-family="Helvetica,sans-Serif" font-size="11.00">t_node::isLeaf</text>
</g>
<!-- Node2 -->
<g id="node2" class="node"><title>Node2</title>
<g id="a_node2"><a xlink:href="classTHBuilder_1_1THImpl.xhtml#a0d6e2fd43f50755ff2738e924f66690d" target="_top" xlink:title="THBuilder::THImpl::\lTHImpl">
<polygon fill="none" stroke="black" points="127.5,-39.5 127.5,-71.5 240.5,-71.5 240.5,-39.5 127.5,-39.5"/>
<text text-anchor="start" x="135.5" y="-58.7" font-family="Helvetica,sans-Serif" font-size="11.00">THBuilder::THImpl::</text>
<text text-anchor="middle" x="184" y="-46.7" font-family="Helvetica,sans-Serif" font-size="11.00">THImpl</text>
</a>
</g>
</g>
<!-- Node1&#45;&gt;Node2 -->
<g id="edge1" class="edge"><title>Node1&#45;&gt;Node2</title>
<path fill="none" stroke="midnightblue" d="M94.3003,-40.9279C105.025,-42.6899 116.382,-44.5557 127.26,-46.3427"/>
<polygon fill="midnightblue" stroke="midnightblue" points="94.6826,-37.4439 84.2474,-39.2764 93.5477,-44.3513 94.6826,-37.4439"/>
</g>
<!-- Node3 -->
<g id="node3" class="node"><title>Node3</title>
<g id="a_node3"><a xlink:href="classTHBuilder_1_1THImpl.xhtml#a943301db5154fd7b672119b5c9917303" target="_top" xlink:title="Starts the Treasure Hunt mechanisms. ">
<polygon fill="none" stroke="black" points="120,-0.5 120,-20.5 248,-20.5 248,-0.5 120,-0.5"/>
<text text-anchor="middle" x="184" y="-7.7" font-family="Helvetica,sans-Serif" font-size="11.00">THBuilder::THImpl::run</text>
</a>
</g>
</g>
<!-- Node1&#45;&gt;Node3 -->
<g id="edge2" class="edge"><title>Node1&#45;&gt;Node3</title>
<path fill="none" stroke="midnightblue" d="M94.2327,-24.4491C102.605,-23.1334 111.365,-21.757 119.982,-20.4029"/>
<polygon fill="midnightblue" stroke="midnightblue" points="93.5828,-21.0082 84.2474,-26.0183 94.6695,-27.9234 93.5828,-21.0082"/>
</g>
</g>
</svg>
