<?xml version="1.0" encoding="UTF-8" standalone="no"?>
<!DOCTYPE svg PUBLIC "-//W3C//DTD SVG 1.1//EN"
 "http://www.w3.org/Graphics/SVG/1.1/DTD/svg11.dtd">
<!-- Generated by graphviz version 2.38.0 (20140413.2041)
 -->
<!-- Title: t_node::getChildren Pages: 1 -->
<svg width="436pt" height="74pt"
 viewBox="0.00 0.00 436.00 74.00" xmlns="http://www.w3.org/2000/svg" xmlns:xlink="http://www.w3.org/1999/xlink">
<g id="graph0" class="graph" transform="scale(1 1) rotate(0) translate(4 70)">
<title>t_node::getChildren</title>
<!-- Node1 -->
<g id="node1" class="node"><title>Node1</title>
<polygon fill="#bfbfbf" stroke="black" points="0,-25.5 0,-45.5 111,-45.5 111,-25.5 0,-25.5"/>
<text text-anchor="middle" x="55.5" y="-32.7" font-family="Helvetica,sans-Serif" font-size="11.00">t_node::getChildren</text>
</g>
<!-- Node2 -->
<g id="node2" class="node"><title>Node2</title>
<g id="a_node2"><a xlink:href="classTHTree.xhtml#ae06947b1148e37c9ffd60081f190be31" target="_top" xlink:title="THTree::getChildren">
<polygon fill="none" stroke="black" points="155,-45.5 155,-65.5 271,-65.5 271,-45.5 155,-45.5"/>
<text text-anchor="middle" x="213" y="-52.7" font-family="Helvetica,sans-Serif" font-size="11.00">THTree::getChildren</text>
</a>
</g>
</g>
<!-- Node1&#45;&gt;Node2 -->
<g id="edge1" class="edge"><title>Node1&#45;&gt;Node2</title>
<path fill="none" stroke="midnightblue" d="M121.377,-43.8443C132.463,-45.2701 143.908,-46.7421 154.776,-48.14"/>
<polygon fill="midnightblue" stroke="midnightblue" points="121.688,-40.3556 111.323,-42.5513 120.795,-47.2984 121.688,-40.3556"/>
</g>
<!-- Node3 -->
<g id="node3" class="node"><title>Node3</title>
<g id="a_node3"><a xlink:href="classTHTree.xhtml#a8f5c9a86c21356c7072981e7fda37459" target="_top" xlink:title="THTree::getChildrenIDs">
<polygon fill="none" stroke="black" points="147,-6.5 147,-26.5 279,-26.5 279,-6.5 147,-6.5"/>
<text text-anchor="middle" x="213" y="-13.7" font-family="Helvetica,sans-Serif" font-size="11.00">THTree::getChildrenIDs</text>
</a>
</g>
</g>
<!-- Node1&#45;&gt;Node3 -->
<g id="edge2" class="edge"><title>Node1&#45;&gt;Node3</title>
<path fill="none" stroke="midnightblue" d="M121.412,-27.5686C129.789,-26.5451 138.37,-25.4966 146.752,-24.4724"/>
<polygon fill="midnightblue" stroke="midnightblue" points="120.825,-24.1142 111.323,-28.8013 121.674,-31.0625 120.825,-24.1142"/>
</g>
<!-- Node4 -->
<g id="node4" class="node"><title>Node4</title>
<g id="a_node4"><a xlink:href="classTHBuilder_1_1THImpl.xhtml#a0d6e2fd43f50755ff2738e924f66690d" target="_top" xlink:title="THBuilder::THImpl::\lTHImpl">
<polygon fill="none" stroke="black" points="315,-0.5 315,-32.5 428,-32.5 428,-0.5 315,-0.5"/>
<text text-anchor="start" x="323" y="-19.7" font-family="Helvetica,sans-Serif" font-size="11.00">THBuilder::THImpl::</text>
<text text-anchor="middle" x="371.5" y="-7.7" font-family="Helvetica,sans-Serif" font-size="11.00">THImpl</text>
</a>
</g>
</g>
<!-- Node3&#45;&gt;Node4 -->
<g id="edge3" class="edge"><title>Node3&#45;&gt;Node4</title>
<path fill="none" stroke="midnightblue" d="M289.147,-16.5C297.824,-16.5 306.551,-16.5 314.902,-16.5"/>
<polygon fill="midnightblue" stroke="midnightblue" points="289.011,-13.0001 279.01,-16.5 289.01,-20.0001 289.011,-13.0001"/>
</g>
</g>
</svg>
