<?xml version="1.0" encoding="UTF-8" standalone="no"?>
<!DOCTYPE svg PUBLIC "-//W3C//DTD SVG 1.1//EN"
 "http://www.w3.org/Graphics/SVG/1.1/DTD/svg11.dtd">
<!-- Generated by graphviz version 2.38.0 (20140413.2041)
 -->
<!-- Title: Fitness::equals Pages: 1 -->
<svg width="244pt" height="107pt"
 viewBox="0.00 0.00 244.00 107.00" xmlns="http://www.w3.org/2000/svg" xmlns:xlink="http://www.w3.org/1999/xlink">
<g id="graph0" class="graph" transform="scale(1 1) rotate(0) translate(4 103)">
<title>Fitness::equals</title>
<!-- Node1 -->
<g id="node1" class="node"><title>Node1</title>
<polygon fill="#bfbfbf" stroke="black" points="0,-39.5 0,-59.5 89,-59.5 89,-39.5 0,-39.5"/>
<text text-anchor="middle" x="44.5" y="-46.7" font-family="Helvetica,sans-Serif" font-size="11.00">Fitness::equals</text>
</g>
<!-- Node2 -->
<g id="node2" class="node"><title>Node2</title>
<g id="a_node2"><a xlink:href="structFitness.xhtml#acfc0528bc5ec716f1c06a58086c59b50" target="_top" xlink:title="Compares the current fitness with the fitness received. ">
<polygon fill="none" stroke="black" points="136,-78.5 136,-98.5 225,-98.5 225,-78.5 136,-78.5"/>
<text text-anchor="middle" x="180.5" y="-85.7" font-family="Helvetica,sans-Serif" font-size="11.00">Fitness::equals</text>
</a>
</g>
</g>
<!-- Node1&#45;&gt;Node2 -->
<g id="edge1" class="edge"><title>Node1&#45;&gt;Node2</title>
<path fill="none" stroke="midnightblue" d="M89.721,-62.3703C107.736,-67.6134 128.245,-73.5824 145.109,-78.4906"/>
<polygon fill="midnightblue" stroke="midnightblue" points="90.588,-58.9775 80.0083,-59.5435 88.6318,-65.6986 90.588,-58.9775"/>
</g>
<!-- Node3 -->
<g id="node3" class="node"><title>Node3</title>
<g id="a_node3"><a xlink:href="structFitness.xhtml#a87880c3a43c0bf6068c687d71e96bbfc" target="_top" xlink:title="Fitness::operator==">
<polygon fill="none" stroke="black" points="125,-39.5 125,-59.5 236,-59.5 236,-39.5 125,-39.5"/>
<text text-anchor="middle" x="180.5" y="-46.7" font-family="Helvetica,sans-Serif" font-size="11.00">Fitness::operator==</text>
</a>
</g>
</g>
<!-- Node1&#45;&gt;Node3 -->
<g id="edge2" class="edge"><title>Node1&#45;&gt;Node3</title>
<path fill="none" stroke="midnightblue" d="M99.1713,-49.5C107.658,-49.5 116.441,-49.5 124.947,-49.5"/>
<polygon fill="midnightblue" stroke="midnightblue" points="99.006,-46.0001 89.006,-49.5 99.0059,-53.0001 99.006,-46.0001"/>
</g>
<!-- Node4 -->
<g id="node4" class="node"><title>Node4</title>
<g id="a_node4"><a xlink:href="structFitness.xhtml#a4cab5f7960366b61b34213efc89a4288" target="_top" xlink:title="Fitness::operator!=">
<polygon fill="none" stroke="black" points="127,-0.5 127,-20.5 234,-20.5 234,-0.5 127,-0.5"/>
<text text-anchor="middle" x="180.5" y="-7.7" font-family="Helvetica,sans-Serif" font-size="11.00">Fitness::operator!=</text>
</a>
</g>
</g>
<!-- Node1&#45;&gt;Node4 -->
<g id="edge3" class="edge"><title>Node1&#45;&gt;Node4</title>
<path fill="none" stroke="midnightblue" d="M89.721,-36.6297C107.736,-31.3866 128.245,-25.4176 145.109,-20.5094"/>
<polygon fill="midnightblue" stroke="midnightblue" points="88.6318,-33.3014 80.0083,-39.4565 90.588,-40.0225 88.6318,-33.3014"/>
</g>
</g>
</svg>
