<?xml version="1.0" encoding="UTF-8" standalone="no"?>
<!DOCTYPE svg PUBLIC "-//W3C//DTD SVG 1.1//EN"
 "http://www.w3.org/Graphics/SVG/1.1/DTD/svg11.dtd">
<!-- Generated by graphviz version 2.38.0 (20140413.2041)
 -->
<!-- Title: t_node::hasParent Pages: 1 -->
<svg width="598pt" height="173pt"
 viewBox="0.00 0.00 598.00 173.42" xmlns="http://www.w3.org/2000/svg" xmlns:xlink="http://www.w3.org/1999/xlink">
<g id="graph0" class="graph" transform="scale(1 1) rotate(0) translate(4 169.418)">
<title>t_node::hasParent</title>
<!-- Node1 -->
<g id="node1" class="node"><title>Node1</title>
<polygon fill="#bfbfbf" stroke="black" points="0,-95.5 0,-115.5 105,-115.5 105,-95.5 0,-95.5"/>
<text text-anchor="middle" x="52.5" y="-102.7" font-family="Helvetica,sans-Serif" font-size="11.00">t_node::hasParent</text>
</g>
<!-- Node2 -->
<g id="node2" class="node"><title>Node2</title>
<g id="a_node2"><a xlink:href="classTHBuilder_1_1THImpl.xhtml#a0d6e2fd43f50755ff2738e924f66690d" target="_top" xlink:title="THBuilder::THImpl::\lTHImpl">
<polygon fill="none" stroke="black" points="477,-73.5 477,-105.5 590,-105.5 590,-73.5 477,-73.5"/>
<text text-anchor="start" x="485" y="-92.7" font-family="Helvetica,sans-Serif" font-size="11.00">THBuilder::THImpl::</text>
<text text-anchor="middle" x="533.5" y="-80.7" font-family="Helvetica,sans-Serif" font-size="11.00">THImpl</text>
</a>
</g>
</g>
<!-- Node1&#45;&gt;Node2 -->
<g id="edge1" class="edge"><title>Node1&#45;&gt;Node2</title>
<path fill="none" stroke="midnightblue" d="M75.0604,-121.727C91.9914,-133.4 116.693,-148.158 141,-154.5 269.501,-188.03 426.44,-134.22 496.146,-105.583"/>
<polygon fill="midnightblue" stroke="midnightblue" points="76.6811,-118.584 66.5057,-115.633 72.6195,-124.285 76.6811,-118.584"/>
</g>
<!-- Node3 -->
<g id="node3" class="node"><title>Node3</title>
<g id="a_node3"><a xlink:href="classTHBuilder_1_1THImpl.xhtml#a844f4c665317e9c6e1d6af6b10081a60" target="_top" xlink:title="THBuilder::THImpl::\l~THImpl">
<polygon fill="none" stroke="black" points="148.5,-112.5 148.5,-144.5 261.5,-144.5 261.5,-112.5 148.5,-112.5"/>
<text text-anchor="start" x="156.5" y="-131.7" font-family="Helvetica,sans-Serif" font-size="11.00">THBuilder::THImpl::</text>
<text text-anchor="middle" x="205" y="-119.7" font-family="Helvetica,sans-Serif" font-size="11.00">~THImpl</text>
</a>
</g>
</g>
<!-- Node1&#45;&gt;Node3 -->
<g id="edge2" class="edge"><title>Node1&#45;&gt;Node3</title>
<path fill="none" stroke="midnightblue" d="M115.205,-114.93C126.149,-116.603 137.488,-118.335 148.255,-119.981"/>
<polygon fill="midnightblue" stroke="midnightblue" points="115.708,-111.466 105.294,-113.415 114.65,-118.386 115.708,-111.466"/>
</g>
<!-- Node4 -->
<g id="node4" class="node"><title>Node4</title>
<g id="a_node4"><a xlink:href="classTHBuilder_1_1THImpl.xhtml#a943301db5154fd7b672119b5c9917303" target="_top" xlink:title="Starts the Treasure Hunt mechanisms. ">
<polygon fill="none" stroke="black" points="141,-73.5 141,-93.5 269,-93.5 269,-73.5 141,-73.5"/>
<text text-anchor="middle" x="205" y="-80.7" font-family="Helvetica,sans-Serif" font-size="11.00">THBuilder::THImpl::run</text>
</a>
</g>
</g>
<!-- Node1&#45;&gt;Node4 -->
<g id="edge3" class="edge"><title>Node1&#45;&gt;Node4</title>
<path fill="none" stroke="midnightblue" d="M115.421,-96.4484C123.842,-95.2175 132.492,-93.953 140.932,-92.7192"/>
<polygon fill="midnightblue" stroke="midnightblue" points="114.682,-93.0191 105.294,-97.9288 115.695,-99.9455 114.682,-93.0191"/>
</g>
<!-- Node5 -->
<g id="node5" class="node"><title>Node5</title>
<g id="a_node5"><a xlink:href="structt__node.xhtml#a8f72af855ca7d42a9680aca399524499" target="_top" xlink:title="t_node::isRoot">
<polygon fill="none" stroke="black" points="162,-34.5 162,-54.5 248,-54.5 248,-34.5 162,-34.5"/>
<text text-anchor="middle" x="205" y="-41.7" font-family="Helvetica,sans-Serif" font-size="11.00">t_node::isRoot</text>
</a>
</g>
</g>
<!-- Node1&#45;&gt;Node5 -->
<g id="edge4" class="edge"><title>Node1&#45;&gt;Node5</title>
<path fill="none" stroke="midnightblue" d="M81.5518,-90.6666C98.4808,-82.0619 120.646,-71.3996 141,-63.5 149.414,-60.2346 158.634,-57.1752 167.362,-54.5056"/>
<polygon fill="midnightblue" stroke="midnightblue" points="79.5318,-87.7699 72.2426,-95.4588 82.7357,-93.9937 79.5318,-87.7699"/>
</g>
<!-- Node5&#45;&gt;Node2 -->
<g id="edge9" class="edge"><title>Node5&#45;&gt;Node2</title>
<path fill="none" stroke="midnightblue" d="M257.184,-58.0768C261.261,-59.716 265.249,-61.5208 269,-63.5 287.171,-73.0879 285.624,-85.6665 305,-92.5 361.063,-112.272 429.836,-107.76 476.998,-100.683"/>
<polygon fill="midnightblue" stroke="midnightblue" points="258.17,-54.7107 247.577,-54.5479 255.757,-61.2814 258.17,-54.7107"/>
</g>
<!-- Node6 -->
<g id="node6" class="node"><title>Node6</title>
<g id="a_node6"><a xlink:href="classTHBuilder_1_1SearchGroup.xhtml#a794cf5448380674b51022b5d65a240e2" target="_top" xlink:title="Constructor to create the internal Search Group. ">
<polygon fill="none" stroke="black" points="305,-51.5 305,-83.5 441,-83.5 441,-51.5 305,-51.5"/>
<text text-anchor="start" x="313" y="-70.7" font-family="Helvetica,sans-Serif" font-size="11.00">THBuilder::SearchGroup</text>
<text text-anchor="middle" x="373" y="-58.7" font-family="Helvetica,sans-Serif" font-size="11.00">::SearchGroup</text>
</a>
</g>
</g>
<!-- Node5&#45;&gt;Node6 -->
<g id="edge5" class="edge"><title>Node5&#45;&gt;Node6</title>
<path fill="none" stroke="midnightblue" d="M258.288,-51.7448C273.08,-53.7942 289.386,-56.0535 304.92,-58.2058"/>
<polygon fill="midnightblue" stroke="midnightblue" points="258.704,-48.269 248.318,-50.3634 257.743,-55.2028 258.704,-48.269"/>
</g>
<!-- Node7 -->
<g id="node7" class="node"><title>Node7</title>
<g id="a_node7"><a xlink:href="classTHBuilder_1_1SearchGroup.xhtml#aafebb836a1ec681213319a024a254ca8" target="_top" xlink:title="Reset the location of the population individuals and calculate the fitness. ">
<polygon fill="none" stroke="black" points="305,-0.5 305,-32.5 441,-32.5 441,-0.5 305,-0.5"/>
<text text-anchor="start" x="313" y="-19.7" font-family="Helvetica,sans-Serif" font-size="11.00">THBuilder::SearchGroup</text>
<text text-anchor="middle" x="373" y="-7.7" font-family="Helvetica,sans-Serif" font-size="11.00">::resetPopulation</text>
</a>
</g>
</g>
<!-- Node5&#45;&gt;Node7 -->
<g id="edge7" class="edge"><title>Node5&#45;&gt;Node7</title>
<path fill="none" stroke="midnightblue" d="M258.288,-35.6803C273.08,-33.1853 289.386,-30.4348 304.92,-27.8147"/>
<polygon fill="midnightblue" stroke="midnightblue" points="257.597,-32.2474 248.318,-37.362 258.761,-39.1499 257.597,-32.2474"/>
</g>
<!-- Node6&#45;&gt;Node2 -->
<g id="edge6" class="edge"><title>Node6&#45;&gt;Node2</title>
<path fill="none" stroke="midnightblue" d="M451.247,-78.222C459.824,-79.4124 468.431,-80.6071 476.668,-81.7504"/>
<polygon fill="midnightblue" stroke="midnightblue" points="451.605,-74.7381 441.218,-76.83 450.642,-81.6717 451.605,-74.7381"/>
</g>
<!-- Node7&#45;&gt;Node2 -->
<g id="edge8" class="edge"><title>Node7&#45;&gt;Node2</title>
<path fill="none" stroke="midnightblue" d="M428.961,-36.364C433.06,-38.0415 437.11,-39.7624 441,-41.5 462.62,-51.1581 486.271,-63.618 504.111,-73.4226"/>
<polygon fill="midnightblue" stroke="midnightblue" points="429.95,-32.9903 419.364,-32.5412 427.359,-39.4934 429.95,-32.9903"/>
</g>
</g>
</svg>
