<?xml version="1.0" encoding="UTF-8" standalone="no"?>
<!DOCTYPE svg PUBLIC "-//W3C//DTD SVG 1.1//EN"
 "http://www.w3.org/Graphics/SVG/1.1/DTD/svg11.dtd">
<!-- Generated by graphviz version 2.38.0 (20140413.2041)
 -->
<!-- Title: Fitness::getFirstValue Pages: 1 -->
<svg width="329pt" height="92pt"
 viewBox="0.00 0.00 329.00 92.00" xmlns="http://www.w3.org/2000/svg" xmlns:xlink="http://www.w3.org/1999/xlink">
<g id="graph0" class="graph" transform="scale(1 1) rotate(0) translate(4 88)">
<title>Fitness::getFirstValue</title>
<!-- Node1 -->
<g id="node1" class="node"><title>Node1</title>
<polygon fill="#bfbfbf" stroke="black" points="0,-31.5 0,-51.5 121,-51.5 121,-31.5 0,-31.5"/>
<text text-anchor="middle" x="60.5" y="-38.7" font-family="Helvetica,sans-Serif" font-size="11.00">Fitness::getFirstValue</text>
</g>
<!-- Node2 -->
<g id="node2" class="node"><title>Node2</title>
<g id="a_node2"><a xlink:href="classRosenbrockFitnessPolicy.xhtml#ab5b19517a7d249ddfbc06f9045341014" target="_top" xlink:title="RosenbrockFitnessPolicy\l::firstIsBetter">
<polygon fill="none" stroke="black" points="170.5,-51.5 170.5,-83.5 307.5,-83.5 307.5,-51.5 170.5,-51.5"/>
<text text-anchor="start" x="178.5" y="-70.7" font-family="Helvetica,sans-Serif" font-size="11.00">RosenbrockFitnessPolicy</text>
<text text-anchor="middle" x="239" y="-58.7" font-family="Helvetica,sans-Serif" font-size="11.00">::firstIsBetter</text>
</a>
</g>
</g>
<!-- Node1&#45;&gt;Node2 -->
<g id="edge1" class="edge"><title>Node1&#45;&gt;Node2</title>
<path fill="none" stroke="midnightblue" d="M131.414,-51.799C144.255,-53.6905 157.637,-55.6618 170.407,-57.543"/>
<polygon fill="midnightblue" stroke="midnightblue" points="131.658,-48.2972 121.255,-50.3024 130.638,-55.2225 131.658,-48.2972"/>
</g>
<!-- Node3 -->
<g id="node3" class="node"><title>Node3</title>
<g id="a_node3"><a xlink:href="classReinforcementLearningSearchAlgorithmSelectionPolicy.xhtml#a90a40b83202cab6aee7c547d51f40105" target="_top" xlink:title="Rank the performance of the Search instance previously executed. ">
<polygon fill="none" stroke="black" points="157,-0.5 157,-32.5 321,-32.5 321,-0.5 157,-0.5"/>
<text text-anchor="start" x="165" y="-19.7" font-family="Helvetica,sans-Serif" font-size="11.00">ReinforcementLearningSearch</text>
<text text-anchor="middle" x="239" y="-7.7" font-family="Helvetica,sans-Serif" font-size="11.00">AlgorithmSelectionPolicy::rank</text>
</a>
</g>
</g>
<!-- Node1&#45;&gt;Node3 -->
<g id="edge2" class="edge"><title>Node1&#45;&gt;Node3</title>
<path fill="none" stroke="midnightblue" d="M131.298,-31.6135C139.644,-30.4315 148.219,-29.2169 156.708,-28.0144"/>
<polygon fill="midnightblue" stroke="midnightblue" points="130.665,-28.1682 121.255,-33.0361 131.647,-35.099 130.665,-28.1682"/>
</g>
</g>
</svg>
