<?xml version="1.0" encoding="UTF-8" standalone="no"?>
<!DOCTYPE svg PUBLIC "-//W3C//DTD SVG 1.1//EN"
 "http://www.w3.org/Graphics/SVG/1.1/DTD/svg11.dtd">
<!-- Generated by graphviz version 2.38.0 (20140413.2041)
 -->
<!-- Title: t_node::getID Pages: 1 -->
<svg width="394pt" height="41pt"
 viewBox="0.00 0.00 394.00 41.00" xmlns="http://www.w3.org/2000/svg" xmlns:xlink="http://www.w3.org/1999/xlink">
<g id="graph0" class="graph" transform="scale(1 1) rotate(0) translate(4 37)">
<title>t_node::getID</title>
<!-- Node1 -->
<g id="node1" class="node"><title>Node1</title>
<polygon fill="#bfbfbf" stroke="black" points="0,-6.5 0,-26.5 82,-26.5 82,-6.5 0,-6.5"/>
<text text-anchor="middle" x="41" y="-13.7" font-family="Helvetica,sans-Serif" font-size="11.00">t_node::getID</text>
</g>
<!-- Node2 -->
<g id="node2" class="node"><title>Node2</title>
<g id="a_node2"><a xlink:href="classTHTree.xhtml#a6c74633149823f9a6a7ecec871e046d0" target="_top" xlink:title="THTree::getParentID">
<polygon fill="none" stroke="black" points="118,-6.5 118,-26.5 237,-26.5 237,-6.5 118,-6.5"/>
<text text-anchor="middle" x="177.5" y="-13.7" font-family="Helvetica,sans-Serif" font-size="11.00">THTree::getParentID</text>
</a>
</g>
</g>
<!-- Node1&#45;&gt;Node2 -->
<g id="edge1" class="edge"><title>Node1&#45;&gt;Node2</title>
<path fill="none" stroke="midnightblue" d="M92.5497,-16.5C100.781,-16.5 109.368,-16.5 117.775,-16.5"/>
<polygon fill="midnightblue" stroke="midnightblue" points="92.3545,-13.0001 82.3544,-16.5 92.3544,-20.0001 92.3545,-13.0001"/>
</g>
<!-- Node3 -->
<g id="node3" class="node"><title>Node3</title>
<g id="a_node3"><a xlink:href="classTHBuilder_1_1THImpl.xhtml#a0d6e2fd43f50755ff2738e924f66690d" target="_top" xlink:title="THBuilder::THImpl::\lTHImpl">
<polygon fill="none" stroke="black" points="273,-0.5 273,-32.5 386,-32.5 386,-0.5 273,-0.5"/>
<text text-anchor="start" x="281" y="-19.7" font-family="Helvetica,sans-Serif" font-size="11.00">THBuilder::THImpl::</text>
<text text-anchor="middle" x="329.5" y="-7.7" font-family="Helvetica,sans-Serif" font-size="11.00">THImpl</text>
</a>
</g>
</g>
<!-- Node2&#45;&gt;Node3 -->
<g id="edge2" class="edge"><title>Node2&#45;&gt;Node3</title>
<path fill="none" stroke="midnightblue" d="M247.568,-16.5C256.008,-16.5 264.547,-16.5 272.757,-16.5"/>
<polygon fill="midnightblue" stroke="midnightblue" points="247.353,-13.0001 237.353,-16.5 247.353,-20.0001 247.353,-13.0001"/>
</g>
</g>
</svg>
