<?xml version="1.0" encoding="UTF-8" standalone="no"?>
<!DOCTYPE svg PUBLIC "-//W3C//DTD SVG 1.1//EN"
 "http://www.w3.org/Graphics/SVG/1.1/DTD/svg11.dtd">
<!-- Generated by graphviz version 2.38.0 (20140413.2041)
 -->
<!-- Title: Position::sub Pages: 1 -->
<svg width="272pt" height="68pt"
 viewBox="0.00 0.00 272.00 68.00" xmlns="http://www.w3.org/2000/svg" xmlns:xlink="http://www.w3.org/1999/xlink">
<g id="graph0" class="graph" transform="scale(1 1) rotate(0) translate(4 64)">
<title>Position::sub</title>
<!-- Node1 -->
<g id="node1" class="node"><title>Node1</title>
<polygon fill="#bfbfbf" stroke="black" points="0,-19.5 0,-39.5 78,-39.5 78,-19.5 0,-19.5"/>
<text text-anchor="middle" x="39" y="-26.7" font-family="Helvetica,sans-Serif" font-size="11.00">Position::sub</text>
</g>
<!-- Node2 -->
<g id="node2" class="node"><title>Node2</title>
<g id="a_node2"><a xlink:href="structPosition.xhtml#ac9d8d79414e34bd4486b8fc047cdb5bd" target="_top" xlink:title="Position::checkCompatibility">
<polygon fill="none" stroke="black" points="114,-39.5 114,-59.5 264,-59.5 264,-39.5 114,-39.5"/>
<text text-anchor="middle" x="189" y="-46.7" font-family="Helvetica,sans-Serif" font-size="11.00">Position::checkCompatibility</text>
</a>
</g>
</g>
<!-- Node1&#45;&gt;Node2 -->
<g id="edge1" class="edge"><title>Node1&#45;&gt;Node2</title>
<path fill="none" stroke="midnightblue" d="M78.1137,-34.6505C86.0789,-35.7269 94.776,-36.9022 103.676,-38.1049"/>
<polygon fill="midnightblue" stroke="midnightblue" points="103.405,-41.5999 113.783,-39.4707 104.342,-34.663 103.405,-41.5999"/>
</g>
<!-- Node3 -->
<g id="node3" class="node"><title>Node3</title>
<g id="a_node3"><a xlink:href="structPosition.xhtml#a4099812c9395b6dbe03ca8d25f7ae7fc" target="_top" xlink:title="Math method that subtracts the value received from each value in the list that represents the Positio...">
<polygon fill="none" stroke="black" points="150,-0.5 150,-20.5 228,-20.5 228,-0.5 150,-0.5"/>
<text text-anchor="middle" x="189" y="-7.7" font-family="Helvetica,sans-Serif" font-size="11.00">Position::sub</text>
</a>
</g>
</g>
<!-- Node1&#45;&gt;Node3 -->
<g id="edge2" class="edge"><title>Node1&#45;&gt;Node3</title>
<path fill="none" stroke="midnightblue" d="M78.1137,-24.607C96.8577,-22.2007 119.655,-19.274 139.615,-16.7115"/>
<polygon fill="midnightblue" stroke="midnightblue" points="140.286,-20.1543 149.759,-15.4094 139.394,-13.2113 140.286,-20.1543"/>
</g>
</g>
</svg>
