<?xml version="1.0" encoding="UTF-8" standalone="no"?>
<!DOCTYPE svg PUBLIC "-//W3C//DTD SVG 1.1//EN"
 "http://www.w3.org/Graphics/SVG/1.1/DTD/svg11.dtd">
<!-- Generated by graphviz version 2.38.0 (20140413.2041)
 -->
<!-- Title: src/TH/TH.h Pages: 1 -->
<svg width="1294pt" height="371pt"
 viewBox="0.00 0.00 1294.00 371.00" xmlns="http://www.w3.org/2000/svg" xmlns:xlink="http://www.w3.org/1999/xlink">
<g id="graph0" class="graph" transform="scale(1 1) rotate(0) translate(4 367)">
<title>src/TH/TH.h</title>
<!-- Node1 -->
<g id="node1" class="node"><title>Node1</title>
<polygon fill="#bfbfbf" stroke="black" points="392,-342.5 392,-362.5 468,-362.5 468,-342.5 392,-342.5"/>
<text text-anchor="middle" x="430" y="-349.7" font-family="Helvetica,sans-Serif" font-size="11.00">src/TH/TH.h</text>
</g>
<!-- Node2 -->
<g id="node2" class="node"><title>Node2</title>
<g id="a_node2"><a xlink:href="Solution_8h.xhtml" target="_top" xlink:title="Solution.h">
<polygon fill="none" stroke="black" points="337.5,-228.5 337.5,-248.5 402.5,-248.5 402.5,-228.5 337.5,-228.5"/>
<text text-anchor="middle" x="370" y="-235.7" font-family="Helvetica,sans-Serif" font-size="11.00">Solution.h</text>
</a>
</g>
</g>
<!-- Node1&#45;&gt;Node2 -->
<g id="edge1" class="edge"><title>Node1&#45;&gt;Node2</title>
<path fill="none" stroke="midnightblue" d="M419.439,-342.408C410.16,-333.88 396.935,-320.324 389,-306 380.818,-291.23 375.892,-272.62 373.113,-258.846"/>
<polygon fill="midnightblue" stroke="midnightblue" points="376.485,-257.821 371.26,-248.604 369.597,-259.068 376.485,-257.821"/>
</g>
<!-- Node26 -->
<g id="node26" class="node"><title>Node26</title>
<polygon fill="none" stroke="#bfbfbf" points="912.5,-171.5 912.5,-191.5 955.5,-191.5 955.5,-171.5 912.5,-171.5"/>
<text text-anchor="middle" x="934" y="-178.7" font-family="Helvetica,sans-Serif" font-size="11.00">mpi.h</text>
</g>
<!-- Node1&#45;&gt;Node26 -->
<g id="edge37" class="edge"><title>Node1&#45;&gt;Node26</title>
<path fill="none" stroke="midnightblue" d="M457.097,-342.414C543.318,-313.502 811.018,-223.738 902.771,-192.972"/>
<polygon fill="midnightblue" stroke="midnightblue" points="903.96,-196.264 912.329,-189.767 901.735,-189.628 903.96,-196.264"/>
</g>
<!-- Node28 -->
<g id="node28" class="node"><title>Node28</title>
<g id="a_node28"><a xlink:href="BestList_8h.xhtml" target="_top" xlink:title="BestList.h">
<polygon fill="none" stroke="black" points="398,-285.5 398,-305.5 462,-305.5 462,-285.5 398,-285.5"/>
<text text-anchor="middle" x="430" y="-292.7" font-family="Helvetica,sans-Serif" font-size="11.00">BestList.h</text>
</a>
</g>
</g>
<!-- Node1&#45;&gt;Node28 -->
<g id="edge35" class="edge"><title>Node1&#45;&gt;Node28</title>
<path fill="none" stroke="midnightblue" d="M430,-342.418C430,-335.216 430,-324.896 430,-315.863"/>
<polygon fill="midnightblue" stroke="midnightblue" points="433.5,-315.779 430,-305.779 426.5,-315.779 433.5,-315.779"/>
</g>
<!-- Node3 -->
<g id="node3" class="node"><title>Node3</title>
<g id="a_node3"><a xlink:href="ConstraintViolation_8h.xhtml" target="_top" xlink:title="ConstraintViolation.h">
<polygon fill="none" stroke="black" points="78,-171.5 78,-191.5 194,-191.5 194,-171.5 78,-171.5"/>
<text text-anchor="middle" x="136" y="-178.7" font-family="Helvetica,sans-Serif" font-size="11.00">ConstraintViolation.h</text>
</a>
</g>
</g>
<!-- Node2&#45;&gt;Node3 -->
<g id="edge2" class="edge"><title>Node2&#45;&gt;Node3</title>
<path fill="none" stroke="midnightblue" d="M337.463,-229.852C297.768,-220.522 230.299,-204.664 184.48,-193.895"/>
<polygon fill="midnightblue" stroke="midnightblue" points="185.012,-190.425 174.476,-191.544 183.41,-197.239 185.012,-190.425"/>
</g>
<!-- Node4 -->
<g id="node4" class="node"><title>Node4</title>
<polygon fill="none" stroke="#bfbfbf" points="114,-114.5 114,-134.5 176,-134.5 176,-114.5 114,-114.5"/>
<text text-anchor="middle" x="145" y="-121.7" font-family="Helvetica,sans-Serif" font-size="11.00">stdexcept</text>
</g>
<!-- Node2&#45;&gt;Node4 -->
<g id="edge33" class="edge"><title>Node2&#45;&gt;Node4</title>
<path fill="none" stroke="midnightblue" d="M337.475,-228.658C310.781,-220.789 272.403,-208.049 241,-192 212.479,-177.424 182.6,-155.513 163.9,-140.871"/>
<polygon fill="midnightblue" stroke="midnightblue" points="165.914,-138 155.907,-134.519 161.559,-143.481 165.914,-138"/>
</g>
<!-- Node5 -->
<g id="node5" class="node"><title>Node5</title>
<g id="a_node5"><a xlink:href="Position_8h.xhtml" target="_top" xlink:title="Position.h">
<polygon fill="none" stroke="black" points="250,-171.5 250,-191.5 314,-191.5 314,-171.5 250,-171.5"/>
<text text-anchor="middle" x="282" y="-178.7" font-family="Helvetica,sans-Serif" font-size="11.00">Position.h</text>
</a>
</g>
</g>
<!-- Node2&#45;&gt;Node5 -->
<g id="edge4" class="edge"><title>Node2&#45;&gt;Node5</title>
<path fill="none" stroke="midnightblue" d="M355.469,-228.418C341.839,-219.899 321.226,-207.017 305.3,-197.063"/>
<polygon fill="midnightblue" stroke="midnightblue" points="306.888,-193.928 296.553,-191.596 303.178,-199.864 306.888,-193.928"/>
</g>
<!-- Node6 -->
<g id="node6" class="node"><title>Node6</title>
<polygon fill="none" stroke="#bfbfbf" points="203.5,-114.5 203.5,-134.5 246.5,-134.5 246.5,-114.5 203.5,-114.5"/>
<text text-anchor="middle" x="225" y="-121.7" font-family="Helvetica,sans-Serif" font-size="11.00">string</text>
</g>
<!-- Node2&#45;&gt;Node6 -->
<g id="edge34" class="edge"><title>Node2&#45;&gt;Node6</title>
<path fill="none" stroke="midnightblue" d="M365.442,-228.174C358.179,-214.138 342.761,-187.479 323,-171 303.315,-154.584 276.725,-142.73 256.208,-135.244"/>
<polygon fill="midnightblue" stroke="midnightblue" points="257.276,-131.91 246.682,-131.919 254.97,-138.519 257.276,-131.91"/>
</g>
<!-- Node7 -->
<g id="node7" class="node"><title>Node7</title>
<g id="a_node7"><a xlink:href="Fitness_8h.xhtml" target="_top" xlink:title="Fitness.h">
<polygon fill="none" stroke="black" points="0,-171.5 0,-191.5 60,-191.5 60,-171.5 0,-171.5"/>
<text text-anchor="middle" x="30" y="-178.7" font-family="Helvetica,sans-Serif" font-size="11.00">Fitness.h</text>
</a>
</g>
</g>
<!-- Node2&#45;&gt;Node7 -->
<g id="edge7" class="edge"><title>Node2&#45;&gt;Node7</title>
<path fill="none" stroke="midnightblue" d="M337.32,-233.528C283.613,-226.791 173.153,-212.059 70.1205,-192.081"/>
<polygon fill="midnightblue" stroke="midnightblue" points="70.6616,-188.62 60.175,-190.131 69.3149,-195.489 70.6616,-188.62"/>
</g>
<!-- Node8 -->
<g id="node8" class="node"><title>Node8</title>
<g id="a_node8"><a xlink:href="Region_8h.xhtml" target="_top" xlink:title="Region.h">
<polygon fill="none" stroke="black" points="444,-171.5 444,-191.5 504,-191.5 504,-171.5 444,-171.5"/>
<text text-anchor="middle" x="474" y="-178.7" font-family="Helvetica,sans-Serif" font-size="11.00">Region.h</text>
</a>
</g>
</g>
<!-- Node2&#45;&gt;Node8 -->
<g id="edge9" class="edge"><title>Node2&#45;&gt;Node8</title>
<path fill="none" stroke="midnightblue" d="M387.173,-228.418C403.658,-219.7 428.784,-206.412 447.773,-196.37"/>
<polygon fill="midnightblue" stroke="midnightblue" points="449.597,-199.365 456.801,-191.596 446.325,-193.177 449.597,-199.365"/>
</g>
<!-- Node15 -->
<g id="node15" class="node"><title>Node15</title>
<g id="a_node15"><a xlink:href="THUtil_8h.xhtml" target="_top" xlink:title="THUtil.h">
<polygon fill="none" stroke="black" points="838,-171.5 838,-191.5 894,-191.5 894,-171.5 838,-171.5"/>
<text text-anchor="middle" x="866" y="-178.7" font-family="Helvetica,sans-Serif" font-size="11.00">THUtil.h</text>
</a>
</g>
</g>
<!-- Node2&#45;&gt;Node15 -->
<g id="edge18" class="edge"><title>Node2&#45;&gt;Node15</title>
<path fill="none" stroke="midnightblue" d="M402.544,-233.891C490.623,-224.124 733.373,-197.207 827.758,-186.74"/>
<polygon fill="midnightblue" stroke="midnightblue" points="828.179,-190.215 837.732,-185.635 827.407,-183.258 828.179,-190.215"/>
</g>
<!-- Node2&#45;&gt;Node26 -->
<g id="edge31" class="edge"><title>Node2&#45;&gt;Node26</title>
<path fill="none" stroke="midnightblue" d="M402.778,-237.111C485.305,-235.623 708.289,-228.443 902.371,-191.682"/>
<polygon fill="midnightblue" stroke="midnightblue" points="903.31,-195.066 912.468,-189.738 901.986,-188.192 903.31,-195.066"/>
</g>
<!-- Node27 -->
<g id="node27" class="node"><title>Node27</title>
<polygon fill="none" stroke="#bfbfbf" points="370.5,-171.5 370.5,-191.5 425.5,-191.5 425.5,-171.5 370.5,-171.5"/>
<text text-anchor="middle" x="398" y="-178.7" font-family="Helvetica,sans-Serif" font-size="11.00">stddef.h</text>
</g>
<!-- Node2&#45;&gt;Node27 -->
<g id="edge32" class="edge"><title>Node2&#45;&gt;Node27</title>
<path fill="none" stroke="midnightblue" d="M374.624,-228.418C378.411,-220.979 383.892,-210.212 388.595,-200.974"/>
<polygon fill="midnightblue" stroke="midnightblue" points="391.858,-202.279 393.276,-191.779 385.62,-199.103 391.858,-202.279"/>
</g>
<!-- Node3&#45;&gt;Node4 -->
<g id="edge3" class="edge"><title>Node3&#45;&gt;Node4</title>
<path fill="none" stroke="midnightblue" d="M137.486,-171.418C138.665,-164.216 140.353,-153.896 141.831,-144.863"/>
<polygon fill="midnightblue" stroke="midnightblue" points="145.321,-145.213 143.482,-134.779 138.413,-144.083 145.321,-145.213"/>
</g>
<!-- Node5&#45;&gt;Node4 -->
<g id="edge5" class="edge"><title>Node5&#45;&gt;Node4</title>
<path fill="none" stroke="midnightblue" d="M259.377,-171.418C236.968,-162.421 202.436,-148.558 177.175,-138.417"/>
<polygon fill="midnightblue" stroke="midnightblue" points="178.24,-135.073 167.656,-134.596 175.632,-141.569 178.24,-135.073"/>
</g>
<!-- Node5&#45;&gt;Node6 -->
<g id="edge6" class="edge"><title>Node5&#45;&gt;Node6</title>
<path fill="none" stroke="midnightblue" d="M272.588,-171.418C264.304,-163.425 252.039,-151.59 242.035,-141.938"/>
<polygon fill="midnightblue" stroke="midnightblue" points="244.243,-139.205 234.617,-134.779 239.383,-144.242 244.243,-139.205"/>
</g>
<!-- Node7&#45;&gt;Node4 -->
<g id="edge8" class="edge"><title>Node7&#45;&gt;Node4</title>
<path fill="none" stroke="midnightblue" d="M48.9899,-171.418C67.4676,-162.581 95.7648,-149.047 116.858,-138.959"/>
<polygon fill="midnightblue" stroke="midnightblue" points="118.471,-142.068 125.982,-134.596 115.45,-135.753 118.471,-142.068"/>
</g>
<!-- Node9 -->
<g id="node9" class="node"><title>Node9</title>
<g id="a_node9"><a xlink:href="Dimension_8h.xhtml" target="_top" xlink:title="Dimension.h">
<polygon fill="none" stroke="black" points="435.5,-114.5 435.5,-134.5 512.5,-134.5 512.5,-114.5 435.5,-114.5"/>
<text text-anchor="middle" x="474" y="-121.7" font-family="Helvetica,sans-Serif" font-size="11.00">Dimension.h</text>
</a>
</g>
</g>
<!-- Node8&#45;&gt;Node9 -->
<g id="edge10" class="edge"><title>Node8&#45;&gt;Node9</title>
<path fill="none" stroke="midnightblue" d="M474,-171.418C474,-164.216 474,-153.896 474,-144.863"/>
<polygon fill="midnightblue" stroke="midnightblue" points="477.5,-144.779 474,-134.779 470.5,-144.779 477.5,-144.779"/>
</g>
<!-- Node10 -->
<g id="node10" class="node"><title>Node10</title>
<g id="a_node10"><a xlink:href="Partition_8h.xhtml" target="_top" xlink:title="Partition.h">
<polygon fill="none" stroke="black" points="438.5,-57.5 438.5,-77.5 503.5,-77.5 503.5,-57.5 438.5,-57.5"/>
<text text-anchor="middle" x="471" y="-64.7" font-family="Helvetica,sans-Serif" font-size="11.00">Partition.h</text>
</a>
</g>
</g>
<!-- Node8&#45;&gt;Node10 -->
<g id="edge13" class="edge"><title>Node8&#45;&gt;Node10</title>
<path fill="none" stroke="midnightblue" d="M443.706,-173.09C392.723,-160.586 295.17,-136.502 294,-135 256.842,-87.2805 364.849,-73.8035 428.318,-69.9976"/>
<polygon fill="midnightblue" stroke="midnightblue" points="428.675,-73.4835 438.471,-69.4477 428.296,-66.4938 428.675,-73.4835"/>
</g>
<!-- Node11 -->
<g id="node11" class="node"><title>Node11</title>
<polygon fill="none" stroke="#bfbfbf" points="508.5,-0.5 508.5,-20.5 555.5,-20.5 555.5,-0.5 508.5,-0.5"/>
<text text-anchor="middle" x="532" y="-7.7" font-family="Helvetica,sans-Serif" font-size="11.00">cstdlib</text>
</g>
<!-- Node8&#45;&gt;Node11 -->
<g id="edge15" class="edge"><title>Node8&#45;&gt;Node11</title>
<path fill="none" stroke="midnightblue" d="M487.728,-171.465C498.788,-163.353 513.664,-150.375 521,-135 537.159,-101.137 536.413,-56.1333 534.291,-30.8584"/>
<polygon fill="midnightblue" stroke="midnightblue" points="537.757,-30.3449 533.275,-20.7448 530.792,-31.0445 537.757,-30.3449"/>
</g>
<!-- Node12 -->
<g id="node12" class="node"><title>Node12</title>
<polygon fill="none" stroke="#bfbfbf" points="303,-114.5 303,-134.5 341,-134.5 341,-114.5 303,-114.5"/>
<text text-anchor="middle" x="322" y="-121.7" font-family="Helvetica,sans-Serif" font-size="11.00">map</text>
</g>
<!-- Node8&#45;&gt;Node12 -->
<g id="edge14" class="edge"><title>Node8&#45;&gt;Node12</title>
<path fill="none" stroke="midnightblue" d="M448.9,-171.418C422.015,-161.69 379.402,-146.271 351.076,-136.021"/>
<polygon fill="midnightblue" stroke="midnightblue" points="351.937,-132.61 341.343,-132.499 349.555,-139.193 351.937,-132.61"/>
</g>
<!-- Node13 -->
<g id="node13" class="node"><title>Node13</title>
<polygon fill="none" stroke="#bfbfbf" points="560.5,-57.5 560.5,-77.5 615.5,-77.5 615.5,-57.5 560.5,-57.5"/>
<text text-anchor="middle" x="588" y="-64.7" font-family="Helvetica,sans-Serif" font-size="11.00">sstream</text>
</g>
<!-- Node8&#45;&gt;Node13 -->
<g id="edge16" class="edge"><title>Node8&#45;&gt;Node13</title>
<path fill="none" stroke="midnightblue" d="M498.497,-171.346C516.028,-163.788 539.224,-151.604 555,-135 567.875,-121.449 576.753,-101.908 582.031,-87.5142"/>
<polygon fill="midnightblue" stroke="midnightblue" points="585.465,-88.2889 585.372,-77.6945 578.838,-86.0343 585.465,-88.2889"/>
</g>
<!-- Node14 -->
<g id="node14" class="node"><title>Node14</title>
<polygon fill="none" stroke="#bfbfbf" points="359,-114.5 359,-134.5 417,-134.5 417,-114.5 359,-114.5"/>
<text text-anchor="middle" x="388" y="-121.7" font-family="Helvetica,sans-Serif" font-size="11.00">iostream</text>
</g>
<!-- Node8&#45;&gt;Node14 -->
<g id="edge17" class="edge"><title>Node8&#45;&gt;Node14</title>
<path fill="none" stroke="midnightblue" d="M459.799,-171.418C446.479,-162.899 426.335,-150.017 410.771,-140.063"/>
<polygon fill="midnightblue" stroke="midnightblue" points="412.532,-137.035 402.222,-134.596 408.761,-142.932 412.532,-137.035"/>
</g>
<!-- Node9&#45;&gt;Node10 -->
<g id="edge11" class="edge"><title>Node9&#45;&gt;Node10</title>
<path fill="none" stroke="midnightblue" d="M473.505,-114.418C473.112,-107.216 472.549,-96.8962 472.056,-87.8632"/>
<polygon fill="midnightblue" stroke="midnightblue" points="475.546,-87.574 471.506,-77.7795 468.556,-87.9553 475.546,-87.574"/>
</g>
<!-- Node10&#45;&gt;Node11 -->
<g id="edge12" class="edge"><title>Node10&#45;&gt;Node11</title>
<path fill="none" stroke="midnightblue" d="M481.073,-57.4179C490.026,-49.3458 503.324,-37.3556 514.086,-27.6517"/>
<polygon fill="midnightblue" stroke="midnightblue" points="516.625,-30.0753 521.708,-20.7795 511.938,-24.8764 516.625,-30.0753"/>
</g>
<!-- Node15&#45;&gt;Node11 -->
<g id="edge22" class="edge"><title>Node15&#45;&gt;Node11</title>
<path fill="none" stroke="midnightblue" d="M843.607,-171.447C827.782,-163.939 807.28,-151.775 795,-135 773.793,-106.032 800.346,-81.388 774,-57 744.171,-29.3876 625.123,-17.6911 565.865,-13.5013"/>
<polygon fill="midnightblue" stroke="midnightblue" points="565.744,-9.98529 555.531,-12.8042 565.273,-16.9694 565.744,-9.98529"/>
</g>
<!-- Node16 -->
<g id="node16" class="node"><title>Node16</title>
<polygon fill="none" stroke="#bfbfbf" points="876,-114.5 876,-134.5 928,-134.5 928,-114.5 876,-114.5"/>
<text text-anchor="middle" x="902" y="-121.7" font-family="Helvetica,sans-Serif" font-size="11.00">string.h</text>
</g>
<!-- Node15&#45;&gt;Node16 -->
<g id="edge19" class="edge"><title>Node15&#45;&gt;Node16</title>
<path fill="none" stroke="midnightblue" d="M871.945,-171.418C876.917,-163.821 884.162,-152.753 890.292,-143.387"/>
<polygon fill="midnightblue" stroke="midnightblue" points="893.378,-145.063 895.926,-134.779 887.521,-141.23 893.378,-145.063"/>
</g>
<!-- Node17 -->
<g id="node17" class="node"><title>Node17</title>
<polygon fill="none" stroke="#bfbfbf" points="946.5,-114.5 946.5,-134.5 999.5,-134.5 999.5,-114.5 946.5,-114.5"/>
<text text-anchor="middle" x="973" y="-121.7" font-family="Helvetica,sans-Serif" font-size="11.00">random</text>
</g>
<!-- Node15&#45;&gt;Node17 -->
<g id="edge20" class="edge"><title>Node15&#45;&gt;Node17</title>
<path fill="none" stroke="midnightblue" d="M883.669,-171.418C900.706,-162.66 926.716,-149.291 946.284,-139.233"/>
<polygon fill="midnightblue" stroke="midnightblue" points="948.011,-142.28 955.305,-134.596 944.811,-136.054 948.011,-142.28"/>
</g>
<!-- Node18 -->
<g id="node18" class="node"><title>Node18</title>
<polygon fill="none" stroke="#bfbfbf" points="1018,-114.5 1018,-134.5 1062,-134.5 1062,-114.5 1018,-114.5"/>
<text text-anchor="middle" x="1040" y="-121.7" font-family="Helvetica,sans-Serif" font-size="11.00">cstdio</text>
</g>
<!-- Node15&#45;&gt;Node18 -->
<g id="edge21" class="edge"><title>Node15&#45;&gt;Node18</title>
<path fill="none" stroke="midnightblue" d="M894.343,-171.541C925.452,-161.708 975.288,-145.955 1007.84,-135.667"/>
<polygon fill="midnightblue" stroke="midnightblue" points="1009.27,-138.884 1017.75,-132.533 1007.16,-132.209 1009.27,-138.884"/>
</g>
<!-- Node19 -->
<g id="node19" class="node"><title>Node19</title>
<polygon fill="none" stroke="#bfbfbf" points="1080.5,-114.5 1080.5,-134.5 1133.5,-134.5 1133.5,-114.5 1080.5,-114.5"/>
<text text-anchor="middle" x="1107" y="-121.7" font-family="Helvetica,sans-Serif" font-size="11.00">fstream</text>
</g>
<!-- Node15&#45;&gt;Node19 -->
<g id="edge23" class="edge"><title>Node15&#45;&gt;Node19</title>
<path fill="none" stroke="midnightblue" d="M894.197,-173.342C897.498,-172.536 900.821,-171.74 904,-171 974.918,-154.496 995.495,-152.808 1070.38,-135.059"/>
<polygon fill="midnightblue" stroke="midnightblue" points="1071.38,-138.419 1080.3,-132.692 1069.76,-131.61 1071.38,-138.419"/>
</g>
<!-- Node20 -->
<g id="node20" class="node"><title>Node20</title>
<polygon fill="none" stroke="#bfbfbf" points="1152,-114.5 1152,-134.5 1214,-134.5 1214,-114.5 1152,-114.5"/>
<text text-anchor="middle" x="1183" y="-121.7" font-family="Helvetica,sans-Serif" font-size="11.00">sys/stat.h</text>
</g>
<!-- Node15&#45;&gt;Node20 -->
<g id="edge24" class="edge"><title>Node15&#45;&gt;Node20</title>
<path fill="none" stroke="midnightblue" d="M894.154,-173.144C897.463,-172.373 900.799,-171.64 904,-171 1006.15,-150.587 1035.76,-155.121 1141.48,-135.16"/>
<polygon fill="midnightblue" stroke="midnightblue" points="1142.45,-138.538 1151.61,-133.217 1141.13,-131.663 1142.45,-138.538"/>
</g>
<!-- Node21 -->
<g id="node21" class="node"><title>Node21</title>
<polygon fill="none" stroke="#bfbfbf" points="1232,-114.5 1232,-134.5 1286,-134.5 1286,-114.5 1232,-114.5"/>
<text text-anchor="middle" x="1259" y="-121.7" font-family="Helvetica,sans-Serif" font-size="11.00">libgen.h</text>
</g>
<!-- Node15&#45;&gt;Node21 -->
<g id="edge25" class="edge"><title>Node15&#45;&gt;Node21</title>
<path fill="none" stroke="midnightblue" d="M894.132,-173.026C897.444,-172.277 900.788,-171.58 904,-171 1041.25,-146.212 1080.99,-160.591 1222.08,-134.919"/>
<polygon fill="midnightblue" stroke="midnightblue" points="1222.78,-138.35 1231.97,-133.085 1221.5,-131.467 1222.78,-138.35"/>
</g>
<!-- Node22 -->
<g id="node22" class="node"><title>Node22</title>
<g id="a_node22"><a xlink:href="macros_8h.xhtml" target="_top" xlink:title="macros.h">
<polygon fill="none" stroke="black" points="652.5,-114.5 652.5,-134.5 713.5,-134.5 713.5,-114.5 652.5,-114.5"/>
<text text-anchor="middle" x="683" y="-121.7" font-family="Helvetica,sans-Serif" font-size="11.00">macros.h</text>
</a>
</g>
</g>
<!-- Node15&#45;&gt;Node22 -->
<g id="edge26" class="edge"><title>Node15&#45;&gt;Node22</title>
<path fill="none" stroke="midnightblue" d="M837.807,-172.027C807.055,-162.784 757.591,-147.918 722.87,-137.483"/>
<polygon fill="midnightblue" stroke="midnightblue" points="723.636,-134.058 713.051,-134.532 721.621,-140.762 723.636,-134.058"/>
</g>
<!-- Node25 -->
<g id="node25" class="node"><title>Node25</title>
<g id="a_node25"><a xlink:href="config_8h.xhtml" target="_top" xlink:title="Global configurations must be set in this file. ">
<polygon fill="none" stroke="black" points="804,-114.5 804,-134.5 858,-134.5 858,-114.5 804,-114.5"/>
<text text-anchor="middle" x="831" y="-121.7" font-family="Helvetica,sans-Serif" font-size="11.00">config.h</text>
</a>
</g>
</g>
<!-- Node15&#45;&gt;Node25 -->
<g id="edge30" class="edge"><title>Node15&#45;&gt;Node25</title>
<path fill="none" stroke="midnightblue" d="M860.22,-171.418C855.386,-163.821 848.343,-152.753 842.382,-143.387"/>
<polygon fill="midnightblue" stroke="midnightblue" points="845.227,-141.337 836.905,-134.779 839.321,-145.095 845.227,-141.337"/>
</g>
<!-- Node22&#45;&gt;Node13 -->
<g id="edge29" class="edge"><title>Node22&#45;&gt;Node13</title>
<path fill="none" stroke="midnightblue" d="M667.313,-114.418C652.461,-105.82 629.93,-92.7754 612.673,-82.7844"/>
<polygon fill="midnightblue" stroke="midnightblue" points="614.119,-79.577 603.711,-77.5956 610.611,-85.635 614.119,-79.577"/>
</g>
<!-- Node23 -->
<g id="node23" class="node"><title>Node23</title>
<polygon fill="none" stroke="#bfbfbf" points="717,-57.5 717,-77.5 765,-77.5 765,-57.5 717,-57.5"/>
<text text-anchor="middle" x="741" y="-64.7" font-family="Helvetica,sans-Serif" font-size="11.00">stdio.h</text>
</g>
<!-- Node22&#45;&gt;Node23 -->
<g id="edge27" class="edge"><title>Node22&#45;&gt;Node23</title>
<path fill="none" stroke="midnightblue" d="M692.578,-114.418C701.006,-106.425 713.487,-94.5903 723.666,-84.9377"/>
<polygon fill="midnightblue" stroke="midnightblue" points="726.366,-87.2001 731.214,-77.7795 721.55,-82.1207 726.366,-87.2001"/>
</g>
<!-- Node24 -->
<g id="node24" class="node"><title>Node24</title>
<polygon fill="none" stroke="#bfbfbf" points="633.5,-57.5 633.5,-77.5 698.5,-77.5 698.5,-57.5 633.5,-57.5"/>
<text text-anchor="middle" x="666" y="-64.7" font-family="Helvetica,sans-Serif" font-size="11.00">sys/time.h</text>
</g>
<!-- Node22&#45;&gt;Node24 -->
<g id="edge28" class="edge"><title>Node22&#45;&gt;Node24</title>
<path fill="none" stroke="midnightblue" d="M680.193,-114.418C677.942,-107.137 674.707,-96.669 671.893,-87.5659"/>
<polygon fill="midnightblue" stroke="midnightblue" points="675.165,-86.2999 668.868,-77.7795 668.477,-88.3671 675.165,-86.2999"/>
</g>
<!-- Node28&#45;&gt;Node2 -->
<g id="edge36" class="edge"><title>Node28&#45;&gt;Node2</title>
<path fill="none" stroke="midnightblue" d="M420.092,-285.418C411.286,-277.346 398.206,-265.356 387.62,-255.652"/>
<polygon fill="midnightblue" stroke="midnightblue" points="389.86,-252.957 380.123,-248.779 385.13,-258.117 389.86,-252.957"/>
</g>
</g>
</svg>
