<?xml version="1.0" encoding="UTF-8" standalone="no"?>
<!DOCTYPE svg PUBLIC "-//W3C//DTD SVG 1.1//EN"
 "http://www.w3.org/Graphics/SVG/1.1/DTD/svg11.dtd">
<!-- Generated by graphviz version 2.38.0 (20140413.2041)
 -->
<!-- Title: src/TH/THTree.h Pages: 1 -->
<!--zoomable 395 -->
<svg id="main" version="1.1" xmlns="http://www.w3.org/2000/svg" xmlns:xlink="http://www.w3.org/1999/xlink" xml:space="preserve" onload="init(evt)">
<style type="text/css"><![CDATA[
.edge:hover path { stroke: red; }
.edge:hover polygon { stroke: red; fill: red; }
]]></style>
<script type="text/javascript"><![CDATA[
var edges = document.getElementsByTagName('g');
if (edges && edges.length) {
  for (var i=0;i<edges.length;i++) {
    if (edges[i].id.substr(0,4)=='edge') {
      edges[i].setAttribute('class','edge');
    }
  }
}
]]></script>
        <defs>
                <circle id="rim" cx="0" cy="0" r="7"/>
                <circle id="rim2" cx="0" cy="0" r="3.5"/>
                <g id="zoomPlus">
                        <use xlink:href="#rim" fill="#404040">
                                <set attributeName="fill" to="#808080" begin="zoomplus.mouseover" end="zoomplus.mouseout"/>
                        </use>
                        <path d="M-4,0h8M0,-4v8" fill="none" stroke="white" stroke-width="1.5" pointer-events="none"/>
                </g>
                <g id="zoomMin">
                        <use xlink:href="#rim" fill="#404040">
                                <set attributeName="fill" to="#808080" begin="zoomminus.mouseover" end="zoomminus.mouseout"/>
                        </use>
                        <path d="M-4,0h8" fill="none" stroke="white" stroke-width="1.5" pointer-events="none"/>
                </g>
                <g id="dirArrow">
                        <path fill="none" stroke="white" stroke-width="1.5" d="M0,-3.0v7 M-2.5,-0.5L0,-3.0L2.5,-0.5"/>
                </g>
               <g id="resetDef">
                       <use xlink:href="#rim2" fill="#404040">
                               <set attributeName="fill" to="#808080" begin="reset.mouseover" end="reset.mouseout"/>
                       </use>
               </g>
        </defs>

<script type="text/javascript">
var viewWidth = 1325;
var viewHeight = 395;
var sectionId = 'dynsection-1';
</script>
<script xlink:href="svgpan.js"/>
<svg id="graph" class="graph">
<g id="viewport">
<title>src/TH/THTree.h</title>
<!-- Node1 -->
<g id="node1" class="node"><title>Node1</title>
<polygon fill="#bfbfbf" stroke="black" points="937,-366.5 937,-386.5 1035,-386.5 1035,-366.5 937,-366.5"/>
<text text-anchor="middle" x="986" y="-373.7" font-family="Helvetica,sans-Serif" font-size="11.00">src/TH/THTree.h</text>
</g>
<!-- Node2 -->
<g id="node2" class="node"><title>Node2</title>
<g id="a_node2"><a xlink:href="FitnessPolicy_8h.xhtml" target="_top" xlink:title="src/TH/FitnessPolicy.h">
<polygon fill="none" stroke="black" points="212,-309.5 212,-329.5 336,-329.5 336,-309.5 212,-309.5"/>
<text text-anchor="middle" x="274" y="-316.7" font-family="Helvetica,sans-Serif" font-size="11.00">src/TH/FitnessPolicy.h</text>
</a>
</g>
</g>
<!-- Node1&#45;&gt;Node2 -->
<g id="edge1" class="edge"><title>Node1&#45;&gt;Node2</title>
<path fill="none" stroke="midnightblue" d="M926.768,-370.925C793.668,-360.643 471.958,-335.792 336.149,-325.301"/>
<polygon fill="midnightblue" stroke="midnightblue" points="926.541,-374.417 936.78,-371.698 927.08,-367.438 926.541,-374.417"/>
</g>
<!-- Node5 -->
<g id="node5" class="node"><title>Node5</title>
<g id="a_node5"><a xlink:href="THBuilder_8h.xhtml" target="_top" xlink:title="src/TH/THBuilder.h">
<polygon fill="none" stroke="black" points="542,-0.5 542,-20.5 652,-20.5 652,-0.5 542,-0.5"/>
<text text-anchor="middle" x="597" y="-7.7" font-family="Helvetica,sans-Serif" font-size="11.00">src/TH/THBuilder.h</text>
</a>
</g>
</g>
<!-- Node1&#45;&gt;Node5 -->
<g id="edge31" class="edge"><title>Node1&#45;&gt;Node5</title>
<path fill="none" stroke="midnightblue" d="M1045.1,-367.669C1139.55,-353.48 1314,-319.67 1314,-263.5 1314,-263.5 1314,-263.5 1314,-141.5 1314,-103.007 1324.26,-82.014 1295,-57 1246.57,-15.595 808.414,-11.4986 652.096,-11.3665"/>
<polygon fill="midnightblue" stroke="midnightblue" points="1044.49,-364.222 1035.1,-369.142 1045.51,-371.147 1044.49,-364.222"/>
</g>
<!-- Node11 -->
<g id="node11" class="node"><title>Node11</title>
<g id="a_node11"><a xlink:href="SearchAlgorithmSelectionPolicy_8h.xhtml" target="_top" xlink:title="src/TH/SearchAlgorithmSelection\lPolicy.h">
<polygon fill="none" stroke="black" points="705,-126.5 705,-158.5 881,-158.5 881,-126.5 705,-126.5"/>
<text text-anchor="start" x="713" y="-145.7" font-family="Helvetica,sans-Serif" font-size="11.00">src/TH/SearchAlgorithmSelection</text>
<text text-anchor="middle" x="793" y="-133.7" font-family="Helvetica,sans-Serif" font-size="11.00">Policy.h</text>
</a>
</g>
</g>
<!-- Node1&#45;&gt;Node11 -->
<g id="edge30" class="edge"><title>Node1&#45;&gt;Node11</title>
<path fill="none" stroke="midnightblue" d="M971.839,-358.477C935.658,-314.986 840.249,-200.297 805.71,-158.779"/>
<polygon fill="midnightblue" stroke="midnightblue" points="969.348,-360.956 978.434,-366.405 974.729,-356.479 969.348,-360.956"/>
</g>
<!-- Node18 -->
<g id="node18" class="node"><title>Node18</title>
<g id="a_node18"><a xlink:href="RegionSelectionPolicy_8h.xhtml" target="_top" xlink:title="src/TH/RegionSelectionPolicy.h">
<polygon fill="none" stroke="black" points="1071,-132.5 1071,-152.5 1239,-152.5 1239,-132.5 1071,-132.5"/>
<text text-anchor="middle" x="1155" y="-139.7" font-family="Helvetica,sans-Serif" font-size="11.00">src/TH/RegionSelectionPolicy.h</text>
</a>
</g>
</g>
<!-- Node1&#45;&gt;Node18 -->
<g id="edge26" class="edge"><title>Node1&#45;&gt;Node18</title>
<path fill="none" stroke="midnightblue" d="M998.534,-358.294C1032.09,-312.223 1123.15,-187.216 1148.42,-152.532"/>
<polygon fill="midnightblue" stroke="midnightblue" points="995.684,-356.262 992.625,-366.405 1001.34,-360.383 995.684,-356.262"/>
</g>
<!-- Node3 -->
<g id="node3" class="node"><title>Node3</title>
<g id="a_node3"><a xlink:href="BestListUpdatePolicy_8h.xhtml" target="_top" xlink:title="src/TH/BestListUpdatePolicy.h">
<polygon fill="none" stroke="black" points="60.5,-132.5 60.5,-152.5 223.5,-152.5 223.5,-132.5 60.5,-132.5"/>
<text text-anchor="middle" x="142" y="-139.7" font-family="Helvetica,sans-Serif" font-size="11.00">src/TH/BestListUpdatePolicy.h</text>
</a>
</g>
</g>
<!-- Node2&#45;&gt;Node3 -->
<g id="edge2" class="edge"><title>Node2&#45;&gt;Node3</title>
<path fill="none" stroke="midnightblue" d="M232.311,-305.827C214.947,-298.673 195.873,-288.072 183,-273 151.755,-236.419 144.271,-175.905 142.52,-152.831"/>
<polygon fill="midnightblue" stroke="midnightblue" points="231.141,-309.128 241.731,-309.454 233.656,-302.595 231.141,-309.128"/>
</g>
<!-- Node2&#45;&gt;Node5 -->
<g id="edge23" class="edge"><title>Node2&#45;&gt;Node5</title>
<path fill="none" stroke="midnightblue" d="M217.557,-307.341C137.346,-289.839 0,-253.072 0,-206.5 0,-206.5 0,-206.5 0,-141.5 0,-98.526 10.8868,-80.2938 47,-57 87.9121,-30.6108 410.552,-17.4439 541.778,-13.1381"/>
<polygon fill="midnightblue" stroke="midnightblue" points="217.008,-310.803 227.52,-309.48 218.477,-303.959 217.008,-310.803"/>
</g>
<!-- Node7 -->
<g id="node7" class="node"><title>Node7</title>
<g id="a_node7"><a xlink:href="Search_8h.xhtml" target="_top" xlink:title="src/TH/Search.h">
<polygon fill="none" stroke="black" points="491.5,-252.5 491.5,-272.5 586.5,-272.5 586.5,-252.5 491.5,-252.5"/>
<text text-anchor="middle" x="539" y="-259.7" font-family="Helvetica,sans-Serif" font-size="11.00">src/TH/Search.h</text>
</a>
</g>
</g>
<!-- Node2&#45;&gt;Node7 -->
<g id="edge7" class="edge"><title>Node2&#45;&gt;Node7</title>
<path fill="none" stroke="midnightblue" d="M327.337,-307.43C376.795,-297.165 449.485,-282.079 495.514,-272.525"/>
<polygon fill="midnightblue" stroke="midnightblue" points="326.543,-304.02 317.463,-309.479 327.965,-310.874 326.543,-304.02"/>
</g>
<!-- Node16 -->
<g id="node16" class="node"><title>Node16</title>
<g id="a_node16"><a xlink:href="RosenbrockFitnessPolicy_8h.xhtml" target="_top" xlink:title="src/RosenbrockFitnessPolicy.h">
<polygon fill="none" stroke="black" points="192,-252.5 192,-272.5 356,-272.5 356,-252.5 192,-252.5"/>
<text text-anchor="middle" x="274" y="-259.7" font-family="Helvetica,sans-Serif" font-size="11.00">src/RosenbrockFitnessPolicy.h</text>
</a>
</g>
</g>
<!-- Node2&#45;&gt;Node16 -->
<g id="edge24" class="edge"><title>Node2&#45;&gt;Node16</title>
<path fill="none" stroke="midnightblue" d="M274,-299.383C274,-290.374 274,-280.037 274,-272.779"/>
<polygon fill="midnightblue" stroke="midnightblue" points="270.5,-299.418 274,-309.418 277.5,-299.418 270.5,-299.418"/>
</g>
<!-- Node4 -->
<g id="node4" class="node"><title>Node4</title>
<g id="a_node4"><a xlink:href="ConvergentBestListUpdatePolicy_8h.xhtml" target="_top" xlink:title="src/TH/ConvergentBestList\lUpdatePolicy.h">
<polygon fill="none" stroke="black" points="66,-57.5 66,-89.5 212,-89.5 212,-57.5 66,-57.5"/>
<text text-anchor="start" x="74" y="-76.7" font-family="Helvetica,sans-Serif" font-size="11.00">src/TH/ConvergentBestList</text>
<text text-anchor="middle" x="139" y="-64.7" font-family="Helvetica,sans-Serif" font-size="11.00">UpdatePolicy.h</text>
</a>
</g>
</g>
<!-- Node3&#45;&gt;Node4 -->
<g id="edge3" class="edge"><title>Node3&#45;&gt;Node4</title>
<path fill="none" stroke="midnightblue" d="M141.141,-122.308C140.675,-111.898 140.107,-99.2184 139.673,-89.5335"/>
<polygon fill="midnightblue" stroke="midnightblue" points="137.652,-122.631 141.595,-132.464 144.644,-122.317 137.652,-122.631"/>
</g>
<!-- Node3&#45;&gt;Node5 -->
<g id="edge6" class="edge"><title>Node3&#45;&gt;Node5</title>
<path fill="none" stroke="midnightblue" d="M103.67,-128.402C86.1431,-120.269 67.0751,-107.884 57,-90 49.8013,-77.2215 47.074,-67.7975 57,-57 89.3534,-21.8059 410.722,-13.8153 541.787,-12.0166"/>
<polygon fill="midnightblue" stroke="midnightblue" points="102.612,-131.757 113.181,-132.492 105.377,-125.326 102.612,-131.757"/>
</g>
<!-- Node6 -->
<g id="node6" class="node"><title>Node6</title>
<g id="a_node6"><a xlink:href="DivergentBestListUpdatePolicy_8h.xhtml" target="_top" xlink:title="src/TH/DivergentBestList\lUpdatePolicy.h">
<polygon fill="none" stroke="black" points="230.5,-57.5 230.5,-89.5 367.5,-89.5 367.5,-57.5 230.5,-57.5"/>
<text text-anchor="start" x="238.5" y="-76.7" font-family="Helvetica,sans-Serif" font-size="11.00">src/TH/DivergentBestList</text>
<text text-anchor="middle" x="299" y="-64.7" font-family="Helvetica,sans-Serif" font-size="11.00">UpdatePolicy.h</text>
</a>
</g>
</g>
<!-- Node3&#45;&gt;Node6 -->
<g id="edge5" class="edge"><title>Node3&#45;&gt;Node6</title>
<path fill="none" stroke="midnightblue" d="M172.588,-128.447C198.736,-117.288 236.37,-101.227 263.772,-89.5335"/>
<polygon fill="midnightblue" stroke="midnightblue" points="170.997,-125.32 163.174,-132.464 173.745,-131.758 170.997,-125.32"/>
</g>
<!-- Node4&#45;&gt;Node5 -->
<g id="edge4" class="edge"><title>Node4&#45;&gt;Node5</title>
<path fill="none" stroke="midnightblue" d="M222.331,-56.8518C341.82,-38.6144 470.291,-24.4296 541.731,-17.0272"/>
<polygon fill="midnightblue" stroke="midnightblue" points="221.627,-53.4188 212.276,-58.3995 222.692,-60.3374 221.627,-53.4188"/>
</g>
<!-- Node7&#45;&gt;Node5 -->
<g id="edge19" class="edge"><title>Node7&#45;&gt;Node5</title>
<path fill="none" stroke="midnightblue" d="M481.415,-254.995C456.717,-249.026 430.115,-237.647 415,-216 409.657,-208.348 413.416,-204.198 415,-195 426.049,-130.86 417.713,-102.755 464,-57 484.827,-36.4125 515.352,-25.1282 541.907,-18.949"/>
<polygon fill="midnightblue" stroke="midnightblue" points="480.967,-258.479 491.48,-257.166 482.443,-251.636 480.967,-258.479"/>
</g>
<!-- Node8 -->
<g id="node8" class="node"><title>Node8</title>
<g id="a_node8"><a xlink:href="ConvergenceControlPolicy_8h.xhtml" target="_top" xlink:title="src/TH/ConvergenceControl\lPolicy.h">
<polygon fill="none" stroke="black" points="901,-126.5 901,-158.5 1053,-158.5 1053,-126.5 901,-126.5"/>
<text text-anchor="start" x="909" y="-145.7" font-family="Helvetica,sans-Serif" font-size="11.00">src/TH/ConvergenceControl</text>
<text text-anchor="middle" x="977" y="-133.7" font-family="Helvetica,sans-Serif" font-size="11.00">Policy.h</text>
</a>
</g>
</g>
<!-- Node7&#45;&gt;Node8 -->
<g id="edge8" class="edge"><title>Node7&#45;&gt;Node8</title>
<path fill="none" stroke="midnightblue" d="M596.663,-251.486C641.296,-243.276 704.486,-230.648 759,-216 821.786,-199.129 892.997,-174.35 936.451,-158.573"/>
<polygon fill="midnightblue" stroke="midnightblue" points="595.794,-248.087 586.584,-253.323 597.049,-254.974 595.794,-248.087"/>
</g>
<!-- Node10 -->
<g id="node10" class="node"><title>Node10</title>
<g id="a_node10"><a xlink:href="SearchScore_8h.xhtml" target="_top" xlink:title="src/TH/SearchScore.h">
<polygon fill="none" stroke="black" points="542,-195.5 542,-215.5 666,-215.5 666,-195.5 542,-195.5"/>
<text text-anchor="middle" x="604" y="-202.7" font-family="Helvetica,sans-Serif" font-size="11.00">src/TH/SearchScore.h</text>
</a>
</g>
</g>
<!-- Node7&#45;&gt;Node10 -->
<g id="edge12" class="edge"><title>Node7&#45;&gt;Node10</title>
<path fill="none" stroke="midnightblue" d="M557.474,-245.868C568.955,-236.153 583.325,-223.994 593.033,-215.779"/>
<polygon fill="midnightblue" stroke="midnightblue" points="555.107,-243.287 549.733,-252.418 559.628,-248.63 555.107,-243.287"/>
</g>
<!-- Node14 -->
<g id="node14" class="node"><title>Node14</title>
<g id="a_node14"><a xlink:href="PSO_8h.xhtml" target="_top" xlink:title="src/PSO.h">
<polygon fill="none" stroke="black" points="684,-195.5 684,-215.5 750,-215.5 750,-195.5 684,-195.5"/>
<text text-anchor="middle" x="717" y="-202.7" font-family="Helvetica,sans-Serif" font-size="11.00">src/PSO.h</text>
</a>
</g>
</g>
<!-- Node7&#45;&gt;Node14 -->
<g id="edge20" class="edge"><title>Node7&#45;&gt;Node14</title>
<path fill="none" stroke="midnightblue" d="M578.199,-249.388C611.307,-239.158 657.975,-224.738 687.859,-215.504"/>
<polygon fill="midnightblue" stroke="midnightblue" points="576.914,-246.122 568.393,-252.418 578.981,-252.81 576.914,-246.122"/>
</g>
<!-- Node15 -->
<g id="node15" class="node"><title>Node15</title>
<g id="a_node15"><a xlink:href="HillClimbing_8h.xhtml" target="_top" xlink:title="src/HillClimbing.h">
<polygon fill="none" stroke="black" points="424,-195.5 424,-215.5 524,-215.5 524,-195.5 424,-195.5"/>
<text text-anchor="middle" x="474" y="-202.7" font-family="Helvetica,sans-Serif" font-size="11.00">src/HillClimbing.h</text>
</a>
</g>
</g>
<!-- Node7&#45;&gt;Node15 -->
<g id="edge21" class="edge"><title>Node7&#45;&gt;Node15</title>
<path fill="none" stroke="midnightblue" d="M520.526,-245.868C509.045,-236.153 494.675,-223.994 484.967,-215.779"/>
<polygon fill="midnightblue" stroke="midnightblue" points="518.372,-248.63 528.267,-252.418 522.893,-243.287 518.372,-248.63"/>
</g>
<!-- Node8&#45;&gt;Node5 -->
<g id="edge11" class="edge"><title>Node8&#45;&gt;Node5</title>
<path fill="none" stroke="midnightblue" d="M1009.36,-120.557C1032.76,-102.887 1057.32,-77.3012 1039,-57 1013.52,-28.7577 764.896,-17.0247 652.125,-13.1268"/>
<polygon fill="midnightblue" stroke="midnightblue" points="1007.25,-117.76 1001.2,-126.455 1011.36,-123.433 1007.25,-117.76"/>
</g>
<!-- Node9 -->
<g id="node9" class="node"><title>Node9</title>
<g id="a_node9"><a xlink:href="CSMOn_8h.xhtml" target="_top" xlink:title="src/TH/CSMOn.h">
<polygon fill="none" stroke="black" points="930,-63.5 930,-83.5 1030,-83.5 1030,-63.5 930,-63.5"/>
<text text-anchor="middle" x="980" y="-70.7" font-family="Helvetica,sans-Serif" font-size="11.00">src/TH/CSMOn.h</text>
</a>
</g>
</g>
<!-- Node8&#45;&gt;Node9 -->
<g id="edge9" class="edge"><title>Node8&#45;&gt;Node9</title>
<path fill="none" stroke="midnightblue" d="M978.142,-115.992C978.651,-104.636 979.217,-91.9786 979.59,-83.6646"/>
<polygon fill="midnightblue" stroke="midnightblue" points="974.632,-116.15 977.681,-126.297 981.625,-116.463 974.632,-116.15"/>
</g>
<!-- Node9&#45;&gt;Node5 -->
<g id="edge10" class="edge"><title>Node9&#45;&gt;Node5</title>
<path fill="none" stroke="midnightblue" d="M935.284,-61.0931C928.835,-59.6163 922.263,-58.2021 916,-57 823.976,-39.3359 715.809,-25.3082 652.019,-17.7204"/>
<polygon fill="midnightblue" stroke="midnightblue" points="934.719,-64.5558 945.256,-63.4436 936.326,-57.7425 934.719,-64.5558"/>
</g>
<!-- Node10&#45;&gt;Node5 -->
<g id="edge18" class="edge"><title>Node10&#45;&gt;Node5</title>
<path fill="none" stroke="midnightblue" d="M580.753,-189.526C553.305,-170.302 509.099,-134.106 491,-90 485.432,-76.4313 482.93,-69.2466 491,-57 503.452,-38.104 525.564,-27.0245 546.383,-20.5426"/>
<polygon fill="midnightblue" stroke="midnightblue" points="579.121,-192.649 589.357,-195.382 583.059,-186.862 579.121,-192.649"/>
</g>
<!-- Node10&#45;&gt;Node11 -->
<g id="edge13" class="edge"><title>Node10&#45;&gt;Node11</title>
<path fill="none" stroke="midnightblue" d="M641.589,-192.368C671.679,-182.657 714.035,-168.986 746.3,-158.573"/>
<polygon fill="midnightblue" stroke="midnightblue" points="640.329,-189.097 631.888,-195.499 642.479,-195.758 640.329,-189.097"/>
</g>
<!-- Node11&#45;&gt;Node5 -->
<g id="edge17" class="edge"><title>Node11&#45;&gt;Node5</title>
<path fill="none" stroke="midnightblue" d="M848.246,-121.719C862.002,-114.019 875.073,-103.669 883,-90 890.358,-77.3125 892.521,-68.1559 883,-57 853.91,-22.9165 726.672,-14.2377 652.068,-12.1099"/>
<polygon fill="midnightblue" stroke="midnightblue" points="846.44,-118.712 839.154,-126.404 849.647,-124.934 846.44,-118.712"/>
</g>
<!-- Node12 -->
<g id="node12" class="node"><title>Node12</title>
<g id="a_node12"><a xlink:href="RoundRobinSearchAlgorithmSelectionPolicy_8h.xhtml" target="_top" xlink:title="src/TH/RoundRobinSearchAlgorithm\lSelectionPolicy.h">
<polygon fill="none" stroke="black" points="500.5,-57.5 500.5,-89.5 693.5,-89.5 693.5,-57.5 500.5,-57.5"/>
<text text-anchor="start" x="508.5" y="-76.7" font-family="Helvetica,sans-Serif" font-size="11.00">src/TH/RoundRobinSearchAlgorithm</text>
<text text-anchor="middle" x="597" y="-64.7" font-family="Helvetica,sans-Serif" font-size="11.00">SelectionPolicy.h</text>
</a>
</g>
</g>
<!-- Node11&#45;&gt;Node12 -->
<g id="edge14" class="edge"><title>Node11&#45;&gt;Node12</title>
<path fill="none" stroke="midnightblue" d="M739.288,-123.139C708.466,-112.603 670.244,-99.5375 641.178,-89.6017"/>
<polygon fill="midnightblue" stroke="midnightblue" points="738.419,-126.541 749.014,-126.464 740.683,-119.917 738.419,-126.541"/>
</g>
<!-- Node13 -->
<g id="node13" class="node"><title>Node13</title>
<g id="a_node13"><a xlink:href="SingleSearchAlgorithmSelectionPolicy_8h.xhtml" target="_top" xlink:title="src/TH/SingleSearchAlgorithm\lSelectionPolicy.h">
<polygon fill="none" stroke="black" points="712,-57.5 712,-89.5 874,-89.5 874,-57.5 712,-57.5"/>
<text text-anchor="start" x="720" y="-76.7" font-family="Helvetica,sans-Serif" font-size="11.00">src/TH/SingleSearchAlgorithm</text>
<text text-anchor="middle" x="793" y="-64.7" font-family="Helvetica,sans-Serif" font-size="11.00">SelectionPolicy.h</text>
</a>
</g>
</g>
<!-- Node11&#45;&gt;Node13 -->
<g id="edge16" class="edge"><title>Node11&#45;&gt;Node13</title>
<path fill="none" stroke="midnightblue" d="M793,-116.025C793,-107.128 793,-97.4287 793,-89.6432"/>
<polygon fill="midnightblue" stroke="midnightblue" points="789.5,-116.297 793,-126.297 796.5,-116.297 789.5,-116.297"/>
</g>
<!-- Node12&#45;&gt;Node5 -->
<g id="edge15" class="edge"><title>Node12&#45;&gt;Node5</title>
<path fill="none" stroke="midnightblue" d="M597,-47.2294C597,-37.7622 597,-27.6021 597,-20.5459"/>
<polygon fill="midnightblue" stroke="midnightblue" points="593.5,-47.4213 597,-57.4213 600.5,-47.4214 593.5,-47.4213"/>
</g>
<!-- Node15&#45;&gt;Node5 -->
<g id="edge22" class="edge"><title>Node15&#45;&gt;Node5</title>
<path fill="none" stroke="midnightblue" d="M469.046,-185.364C462.394,-155.021 454.359,-95.3827 482,-57 495.99,-37.5728 519.609,-26.4372 541.816,-20.0557"/>
<polygon fill="midnightblue" stroke="midnightblue" points="465.728,-186.537 471.451,-195.453 472.537,-184.914 465.728,-186.537"/>
</g>
<!-- Node17 -->
<g id="node17" class="node"><title>Node17</title>
<g id="a_node17"><a xlink:href="RosenbrockFitnessPolicy_8cpp.xhtml" target="_top" xlink:title="src/RosenbrockFitnessPolicy.cpp">
<polygon fill="none" stroke="black" points="186.5,-195.5 186.5,-215.5 361.5,-215.5 361.5,-195.5 186.5,-195.5"/>
<text text-anchor="middle" x="274" y="-202.7" font-family="Helvetica,sans-Serif" font-size="11.00">src/RosenbrockFitnessPolicy.cpp</text>
</a>
</g>
</g>
<!-- Node16&#45;&gt;Node17 -->
<g id="edge25" class="edge"><title>Node16&#45;&gt;Node17</title>
<path fill="none" stroke="midnightblue" d="M274,-242.383C274,-233.374 274,-223.037 274,-215.779"/>
<polygon fill="midnightblue" stroke="midnightblue" points="270.5,-242.418 274,-252.418 277.5,-242.418 270.5,-242.418"/>
</g>
<!-- Node18&#45;&gt;Node5 -->
<g id="edge29" class="edge"><title>Node18&#45;&gt;Node5</title>
<path fill="none" stroke="midnightblue" d="M1141.15,-124.616C1123.64,-104.615 1091.47,-72.1094 1056,-57 984.537,-26.5604 757.791,-16.1261 652.152,-12.8574"/>
<polygon fill="midnightblue" stroke="midnightblue" points="1138.57,-126.99 1147.72,-132.335 1143.9,-122.452 1138.57,-126.99"/>
</g>
<!-- Node19 -->
<g id="node19" class="node"><title>Node19</title>
<g id="a_node19"><a xlink:href="GroupRegionSelectionPolicy_8h.xhtml" target="_top" xlink:title="src/TH/GroupRegionSelection\lPolicy.h">
<polygon fill="none" stroke="black" points="1124.5,-57.5 1124.5,-89.5 1285.5,-89.5 1285.5,-57.5 1124.5,-57.5"/>
<text text-anchor="start" x="1132.5" y="-76.7" font-family="Helvetica,sans-Serif" font-size="11.00">src/TH/GroupRegionSelection</text>
<text text-anchor="middle" x="1205" y="-64.7" font-family="Helvetica,sans-Serif" font-size="11.00">Policy.h</text>
</a>
</g>
</g>
<!-- Node18&#45;&gt;Node19 -->
<g id="edge27" class="edge"><title>Node18&#45;&gt;Node19</title>
<path fill="none" stroke="midnightblue" d="M1167.86,-124.272C1175.87,-113.529 1186.09,-99.8365 1193.78,-89.5335"/>
<polygon fill="midnightblue" stroke="midnightblue" points="1164.92,-122.356 1161.74,-132.464 1170.53,-126.543 1164.92,-122.356"/>
</g>
<!-- Node19&#45;&gt;Node5 -->
<g id="edge28" class="edge"><title>Node19&#45;&gt;Node5</title>
<path fill="none" stroke="midnightblue" d="M1114.46,-57.574C1112.97,-57.3772 1111.48,-57.1857 1110,-57 943.884,-36.1102 746.316,-21.4368 652.181,-15.0622"/>
<polygon fill="midnightblue" stroke="midnightblue" points="1114.08,-61.0545 1124.47,-58.9414 1115.03,-54.119 1114.08,-61.0545"/>
</g>
</g>
</svg>
        <g id="navigator" transform="translate(0 0)" fill="#404254">
                <rect fill="#f2f5e9" fill-opacity="0.5" stroke="#606060" stroke-width=".5" x="0" y="0" width="60" height="60"/>
                <use id="zoomplus" xlink:href="#zoomPlus" x="17" y="9" onmousedown="handleZoom(evt,'in')"/>
                <use id="zoomminus" xlink:href="#zoomMin" x="42" y="9" onmousedown="handleZoom(evt,'out')"/>
                <use id="reset" xlink:href="#resetDef" x="30" y="36" onmousedown="handleReset()"/>
                <g id="arrowUp" xlink:href="#dirArrow" transform="translate(30 24)" onmousedown="handlePan(0,-1)">
                  <use xlink:href="#rim" fill="#404040">
                        <set attributeName="fill" to="#808080" begin="arrowUp.mouseover" end="arrowUp.mouseout"/>
                  </use>
                  <path fill="none" stroke="white" stroke-width="1.5" d="M0,-3.0v7 M-2.5,-0.5L0,-3.0L2.5,-0.5"/>
                </g>
                <g id="arrowRight" xlink:href="#dirArrow" transform="rotate(90) translate(36 -43)" onmousedown="handlePan(1,0)">
                  <use xlink:href="#rim" fill="#404040">
                        <set attributeName="fill" to="#808080" begin="arrowRight.mouseover" end="arrowRight.mouseout"/>
                  </use>
                  <path fill="none" stroke="white" stroke-width="1.5" d="M0,-3.0v7 M-2.5,-0.5L0,-3.0L2.5,-0.5"/>
                </g>
                <g id="arrowDown" xlink:href="#dirArrow" transform="rotate(180) translate(-30 -48)" onmousedown="handlePan(0,1)">
                  <use xlink:href="#rim" fill="#404040">
                        <set attributeName="fill" to="#808080" begin="arrowDown.mouseover" end="arrowDown.mouseout"/>
                  </use>
                  <path fill="none" stroke="white" stroke-width="1.5" d="M0,-3.0v7 M-2.5,-0.5L0,-3.0L2.5,-0.5"/>
                </g>
                <g id="arrowLeft" xlink:href="#dirArrow" transform="rotate(270) translate(-36 17)" onmousedown="handlePan(-1,0)">
                  <use xlink:href="#rim" fill="#404040">
                        <set attributeName="fill" to="#808080" begin="arrowLeft.mouseover" end="arrowLeft.mouseout"/>
                  </use>
                  <path fill="none" stroke="white" stroke-width="1.5" d="M0,-3.0v7 M-2.5,-0.5L0,-3.0L2.5,-0.5"/>
                </g>
        </g>
        <svg viewBox="0 0 15 15" width="100%" height="30px" preserveAspectRatio="xMaxYMin meet">
         <g id="arrow_out" transform="scale(0.3 0.3)">
          <a xlink:href="THTree_8h__dep__incl_org.svg" target="_base">
           <rect id="button" ry="5" rx="5" y="6" x="6" height="38" width="38"
                fill="#f2f5e9" fill-opacity="0.5" stroke="#606060" stroke-width="1.0"/>
           <path id="arrow"
             d="M 11.500037,31.436501 C 11.940474,20.09759 22.043105,11.32322 32.158766,21.979434 L 37.068811,17.246167 C 37.068811,17.246167 37.088388,32 37.088388,32 L 22.160133,31.978069 C 22.160133,31.978069 26.997745,27.140456 26.997745,27.140456 C 18.528582,18.264221 13.291696,25.230495 11.500037,31.436501 z"
             style="fill:#404040;"/>
          </a>
         </g>
        </svg>
</svg>
