<?xml version="1.0" encoding="UTF-8" standalone="no"?>
<!DOCTYPE svg PUBLIC "-//W3C//DTD SVG 1.1//EN"
 "http://www.w3.org/Graphics/SVG/1.1/DTD/svg11.dtd">
<!-- Generated by graphviz version 2.38.0 (20140413.2041)
 -->
<!-- Title: src/TH/THTree.h Pages: 1 -->
<!--zoomable 395 -->
<svg id="main" version="1.1" xmlns="http://www.w3.org/2000/svg" xmlns:xlink="http://www.w3.org/1999/xlink" xml:space="preserve" onload="init(evt)">
<style type="text/css"><![CDATA[
.edge:hover path { stroke: red; }
.edge:hover polygon { stroke: red; fill: red; }
]]></style>
<script type="text/javascript"><![CDATA[
var edges = document.getElementsByTagName('g');
if (edges && edges.length) {
  for (var i=0;i<edges.length;i++) {
    if (edges[i].id.substr(0,4)=='edge') {
      edges[i].setAttribute('class','edge');
    }
  }
}
]]></script>
        <defs>
                <circle id="rim" cx="0" cy="0" r="7"/>
                <circle id="rim2" cx="0" cy="0" r="3.5"/>
                <g id="zoomPlus">
                        <use xlink:href="#rim" fill="#404040">
                                <set attributeName="fill" to="#808080" begin="zoomplus.mouseover" end="zoomplus.mouseout"/>
                        </use>
                        <path d="M-4,0h8M0,-4v8" fill="none" stroke="white" stroke-width="1.5" pointer-events="none"/>
                </g>
                <g id="zoomMin">
                        <use xlink:href="#rim" fill="#404040">
                                <set attributeName="fill" to="#808080" begin="zoomminus.mouseover" end="zoomminus.mouseout"/>
                        </use>
                        <path d="M-4,0h8" fill="none" stroke="white" stroke-width="1.5" pointer-events="none"/>
                </g>
                <g id="dirArrow">
                        <path fill="none" stroke="white" stroke-width="1.5" d="M0,-3.0v7 M-2.5,-0.5L0,-3.0L2.5,-0.5"/>
                </g>
               <g id="resetDef">
                       <use xlink:href="#rim2" fill="#404040">
                               <set attributeName="fill" to="#808080" begin="reset.mouseover" end="reset.mouseout"/>
                       </use>
               </g>
        </defs>

<script type="text/javascript">
var viewWidth = 1546;
var viewHeight = 395;
var sectionId = 'dynsection-1';
</script>
<script xlink:href="svgpan.js"/>
<svg id="graph" class="graph">
<g id="viewport">
<title>src/TH/THTree.h</title>
<!-- Node1 -->
<g id="node1" class="node"><title>Node1</title>
<polygon fill="#bfbfbf" stroke="black" points="1075.5,-366.5 1075.5,-386.5 1173.5,-386.5 1173.5,-366.5 1075.5,-366.5"/>
<text text-anchor="middle" x="1124.5" y="-373.7" font-family="Helvetica,sans-Serif" font-size="11.00">src/TH/THTree.h</text>
</g>
<!-- Node2 -->
<g id="node2" class="node"><title>Node2</title>
<g id="a_node2"><a xlink:href="FitnessPolicy_8h.xhtml" target="_top" xlink:title="src/TH/FitnessPolicy.h">
<polygon fill="none" stroke="black" points="943.5,-309.5 943.5,-329.5 1067.5,-329.5 1067.5,-309.5 943.5,-309.5"/>
<text text-anchor="middle" x="1005.5" y="-316.7" font-family="Helvetica,sans-Serif" font-size="11.00">src/TH/FitnessPolicy.h</text>
</a>
</g>
</g>
<!-- Node1&#45;&gt;Node2 -->
<g id="edge1" class="edge"><title>Node1&#45;&gt;Node2</title>
<path fill="none" stroke="midnightblue" d="M1095.71,-362.192C1073.86,-352.094 1044.4,-338.477 1025.18,-329.596"/>
<polygon fill="midnightblue" stroke="midnightblue" points="1094.3,-365.399 1104.85,-366.418 1097.24,-359.045 1094.3,-365.399"/>
</g>
<!-- Node5 -->
<g id="node5" class="node"><title>Node5</title>
<g id="a_node5"><a xlink:href="THBuilder_8h.xhtml" target="_top" xlink:title="src/TH/THBuilder.h">
<polygon fill="none" stroke="black" points="828.5,-0.5 828.5,-20.5 938.5,-20.5 938.5,-0.5 828.5,-0.5"/>
<text text-anchor="middle" x="883.5" y="-7.7" font-family="Helvetica,sans-Serif" font-size="11.00">src/TH/THBuilder.h</text>
</a>
</g>
</g>
<!-- Node1&#45;&gt;Node5 -->
<g id="edge32" class="edge"><title>Node1&#45;&gt;Node5</title>
<path fill="none" stroke="midnightblue" d="M1183.96,-371.691C1297.83,-362.756 1535.5,-335.486 1535.5,-263.5 1535.5,-263.5 1535.5,-263.5 1535.5,-141.5 1535.5,-103.007 1545.67,-82.1113 1516.5,-57 1473.21,-19.7367 1084.68,-12.9874 938.65,-11.7679"/>
<polygon fill="midnightblue" stroke="midnightblue" points="1183.37,-368.225 1173.67,-372.474 1183.9,-375.205 1183.37,-368.225"/>
</g>
<!-- Node11 -->
<g id="node11" class="node"><title>Node11</title>
<g id="a_node11"><a xlink:href="SearchAlgorithmSelectionPolicy_8h.xhtml" target="_top" xlink:title="src/TH/SearchAlgorithmSelection\lPolicy.h">
<polygon fill="none" stroke="black" points="329.5,-126.5 329.5,-158.5 505.5,-158.5 505.5,-126.5 329.5,-126.5"/>
<text text-anchor="start" x="337.5" y="-145.7" font-family="Helvetica,sans-Serif" font-size="11.00">src/TH/SearchAlgorithmSelection</text>
<text text-anchor="middle" x="417.5" y="-133.7" font-family="Helvetica,sans-Serif" font-size="11.00">Policy.h</text>
</a>
</g>
</g>
<!-- Node1&#45;&gt;Node11 -->
<g id="edge31" class="edge"><title>Node1&#45;&gt;Node11</title>
<path fill="none" stroke="midnightblue" d="M1065.25,-370.039C954.714,-358.879 710.252,-329.597 511.5,-273 447.283,-254.713 409.694,-271.452 372.5,-216 359.462,-196.561 379.659,-173.5 397.033,-158.693"/>
<polygon fill="midnightblue" stroke="midnightblue" points="1064.91,-373.523 1075.21,-371.032 1065.6,-366.557 1064.91,-373.523"/>
</g>
<!-- Node19 -->
<g id="node19" class="node"><title>Node19</title>
<g id="a_node19"><a xlink:href="RegionSelectionPolicy_8h.xhtml" target="_top" xlink:title="src/TH/RegionSelectionPolicy.h">
<polygon fill="none" stroke="black" points="1233.5,-132.5 1233.5,-152.5 1401.5,-152.5 1401.5,-132.5 1233.5,-132.5"/>
<text text-anchor="middle" x="1317.5" y="-139.7" font-family="Helvetica,sans-Serif" font-size="11.00">src/TH/RegionSelectionPolicy.h</text>
</a>
</g>
</g>
<!-- Node1&#45;&gt;Node19 -->
<g id="edge27" class="edge"><title>Node1&#45;&gt;Node19</title>
<path fill="none" stroke="midnightblue" d="M1138.58,-358.581C1176.71,-312.745 1281.07,-187.288 1309.99,-152.532"/>
<polygon fill="midnightblue" stroke="midnightblue" points="1135.77,-356.479 1132.07,-366.405 1141.15,-360.956 1135.77,-356.479"/>
</g>
<!-- Node3 -->
<g id="node3" class="node"><title>Node3</title>
<g id="a_node3"><a xlink:href="BestListUpdatePolicy_8h.xhtml" target="_top" xlink:title="src/TH/BestListUpdatePolicy.h">
<polygon fill="none" stroke="black" points="1022,-132.5 1022,-152.5 1185,-152.5 1185,-132.5 1022,-132.5"/>
<text text-anchor="middle" x="1103.5" y="-139.7" font-family="Helvetica,sans-Serif" font-size="11.00">src/TH/BestListUpdatePolicy.h</text>
</a>
</g>
</g>
<!-- Node2&#45;&gt;Node3 -->
<g id="edge2" class="edge"><title>Node2&#45;&gt;Node3</title>
<path fill="none" stroke="midnightblue" d="M1015.68,-300.329C1036.44,-263.25 1083.03,-180.056 1098.44,-152.533"/>
<polygon fill="midnightblue" stroke="midnightblue" points="1012.6,-298.656 1010.77,-309.091 1018.71,-302.076 1012.6,-298.656"/>
</g>
<!-- Node2&#45;&gt;Node5 -->
<g id="edge24" class="edge"><title>Node2&#45;&gt;Node5</title>
<path fill="none" stroke="midnightblue" d="M1004.65,-299.013C1003.09,-274.231 998.71,-230.409 986.5,-195 961.728,-123.162 909.214,-46.9222 890.393,-20.8577"/>
<polygon fill="midnightblue" stroke="midnightblue" points="1001.17,-299.446 1005.2,-309.245 1008.16,-299.072 1001.17,-299.446"/>
</g>
<!-- Node7 -->
<g id="node7" class="node"><title>Node7</title>
<g id="a_node7"><a xlink:href="Search_8h.xhtml" target="_top" xlink:title="src/TH/Search.h">
<polygon fill="none" stroke="black" points="817,-252.5 817,-272.5 912,-272.5 912,-252.5 817,-252.5"/>
<text text-anchor="middle" x="864.5" y="-259.7" font-family="Helvetica,sans-Serif" font-size="11.00">src/TH/Search.h</text>
</a>
</g>
</g>
<!-- Node2&#45;&gt;Node7 -->
<g id="edge7" class="edge"><title>Node2&#45;&gt;Node7</title>
<path fill="none" stroke="midnightblue" d="M972.768,-305.732C946.751,-295.584 910.996,-281.637 887.818,-272.596"/>
<polygon fill="midnightblue" stroke="midnightblue" points="971.628,-309.044 982.217,-309.418 974.172,-302.523 971.628,-309.044"/>
</g>
<!-- Node17 -->
<g id="node17" class="node"><title>Node17</title>
<g id="a_node17"><a xlink:href="RosenbrockFitnessPolicy_8h.xhtml" target="_top" xlink:title="src/RosenbrockFitnessPolicy.h">
<polygon fill="none" stroke="black" points="520.5,-252.5 520.5,-272.5 684.5,-272.5 684.5,-252.5 520.5,-252.5"/>
<text text-anchor="middle" x="602.5" y="-259.7" font-family="Helvetica,sans-Serif" font-size="11.00">src/RosenbrockFitnessPolicy.h</text>
</a>
</g>
</g>
<!-- Node2&#45;&gt;Node17 -->
<g id="edge25" class="edge"><title>Node2&#45;&gt;Node17</title>
<path fill="none" stroke="midnightblue" d="M933.095,-308.618C857.951,-298.363 741.434,-282.461 668.679,-272.532"/>
<polygon fill="midnightblue" stroke="midnightblue" points="933.033,-312.142 943.414,-310.027 933.98,-305.207 933.033,-312.142"/>
</g>
<!-- Node4 -->
<g id="node4" class="node"><title>Node4</title>
<g id="a_node4"><a xlink:href="ConvergentBestListUpdatePolicy_8h.xhtml" target="_top" xlink:title="src/TH/ConvergentBestList\lUpdatePolicy.h">
<polygon fill="none" stroke="black" points="1105.5,-57.5 1105.5,-89.5 1251.5,-89.5 1251.5,-57.5 1105.5,-57.5"/>
<text text-anchor="start" x="1113.5" y="-76.7" font-family="Helvetica,sans-Serif" font-size="11.00">src/TH/ConvergentBestList</text>
<text text-anchor="middle" x="1178.5" y="-64.7" font-family="Helvetica,sans-Serif" font-size="11.00">UpdatePolicy.h</text>
</a>
</g>
</g>
<!-- Node3&#45;&gt;Node4 -->
<g id="edge3" class="edge"><title>Node3&#45;&gt;Node4</title>
<path fill="none" stroke="midnightblue" d="M1121.36,-125.547C1133.58,-114.63 1149.68,-100.249 1161.67,-89.5335"/>
<polygon fill="midnightblue" stroke="midnightblue" points="1118.74,-123.192 1113.61,-132.464 1123.4,-128.412 1118.74,-123.192"/>
</g>
<!-- Node3&#45;&gt;Node5 -->
<g id="edge6" class="edge"><title>Node3&#45;&gt;Node5</title>
<path fill="none" stroke="midnightblue" d="M1167.4,-130.318C1224.11,-117.702 1293.29,-93.9813 1260.5,-57 1239.53,-33.352 1038.47,-19.6027 938.859,-14.1907"/>
<polygon fill="midnightblue" stroke="midnightblue" points="1166.39,-126.955 1157.34,-132.471 1167.85,-133.8 1166.39,-126.955"/>
</g>
<!-- Node6 -->
<g id="node6" class="node"><title>Node6</title>
<g id="a_node6"><a xlink:href="DivergentBestListUpdatePolicy_8h.xhtml" target="_top" xlink:title="src/TH/DivergentBestList\lUpdatePolicy.h">
<polygon fill="none" stroke="black" points="950,-57.5 950,-89.5 1087,-89.5 1087,-57.5 950,-57.5"/>
<text text-anchor="start" x="958" y="-76.7" font-family="Helvetica,sans-Serif" font-size="11.00">src/TH/DivergentBestList</text>
<text text-anchor="middle" x="1018.5" y="-64.7" font-family="Helvetica,sans-Serif" font-size="11.00">UpdatePolicy.h</text>
</a>
</g>
</g>
<!-- Node3&#45;&gt;Node6 -->
<g id="edge5" class="edge"><title>Node3&#45;&gt;Node6</title>
<path fill="none" stroke="midnightblue" d="M1084.06,-126.173C1070.11,-115.184 1051.43,-100.455 1037.57,-89.5335"/>
<polygon fill="midnightblue" stroke="midnightblue" points="1082.02,-129.022 1092.04,-132.464 1086.35,-123.525 1082.02,-129.022"/>
</g>
<!-- Node4&#45;&gt;Node5 -->
<g id="edge4" class="edge"><title>Node4&#45;&gt;Node5</title>
<path fill="none" stroke="midnightblue" d="M1095.93,-55.4259C1041.24,-44.1182 971.683,-29.7345 927.361,-20.5695"/>
<polygon fill="midnightblue" stroke="midnightblue" points="1095.46,-58.9021 1105.96,-57.4996 1096.87,-52.0471 1095.46,-58.9021"/>
</g>
<!-- Node7&#45;&gt;Node5 -->
<g id="edge20" class="edge"><title>Node7&#45;&gt;Node5</title>
<path fill="none" stroke="midnightblue" d="M865.976,-242.084C869.826,-191.42 880.069,-56.6382 882.815,-20.5141"/>
<polygon fill="midnightblue" stroke="midnightblue" points="862.467,-242.069 865.199,-252.306 869.447,-242.6 862.467,-242.069"/>
</g>
<!-- Node8 -->
<g id="node8" class="node"><title>Node8</title>
<g id="a_node8"><a xlink:href="ConvergenceControlPolicy_8h.xhtml" target="_top" xlink:title="src/TH/ConvergenceControl\lPolicy.h">
<polygon fill="none" stroke="black" points="703.5,-126.5 703.5,-158.5 855.5,-158.5 855.5,-126.5 703.5,-126.5"/>
<text text-anchor="start" x="711.5" y="-145.7" font-family="Helvetica,sans-Serif" font-size="11.00">src/TH/ConvergenceControl</text>
<text text-anchor="middle" x="779.5" y="-133.7" font-family="Helvetica,sans-Serif" font-size="11.00">Policy.h</text>
</a>
</g>
</g>
<!-- Node7&#45;&gt;Node8 -->
<g id="edge8" class="edge"><title>Node7&#45;&gt;Node8</title>
<path fill="none" stroke="midnightblue" d="M855.403,-243.12C848.274,-229.381 837.712,-210.396 826.5,-195 816.951,-181.888 804.521,-168.393 794.843,-158.507"/>
<polygon fill="midnightblue" stroke="midnightblue" points="852.299,-244.738 859.947,-252.07 858.54,-241.569 852.299,-244.738"/>
</g>
<!-- Node10 -->
<g id="node10" class="node"><title>Node10</title>
<g id="a_node10"><a xlink:href="SearchScore_8h.xhtml" target="_top" xlink:title="src/TH/SearchScore.h">
<polygon fill="none" stroke="black" points="575.5,-195.5 575.5,-215.5 699.5,-215.5 699.5,-195.5 575.5,-195.5"/>
<text text-anchor="middle" x="637.5" y="-202.7" font-family="Helvetica,sans-Serif" font-size="11.00">src/TH/SearchScore.h</text>
</a>
</g>
</g>
<!-- Node7&#45;&gt;Node10 -->
<g id="edge12" class="edge"><title>Node7&#45;&gt;Node10</title>
<path fill="none" stroke="midnightblue" d="M817.478,-250.107C775.148,-239.851 713.767,-224.979 674.751,-215.525"/>
<polygon fill="midnightblue" stroke="midnightblue" points="816.727,-253.526 827.27,-252.479 818.375,-246.723 816.727,-253.526"/>
</g>
<!-- Node15 -->
<g id="node15" class="node"><title>Node15</title>
<g id="a_node15"><a xlink:href="PSO_8h.xhtml" target="_top" xlink:title="src/PSO.h">
<polygon fill="none" stroke="black" points="911.5,-195.5 911.5,-215.5 977.5,-215.5 977.5,-195.5 911.5,-195.5"/>
<text text-anchor="middle" x="944.5" y="-202.7" font-family="Helvetica,sans-Serif" font-size="11.00">src/PSO.h</text>
</a>
</g>
</g>
<!-- Node7&#45;&gt;Node15 -->
<g id="edge21" class="edge"><title>Node7&#45;&gt;Node15</title>
<path fill="none" stroke="midnightblue" d="M886.066,-246.673C900.483,-236.762 918.988,-224.039 931.27,-215.596"/>
<polygon fill="midnightblue" stroke="midnightblue" points="883.968,-243.868 877.71,-252.418 887.934,-249.637 883.968,-243.868"/>
</g>
<!-- Node16 -->
<g id="node16" class="node"><title>Node16</title>
<g id="a_node16"><a xlink:href="HillClimbing_8h.xhtml" target="_top" xlink:title="src/HillClimbing.h">
<polygon fill="none" stroke="black" points="717.5,-195.5 717.5,-215.5 817.5,-215.5 817.5,-195.5 717.5,-195.5"/>
<text text-anchor="middle" x="767.5" y="-202.7" font-family="Helvetica,sans-Serif" font-size="11.00">src/HillClimbing.h</text>
</a>
</g>
</g>
<!-- Node7&#45;&gt;Node16 -->
<g id="edge22" class="edge"><title>Node7&#45;&gt;Node16</title>
<path fill="none" stroke="midnightblue" d="M839.335,-247.231C821.72,-237.243 798.714,-224.199 783.541,-215.596"/>
<polygon fill="midnightblue" stroke="midnightblue" points="838.057,-250.53 848.482,-252.418 841.51,-244.441 838.057,-250.53"/>
</g>
<!-- Node8&#45;&gt;Node5 -->
<g id="edge11" class="edge"><title>Node8&#45;&gt;Node5</title>
<path fill="none" stroke="midnightblue" d="M758.795,-118.149C745.539,-100.248 733.116,-75.5484 746.5,-57 765.125,-31.1892 798.987,-19.7896 828.385,-14.8549"/>
<polygon fill="midnightblue" stroke="midnightblue" points="756.315,-120.656 765.26,-126.334 761.808,-116.317 756.315,-120.656"/>
</g>
<!-- Node9 -->
<g id="node9" class="node"><title>Node9</title>
<g id="a_node9"><a xlink:href="CSMOn_8h.xhtml" target="_top" xlink:title="src/TH/CSMOn.h">
<polygon fill="none" stroke="black" points="755.5,-63.5 755.5,-83.5 855.5,-83.5 855.5,-63.5 755.5,-63.5"/>
<text text-anchor="middle" x="805.5" y="-70.7" font-family="Helvetica,sans-Serif" font-size="11.00">src/TH/CSMOn.h</text>
</a>
</g>
</g>
<!-- Node8&#45;&gt;Node9 -->
<g id="edge9" class="edge"><title>Node8&#45;&gt;Node9</title>
<path fill="none" stroke="midnightblue" d="M789.127,-116.693C793.602,-105.16 798.651,-92.1501 801.944,-83.6646"/>
<polygon fill="midnightblue" stroke="midnightblue" points="785.755,-115.708 785.4,-126.297 792.281,-118.24 785.755,-115.708"/>
</g>
<!-- Node9&#45;&gt;Node5 -->
<g id="edge10" class="edge"><title>Node9&#45;&gt;Node5</title>
<path fill="none" stroke="midnightblue" d="M825.035,-57.2226C839.81,-45.668 859.597,-30.1935 871.944,-20.5377"/>
<polygon fill="midnightblue" stroke="midnightblue" points="822.73,-54.5818 817.009,-63.4992 827.043,-60.0959 822.73,-54.5818"/>
</g>
<!-- Node10&#45;&gt;Node5 -->
<g id="edge19" class="edge"><title>Node10&#45;&gt;Node5</title>
<path fill="none" stroke="midnightblue" d="M640.774,-185.048C647.163,-153.317 664.346,-90.5934 704.5,-57 739.053,-28.0923 789.596,-17.2102 828.169,-13.2751"/>
<polygon fill="midnightblue" stroke="midnightblue" points="637.269,-184.754 638.887,-195.224 644.152,-186.031 637.269,-184.754"/>
</g>
<!-- Node10&#45;&gt;Node11 -->
<g id="edge13" class="edge"><title>Node10&#45;&gt;Node11</title>
<path fill="none" stroke="midnightblue" d="M595.108,-192.746C560.009,-183.014 509.907,-169.122 471.86,-158.573"/>
<polygon fill="midnightblue" stroke="midnightblue" points="594.467,-196.2 605.038,-195.499 596.337,-189.454 594.467,-196.2"/>
</g>
<!-- Node11&#45;&gt;Node5 -->
<g id="edge18" class="edge"><title>Node11&#45;&gt;Node5</title>
<path fill="none" stroke="midnightblue" d="M491.62,-123.614C519.958,-115.331 552.041,-104.144 579.5,-90 601.231,-78.8065 601.066,-66.7073 623.5,-57 690.265,-28.1109 774.207,-17.5543 828.349,-13.7027"/>
<polygon fill="midnightblue" stroke="midnightblue" points="490.424,-120.316 481.767,-126.423 492.343,-127.047 490.424,-120.316"/>
</g>
<!-- Node12 -->
<g id="node12" class="node"><title>Node12</title>
<g id="a_node12"><a xlink:href="ReinforcementLearningSearchAlgorithmSelectionPolicy_8h.xhtml" target="_top" xlink:title="src/TH/ReinforcementLearning\lSearchAlgorithmSelectionPolicy.h">
<polygon fill="none" stroke="black" points="392,-57.5 392,-89.5 571,-89.5 571,-57.5 392,-57.5"/>
<text text-anchor="start" x="400" y="-76.7" font-family="Helvetica,sans-Serif" font-size="11.00">src/TH/ReinforcementLearning</text>
<text text-anchor="middle" x="481.5" y="-64.7" font-family="Helvetica,sans-Serif" font-size="11.00">SearchAlgorithmSelectionPolicy.h</text>
</a>
</g>
</g>
<!-- Node11&#45;&gt;Node12 -->
<g id="edge14" class="edge"><title>Node11&#45;&gt;Node12</title>
<path fill="none" stroke="midnightblue" d="M439.064,-118.925C448.275,-109.283 458.781,-98.2843 467.035,-89.6432"/>
<polygon fill="midnightblue" stroke="midnightblue" points="436.399,-116.648 432.023,-126.297 441.461,-121.483 436.399,-116.648"/>
</g>
<!-- Node13 -->
<g id="node13" class="node"><title>Node13</title>
<g id="a_node13"><a xlink:href="RoundRobinSearchAlgorithmSelectionPolicy_8h.xhtml" target="_top" xlink:title="src/TH/RoundRobinSearchAlgorithm\lSelectionPolicy.h">
<polygon fill="none" stroke="black" points="0,-57.5 0,-89.5 193,-89.5 193,-57.5 0,-57.5"/>
<text text-anchor="start" x="8" y="-76.7" font-family="Helvetica,sans-Serif" font-size="11.00">src/TH/RoundRobinSearchAlgorithm</text>
<text text-anchor="middle" x="96.5" y="-64.7" font-family="Helvetica,sans-Serif" font-size="11.00">SelectionPolicy.h</text>
</a>
</g>
</g>
<!-- Node11&#45;&gt;Node13 -->
<g id="edge15" class="edge"><title>Node11&#45;&gt;Node13</title>
<path fill="none" stroke="midnightblue" d="M335.358,-124.355C283.844,-113.603 218.059,-99.8721 168.575,-89.5438"/>
<polygon fill="midnightblue" stroke="midnightblue" points="334.957,-127.847 345.461,-126.464 336.387,-120.994 334.957,-127.847"/>
</g>
<!-- Node14 -->
<g id="node14" class="node"><title>Node14</title>
<g id="a_node14"><a xlink:href="SingleSearchAlgorithmSelectionPolicy_8h.xhtml" target="_top" xlink:title="src/TH/SingleSearchAlgorithm\lSelectionPolicy.h">
<polygon fill="none" stroke="black" points="211.5,-57.5 211.5,-89.5 373.5,-89.5 373.5,-57.5 211.5,-57.5"/>
<text text-anchor="start" x="219.5" y="-76.7" font-family="Helvetica,sans-Serif" font-size="11.00">src/TH/SingleSearchAlgorithm</text>
<text text-anchor="middle" x="292.5" y="-64.7" font-family="Helvetica,sans-Serif" font-size="11.00">SelectionPolicy.h</text>
</a>
</g>
</g>
<!-- Node11&#45;&gt;Node14 -->
<g id="edge17" class="edge"><title>Node11&#45;&gt;Node14</title>
<path fill="none" stroke="midnightblue" d="M380.439,-121.635C361.384,-111.422 338.527,-99.1702 320.891,-89.7177"/>
<polygon fill="midnightblue" stroke="midnightblue" points="378.98,-124.824 389.448,-126.464 382.287,-118.655 378.98,-124.824"/>
</g>
<!-- Node13&#45;&gt;Node5 -->
<g id="edge16" class="edge"><title>Node13&#45;&gt;Node5</title>
<path fill="none" stroke="midnightblue" d="M203.487,-56.9528C442.16,-31.9599 713.706,-18.6406 828.203,-13.7215"/>
<polygon fill="midnightblue" stroke="midnightblue" points="202.8,-53.5058 193.223,-58.037 203.536,-60.4671 202.8,-53.5058"/>
</g>
<!-- Node16&#45;&gt;Node5 -->
<g id="edge23" class="edge"><title>Node16&#45;&gt;Node5</title>
<path fill="none" stroke="midnightblue" d="M731.415,-191.143C717.269,-183.924 702.526,-173.46 694.5,-159 687.382,-146.176 690.466,-140.101 694.5,-126 704.439,-91.2596 708.906,-79.0917 737.5,-57 763.657,-36.7913 798.903,-25.4773 828.212,-19.1862"/>
<polygon fill="midnightblue" stroke="midnightblue" points="730.009,-194.35 740.549,-195.428 732.982,-188.012 730.009,-194.35"/>
</g>
<!-- Node18 -->
<g id="node18" class="node"><title>Node18</title>
<g id="a_node18"><a xlink:href="RosenbrockFitnessPolicy_8cpp.xhtml" target="_top" xlink:title="src/RosenbrockFitnessPolicy.cpp">
<polygon fill="none" stroke="black" points="382,-195.5 382,-215.5 557,-215.5 557,-195.5 382,-195.5"/>
<text text-anchor="middle" x="469.5" y="-202.7" font-family="Helvetica,sans-Serif" font-size="11.00">src/RosenbrockFitnessPolicy.cpp</text>
</a>
</g>
</g>
<!-- Node17&#45;&gt;Node18 -->
<g id="edge26" class="edge"><title>Node17&#45;&gt;Node18</title>
<path fill="none" stroke="midnightblue" d="M570.975,-248.463C546.491,-238.338 513.165,-224.557 491.495,-215.596"/>
<polygon fill="midnightblue" stroke="midnightblue" points="569.959,-251.831 580.538,-252.418 572.634,-245.362 569.959,-251.831"/>
</g>
<!-- Node19&#45;&gt;Node5 -->
<g id="edge30" class="edge"><title>Node19&#45;&gt;Node5</title>
<path fill="none" stroke="midnightblue" d="M1314.24,-122.235C1309.8,-102.451 1299.82,-72.4355 1278.5,-57 1225.45,-18.5992 1034.03,-12.1272 938.511,-11.3492"/>
<polygon fill="midnightblue" stroke="midnightblue" points="1310.85,-123.13 1316.21,-132.266 1317.72,-121.778 1310.85,-123.13"/>
</g>
<!-- Node20 -->
<g id="node20" class="node"><title>Node20</title>
<g id="a_node20"><a xlink:href="GroupRegionSelectionPolicy_8h.xhtml" target="_top" xlink:title="src/TH/GroupRegionSelection\lPolicy.h">
<polygon fill="none" stroke="black" points="1346,-57.5 1346,-89.5 1507,-89.5 1507,-57.5 1346,-57.5"/>
<text text-anchor="start" x="1354" y="-76.7" font-family="Helvetica,sans-Serif" font-size="11.00">src/TH/GroupRegionSelection</text>
<text text-anchor="middle" x="1426.5" y="-64.7" font-family="Helvetica,sans-Serif" font-size="11.00">Policy.h</text>
</a>
</g>
</g>
<!-- Node19&#45;&gt;Node20 -->
<g id="edge28" class="edge"><title>Node19&#45;&gt;Node20</title>
<path fill="none" stroke="midnightblue" d="M1340.93,-127.097C1358.95,-116.021 1383.77,-100.764 1402.04,-89.5335"/>
<polygon fill="midnightblue" stroke="midnightblue" points="1338.89,-124.246 1332.2,-132.464 1342.55,-130.209 1338.89,-124.246"/>
</g>
<!-- Node20&#45;&gt;Node5 -->
<g id="edge29" class="edge"><title>Node20&#45;&gt;Node5</title>
<path fill="none" stroke="midnightblue" d="M1335.96,-57.6003C1334.46,-57.3954 1332.98,-57.1951 1331.5,-57 1190.44,-38.3472 1023.52,-23.2192 938.801,-16.0319"/>
<polygon fill="midnightblue" stroke="midnightblue" points="1335.57,-61.0791 1345.96,-59.0128 1336.54,-54.1479 1335.57,-61.0791"/>
</g>
</g>
</svg>
        <g id="navigator" transform="translate(0 0)" fill="#404254">
                <rect fill="#f2f5e9" fill-opacity="0.5" stroke="#606060" stroke-width=".5" x="0" y="0" width="60" height="60"/>
                <use id="zoomplus" xlink:href="#zoomPlus" x="17" y="9" onmousedown="handleZoom(evt,'in')"/>
                <use id="zoomminus" xlink:href="#zoomMin" x="42" y="9" onmousedown="handleZoom(evt,'out')"/>
                <use id="reset" xlink:href="#resetDef" x="30" y="36" onmousedown="handleReset()"/>
                <g id="arrowUp" xlink:href="#dirArrow" transform="translate(30 24)" onmousedown="handlePan(0,-1)">
                  <use xlink:href="#rim" fill="#404040">
                        <set attributeName="fill" to="#808080" begin="arrowUp.mouseover" end="arrowUp.mouseout"/>
                  </use>
                  <path fill="none" stroke="white" stroke-width="1.5" d="M0,-3.0v7 M-2.5,-0.5L0,-3.0L2.5,-0.5"/>
                </g>
                <g id="arrowRight" xlink:href="#dirArrow" transform="rotate(90) translate(36 -43)" onmousedown="handlePan(1,0)">
                  <use xlink:href="#rim" fill="#404040">
                        <set attributeName="fill" to="#808080" begin="arrowRight.mouseover" end="arrowRight.mouseout"/>
                  </use>
                  <path fill="none" stroke="white" stroke-width="1.5" d="M0,-3.0v7 M-2.5,-0.5L0,-3.0L2.5,-0.5"/>
                </g>
                <g id="arrowDown" xlink:href="#dirArrow" transform="rotate(180) translate(-30 -48)" onmousedown="handlePan(0,1)">
                  <use xlink:href="#rim" fill="#404040">
                        <set attributeName="fill" to="#808080" begin="arrowDown.mouseover" end="arrowDown.mouseout"/>
                  </use>
                  <path fill="none" stroke="white" stroke-width="1.5" d="M0,-3.0v7 M-2.5,-0.5L0,-3.0L2.5,-0.5"/>
                </g>
                <g id="arrowLeft" xlink:href="#dirArrow" transform="rotate(270) translate(-36 17)" onmousedown="handlePan(-1,0)">
                  <use xlink:href="#rim" fill="#404040">
                        <set attributeName="fill" to="#808080" begin="arrowLeft.mouseover" end="arrowLeft.mouseout"/>
                  </use>
                  <path fill="none" stroke="white" stroke-width="1.5" d="M0,-3.0v7 M-2.5,-0.5L0,-3.0L2.5,-0.5"/>
                </g>
        </g>
        <svg viewBox="0 0 15 15" width="100%" height="30px" preserveAspectRatio="xMaxYMin meet">
         <g id="arrow_out" transform="scale(0.3 0.3)">
          <a xlink:href="THTree_8h__dep__incl_org.svg" target="_base">
           <rect id="button" ry="5" rx="5" y="6" x="6" height="38" width="38"
                fill="#f2f5e9" fill-opacity="0.5" stroke="#606060" stroke-width="1.0"/>
           <path id="arrow"
             d="M 11.500037,31.436501 C 11.940474,20.09759 22.043105,11.32322 32.158766,21.979434 L 37.068811,17.246167 C 37.068811,17.246167 37.088388,32 37.088388,32 L 22.160133,31.978069 C 22.160133,31.978069 26.997745,27.140456 26.997745,27.140456 C 18.528582,18.264221 13.291696,25.230495 11.500037,31.436501 z"
             style="fill:#404040;"/>
          </a>
         </g>
        </svg>
</svg>
