<?xml version="1.0" encoding="UTF-8" standalone="no"?>
<!DOCTYPE svg PUBLIC "-//W3C//DTD SVG 1.1//EN"
 "http://www.w3.org/Graphics/SVG/1.1/DTD/svg11.dtd">
<!-- Generated by graphviz version 2.38.0 (20140413.2041)
 -->
<!-- Title: src/TH/THUtil.h Pages: 1 -->
<!--zoomable 464 -->
<svg id="main" version="1.1" xmlns="http://www.w3.org/2000/svg" xmlns:xlink="http://www.w3.org/1999/xlink" xml:space="preserve" onload="init(evt)">
<style type="text/css"><![CDATA[
.edge:hover path { stroke: red; }
.edge:hover polygon { stroke: red; fill: red; }
]]></style>
<script type="text/javascript"><![CDATA[
var edges = document.getElementsByTagName('g');
if (edges && edges.length) {
  for (var i=0;i<edges.length;i++) {
    if (edges[i].id.substr(0,4)=='edge') {
      edges[i].setAttribute('class','edge');
    }
  }
}
]]></script>
        <defs>
                <circle id="rim" cx="0" cy="0" r="7"/>
                <circle id="rim2" cx="0" cy="0" r="3.5"/>
                <g id="zoomPlus">
                        <use xlink:href="#rim" fill="#404040">
                                <set attributeName="fill" to="#808080" begin="zoomplus.mouseover" end="zoomplus.mouseout"/>
                        </use>
                        <path d="M-4,0h8M0,-4v8" fill="none" stroke="white" stroke-width="1.5" pointer-events="none"/>
                </g>
                <g id="zoomMin">
                        <use xlink:href="#rim" fill="#404040">
                                <set attributeName="fill" to="#808080" begin="zoomminus.mouseover" end="zoomminus.mouseout"/>
                        </use>
                        <path d="M-4,0h8" fill="none" stroke="white" stroke-width="1.5" pointer-events="none"/>
                </g>
                <g id="dirArrow">
                        <path fill="none" stroke="white" stroke-width="1.5" d="M0,-3.0v7 M-2.5,-0.5L0,-3.0L2.5,-0.5"/>
                </g>
               <g id="resetDef">
                       <use xlink:href="#rim2" fill="#404040">
                               <set attributeName="fill" to="#808080" begin="reset.mouseover" end="reset.mouseout"/>
                       </use>
               </g>
        </defs>

<script type="text/javascript">
var viewWidth = 1931;
var viewHeight = 464;
var sectionId = 'dynsection-1';
</script>
<script xlink:href="svgpan.js"/>
<svg id="graph" class="graph">
<g id="viewport">
<title>src/TH/THUtil.h</title>
<!-- Node1 -->
<g id="node1" class="node"><title>Node1</title>
<polygon fill="#bfbfbf" stroke="black" points="1692,-435.5 1692,-455.5 1784,-455.5 1784,-435.5 1692,-435.5"/>
<text text-anchor="middle" x="1738" y="-442.7" font-family="Helvetica,sans-Serif" font-size="11.00">src/TH/THUtil.h</text>
</g>
<!-- Node2 -->
<g id="node2" class="node"><title>Node2</title>
<g id="a_node2"><a xlink:href="Solution_8h.xhtml" target="_top" xlink:title="src/TH/Solution.h">
<polygon fill="none" stroke="black" points="1503,-378.5 1503,-398.5 1603,-398.5 1603,-378.5 1503,-378.5"/>
<text text-anchor="middle" x="1553" y="-385.7" font-family="Helvetica,sans-Serif" font-size="11.00">src/TH/Solution.h</text>
</a>
</g>
</g>
<!-- Node1&#45;&gt;Node2 -->
<g id="edge1" class="edge"><title>Node1&#45;&gt;Node2</title>
<path fill="none" stroke="midnightblue" d="M1697.7,-432.52C1663.27,-422.282 1614.48,-407.778 1583.29,-398.504"/>
<polygon fill="midnightblue" stroke="midnightblue" points="1696.87,-435.923 1707.45,-435.418 1698.86,-429.213 1696.87,-435.923"/>
</g>
<!-- Node6 -->
<g id="node6" class="node"><title>Node6</title>
<g id="a_node6"><a xlink:href="THBuilder_8h.xhtml" target="_top" xlink:title="src/TH/THBuilder.h">
<polygon fill="none" stroke="black" points="989,-0.5 989,-20.5 1099,-20.5 1099,-0.5 989,-0.5"/>
<text text-anchor="middle" x="1044" y="-7.7" font-family="Helvetica,sans-Serif" font-size="11.00">src/TH/THBuilder.h</text>
</a>
</g>
</g>
<!-- Node1&#45;&gt;Node6 -->
<g id="edge49" class="edge"><title>Node1&#45;&gt;Node6</title>
<path fill="none" stroke="midnightblue" d="M1794.12,-434.983C1848.56,-422.157 1923,-393.471 1923,-332.5 1923,-332.5 1923,-332.5 1923,-141.5 1923,-86.6327 1883.41,-78.6564 1833,-57 1766.07,-28.2464 1267.18,-15.8862 1099.1,-12.5086"/>
<polygon fill="midnightblue" stroke="midnightblue" points="1793.2,-431.601 1784.21,-437.198 1794.73,-438.432 1793.2,-431.601"/>
</g>
<!-- Node3 -->
<g id="node3" class="node"><title>Node3</title>
<g id="a_node3"><a xlink:href="BestList_8h.xhtml" target="_top" xlink:title="src/TH/BestList.h">
<polygon fill="none" stroke="black" points="186.5,-201.5 186.5,-221.5 285.5,-221.5 285.5,-201.5 186.5,-201.5"/>
<text text-anchor="middle" x="236" y="-208.7" font-family="Helvetica,sans-Serif" font-size="11.00">src/TH/BestList.h</text>
</a>
</g>
</g>
<!-- Node2&#45;&gt;Node3 -->
<g id="edge2" class="edge"><title>Node2&#45;&gt;Node3</title>
<path fill="none" stroke="midnightblue" d="M1492.77,-379.496C1269.38,-349.813 490.626,-246.334 285.718,-219.106"/>
<polygon fill="midnightblue" stroke="midnightblue" points="1492.61,-383.006 1502.98,-380.853 1493.53,-376.067 1492.61,-383.006"/>
</g>
<!-- Node2&#45;&gt;Node6 -->
<g id="edge47" class="edge"><title>Node2&#45;&gt;Node6</title>
<path fill="none" stroke="midnightblue" d="M1613.19,-379.75C1708.88,-365.726 1885,-332.211 1885,-275.5 1885,-275.5 1885,-275.5 1885,-141.5 1885,-80.554 1833.98,-78.6383 1777,-57 1714.24,-33.1634 1258.57,-17.7501 1099.01,-13.035"/>
<polygon fill="midnightblue" stroke="midnightblue" points="1612.46,-376.319 1603.06,-381.206 1613.46,-383.247 1612.46,-376.319"/>
</g>
<!-- Node10 -->
<g id="node10" class="node"><title>Node10</title>
<g id="a_node10"><a xlink:href="TH_8h.xhtml" target="_top" xlink:title="src/TH/TH.h">
<polygon fill="none" stroke="black" points="0,-132.5 0,-152.5 76,-152.5 76,-132.5 0,-132.5"/>
<text text-anchor="middle" x="38" y="-139.7" font-family="Helvetica,sans-Serif" font-size="11.00">src/TH/TH.h</text>
</a>
</g>
</g>
<!-- Node2&#45;&gt;Node10 -->
<g id="edge46" class="edge"><title>Node2&#45;&gt;Node10</title>
<path fill="none" stroke="midnightblue" d="M1492.72,-382.665C1399.59,-375.034 1215.15,-359.277 1059,-342 666.136,-298.533 549.978,-358.837 177,-228 125.034,-209.771 71.5851,-170.285 49.0638,-152.502"/>
<polygon fill="midnightblue" stroke="midnightblue" points="1492.55,-386.163 1502.8,-383.489 1493.12,-379.186 1492.55,-386.163"/>
</g>
<!-- Node11 -->
<g id="node11" class="node"><title>Node11</title>
<g id="a_node11"><a xlink:href="FitnessPolicy_8h.xhtml" target="_top" xlink:title="src/TH/FitnessPolicy.h">
<polygon fill="none" stroke="black" points="1363,-321.5 1363,-341.5 1487,-341.5 1487,-321.5 1363,-321.5"/>
<text text-anchor="middle" x="1425" y="-328.7" font-family="Helvetica,sans-Serif" font-size="11.00">src/TH/FitnessPolicy.h</text>
</a>
</g>
</g>
<!-- Node2&#45;&gt;Node11 -->
<g id="edge15" class="edge"><title>Node2&#45;&gt;Node11</title>
<path fill="none" stroke="midnightblue" d="M1522.66,-374.463C1499.1,-364.338 1467.02,-350.557 1446.17,-341.596"/>
<polygon fill="midnightblue" stroke="midnightblue" points="1521.29,-377.686 1531.86,-378.418 1524.06,-371.254 1521.29,-377.686"/>
</g>
<!-- Node21 -->
<g id="node21" class="node"><title>Node21</title>
<g id="a_node21"><a xlink:href="RosenbrockFitnessPolicy_8h.xhtml" target="_top" xlink:title="src/RosenbrockFitnessPolicy.h">
<polygon fill="none" stroke="black" points="1633,-264.5 1633,-284.5 1797,-284.5 1797,-264.5 1633,-264.5"/>
<text text-anchor="middle" x="1715" y="-271.7" font-family="Helvetica,sans-Serif" font-size="11.00">src/RosenbrockFitnessPolicy.h</text>
</a>
</g>
</g>
<!-- Node2&#45;&gt;Node21 -->
<g id="edge48" class="edge"><title>Node2&#45;&gt;Node21</title>
<path fill="none" stroke="midnightblue" d="M1574.57,-372.586C1608.54,-349.101 1673.51,-304.183 1701.56,-284.792"/>
<polygon fill="midnightblue" stroke="midnightblue" points="1572.49,-369.769 1566.26,-378.335 1576.47,-375.527 1572.49,-369.769"/>
</g>
<!-- Node23 -->
<g id="node23" class="node"><title>Node23</title>
<g id="a_node23"><a xlink:href="IterationData_8h.xhtml" target="_top" xlink:title="src/TH/IterationData.h">
<polygon fill="none" stroke="black" points="1491.5,-264.5 1491.5,-284.5 1614.5,-284.5 1614.5,-264.5 1491.5,-264.5"/>
<text text-anchor="middle" x="1553" y="-271.7" font-family="Helvetica,sans-Serif" font-size="11.00">src/TH/IterationData.h</text>
</a>
</g>
</g>
<!-- Node2&#45;&gt;Node23 -->
<g id="edge36" class="edge"><title>Node2&#45;&gt;Node23</title>
<path fill="none" stroke="midnightblue" d="M1553,-368.17C1553,-343.839 1553,-303.028 1553,-284.792"/>
<polygon fill="midnightblue" stroke="midnightblue" points="1549.5,-368.335 1553,-378.335 1556.5,-368.335 1549.5,-368.335"/>
</g>
<!-- Node4 -->
<g id="node4" class="node"><title>Node4</title>
<g id="a_node4"><a xlink:href="BestListSelectionPolicy_8h.xhtml" target="_top" xlink:title="src/TH/BestListSelection\lPolicy.h">
<polygon fill="none" stroke="black" points="169,-126.5 169,-158.5 303,-158.5 303,-126.5 169,-126.5"/>
<text text-anchor="start" x="177" y="-145.7" font-family="Helvetica,sans-Serif" font-size="11.00">src/TH/BestListSelection</text>
<text text-anchor="middle" x="236" y="-133.7" font-family="Helvetica,sans-Serif" font-size="11.00">Policy.h</text>
</a>
</g>
</g>
<!-- Node3&#45;&gt;Node4 -->
<g id="edge3" class="edge"><title>Node3&#45;&gt;Node4</title>
<path fill="none" stroke="midnightblue" d="M236,-191.308C236,-180.898 236,-168.218 236,-158.533"/>
<polygon fill="midnightblue" stroke="midnightblue" points="232.5,-191.464 236,-201.464 239.5,-191.464 232.5,-191.464"/>
</g>
<!-- Node3&#45;&gt;Node6 -->
<g id="edge14" class="edge"><title>Node3&#45;&gt;Node6</title>
<path fill="none" stroke="midnightblue" d="M205.67,-196.83C189.774,-188.168 171.31,-175.477 160,-159 134.031,-121.167 112.382,-90.2566 144,-57 173.19,-26.2975 797.415,-14.9756 988.747,-12.2191"/>
<polygon fill="midnightblue" stroke="midnightblue" points="204.167,-199.992 214.659,-201.461 207.373,-193.77 204.167,-199.992"/>
</g>
<!-- Node7 -->
<g id="node7" class="node"><title>Node7</title>
<g id="a_node7"><a xlink:href="BestListUpdatePolicy_8h.xhtml" target="_top" xlink:title="src/TH/BestListUpdatePolicy.h">
<polygon fill="none" stroke="black" points="449.5,-132.5 449.5,-152.5 612.5,-152.5 612.5,-132.5 449.5,-132.5"/>
<text text-anchor="middle" x="531" y="-139.7" font-family="Helvetica,sans-Serif" font-size="11.00">src/TH/BestListUpdatePolicy.h</text>
</a>
</g>
</g>
<!-- Node3&#45;&gt;Node7 -->
<g id="edge7" class="edge"><title>Node3&#45;&gt;Node7</title>
<path fill="none" stroke="midnightblue" d="M285.778,-199.194C343.534,-186.077 437.63,-164.706 490.903,-152.607"/>
<polygon fill="midnightblue" stroke="midnightblue" points="284.761,-195.836 275.785,-201.464 286.312,-202.662 284.761,-195.836"/>
</g>
<!-- Node3&#45;&gt;Node10 -->
<g id="edge12" class="edge"><title>Node3&#45;&gt;Node10</title>
<path fill="none" stroke="midnightblue" d="M199.407,-198.118C160.445,-184.933 99.7065,-164.38 64.9124,-152.607"/>
<polygon fill="midnightblue" stroke="midnightblue" points="198.703,-201.574 209.297,-201.464 200.946,-194.943 198.703,-201.574"/>
</g>
<!-- Node5 -->
<g id="node5" class="node"><title>Node5</title>
<g id="a_node5"><a xlink:href="RandomBestListSelectionPolicy_8h.xhtml" target="_top" xlink:title="src/TH/RandomBestListSelection\lPolicy.h">
<polygon fill="none" stroke="black" points="163,-57.5 163,-89.5 339,-89.5 339,-57.5 163,-57.5"/>
<text text-anchor="start" x="171" y="-76.7" font-family="Helvetica,sans-Serif" font-size="11.00">src/TH/RandomBestListSelection</text>
<text text-anchor="middle" x="251" y="-64.7" font-family="Helvetica,sans-Serif" font-size="11.00">Policy.h</text>
</a>
</g>
</g>
<!-- Node4&#45;&gt;Node5 -->
<g id="edge4" class="edge"><title>Node4&#45;&gt;Node5</title>
<path fill="none" stroke="midnightblue" d="M241.638,-116.318C243.647,-107.341 245.848,-97.5143 247.61,-89.6432"/>
<polygon fill="midnightblue" stroke="midnightblue" points="238.173,-115.774 239.404,-126.297 245.004,-117.303 238.173,-115.774"/>
</g>
<!-- Node4&#45;&gt;Node6 -->
<g id="edge6" class="edge"><title>Node4&#45;&gt;Node6</title>
<path fill="none" stroke="midnightblue" d="M186.593,-121.371C173.679,-113.58 161.335,-103.269 154,-90 146.904,-77.1641 143.897,-67.6324 154,-57 182.824,-26.6646 798.729,-15.1044 988.704,-12.2525"/>
<polygon fill="midnightblue" stroke="midnightblue" points="185.129,-124.562 195.569,-126.368 188.534,-118.446 185.129,-124.562"/>
</g>
<!-- Node5&#45;&gt;Node6 -->
<g id="edge5" class="edge"><title>Node5&#45;&gt;Node6</title>
<path fill="none" stroke="midnightblue" d="M349.369,-56.9129C593.428,-29.9595 872.482,-17.6576 988.808,-13.3596"/>
<polygon fill="midnightblue" stroke="midnightblue" points="348.791,-53.4556 339.24,-58.0422 349.567,-60.4125 348.791,-53.4556"/>
</g>
<!-- Node7&#45;&gt;Node6 -->
<g id="edge11" class="edge"><title>Node7&#45;&gt;Node6</title>
<path fill="none" stroke="midnightblue" d="M529.403,-122.252C528.945,-102.706 531.679,-73.0924 550,-57 582.435,-28.5098 867.087,-16.7368 988.986,-12.9712"/>
<polygon fill="midnightblue" stroke="midnightblue" points="525.917,-122.621 529.947,-132.419 532.907,-122.246 525.917,-122.621"/>
</g>
<!-- Node8 -->
<g id="node8" class="node"><title>Node8</title>
<g id="a_node8"><a xlink:href="ConvergentBestListUpdatePolicy_8h.xhtml" target="_top" xlink:title="src/TH/ConvergentBestList\lUpdatePolicy.h">
<polygon fill="none" stroke="black" points="357,-57.5 357,-89.5 503,-89.5 503,-57.5 357,-57.5"/>
<text text-anchor="start" x="365" y="-76.7" font-family="Helvetica,sans-Serif" font-size="11.00">src/TH/ConvergentBestList</text>
<text text-anchor="middle" x="430" y="-64.7" font-family="Helvetica,sans-Serif" font-size="11.00">UpdatePolicy.h</text>
</a>
</g>
</g>
<!-- Node7&#45;&gt;Node8 -->
<g id="edge8" class="edge"><title>Node7&#45;&gt;Node8</title>
<path fill="none" stroke="midnightblue" d="M508.827,-126.791C492.17,-115.742 469.436,-100.661 452.662,-89.5335"/>
<polygon fill="midnightblue" stroke="midnightblue" points="507.111,-129.853 517.379,-132.464 510.98,-124.019 507.111,-129.853"/>
</g>
<!-- Node9 -->
<g id="node9" class="node"><title>Node9</title>
<g id="a_node9"><a xlink:href="DivergentBestListUpdatePolicy_8h.xhtml" target="_top" xlink:title="src/TH/DivergentBestList\lUpdatePolicy.h">
<polygon fill="none" stroke="black" points="559.5,-57.5 559.5,-89.5 696.5,-89.5 696.5,-57.5 559.5,-57.5"/>
<text text-anchor="start" x="567.5" y="-76.7" font-family="Helvetica,sans-Serif" font-size="11.00">src/TH/DivergentBestList</text>
<text text-anchor="middle" x="628" y="-64.7" font-family="Helvetica,sans-Serif" font-size="11.00">UpdatePolicy.h</text>
</a>
</g>
</g>
<!-- Node7&#45;&gt;Node9 -->
<g id="edge10" class="edge"><title>Node7&#45;&gt;Node9</title>
<path fill="none" stroke="midnightblue" d="M552.741,-126.483C568.696,-115.463 590.275,-100.558 606.235,-89.5335"/>
<polygon fill="midnightblue" stroke="midnightblue" points="550.321,-123.901 544.082,-132.464 554.299,-129.661 550.321,-123.901"/>
</g>
<!-- Node8&#45;&gt;Node6 -->
<g id="edge9" class="edge"><title>Node8&#45;&gt;Node6</title>
<path fill="none" stroke="midnightblue" d="M513.122,-57.5246C514.423,-57.3444 515.717,-57.1694 517,-57 688.39,-34.3806 892.687,-20.4239 988.817,-14.6208"/>
<polygon fill="midnightblue" stroke="midnightblue" points="512.417,-54.0903 503.027,-58.9967 513.427,-61.017 512.417,-54.0903"/>
</g>
<!-- Node10&#45;&gt;Node6 -->
<g id="edge13" class="edge"><title>Node10&#45;&gt;Node6</title>
<path fill="none" stroke="midnightblue" d="M42.2801,-122.448C47.901,-102.357 59.8946,-71.6274 83,-57 159.516,-8.55997 796.092,-9.53857 988.883,-10.9691"/>
<polygon fill="midnightblue" stroke="midnightblue" points="38.8357,-121.794 39.783,-132.346 45.623,-123.506 38.8357,-121.794"/>
</g>
<!-- Node11&#45;&gt;Node6 -->
<g id="edge33" class="edge"><title>Node11&#45;&gt;Node6</title>
<path fill="none" stroke="midnightblue" d="M1425,-311.033C1425,-287.64 1425,-247.2 1425,-212.5 1425,-212.5 1425,-212.5 1425,-141.5 1425,-98.526 1413.49,-81.2399 1378,-57 1333.78,-26.7961 1182.11,-16.5237 1099.2,-13.1213"/>
<polygon fill="midnightblue" stroke="midnightblue" points="1421.5,-311.32 1425,-321.32 1428.5,-311.32 1421.5,-311.32"/>
</g>
<!-- Node11&#45;&gt;Node7 -->
<g id="edge16" class="edge"><title>Node11&#45;&gt;Node7</title>
<path fill="none" stroke="midnightblue" d="M1362.35,-319.717C1261.06,-302.05 1055.21,-265.173 882,-228 765.715,-203.044 628.976,-168.659 565.991,-152.534"/>
<polygon fill="midnightblue" stroke="midnightblue" points="1361.96,-323.201 1372.41,-321.468 1363.16,-316.305 1361.96,-323.201"/>
</g>
<!-- Node12 -->
<g id="node12" class="node"><title>Node12</title>
<g id="a_node12"><a xlink:href="Search_8h.xhtml" target="_top" xlink:title="src/TH/Search.h">
<polygon fill="none" stroke="black" points="1227.5,-264.5 1227.5,-284.5 1322.5,-284.5 1322.5,-264.5 1227.5,-264.5"/>
<text text-anchor="middle" x="1275" y="-271.7" font-family="Helvetica,sans-Serif" font-size="11.00">src/TH/Search.h</text>
</a>
</g>
</g>
<!-- Node11&#45;&gt;Node12 -->
<g id="edge17" class="edge"><title>Node11&#45;&gt;Node12</title>
<path fill="none" stroke="midnightblue" d="M1390.51,-317.855C1362.71,-307.662 1324.31,-293.579 1299.56,-284.504"/>
<polygon fill="midnightblue" stroke="midnightblue" points="1389.64,-321.261 1400.23,-321.418 1392.05,-314.689 1389.64,-321.261"/>
</g>
<!-- Node11&#45;&gt;Node21 -->
<g id="edge34" class="edge"><title>Node11&#45;&gt;Node21</title>
<path fill="none" stroke="midnightblue" d="M1482.69,-319.558C1536.83,-309.291 1616.83,-294.118 1667.41,-284.525"/>
<polygon fill="midnightblue" stroke="midnightblue" points="1481.74,-316.177 1472.56,-321.479 1483.04,-323.055 1481.74,-316.177"/>
</g>
<!-- Node12&#45;&gt;Node6 -->
<g id="edge29" class="edge"><title>Node12&#45;&gt;Node6</title>
<path fill="none" stroke="midnightblue" d="M1324.94,-260.797C1341.56,-253.934 1358.3,-243.552 1368,-228 1392.81,-188.236 1428.75,-137.17 1350,-57 1316.03,-22.4193 1177.84,-13.9831 1099.28,-12.0149"/>
<polygon fill="midnightblue" stroke="midnightblue" points="1323.36,-257.653 1315.22,-264.443 1325.82,-264.207 1323.36,-257.653"/>
</g>
<!-- Node13 -->
<g id="node13" class="node"><title>Node13</title>
<g id="a_node13"><a xlink:href="ConvergenceControlPolicy_8h.xhtml" target="_top" xlink:title="src/TH/ConvergenceControl\lPolicy.h">
<polygon fill="none" stroke="black" points="701,-126.5 701,-158.5 853,-158.5 853,-126.5 701,-126.5"/>
<text text-anchor="start" x="709" y="-145.7" font-family="Helvetica,sans-Serif" font-size="11.00">src/TH/ConvergenceControl</text>
<text text-anchor="middle" x="777" y="-133.7" font-family="Helvetica,sans-Serif" font-size="11.00">Policy.h</text>
</a>
</g>
</g>
<!-- Node12&#45;&gt;Node13 -->
<g id="edge18" class="edge"><title>Node12&#45;&gt;Node13</title>
<path fill="none" stroke="midnightblue" d="M1217.1,-269.231C1155.6,-263.672 1056.01,-251.718 973,-228 911.004,-210.287 842.737,-177.616 805.364,-158.503"/>
<polygon fill="midnightblue" stroke="midnightblue" points="1217.11,-272.746 1227.38,-270.133 1217.72,-265.772 1217.11,-272.746"/>
</g>
<!-- Node15 -->
<g id="node15" class="node"><title>Node15</title>
<g id="a_node15"><a xlink:href="SearchScore_8h.xhtml" target="_top" xlink:title="src/TH/SearchScore.h">
<polygon fill="none" stroke="black" points="982,-201.5 982,-221.5 1106,-221.5 1106,-201.5 982,-201.5"/>
<text text-anchor="middle" x="1044" y="-208.7" font-family="Helvetica,sans-Serif" font-size="11.00">src/TH/SearchScore.h</text>
</a>
</g>
</g>
<!-- Node12&#45;&gt;Node15 -->
<g id="edge22" class="edge"><title>Node12&#45;&gt;Node15</title>
<path fill="none" stroke="midnightblue" d="M1230.98,-261.874C1186.53,-250.137 1118.81,-232.254 1078.22,-221.538"/>
<polygon fill="midnightblue" stroke="midnightblue" points="1230.35,-265.33 1240.92,-264.499 1232.14,-258.562 1230.35,-265.33"/>
</g>
<!-- Node19 -->
<g id="node19" class="node"><title>Node19</title>
<g id="a_node19"><a xlink:href="PSO_8h.xhtml" target="_top" xlink:title="src/PSO.h">
<polygon fill="none" stroke="black" points="1293,-201.5 1293,-221.5 1359,-221.5 1359,-201.5 1293,-201.5"/>
<text text-anchor="middle" x="1326" y="-208.7" font-family="Helvetica,sans-Serif" font-size="11.00">src/PSO.h</text>
</a>
</g>
</g>
<!-- Node12&#45;&gt;Node19 -->
<g id="edge30" class="edge"><title>Node12&#45;&gt;Node19</title>
<path fill="none" stroke="midnightblue" d="M1289.15,-256.578C1298.63,-245.234 1310.75,-230.742 1318.44,-221.538"/>
<polygon fill="midnightblue" stroke="midnightblue" points="1286.25,-254.582 1282.53,-264.499 1291.62,-259.072 1286.25,-254.582"/>
</g>
<!-- Node20 -->
<g id="node20" class="node"><title>Node20</title>
<g id="a_node20"><a xlink:href="HillClimbing_8h.xhtml" target="_top" xlink:title="src/HillClimbing.h">
<polygon fill="none" stroke="black" points="1175,-201.5 1175,-221.5 1275,-221.5 1275,-201.5 1175,-201.5"/>
<text text-anchor="middle" x="1225" y="-208.7" font-family="Helvetica,sans-Serif" font-size="11.00">src/HillClimbing.h</text>
</a>
</g>
</g>
<!-- Node12&#45;&gt;Node20 -->
<g id="edge31" class="edge"><title>Node12&#45;&gt;Node20</title>
<path fill="none" stroke="midnightblue" d="M1261.13,-256.578C1251.83,-245.234 1239.95,-230.742 1232.41,-221.538"/>
<polygon fill="midnightblue" stroke="midnightblue" points="1258.58,-258.984 1267.62,-264.499 1263.99,-254.547 1258.58,-258.984"/>
</g>
<!-- Node13&#45;&gt;Node6 -->
<g id="edge21" class="edge"><title>Node13&#45;&gt;Node6</title>
<path fill="none" stroke="midnightblue" d="M798.375,-119.035C819.823,-96.9461 851.796,-65.3603 867,-57 904.811,-36.2085 952.402,-24.6666 988.71,-18.4146"/>
<polygon fill="midnightblue" stroke="midnightblue" points="795.695,-116.771 791.272,-126.398 800.733,-121.631 795.695,-116.771"/>
</g>
<!-- Node14 -->
<g id="node14" class="node"><title>Node14</title>
<g id="a_node14"><a xlink:href="CSMOn_8h.xhtml" target="_top" xlink:title="src/TH/CSMOn.h">
<polygon fill="none" stroke="black" points="715,-63.5 715,-83.5 815,-83.5 815,-63.5 715,-63.5"/>
<text text-anchor="middle" x="765" y="-70.7" font-family="Helvetica,sans-Serif" font-size="11.00">src/TH/CSMOn.h</text>
</a>
</g>
</g>
<!-- Node13&#45;&gt;Node14 -->
<g id="edge19" class="edge"><title>Node13&#45;&gt;Node14</title>
<path fill="none" stroke="midnightblue" d="M772.494,-116.343C770.444,-104.897 768.146,-92.0643 766.641,-83.6646"/>
<polygon fill="midnightblue" stroke="midnightblue" points="769.069,-117.07 774.277,-126.297 775.959,-115.836 769.069,-117.07"/>
</g>
<!-- Node14&#45;&gt;Node6 -->
<g id="edge20" class="edge"><title>Node14&#45;&gt;Node6</title>
<path fill="none" stroke="midnightblue" d="M811.367,-61.1025C817.295,-59.6947 823.286,-58.2962 829,-57 887.788,-43.6635 955.908,-29.4574 999.446,-20.5352"/>
<polygon fill="midnightblue" stroke="midnightblue" points="810.418,-57.7305 801.509,-63.4641 812.049,-64.5379 810.418,-57.7305"/>
</g>
<!-- Node15&#45;&gt;Node6 -->
<g id="edge28" class="edge"><title>Node15&#45;&gt;Node6</title>
<path fill="none" stroke="midnightblue" d="M1003.55,-197.773C983.824,-189.629 961.328,-177.124 947,-159 918.452,-122.888 903.121,-95.0706 929,-57 942.58,-37.0234 966.433,-25.8175 988.907,-19.5314"/>
<polygon fill="midnightblue" stroke="midnightblue" points="1002.37,-201.071 1012.96,-201.427 1004.9,-194.545 1002.37,-201.071"/>
</g>
<!-- Node16 -->
<g id="node16" class="node"><title>Node16</title>
<g id="a_node16"><a xlink:href="SearchAlgorithmSelectionPolicy_8h.xhtml" target="_top" xlink:title="src/TH/SearchAlgorithmSelection\lPolicy.h">
<polygon fill="none" stroke="black" points="956,-126.5 956,-158.5 1132,-158.5 1132,-126.5 956,-126.5"/>
<text text-anchor="start" x="964" y="-145.7" font-family="Helvetica,sans-Serif" font-size="11.00">src/TH/SearchAlgorithmSelection</text>
<text text-anchor="middle" x="1044" y="-133.7" font-family="Helvetica,sans-Serif" font-size="11.00">Policy.h</text>
</a>
</g>
</g>
<!-- Node15&#45;&gt;Node16 -->
<g id="edge23" class="edge"><title>Node15&#45;&gt;Node16</title>
<path fill="none" stroke="midnightblue" d="M1044,-191.308C1044,-180.898 1044,-168.218 1044,-158.533"/>
<polygon fill="midnightblue" stroke="midnightblue" points="1040.5,-191.464 1044,-201.464 1047.5,-191.464 1040.5,-191.464"/>
</g>
<!-- Node16&#45;&gt;Node6 -->
<g id="edge27" class="edge"><title>Node16&#45;&gt;Node6</title>
<path fill="none" stroke="midnightblue" d="M975.76,-122.057C960.828,-114.506 946.855,-104.146 938,-90 930.218,-77.5679 929.93,-69.2466 938,-57 950.452,-38.104 972.564,-27.0245 993.383,-20.5426"/>
<polygon fill="midnightblue" stroke="midnightblue" points="974.599,-125.376 985.144,-126.404 977.541,-119.025 974.599,-125.376"/>
</g>
<!-- Node17 -->
<g id="node17" class="node"><title>Node17</title>
<g id="a_node17"><a xlink:href="RoundRobinSearchAlgorithmSelectionPolicy_8h.xhtml" target="_top" xlink:title="src/TH/RoundRobinSearchAlgorithm\lSelectionPolicy.h">
<polygon fill="none" stroke="black" points="947.5,-57.5 947.5,-89.5 1140.5,-89.5 1140.5,-57.5 947.5,-57.5"/>
<text text-anchor="start" x="955.5" y="-76.7" font-family="Helvetica,sans-Serif" font-size="11.00">src/TH/RoundRobinSearchAlgorithm</text>
<text text-anchor="middle" x="1044" y="-64.7" font-family="Helvetica,sans-Serif" font-size="11.00">SelectionPolicy.h</text>
</a>
</g>
</g>
<!-- Node16&#45;&gt;Node17 -->
<g id="edge24" class="edge"><title>Node16&#45;&gt;Node17</title>
<path fill="none" stroke="midnightblue" d="M1044,-116.025C1044,-107.128 1044,-97.4287 1044,-89.6432"/>
<polygon fill="midnightblue" stroke="midnightblue" points="1040.5,-116.297 1044,-126.297 1047.5,-116.297 1040.5,-116.297"/>
</g>
<!-- Node18 -->
<g id="node18" class="node"><title>Node18</title>
<g id="a_node18"><a xlink:href="SingleSearchAlgorithmSelectionPolicy_8h.xhtml" target="_top" xlink:title="src/TH/SingleSearchAlgorithm\lSelectionPolicy.h">
<polygon fill="none" stroke="black" points="1159,-57.5 1159,-89.5 1321,-89.5 1321,-57.5 1159,-57.5"/>
<text text-anchor="start" x="1167" y="-76.7" font-family="Helvetica,sans-Serif" font-size="11.00">src/TH/SingleSearchAlgorithm</text>
<text text-anchor="middle" x="1240" y="-64.7" font-family="Helvetica,sans-Serif" font-size="11.00">SelectionPolicy.h</text>
</a>
</g>
</g>
<!-- Node16&#45;&gt;Node18 -->
<g id="edge26" class="edge"><title>Node16&#45;&gt;Node18</title>
<path fill="none" stroke="midnightblue" d="M1097.71,-123.139C1128.53,-112.603 1166.76,-99.5375 1195.82,-89.6017"/>
<polygon fill="midnightblue" stroke="midnightblue" points="1096.32,-119.917 1087.99,-126.464 1098.58,-126.541 1096.32,-119.917"/>
</g>
<!-- Node17&#45;&gt;Node6 -->
<g id="edge25" class="edge"><title>Node17&#45;&gt;Node6</title>
<path fill="none" stroke="midnightblue" d="M1044,-47.2294C1044,-37.7622 1044,-27.6021 1044,-20.5459"/>
<polygon fill="midnightblue" stroke="midnightblue" points="1040.5,-47.4213 1044,-57.4213 1047.5,-47.4214 1040.5,-47.4213"/>
</g>
<!-- Node20&#45;&gt;Node6 -->
<g id="edge32" class="edge"><title>Node20&#45;&gt;Node6</title>
<path fill="none" stroke="midnightblue" d="M1248.4,-195.732C1290.36,-167.476 1370.42,-104.362 1330,-57 1300.91,-22.9165 1173.67,-14.2377 1099.07,-12.1099"/>
<polygon fill="midnightblue" stroke="midnightblue" points="1246.26,-192.946 1239.84,-201.369 1250.11,-198.792 1246.26,-192.946"/>
</g>
<!-- Node22 -->
<g id="node22" class="node"><title>Node22</title>
<g id="a_node22"><a xlink:href="RosenbrockFitnessPolicy_8cpp.xhtml" target="_top" xlink:title="src/RosenbrockFitnessPolicy.cpp">
<polygon fill="none" stroke="black" points="1681.5,-201.5 1681.5,-221.5 1856.5,-221.5 1856.5,-201.5 1681.5,-201.5"/>
<text text-anchor="middle" x="1769" y="-208.7" font-family="Helvetica,sans-Serif" font-size="11.00">src/RosenbrockFitnessPolicy.cpp</text>
</a>
</g>
</g>
<!-- Node21&#45;&gt;Node22 -->
<g id="edge35" class="edge"><title>Node21&#45;&gt;Node22</title>
<path fill="none" stroke="midnightblue" d="M1729.69,-256.911C1739.77,-245.519 1752.77,-230.833 1761,-221.538"/>
<polygon fill="midnightblue" stroke="midnightblue" points="1726.98,-254.692 1722.97,-264.499 1732.22,-259.332 1726.98,-254.692"/>
</g>
<!-- Node23&#45;&gt;Node6 -->
<g id="edge45" class="edge"><title>Node23&#45;&gt;Node6</title>
<path fill="none" stroke="midnightblue" d="M1580.29,-259.604C1596.12,-251.15 1616.19,-239.744 1633,-228 1651.61,-214.998 1651.7,-205.172 1672,-195 1735.62,-163.122 1783.7,-214.685 1828,-159 1837.13,-147.522 1834.91,-138.939 1828,-126 1802.05,-77.3904 1777.15,-74.7755 1725,-57 1609.62,-17.675 1239.81,-12.1711 1099.08,-11.5255"/>
<polygon fill="midnightblue" stroke="midnightblue" points="1578.27,-256.712 1571.05,-264.464 1581.53,-262.907 1578.27,-256.712"/>
</g>
<!-- Node24 -->
<g id="node24" class="node"><title>Node24</title>
<g id="a_node24"><a xlink:href="RelocationStrategyData_8h.xhtml" target="_top" xlink:title="src/TH/RelocationStrategy\lData.h">
<polygon fill="none" stroke="black" points="1481.5,-195.5 1481.5,-227.5 1624.5,-227.5 1624.5,-195.5 1481.5,-195.5"/>
<text text-anchor="start" x="1489.5" y="-214.7" font-family="Helvetica,sans-Serif" font-size="11.00">src/TH/RelocationStrategy</text>
<text text-anchor="middle" x="1553" y="-202.7" font-family="Helvetica,sans-Serif" font-size="11.00">Data.h</text>
</a>
</g>
</g>
<!-- Node23&#45;&gt;Node24 -->
<g id="edge37" class="edge"><title>Node23&#45;&gt;Node24</title>
<path fill="none" stroke="midnightblue" d="M1553,-254.296C1553,-245.714 1553,-235.742 1553,-227.691"/>
<polygon fill="midnightblue" stroke="midnightblue" points="1549.5,-254.499 1553,-264.499 1556.5,-254.499 1549.5,-254.499"/>
</g>
<!-- Node24&#45;&gt;Node6 -->
<g id="edge44" class="edge"><title>Node24&#45;&gt;Node6</title>
<path fill="none" stroke="midnightblue" d="M1582.37,-189.161C1622.22,-157.735 1684.27,-98.2747 1646,-57 1609.25,-17.3715 1240.96,-12.0637 1099.21,-11.4973"/>
<polygon fill="midnightblue" stroke="midnightblue" points="1580.03,-186.546 1574.25,-195.425 1584.31,-192.089 1580.03,-186.546"/>
</g>
<!-- Node25 -->
<g id="node25" class="node"><title>Node25</title>
<g id="a_node25"><a xlink:href="BetaRelocationStrategyData_8h.xhtml" target="_top" xlink:title="src/TH/BetaRelocationStrategy\lData.h">
<polygon fill="none" stroke="black" points="1653,-126.5 1653,-158.5 1819,-158.5 1819,-126.5 1653,-126.5"/>
<text text-anchor="start" x="1661" y="-145.7" font-family="Helvetica,sans-Serif" font-size="11.00">src/TH/BetaRelocationStrategy</text>
<text text-anchor="middle" x="1736" y="-133.7" font-family="Helvetica,sans-Serif" font-size="11.00">Data.h</text>
</a>
</g>
</g>
<!-- Node24&#45;&gt;Node25 -->
<g id="edge38" class="edge"><title>Node24&#45;&gt;Node25</title>
<path fill="none" stroke="midnightblue" d="M1603.52,-192.002C1632.24,-181.49 1667.73,-168.494 1694.75,-158.602"/>
<polygon fill="midnightblue" stroke="midnightblue" points="1602.26,-188.739 1594.07,-195.464 1604.66,-195.312 1602.26,-188.739"/>
</g>
<!-- Node26 -->
<g id="node26" class="node"><title>Node26</title>
<g id="a_node26"><a xlink:href="RelocationStrategyPolicy_8h.xhtml" target="_top" xlink:title="src/TH/RelocationStrategy\lPolicy.h">
<polygon fill="none" stroke="black" points="1453.5,-126.5 1453.5,-158.5 1596.5,-158.5 1596.5,-126.5 1453.5,-126.5"/>
<text text-anchor="start" x="1461.5" y="-145.7" font-family="Helvetica,sans-Serif" font-size="11.00">src/TH/RelocationStrategy</text>
<text text-anchor="middle" x="1525" y="-133.7" font-family="Helvetica,sans-Serif" font-size="11.00">Policy.h</text>
</a>
</g>
</g>
<!-- Node24&#45;&gt;Node26 -->
<g id="edge40" class="edge"><title>Node24&#45;&gt;Node26</title>
<path fill="none" stroke="midnightblue" d="M1542.72,-185.902C1538.9,-176.77 1534.69,-166.685 1531.33,-158.643"/>
<polygon fill="midnightblue" stroke="midnightblue" points="1539.56,-187.42 1546.65,-195.297 1546.02,-184.72 1539.56,-187.42"/>
</g>
<!-- Node25&#45;&gt;Node6 -->
<g id="edge39" class="edge"><title>Node25&#45;&gt;Node6</title>
<path fill="none" stroke="midnightblue" d="M1732.18,-116.495C1727.76,-96.8796 1718.42,-70.6815 1699,-57 1650.51,-22.8428 1247.94,-14.1512 1099.07,-12.0949"/>
<polygon fill="midnightblue" stroke="midnightblue" points="1728.75,-117.187 1734.11,-126.322 1735.61,-115.834 1728.75,-117.187"/>
</g>
<!-- Node26&#45;&gt;Node6 -->
<g id="edge43" class="edge"><title>Node26&#45;&gt;Node6</title>
<path fill="none" stroke="midnightblue" d="M1590.47,-122.131C1605.31,-114.548 1619.25,-104.154 1628,-90 1635.71,-77.5238 1637.96,-67.7662 1628,-57 1592.52,-18.6482 1237.68,-12.5496 1099.07,-11.6359"/>
<polygon fill="midnightblue" stroke="midnightblue" points="1588.72,-119.085 1581.15,-126.498 1591.69,-125.423 1588.72,-119.085"/>
</g>
<!-- Node27 -->
<g id="node27" class="node"><title>Node27</title>
<g id="a_node27"><a xlink:href="BetaRelocationStrategyPolicy_8h.xhtml" target="_top" xlink:title="src/TH/BetaRelocationStrategy\lPolicy.h">
<polygon fill="none" stroke="black" points="1453,-57.5 1453,-89.5 1619,-89.5 1619,-57.5 1453,-57.5"/>
<text text-anchor="start" x="1461" y="-76.7" font-family="Helvetica,sans-Serif" font-size="11.00">src/TH/BetaRelocationStrategy</text>
<text text-anchor="middle" x="1536" y="-64.7" font-family="Helvetica,sans-Serif" font-size="11.00">Policy.h</text>
</a>
</g>
</g>
<!-- Node26&#45;&gt;Node27 -->
<g id="edge41" class="edge"><title>Node26&#45;&gt;Node27</title>
<path fill="none" stroke="midnightblue" d="M1529.13,-116.318C1530.61,-107.341 1532.22,-97.5143 1533.51,-89.6432"/>
<polygon fill="midnightblue" stroke="midnightblue" points="1525.66,-115.862 1527.5,-126.297 1532.57,-116.996 1525.66,-115.862"/>
</g>
<!-- Node27&#45;&gt;Node6 -->
<g id="edge42" class="edge"><title>Node27&#45;&gt;Node6</title>
<path fill="none" stroke="midnightblue" d="M1442.87,-57.5381C1441.58,-57.3558 1440.28,-57.1763 1439,-57 1317.95,-40.3654 1175.47,-24.9824 1099.05,-17.0723"/>
<polygon fill="midnightblue" stroke="midnightblue" points="1442.56,-61.0293 1452.96,-58.9858 1443.56,-54.1003 1442.56,-61.0293"/>
</g>
</g>
</svg>
        <g id="navigator" transform="translate(0 0)" fill="#404254">
                <rect fill="#f2f5e9" fill-opacity="0.5" stroke="#606060" stroke-width=".5" x="0" y="0" width="60" height="60"/>
                <use id="zoomplus" xlink:href="#zoomPlus" x="17" y="9" onmousedown="handleZoom(evt,'in')"/>
                <use id="zoomminus" xlink:href="#zoomMin" x="42" y="9" onmousedown="handleZoom(evt,'out')"/>
                <use id="reset" xlink:href="#resetDef" x="30" y="36" onmousedown="handleReset()"/>
                <g id="arrowUp" xlink:href="#dirArrow" transform="translate(30 24)" onmousedown="handlePan(0,-1)">
                  <use xlink:href="#rim" fill="#404040">
                        <set attributeName="fill" to="#808080" begin="arrowUp.mouseover" end="arrowUp.mouseout"/>
                  </use>
                  <path fill="none" stroke="white" stroke-width="1.5" d="M0,-3.0v7 M-2.5,-0.5L0,-3.0L2.5,-0.5"/>
                </g>
                <g id="arrowRight" xlink:href="#dirArrow" transform="rotate(90) translate(36 -43)" onmousedown="handlePan(1,0)">
                  <use xlink:href="#rim" fill="#404040">
                        <set attributeName="fill" to="#808080" begin="arrowRight.mouseover" end="arrowRight.mouseout"/>
                  </use>
                  <path fill="none" stroke="white" stroke-width="1.5" d="M0,-3.0v7 M-2.5,-0.5L0,-3.0L2.5,-0.5"/>
                </g>
                <g id="arrowDown" xlink:href="#dirArrow" transform="rotate(180) translate(-30 -48)" onmousedown="handlePan(0,1)">
                  <use xlink:href="#rim" fill="#404040">
                        <set attributeName="fill" to="#808080" begin="arrowDown.mouseover" end="arrowDown.mouseout"/>
                  </use>
                  <path fill="none" stroke="white" stroke-width="1.5" d="M0,-3.0v7 M-2.5,-0.5L0,-3.0L2.5,-0.5"/>
                </g>
                <g id="arrowLeft" xlink:href="#dirArrow" transform="rotate(270) translate(-36 17)" onmousedown="handlePan(-1,0)">
                  <use xlink:href="#rim" fill="#404040">
                        <set attributeName="fill" to="#808080" begin="arrowLeft.mouseover" end="arrowLeft.mouseout"/>
                  </use>
                  <path fill="none" stroke="white" stroke-width="1.5" d="M0,-3.0v7 M-2.5,-0.5L0,-3.0L2.5,-0.5"/>
                </g>
        </g>
        <svg viewBox="0 0 15 15" width="100%" height="30px" preserveAspectRatio="xMaxYMin meet">
         <g id="arrow_out" transform="scale(0.3 0.3)">
          <a xlink:href="THUtil_8h__dep__incl_org.svg" target="_base">
           <rect id="button" ry="5" rx="5" y="6" x="6" height="38" width="38"
                fill="#f2f5e9" fill-opacity="0.5" stroke="#606060" stroke-width="1.0"/>
           <path id="arrow"
             d="M 11.500037,31.436501 C 11.940474,20.09759 22.043105,11.32322 32.158766,21.979434 L 37.068811,17.246167 C 37.068811,17.246167 37.088388,32 37.088388,32 L 22.160133,31.978069 C 22.160133,31.978069 26.997745,27.140456 26.997745,27.140456 C 18.528582,18.264221 13.291696,25.230495 11.500037,31.436501 z"
             style="fill:#404040;"/>
          </a>
         </g>
        </svg>
</svg>
