<?xml version="1.0" encoding="UTF-8" standalone="no"?>
<!DOCTYPE svg PUBLIC "-//W3C//DTD SVG 1.1//EN"
 "http://www.w3.org/Graphics/SVG/1.1/DTD/svg11.dtd">
<!-- Generated by graphviz version 2.38.0 (20140413.2041)
 -->
<!-- Title: src/TH/THUtil.h Pages: 1 -->
<svg width="638pt" height="143pt"
 viewBox="0.00 0.00 637.50 143.00" xmlns="http://www.w3.org/2000/svg" xmlns:xlink="http://www.w3.org/1999/xlink">
<g id="graph0" class="graph" transform="scale(1 1) rotate(0) translate(4 139)">
<title>src/TH/THUtil.h</title>
<!-- Node1 -->
<g id="node1" class="node"><title>Node1</title>
<polygon fill="#bfbfbf" stroke="black" points="250,-114.5 250,-134.5 342,-134.5 342,-114.5 250,-114.5"/>
<text text-anchor="middle" x="296" y="-121.7" font-family="Helvetica,sans-Serif" font-size="11.00">src/TH/THUtil.h</text>
</g>
<!-- Node2 -->
<g id="node2" class="node"><title>Node2</title>
<polygon fill="none" stroke="#bfbfbf" points="0,-57.5 0,-77.5 52,-77.5 52,-57.5 0,-57.5"/>
<text text-anchor="middle" x="26" y="-64.7" font-family="Helvetica,sans-Serif" font-size="11.00">string.h</text>
</g>
<!-- Node1&#45;&gt;Node2 -->
<g id="edge1" class="edge"><title>Node1&#45;&gt;Node2</title>
<path fill="none" stroke="midnightblue" d="M249.635,-115.416C204.415,-107.324 133.479,-94.0788 62.3342,-77.9484"/>
<polygon fill="midnightblue" stroke="midnightblue" points="62.8251,-74.4704 52.2965,-75.6535 61.2649,-81.2944 62.8251,-74.4704"/>
</g>
<!-- Node3 -->
<g id="node3" class="node"><title>Node3</title>
<polygon fill="none" stroke="#bfbfbf" points="70.5,-57.5 70.5,-77.5 123.5,-77.5 123.5,-57.5 70.5,-57.5"/>
<text text-anchor="middle" x="97" y="-64.7" font-family="Helvetica,sans-Serif" font-size="11.00">random</text>
</g>
<!-- Node1&#45;&gt;Node3 -->
<g id="edge2" class="edge"><title>Node1&#45;&gt;Node3</title>
<path fill="none" stroke="midnightblue" d="M263.139,-114.418C227.418,-104.545 170.49,-88.8113 133.428,-78.5679"/>
<polygon fill="midnightblue" stroke="midnightblue" points="134.106,-75.1243 123.535,-75.8338 132.241,-81.8713 134.106,-75.1243"/>
</g>
<!-- Node4 -->
<g id="node4" class="node"><title>Node4</title>
<polygon fill="none" stroke="#bfbfbf" points="142,-57.5 142,-77.5 186,-77.5 186,-57.5 142,-57.5"/>
<text text-anchor="middle" x="164" y="-64.7" font-family="Helvetica,sans-Serif" font-size="11.00">cstdio</text>
</g>
<!-- Node1&#45;&gt;Node4 -->
<g id="edge3" class="edge"><title>Node1&#45;&gt;Node4</title>
<path fill="none" stroke="midnightblue" d="M274.203,-114.418C252.707,-105.461 219.634,-91.6806 195.325,-81.552"/>
<polygon fill="midnightblue" stroke="midnightblue" points="196.406,-78.2111 185.829,-77.5956 193.714,-84.6726 196.406,-78.2111"/>
</g>
<!-- Node5 -->
<g id="node5" class="node"><title>Node5</title>
<polygon fill="none" stroke="#bfbfbf" points="204.5,-57.5 204.5,-77.5 251.5,-77.5 251.5,-57.5 204.5,-57.5"/>
<text text-anchor="middle" x="228" y="-64.7" font-family="Helvetica,sans-Serif" font-size="11.00">cstdlib</text>
</g>
<!-- Node1&#45;&gt;Node5 -->
<g id="edge4" class="edge"><title>Node1&#45;&gt;Node5</title>
<path fill="none" stroke="midnightblue" d="M284.771,-114.418C274.596,-106.188 259.384,-93.8839 247.267,-84.0836"/>
<polygon fill="midnightblue" stroke="midnightblue" points="249.449,-81.3469 239.473,-77.7795 245.047,-86.7895 249.449,-81.3469"/>
</g>
<!-- Node6 -->
<g id="node6" class="node"><title>Node6</title>
<polygon fill="none" stroke="#bfbfbf" points="269.5,-57.5 269.5,-77.5 322.5,-77.5 322.5,-57.5 269.5,-57.5"/>
<text text-anchor="middle" x="296" y="-64.7" font-family="Helvetica,sans-Serif" font-size="11.00">fstream</text>
</g>
<!-- Node1&#45;&gt;Node6 -->
<g id="edge5" class="edge"><title>Node1&#45;&gt;Node6</title>
<path fill="none" stroke="midnightblue" d="M296,-114.418C296,-107.216 296,-96.8962 296,-87.8632"/>
<polygon fill="midnightblue" stroke="midnightblue" points="299.5,-87.7794 296,-77.7795 292.5,-87.7795 299.5,-87.7794"/>
</g>
<!-- Node7 -->
<g id="node7" class="node"><title>Node7</title>
<polygon fill="none" stroke="#bfbfbf" points="341,-57.5 341,-77.5 403,-77.5 403,-57.5 341,-57.5"/>
<text text-anchor="middle" x="372" y="-64.7" font-family="Helvetica,sans-Serif" font-size="11.00">sys/stat.h</text>
</g>
<!-- Node1&#45;&gt;Node7 -->
<g id="edge6" class="edge"><title>Node1&#45;&gt;Node7</title>
<path fill="none" stroke="midnightblue" d="M308.55,-114.418C320.101,-106.058 337.459,-93.4966 351.102,-83.6239"/>
<polygon fill="midnightblue" stroke="midnightblue" points="353.382,-86.2938 359.432,-77.5956 349.278,-80.6229 353.382,-86.2938"/>
</g>
<!-- Node8 -->
<g id="node8" class="node"><title>Node8</title>
<polygon fill="none" stroke="#bfbfbf" points="421,-57.5 421,-77.5 475,-77.5 475,-57.5 421,-57.5"/>
<text text-anchor="middle" x="448" y="-64.7" font-family="Helvetica,sans-Serif" font-size="11.00">libgen.h</text>
</g>
<!-- Node1&#45;&gt;Node8 -->
<g id="edge7" class="edge"><title>Node1&#45;&gt;Node8</title>
<path fill="none" stroke="midnightblue" d="M321.1,-114.418C346.368,-105.275 385.529,-91.1046 413.664,-80.924"/>
<polygon fill="midnightblue" stroke="midnightblue" points="414.903,-84.198 423.116,-77.5042 412.521,-77.6156 414.903,-84.198"/>
</g>
<!-- Node9 -->
<g id="node9" class="node"><title>Node9</title>
<g id="a_node9"><a xlink:href="macros_8h.xhtml" target="_top" xlink:title="macros.h">
<polygon fill="none" stroke="black" points="493.5,-57.5 493.5,-77.5 554.5,-77.5 554.5,-57.5 493.5,-57.5"/>
<text text-anchor="middle" x="524" y="-64.7" font-family="Helvetica,sans-Serif" font-size="11.00">macros.h</text>
</a>
</g>
</g>
<!-- Node1&#45;&gt;Node9 -->
<g id="edge8" class="edge"><title>Node1&#45;&gt;Node9</title>
<path fill="none" stroke="midnightblue" d="M333.394,-114.479C374.68,-104.52 440.916,-88.5423 483.431,-78.2864"/>
<polygon fill="midnightblue" stroke="midnightblue" points="484.273,-81.6837 493.174,-75.9362 482.632,-74.8789 484.273,-81.6837"/>
</g>
<!-- Node13 -->
<g id="node13" class="node"><title>Node13</title>
<g id="a_node13"><a xlink:href="config_8h.xhtml" target="_top" xlink:title="config.h">
<polygon fill="none" stroke="black" points="573,-57.5 573,-77.5 627,-77.5 627,-57.5 573,-57.5"/>
<text text-anchor="middle" x="600" y="-64.7" font-family="Helvetica,sans-Serif" font-size="11.00">config.h</text>
</a>
</g>
</g>
<!-- Node1&#45;&gt;Node13 -->
<g id="edge12" class="edge"><title>Node1&#45;&gt;Node13</title>
<path fill="none" stroke="midnightblue" d="M342.241,-116.94C393.807,-109.338 479.87,-95.7989 563.069,-78.0487"/>
<polygon fill="midnightblue" stroke="midnightblue" points="563.899,-81.4503 572.936,-75.9206 562.423,-74.6077 563.899,-81.4503"/>
</g>
<!-- Node10 -->
<g id="node10" class="node"><title>Node10</title>
<polygon fill="none" stroke="#bfbfbf" points="425,-0.5 425,-20.5 473,-20.5 473,-0.5 425,-0.5"/>
<text text-anchor="middle" x="449" y="-7.7" font-family="Helvetica,sans-Serif" font-size="11.00">stdio.h</text>
</g>
<!-- Node9&#45;&gt;Node10 -->
<g id="edge9" class="edge"><title>Node9&#45;&gt;Node10</title>
<path fill="none" stroke="midnightblue" d="M511.615,-57.4179C500.216,-49.0584 483.086,-36.4966 469.624,-26.6239"/>
<polygon fill="midnightblue" stroke="midnightblue" points="471.537,-23.6869 461.403,-20.5956 467.397,-29.3317 471.537,-23.6869"/>
</g>
<!-- Node11 -->
<g id="node11" class="node"><title>Node11</title>
<polygon fill="none" stroke="#bfbfbf" points="491.5,-0.5 491.5,-20.5 556.5,-20.5 556.5,-0.5 491.5,-0.5"/>
<text text-anchor="middle" x="524" y="-7.7" font-family="Helvetica,sans-Serif" font-size="11.00">sys/time.h</text>
</g>
<!-- Node9&#45;&gt;Node11 -->
<g id="edge10" class="edge"><title>Node9&#45;&gt;Node11</title>
<path fill="none" stroke="midnightblue" d="M524,-57.4179C524,-50.2164 524,-39.8962 524,-30.8632"/>
<polygon fill="midnightblue" stroke="midnightblue" points="527.5,-30.7794 524,-20.7795 520.5,-30.7795 527.5,-30.7794"/>
</g>
<!-- Node12 -->
<g id="node12" class="node"><title>Node12</title>
<polygon fill="none" stroke="#bfbfbf" points="574.5,-0.5 574.5,-20.5 629.5,-20.5 629.5,-0.5 574.5,-0.5"/>
<text text-anchor="middle" x="602" y="-7.7" font-family="Helvetica,sans-Serif" font-size="11.00">sstream</text>
</g>
<!-- Node9&#45;&gt;Node12 -->
<g id="edge11" class="edge"><title>Node9&#45;&gt;Node12</title>
<path fill="none" stroke="midnightblue" d="M536.88,-57.4179C548.735,-49.0584 566.55,-36.4966 580.552,-26.6239"/>
<polygon fill="midnightblue" stroke="midnightblue" points="582.945,-29.2188 589.101,-20.5956 578.911,-23.498 582.945,-29.2188"/>
</g>
</g>
</svg>
